mtllib Materials_Modular_Terrain.mtl
o object1
g object1
v -0.57653669 0.00000000 -0.17346331
v -0.57653669 1.20000000 -0.17346331
v -0.60823922 1.20000000 -0.25000000
v -0.60823922 0.00000000 -0.25000000
v -0.57653669 0.00000000 -0.32653669
v -0.57653669 1.20000000 -0.32653669
v -0.50000000 1.20000000 -0.35823922
v -0.50000000 0.00000000 -0.35823922
v -0.42346331 1.20000000 -0.32653669
v -0.42346331 0.00000000 -0.32653669
v -0.39176078 1.20000000 -0.25000000
v -0.39176078 0.00000000 -0.25000000
v -0.42346331 0.00000000 -0.17346331
v -0.42346331 1.20000000 -0.17346331
v -0.50000000 0.00000000 -0.14176078
v -0.50000000 1.20000000 -0.14176078
v -0.50000000 1.25000000 -0.25000000
vt 1.00000000 1.00000000
vt 0.00000000 1.00000000
vt 0.00000000 0.00000000
vt 1.00000000 0.00000000
vt 1.00000000 1.00000000
vt 0.00000000 1.00000000
vt 0.00000000 0.00000000
vt 1.00000000 0.00000000
vt 1.00000000 1.00000000
vt 0.00000000 1.00000000
vt 0.00000000 0.00000000
vt 1.00000000 0.00000000
vt 1.00000000 1.00000000
vt 0.00000000 1.00000000
vt 0.00000000 0.00000000
vt 1.00000000 0.00000000
vt 1.00000000 1.00000000
vt 0.00000000 1.00000000
vt 0.00000000 0.00000000
vt 1.00000000 0.00000000
vt 1.00000000 1.00000000
vt 0.00000000 1.00000000
vt 0.00000000 0.00000000
vt 1.00000000 0.00000000
vt 1.00000000 1.00000000
vt 0.00000000 1.00000000
vt 0.00000000 0.00000000
vt 1.00000000 0.00000000
vt 1.00000000 0.50221105
vt 0.41421356 1.00000000
vt 0.00000000 0.00000000
vt 1.00000000 1.00000000
vt 0.00000000 1.00000000
vt 0.50000000 0.00000000
vt 1.00000000 0.00000000
vt 1.00000000 1.00000000
vt 0.00000000 0.50000000
vt 0.41421356 0.00000000
vt 1.00000000 0.49778895
vt 0.00000000 1.00000000
vt 0.00000000 0.00000000
vt 1.00000000 0.00000000
vt 0.50000000 1.00000000
vt 0.00000000 0.49778895
vt 0.58578644 0.00000000
vt 1.00000000 1.00000000
vt 0.00000000 1.00000000
vt 0.00000000 0.00000000
vt 1.00000000 0.50000000
vt 1.00000000 1.00000000
vt 0.00000000 1.00000000
vt 0.00000000 0.00000000
vt 1.00000000 0.00000000
vt 0.58578644 1.00000000
vt 0.00000000 0.50221105
vt 1.00000000 0.00000000
vn -0.92387953 0.00000000 0.38268343
vn -0.92387953 0.00000000 0.38268343
vn -0.92387953 0.00000000 0.38268343
vn -0.92387953 0.00000000 0.38268343
vn -0.92387953 0.00000000 -0.38268343
vn -0.92387953 0.00000000 -0.38268343
vn -0.92387953 0.00000000 -0.38268343
vn -0.92387953 0.00000000 -0.38268343
vn -0.38268343 0.00000000 -0.92387953
vn -0.38268343 0.00000000 -0.92387953
vn -0.38268343 0.00000000 -0.92387953
vn -0.38268343 0.00000000 -0.92387953
vn 0.38268343 0.00000000 -0.92387953
vn 0.38268343 0.00000000 -0.92387953
vn 0.38268343 0.00000000 -0.92387953
vn 0.38268343 0.00000000 -0.92387953
vn 0.92387953 0.00000000 -0.38268343
vn 0.92387953 0.00000000 -0.38268343
vn 0.92387953 0.00000000 -0.38268343
vn 0.92387953 0.00000000 -0.38268343
vn 0.92387953 0.00000000 0.38268343
vn 0.92387953 0.00000000 0.38268343
vn 0.92387953 0.00000000 0.38268343
vn 0.92387953 0.00000000 0.38268343
vn 0.38268343 0.00000000 0.92387953
vn 0.38268343 0.00000000 0.92387953
vn 0.38268343 0.00000000 0.92387953
vn 0.38268343 0.00000000 0.92387953
vn 0.17114123 0.89442719 0.41317149
vn 0.17114123 0.89442719 0.41317149
vn 0.17114123 0.89442719 0.41317149
vn -0.17114123 0.89442719 0.41317149
vn -0.17114123 0.89442719 0.41317149
vn -0.17114123 0.89442719 0.41317149
vn 0.41317149 0.89442719 0.17114123
vn 0.41317149 0.89442719 0.17114123
vn 0.41317149 0.89442719 0.17114123
vn 0.41317149 0.89442719 -0.17114123
vn 0.41317149 0.89442719 -0.17114123
vn 0.41317149 0.89442719 -0.17114123
vn 0.17114123 0.89442719 -0.41317149
vn 0.17114123 0.89442719 -0.41317149
vn 0.17114123 0.89442719 -0.41317149
vn -0.17114123 0.89442719 -0.41317149
vn -0.17114123 0.89442719 -0.41317149
vn -0.17114123 0.89442719 -0.41317149
vn -0.41317149 0.89442719 -0.17114123
vn -0.41317149 0.89442719 -0.17114123
vn -0.41317149 0.89442719 -0.17114123
vn -0.38268343 0.00000000 0.92387953
vn -0.38268343 0.00000000 0.92387953
vn -0.38268343 0.00000000 0.92387953
vn -0.38268343 0.00000000 0.92387953
vn -0.41317149 0.89442719 0.17114123
vn -0.41317149 0.89442719 0.17114123
vn -0.41317149 0.89442719 0.17114123
s 1
usemtl Wood_Dark
f 1/1/1 2/2/2 4/4/4
f 2/2/2 3/3/3 4/4/4
s 2
f 4/8/8 3/7/7 6/6/6
f 4/8/8 6/6/6 5/5/5
s 3
f 5/9/9 6/10/10 7/11/11
f 5/9/9 7/11/11 8/12/12
s 4
f 8/13/13 7/14/14 10/16/16
f 7/14/14 9/15/15 10/16/16
s 5
f 10/17/17 9/18/18 12/20/20
f 9/18/18 11/19/19 12/20/20
s 6
f 12/24/24 11/23/23 14/22/22
f 12/24/24 14/22/22 13/21/21
s 7
f 13/28/28 14/27/27 16/26/26
f 13/28/28 16/26/26 15/25/25
s 8
usemtl Wood_Light
f 17/31/31 16/30/30 14/29/29
s 9
f 17/34/34 2/33/33 16/32/32
s 10
f 17/37/37 14/36/36 11/35/35
s 11
f 17/40/40 11/39/39 9/38/38
s 12
f 17/43/43 9/42/42 7/41/41
s 13
f 17/46/46 7/45/45 6/44/44
s 14
f 17/49/49 6/48/48 3/47/47
s 15
usemtl Wood_Dark
f 15/53/53 16/52/52 1/50/50
f 16/52/52 2/51/51 1/50/50
s 16
usemtl Wood_Light
f 17/56/56 3/55/55 2/54/54
o object2
g object2
v -0.50000000 1.20000000 0.35823922
v -0.57653669 1.20000000 0.32653669
v -0.57653669 0.00000000 0.32653669
v -0.50000000 0.00000000 0.35823922
v -0.42346331 1.20000000 0.32653669
v -0.42346331 0.00000000 0.32653669
v -0.39176078 1.20000000 0.25000000
v -0.39176078 0.00000000 0.25000000
v -0.42346331 0.00000000 0.17346331
v -0.42346331 1.20000000 0.17346331
v -0.50000000 0.00000000 0.14176078
v -0.50000000 1.20000000 0.14176078
v -0.57653669 0.00000000 0.17346331
v -0.57653669 1.20000000 0.17346331
v -0.60823922 1.20000000 0.25000000
v -0.60823922 0.00000000 0.25000000
v -0.50000000 1.25000000 0.25000000
vt 0.00000000 1.00000000
vt 0.00000000 0.00000000
vt 1.00000000 0.00000000
vt 1.00000000 1.00000000
vt 1.00000000 1.00000000
vt 0.00000000 1.00000000
vt 0.00000000 0.00000000
vt 1.00000000 0.00000000
vt 1.00000000 1.00000000
vt 0.00000000 1.00000000
vt 0.00000000 0.00000000
vt 1.00000000 0.00000000
vt 1.00000000 1.00000000
vt 0.00000000 1.00000000
vt 0.00000000 0.00000000
vt 1.00000000 0.00000000
vt 1.00000000 1.00000000
vt 0.00000000 1.00000000
vt 0.00000000 0.00000000
vt 1.00000000 0.00000000
vt 1.00000000 1.00000000
vt 0.00000000 1.00000000
vt 0.00000000 0.00000000
vt 1.00000000 0.00000000
vt 0.00000000 1.00000000
vt 0.00000000 0.00000000
vt 1.00000000 0.00000000
vt 1.00000000 1.00000000
vt 0.58578644 1.00000000
vt 0.00000000 0.50221105
vt 1.00000000 0.00000000
vt 0.00000000 1.00000000
vt 0.00000000 0.00000000
vt 1.00000000 0.50000000
vt 1.00000000 1.00000000
vt 0.00000000 1.00000000
vt 0.50000000 0.00000000
vt 1.00000000 0.50221105
vt 0.41421356 1.00000000
vt 0.00000000 0.00000000
vt 1.00000000 0.00000000
vt 1.00000000 1.00000000
vt 0.00000000 0.50000000
vt 0.41421356 0.00000000
vt 1.00000000 0.49778895
vt 0.00000000 1.00000000
vt 0.00000000 0.00000000
vt 1.00000000 0.00000000
vt 0.50000000 1.00000000
vt 0.00000000 0.49778895
vt 0.58578644 0.00000000
vt 1.00000000 1.00000000
vt 1.00000000 1.00000000
vt 0.00000000 1.00000000
vt 0.00000000 0.00000000
vt 1.00000000 0.00000000
vn -0.38268343 0.00000000 0.92387953
vn -0.38268343 0.00000000 0.92387953
vn -0.38268343 0.00000000 0.92387953
vn -0.38268343 0.00000000 0.92387953
vn 0.38268343 0.00000000 0.92387953
vn 0.38268343 0.00000000 0.92387953
vn 0.38268343 0.00000000 0.92387953
vn 0.38268343 0.00000000 0.92387953
vn 0.92387953 0.00000000 0.38268343
vn 0.92387953 0.00000000 0.38268343
vn 0.92387953 0.00000000 0.38268343
vn 0.92387953 0.00000000 0.38268343
vn 0.92387953 0.00000000 -0.38268343
vn 0.92387953 0.00000000 -0.38268343
vn 0.92387953 0.00000000 -0.38268343
vn 0.92387953 0.00000000 -0.38268343
vn 0.38268343 0.00000000 -0.92387953
vn 0.38268343 0.00000000 -0.92387953
vn 0.38268343 0.00000000 -0.92387953
vn 0.38268343 0.00000000 -0.92387953
vn -0.38268343 0.00000000 -0.92387953
vn -0.38268343 0.00000000 -0.92387953
vn -0.38268343 0.00000000 -0.92387953
vn -0.38268343 0.00000000 -0.92387953
vn -0.92387953 0.00000000 -0.38268343
vn -0.92387953 0.00000000 -0.38268343
vn -0.92387953 0.00000000 -0.38268343
vn -0.92387953 0.00000000 -0.38268343
vn -0.41317149 0.89442719 -0.17114123
vn -0.41317149 0.89442719 -0.17114123
vn -0.41317149 0.89442719 -0.17114123
vn -0.41317149 0.89442719 0.17114123
vn -0.41317149 0.89442719 0.17114123
vn -0.41317149 0.89442719 0.17114123
vn -0.17114123 0.89442719 -0.41317149
vn -0.17114123 0.89442719 -0.41317149
vn -0.17114123 0.89442719 -0.41317149
vn 0.17114123 0.89442719 -0.41317149
vn 0.17114123 0.89442719 -0.41317149
vn 0.17114123 0.89442719 -0.41317149
vn 0.41317149 0.89442719 -0.17114123
vn 0.41317149 0.89442719 -0.17114123
vn 0.41317149 0.89442719 -0.17114123
vn 0.41317149 0.89442719 0.17114123
vn 0.41317149 0.89442719 0.17114123
vn 0.41317149 0.89442719 0.17114123
vn 0.17114123 0.89442719 0.41317149
vn 0.17114123 0.89442719 0.41317149
vn 0.17114123 0.89442719 0.41317149
vn -0.17114123 0.89442719 0.41317149
vn -0.17114123 0.89442719 0.41317149
vn -0.17114123 0.89442719 0.41317149
vn -0.92387953 0.00000000 0.38268343
vn -0.92387953 0.00000000 0.38268343
vn -0.92387953 0.00000000 0.38268343
vn -0.92387953 0.00000000 0.38268343
s 1
usemtl Wood_Dark
f 18/57/57 19/58/58 21/60/60
f 19/58/58 20/59/59 21/60/60
s 2
f 23/64/64 22/63/63 21/61/61
f 22/63/63 18/62/62 21/61/61
s 3
f 25/68/68 24/67/67 23/65/65
f 24/67/67 22/66/66 23/65/65
s 4
f 26/69/69 27/70/70 24/71/71
f 26/69/69 24/71/71 25/72/72
s 5
f 28/73/73 29/74/74 27/75/75
f 28/73/73 27/75/75 26/76/76
s 6
f 30/77/77 31/78/78 28/80/80
f 31/78/78 29/79/79 28/80/80
s 7
f 32/81/81 31/82/82 30/83/83
f 32/81/81 30/83/83 33/84/84
s 8
usemtl Wood_Light
f 31/85/85 32/86/86 34/87/87
s 9
f 32/88/88 19/89/89 34/90/90
s 10
f 29/91/91 31/92/92 34/93/93
s 11
f 27/94/94 29/95/95 34/96/96
s 12
f 24/97/97 27/98/98 34/99/99
s 13
f 22/100/100 24/101/101 34/102/102
s 14
f 18/103/103 22/104/104 34/105/105
s 15
f 19/106/106 18/107/107 34/108/108
s 16
usemtl Wood_Dark
f 20/109/109 19/110/110 32/111/111
f 20/109/109 32/111/111 33/112/112
