mtllib Materials_Modular_Terrain.mtl
o object1
g object1
v -0.06844064 0.02678571 -0.00415812
v -0.06970674 0.01785714 0.00635054
v -0.08467843 0.01785714 0.00339103
v -0.08029138 0.02678571 -0.00757661
v -0.07527760 0.02678571 -0.02011104
v -0.07026383 0.02678571 -0.03264548
v -0.06587678 0.01785714 -0.04361311
v -0.06274317 0.00000000 -0.05144713
v -0.08781204 0.00000000 0.01122505
v -0.05020873 0.00000000 -0.04239448
v -0.05299416 0.01785714 -0.03543091
v -0.00912364 0.01785714 -0.05423256
v 0.00828530 0.00000000 -0.06746335
v 0.05466448 0.00000000 -0.00852294
v 0.02566075 0.01785714 -0.01002725
v 0.02681018 0.00000000 0.06111281
v 0.00477002 0.01785714 0.04219956
v -0.04742330 0.00000000 0.07180815
v -0.05090509 0.01785714 0.05022107
v -0.07249217 0.00000000 0.01331412
v -0.02887163 0.02678571 0.01460684
v -0.05856502 0.02678571 0.01888498
v -0.06483224 0.03125000 -0.01593290
v -0.05932468 0.02678571 -0.02694801
v -0.03628158 0.02678571 -0.03682362
v -0.01772991 0.02678571 -0.01324746
vt 1.00000000 0.81818182
vt 0.00000000 1.00000000
vt 0.00000000 0.00000000
vt 1.00000000 0.00000000
vt 0.66666667 0.12500000
vt 1.00000000 0.30000000
vt 1.00000000 0.50000000
vt 1.00000000 0.70000000
vt 0.66666667 0.87500000
vt 0.00000000 1.00000000
vt 0.00000000 0.00000000
vt 0.00000000 0.00000000
vt 1.00000000 0.00000000
vt 1.00000000 1.00000000
vt 0.00000000 1.00000000
vt 0.00000000 0.00000000
vt 1.00000000 0.00000000
vt 1.00000000 1.00000000
vt 0.00000000 1.00000000
vt 1.00000000 0.00000000
vt 1.00000000 1.00000000
vt 0.00000000 1.00000000
vt 0.00000000 0.00000000
vt 1.00000000 0.00000000
vt 1.00000000 1.00000000
vt 0.00000000 1.00000000
vt 0.00000000 0.00000000
vt 1.00000000 0.00000000
vt 1.00000000 1.00000000
vt 0.00000000 1.00000000
vt 0.00000000 0.00000000
vt 1.00000000 1.00000000
vt 0.00000000 1.00000000
vt 0.00000000 0.00000000
vt 1.00000000 0.00000000
vt 1.00000000 0.00000000
vt 1.00000000 1.00000000
vt 0.00000000 1.00000000
vt 0.00000000 0.00000000
vt 0.00000000 0.42174551
vt 1.00000000 0.00000000
vt 0.50000000 1.00000000
vt 1.00000000 1.00000000
vt 0.59090909 0.59090909
vt 0.00000000 0.00000000
vt 1.00000000 0.58333333
vt 1.00000000 1.00000000
vt 0.59090909 0.59090909
vt 0.00000000 0.00000000
vt 1.00000000 0.58333333
vt 1.00000000 0.57825449
vt 0.00000000 1.00000000
vt 0.50000000 0.00000000
vt 0.00000000 1.00000000
vt 0.50000000 0.00000000
vt 1.00000000 1.00000000
vt 1.00000000 0.00000000
vt 1.00000000 1.00000000
vt 0.00000000 1.00000000
vt 0.00000000 0.00000000
vt 1.00000000 0.00000000
vt 1.00000000 1.00000000
vt 0.00000000 1.00000000
vt 0.00000000 0.00000000
vt 0.00000000 0.00000000
vt 1.00000000 0.00000000
vt 1.00000000 1.00000000
vt 0.00000000 0.98484848
vt 0.00000000 0.00000000
vt 1.00000000 0.18181818
vt 1.00000000 1.00000000
vt 0.00000000 1.00000000
vt 1.00000000 1.00000000
vt 0.00000000 1.00000000
vt 0.90909091 0.00000000
vt 1.00000000 1.00000000
vt 0.00000000 1.00000000
vt 0.09090909 0.00000000
vt 1.00000000 1.00000000
vt 0.00000000 1.00000000
vt 0.00000000 0.01515152
vt 1.00000000 0.00000000
vt 1.00000000 1.00000000
vt 0.00000000 1.00000000
vt 0.00000000 0.00000000
vt 1.00000000 0.00000000
vn -0.17771709 0.76736873 0.61608592
vn -0.12687905 0.75625333 0.64185872
vn -0.11821688 0.79270101 0.59803835
vn -0.16765320 0.79630496 0.58119775
vn -0.92847669 -0.00000000 -0.37139068
vn -0.92847669 -0.00000000 -0.37139068
vn -0.92847669 0.00000000 -0.37139068
vn -0.92847669 -0.00000000 -0.37139068
vn -0.92847669 0.00000000 -0.37139068
vn -0.92847669 0.00000000 -0.37139068
vn -0.92847669 -0.00000000 -0.37139068
vn 0.54220839 0.37733854 -0.75075008
vn 0.49557237 0.38157288 -0.78026288
vn 0.48625868 0.42120188 -0.76559877
vn 0.53223697 0.41669903 -0.73694350
vn -0.37761818 0.28469506 -0.88110909
vn -0.37761818 0.28469506 -0.88110909
vn -0.37761818 0.28469506 -0.88110909
vn -0.37761818 0.28469506 -0.88110909
vn 0.49713100 0.77449084 -0.39118372
vn 0.49713100 0.77449084 -0.39118372
vn 0.49713100 0.77449084 -0.39118372
vn 0.49713100 0.77449084 -0.39118372
vn 0.50580901 0.83858357 0.20232360
vn 0.50580901 0.83858357 0.20232360
vn 0.50580901 0.83858357 0.20232360
vn 0.50580901 0.83858357 0.20232360
vn 0.09020954 0.77449084 0.62611994
vn 0.09020954 0.77449084 0.62611994
vn 0.09020954 0.77449084 0.62611994
vn 0.09020954 0.77449084 0.62611994
vn -0.88110909 0.28469506 0.37761818
vn -0.88110909 0.28469506 0.37761818
vn -0.88110909 0.28469506 0.37761818
vn -0.88110909 0.28469506 0.37761818
vn 0.03820552 0.96344331 0.26517415
vn 0.03820552 0.96344331 0.26517415
vn 0.03820552 0.96344331 0.26517415
vn 0.03820552 0.96344331 0.26517415
vn 0.01786448 0.99212233 0.12399254
vn 0.01786448 0.99212233 0.12399254
vn 0.01786448 0.99212233 0.12399254
vn -0.44982688 0.87206107 0.19278295
vn -0.44982688 0.87206107 0.19278295
vn -0.44982688 0.87206107 0.19278295
vn -0.44982688 0.87206107 0.19278295
vn -0.19278295 0.87206107 -0.44982688
vn -0.19278295 0.87206107 -0.44982688
vn -0.19278295 0.87206107 -0.44982688
vn -0.19278295 0.87206107 -0.44982688
vn 0.09844845 0.99212233 -0.07746737
vn 0.09844845 0.99212233 -0.07746737
vn 0.09844845 0.99212233 -0.07746737
vn 0.09220712 0.99505653 0.03688285
vn 0.09220712 0.99505653 0.03688285
vn 0.09220712 0.99505653 0.03688285
vn 0.19536541 0.97761216 0.07814616
vn 0.19536541 0.97761216 0.07814616
vn 0.19536541 0.97761216 0.07814616
vn 0.19536541 0.97761216 0.07814616
vn 0.21054479 0.96344331 -0.16567403
vn 0.21054479 0.96344331 -0.16567403
vn 0.21054479 0.96344331 -0.16567403
vn 0.21054479 0.96344331 -0.16567403
vn -0.33868071 0.51067840 -0.79025499
vn -0.33868071 0.51067840 -0.79025499
vn -0.33868071 0.51067840 -0.79025499
vn -0.33868071 0.51067840 -0.79025499
vn 0.35078325 0.75625333 -0.55229704
vn 0.29619515 0.76736873 -0.56869470
vn 0.27942199 0.79630496 -0.53649023
vn 0.32683491 0.79270101 -0.51459114
vn 0.00000000 1.00000000 0.00000000
vn 0.00000000 1.00000000 0.00000000
vn 0.00000000 1.00000000 0.00000000
vn 0.00000000 1.00000000 0.00000000
vn 0.00000000 1.00000000 0.00000000
vn -0.79025499 0.51067840 0.33868071
vn -0.79025499 0.51067840 0.33868071
vn -0.79025499 0.51067840 0.33868071
vn -0.79025499 0.51067840 0.33868071
vn -0.17924958 0.38157288 0.90679200
vn -0.12512501 0.37733854 0.91758343
vn -0.12282392 0.41669903 0.90070872
vn -0.17588080 0.42120188 0.88974992
s 1
usemtl Shell
f 4/4/4 3/3/3 2/2/2
f 4/4/4 2/2/2 1/1/1
s 2
f 5/7/7 6/8/8 7/9/9
f 5/7/7 8/10/10 9/11/11
f 9/11/11 3/5/5 5/7/7
f 5/7/7 7/9/9 8/10/10
f 3/5/5 4/6/6 5/7/7
s 3
f 8/15/15 7/14/14 10/12/12
f 7/14/14 11/13/13 10/12/12
s 4
f 12/16/16 13/17/17 10/18/18
f 12/16/16 10/18/18 11/19/19
s 5
f 14/20/20 13/21/21 15/23/23
f 13/21/21 12/22/22 15/23/23
s 6
f 16/24/24 14/25/25 17/27/27
f 14/25/25 15/26/26 17/27/27
s 7
f 18/28/28 16/29/29 17/30/30
f 18/28/28 17/30/30 19/31/31
s 8
f 18/32/32 19/33/33 20/35/35
f 19/33/33 2/34/34 20/35/35
s 9
usemtl Shell_-_Lighter
f 19/36/36 17/37/37 21/38/38
f 19/36/36 21/38/38 22/39/39
s 10
usemtl Shell_-_Lightest
f 21/42/42 23/41/41 22/40/40
s 11
f 23/46/46 5/43/43 1/44/44
f 1/44/44 22/45/45 23/46/46
s 12
f 24/48/48 5/47/47 23/50/50
f 23/50/50 25/49/49 24/48/48
s 13
f 25/51/51 23/52/52 26/53/53
s 14
f 26/56/56 23/55/55 21/54/54
s 15
usemtl Shell_-_Lighter
f 17/57/57 15/58/58 21/60/60
f 15/58/58 26/59/59 21/60/60
s 16
f 15/61/61 12/62/62 26/64/64
f 12/62/62 25/63/63 26/64/64
s 17
f 25/65/65 12/66/66 11/67/67
f 25/65/65 11/67/67 24/68/68
s 18
usemtl Shell
f 7/72/72 6/71/71 11/69/69
f 6/71/71 24/70/70 11/69/69
s 19
usemtl Shell_-_Lighter
f 6/73/73 5/74/74 24/75/75
f 5/76/74 4/77/76 1/78/77
s 20
f 19/79/78 22/80/79 2/82/81
f 22/80/79 1/81/80 2/82/81
s 21
usemtl Shell
f 3/86/85 9/85/84 20/84/83
f 3/86/85 20/84/83 2/83/82
