mtllib Materials_Modular_Terrain.mtl
o object1
g object1
v 0.50000000 0.50000000 5.50000000
v -1.50000000 0.50000000 5.50000000
v -1.50000000 0.50000000 4.50000000
v -2.50000000 0.50000000 4.50000000
v -2.50000000 0.50000000 4.00000000
v -1.75000000 0.50000000 4.22500000
v -0.25000000 0.50000000 5.27500000
v -2.50000000 0.42500000 2.50000000
v -1.75000000 0.42500000 2.72500000
v -2.50000000 0.07500000 -0.50000000
v -1.75000000 0.07500000 -0.27500000
v -2.50000000 -0.00000000 -2.00000000
v -1.75000000 -0.00000000 -1.77500000
v -0.25000000 0.07500000 0.77500000
v -0.25000000 -0.00000000 -0.72500000
v 0.50000000 0.07500000 1.00000000
v 0.50000000 -0.00000000 -0.50000000
v 0.50000000 0.42500000 4.00000000
v -0.25000000 0.42500000 3.77500000
vt 0.00000000 1.00000000
vt 0.00000000 0.33333333
vt 0.66666667 0.33333333
vt 0.66666667 0.00000000
vt 1.00000000 0.00000000
vt 0.85000000 0.25000000
vt 0.15000000 0.75000000
vt 0.00000000 0.00000000
vt 1.00000000 0.00000000
vt 1.00000000 1.00000000
vt 0.00000000 1.00000000
vt 0.00000000 0.00000000
vt 1.00000000 0.00000000
vt 1.00000000 1.00000000
vt 0.00000000 1.00000000
vt 0.00000000 0.00000000
vt 1.00000000 0.00000000
vt 1.00000000 1.00000000
vt 0.00000000 1.00000000
vt 1.00000000 1.00000000
vt 0.00000000 1.00000000
vt 0.00000000 0.00000000
vt 1.00000000 0.00000000
vt 1.00000000 1.00000000
vt 0.00000000 1.00000000
vt 0.00000000 0.00000000
vt 1.00000000 0.00000000
vt 1.00000000 1.00000000
vt 0.00000000 1.00000000
vt 0.00000000 0.00000000
vt 1.00000000 0.00000000
vt 1.00000000 1.00000000
vt 0.00000000 1.00000000
vt 0.00000000 0.00000000
vt 1.00000000 0.00000000
vt 1.00000000 1.00000000
vt 0.00000000 1.00000000
vt 0.00000000 0.00000000
vt 1.00000000 0.00000000
vt 1.00000000 1.00000000
vt 0.00000000 1.00000000
vt 0.00000000 0.00000000
vt 1.00000000 0.00000000
vn 0.00000000 1.00000000 -0.00000000
vn 0.00000000 1.00000000 -0.00000000
vn 0.00000000 1.00000000 -0.00000000
vn 0.00000000 1.00000000 -0.00000000
vn 0.00000000 1.00000000 -0.00000000
vn 0.00000000 1.00000000 -0.00000000
vn 0.00000000 1.00000000 -0.00000000
vn 0.01497960 0.99864028 -0.04993201
vn 0.01497960 0.99864028 -0.04993201
vn 0.03474322 0.99266348 -0.11581074
vn 0.03474322 0.99266348 -0.11581074
vn 0.03474322 0.99266348 -0.11581074
vn 0.03474322 0.99266348 -0.11581074
vn 0.01497960 0.99864028 -0.04993201
vn 0.01497960 0.99864028 -0.04993201
vn 0.01497960 0.99864028 -0.04993201
vn 0.01497960 0.99864028 -0.04993201
vn 0.03493499 0.99814269 -0.04990713
vn 0.03493499 0.99814269 -0.04990713
vn 0.01497960 0.99864028 -0.04993201
vn 0.01497960 0.99864028 -0.04993201
vn 0.03474322 0.99266348 -0.11581074
vn 0.03474322 0.99266348 -0.11581074
vn 0.03474322 0.99266348 -0.11581074
vn 0.03474322 0.99266348 -0.11581074
vn 0.03493499 0.99814269 -0.04990713
vn 0.03493499 0.99814269 -0.04990713
vn 0.03493499 0.99814269 -0.04990713
vn 0.01497960 0.99864028 -0.04993201
s 1
usemtl Sand_-_Bright
f 6/6/6 5/5/5 4/4/4
f 5/11/5 9/9/9 8/8/8
f 19/39/28 9/38/9 6/37/27
f 18/43/29 19/42/28 7/41/7
f 3/3/3 2/2/2 7/7/7
f 2/2/2 1/1/1 7/7/7
f 18/43/29 7/41/7 1/40/1
f 19/39/28 6/37/27 7/36/26
f 5/11/5 6/10/6 9/9/9
f 7/7/7 6/6/6 3/3/3
f 6/6/6 4/4/4 3/3/3
s 2
f 8/15/13 9/14/12 11/13/11
f 14/35/24 9/33/12 19/32/23
f 16/31/25 19/29/23 18/28/22
f 16/31/25 14/30/24 19/29/23
f 14/35/24 11/34/11 9/33/12
f 8/15/13 11/13/11 10/12/10
s 3
f 10/19/17 11/18/16 13/17/15
f 15/23/19 11/21/16 14/20/18
f 17/27/21 14/25/18 16/24/20
f 17/27/21 15/26/19 14/25/18
f 15/23/19 13/22/15 11/21/16
f 10/19/17 13/17/15 12/16/14
