mtllib Materials_Modular_Terrain.mtl
o object1
g object1
v 0.07248737 0.10251263 -0.17500000
v 0.07248737 -0.00000000 -0.07248737
v -0.07248737 0.00000000 -0.07248737
v -0.07248737 0.10251263 -0.17500000
v 0.17500000 0.10251263 -0.07248737
v 0.07248737 0.24748737 -0.17500000
v 0.17500000 0.24748737 -0.07248737
v 0.17500000 0.10251263 0.07248737
v 0.17500000 0.24748737 0.07248737
v 0.07248737 0.10251263 0.17500000
v 0.07248737 0.24748737 0.17500000
v 0.07248737 -0.00000000 0.07248737
v -0.07248737 0.10251263 0.17500000
v -0.07248737 0.00000000 0.07248737
v -0.17500000 0.10251263 0.07248737
v -0.17500000 0.10251263 -0.07248737
v -0.17500000 0.24748737 0.07248737
v -0.17500000 0.24748737 -0.07248737
v -0.07248737 0.24748737 -0.17500000
v -0.07248737 0.35000000 -0.07248737
v 0.07248737 0.35000000 -0.07248737
v 0.07248737 0.35000000 0.07248737
v -0.07248737 0.35000000 0.07248737
v -0.07248737 0.24748737 0.17500000
vt 0.00000000 1.00000000
vt 0.00000000 0.00000000
vt 1.00000000 0.00000000
vt 1.00000000 1.00000000
vt 1.00000000 0.50000000
vt 0.00000000 1.00000000
vt 0.00000000 0.00000000
vt 0.00000000 1.00000000
vt 0.00000000 0.00000000
vt 1.00000000 0.00000000
vt 1.00000000 1.00000000
vt 0.00000000 1.00000000
vt 0.00000000 0.00000000
vt 1.00000000 0.00000000
vt 1.00000000 1.00000000
vt 0.00000000 1.00000000
vt 0.00000000 0.00000000
vt 1.00000000 0.00000000
vt 1.00000000 1.00000000
vt 1.00000000 0.00000000
vt 1.00000000 1.00000000
vt 0.00000000 0.50000000
vt 0.00000000 1.00000000
vt 0.00000000 0.00000000
vt 1.00000000 0.00000000
vt 1.00000000 1.00000000
vt 1.00000000 0.00000000
vt 1.00000000 1.00000000
vt 0.00000000 0.50000000
vt 0.00000000 1.00000000
vt 0.00000000 0.00000000
vt 1.00000000 0.00000000
vt 1.00000000 1.00000000
vt 0.00000000 1.00000000
vt 0.00000000 0.00000000
vt 1.00000000 0.00000000
vt 1.00000000 1.00000000
vt 0.00000000 1.00000000
vt 0.00000000 0.00000000
vt 1.00000000 0.00000000
vt 1.00000000 1.00000000
vt 0.00000000 0.00000000
vt 1.00000000 0.50000000
vt 0.00000000 1.00000000
vt 0.00000000 1.00000000
vt 0.00000000 0.00000000
vt 1.00000000 0.00000000
vt 1.00000000 1.00000000
vt 0.00000000 1.00000000
vt 0.00000000 0.00000000
vt 1.00000000 0.00000000
vt 1.00000000 1.00000000
vt 0.00000000 1.00000000
vt 0.00000000 0.00000000
vt 1.00000000 0.00000000
vt 1.00000000 1.00000000
vt 1.00000000 0.00000000
vt 1.00000000 1.00000000
vt 0.00000000 0.50000000
vt 0.00000000 1.00000000
vt 0.00000000 0.00000000
vt 1.00000000 0.00000000
vt 1.00000000 1.00000000
vt 0.00000000 1.00000000
vt 0.00000000 0.00000000
vt 1.00000000 0.00000000
vt 1.00000000 1.00000000
vt 0.00000000 1.00000000
vt 0.00000000 0.00000000
vt 1.00000000 0.00000000
vt 1.00000000 1.00000000
vt 1.00000000 0.00000000
vt 1.00000000 1.00000000
vt 0.00000000 0.50000000
vt 0.00000000 1.00000000
vt 0.00000000 0.00000000
vt 1.00000000 0.00000000
vt 1.00000000 1.00000000
vt 0.00000000 0.00000000
vt 1.00000000 0.50000000
vt 0.00000000 1.00000000
vt 0.00000000 1.00000000
vt 0.00000000 0.00000000
vt 1.00000000 0.00000000
vt 1.00000000 1.00000000
vt 0.00000000 1.00000000
vt 0.00000000 0.00000000
vt 1.00000000 0.00000000
vt 1.00000000 1.00000000
vt 1.00000000 0.50000000
vt 0.00000000 1.00000000
vt 0.00000000 0.00000000
vt 0.00000000 1.00000000
vt 0.00000000 0.00000000
vt 1.00000000 0.00000000
vt 1.00000000 1.00000000
vn -0.00000000 -0.70710678 -0.70710678
vn 0.00000000 -0.70710678 -0.70710678
vn 0.00000000 -0.70710678 -0.70710678
vn -0.00000000 -0.70710678 -0.70710678
vn 0.57735027 -0.57735027 -0.57735027
vn 0.57735027 -0.57735027 -0.57735027
vn 0.57735027 -0.57735027 -0.57735027
vn 0.70710678 -0.00000000 -0.70710678
vn 0.70710678 0.00000000 -0.70710678
vn 0.70710678 0.00000000 -0.70710678
vn 0.70710678 -0.00000000 -0.70710678
vn 1.00000000 0.00000000 -0.00000000
vn 1.00000000 0.00000000 -0.00000000
vn 1.00000000 0.00000000 -0.00000000
vn 1.00000000 0.00000000 -0.00000000
vn 0.70710678 0.00000000 0.70710678
vn 0.70710678 0.00000000 0.70710678
vn 0.70710678 0.00000000 0.70710678
vn 0.70710678 0.00000000 0.70710678
vn 0.57735027 -0.57735027 0.57735027
vn 0.57735027 -0.57735027 0.57735027
vn 0.57735027 -0.57735027 0.57735027
vn -0.00000000 -0.70710678 0.70710678
vn -0.00000000 -0.70710678 0.70710678
vn -0.00000000 -0.70710678 0.70710678
vn -0.00000000 -0.70710678 0.70710678
vn -0.57735027 -0.57735027 0.57735027
vn -0.57735027 -0.57735027 0.57735027
vn -0.57735027 -0.57735027 0.57735027
vn -0.70710678 -0.70710678 0.00000000
vn -0.70710678 -0.70710678 0.00000000
vn -0.70710678 -0.70710678 0.00000000
vn -0.70710678 -0.70710678 0.00000000
vn -1.00000000 -0.00000000 0.00000000
vn -1.00000000 -0.00000000 0.00000000
vn -1.00000000 -0.00000000 0.00000000
vn -1.00000000 -0.00000000 0.00000000
vn -0.70710678 0.00000000 -0.70710678
vn -0.70710678 0.00000000 -0.70710678
vn -0.70710678 0.00000000 -0.70710678
vn -0.70710678 0.00000000 -0.70710678
vn -0.57735027 0.57735027 -0.57735027
vn -0.57735027 0.57735027 -0.57735027
vn -0.57735027 0.57735027 -0.57735027
vn 0.00000000 0.70710678 -0.70710678
vn 0.00000000 0.70710678 -0.70710678
vn 0.00000000 0.70710678 -0.70710678
vn 0.00000000 0.70710678 -0.70710678
vn 0.00000000 1.00000000 -0.00000000
vn 0.00000000 1.00000000 -0.00000000
vn 0.00000000 1.00000000 -0.00000000
vn 0.00000000 1.00000000 -0.00000000
vn -0.00000000 0.70710678 0.70710678
vn -0.00000000 0.70710678 0.70710678
vn -0.00000000 0.70710678 0.70710678
vn -0.00000000 0.70710678 0.70710678
vn -0.57735027 0.57735027 0.57735027
vn -0.57735027 0.57735027 0.57735027
vn -0.57735027 0.57735027 0.57735027
vn -0.70710678 0.70710678 -0.00000000
vn -0.70710678 0.70710678 -0.00000000
vn -0.70710678 0.70710678 -0.00000000
vn -0.70710678 0.70710678 -0.00000000
vn -0.70710678 0.00000000 0.70710678
vn -0.70710678 0.00000000 0.70710678
vn -0.70710678 0.00000000 0.70710678
vn -0.70710678 0.00000000 0.70710678
vn 0.00000000 0.00000000 1.00000000
vn -0.00000000 0.00000000 1.00000000
vn -0.00000000 0.00000000 1.00000000
vn 0.00000000 0.00000000 1.00000000
vn 0.57735027 0.57735027 0.57735027
vn 0.57735027 0.57735027 0.57735027
vn 0.57735027 0.57735027 0.57735027
vn 0.70710678 0.70710678 -0.00000000
vn 0.70710678 0.70710678 -0.00000000
vn 0.70710678 0.70710678 -0.00000000
vn 0.70710678 0.70710678 -0.00000000
vn 0.57735027 0.57735027 -0.57735027
vn 0.57735027 0.57735027 -0.57735027
vn 0.57735027 0.57735027 -0.57735027
vn 0.70710678 -0.70710678 0.00000000
vn 0.70710678 -0.70710678 0.00000000
vn 0.70710678 -0.70710678 0.00000000
vn 0.70710678 -0.70710678 0.00000000
vn 0.00000000 0.00000000 -1.00000000
vn 0.00000000 0.00000000 -1.00000000
vn -0.00000000 -0.00000000 -1.00000000
vn 0.00000000 -0.00000000 -1.00000000
vn -0.57735027 -0.57735027 -0.57735027
vn -0.57735027 -0.57735027 -0.57735027
vn -0.57735027 -0.57735027 -0.57735027
vn -0.00000000 -1.00000000 0.00000000
vn -0.00000000 -1.00000000 0.00000000
vn -0.00000000 -1.00000000 0.00000000
vn -0.00000000 -1.00000000 0.00000000
s 1
usemtl Coconut
f 1/1/1 2/2/2 4/4/4
f 2/2/2 3/3/3 4/4/4
s 2
f 1/5/5 5/6/6 2/7/7
s 3
f 5/8/8 1/9/9 7/11/11
f 1/9/9 6/10/10 7/11/11
s 4
f 5/15/15 7/14/14 8/12/12
f 7/14/14 9/13/13 8/12/12
s 5
f 10/16/16 8/17/17 11/19/19
f 8/17/17 9/18/18 11/19/19
s 6
f 12/20/20 8/21/21 10/22/22
s 7
f 12/23/23 10/24/24 14/26/26
f 10/24/24 13/25/25 14/26/26
s 8
f 13/29/29 15/28/28 14/27/27
s 9
f 16/33/33 3/32/32 14/31/31
f 16/33/33 14/31/31 15/30/30
s 10
f 18/37/37 16/36/36 15/35/35
f 18/37/37 15/35/35 17/34/34
s 11
f 4/38/38 16/39/39 19/41/41
f 16/39/39 18/40/40 19/41/41
s 12
f 20/44/44 19/43/43 18/42/42
s 13
f 21/45/45 6/46/46 20/48/48
f 6/46/46 19/47/47 20/48/48
s 14
f 22/49/49 21/50/50 23/52/52
f 21/50/50 20/51/51 23/52/52
s 15
f 11/53/53 22/54/54 24/56/56
f 22/54/54 23/55/55 24/56/56
s 16
f 24/59/59 23/58/58 17/57/57
s 17
f 20/63/63 18/62/62 23/60/60
f 18/62/62 17/61/61 23/60/60
s 18
f 15/64/64 13/65/65 17/67/67
f 13/65/65 24/66/66 17/67/67
s 19
f 10/68/68 11/69/69 13/71/71
f 11/69/69 24/70/70 13/71/71
s 20
f 9/72/72 22/73/73 11/74/74
s 21
f 7/78/78 21/77/77 9/75/75
f 21/77/77 22/76/76 9/75/75
s 22
f 7/79/79 6/80/80 21/81/81
s 23
f 2/85/85 5/84/84 8/83/83
f 2/85/85 8/83/83 12/82/82
s 24
f 6/86/86 1/87/87 4/88/88
f 6/86/86 4/88/88 19/89/89
s 25
f 3/92/92 16/91/91 4/90/90
s 26
f 2/93/93 12/94/94 3/96/96
f 12/94/94 14/95/95 3/96/96
