mtllib Materials_Modular_Terrain.mtl
o object1
g object1
v -1.75000000 0.42500000 0.47500000
v -0.25000000 0.42500000 1.52500000
v -0.25000000 0.50000000 2.27500000
v -1.75000000 0.50000000 1.22500000
v 0.50000000 0.50000000 2.50000000
v -1.50000000 0.50000000 2.50000000
v -1.50000000 0.50000000 1.50000000
v -2.50000000 0.50000000 1.50000000
v -2.50000000 0.50000000 1.00000000
v -2.50000000 0.42500000 0.25000000
v -2.50000000 0.07500000 -1.25000000
v -1.75000000 0.07500000 -1.02500000
v -2.50000000 -0.00000000 -2.00000000
v -1.75000000 -0.00000000 -1.77500000
v -0.25000000 -0.00000000 -0.72500000
v -0.25000000 0.07500000 0.02500000
v 0.50000000 0.07500000 0.25000000
v 0.50000000 -0.00000000 -0.50000000
v 0.50000000 0.42500000 1.75000000
vt 1.00000000 1.00000000
vt 0.00000000 1.00000000
vt 0.00000000 0.00000000
vt 1.00000000 0.00000000
vt 0.00000000 1.00000000
vt 0.00000000 0.33333333
vt 0.66666667 0.33333333
vt 0.66666667 0.00000000
vt 1.00000000 0.00000000
vt 0.85000000 0.25000000
vt 0.15000000 0.75000000
vt 1.00000000 1.00000000
vt 0.00000000 1.00000000
vt 0.00000000 0.00000000
vt 1.00000000 0.00000000
vt 1.00000000 1.00000000
vt 0.00000000 1.00000000
vt 0.00000000 0.00000000
vt 1.00000000 0.00000000
vt 1.00000000 1.00000000
vt 0.00000000 1.00000000
vt 0.00000000 0.00000000
vt 1.00000000 0.00000000
vt 1.00000000 1.00000000
vt 0.00000000 1.00000000
vt 0.00000000 0.00000000
vt 1.00000000 0.00000000
vt 0.00000000 0.00000000
vt 1.00000000 0.00000000
vt 1.00000000 1.00000000
vt 0.00000000 1.00000000
vt 0.00000000 0.00000000
vt 1.00000000 0.00000000
vt 1.00000000 1.00000000
vt 0.00000000 1.00000000
vt 1.00000000 1.00000000
vt 0.00000000 1.00000000
vt 0.00000000 0.00000000
vt 1.00000000 0.00000000
vt 0.00000000 0.00000000
vt 1.00000000 0.00000000
vt 1.00000000 1.00000000
vt 0.00000000 1.00000000
vn 0.06948426 0.99263223 -0.09926322
vn 0.06948426 0.99263223 -0.09926322
vn 0.06948426 0.99263223 -0.09926322
vn 0.06948426 0.99263223 -0.09926322
vn 0.00000000 1.00000000 -0.00000000
vn 0.00000000 1.00000000 -0.00000000
vn 0.00000000 1.00000000 -0.00000000
vn 0.00000000 1.00000000 -0.00000000
vn 0.00000000 1.00000000 -0.00000000
vn 0.00000000 1.00000000 -0.00000000
vn 0.00000000 1.00000000 -0.00000000
vn 0.02983782 0.99459415 -0.09945942
vn 0.02983782 0.99459415 -0.09945942
vn 0.06801104 0.97158635 -0.22670348
vn 0.06801104 0.97158635 -0.22670348
vn 0.06801104 0.97158635 -0.22670348
vn 0.06801104 0.97158635 -0.22670348
vn 0.02983782 0.99459415 -0.09945942
vn 0.02983782 0.99459415 -0.09945942
vn 0.02983782 0.99459415 -0.09945942
vn 0.02983782 0.99459415 -0.09945942
vn 0.06948426 0.99263223 -0.09926322
vn 0.06948426 0.99263223 -0.09926322
vn 0.02983782 0.99459415 -0.09945942
vn 0.02983782 0.99459415 -0.09945942
vn 0.06801104 0.97158635 -0.22670348
vn 0.06801104 0.97158635 -0.22670348
vn 0.06801104 0.97158635 -0.22670348
vn 0.06801104 0.97158635 -0.22670348
vn 0.15708598 0.96175090 -0.22440854
vn 0.15708598 0.96175090 -0.22440854
vn 0.15708598 0.96175090 -0.22440854
vn 0.15708598 0.96175090 -0.22440854
vn 0.02983782 0.99459415 -0.09945942
vn 0.02983782 0.99459415 -0.09945942
s 1
usemtl Sand_-_Bright
f 4/4/4 3/3/3 2/2/2
f 19/43/35 3/41/3 5/40/34
f 19/43/35 2/42/2 3/41/3
f 9/15/13 4/14/4 1/13/1
f 9/15/13 1/13/1 10/12/12
f 4/4/4 2/2/2 1/1/1
s 2
f 4/10/10 9/9/9 8/8/8
f 3/11/11 4/10/10 7/7/7
f 7/7/7 6/6/6 3/11/11
f 6/6/6 5/5/5 3/11/11
f 4/10/10 8/8/8 7/7/7
s 3
f 10/19/17 1/18/16 12/17/15
f 10/19/17 12/17/15 11/16/14
s 4
f 11/23/21 12/22/20 14/21/19
f 12/27/20 15/25/22 14/24/19
f 18/31/25 15/30/22 16/29/23
f 18/31/25 16/29/23 17/28/24
f 12/27/20 16/26/23 15/25/22
f 11/23/21 14/21/19 13/20/18
s 5
f 17/35/29 16/34/28 2/33/27
f 17/35/29 2/33/27 19/32/26
s 6
f 1/39/33 2/38/32 16/37/31
f 1/39/33 16/37/31 12/36/30
