mtllib Materials_Modular_Terrain.mtl
o object1
g object1
v -2.50000000 0.92500000 1.75000000
v -2.50000000 0.57500000 0.25000000
v -1.75000000 0.50000000 0.25000000
v -1.75000000 0.85000000 1.75000000
v -0.25000000 0.15000000 0.25000000
v -0.25000000 0.50000000 1.75000000
v 0.50000000 0.07500000 0.25000000
v 0.50000000 0.42500000 1.75000000
v -0.25000000 0.57500000 2.50000000
v 0.50000000 0.50000000 2.50000000
v -0.25000000 0.07500000 -0.50000000
v 0.50000000 -0.00000000 -0.50000000
v -1.75000000 0.92500000 2.50000000
v -1.75000000 0.42500000 -0.50000000
v -2.50000000 1.00000000 2.50000000
v -2.50000000 0.50000000 -0.50000000
vt 0.00000000 1.00000000
vt 0.00000000 0.00000000
vt 1.00000000 0.00000000
vt 1.00000000 1.00000000
vt 0.00000000 1.00000000
vt 0.00000000 0.00000000
vt 1.00000000 0.00000000
vt 1.00000000 1.00000000
vt 0.00000000 1.00000000
vt 0.00000000 0.00000000
vt 1.00000000 0.00000000
vt 1.00000000 1.00000000
vt 0.00000000 1.00000000
vt 0.00000000 0.00000000
vt 1.00000000 0.00000000
vt 1.00000000 1.00000000
vt 0.00000000 1.00000000
vt 0.00000000 0.00000000
vt 1.00000000 0.00000000
vt 1.00000000 1.00000000
vt 0.00000000 1.00000000
vt 0.00000000 0.00000000
vt 1.00000000 0.00000000
vt 1.00000000 1.00000000
vt 0.00000000 1.00000000
vt 0.00000000 0.00000000
vt 1.00000000 0.00000000
vt 1.00000000 1.00000000
vt 0.00000000 1.00000000
vt 0.00000000 0.00000000
vt 1.00000000 0.00000000
vt 1.00000000 1.00000000
vt 0.00000000 1.00000000
vt 0.00000000 0.00000000
vt 1.00000000 0.00000000
vt 1.00000000 1.00000000
vn 0.09692560 0.96925600 -0.22615973
vn 0.09692560 0.96925600 -0.22615973
vn 0.09692560 0.96925600 -0.22615973
vn 0.09692560 0.96925600 -0.22615973
vn 0.22158113 0.94963341 -0.22158113
vn 0.22158113 0.94963341 -0.22158113
vn 0.22158113 0.94963341 -0.22158113
vn 0.22158113 0.94963341 -0.22158113
vn 0.09692560 0.96925600 -0.22615973
vn 0.09692560 0.96925600 -0.22615973
vn 0.09692560 0.96925600 -0.22615973
vn 0.09692560 0.96925600 -0.22615973
vn 0.09901475 0.99014754 -0.09901475
vn 0.09901475 0.99014754 -0.09901475
vn 0.09901475 0.99014754 -0.09901475
vn 0.09901475 0.99014754 -0.09901475
vn 0.09901475 0.99014754 -0.09901475
vn 0.09901475 0.99014754 -0.09901475
vn 0.09901475 0.99014754 -0.09901475
vn 0.09901475 0.99014754 -0.09901475
vn 0.22615973 0.96925600 -0.09692560
vn 0.22615973 0.96925600 -0.09692560
vn 0.22615973 0.96925600 -0.09692560
vn 0.22615973 0.96925600 -0.09692560
vn 0.22615973 0.96925600 -0.09692560
vn 0.22615973 0.96925600 -0.09692560
vn 0.22615973 0.96925600 -0.09692560
vn 0.22615973 0.96925600 -0.09692560
vn 0.09901475 0.99014754 -0.09901475
vn 0.09901475 0.99014754 -0.09901475
vn 0.09901475 0.99014754 -0.09901475
vn 0.09901475 0.99014754 -0.09901475
vn 0.09901475 0.99014754 -0.09901475
vn 0.09901475 0.99014754 -0.09901475
vn 0.09901475 0.99014754 -0.09901475
vn 0.09901475 0.99014754 -0.09901475
s 1
usemtl Sand_-_Bright
f 4/4/4 3/3/3 2/2/2
f 4/4/4 2/2/2 1/1/1
s 2
f 6/8/8 5/7/7 3/6/6
f 6/8/8 3/6/6 4/5/5
s 3
f 8/12/12 7/11/11 5/10/10
f 8/12/12 5/10/10 6/9/9
s 4
f 10/16/16 8/15/15 6/14/14
f 10/16/16 6/14/14 9/13/13
s 5
f 7/20/20 12/19/19 11/18/18
f 7/20/20 11/18/18 5/17/17
s 6
f 9/24/24 6/23/23 4/22/22
f 9/24/24 4/22/22 13/21/21
s 7
f 5/28/28 11/27/27 14/26/26
f 5/28/28 14/26/26 3/25/25
s 8
f 13/32/32 4/31/31 1/30/30
f 13/32/32 1/30/30 15/29/29
s 9
f 3/36/36 14/35/35 16/34/34
f 3/36/36 16/34/34 2/33/33
