mtllib Materials_Modular_Terrain.mtl
o object1
g object1
v 0.50000000 0.42500000 4.00000000
v 0.50000000 0.07500000 1.00000000
v -0.50000000 0.07500000 1.00000000
v -0.50000000 0.42500000 4.00000000
v 0.50000000 0.50000000 5.50000000
v -0.50000000 0.50000000 5.50000000
v 0.50000000 -0.00000000 -0.50000000
v -0.50000000 -0.00000000 -0.50000000
vt 0.00000000 1.00000000
vt 0.00000000 0.00000000
vt 1.00000000 0.00000000
vt 1.00000000 1.00000000
vt 0.00000000 1.00000000
vt 0.00000000 0.00000000
vt 1.00000000 0.00000000
vt 1.00000000 1.00000000
vt 0.00000000 1.00000000
vt 0.00000000 0.00000000
vt 1.00000000 0.00000000
vt 1.00000000 1.00000000
vn 0.00000000 0.99326314 -0.11588070
vn 0.00000000 0.99326314 -0.11588070
vn 0.00000000 0.99326314 -0.11588070
vn 0.00000000 0.99326314 -0.11588070
vn 0.00000000 0.99875234 -0.04993762
vn 0.00000000 0.99875234 -0.04993762
vn 0.00000000 0.99875234 -0.04993762
vn 0.00000000 0.99875234 -0.04993762
vn 0.00000000 0.99875234 -0.04993762
vn 0.00000000 0.99875234 -0.04993762
vn 0.00000000 0.99875234 -0.04993762
vn 0.00000000 0.99875234 -0.04993762
s 1
usemtl Sand_-_Bright
f 1/1/1 2/2/2 4/4/4
f 2/2/2 3/3/3 4/4/4
s 2
f 5/5/5 1/6/6 6/8/8
f 1/6/6 4/7/7 6/8/8
s 3
f 2/9/9 7/10/10 3/12/12
f 7/10/10 8/11/11 3/12/12
