mtllib Materials_Modular_Terrain.mtl
o object1
g object1
v 0.50000000 0.95000000 -0.02500000
v 0.50000000 1.00000000 -0.02500000
v 0.50000000 1.00000000 -0.22500000
v 0.50000000 0.95000000 -0.22500000
v -0.50000000 1.00000000 -0.22500000
v -0.50000000 0.95000000 -0.22500000
v -0.50000000 0.95000000 -0.02500000
v -0.50000000 1.00000000 -0.02500000
vt 0.00000000 0.00000000
vt 1.00000000 0.00000000
vt 1.00000000 1.00000000
vt 0.00000000 1.00000000
vt 0.00000000 0.00000000
vt 1.00000000 0.00000000
vt 1.00000000 1.00000000
vt 0.00000000 1.00000000
vt 0.00000000 0.00000000
vt 1.00000000 0.00000000
vt 1.00000000 1.00000000
vt 0.00000000 1.00000000
vt 0.00000000 0.00000000
vt 1.00000000 0.00000000
vt 1.00000000 1.00000000
vt 0.00000000 1.00000000
vt 0.00000000 0.00000000
vt 1.00000000 0.00000000
vt 1.00000000 1.00000000
vt 0.00000000 1.00000000
vt 0.00000000 0.00000000
vt 1.00000000 0.00000000
vt 1.00000000 1.00000000
vt 0.00000000 1.00000000
vn 1.00000000 0.00000000 0.00000000
vn 1.00000000 0.00000000 0.00000000
vn 1.00000000 0.00000000 0.00000000
vn 1.00000000 0.00000000 0.00000000
vn 0.00000000 0.00000000 -1.00000000
vn 0.00000000 0.00000000 -1.00000000
vn 0.00000000 0.00000000 -1.00000000
vn 0.00000000 0.00000000 -1.00000000
vn -1.00000000 0.00000000 0.00000000
vn -1.00000000 0.00000000 0.00000000
vn -1.00000000 0.00000000 0.00000000
vn -1.00000000 0.00000000 0.00000000
vn 0.00000000 -1.00000000 0.00000000
vn 0.00000000 -1.00000000 0.00000000
vn 0.00000000 -1.00000000 0.00000000
vn 0.00000000 -1.00000000 0.00000000
vn 0.00000000 0.00000000 1.00000000
vn 0.00000000 0.00000000 1.00000000
vn 0.00000000 0.00000000 1.00000000
vn 0.00000000 0.00000000 1.00000000
vn 0.00000000 1.00000000 0.00000000
vn 0.00000000 1.00000000 0.00000000
vn 0.00000000 1.00000000 0.00000000
vn 0.00000000 1.00000000 0.00000000
s 1
usemtl Wood_Light
f 4/4/4 3/3/3 1/1/1
f 3/3/3 2/2/2 1/1/1
s 2
f 6/8/8 5/7/7 4/5/5
f 5/7/7 3/6/6 4/5/5
s 3
f 7/9/9 8/10/10 6/12/12
f 8/10/10 5/11/11 6/12/12
s 4
f 1/13/13 7/14/14 4/16/16
f 7/14/14 6/15/15 4/16/16
s 5
f 1/17/17 2/18/18 7/20/20
f 2/18/18 8/19/19 7/20/20
s 6
f 3/24/24 5/23/23 2/21/21
f 5/23/23 8/22/22 2/21/21
o object2
g object2
v 0.50000000 0.95000000 0.47500000
v 0.50000000 1.00000000 0.47500000
v 0.50000000 1.00000000 0.27500000
v 0.50000000 0.95000000 0.27500000
v -0.50000000 1.00000000 0.27500000
v -0.50000000 0.95000000 0.27500000
v -0.50000000 0.95000000 0.47500000
v -0.50000000 1.00000000 0.47500000
vt 0.00000000 0.00000000
vt 1.00000000 0.00000000
vt 1.00000000 1.00000000
vt 0.00000000 1.00000000
vt 0.00000000 0.00000000
vt 1.00000000 0.00000000
vt 1.00000000 1.00000000
vt 0.00000000 1.00000000
vt 0.00000000 0.00000000
vt 1.00000000 0.00000000
vt 1.00000000 1.00000000
vt 0.00000000 1.00000000
vt 0.00000000 0.00000000
vt 1.00000000 0.00000000
vt 1.00000000 1.00000000
vt 0.00000000 1.00000000
vt 0.00000000 0.00000000
vt 1.00000000 0.00000000
vt 1.00000000 1.00000000
vt 0.00000000 1.00000000
vt 0.00000000 0.00000000
vt 1.00000000 0.00000000
vt 1.00000000 1.00000000
vt 0.00000000 1.00000000
vn 1.00000000 0.00000000 0.00000000
vn 1.00000000 0.00000000 0.00000000
vn 1.00000000 0.00000000 0.00000000
vn 1.00000000 0.00000000 0.00000000
vn 0.00000000 0.00000000 -1.00000000
vn 0.00000000 0.00000000 -1.00000000
vn 0.00000000 0.00000000 -1.00000000
vn 0.00000000 0.00000000 -1.00000000
vn -1.00000000 0.00000000 0.00000000
vn -1.00000000 0.00000000 0.00000000
vn -1.00000000 0.00000000 0.00000000
vn -1.00000000 0.00000000 0.00000000
vn 0.00000000 -1.00000000 0.00000000
vn 0.00000000 -1.00000000 0.00000000
vn 0.00000000 -1.00000000 0.00000000
vn 0.00000000 -1.00000000 0.00000000
vn 0.00000000 0.00000000 1.00000000
vn 0.00000000 0.00000000 1.00000000
vn 0.00000000 0.00000000 1.00000000
vn 0.00000000 0.00000000 1.00000000
vn 0.00000000 1.00000000 0.00000000
vn 0.00000000 1.00000000 0.00000000
vn 0.00000000 1.00000000 0.00000000
vn 0.00000000 1.00000000 0.00000000
s 1
usemtl Wood_Light
f 12/28/28 11/27/27 9/25/25
f 11/27/27 10/26/26 9/25/25
s 2
f 14/32/32 13/31/31 12/29/29
f 13/31/31 11/30/30 12/29/29
s 3
f 15/33/33 16/34/34 14/36/36
f 16/34/34 13/35/35 14/36/36
s 4
f 9/37/37 15/38/38 12/40/40
f 15/38/38 14/39/39 12/40/40
s 5
f 9/41/41 10/42/42 15/44/44
f 10/42/42 16/43/43 15/44/44
s 6
f 11/48/48 13/47/47 10/45/45
f 13/47/47 16/46/46 10/45/45
o object3
g object3
v -0.50000000 0.95000000 -0.27500000
v -0.50000000 1.00000000 -0.27500000
v -0.50000000 1.00000000 -0.47500000
v -0.50000000 0.95000000 -0.47500000
v 0.50000000 0.95000000 -0.27500000
v 0.50000000 1.00000000 -0.27500000
v 0.50000000 1.00000000 -0.47500000
v 0.50000000 0.95000000 -0.47500000
vt 0.00000000 0.00000000
vt 1.00000000 0.00000000
vt 1.00000000 1.00000000
vt 0.00000000 1.00000000
vt 0.00000000 0.00000000
vt 1.00000000 0.00000000
vt 1.00000000 1.00000000
vt 0.00000000 1.00000000
vt 0.00000000 0.00000000
vt 1.00000000 0.00000000
vt 1.00000000 1.00000000
vt 0.00000000 1.00000000
vt 0.00000000 0.00000000
vt 1.00000000 0.00000000
vt 1.00000000 1.00000000
vt 0.00000000 1.00000000
vt 0.00000000 0.00000000
vt 1.00000000 0.00000000
vt 1.00000000 1.00000000
vt 0.00000000 1.00000000
vt 0.00000000 0.00000000
vt 1.00000000 0.00000000
vt 1.00000000 1.00000000
vt 0.00000000 1.00000000
vn -1.00000000 0.00000000 0.00000000
vn -1.00000000 0.00000000 0.00000000
vn -1.00000000 0.00000000 0.00000000
vn -1.00000000 0.00000000 0.00000000
vn 0.00000000 0.00000000 1.00000000
vn 0.00000000 0.00000000 1.00000000
vn 0.00000000 0.00000000 1.00000000
vn 0.00000000 0.00000000 1.00000000
vn 1.00000000 0.00000000 0.00000000
vn 1.00000000 0.00000000 0.00000000
vn 1.00000000 0.00000000 0.00000000
vn 1.00000000 0.00000000 0.00000000
vn 0.00000000 -1.00000000 0.00000000
vn 0.00000000 -1.00000000 0.00000000
vn 0.00000000 -1.00000000 0.00000000
vn 0.00000000 -1.00000000 0.00000000
vn 0.00000000 0.00000000 -1.00000000
vn 0.00000000 0.00000000 -1.00000000
vn 0.00000000 0.00000000 -1.00000000
vn 0.00000000 0.00000000 -1.00000000
vn 0.00000000 1.00000000 0.00000000
vn 0.00000000 1.00000000 0.00000000
vn 0.00000000 1.00000000 0.00000000
vn 0.00000000 1.00000000 0.00000000
s 1
usemtl Wood_Light
f 17/49/49 18/50/50 20/52/52
f 18/50/50 19/51/51 20/52/52
s 2
f 21/53/53 22/54/54 17/56/56
f 22/54/54 18/55/55 17/56/56
s 3
f 24/60/60 23/59/59 21/57/57
f 23/59/59 22/58/58 21/57/57
s 4
f 21/61/61 17/62/62 24/64/64
f 17/62/62 20/63/63 24/64/64
s 5
f 20/68/68 19/67/67 24/65/65
f 19/67/67 23/66/66 24/65/65
s 6
f 23/72/72 19/71/71 22/69/69
f 19/71/71 18/70/70 22/69/69
o object4
g object4
v 0.39142136 0.75000000 0.60357143
v 0.30857864 0.75000000 0.60357143
v 0.35000000 0.85000000 0.65000000
v 0.45000000 0.80857864 0.60357143
v 0.45000000 0.89142136 0.60357143
v 0.39142136 0.95000000 0.60357143
v 0.30857864 0.95000000 0.60357143
v 0.25000000 0.89142136 0.60357143
v 0.25000000 0.80857864 0.60357143
v 0.25000000 0.80857864 -0.60357143
v 0.25000000 0.89142136 -0.60357143
v 0.30857864 0.75000000 -0.60357143
v 0.35000000 0.85000000 -0.65000000
v 0.39142136 0.75000000 -0.60357143
v 0.45000000 0.80857864 -0.60357143
v 0.45000000 0.89142136 -0.60357143
v 0.39142136 0.95000000 -0.60357143
v 0.30857864 0.95000000 -0.60357143
vt 0.58578644 1.00000000
vt 0.00000000 0.50221105
vt 1.00000000 0.00000000
vt 1.00000000 1.00000000
vt 0.00000000 1.00000000
vt 0.50000000 0.00000000
vt 1.00000000 0.50221105
vt 0.41421356 1.00000000
vt 0.00000000 0.00000000
vt 1.00000000 0.00000000
vt 1.00000000 1.00000000
vt 0.00000000 0.50000000
vt 0.41421356 0.00000000
vt 1.00000000 0.49778895
vt 0.00000000 1.00000000
vt 0.00000000 0.00000000
vt 1.00000000 0.00000000
vt 0.50000000 1.00000000
vt 0.00000000 0.49778895
vt 0.58578644 0.00000000
vt 1.00000000 1.00000000
vt 0.00000000 0.00000000
vt 1.00000000 0.00000000
vt 1.00000000 1.00000000
vt 0.00000000 1.00000000
vt 0.00000000 0.00000000
vt 1.00000000 0.00000000
vt 1.00000000 1.00000000
vt 0.00000000 1.00000000
vt 1.00000000 1.00000000
vt 0.00000000 1.00000000
vt 0.50000000 0.00000000
vt 0.58578644 1.00000000
vt 0.00000000 0.50221105
vt 1.00000000 0.00000000
vt 0.00000000 1.00000000
vt 0.00000000 0.00000000
vt 1.00000000 0.50000000
vt 0.00000000 0.49778895
vt 0.58578644 0.00000000
vt 1.00000000 1.00000000
vt 0.00000000 0.00000000
vt 1.00000000 0.00000000
vt 0.50000000 1.00000000
vt 0.41421356 0.00000000
vt 1.00000000 0.49778895
vt 0.00000000 1.00000000
vt 1.00000000 0.00000000
vt 1.00000000 1.00000000
vt 0.00000000 0.50000000
vt 1.00000000 0.50221105
vt 0.41421356 1.00000000
vt 0.00000000 0.00000000
vt 0.00000000 0.00000000
vt 1.00000000 0.00000000
vt 1.00000000 1.00000000
vt 0.00000000 1.00000000
vt 0.00000000 0.00000000
vt 1.00000000 0.00000000
vt 1.00000000 1.00000000
vt 0.00000000 1.00000000
vt 0.00000000 0.00000000
vt 1.00000000 0.00000000
vt 1.00000000 1.00000000
vt 0.00000000 1.00000000
vt 0.00000000 0.00000000
vt 1.00000000 0.00000000
vt 1.00000000 1.00000000
vt 0.00000000 1.00000000
vt 0.00000000 0.00000000
vt 1.00000000 0.00000000
vt 1.00000000 1.00000000
vt 0.00000000 1.00000000
vt 0.00000000 0.00000000
vt 1.00000000 0.00000000
vt 1.00000000 1.00000000
vt 0.00000000 1.00000000
vt 0.00000000 1.00000000
vt 0.00000000 0.00000000
vt 1.00000000 0.50000000
vn -0.00000000 -0.42111131 0.90700897
vn -0.00000000 -0.42111131 0.90700897
vn -0.00000000 -0.42111131 0.90700897
vn 0.29777066 -0.29777066 0.90700897
vn 0.29777066 -0.29777066 0.90700897
vn 0.29777066 -0.29777066 0.90700897
vn 0.42111131 -0.00000000 0.90700897
vn 0.42111131 -0.00000000 0.90700897
vn 0.42111131 -0.00000000 0.90700897
vn 0.29777066 0.29777066 0.90700897
vn 0.29777066 0.29777066 0.90700897
vn 0.29777066 0.29777066 0.90700897
vn 0.00000000 0.42111131 0.90700897
vn 0.00000000 0.42111131 0.90700897
vn 0.00000000 0.42111131 0.90700897
vn -0.29777066 0.29777066 0.90700897
vn -0.29777066 0.29777066 0.90700897
vn -0.29777066 0.29777066 0.90700897
vn -0.42111131 0.00000000 0.90700897
vn -0.42111131 0.00000000 0.90700897
vn -0.42111131 0.00000000 0.90700897
vn -1.00000000 0.00000000 0.00000000
vn -1.00000000 0.00000000 0.00000000
vn -1.00000000 0.00000000 0.00000000
vn -1.00000000 0.00000000 0.00000000
vn -0.70710678 -0.70710678 0.00000000
vn -0.70710678 -0.70710678 0.00000000
vn -0.70710678 -0.70710678 0.00000000
vn -0.70710678 -0.70710678 0.00000000
vn -0.29777066 -0.29777066 -0.90700897
vn -0.29777066 -0.29777066 -0.90700897
vn -0.29777066 -0.29777066 -0.90700897
vn 0.00000000 -0.42111131 -0.90700897
vn 0.00000000 -0.42111131 -0.90700897
vn 0.00000000 -0.42111131 -0.90700897
vn 0.29777066 -0.29777066 -0.90700897
vn 0.29777066 -0.29777066 -0.90700897
vn 0.29777066 -0.29777066 -0.90700897
vn 0.42111131 0.00000000 -0.90700897
vn 0.42111131 0.00000000 -0.90700897
vn 0.42111131 0.00000000 -0.90700897
vn 0.29777066 0.29777066 -0.90700897
vn 0.29777066 0.29777066 -0.90700897
vn 0.29777066 0.29777066 -0.90700897
vn 0.00000000 0.42111131 -0.90700897
vn 0.00000000 0.42111131 -0.90700897
vn 0.00000000 0.42111131 -0.90700897
vn -0.29777066 0.29777066 -0.90700897
vn -0.29777066 0.29777066 -0.90700897
vn -0.29777066 0.29777066 -0.90700897
vn -0.42111131 -0.00000000 -0.90700897
vn -0.42111131 -0.00000000 -0.90700897
vn -0.42111131 -0.00000000 -0.90700897
vn -0.70710678 0.70710678 0.00000000
vn -0.70710678 0.70710678 0.00000000
vn -0.70710678 0.70710678 0.00000000
vn -0.70710678 0.70710678 0.00000000
vn 0.00000000 1.00000000 0.00000000
vn 0.00000000 1.00000000 0.00000000
vn 0.00000000 1.00000000 0.00000000
vn 0.00000000 1.00000000 0.00000000
vn 0.70710678 0.70710678 0.00000000
vn 0.70710678 0.70710678 0.00000000
vn 0.70710678 0.70710678 0.00000000
vn 0.70710678 0.70710678 0.00000000
vn 1.00000000 0.00000000 0.00000000
vn 1.00000000 0.00000000 0.00000000
vn 1.00000000 0.00000000 0.00000000
vn 1.00000000 0.00000000 0.00000000
vn 0.70710678 -0.70710678 0.00000000
vn 0.70710678 -0.70710678 0.00000000
vn 0.70710678 -0.70710678 0.00000000
vn 0.70710678 -0.70710678 0.00000000
vn 0.00000000 -1.00000000 0.00000000
vn 0.00000000 -1.00000000 0.00000000
vn 0.00000000 -1.00000000 0.00000000
vn 0.00000000 -1.00000000 0.00000000
vn -0.29777066 -0.29777066 0.90700897
vn -0.29777066 -0.29777066 0.90700897
vn -0.29777066 -0.29777066 0.90700897
s 1
usemtl Wood_Light
f 27/75/75 26/74/74 25/73/73
s 2
f 27/78/78 25/77/77 28/76/76
s 3
f 27/81/81 28/80/80 29/79/79
s 4
f 27/84/84 29/83/83 30/82/82
s 5
f 27/87/87 30/86/86 31/85/85
s 6
f 27/90/90 31/89/89 32/88/88
s 7
f 27/93/93 32/92/92 33/91/91
s 8
usemtl Wood_Dark
f 32/97/97 35/96/96 33/94/94
f 35/96/96 34/95/95 33/94/94
s 9
f 33/98/98 34/99/99 36/100/100
f 33/98/98 36/100/100 26/101/101
s 10
usemtl Wood_Light
f 37/104/104 36/103/103 34/102/102
s 11
f 37/107/107 38/106/106 36/105/105
s 12
f 37/110/110 39/109/109 38/108/108
s 13
f 37/113/113 40/112/112 39/111/111
s 14
f 37/116/116 41/115/115 40/114/114
s 15
f 37/119/119 42/118/118 41/117/117
s 16
f 37/122/122 35/121/121 42/120/120
s 17
f 37/125/125 34/124/124 35/123/123
s 18
usemtl Wood_Dark
f 31/129/129 42/128/128 32/126/126
f 42/128/128 35/127/127 32/126/126
s 19
f 30/133/133 41/132/132 31/130/130
f 41/132/132 42/131/131 31/130/130
s 20
f 29/134/134 40/135/135 30/137/137
f 40/135/135 41/136/136 30/137/137
s 21
f 28/141/141 39/140/140 29/138/138
f 39/140/140 40/139/139 29/138/138
s 22
f 25/142/142 38/143/143 39/144/144
f 25/142/142 39/144/144 28/145/145
s 23
f 26/146/146 36/147/147 38/148/148
f 26/146/146 38/148/148 25/149/149
s 24
usemtl Wood_Light
f 27/152/152 33/151/151 26/150/150
o object5
g object5
v -0.25000000 0.89142136 0.60357143
v -0.25000000 0.89142136 -0.60357143
v -0.30857864 0.95000000 -0.60357143
v -0.30857864 0.95000000 0.60357143
v -0.25000000 0.80857864 -0.60357143
v -0.25000000 0.80857864 0.60357143
v -0.30857864 0.75000000 0.60357143
v -0.30857864 0.75000000 -0.60357143
v -0.39142136 0.75000000 0.60357143
v -0.39142136 0.75000000 -0.60357143
v -0.45000000 0.80857864 0.60357143
v -0.45000000 0.80857864 -0.60357143
v -0.45000000 0.89142136 -0.60357143
v -0.45000000 0.89142136 0.60357143
v -0.39142136 0.95000000 -0.60357143
v -0.39142136 0.95000000 0.60357143
v -0.35000000 0.85000000 0.65000000
v -0.35000000 0.85000000 -0.65000000
vt 0.00000000 0.00000000
vt 1.00000000 0.00000000
vt 1.00000000 1.00000000
vt 0.00000000 1.00000000
vt 0.00000000 0.00000000
vt 1.00000000 0.00000000
vt 1.00000000 1.00000000
vt 0.00000000 1.00000000
vt 0.00000000 0.00000000
vt 1.00000000 0.00000000
vt 1.00000000 1.00000000
vt 0.00000000 1.00000000
vt 0.00000000 0.00000000
vt 1.00000000 0.00000000
vt 1.00000000 1.00000000
vt 0.00000000 1.00000000
vt 0.00000000 0.00000000
vt 1.00000000 0.00000000
vt 1.00000000 1.00000000
vt 0.00000000 1.00000000
vt 0.00000000 0.00000000
vt 1.00000000 0.00000000
vt 1.00000000 1.00000000
vt 0.00000000 1.00000000
vt 0.00000000 0.00000000
vt 1.00000000 0.00000000
vt 1.00000000 1.00000000
vt 0.00000000 1.00000000
vt 0.00000000 0.00000000
vt 1.00000000 0.00000000
vt 0.50000000 1.00000000
vt 0.41421356 0.00000000
vt 1.00000000 0.49778895
vt 0.00000000 1.00000000
vt 1.00000000 0.00000000
vt 1.00000000 1.00000000
vt 0.00000000 0.50000000
vt 0.41421356 0.00000000
vt 1.00000000 0.49778895
vt 0.00000000 1.00000000
vt 0.00000000 0.49778895
vt 0.58578644 0.00000000
vt 1.00000000 1.00000000
vt 1.00000000 0.50221105
vt 0.41421356 1.00000000
vt 0.00000000 0.00000000
vt 0.00000000 1.00000000
vt 0.00000000 0.00000000
vt 1.00000000 0.50000000
vt 1.00000000 1.00000000
vt 0.00000000 1.00000000
vt 0.50000000 0.00000000
vt 0.58578644 1.00000000
vt 0.00000000 0.50221105
vt 1.00000000 0.00000000
vt 0.58578644 1.00000000
vt 0.00000000 0.50221105
vt 1.00000000 0.00000000
vt 1.00000000 1.00000000
vt 0.00000000 1.00000000
vt 0.50000000 0.00000000
vt 0.00000000 1.00000000
vt 0.00000000 0.00000000
vt 1.00000000 0.50000000
vt 1.00000000 0.50221105
vt 0.41421356 1.00000000
vt 0.00000000 0.00000000
vt 0.00000000 0.49778895
vt 0.58578644 0.00000000
vt 1.00000000 1.00000000
vt 1.00000000 0.00000000
vt 1.00000000 1.00000000
vt 0.00000000 0.50000000
vt 0.00000000 0.00000000
vt 1.00000000 0.00000000
vt 1.00000000 1.00000000
vt 0.00000000 1.00000000
vt 0.00000000 0.00000000
vt 1.00000000 0.00000000
vt 0.50000000 1.00000000
vn 0.70710678 0.70710678 0.00000000
vn 0.70710678 0.70710678 0.00000000
vn 0.70710678 0.70710678 0.00000000
vn 0.70710678 0.70710678 0.00000000
vn 1.00000000 0.00000000 0.00000000
vn 1.00000000 0.00000000 0.00000000
vn 1.00000000 0.00000000 0.00000000
vn 1.00000000 0.00000000 0.00000000
vn 0.70710678 -0.70710678 0.00000000
vn 0.70710678 -0.70710678 0.00000000
vn 0.70710678 -0.70710678 0.00000000
vn 0.70710678 -0.70710678 0.00000000
vn 0.00000000 -1.00000000 0.00000000
vn 0.00000000 -1.00000000 0.00000000
vn 0.00000000 -1.00000000 0.00000000
vn 0.00000000 -1.00000000 0.00000000
vn -0.70710678 -0.70710678 0.00000000
vn -0.70710678 -0.70710678 0.00000000
vn -0.70710678 -0.70710678 0.00000000
vn -0.70710678 -0.70710678 0.00000000
vn -1.00000000 0.00000000 0.00000000
vn -1.00000000 0.00000000 0.00000000
vn -1.00000000 0.00000000 0.00000000
vn -1.00000000 0.00000000 0.00000000
vn -0.70710678 0.70710678 0.00000000
vn -0.70710678 0.70710678 0.00000000
vn -0.70710678 0.70710678 0.00000000
vn -0.70710678 0.70710678 0.00000000
vn -0.29777066 0.29777066 0.90700897
vn -0.29777066 0.29777066 0.90700897
vn -0.29777066 0.29777066 0.90700897
vn 0.00000000 0.42111131 0.90700897
vn 0.00000000 0.42111131 0.90700897
vn 0.00000000 0.42111131 0.90700897
vn -0.29777066 0.29777066 -0.90700897
vn -0.29777066 0.29777066 -0.90700897
vn -0.29777066 0.29777066 -0.90700897
vn 0.00000000 0.42111131 -0.90700897
vn 0.00000000 0.42111131 -0.90700897
vn 0.00000000 0.42111131 -0.90700897
vn -0.42111131 0.00000000 0.90700897
vn -0.42111131 0.00000000 0.90700897
vn -0.42111131 0.00000000 0.90700897
vn -0.42111131 -0.00000000 -0.90700897
vn -0.42111131 -0.00000000 -0.90700897
vn -0.42111131 -0.00000000 -0.90700897
vn -0.29777066 -0.29777066 0.90700897
vn -0.29777066 -0.29777066 0.90700897
vn -0.29777066 -0.29777066 0.90700897
vn -0.29777066 -0.29777066 -0.90700897
vn -0.29777066 -0.29777066 -0.90700897
vn -0.29777066 -0.29777066 -0.90700897
vn -0.00000000 -0.42111131 0.90700897
vn -0.00000000 -0.42111131 0.90700897
vn -0.00000000 -0.42111131 0.90700897
vn 0.00000000 -0.42111131 -0.90700897
vn 0.00000000 -0.42111131 -0.90700897
vn 0.00000000 -0.42111131 -0.90700897
vn 0.29777066 -0.29777066 0.90700897
vn 0.29777066 -0.29777066 0.90700897
vn 0.29777066 -0.29777066 0.90700897
vn 0.29777066 -0.29777066 -0.90700897
vn 0.29777066 -0.29777066 -0.90700897
vn 0.29777066 -0.29777066 -0.90700897
vn 0.42111131 -0.00000000 0.90700897
vn 0.42111131 -0.00000000 0.90700897
vn 0.42111131 -0.00000000 0.90700897
vn 0.42111131 0.00000000 -0.90700897
vn 0.42111131 0.00000000 -0.90700897
vn 0.42111131 0.00000000 -0.90700897
vn 0.29777066 0.29777066 0.90700897
vn 0.29777066 0.29777066 0.90700897
vn 0.29777066 0.29777066 0.90700897
vn 0.00000000 1.00000000 0.00000000
vn 0.00000000 1.00000000 0.00000000
vn 0.00000000 1.00000000 0.00000000
vn 0.00000000 1.00000000 0.00000000
vn 0.29777066 0.29777066 -0.90700897
vn 0.29777066 0.29777066 -0.90700897
vn 0.29777066 0.29777066 -0.90700897
s 1
usemtl Wood_Dark
f 43/153/153 44/154/154 46/156/156
f 44/154/154 45/155/155 46/156/156
s 2
f 48/160/160 47/159/159 43/157/157
f 47/159/159 44/158/158 43/157/157
s 3
f 49/161/161 50/162/162 47/163/163
f 49/161/161 47/163/163 48/164/164
s 4
f 51/165/165 52/166/166 50/167/167
f 51/165/165 50/167/167 49/168/168
s 5
f 53/169/169 54/170/170 52/171/171
f 53/169/169 52/171/171 51/172/172
s 6
f 56/176/176 55/175/175 53/173/173
f 55/175/175 54/174/174 53/173/173
s 7
f 58/180/180 57/179/179 56/177/177
f 57/179/179 55/178/178 56/177/177
s 8
usemtl Wood_Light
f 59/183/183 58/182/182 56/181/181
s 9
f 59/186/186 46/185/185 58/184/184
s 10
f 60/189/189 55/188/188 57/187/187
s 11
f 60/192/192 57/191/191 45/190/190
s 12
f 59/195/195 56/194/194 53/193/193
s 13
f 60/198/198 54/197/197 55/196/196
s 14
f 59/201/201 53/200/200 51/199/199
s 15
f 60/204/204 52/203/203 54/202/202
s 16
f 59/207/207 51/206/206 49/205/205
s 17
f 60/210/210 50/209/209 52/208/208
s 18
f 59/213/213 49/212/212 48/211/211
s 19
f 60/216/216 47/215/215 50/214/214
s 20
f 59/219/219 48/218/218 43/217/217
s 21
f 60/222/222 44/221/221 47/220/220
s 22
f 59/225/225 43/224/224 46/223/223
s 23
usemtl Wood_Dark
f 46/229/229 45/228/228 58/226/226
f 45/228/228 57/227/227 58/226/226
s 24
usemtl Wood_Light
f 60/232/232 45/231/231 44/230/230
o object6
g object6
v 0.50000000 0.95000000 0.22500000
v -0.50000000 0.95000000 0.22500000
v -0.50000000 0.95000000 0.02500000
v 0.50000000 0.95000000 0.02500000
v 0.50000000 1.00000000 0.22500000
v -0.50000000 1.00000000 0.22500000
v -0.50000000 1.00000000 0.02500000
v 0.50000000 1.00000000 0.02500000
vt 0.00000000 0.00000000
vt 1.00000000 0.00000000
vt 1.00000000 1.00000000
vt 0.00000000 1.00000000
vt 0.00000000 0.00000000
vt 1.00000000 0.00000000
vt 1.00000000 1.00000000
vt 0.00000000 1.00000000
vt 0.00000000 0.00000000
vt 1.00000000 0.00000000
vt 1.00000000 1.00000000
vt 0.00000000 1.00000000
vt 0.00000000 0.00000000
vt 1.00000000 0.00000000
vt 1.00000000 1.00000000
vt 0.00000000 1.00000000
vt 0.00000000 0.00000000
vt 1.00000000 0.00000000
vt 1.00000000 1.00000000
vt 0.00000000 1.00000000
vt 0.00000000 0.00000000
vt 1.00000000 0.00000000
vt 1.00000000 1.00000000
vt 0.00000000 1.00000000
vn 0.00000000 -1.00000000 0.00000000
vn 0.00000000 -1.00000000 0.00000000
vn 0.00000000 -1.00000000 0.00000000
vn 0.00000000 -1.00000000 0.00000000
vn 0.00000000 0.00000000 1.00000000
vn 0.00000000 0.00000000 1.00000000
vn 0.00000000 0.00000000 1.00000000
vn 0.00000000 0.00000000 1.00000000
vn 0.00000000 1.00000000 0.00000000
vn 0.00000000 1.00000000 0.00000000
vn 0.00000000 1.00000000 0.00000000
vn 0.00000000 1.00000000 0.00000000
vn 1.00000000 0.00000000 0.00000000
vn 1.00000000 0.00000000 0.00000000
vn 1.00000000 0.00000000 0.00000000
vn 1.00000000 0.00000000 0.00000000
vn 0.00000000 0.00000000 -1.00000000
vn 0.00000000 0.00000000 -1.00000000
vn 0.00000000 0.00000000 -1.00000000
vn 0.00000000 0.00000000 -1.00000000
vn -1.00000000 0.00000000 0.00000000
vn -1.00000000 0.00000000 0.00000000
vn -1.00000000 0.00000000 0.00000000
vn -1.00000000 0.00000000 0.00000000
s 1
usemtl Wood_Light
f 61/233/233 62/234/234 64/236/236
f 62/234/234 63/235/235 64/236/236
s 2
f 61/237/237 65/238/238 62/240/240
f 65/238/238 66/239/239 62/240/240
s 3
f 68/244/244 67/243/243 65/241/241
f 67/243/243 66/242/242 65/241/241
s 4
f 64/248/248 68/247/247 61/245/245
f 68/247/247 65/246/246 61/245/245
s 5
f 63/252/252 67/251/251 64/249/249
f 67/251/251 68/250/250 64/249/249
s 6
f 62/253/253 66/254/254 63/256/256
f 66/254/254 67/255/255 63/256/256
