mtllib Materials_Modular_Terrain.mtl
o object1
g object1
v -1.74264069 0.50000000 1.74264069
v -1.74733922 0.42500000 0.58587257
v -0.58587257 0.42500000 1.74733922
v -0.50000000 0.50000000 2.69615242
v 0.87766078 0.42500000 2.49304671
v 0.94708573 0.50000000 3.29555496
v 2.50000000 0.42500000 2.75000000
v 2.50000000 0.50000000 3.50000000
v 2.50000000 0.07500000 1.25000000
v 1.06493713 0.07500000 0.96454825
v 2.50000000 -0.00000000 0.50000000
v 1.00000000 -0.00000000 0.09807621
v -0.15165043 0.07500000 0.15165043
v -0.09807621 -0.00000000 -1.00000000
v -0.96454825 0.07500000 -1.06493713
v -0.50000000 -0.00000000 -2.50000000
v -1.25000000 0.07500000 -2.50000000
v -2.49304671 0.42500000 -0.87766078
v -2.69615242 0.50000000 0.50000000
v -3.29555496 0.50000000 -0.94708573
v -2.75000000 0.42500000 -2.50000000
v -3.50000000 0.50000000 -2.50000000
v -3.50000000 0.50000000 1.50000000
v -2.50000000 0.50000000 1.50000000
v -2.50000000 0.50000000 2.50000000
v -1.50000000 0.50000000 2.50000000
v -1.50000000 0.50000000 3.50000000
vt 0.00404535 0.00000000
vt 1.00000000 0.03268408
vt 0.00000000 1.00000000
vt 0.00000000 1.00000000
vt 1.00000000 0.00000000
vt 0.99507239 0.96630119
vt 0.00000000 0.96079900
vt 0.21406291 0.00000000
vt 1.00000000 1.00000000
vt 0.00000000 1.00000000
vt 0.74691137 0.00000000
vt 1.00000000 0.97075240
vt 0.00000000 0.03654890
vt 1.00000000 0.00000000
vt 0.67981228 1.00000000
vt 1.00000000 0.00000000
vt 0.27259339 1.00000000
vt 0.00000000 0.00568993
vt 0.00000000 0.93304820
vt 0.17130219 0.00000000
vt 1.00000000 1.00000000
vt 0.00000000 0.00000000
vt 1.00000000 0.18573394
vt 0.81324695 1.00000000
vt 1.00000000 0.00000000
vt 0.38060234 1.00000000
vt 0.00000000 0.00926937
vt 0.00000000 0.96735937
vt 0.53613761 0.00000000
vt 1.00000000 1.00000000
vt 1.00000000 0.98040442
vt 0.00000000 1.00000000
vt 0.93816971 0.00000000
vt 0.04651951 0.00000000
vt 1.00000000 0.91992759
vt 0.00000000 1.00000000
vt 0.94662355 0.00000000
vt 1.00000000 1.00000000
vt 0.00000000 0.12401235
vt 0.04329142 0.00000000
vt 1.00000000 0.56600200
vt 0.00000000 1.00000000
vt 1.00000000 1.00000000
vt 0.00000000 0.34917646
vt 1.00000000 0.00000000
vt 0.00000000 1.00000000
vt 0.11543600 0.00000000
vt 1.00000000 0.12785426
vt 0.88655485 1.00000000
vt 0.00000000 0.66218004
vt 1.00000000 0.00000000
vt 0.05867483 0.00000000
vt 1.00000000 0.25781698
vt 0.00000000 1.00000000
vt 1.00000000 1.00000000
vt 0.00000000 0.30939335
vt 0.95202430 0.00000000
vt 0.04279312 1.00000000
vt 0.00000000 0.00000000
vt 1.00000000 0.29655252
vt 1.00000000 1.00000000
vt 0.00000000 0.25008568
vt 1.00000000 0.00000000
vt 1.00000000 1.00000000
vt 0.00000000 0.88503209
vt 1.00000000 0.00000000
vt 0.00000000 1.00000000
vt 0.26303586 0.00000000
vt 1.00000000 0.37283537
vt 0.00000000 0.00000000
vt 1.00000000 0.40405513
vt 0.49056619 1.00000000
vt 0.00000000 0.73296400
vt 0.48786931 0.00000000
vt 1.00000000 1.00000000
vt 0.74118095 0.96592583
vt 1.00000000 1.00000000
vt 0.33333333 1.00000000
vt 0.33333333 0.83333333
vt 0.16666667 0.83333333
vt 0.16666667 0.66666667
vt 0.00000000 0.66666667
vt 0.00000000 0.00000000
vt 0.03407417 0.25881905
vt 0.13397460 0.50000000
vt 0.29289322 0.70710678
vt 0.50000000 0.86602540
vt 1.00000000 1.00000000
vt 0.00000000 0.05231774
vt 0.93089509 0.00000000
vt 0.72787792 1.00000000
vt 0.00000000 0.45695814
vt 1.00000000 0.00000000
vn 0.06482608 0.99578871 -0.06482608
vn 0.06482608 0.99578871 -0.06482608
vn 0.06482608 0.99578871 -0.06482608
vn 0.06481040 0.99431669 -0.08446256
vn 0.04204168 0.99570295 -0.08251145
vn 0.03993070 0.99454127 -0.09640123
vn 0.01493917 0.99542962 -0.09432224
vn 0.01309879 0.99495182 -0.09949518
vn 0.03596635 0.97321114 -0.22708260
vn 0.03596635 0.97321114 -0.22708260
vn 0.03596635 0.97321114 -0.22708260
vn 0.04335217 0.97499748 -0.21794610
vn 0.01978864 0.99484235 -0.09948423
vn 0.01978864 0.99484235 -0.09948423
vn 0.01978864 0.99484235 -0.09948423
vn 0.02357006 0.99584470 -0.08796467
vn 0.06052268 0.99404855 -0.09057858
vn 0.06198947 0.99614989 -0.06198947
vn 0.09057858 0.99404855 -0.06052268
vn 0.08796467 0.99584470 -0.02357006
vn 0.09948423 0.99484235 -0.01978864
vn 0.21794610 0.97499748 -0.04335217
vn 0.21794610 0.97499748 -0.04335217
vn 0.21794610 0.97499748 -0.04335217
vn 0.20948618 0.97196832 -0.10673854
vn 0.20948618 0.97196832 -0.10673854
vn 0.20948618 0.97196832 -0.10673854
vn 0.08251145 0.99570295 -0.04204168
vn 0.08251145 0.99570295 -0.04204168
vn 0.09640123 0.99454127 -0.03993070
vn 0.09432224 0.99542962 -0.01493917
vn 0.09949518 0.99495182 -0.01309879
vn 0.22708260 0.97321114 -0.03596635
vn 0.18113734 0.97598181 -0.12103210
vn 0.12103210 0.97598181 -0.18113734
vn 0.12103210 0.97598181 -0.18113734
vn 0.12103210 0.97598181 -0.18113734
vn 0.10673854 0.97196832 -0.20948618
vn 0.00000000 1.00000000 0.00000000
vn 0.00000000 1.00000000 0.00000000
vn 0.00000000 1.00000000 0.00000000
vn 0.00000000 1.00000000 0.00000000
vn 0.00000000 1.00000000 0.00000000
vn 0.00000000 1.00000000 0.00000000
vn 0.00000000 1.00000000 0.00000000
vn 0.00000000 1.00000000 0.00000000
vn 0.00000000 1.00000000 0.00000000
vn 0.00000000 1.00000000 0.00000000
vn 0.00000000 1.00000000 0.00000000
vn 0.00000000 1.00000000 0.00000000
vn 0.16751324 0.97153416 -0.16751324
s 1
usemtl Sand_-_Bright
f 3/3/3 2/2/2 1/1/1
f 19/88/28 1/89/1 2/90/2
f 20/55/30 19/56/28 18/57/29
f 22/63/32 20/62/30 21/61/31
f 20/58/30 18/59/29 21/60/31
f 2/54/2 18/53/29 19/52/28
f 4/7/4 5/8/5 3/9/3
f 7/15/7 5/14/5 6/13/6
f 7/16/7 6/17/6 8/18/8
f 5/12/5 4/11/4 6/10/6
f 3/6/3 1/5/1 4/4/4
s 2
f 9/21/11 5/20/10 7/19/9
f 9/24/11 10/23/12 5/22/10
s 3
f 11/25/13 10/26/14 9/27/15
f 13/33/17 10/32/14 12/31/16
f 14/37/18 15/38/19 13/39/17
f 17/45/21 15/44/19 16/43/20
f 14/42/18 16/41/20 15/40/19
f 12/34/16 14/35/18 13/36/17
f 10/28/14 11/29/13 12/30/16
s 4
f 18/46/22 15/47/23 17/48/24
f 21/64/33 18/65/22 17/66/24
s 5
f 18/49/25 2/50/26 15/51/27
f 2/67/26 13/68/34 15/69/27
f 2/91/51 3/92/35 13/93/34
f 10/75/37 3/74/35 5/73/38
f 10/72/37 13/71/36 3/70/35
s 6
f 24/79/42 25/80/43 26/81/44
f 26/81/44 4/85/48 1/86/49
f 27/82/45 6/84/47 4/85/48
f 27/82/45 8/83/46 6/84/47
f 26/81/44 27/82/45 4/85/48
f 23/78/41 24/79/42 19/87/50
f 20/76/39 22/77/40 23/78/41
f 23/78/41 19/87/50 20/76/39
f 24/79/42 1/86/49 19/87/50
f 24/79/42 26/81/44 1/86/49
