mtllib Materials_Modular_Terrain.mtl
o object1
g object1
v -1.50000000 -0.00000000 -1.50000000
v -0.00000000 -0.00000000 -1.09807621
v -0.37500000 0.07500000 -0.44855716
v -1.50000000 0.07500000 -0.75000000
v -1.12500000 0.42500000 0.85048095
v -1.50000000 0.42500000 0.75000000
v -1.50000000 0.50000000 1.50000000
v -0.85048095 0.42500000 1.12500000
v -0.75000000 0.42500000 1.50000000
v 0.44855716 0.07500000 0.37500000
v 0.75000000 0.07500000 1.50000000
v 1.09807621 -0.00000000 0.00000000
v 1.50000000 -0.00000000 1.50000000
vt 0.00000000 0.98808594
vt 0.38225928 0.00000000
vt 1.00000000 0.25893554
vt 0.71330554 1.00000000
vt 0.00000000 0.85102027
vt 0.18834516 0.00000000
vt 1.00000000 0.71632658
vt 0.93721828 1.00000000
vt 1.00000000 1.00000000
vt 0.00000000 0.95398833
vt 0.13397460 0.00000000
vt 1.00000000 1.00000000
vt 0.00000000 0.95398833
vt 0.13397460 0.00000000
vt 1.00000000 1.00000000
vt 0.00000000 0.95398833
vt 0.13397460 0.00000000
vt 0.00000000 0.85102027
vt 0.18834516 0.00000000
vt 1.00000000 0.71632658
vt 0.93721828 1.00000000
vt 0.00000000 0.98808594
vt 0.38225928 0.00000000
vt 1.00000000 0.25893554
vt 0.71330554 1.00000000
vt 0.00000000 0.85102027
vt 0.18834516 0.00000000
vt 1.00000000 0.71632658
vt 0.93721828 1.00000000
vt 0.00000000 0.98808594
vt 0.38225928 0.00000000
vt 1.00000000 0.25893554
vt 0.71330554 1.00000000
vn 0.02665247 0.99468371 -0.09946837
vn 0.02665247 0.99468371 -0.09946837
vn 0.02665247 0.99468371 -0.09946837
vn 0.02665247 0.99468371 -0.09946837
vn 0.06077345 0.97204115 -0.22680960
vn 0.06077345 0.97204115 -0.22680960
vn 0.06077345 0.97204115 -0.22680960
vn 0.06077345 0.97204115 -0.22680960
vn 0.02665247 0.99468371 -0.09946837
vn 0.02665247 0.99468371 -0.09946837
vn 0.02665247 0.99468371 -0.09946837
vn 0.07281590 0.99468371 -0.07281590
vn 0.07281590 0.99468371 -0.07281590
vn 0.07281590 0.99468371 -0.07281590
vn 0.09946837 0.99468371 -0.02665247
vn 0.09946837 0.99468371 -0.02665247
vn 0.09946837 0.99468371 -0.02665247
vn 0.22680960 0.97204115 -0.06077345
vn 0.22680960 0.97204115 -0.06077345
vn 0.22680960 0.97204115 -0.06077345
vn 0.22680960 0.97204115 -0.06077345
vn 0.09946837 0.99468371 -0.02665247
vn 0.09946837 0.99468371 -0.02665247
vn 0.09946837 0.99468371 -0.02665247
vn 0.09946837 0.99468371 -0.02665247
vn 0.16603615 0.97204115 -0.16603615
vn 0.16603615 0.97204115 -0.16603615
vn 0.16603615 0.97204115 -0.16603615
vn 0.16603615 0.97204115 -0.16603615
vn 0.07281590 0.99468371 -0.07281590
vn 0.07281590 0.99468371 -0.07281590
vn 0.07281590 0.99468371 -0.07281590
vn 0.07281590 0.99468371 -0.07281590
s 1
usemtl Sand_-_Bright
f 1/1/1 4/4/4 3/3/3
f 3/3/3 2/2/2 1/1/1
s 2
f 4/5/5 6/8/8 5/7/7
f 5/7/7 3/6/6 4/5/5
s 3
f 5/11/11 6/10/10 7/9/9
s 4
f 8/14/14 5/13/13 7/12/12
s 5
f 9/17/17 8/16/16 7/15/15
s 6
f 10/18/18 8/21/21 9/20/20
f 9/20/20 11/19/19 10/18/18
s 7
f 12/22/22 10/25/25 11/24/24
f 11/24/24 13/23/23 12/22/22
s 8
f 3/26/26 5/29/29 8/28/28
f 8/28/28 10/27/27 3/26/26
s 9
f 2/30/30 3/33/33 10/32/32
f 10/32/32 12/31/31 2/30/30
