mtllib Materials_Modular_Terrain.mtl
o object1
g object1
v -2.06493713 0.42500000 0.03545175
v -3.50000000 0.50000000 0.50000000
v -2.00000000 0.50000000 0.90192379
v -0.84834957 0.42500000 0.84834957
v -0.90192379 0.50000000 2.00000000
v -0.03545175 0.42500000 2.06493713
v -0.50000000 0.50000000 3.50000000
v 0.25000000 0.42500000 3.50000000
v 1.49304671 0.07500000 1.87766078
v 1.75000000 0.07500000 3.50000000
v 2.29555496 -0.00000000 1.94708573
v 2.50000000 -0.00000000 3.50000000
v 1.69615242 -0.00000000 0.50000000
v 0.74733922 0.07500000 0.41412743
v 0.74264069 -0.00000000 -0.74264069
v -0.41412743 0.07500000 -0.74733922
v -0.50000000 -0.00000000 -1.69615242
v -1.87766078 0.07500000 -1.49304671
v -1.94708573 -0.00000000 -2.29555496
v -3.50000000 0.07500000 -1.75000000
v -3.50000000 0.00000000 -2.50000000
v -3.50000000 0.42500000 -0.25000000
v -3.50000000 0.50000000 1.50000000
v -1.50000000 0.50000000 1.50000000
v -1.50000000 0.50000000 3.50000000
vt 0.04329142 0.00000000
vt 1.00000000 0.56600200
vt 0.00000000 1.00000000
vt 0.94662355 0.00000000
vt 1.00000000 1.00000000
vt 0.00000000 0.12401235
vt 0.04651951 0.00000000
vt 1.00000000 0.91992759
vt 0.00000000 1.00000000
vt 1.00000000 0.98040442
vt 0.00000000 1.00000000
vt 0.93816971 0.00000000
vt 0.00000000 0.96735937
vt 0.53613761 0.00000000
vt 1.00000000 1.00000000
vt 1.00000000 0.00000000
vt 0.38060234 1.00000000
vt 0.00000000 0.00926937
vt 0.00000000 0.00000000
vt 1.00000000 0.18573394
vt 0.81324695 1.00000000
vt 0.00000000 0.93304820
vt 0.17130219 0.00000000
vt 1.00000000 1.00000000
vt 0.00000000 0.03654890
vt 1.00000000 0.00000000
vt 0.67981228 1.00000000
vt 1.00000000 0.00000000
vt 0.27259339 1.00000000
vt 0.00000000 0.00568993
vt 0.00000000 1.00000000
vt 0.74691137 0.00000000
vt 1.00000000 0.97075240
vt 0.00000000 0.96079900
vt 0.21406291 0.00000000
vt 1.00000000 1.00000000
vt 0.00000000 1.00000000
vt 1.00000000 0.00000000
vt 0.99507239 0.96630119
vt 0.00404535 0.00000000
vt 1.00000000 0.03268408
vt 0.00000000 1.00000000
vt 1.00000000 1.00000000
vt 0.00000000 0.05231774
vt 0.93089509 0.00000000
vt 0.05867483 0.00000000
vt 1.00000000 0.25781698
vt 0.00000000 1.00000000
vt 1.00000000 1.00000000
vt 0.00000000 0.30939335
vt 0.95202430 0.00000000
vt 0.04279312 1.00000000
vt 0.00000000 0.00000000
vt 1.00000000 0.29655252
vt 1.00000000 1.00000000
vt 0.00000000 0.25008568
vt 1.00000000 0.00000000
vt 1.00000000 1.00000000
vt 0.00000000 0.88503209
vt 1.00000000 0.00000000
vt 0.00000000 1.00000000
vt 0.11543600 0.00000000
vt 1.00000000 0.12785426
vt 0.88655485 1.00000000
vt 0.00000000 0.66218004
vt 1.00000000 0.00000000
vt 0.72787792 1.00000000
vt 0.00000000 0.45695814
vt 1.00000000 0.00000000
vt 0.00000000 0.73296400
vt 0.48786931 0.00000000
vt 1.00000000 1.00000000
vt 0.00000000 0.00000000
vt 1.00000000 0.40405513
vt 0.49056619 1.00000000
vt 0.00000000 1.00000000
vt 0.26303586 0.00000000
vt 1.00000000 0.37283537
vt 1.00000000 1.00000000
vt 0.00000000 0.34917646
vt 1.00000000 0.00000000
vt 0.86602540 0.50000000
vt 1.00000000 1.00000000
vt 0.66666667 1.00000000
vt 0.66666667 0.33333333
vt 0.00000000 0.33333333
vt 0.00000000 0.00000000
vt 0.50000000 0.13397460
vn 0.02357006 0.99584470 -0.08796467
vn 0.02357006 0.99584470 -0.08796467
vn 0.02357006 0.99584470 -0.08796467
vn 0.06052268 0.99404855 -0.09057858
vn 0.06198947 0.99614989 -0.06198947
vn 0.09057858 0.99404855 -0.06052268
vn 0.08796467 0.99584470 -0.02357006
vn 0.09948423 0.99484235 -0.01978864
vn 0.21794610 0.97499748 -0.04335217
vn 0.21794610 0.97499748 -0.04335217
vn 0.21794610 0.97499748 -0.04335217
vn 0.22708260 0.97321114 -0.03596635
vn 0.09432224 0.99542962 -0.01493917
vn 0.09432224 0.99542962 -0.01493917
vn 0.09432224 0.99542962 -0.01493917
vn 0.09949518 0.99495182 -0.01309879
vn 0.09640123 0.99454127 -0.03993070
vn 0.08251145 0.99570295 -0.04204168
vn 0.08446256 0.99431669 -0.06481040
vn 0.06482608 0.99578871 -0.06482608
vn 0.06481040 0.99431669 -0.08446256
vn 0.04204168 0.99570295 -0.08251145
vn 0.03993070 0.99454127 -0.09640123
vn 0.01493917 0.99542962 -0.09432224
vn 0.01309879 0.99495182 -0.09949518
vn 0.03596635 0.97321114 -0.22708260
vn 0.03596635 0.97321114 -0.22708260
vn 0.03596635 0.97321114 -0.22708260
vn 0.04335217 0.97499748 -0.21794610
vn 0.10673854 0.97196832 -0.20948618
vn 0.10673854 0.97196832 -0.20948618
vn 0.10673854 0.97196832 -0.20948618
vn 0.16751324 0.97153416 -0.16751324
vn 0.16751324 0.97153416 -0.16751324
vn 0.16751324 0.97153416 -0.16751324
vn 0.20948618 0.97196832 -0.10673854
vn 0.20948618 0.97196832 -0.10673854
vn 0.20948618 0.97196832 -0.10673854
vn 0.01978864 0.99484235 -0.09948423
vn 0.00000000 1.00000000 -0.00000000
vn 0.00000000 1.00000000 -0.00000000
vn 0.00000000 1.00000000 -0.00000000
vn 0.00000000 1.00000000 -0.00000000
vn 0.00000000 1.00000000 -0.00000000
vn 0.00000000 1.00000000 -0.00000000
vn 0.00000000 1.00000000 -0.00000000
s 1
usemtl Sand_-_Bright
f 1/1/1 2/2/2 3/3/3
f 4/9/4 3/8/3 5/7/5
f 5/15/5 7/14/7 6/13/6
f 8/18/8 6/17/6 7/16/7
f 5/10/5 6/11/6 4/12/4
f 2/79/2 1/80/1 22/81/39
f 4/6/4 1/5/1 3/4/3
s 2
f 9/19/9 6/20/10 8/21/11
f 10/22/12 9/23/9 8/24/11
s 3
f 11/25/13 9/26/14 10/27/15
f 14/36/18 9/35/14 13/34/17
f 15/40/19 16/41/20 14/42/18
f 17/46/21 18/47/22 16/48/20
f 20/54/24 18/53/22 19/52/23
f 20/55/24 19/56/23 21/57/25
f 18/51/22 17/50/21 19/49/23
f 16/45/20 15/44/19 17/43/21
f 13/37/17 15/38/19 14/39/18
f 11/31/13 13/32/17 9/33/14
f 12/30/16 11/29/13 10/28/15
s 4
f 22/60/28 18/59/27 20/58/26
f 22/63/28 1/62/29 18/61/27
s 5
f 1/66/32 16/65/31 18/64/30
f 1/78/32 4/77/35 16/76/31
f 14/73/34 4/74/35 6/75/38
f 9/70/36 14/71/37 6/72/38
f 4/69/35 14/68/34 16/67/33
s 6
f 25/86/44 7/87/45 5/88/46
f 3/82/40 24/85/43 5/88/46
f 3/82/40 23/84/42 24/85/43
f 3/82/40 2/83/41 23/84/42
f 24/85/43 25/86/44 5/88/46
