mtllib Materials_Modular_Terrain.mtl
o object1
g object1
v 0.50000000 0.07500000 0.75000000
v 0.50000000 0.00000000 -0.00000000
v -0.50000000 0.00000000 -0.00000000
v -0.50000000 0.07500000 0.75000000
v 0.50000000 0.42500000 2.25000000
v -0.50000000 0.42500000 2.25000000
v 0.50000000 0.50000000 3.00000000
v -0.50000000 0.50000000 3.00000000
vt 0.00000000 1.00000000
vt 0.00000000 0.00000000
vt 1.00000000 0.00000000
vt 1.00000000 1.00000000
vt 0.00000000 1.00000000
vt 0.00000000 0.00000000
vt 1.00000000 0.00000000
vt 1.00000000 1.00000000
vt 0.00000000 1.00000000
vt 0.00000000 0.00000000
vt 1.00000000 0.00000000
vt 1.00000000 1.00000000
vn 0.00000000 0.99503719 -0.09950372
vn 0.00000000 0.99503719 -0.09950372
vn 0.00000000 0.99503719 -0.09950372
vn 0.00000000 0.99503719 -0.09950372
vn 0.00000000 0.97384121 -0.22722962
vn 0.00000000 0.97384121 -0.22722962
vn 0.00000000 0.97384121 -0.22722962
vn 0.00000000 0.97384121 -0.22722962
vn 0.00000000 0.99503719 -0.09950372
vn 0.00000000 0.99503719 -0.09950372
vn 0.00000000 0.99503719 -0.09950372
vn 0.00000000 0.99503719 -0.09950372
s 1
usemtl Sand_-_Bright
f 1/1/1 2/2/2 4/4/4
f 2/2/2 3/3/3 4/4/4
s 2
f 5/5/5 1/6/6 4/7/7
f 5/5/5 4/7/7 6/8/8
s 3
f 7/9/9 5/10/10 8/12/12
f 5/10/10 6/11/11 8/12/12
