mtllib Materials_Modular_Terrain.mtl
o object1
g object1
v -1.50000000 0.42500000 1.50000000
v -1.00000000 0.42500000 1.57500000
v -1.50000000 0.25000000 0.50000000
v -1.00000000 0.50000000 2.50000000
v -1.50000000 0.50000000 2.50000000
v 0.00000000 0.50000000 2.50000000
v -0.50000000 0.42500000 1.75000000
v 0.00000000 0.42500000 1.92500000
v 0.50000000 0.42500000 2.00000000
v 0.50000000 0.50000000 2.50000000
v 0.50000000 0.25000000 1.50000000
v 0.00000000 0.07500000 0.77500000
v -0.50000000 0.25000000 1.00000000
v 0.50000000 0.07500000 1.00000000
v 0.00000000 -0.00000000 0.20000000
v 0.50000000 -0.00000000 0.50000000
v -0.50000000 0.07500000 0.25000000
v -1.00000000 0.07500000 -0.27500000
v -1.00000000 -0.00000000 -1.20000000
v -1.50000000 0.07500000 -0.50000000
v -1.50000000 -0.00000000 -1.50000000
vt 0.06976744 1.00000000
vt 0.00000000 0.00000000
vt 1.00000000 0.96325000
vt 0.00000000 1.00000000
vt 0.00000000 0.00000000
vt 1.00000000 0.00000000
vt 1.00000000 1.00000000
vt 0.00000000 0.00000000
vt 1.00000000 0.00000000
vt 1.00000000 1.00000000
vt 0.50000000 1.00000000
vt 0.00000000 1.00000000
vt 1.00000000 0.00000000
vt 1.00000000 1.00000000
vt 0.00000000 1.00000000
vt 0.00000000 0.00000000
vt 0.00000000 0.06846763
vt 1.00000000 0.00000000
vt 0.15000000 1.00000000
vt 0.00000000 0.00000000
vt 1.00000000 0.00000000
vt 1.00000000 1.00000000
vt 0.00000000 1.00000000
vt 1.00000000 1.00000000
vt 0.00000000 0.22050000
vt 0.68965517 0.00000000
vt 1.00000000 0.00000000
vt 1.00000000 1.00000000
vt 0.00000000 1.00000000
vt 0.00000000 0.00000000
vt 0.00000000 0.00000000
vt 0.50000000 0.00000000
vt 1.00000000 0.00000000
vt 1.00000000 1.00000000
vt 0.00000000 1.00000000
vt 0.00000000 1.00000000
vt 0.00000000 0.00000000
vt 1.00000000 0.00000000
vt 1.00000000 1.00000000
vt 1.00000000 0.90069804
vt 0.00000000 1.00000000
vt 0.77500000 0.00000000
vt 1.00000000 1.00000000
vt 0.00000000 0.67150000
vt 0.17647059 0.00000000
vt 0.58823529 0.50000000
vt 0.00000000 0.00000000
vt 1.00000000 0.44283333
vt 0.37837838 1.00000000
vt 0.18918919 0.50000000
vt 0.00000000 0.00000000
vt 1.00000000 0.00000000
vt 1.00000000 1.00000000
vt 0.00000000 1.00000000
vn 0.02584841 0.98470134 -0.17232274
vn 0.02584841 0.98470134 -0.17232274
vn 0.02584841 0.98470134 -0.17232274
vn 0.01212149 0.99665582 -0.08080993
vn 0.00000000 0.99672905 -0.08081587
vn 0.00000000 0.99719931 -0.07478995
vn 0.01121779 0.99713656 -0.07478524
vn 0.00000000 0.99160041 -0.12933918
vn 0.03480520 0.99443431 -0.09944343
vn 0.04522240 0.99058595 -0.12920686
vn 0.02224556 0.98869163 -0.14830374
vn 0.00000000 0.98893635 -0.14834045
vn 0.04949184 0.94270168 -0.32994559
vn 0.04949184 0.94270168 -0.32994559
vn 0.04949184 0.94270168 -0.32994559
vn 0.17032689 0.92463169 -0.34065378
vn 0.19970743 0.93740223 -0.28529633
vn 0.12450471 0.96046493 -0.24900943
vn 0.08701716 0.95304504 -0.29005719
vn 0.14704182 0.93359888 -0.32675961
vn 0.14704182 0.93359888 -0.32675961
vn 0.05810430 0.98992512 -0.12912067
vn 0.07737088 0.98862797 -0.12895147
vn 0.08865382 0.98504241 -0.14775636
vn 0.06660497 0.98674034 -0.14801105
vn 0.13457085 0.98258079 -0.12816271
vn 0.10391329 0.98965042 -0.09896504
vn 0.08455279 0.99315976 -0.08052647
vn 0.11242492 0.99041001 -0.08030351
vn 0.17817737 0.97573321 -0.12726955
vn 0.04843262 0.99555934 -0.08072103
vn 0.03363643 0.99663503 -0.07474763
vn 0.04482886 0.99619681 -0.07471476
vn 0.07733881 0.98208017 -0.17186403
vn 0.07733881 0.98208017 -0.17186403
vn 0.23207695 0.94725284 -0.22102566
vn 0.23207695 0.94725284 -0.22102566
vn 0.23207695 0.94725284 -0.22102566
vn 0.23207695 0.94725284 -0.22102566
vn 0.07928003 0.97077593 -0.22651438
vn 0.07928003 0.97077593 -0.22651438
vn 0.07928003 0.97077593 -0.22651438
vn 0.12903631 0.97435583 -0.18433759
s 1
usemtl Rock
f 1/1/1 2/2/2 3/3/3
f 3/52/3 2/53/41 13/54/43
f 13/48/40 2/49/41 7/50/42
f 8/47/18 13/48/40 7/50/42
f 13/21/17 8/22/18 11/23/19
f 12/20/16 13/21/17 11/23/19
f 12/24/16 11/25/20 14/26/21
f 18/51/35 3/52/3 13/54/43
f 20/40/34 3/41/3 18/42/35
s 2
f 1/7/7 5/6/6 2/4/4
f 7/11/9 2/10/4 4/9/5
f 7/11/9 4/9/5 6/8/8
f 9/15/11 8/14/10 6/13/8
f 10/16/12 9/15/11 6/13/8
f 6/8/8 8/12/10 7/11/9
f 5/6/6 4/5/5 2/4/4
s 3
f 9/17/13 11/18/14 8/19/15
s 4
f 14/30/25 16/29/24 12/27/22
f 16/29/24 15/28/23 12/27/22
s 5
f 17/32/27 12/31/26 15/35/30
f 15/35/30 19/34/29 18/33/28
f 20/38/32 18/37/28 19/36/31
f 21/39/33 20/38/32 19/36/31
f 18/33/28 17/32/27 15/35/30
s 6
f 13/44/37 12/45/38 17/46/39
f 18/43/36 13/44/37 17/46/39
