mtllib Materials_Modular_Terrain.mtl
o object1
g object1
v -0.40000000 0.63032728 -0.06366028
v -0.40000000 0.60000000 -0.18041965
v -0.50000000 0.60000000 -0.18041965
v -0.50000000 0.63032728 -0.06366028
v -0.40000000 0.60000000 0.08805262
v -0.50000000 0.60000000 0.08805262
v -0.40000000 0.60000000 0.38896417
v -0.50000000 0.60000000 0.38896417
v -0.50000000 0.62681781 0.54733666
v -0.40000000 0.62681781 0.54733666
v -0.50000000 0.60000000 0.68012994
v -0.40000000 0.60000000 0.68012994
v -0.40000000 0.60000000 1.50000000
v -0.50000000 0.60000000 1.50000000
v -0.50000000 0.90000000 1.50000000
v -0.50000000 0.90000000 -0.50000000
v -0.50000000 0.60000000 -0.50000000
v -0.40000000 0.90000000 1.50000000
v -0.40000000 0.90000000 -0.50000000
v -0.40000000 0.60000000 -0.50000000
vt 0.00000000 1.00000000
vt 0.00000000 0.00000000
vt 1.00000000 0.00000000
vt 1.00000000 1.00000000
vt 0.00000000 1.00000000
vt 0.00000000 0.00000000
vt 1.00000000 0.00000000
vt 1.00000000 1.00000000
vt 1.00000000 0.00000000
vt 1.00000000 1.00000000
vt 0.00000000 1.00000000
vt 0.00000000 0.00000000
vt 1.00000000 0.00000000
vt 1.00000000 1.00000000
vt 0.00000000 1.00000000
vt 0.00000000 0.00000000
vt 1.00000000 0.00000000
vt 1.00000000 1.00000000
vt 0.00000000 1.00000000
vt 0.00000000 0.00000000
vt 1.00000000 0.00000000
vt 1.00000000 1.00000000
vt 0.00000000 1.00000000
vt 0.00000000 0.00000000
vt 0.00000000 0.70597369
vt 0.00000000 0.55551792
vt 0.08939271 0.47633167
vt 0.00000000 0.40993503
vt 0.00000000 0.00000000
vt 1.00000000 0.00000000
vt 1.00000000 1.00000000
vt 0.00000000 1.00000000
vt 0.00000000 0.84020983
vt 0.10109094 0.78183014
vt 0.00000000 1.00000000
vt 0.00000000 0.00000000
vt 1.00000000 0.00000000
vt 1.00000000 1.00000000
vt 0.00000000 1.00000000
vt 0.00000000 0.00000000
vt 1.00000000 0.00000000
vt 1.00000000 1.00000000
vt 0.00000000 0.70597369
vt 0.00000000 0.55551792
vt 0.08939271 0.47633167
vt 0.00000000 0.40993503
vt 0.00000000 0.00000000
vt 1.00000000 0.00000000
vt 1.00000000 1.00000000
vt 0.00000000 1.00000000
vt 0.00000000 0.84020983
vt 0.10109094 0.78183014
vn 0.00000000 -0.96788336 0.25139969
vn 0.00000000 -0.96788336 0.25139969
vn 0.00000000 -0.96788336 0.25139969
vn 0.00000000 -0.96788336 0.25139969
vn -0.00000000 -0.98059969 -0.19602105
vn 0.00000000 -0.98059969 -0.19602105
vn 0.00000000 -0.98059969 -0.19602105
vn -0.00000000 -0.98059969 -0.19602105
vn 0.00000000 -1.00000000 0.00000000
vn 0.00000000 -1.00000000 0.00000000
vn 0.00000000 -1.00000000 0.00000000
vn 0.00000000 -1.00000000 0.00000000
vn -0.00000000 -0.98596417 0.16695704
vn -0.00000000 -0.98596417 0.16695704
vn -0.00000000 -0.98596417 0.16695704
vn -0.00000000 -0.98596417 0.16695704
vn 0.00000000 -0.98021107 -0.19795518
vn 0.00000000 -0.98021107 -0.19795518
vn 0.00000000 -0.98021107 -0.19795518
vn 0.00000000 -0.98021107 -0.19795518
vn 0.00000000 -1.00000000 0.00000000
vn 0.00000000 -1.00000000 0.00000000
vn 0.00000000 -1.00000000 0.00000000
vn 0.00000000 -1.00000000 0.00000000
vn -1.00000000 0.00000000 0.00000000
vn -1.00000000 0.00000000 0.00000000
vn -1.00000000 0.00000000 0.00000000
vn -1.00000000 0.00000000 0.00000000
vn -1.00000000 0.00000000 0.00000000
vn -1.00000000 0.00000000 0.00000000
vn -1.00000000 0.00000000 0.00000000
vn -1.00000000 0.00000000 0.00000000
vn -1.00000000 0.00000000 0.00000000
vn -1.00000000 0.00000000 0.00000000
vn 0.00000000 1.00000000 0.00000000
vn 0.00000000 1.00000000 0.00000000
vn 0.00000000 1.00000000 0.00000000
vn 0.00000000 1.00000000 0.00000000
vn 0.00000000 -1.00000000 0.00000000
vn 0.00000000 -1.00000000 0.00000000
vn 0.00000000 -1.00000000 0.00000000
vn 0.00000000 -1.00000000 0.00000000
vn 1.00000000 0.00000000 0.00000000
vn 1.00000000 0.00000000 0.00000000
vn 1.00000000 0.00000000 0.00000000
vn 1.00000000 0.00000000 0.00000000
vn 1.00000000 0.00000000 0.00000000
vn 1.00000000 0.00000000 0.00000000
vn 1.00000000 0.00000000 0.00000000
vn 1.00000000 0.00000000 0.00000000
vn 1.00000000 0.00000000 0.00000000
vn 1.00000000 0.00000000 0.00000000
s 1
usemtl Wood_Light
f 4/4/4 3/3/3 2/2/2
f 4/4/4 2/2/2 1/1/1
s 2
f 6/8/8 4/7/7 1/6/6
f 6/8/8 1/6/6 5/5/5
s 3
usemtl Wood_Dark
f 6/9/9 5/10/10 7/11/11
f 6/9/9 7/11/11 8/12/12
s 4
usemtl Wood_Light
f 7/16/16 10/15/15 8/13/13
f 10/15/15 9/14/14 8/13/13
s 5
f 10/20/20 12/19/19 9/17/17
f 12/19/19 11/18/18 9/17/17
s 6
usemtl Wood_Dark
f 11/21/21 12/22/22 13/23/23
f 11/21/21 13/23/23 14/24/24
s 7
f 16/31/31 17/32/32 3/33/33
f 9/27/27 11/28/28 16/31/31
f 11/28/28 14/29/29 15/30/30
f 16/31/31 8/26/26 9/27/27
f 4/34/34 6/25/25 8/26/26
f 16/31/31 4/34/34 8/26/26
f 11/28/28 15/30/30 16/31/31
f 16/31/31 3/33/33 4/34/34
s 8
f 19/38/38 16/37/37 18/35/35
f 16/37/37 15/36/36 18/35/35
s 9
f 2/39/39 3/40/40 20/42/42
f 3/40/40 17/41/41 20/42/42
s 10
f 2/51/51 20/50/50 19/49/49
f 19/49/49 12/46/46 10/45/45
f 18/48/48 13/47/47 12/46/46
f 10/45/45 7/44/44 19/49/49
f 7/44/44 5/43/43 1/52/52
f 7/44/44 1/52/52 19/49/49
f 19/49/49 18/48/48 12/46/46
f 1/52/52 2/51/51 19/49/49
o object2
g object2
v -0.40000000 0.09907473 0.45765281
v -0.40000000 0.11932738 1.51079111
v -0.40000000 0.41910574 1.48773124
v -0.40000000 0.40787047 0.90349730
v -0.40000000 0.35830006 0.86087591
v -0.40000000 0.40403888 0.70425471
v -0.40000000 0.38067262 -0.51079111
v -0.40000000 0.08089426 -0.48773124
v -0.40000000 0.09014072 -0.00691539
v -0.40000000 0.12372871 0.20331644
v -0.50000000 0.12372871 0.20331644
v -0.50000000 0.09907473 0.45765281
v -0.50000000 0.11932738 1.51079111
v -0.50000000 0.41910574 1.48773124
v -0.50000000 0.40787047 0.90349730
v -0.50000000 0.35830006 0.86087591
v -0.50000000 0.40403888 0.70425471
v -0.50000000 0.38067262 -0.51079111
v -0.50000000 0.08089426 -0.48773124
v -0.50000000 0.09014072 -0.00691539
vt 0.00000000 0.52695848
vt 0.00000000 0.00000000
vt 1.00000000 0.00000000
vt 1.00000000 0.29233295
vt 0.83761751 0.31553305
vt 1.00000000 0.39202790
vt 1.00000000 1.00000000
vt 0.00000000 1.00000000
vt 0.00000000 0.75941432
vt 0.09841080 0.65308518
vt 0.00000000 1.00000000
vt 0.00000000 0.00000000
vt 1.00000000 0.00000000
vt 1.00000000 1.00000000
vt 0.00000000 0.52695848
vt 0.00000000 0.00000000
vt 1.00000000 0.00000000
vt 1.00000000 0.29233295
vt 0.83761751 0.31553305
vt 1.00000000 0.39202790
vt 1.00000000 1.00000000
vt 0.00000000 1.00000000
vt 0.00000000 0.75941432
vt 0.09841080 0.65308518
vt 0.00000000 1.00000000
vt 0.00000000 0.00000000
vt 1.00000000 0.00000000
vt 1.00000000 1.00000000
vt 0.00000000 1.00000000
vt 0.00000000 0.00000000
vt 1.00000000 0.00000000
vt 1.00000000 1.00000000
vt 0.00000000 1.00000000
vt 0.00000000 0.00000000
vt 1.00000000 0.00000000
vt 1.00000000 1.00000000
vt 1.00000000 0.00000000
vt 1.00000000 1.00000000
vt 0.00000000 1.00000000
vt 0.00000000 0.00000000
vt 1.00000000 0.00000000
vt 1.00000000 1.00000000
vt 0.00000000 1.00000000
vt 0.00000000 0.00000000
vt 1.00000000 0.00000000
vt 1.00000000 1.00000000
vt 0.00000000 1.00000000
vt 0.00000000 0.00000000
vt 1.00000000 0.00000000
vt 1.00000000 1.00000000
vt 0.00000000 1.00000000
vt 0.00000000 0.00000000
vn 1.00000000 0.00000000 0.00000000
vn 1.00000000 0.00000000 0.00000000
vn 1.00000000 0.00000000 0.00000000
vn 1.00000000 0.00000000 0.00000000
vn 1.00000000 0.00000000 0.00000000
vn 1.00000000 0.00000000 0.00000000
vn 1.00000000 0.00000000 0.00000000
vn 1.00000000 0.00000000 0.00000000
vn 1.00000000 0.00000000 0.00000000
vn 1.00000000 0.00000000 0.00000000
vn -0.00000000 -0.99533470 -0.09648233
vn -0.00000000 -0.99533470 -0.09648233
vn -0.00000000 -0.99533470 -0.09648233
vn -0.00000000 -0.99533470 -0.09648233
vn -1.00000000 0.00000000 0.00000000
vn -1.00000000 0.00000000 0.00000000
vn -1.00000000 0.00000000 0.00000000
vn -1.00000000 0.00000000 0.00000000
vn -1.00000000 0.00000000 0.00000000
vn -1.00000000 0.00000000 0.00000000
vn -1.00000000 0.00000000 0.00000000
vn -1.00000000 0.00000000 0.00000000
vn -1.00000000 0.00000000 0.00000000
vn -1.00000000 0.00000000 0.00000000
vn 0.00000000 -0.98747659 0.15776560
vn 0.00000000 -0.98747659 0.15776560
vn 0.00000000 -0.98747659 0.15776560
vn 0.00000000 -0.98747659 0.15776560
vn 0.00000000 -0.99981514 0.01922721
vn 0.00000000 -0.99981514 0.01922721
vn 0.00000000 -0.99981514 0.01922721
vn 0.00000000 -0.99981514 0.01922721
vn 0.00000000 0.99981514 -0.01922721
vn 0.00000000 0.99981514 -0.01922721
vn 0.00000000 0.99981514 -0.01922721
vn 0.00000000 0.99981514 -0.01922721
vn 0.00000000 0.95990500 0.28032552
vn 0.00000000 0.95990500 0.28032552
vn 0.00000000 0.95990500 0.28032552
vn 0.00000000 0.95990500 0.28032552
vn -0.00000000 0.65195871 -0.75825447
vn -0.00000000 0.65195871 -0.75825447
vn -0.00000000 0.65195871 -0.75825447
vn -0.00000000 0.65195871 -0.75825447
vn 0.00000000 0.99981514 -0.01922721
vn 0.00000000 0.99981514 -0.01922721
vn 0.00000000 0.99981514 -0.01922721
vn 0.00000000 0.99981514 -0.01922721
vn 0.00000000 -0.99981514 0.01922721
vn 0.00000000 -0.99981514 0.01922721
vn 0.00000000 -0.99981514 0.01922721
vn 0.00000000 -0.99981514 0.01922721
s 1
usemtl Wood_Dark
f 29/61/61 28/60/60 27/59/59
f 30/62/62 27/59/59 26/58/58
f 21/53/53 26/58/58 25/57/57
f 25/57/57 24/56/56 22/54/54
f 24/56/56 23/55/55 22/54/54
f 22/54/54 21/53/53 25/57/57
f 21/53/53 30/62/62 26/58/58
f 30/62/62 29/61/61 27/59/59
s 2
usemtl Wood_Light
f 32/66/66 31/65/65 30/64/64
f 32/66/66 30/64/64 21/63/63
s 3
usemtl Wood_Dark
f 38/73/73 39/74/74 40/75/75
f 37/72/72 38/73/73 31/76/76
f 36/71/71 37/72/72 32/67/67
f 33/68/68 35/70/70 36/71/71
f 33/68/68 34/69/69 35/70/70
f 36/71/71 32/67/67 33/68/68
f 37/72/72 31/76/76 32/67/67
f 38/73/73 40/75/75 31/76/76
s 4
usemtl Wood_Light
f 31/80/80 40/79/79 29/78/78
f 31/80/80 29/78/78 30/77/77
s 5
usemtl Wood_Dark
f 29/81/81 40/82/82 28/84/84
f 40/82/82 39/83/83 28/84/84
s 6
f 27/88/88 38/87/87 26/85/85
f 38/87/87 37/86/86 26/85/85
s 7
usemtl Wood_Light
f 25/92/92 26/91/91 36/89/89
f 26/91/91 37/90/90 36/89/89
s 8
f 24/96/96 25/95/95 35/93/93
f 25/95/95 36/94/94 35/93/93
s 9
usemtl Wood_Dark
f 34/100/100 23/99/99 24/98/98
f 34/100/100 24/98/98 35/97/97
s 10
f 32/101/101 21/102/102 22/103/103
f 32/101/101 22/103/103 33/104/104
