mtllib Materials_Modular_Terrain.mtl
o object1
g object1
v 0.50000000 0.07500000 0.00000000
v 0.19098301 0.12394348 0.00000000
v 0.19098301 0.04894348 -0.50000000
v 0.50000000 0.00000000 -0.50000000
v -0.08778525 0.26598301 0.00000000
v -0.08778525 0.19098301 -0.50000000
v -0.30901699 0.48721475 0.00000000
v -0.30901699 0.41221475 -0.50000000
v -0.45105652 0.76598301 0.00000000
v -0.45105652 0.69098301 -0.50000000
v -0.50000000 1.07500000 0.00000000
v -0.50000000 1.00000000 -0.50000000
v -0.45105652 1.11598301 1.00000000
v -0.50000000 1.42500000 1.00000000
v -0.45105652 1.19098301 1.50000000
v -0.50000000 1.50000000 1.50000000
v -0.30901699 0.83721475 1.00000000
v -0.30901699 0.91221475 1.50000000
v -0.08778525 0.61598301 1.00000000
v -0.08778525 0.69098301 1.50000000
v 0.19098301 0.47394348 1.00000000
v 0.19098301 0.54894348 1.50000000
v 0.50000000 0.42500000 1.00000000
v 0.50000000 0.50000000 1.50000000
vt 1.00000000 0.00000000
vt 1.00000000 1.00000000
vt 0.00000000 1.00000000
vt 0.00000000 0.00000000
vt 1.00000000 0.00000000
vt 1.00000000 1.00000000
vt 0.00000000 1.00000000
vt 0.00000000 0.00000000
vt 1.00000000 0.00000000
vt 1.00000000 1.00000000
vt 0.00000000 1.00000000
vt 0.00000000 0.00000000
vt 1.00000000 0.00000000
vt 1.00000000 1.00000000
vt 0.00000000 1.00000000
vt 0.00000000 0.00000000
vt 1.00000000 0.00000000
vt 1.00000000 1.00000000
vt 0.00000000 1.00000000
vt 0.00000000 0.00000000
vt 0.00000000 1.00000000
vt 0.00000000 0.00000000
vt 1.00000000 0.00000000
vt 1.00000000 1.00000000
vt 0.00000000 1.00000000
vt 0.00000000 0.00000000
vt 1.00000000 0.00000000
vt 1.00000000 1.00000000
vt 0.00000000 1.00000000
vt 0.00000000 0.00000000
vt 1.00000000 0.00000000
vt 1.00000000 1.00000000
vt 0.00000000 1.00000000
vt 0.00000000 0.00000000
vt 1.00000000 0.00000000
vt 1.00000000 1.00000000
vt 0.00000000 1.00000000
vt 0.00000000 0.00000000
vt 1.00000000 0.00000000
vt 1.00000000 1.00000000
vt 0.00000000 1.00000000
vt 0.00000000 0.00000000
vt 1.00000000 0.00000000
vt 1.00000000 1.00000000
vt 0.00000000 1.00000000
vt 0.00000000 0.00000000
vt 1.00000000 0.00000000
vt 1.00000000 1.00000000
vt 0.00000000 1.00000000
vt 0.00000000 0.00000000
vt 1.00000000 0.00000000
vt 1.00000000 1.00000000
vt 0.00000000 1.00000000
vt 0.00000000 0.00000000
vt 1.00000000 0.00000000
vt 1.00000000 1.00000000
vt 0.00000000 1.00000000
vt 0.00000000 0.00000000
vt 1.00000000 0.00000000
vt 1.00000000 1.00000000
vn 0.15474540 0.97702400 -0.14655360
vn 0.15474540 0.97702400 -0.14655360
vn 0.15474540 0.97702400 -0.14655360
vn 0.15474540 0.97702400 -0.14655360
vn 0.44998930 0.88315373 -0.13247306
vn 0.44998930 0.88315373 -0.13247306
vn 0.44998930 0.88315373 -0.13247306
vn 0.44998930 0.88315373 -0.13247306
vn 0.70316255 0.70316255 -0.10547438
vn 0.70316255 0.70316255 -0.10547438
vn 0.70316255 0.70316255 -0.10547438
vn 0.70316255 0.70316255 -0.10547438
vn 0.88894770 0.45294148 -0.06794122
vn 0.88894770 0.45294148 -0.06794122
vn 0.88894770 0.45294148 -0.06794122
vn 0.88894770 0.45294148 -0.06794122
vn 0.98741654 0.15639142 -0.02345871
vn 0.98741654 0.15639142 -0.02345871
vn 0.98741654 0.15639142 -0.02345871
vn 0.98741654 0.15639142 -0.02345871
vn 0.98621122 0.15620051 -0.05467018
vn 0.98621122 0.15620051 -0.05467018
vn 0.98741654 0.15639142 -0.02345871
vn 0.98741654 0.15639142 -0.02345871
vn 0.88894770 0.45294148 -0.06794122
vn 0.88894770 0.45294148 -0.06794122
vn 0.88894770 0.45294148 -0.06794122
vn 0.88894770 0.45294148 -0.06794122
vn 0.70316255 0.70316255 -0.10547438
vn 0.70316255 0.70316255 -0.10547438
vn 0.70316255 0.70316255 -0.10547438
vn 0.70316255 0.70316255 -0.10547438
vn 0.44998930 0.88315373 -0.13247306
vn 0.44998930 0.88315373 -0.13247306
vn 0.44998930 0.88315373 -0.13247306
vn 0.44998930 0.88315373 -0.13247306
vn 0.15474540 0.97702400 -0.14655360
vn 0.15474540 0.97702400 -0.14655360
vn 0.15474540 0.97702400 -0.14655360
vn 0.15474540 0.97702400 -0.14655360
vn 0.87996700 0.44836558 -0.15692795
vn 0.87996700 0.44836558 -0.15692795
vn 0.87996700 0.44836558 -0.15692795
vn 0.87996700 0.44836558 -0.15692795
vn 0.68639822 0.68639822 -0.24023938
vn 0.68639822 0.68639822 -0.24023938
vn 0.68639822 0.68639822 -0.24023938
vn 0.68639822 0.68639822 -0.24023938
vn 0.43340469 0.85060459 -0.29771161
vn 0.43340469 0.85060459 -0.29771161
vn 0.43340469 0.85060459 -0.29771161
vn 0.43340469 0.85060459 -0.29771161
vn 0.14784954 0.93348523 -0.32671983
vn 0.14784954 0.93348523 -0.32671983
vn 0.14784954 0.93348523 -0.32671983
vn 0.14784954 0.93348523 -0.32671983
s 1
usemtl Rock
f 4/4/4 3/3/3 1/1/1
f 3/3/3 2/2/2 1/1/1
s 2
f 3/8/8 6/7/7 2/5/5
f 6/7/7 5/6/6 2/5/5
s 3
f 6/12/12 8/11/11 5/9/9
f 8/11/11 7/10/10 5/9/9
s 4
f 8/16/16 10/15/15 7/13/13
f 10/15/15 9/14/14 7/13/13
s 5
f 10/20/20 12/19/19 9/17/17
f 13/23/21 9/22/17 11/21/18
f 15/27/23 13/26/21 14/25/22
f 16/28/24 15/27/23 14/25/22
f 14/24/22 13/23/21 11/21/18
f 12/19/19 11/18/18 9/17/17
s 6
f 15/32/28 18/31/27 13/29/25
f 18/31/27 17/30/26 13/29/25
s 7
f 18/36/32 20/35/31 17/33/29
f 20/35/31 19/34/30 17/33/29
s 8
f 20/40/36 22/39/35 19/37/33
f 22/39/35 21/38/34 19/37/33
s 9
f 22/44/40 24/43/39 21/41/37
f 24/43/39 23/42/38 21/41/37
s 10
f 13/48/44 17/47/43 9/45/41
f 17/47/43 7/46/42 9/45/41
s 11
f 17/52/48 19/51/47 7/49/45
f 19/51/47 5/50/46 7/49/45
s 12
f 19/56/52 21/55/51 5/53/49
f 21/55/51 2/54/50 5/53/49
s 13
f 21/60/56 23/59/55 2/57/53
f 23/59/55 1/58/54 2/57/53
