mtllib Materials_Modular_Terrain.mtl
o object1
g object1
v 0.42387953 1.00000000 0.11731657
v 0.13838506 0.95105652 0.23557225
v 0.19098301 0.95105652 0.50000000
v 0.50000000 1.00000000 0.50000000
v -0.11916323 0.80901699 0.34225225
v -0.08778525 0.80901699 0.50000000
v -0.32355471 0.58778525 0.42691397
v -0.30901699 0.58778525 0.50000000
v -0.45478212 0.30901699 0.48127014
v -0.45105652 0.30901699 0.50000000
v -0.50000000 0.00000000 0.50000000
v -0.46539173 0.30901699 0.46539173
v -0.48127014 0.30901699 0.45478212
v -0.50000000 0.30901699 0.45105652
v -0.42691397 0.58778525 0.32355471
v -0.50000000 0.58778525 0.30901699
v -0.34225225 0.80901699 0.11916323
v -0.50000000 0.80901699 0.08778525
v -0.23557225 0.95105652 -0.13838506
v -0.50000000 0.95105652 -0.19098301
v -0.11731657 1.00000000 -0.42387953
v -0.50000000 1.00000000 -0.50000000
v -0.01140123 0.95105652 0.01140123
v 0.20710678 1.00000000 -0.20710678
v -0.20852016 0.80901699 0.20852016
v -0.36495462 0.58778525 0.36495462
vt 1.00000000 0.00000000
vt 1.00000000 1.00000000
vt 0.00000000 1.00000000
vt 0.00000000 0.00000000
vt 1.00000000 0.00000000
vt 1.00000000 1.00000000
vt 0.00000000 1.00000000
vt 0.00000000 0.00000000
vt 1.00000000 0.00000000
vt 1.00000000 1.00000000
vt 0.00000000 1.00000000
vt 0.00000000 0.00000000
vt 1.00000000 0.00000000
vt 1.00000000 1.00000000
vt 0.00000000 1.00000000
vt 0.00000000 0.00000000
vt 1.00000000 0.00000000
vt 0.00000000 1.00000000
vt 0.00000000 0.00000000
vt 0.00000000 0.00000000
vt 1.00000000 0.00000000
vt 1.00000000 1.00000000
vt 0.00000000 0.00000000
vt 1.00000000 0.00000000
vt 1.00000000 1.00000000
vt 0.00000000 0.00000000
vt 1.00000000 0.00000000
vt 1.00000000 1.00000000
vt 0.00000000 1.00000000
vt 0.00000000 0.00000000
vt 1.00000000 0.00000000
vt 1.00000000 1.00000000
vt 0.00000000 1.00000000
vt 0.00000000 0.00000000
vt 1.00000000 0.00000000
vt 1.00000000 1.00000000
vt 0.00000000 1.00000000
vt 0.00000000 0.00000000
vt 1.00000000 0.00000000
vt 1.00000000 1.00000000
vt 0.00000000 1.00000000
vt 0.00000000 0.00000000
vt 1.00000000 0.00000000
vt 1.00000000 1.00000000
vt 0.00000000 1.00000000
vt 0.00000000 0.00000000
vt 1.00000000 0.00000000
vt 1.00000000 1.00000000
vt 0.00000000 1.00000000
vt 0.00000000 0.00000000
vt 1.00000000 0.00000000
vt 1.00000000 1.00000000
vt 0.00000000 1.00000000
vt 0.00000000 0.00000000
vt 1.00000000 0.00000000
vt 1.00000000 1.00000000
vt 0.00000000 1.00000000
vt 0.00000000 0.00000000
vt 1.00000000 0.00000000
vt 1.00000000 1.00000000
vt 0.00000000 1.00000000
vt 0.00000000 0.00000000
vt 1.00000000 0.00000000
vt 1.00000000 1.00000000
vt 0.00000000 1.00000000
vt 0.00000000 0.00000000
vt 1.00000000 0.00000000
vt 1.00000000 1.00000000
vt 0.00000000 1.00000000
vt 0.00000000 0.00000000
vt 1.00000000 0.00000000
vt 1.00000000 1.00000000
vt 0.00000000 1.00000000
vt 0.00000000 0.00000000
vt 1.00000000 0.00000000
vt 1.00000000 1.00000000
vn 0.15635879 -0.98721052 -0.03110170
vn 0.15635879 -0.98721052 -0.03110170
vn 0.15635879 -0.98721052 -0.03110170
vn 0.15635879 -0.98721052 -0.03110170
vn 0.45215063 -0.88739557 -0.08993835
vn 0.45215063 -0.88739557 -0.08993835
vn 0.45215063 -0.88739557 -0.08993835
vn 0.45215063 -0.88739557 -0.08993835
vn 0.70021451 -0.70021451 -0.13928133
vn 0.70021451 -0.70021451 -0.13928133
vn 0.70021451 -0.70021451 -0.13928133
vn 0.70021451 -0.70021451 -0.13928133
vn 0.87733398 -0.44702399 -0.17451258
vn 0.87733398 -0.44702399 -0.17451258
vn 0.87733398 -0.44702399 -0.17451258
vn 0.87733398 -0.44702399 -0.17451258
vn 0.96916163 -0.15350012 -0.19277823
vn 0.96916163 -0.15350012 -0.19277823
vn 0.96916163 -0.15350012 -0.19277823
vn 0.82161556 -0.15350012 -0.54898596
vn 0.82161556 -0.15350012 -0.54898596
vn 0.82161556 -0.15350012 -0.54898596
vn 0.54898596 -0.15350012 -0.82161556
vn 0.54898596 -0.15350012 -0.82161556
vn 0.54898596 -0.15350012 -0.82161556
vn 0.19277823 -0.15350012 -0.96916163
vn 0.19277823 -0.15350012 -0.96916163
vn 0.19277823 -0.15350012 -0.96916163
vn 0.17451258 -0.44702399 -0.87733398
vn 0.17451258 -0.44702399 -0.87733398
vn 0.17451258 -0.44702399 -0.87733398
vn 0.17451258 -0.44702399 -0.87733398
vn 0.13928133 -0.70021451 -0.70021451
vn 0.13928133 -0.70021451 -0.70021451
vn 0.13928133 -0.70021451 -0.70021451
vn 0.13928133 -0.70021451 -0.70021451
vn 0.08993835 -0.88739557 -0.45215063
vn 0.08993835 -0.88739557 -0.45215063
vn 0.08993835 -0.88739557 -0.45215063
vn 0.08993835 -0.88739557 -0.45215063
vn 0.03110170 -0.98721052 -0.15635879
vn 0.03110170 -0.98721052 -0.15635879
vn 0.03110170 -0.98721052 -0.15635879
vn 0.03110170 -0.98721052 -0.15635879
vn 0.08857014 -0.98721052 -0.13255458
vn 0.08857014 -0.98721052 -0.13255458
vn 0.08857014 -0.98721052 -0.13255458
vn 0.08857014 -0.98721052 -0.13255458
vn 0.25612276 -0.88739557 -0.38331479
vn 0.25612276 -0.88739557 -0.38331479
vn 0.25612276 -0.88739557 -0.38331479
vn 0.25612276 -0.88739557 -0.38331479
vn 0.39663966 -0.70021451 -0.59361320
vn 0.39663966 -0.70021451 -0.59361320
vn 0.39663966 -0.70021451 -0.59361320
vn 0.39663966 -0.70021451 -0.59361320
vn 0.49696978 -0.44702399 -0.74376783
vn 0.49696978 -0.44702399 -0.74376783
vn 0.49696978 -0.44702399 -0.74376783
vn 0.49696978 -0.44702399 -0.74376783
vn 0.74376783 -0.44702399 -0.49696978
vn 0.74376783 -0.44702399 -0.49696978
vn 0.74376783 -0.44702399 -0.49696978
vn 0.74376783 -0.44702399 -0.49696978
vn 0.59361320 -0.70021451 -0.39663966
vn 0.59361320 -0.70021451 -0.39663966
vn 0.59361320 -0.70021451 -0.39663966
vn 0.59361320 -0.70021451 -0.39663966
vn 0.38331479 -0.88739557 -0.25612276
vn 0.38331479 -0.88739557 -0.25612276
vn 0.38331479 -0.88739557 -0.25612276
vn 0.38331479 -0.88739557 -0.25612276
vn 0.13255458 -0.98721052 -0.08857014
vn 0.13255458 -0.98721052 -0.08857014
vn 0.13255458 -0.98721052 -0.08857014
vn 0.13255458 -0.98721052 -0.08857014
s 1
usemtl Rock
f 4/4/4 3/3/3 1/1/1
f 3/3/3 2/2/2 1/1/1
s 2
f 3/8/8 6/7/7 2/5/5
f 6/7/7 5/6/6 2/5/5
s 3
f 6/12/12 8/11/11 5/9/9
f 8/11/11 7/10/10 5/9/9
s 4
f 8/16/16 10/15/15 7/13/13
f 10/15/15 9/14/14 7/13/13
s 5
f 10/19/19 11/18/18 9/17/17
s 6
f 11/22/22 12/21/21 9/20/20
s 7
f 11/25/25 13/24/24 12/23/23
s 8
f 11/28/28 14/27/27 13/26/26
s 9
f 14/32/32 16/31/31 15/30/30
f 14/32/32 15/30/30 13/29/29
s 10
f 16/36/36 18/35/35 17/34/34
f 16/36/36 17/34/34 15/33/33
s 11
f 18/40/40 20/39/39 19/38/38
f 18/40/40 19/38/38 17/37/37
s 12
f 20/44/44 22/43/43 21/42/42
f 20/44/44 21/42/42 19/41/41
s 13
f 19/48/48 21/47/47 24/46/46
f 19/48/48 24/46/46 23/45/45
s 14
f 17/52/52 19/51/51 23/50/50
f 17/52/52 23/50/50 25/49/49
s 15
f 15/56/56 17/55/55 25/54/54
f 15/56/56 25/54/54 26/53/53
s 16
f 13/60/60 15/59/59 26/58/58
f 13/60/60 26/58/58 12/57/57
s 17
f 12/64/64 26/63/63 7/62/62
f 12/64/64 7/62/62 9/61/61
s 18
f 26/68/68 25/67/67 5/66/66
f 26/68/68 5/66/66 7/65/65
s 19
f 25/72/72 23/71/71 2/70/70
f 25/72/72 2/70/70 5/69/69
s 20
f 23/76/76 24/75/75 1/74/74
f 23/76/76 1/74/74 2/73/73
