mtllib Materials_Modular_Terrain.mtl
o object1
g object1
v 0.00000000 0.07500000 0.42500000
v -0.50000000 0.25000000 1.00000000
v 0.00000000 0.42500000 2.27500000
v 0.50000000 0.25000000 1.50000000
v -1.00000000 0.07500000 0.07500000
v -0.50000000 0.07500000 0.25000000
v -1.50000000 0.25000000 0.50000000
v -1.00000000 0.42500000 1.22500000
v -1.50000000 0.07500000 0.00000000
v -1.00000000 -0.00000000 -0.50000000
v -1.50000000 -0.00000000 -0.50000000
v -1.50000000 0.42500000 1.00000000
v -1.00000000 0.50000000 1.80000000
v -1.50000000 0.50000000 1.50000000
v -0.50000000 0.50000000 2.50000000
v 0.00000000 0.50000000 3.20000000
v -0.50000000 0.42500000 1.75000000
v -0.50000000 0.50000000 3.50000000
v 0.50000000 0.50000000 3.50000000
v 0.50000000 0.42500000 2.50000000
v -1.50000000 0.50000000 2.50000000
v 0.00000000 -0.00000000 -0.50000000
v 0.50000000 0.07500000 0.50000000
v 0.50000000 -0.00000000 -0.50000000
vt 0.00000000 0.00000000
vt 1.00000000 0.00000000
vt 1.00000000 1.00000000
vt 0.00000000 1.00000000
vt 1.00000000 1.00000000
vt 0.00000000 0.55716667
vt 0.62162162 0.00000000
vt 0.81081081 0.50000000
vt 0.00000000 0.00000000
vt 1.00000000 0.00000000
vt 1.00000000 1.00000000
vt 0.00000000 1.00000000
vt 0.00000000 0.00000000
vt 1.00000000 0.06846763
vt 0.85000000 1.00000000
vt 1.00000000 0.00000000
vt 1.00000000 1.00000000
vt 0.00000000 1.00000000
vt 0.00000000 0.00000000
vt 0.00000000 1.00000000
vt 0.31034483 0.00000000
vt 1.00000000 0.22050000
vt 1.00000000 0.00000000
vt 1.00000000 1.00000000
vt 0.00000000 1.00000000
vt 0.00000000 0.00000000
vt 0.50000000 0.00000000
vt 1.00000000 0.00000000
vt 1.00000000 1.00000000
vt 0.50000000 1.00000000
vt 0.00000000 1.00000000
vt 0.00000000 0.00000000
vt 0.00000000 0.00000000
vt 1.00000000 0.00000000
vt 0.30000000 0.50000000
vt 0.00000000 1.00000000
vt 0.00000000 1.00000000
vt 0.00000000 0.00000000
vt 1.00000000 0.00000000
vt 1.00000000 1.00000000
vt 0.00000000 1.00000000
vt 0.00000000 0.00000000
vt 1.00000000 0.00000000
vt 0.70000000 0.50000000
vt 0.00000000 0.00000000
vt 0.50000000 0.00000000
vt 1.00000000 0.00000000
vt 1.00000000 1.00000000
vt 0.00000000 1.00000000
vt 0.00000000 1.00000000
vt 0.00000000 0.00000000
vt 1.00000000 0.00000000
vt 1.00000000 1.00000000
vt 0.93023256 1.00000000
vt 0.00000000 0.96325000
vt 1.00000000 0.00000000
vt 0.22500000 1.00000000
vt 0.00000000 0.09930196
vt 1.00000000 0.00000000
vt 0.00000000 0.00000000
vt 1.00000000 0.32850000
vt 0.82352941 1.00000000
vt 0.41176471 0.50000000
vn 0.10319815 0.97301115 -0.20639631
vn 0.12903631 0.97435583 -0.18433759
vn 0.08385188 0.98226489 -0.16770376
vn 0.05568098 0.98104590 -0.18560328
vn 0.07928003 0.97077593 -0.22651438
vn 0.07928003 0.97077593 -0.22651438
vn 0.07928003 0.97077593 -0.22651438
vn 0.08701716 0.95304504 -0.29005719
vn 0.17032689 0.92463169 -0.34065378
vn 0.19970743 0.93740223 -0.28529633
vn 0.04949184 0.94270168 -0.32994559
vn 0.04949184 0.94270168 -0.32994559
vn 0.04949184 0.94270168 -0.32994559
vn 0.01939723 0.99141385 -0.12931485
vn 0.00000000 0.99160041 -0.12933918
vn 0.00000000 0.98893635 -0.14834045
vn 0.02224556 0.98869163 -0.14830374
vn 0.14704182 0.93359888 -0.32675961
vn 0.14704182 0.93359888 -0.32675961
vn 0.07737088 0.98862797 -0.12895147
vn 0.05810430 0.98992512 -0.12912067
vn 0.06660497 0.98674034 -0.14801105
vn 0.08865382 0.98504241 -0.14775636
vn 0.13797289 0.98552066 -0.09855207
vn 0.11242492 0.99041001 -0.08030351
vn 0.08455279 0.99315976 -0.08052647
vn 0.10391329 0.98965042 -0.09896504
vn 0.13457085 0.98258079 -0.12816271
vn 0.17817737 0.97573321 -0.12726955
vn 0.00000000 1.00000000 -0.00000000
vn 0.00000000 1.00000000 -0.00000000
vn 0.00000000 1.00000000 -0.00000000
vn 0.00000000 1.00000000 -0.00000000
vn 0.04843262 0.99555934 -0.08072103
vn 0.04482886 0.99619681 -0.07471476
vn 0.03363643 0.99663503 -0.07474763
vn 0.00000000 1.00000000 -0.00000000
vn 0.00000000 1.00000000 -0.00000000
vn 0.00000000 1.00000000 -0.00000000
vn 0.03480520 0.99443431 -0.09944343
vn 0.02827425 0.99633056 -0.08078356
vn 0.00000000 0.99672905 -0.08081587
vn 0.01121779 0.99713656 -0.07478524
vn 0.00000000 0.99719931 -0.07478995
vn 0.02584841 0.98470134 -0.17232274
vn 0.02584841 0.98470134 -0.17232274
vn 0.07733881 0.98208017 -0.17186403
vn 0.23207695 0.94725284 -0.22102566
vn 0.23207695 0.94725284 -0.22102566
vn 0.23207695 0.94725284 -0.22102566
vn 0.23207695 0.94725284 -0.22102566
s 1
usemtl Rock
f 1/1/1 2/2/2 4/4/4
f 3/57/3 20/58/47 4/59/4
f 1/56/46 4/55/4 23/54/45
f 2/2/2 3/3/3 4/4/4
f 2/6/6 1/7/1 6/8/7
f 5/5/5 2/6/6 6/8/7
f 5/9/5 7/10/8 2/12/10
f 7/10/8 8/11/9 2/12/10
f 7/22/19 12/21/18 8/20/9
s 2
f 5/15/13 9/14/12 7/13/11
s 3
f 5/16/14 10/17/15 9/19/17
f 6/46/40 22/48/42 10/49/15
f 22/50/42 1/51/41 24/53/44
f 1/51/41 23/52/43 24/53/44
f 6/46/40 1/47/41 22/48/42
f 10/17/15 11/18/16 9/19/17
f 10/49/15 5/45/14 6/46/40
s 4
f 13/23/20 8/24/21 14/26/23
f 8/24/21 12/25/22 14/26/23
s 5
f 17/30/27 8/31/28 13/32/29
f 3/29/26 17/30/27 15/27/24
f 3/37/26 16/38/34 20/40/36
f 16/38/34 19/39/35 20/40/36
f 15/27/24 16/28/25 3/29/26
f 17/30/27 13/32/29 15/27/24
s 6
f 18/33/30 19/36/33 16/35/32
f 16/35/32 15/34/31 18/33/30
f 13/44/39 21/42/37 15/41/31
f 13/44/39 14/43/38 21/42/37
s 7
f 2/61/49 8/62/50 17/63/51
f 3/60/48 2/61/49 17/63/51
