mtllib Materials_Modular_Terrain.mtl
o object1
g object1
v -0.12990381 -0.00000000 0.07500000
v -0.07500000 -0.00000000 0.12990381
v -0.07500000 1.00000000 0.12990381
v -0.12990381 1.00000000 0.07500000
v -0.15000000 0.00000000 0.00000000
v -0.15000000 1.00000000 0.00000000
v -0.12990381 0.00000000 -0.07500000
v -0.12990381 1.00000000 -0.07500000
v -0.07500000 0.00000000 -0.12990381
v -0.07500000 1.00000000 -0.12990381
v 0.00000000 0.00000000 -0.15000000
v 0.00000000 1.00000000 -0.15000000
v 0.07500000 0.00000000 -0.12990381
v 0.07500000 1.00000000 -0.12990381
v 0.12990381 0.00000000 -0.07500000
v 0.12990381 1.00000000 -0.07500000
v 0.15000000 0.00000000 0.00000000
v 0.15000000 1.00000000 0.00000000
v 0.12990381 -0.00000000 0.07500000
v 0.12990381 1.00000000 0.07500000
v 0.07500000 -0.00000000 0.12990381
v 0.07500000 1.00000000 0.12990381
v 0.00000000 -0.00000000 0.15000000
v 0.00000000 1.00000000 0.15000000
vt 0.00000000 1.00000000
vt 0.00000000 0.00000000
vt 1.00000000 0.00000000
vt 1.00000000 1.00000000
vt 0.00000000 1.00000000
vt 0.00000000 0.00000000
vt 1.00000000 0.00000000
vt 1.00000000 1.00000000
vt 0.00000000 1.00000000
vt 0.00000000 0.00000000
vt 1.00000000 0.00000000
vt 1.00000000 1.00000000
vt 0.00000000 1.00000000
vt 0.00000000 0.00000000
vt 1.00000000 0.00000000
vt 1.00000000 1.00000000
vt 0.00000000 1.00000000
vt 0.00000000 0.00000000
vt 1.00000000 0.00000000
vt 1.00000000 1.00000000
vt 0.00000000 1.00000000
vt 0.00000000 0.00000000
vt 1.00000000 0.00000000
vt 1.00000000 1.00000000
vt 0.00000000 1.00000000
vt 0.00000000 0.00000000
vt 1.00000000 0.00000000
vt 1.00000000 1.00000000
vt 0.00000000 1.00000000
vt 0.00000000 0.00000000
vt 1.00000000 0.00000000
vt 1.00000000 1.00000000
vt 0.00000000 1.00000000
vt 0.00000000 0.00000000
vt 1.00000000 0.00000000
vt 1.00000000 1.00000000
vt 0.00000000 1.00000000
vt 0.00000000 0.00000000
vt 1.00000000 0.00000000
vt 1.00000000 1.00000000
vt 0.00000000 1.00000000
vt 0.00000000 0.00000000
vt 1.00000000 0.00000000
vt 1.00000000 1.00000000
vt 0.00000000 1.00000000
vt 0.00000000 0.00000000
vt 1.00000000 0.00000000
vt 1.00000000 1.00000000
vn -0.70710678 -0.00000000 0.70710678
vn -0.70710678 -0.00000000 0.70710678
vn -0.70710678 -0.00000000 0.70710678
vn -0.70710678 -0.00000000 0.70710678
vn -0.96592583 -0.00000000 0.25881905
vn -0.96592583 -0.00000000 0.25881905
vn -0.96592583 -0.00000000 0.25881905
vn -0.96592583 -0.00000000 0.25881905
vn -0.96592583 0.00000000 -0.25881905
vn -0.96592583 0.00000000 -0.25881905
vn -0.96592583 0.00000000 -0.25881905
vn -0.96592583 0.00000000 -0.25881905
vn -0.70710678 0.00000000 -0.70710678
vn -0.70710678 0.00000000 -0.70710678
vn -0.70710678 0.00000000 -0.70710678
vn -0.70710678 0.00000000 -0.70710678
vn -0.25881905 0.00000000 -0.96592583
vn -0.25881905 0.00000000 -0.96592583
vn -0.25881905 0.00000000 -0.96592583
vn -0.25881905 0.00000000 -0.96592583
vn 0.25881905 0.00000000 -0.96592583
vn 0.25881905 0.00000000 -0.96592583
vn 0.25881905 0.00000000 -0.96592583
vn 0.25881905 0.00000000 -0.96592583
vn 0.70710678 0.00000000 -0.70710678
vn 0.70710678 0.00000000 -0.70710678
vn 0.70710678 0.00000000 -0.70710678
vn 0.70710678 0.00000000 -0.70710678
vn 0.96592583 0.00000000 -0.25881905
vn 0.96592583 0.00000000 -0.25881905
vn 0.96592583 0.00000000 -0.25881905
vn 0.96592583 0.00000000 -0.25881905
vn 0.96592583 -0.00000000 0.25881905
vn 0.96592583 -0.00000000 0.25881905
vn 0.96592583 -0.00000000 0.25881905
vn 0.96592583 -0.00000000 0.25881905
vn 0.70710678 -0.00000000 0.70710678
vn 0.70710678 -0.00000000 0.70710678
vn 0.70710678 -0.00000000 0.70710678
vn 0.70710678 -0.00000000 0.70710678
vn 0.25881905 -0.00000000 0.96592583
vn 0.25881905 -0.00000000 0.96592583
vn 0.25881905 -0.00000000 0.96592583
vn 0.25881905 -0.00000000 0.96592583
vn -0.25881905 -0.00000000 0.96592583
vn -0.25881905 -0.00000000 0.96592583
vn -0.25881905 -0.00000000 0.96592583
vn -0.25881905 -0.00000000 0.96592583
s 1
usemtl Rock
f 1/1/1 2/2/2 4/4/4
f 2/2/2 3/3/3 4/4/4
s 2
f 5/5/5 1/6/6 6/8/8
f 1/6/6 4/7/7 6/8/8
s 3
f 7/9/9 5/10/10 8/12/12
f 5/10/10 6/11/11 8/12/12
s 4
f 9/13/13 7/14/14 10/16/16
f 7/14/14 8/15/15 10/16/16
s 5
f 11/17/17 9/18/18 12/20/20
f 9/18/18 10/19/19 12/20/20
s 6
f 13/21/21 11/22/22 12/23/23
f 13/21/21 12/23/23 14/24/24
s 7
f 15/25/25 13/26/26 16/28/28
f 13/26/26 14/27/27 16/28/28
s 8
f 17/29/29 15/30/30 16/31/31
f 17/29/29 16/31/31 18/32/32
s 9
f 19/33/33 17/34/34 20/36/36
f 17/34/34 18/35/35 20/36/36
s 10
f 21/37/37 19/38/38 22/40/40
f 19/38/38 20/39/39 22/40/40
s 11
f 23/41/41 21/42/42 24/44/44
f 21/42/42 22/43/43 24/44/44
s 12
f 2/45/45 23/46/46 24/47/47
f 2/45/45 24/47/47 3/48/48
