mtllib Materials_Modular_Terrain.mtl
o object1
g object1
v -0.87500000 0.15000000 -0.50000000
v -0.90000000 0.12500000 -0.50000000
v -0.90000000 0.12500000 0.50000000
v -0.87500000 0.15000000 0.50000000
v -0.77500000 0.15000000 -0.50000000
v -0.77500000 0.15000000 0.50000000
v -0.75000000 0.12500000 0.50000000
v -0.75000000 0.12500000 -0.50000000
v -0.75000000 0.05000000 0.50000000
v -0.75000000 0.05000000 -0.50000000
v -0.90000000 0.05000000 -0.50000000
v -0.90000000 0.05000000 0.50000000
vt 0.00000000 1.00000000
vt 0.00000000 0.00000000
vt 1.00000000 0.00000000
vt 1.00000000 1.00000000
vt 1.00000000 0.00000000
vt 1.00000000 1.00000000
vt 0.00000000 1.00000000
vt 0.00000000 0.00000000
vt 0.00000000 1.00000000
vt 0.00000000 0.00000000
vt 1.00000000 0.00000000
vt 1.00000000 1.00000000
vt 0.00000000 0.00000000
vt 1.00000000 0.00000000
vt 1.00000000 1.00000000
vt 0.00000000 1.00000000
vt 1.00000000 0.00000000
vt 1.00000000 1.00000000
vt 0.00000000 1.00000000
vt 0.00000000 0.00000000
vt 0.00000000 0.00000000
vt 1.00000000 0.00000000
vt 1.00000000 1.00000000
vt 0.00000000 1.00000000
vn -0.70710678 0.70710678 0.00000000
vn -0.70710678 0.70710678 0.00000000
vn -0.70710678 0.70710678 0.00000000
vn -0.70710678 0.70710678 0.00000000
vn 0.00000000 1.00000000 0.00000000
vn 0.00000000 1.00000000 0.00000000
vn 0.00000000 1.00000000 0.00000000
vn 0.00000000 1.00000000 0.00000000
vn 0.70710678 0.70710678 0.00000000
vn 0.70710678 0.70710678 0.00000000
vn 0.70710678 0.70710678 0.00000000
vn 0.70710678 0.70710678 0.00000000
vn 1.00000000 0.00000000 0.00000000
vn 1.00000000 0.00000000 0.00000000
vn 1.00000000 0.00000000 0.00000000
vn 1.00000000 0.00000000 0.00000000
vn 0.00000000 -1.00000000 0.00000000
vn 0.00000000 -1.00000000 0.00000000
vn 0.00000000 -1.00000000 0.00000000
vn 0.00000000 -1.00000000 0.00000000
vn -1.00000000 0.00000000 0.00000000
vn -1.00000000 0.00000000 0.00000000
vn -1.00000000 0.00000000 0.00000000
vn -1.00000000 0.00000000 0.00000000
s 1
usemtl Iron_Grey
f 1/1/1 2/2/2 4/4/4
f 2/2/2 3/3/3 4/4/4
s 2
f 5/5/5 1/6/6 6/8/8
f 1/6/6 4/7/7 6/8/8
s 3
f 6/9/9 7/10/10 8/11/11
f 6/9/9 8/11/11 5/12/12
s 4
f 10/16/16 8/15/15 9/13/13
f 8/15/15 7/14/14 9/13/13
s 5
f 9/20/20 12/19/19 10/17/17
f 12/19/19 11/18/18 10/17/17
s 6
f 12/24/24 3/23/23 11/21/21
f 3/23/23 2/22/22 11/21/21
o object2
g object2
v -1.00000000 0.00000000 -0.23750000
v -1.00000000 0.06250000 -0.23750000
v -0.90000000 0.06250000 -0.22500000
v -0.90000000 0.00000000 -0.22500000
v -1.00000000 0.06250000 -0.21250000
v -1.00000000 0.00000000 -0.21250000
v -1.00000000 0.06250000 -0.12500000
v -1.00000000 0.00000000 -0.12500000
v 0.00000000 0.06250000 -0.12500000
v 0.00000000 0.00000000 -0.12500000
v 0.00000000 0.00000000 -0.19375000
v 0.00000000 0.06250000 -0.19375000
v -0.05000000 0.00000000 -0.20000000
v -0.05000000 0.06250000 -0.20000000
v 0.00000000 0.06250000 -0.20625000
v 0.00000000 0.00000000 -0.20625000
v 0.00000000 0.06250000 -0.37500000
v 0.00000000 0.00000000 -0.37500000
v -1.00000000 0.06250000 -0.37500000
v -1.00000000 0.00000000 -0.37500000
v -1.00000000 0.00000000 -0.28125000
v -1.00000000 0.06250000 -0.28125000
v -0.95000000 0.06250000 -0.27500000
v -0.95000000 0.00000000 -0.27500000
v -1.00000000 0.00000000 -0.26875000
v -1.00000000 0.06250000 -0.26875000
vt 0.00000000 0.00000000
vt 1.00000000 0.00000000
vt 1.00000000 1.00000000
vt 0.00000000 1.00000000
vt 0.00000000 0.00000000
vt 1.00000000 0.00000000
vt 1.00000000 1.00000000
vt 0.00000000 1.00000000
vt 1.00000000 0.00000000
vt 1.00000000 1.00000000
vt 0.00000000 1.00000000
vt 0.00000000 0.00000000
vt 1.00000000 1.00000000
vt 0.00000000 1.00000000
vt 0.00000000 0.00000000
vt 1.00000000 0.00000000
vt 0.00000000 1.00000000
vt 0.00000000 0.00000000
vt 1.00000000 0.00000000
vt 1.00000000 1.00000000
vt 0.00000000 1.00000000
vt 0.00000000 0.00000000
vt 1.00000000 0.00000000
vt 1.00000000 1.00000000
vt 1.00000000 0.00000000
vt 1.00000000 1.00000000
vt 0.00000000 1.00000000
vt 0.00000000 0.00000000
vt 1.00000000 0.00000000
vt 1.00000000 1.00000000
vt 0.00000000 1.00000000
vt 0.00000000 0.00000000
vt 1.00000000 1.00000000
vt 0.00000000 1.00000000
vt 0.00000000 0.00000000
vt 1.00000000 0.00000000
vt 0.00000000 1.00000000
vt 0.00000000 0.00000000
vt 1.00000000 0.00000000
vt 1.00000000 1.00000000
vt 1.00000000 0.00000000
vt 1.00000000 1.00000000
vt 0.00000000 1.00000000
vt 0.00000000 0.00000000
vt 0.00000000 1.00000000
vt 0.00000000 0.00000000
vt 1.00000000 0.00000000
vt 1.00000000 1.00000000
vt 0.00000000 0.00000000
vt 0.27500000 0.00000000
vt 0.30000000 0.05000000
vt 0.32500000 0.00000000
vt 1.00000000 0.00000000
vt 1.00000000 1.00000000
vt 0.62500000 1.00000000
vt 0.60000000 0.95000000
vt 0.57500000 1.00000000
vt 0.45000000 1.00000000
vt 0.40000000 0.90000000
vt 0.35000000 1.00000000
vt 0.00000000 1.00000000
vt 1.00000000 0.00000000
vt 1.00000000 1.00000000
vt 0.00000000 1.00000000
vt 0.00000000 0.00000000
vt 0.00000000 0.00000000
vt 0.27500000 0.00000000
vt 0.30000000 0.05000000
vt 0.32500000 0.00000000
vt 1.00000000 0.00000000
vt 1.00000000 1.00000000
vt 0.62500000 1.00000000
vt 0.60000000 0.95000000
vt 0.57500000 1.00000000
vt 0.45000000 1.00000000
vt 0.40000000 0.90000000
vt 0.35000000 1.00000000
vt 0.00000000 1.00000000
vn -0.12403473 0.00000000 0.99227788
vn -0.12403473 0.00000000 0.99227788
vn -0.12403473 0.00000000 0.99227788
vn -0.12403473 0.00000000 0.99227788
vn -0.12403473 0.00000000 -0.99227788
vn -0.12403473 0.00000000 -0.99227788
vn -0.12403473 0.00000000 -0.99227788
vn -0.12403473 0.00000000 -0.99227788
vn -1.00000000 0.00000000 0.00000000
vn -1.00000000 0.00000000 0.00000000
vn -1.00000000 0.00000000 0.00000000
vn -1.00000000 0.00000000 0.00000000
vn 0.00000000 0.00000000 1.00000000
vn 0.00000000 0.00000000 1.00000000
vn 0.00000000 0.00000000 1.00000000
vn 0.00000000 0.00000000 1.00000000
vn 1.00000000 0.00000000 0.00000000
vn 1.00000000 0.00000000 0.00000000
vn 1.00000000 0.00000000 0.00000000
vn 1.00000000 0.00000000 0.00000000
vn 0.12403473 0.00000000 -0.99227788
vn 0.12403473 0.00000000 -0.99227788
vn 0.12403473 0.00000000 -0.99227788
vn 0.12403473 0.00000000 -0.99227788
vn 0.12403473 0.00000000 0.99227788
vn 0.12403473 0.00000000 0.99227788
vn 0.12403473 0.00000000 0.99227788
vn 0.12403473 0.00000000 0.99227788
vn 1.00000000 0.00000000 0.00000000
vn 1.00000000 0.00000000 0.00000000
vn 1.00000000 0.00000000 0.00000000
vn 1.00000000 0.00000000 0.00000000
vn 0.00000000 0.00000000 -1.00000000
vn 0.00000000 0.00000000 -1.00000000
vn 0.00000000 0.00000000 -1.00000000
vn 0.00000000 0.00000000 -1.00000000
vn -1.00000000 0.00000000 0.00000000
vn -1.00000000 0.00000000 0.00000000
vn -1.00000000 0.00000000 0.00000000
vn -1.00000000 0.00000000 0.00000000
vn -0.12403473 0.00000000 0.99227788
vn -0.12403473 0.00000000 0.99227788
vn -0.12403473 0.00000000 0.99227788
vn -0.12403473 0.00000000 0.99227788
vn -0.12403473 0.00000000 -0.99227788
vn -0.12403473 0.00000000 -0.99227788
vn -0.12403473 0.00000000 -0.99227788
vn -0.12403473 0.00000000 -0.99227788
vn 0.00000000 -1.00000000 0.00000000
vn 0.00000000 -1.00000000 0.00000000
vn 0.00000000 -1.00000000 0.00000000
vn 0.00000000 -1.00000000 0.00000000
vn 0.00000000 -1.00000000 0.00000000
vn 0.00000000 -1.00000000 0.00000000
vn 0.00000000 -1.00000000 0.00000000
vn 0.00000000 -1.00000000 0.00000000
vn 0.00000000 -1.00000000 0.00000000
vn 0.00000000 -1.00000000 0.00000000
vn 0.00000000 -1.00000000 0.00000000
vn 0.00000000 -1.00000000 0.00000000
vn 0.00000000 -1.00000000 0.00000000
vn -1.00000000 0.00000000 0.00000000
vn -1.00000000 0.00000000 0.00000000
vn -1.00000000 0.00000000 0.00000000
vn -1.00000000 0.00000000 0.00000000
vn 0.00000000 1.00000000 0.00000000
vn 0.00000000 1.00000000 0.00000000
vn 0.00000000 1.00000000 0.00000000
vn 0.00000000 1.00000000 0.00000000
vn 0.00000000 1.00000000 0.00000000
vn 0.00000000 1.00000000 0.00000000
vn 0.00000000 1.00000000 0.00000000
vn 0.00000000 1.00000000 0.00000000
vn 0.00000000 1.00000000 0.00000000
vn 0.00000000 1.00000000 0.00000000
vn 0.00000000 1.00000000 0.00000000
vn 0.00000000 1.00000000 0.00000000
vn 0.00000000 1.00000000 0.00000000
s 1
usemtl Wood_Dark
f 16/28/28 15/27/27 13/25/25
f 15/27/27 14/26/26 13/25/25
s 2
f 18/32/32 17/31/31 16/29/29
f 17/31/31 15/30/30 16/29/29
s 3
f 18/36/36 20/35/35 17/33/33
f 20/35/35 19/34/34 17/33/33
s 4
f 19/40/40 20/39/39 21/37/37
f 20/39/39 22/38/38 21/37/37
s 5
f 24/44/44 21/43/43 23/41/41
f 21/43/43 22/42/42 23/41/41
s 6
f 23/45/45 25/46/46 24/48/48
f 25/46/46 26/47/47 24/48/48
s 7
f 27/49/49 26/50/50 28/52/52
f 26/50/50 25/51/51 28/52/52
s 8
f 28/56/56 30/55/55 27/53/53
f 30/55/55 29/54/54 27/53/53
s 9
f 29/60/60 30/59/59 31/57/57
f 30/59/59 32/58/58 31/57/57
s 10
f 34/64/64 31/63/63 33/61/61
f 31/63/63 32/62/62 33/61/61
s 11
f 33/68/68 36/67/67 34/65/65
f 36/67/67 35/66/66 34/65/65
s 12
f 38/72/72 35/71/71 37/69/69
f 35/71/71 36/70/70 37/69/69
s 13
f 13/82/82 37/81/81 36/80/80
f 16/83/83 36/80/80 32/78/78
f 32/78/78 30/77/77 25/75/75
f 25/75/75 23/74/74 22/73/73
f 30/77/77 28/76/76 25/75/75
f 20/85/85 16/83/83 22/73/73
f 16/83/83 25/75/75 22/73/73
f 16/83/83 32/78/78 25/75/75
f 20/85/85 18/84/84 16/83/83
f 36/80/80 33/79/79 32/78/78
f 16/83/83 13/82/82 36/80/80
s 14
f 37/89/89 13/88/88 38/86/86
f 13/88/88 14/87/87 38/86/86
s 15
f 35/97/97 38/98/98 14/99/99
f 31/95/95 35/97/97 15/100/100
f 21/90/90 15/100/100 19/102/102
f 21/90/90 24/91/91 26/92/92
f 26/92/92 27/93/93 29/94/94
f 21/90/90 26/92/92 15/100/100
f 15/100/100 17/101/101 19/102/102
f 26/92/92 31/95/95 15/100/100
f 26/92/92 29/94/94 31/95/95
f 31/95/95 34/96/96 35/97/97
f 35/97/97 14/99/99 15/100/100
o object3
g object3
v -0.00000000 0.00000000 0.36940104
v -0.04479167 0.00000000 0.37500000
v -0.04479167 0.06250000 0.37500000
v -0.00000000 0.06250000 0.36940104
v -1.00000000 0.06250000 0.30833333
v -1.00000000 0.06250000 0.37500000
v -0.00000000 0.06250000 0.25625000
v -0.05000000 0.06250000 0.25000000
v -0.00000000 0.06250000 0.24375000
v -0.00000000 0.06250000 0.20833333
v -0.06666667 0.06250000 0.20000000
v -0.00000000 0.06250000 0.19166667
v -0.00000000 0.06250000 0.12500000
v -1.00000000 0.06250000 0.12500000
v -1.00000000 0.06250000 0.14583333
v -0.98333333 0.06250000 0.15000000
v -1.00000000 0.06250000 0.15416667
v -1.00000000 0.06250000 0.29166667
v -0.93333333 0.06250000 0.30000000
v -1.00000000 0.00000000 0.37500000
v -1.00000000 0.00000000 0.30833333
v -0.93333333 0.00000000 0.30000000
v -1.00000000 0.00000000 0.29166667
v -1.00000000 0.00000000 0.15416667
v -0.98333333 0.00000000 0.15000000
v -1.00000000 0.00000000 0.14583333
v -1.00000000 0.00000000 0.12500000
v -0.00000000 0.00000000 0.12500000
v -0.00000000 0.00000000 0.19166667
v -0.06666667 0.00000000 0.20000000
v -0.00000000 0.00000000 0.20833333
v -0.00000000 0.00000000 0.24375000
v -0.05000000 0.00000000 0.25000000
v -0.00000000 0.00000000 0.25625000
vt 0.00000000 1.00000000
vt 0.00000000 0.00000000
vt 1.00000000 0.00000000
vt 1.00000000 1.00000000
vt 0.73333333 0.00000000
vt 1.00000000 0.00000000
vt 1.00000000 0.95520833
vt 0.97760417 1.00000000
vt 0.52500000 1.00000000
vt 0.50000000 0.95000000
vt 0.47500000 1.00000000
vt 0.33333333 1.00000000
vt 0.30000000 0.93333333
vt 0.26666667 1.00000000
vt 0.00000000 1.00000000
vt 0.00000000 0.00000000
vt 0.08333333 0.00000000
vt 0.10000000 0.01666667
vt 0.11666667 0.00000000
vt 0.66666667 0.00000000
vt 0.70000000 0.06666667
vt 1.00000000 0.00000000
vt 1.00000000 1.00000000
vt 0.00000000 1.00000000
vt 0.00000000 0.00000000
vt 1.00000000 0.00000000
vt 1.00000000 1.00000000
vt 0.00000000 1.00000000
vt 0.00000000 0.00000000
vt 0.00000000 1.00000000
vt 0.00000000 0.00000000
vt 1.00000000 0.00000000
vt 1.00000000 1.00000000
vt 1.00000000 0.00000000
vt 1.00000000 1.00000000
vt 0.00000000 1.00000000
vt 0.00000000 0.00000000
vt 1.00000000 0.00000000
vt 1.00000000 1.00000000
vt 0.00000000 1.00000000
vt 0.00000000 0.00000000
vt 0.00000000 1.00000000
vt 0.00000000 0.00000000
vt 1.00000000 0.00000000
vt 1.00000000 1.00000000
vt 0.00000000 1.00000000
vt 0.00000000 0.00000000
vt 1.00000000 0.00000000
vt 1.00000000 1.00000000
vt 1.00000000 1.00000000
vt 0.00000000 1.00000000
vt 0.00000000 0.00000000
vt 1.00000000 0.00000000
vt 1.00000000 0.00000000
vt 1.00000000 1.00000000
vt 0.00000000 1.00000000
vt 0.00000000 0.00000000
vt 0.00000000 1.00000000
vt 0.00000000 0.00000000
vt 1.00000000 0.00000000
vt 1.00000000 1.00000000
vt 1.00000000 0.00000000
vt 1.00000000 1.00000000
vt 0.00000000 1.00000000
vt 0.00000000 0.00000000
vt 1.00000000 0.00000000
vt 1.00000000 1.00000000
vt 0.00000000 1.00000000
vt 0.00000000 0.00000000
vt 0.00000000 1.00000000
vt 0.00000000 0.00000000
vt 1.00000000 0.00000000
vt 1.00000000 1.00000000
vt 1.00000000 0.00000000
vt 1.00000000 1.00000000
vt 0.00000000 1.00000000
vt 0.00000000 0.00000000
vt 1.00000000 0.00000000
vt 1.00000000 1.00000000
vt 0.00000000 1.00000000
vt 0.00000000 0.00000000
vt 0.73333333 0.00000000
vt 1.00000000 0.00000000
vt 1.00000000 0.95520833
vt 0.97760417 1.00000000
vt 0.52500000 1.00000000
vt 0.50000000 0.95000000
vt 0.47500000 1.00000000
vt 0.33333333 1.00000000
vt 0.30000000 0.93333333
vt 0.26666667 1.00000000
vt 0.00000000 1.00000000
vt 0.00000000 0.00000000
vt 0.08333333 0.00000000
vt 0.10000000 0.01666667
vt 0.11666667 0.00000000
vt 0.66666667 0.00000000
vt 0.70000000 0.06666667
vt 0.00000000 1.00000000
vt 0.00000000 0.00000000
vt 1.00000000 0.00000000
vt 1.00000000 1.00000000
vn 0.12403473 0.00000000 0.99227788
vn 0.12403473 0.00000000 0.99227788
vn 0.12403473 0.00000000 0.99227788
vn 0.12403473 0.00000000 0.99227788
vn 0.00000000 1.00000000 0.00000000
vn 0.00000000 1.00000000 0.00000000
vn 0.00000000 1.00000000 0.00000000
vn 0.00000000 1.00000000 0.00000000
vn 0.00000000 1.00000000 0.00000000
vn 0.00000000 1.00000000 0.00000000
vn 0.00000000 1.00000000 0.00000000
vn 0.00000000 1.00000000 0.00000000
vn 0.00000000 1.00000000 0.00000000
vn 0.00000000 1.00000000 0.00000000
vn 0.00000000 1.00000000 0.00000000
vn 0.00000000 1.00000000 0.00000000
vn 0.00000000 1.00000000 0.00000000
vn 0.00000000 1.00000000 0.00000000
vn 0.00000000 1.00000000 0.00000000
vn 0.00000000 1.00000000 0.00000000
vn 0.00000000 1.00000000 0.00000000
vn -1.00000000 0.00000000 0.00000000
vn -1.00000000 0.00000000 0.00000000
vn -1.00000000 0.00000000 0.00000000
vn -1.00000000 0.00000000 0.00000000
vn -0.12403473 0.00000000 -0.99227788
vn -0.12403473 0.00000000 -0.99227788
vn -0.12403473 0.00000000 -0.99227788
vn -0.12403473 0.00000000 -0.99227788
vn -0.12403473 0.00000000 0.99227788
vn -0.12403473 0.00000000 0.99227788
vn -0.12403473 0.00000000 0.99227788
vn -0.12403473 0.00000000 0.99227788
vn -1.00000000 0.00000000 0.00000000
vn -1.00000000 0.00000000 0.00000000
vn -1.00000000 0.00000000 0.00000000
vn -1.00000000 0.00000000 0.00000000
vn -0.24253563 0.00000000 -0.97014250
vn -0.24253563 0.00000000 -0.97014250
vn -0.24253563 0.00000000 -0.97014250
vn -0.24253563 0.00000000 -0.97014250
vn -0.24253563 0.00000000 0.97014250
vn -0.24253563 0.00000000 0.97014250
vn -0.24253563 0.00000000 0.97014250
vn -0.24253563 0.00000000 0.97014250
vn -1.00000000 0.00000000 0.00000000
vn -1.00000000 0.00000000 0.00000000
vn -1.00000000 0.00000000 0.00000000
vn -1.00000000 0.00000000 0.00000000
vn 0.00000000 0.00000000 -1.00000000
vn 0.00000000 0.00000000 -1.00000000
vn 0.00000000 0.00000000 -1.00000000
vn 0.00000000 0.00000000 -1.00000000
vn 1.00000000 0.00000000 0.00000000
vn 1.00000000 0.00000000 0.00000000
vn 1.00000000 0.00000000 0.00000000
vn 1.00000000 0.00000000 0.00000000
vn 0.12403473 0.00000000 0.99227788
vn 0.12403473 0.00000000 0.99227788
vn 0.12403473 0.00000000 0.99227788
vn 0.12403473 0.00000000 0.99227788
vn 0.12403473 0.00000000 -0.99227788
vn 0.12403473 0.00000000 -0.99227788
vn 0.12403473 0.00000000 -0.99227788
vn 0.12403473 0.00000000 -0.99227788
vn 1.00000000 0.00000000 0.00000000
vn 1.00000000 0.00000000 0.00000000
vn 1.00000000 0.00000000 0.00000000
vn 1.00000000 0.00000000 0.00000000
vn 0.12403473 0.00000000 0.99227788
vn 0.12403473 0.00000000 0.99227788
vn 0.12403473 0.00000000 0.99227788
vn 0.12403473 0.00000000 0.99227788
vn 0.12403473 0.00000000 -0.99227788
vn 0.12403473 0.00000000 -0.99227788
vn 0.12403473 0.00000000 -0.99227788
vn 0.12403473 0.00000000 -0.99227788
vn 1.00000000 0.00000000 0.00000000
vn 1.00000000 0.00000000 0.00000000
vn 1.00000000 0.00000000 0.00000000
vn 1.00000000 0.00000000 0.00000000
vn 0.00000000 -1.00000000 0.00000000
vn 0.00000000 -1.00000000 0.00000000
vn 0.00000000 -1.00000000 0.00000000
vn 0.00000000 -1.00000000 0.00000000
vn 0.00000000 -1.00000000 0.00000000
vn 0.00000000 -1.00000000 0.00000000
vn 0.00000000 -1.00000000 0.00000000
vn 0.00000000 -1.00000000 0.00000000
vn 0.00000000 -1.00000000 0.00000000
vn 0.00000000 -1.00000000 0.00000000
vn 0.00000000 -1.00000000 0.00000000
vn 0.00000000 -1.00000000 0.00000000
vn 0.00000000 -1.00000000 0.00000000
vn 0.00000000 -1.00000000 0.00000000
vn 0.00000000 -1.00000000 0.00000000
vn 0.00000000 -1.00000000 0.00000000
vn 0.00000000 -1.00000000 0.00000000
vn 0.00000000 0.00000000 1.00000000
vn 0.00000000 0.00000000 1.00000000
vn 0.00000000 0.00000000 1.00000000
vn 0.00000000 0.00000000 1.00000000
s 1
usemtl Wood_Dark
f 42/106/106 41/105/105 39/103/103
f 41/105/105 40/104/104 39/103/103
s 2
f 52/118/118 53/119/119 54/120/120
f 51/117/117 54/120/120 57/123/123
f 57/123/123 44/108/108 49/115/115
f 41/109/109 46/112/112 49/115/115
f 46/112/112 47/113/113 48/114/114
f 41/109/109 45/111/111 46/112/112
f 41/109/109 42/110/110 45/111/111
f 46/112/112 48/114/114 49/115/115
f 44/108/108 41/109/109 49/115/115
f 55/121/121 56/122/122 57/123/123
f 57/123/123 43/107/107 44/108/108
f 57/123/123 49/115/115 51/117/117
f 49/115/115 50/116/116 51/117/117
f 54/120/120 55/121/121 57/123/123
f 51/117/117 52/118/118 54/120/120
s 3
f 59/127/127 58/126/126 43/124/124
f 58/126/126 44/125/125 43/124/124
s 4
f 43/128/128 57/129/129 59/131/131
f 57/129/129 60/130/130 59/131/131
s 5
f 61/132/132 60/133/133 56/135/135
f 60/133/133 57/134/134 56/135/135
s 6
f 62/139/139 61/138/138 55/136/136
f 61/138/138 56/137/137 55/136/136
s 7
f 55/140/140 54/141/141 62/143/143
f 54/141/141 63/142/142 62/143/143
s 8
f 64/144/144 63/145/145 53/147/147
f 63/145/145 54/146/146 53/147/147
s 9
f 53/151/151 52/150/150 64/148/148
f 52/150/150 65/149/149 64/148/148
s 10
f 51/155/155 66/154/154 52/152/152
f 66/154/154 65/153/153 52/152/152
s 11
f 67/159/159 66/158/158 50/156/156
f 66/158/158 51/157/157 50/156/156
s 12
f 50/163/163 49/162/162 67/160/160
f 49/162/162 68/161/161 67/160/160
s 13
f 69/167/167 68/166/166 48/164/164
f 68/166/166 49/165/165 48/164/164
s 14
f 70/171/171 69/170/170 47/168/168
f 69/170/170 48/169/169 47/168/168
s 15
f 47/175/175 46/174/174 70/172/172
f 46/174/174 71/173/173 70/172/172
s 16
f 72/179/179 71/178/178 45/176/176
f 71/178/178 46/177/177 45/176/176
s 17
f 39/183/183 72/182/182 42/180/180
f 72/182/182 45/181/181 42/180/180
s 18
f 63/197/197 64/196/196 65/195/195
f 60/200/200 63/197/197 66/194/194
f 66/194/194 67/193/193 68/192/192
f 68/192/192 40/186/186 58/185/185
f 71/189/189 72/188/188 40/186/186
f 69/191/191 70/190/190 71/189/189
f 72/188/188 39/187/187 40/186/186
f 68/192/192 71/189/189 40/186/186
f 68/192/192 69/191/191 71/189/189
f 66/194/194 68/192/192 60/200/200
f 68/192/192 58/185/185 60/200/200
f 60/200/200 61/199/199 62/198/198
f 58/185/185 59/184/184 60/200/200
f 63/197/197 65/195/195 66/194/194
f 60/200/200 62/198/198 63/197/197
s 19
f 41/204/204 44/203/203 40/201/201
f 44/203/203 58/202/202 40/201/201
o object4
g object4
v -0.25000000 0.05000000 -0.50000000
v -0.25000000 0.12500000 -0.50000000
v -0.25000000 0.12500000 0.50000000
v -0.25000000 0.05000000 0.50000000
v -0.10000000 0.05000000 -0.50000000
v -0.10000000 0.05000000 0.50000000
v -0.10000000 0.12500000 0.50000000
v -0.10000000 0.12500000 -0.50000000
v -0.12500000 0.15000000 0.50000000
v -0.12500000 0.15000000 -0.50000000
v -0.22500000 0.15000000 -0.50000000
v -0.22500000 0.15000000 0.50000000
vt 0.00000000 0.00000000
vt 1.00000000 0.00000000
vt 1.00000000 1.00000000
vt 0.00000000 1.00000000
vt 1.00000000 0.00000000
vt 1.00000000 1.00000000
vt 0.00000000 1.00000000
vt 0.00000000 0.00000000
vt 0.00000000 0.00000000
vt 1.00000000 0.00000000
vt 1.00000000 1.00000000
vt 0.00000000 1.00000000
vt 0.00000000 1.00000000
vt 0.00000000 0.00000000
vt 1.00000000 0.00000000
vt 1.00000000 1.00000000
vt 1.00000000 0.00000000
vt 1.00000000 1.00000000
vt 0.00000000 1.00000000
vt 0.00000000 0.00000000
vt 0.00000000 1.00000000
vt 0.00000000 0.00000000
vt 1.00000000 0.00000000
vt 1.00000000 1.00000000
vn -1.00000000 0.00000000 0.00000000
vn -1.00000000 0.00000000 0.00000000
vn -1.00000000 0.00000000 0.00000000
vn -1.00000000 0.00000000 0.00000000
vn 0.00000000 -1.00000000 0.00000000
vn 0.00000000 -1.00000000 0.00000000
vn 0.00000000 -1.00000000 0.00000000
vn 0.00000000 -1.00000000 0.00000000
vn 1.00000000 0.00000000 0.00000000
vn 1.00000000 0.00000000 0.00000000
vn 1.00000000 0.00000000 0.00000000
vn 1.00000000 0.00000000 0.00000000
vn 0.70710678 0.70710678 0.00000000
vn 0.70710678 0.70710678 0.00000000
vn 0.70710678 0.70710678 0.00000000
vn 0.70710678 0.70710678 0.00000000
vn 0.00000000 1.00000000 0.00000000
vn 0.00000000 1.00000000 0.00000000
vn 0.00000000 1.00000000 0.00000000
vn 0.00000000 1.00000000 0.00000000
vn -0.70710678 0.70710678 0.00000000
vn -0.70710678 0.70710678 0.00000000
vn -0.70710678 0.70710678 0.00000000
vn -0.70710678 0.70710678 0.00000000
s 1
usemtl Iron_Grey
f 76/208/208 75/207/207 73/205/205
f 75/207/207 74/206/206 73/205/205
s 2
f 78/212/212 76/211/211 77/209/209
f 76/211/211 73/210/210 77/209/209
s 3
f 77/216/216 80/215/215 78/213/213
f 80/215/215 79/214/214 78/213/213
s 4
f 81/217/217 79/218/218 80/219/219
f 81/217/217 80/219/219 82/220/220
s 5
f 82/221/221 83/222/222 81/224/224
f 83/222/222 84/223/223 81/224/224
s 6
f 83/225/225 74/226/226 84/228/228
f 74/226/226 75/227/227 84/228/228
