mtllib Materials_Modular_Terrain.mtl
o object1
g object1
v -0.50000000 0.42500000 1.00000000
v 0.50000000 0.42500000 1.00000000
v 0.50000000 0.07500000 0.00000000
v -0.50000000 0.07500000 0.00000000
v 0.50000000 0.00000000 -0.50000000
v -0.50000000 0.00000000 -0.50000000
v -0.50000000 0.50000000 1.50000000
v 0.50000000 0.50000000 1.50000000
vt 1.00000000 1.00000000
vt 0.00000000 1.00000000
vt 0.00000000 0.00000000
vt 1.00000000 0.00000000
vt 1.00000000 1.00000000
vt 0.00000000 1.00000000
vt 0.00000000 0.00000000
vt 1.00000000 0.00000000
vt 1.00000000 1.00000000
vt 0.00000000 1.00000000
vt 0.00000000 0.00000000
vt 1.00000000 0.00000000
vn -0.00000000 0.94385836 -0.33035042
vn -0.00000000 0.94385836 -0.33035042
vn -0.00000000 0.94385836 -0.33035042
vn -0.00000000 0.94385836 -0.33035042
vn -0.00000000 0.98893635 -0.14834045
vn -0.00000000 0.98893635 -0.14834045
vn -0.00000000 0.98893635 -0.14834045
vn -0.00000000 0.98893635 -0.14834045
vn -0.00000000 0.98893635 -0.14834045
vn -0.00000000 0.98893635 -0.14834045
vn -0.00000000 0.98893635 -0.14834045
vn -0.00000000 0.98893635 -0.14834045
s 1
usemtl Rock
f 1/1/1 2/2/2 3/3/3
f 1/1/1 3/3/3 4/4/4
s 2
f 4/5/5 3/6/6 5/7/7
f 4/5/5 5/7/7 6/8/8
s 3
f 7/9/9 8/10/10 2/11/11
f 7/9/9 2/11/11 1/12/12
