mtllib Materials_Modular_Terrain.mtl
o object1
g object1
v 0.12958214 0.90388091 0.40000000
v 0.14096817 0.89866797 0.40893453
v 0.10442602 0.86689219 0.40000000
v 0.19599084 0.94651377 0.40000000
v -0.17290368 0.62573593 0.40000000
v -0.28790368 0.72573593 0.40000000
v 0.20000000 1.15000000 0.40000000
v 0.31500000 1.05000000 0.40000000
v -0.28790368 0.72573593 0.60000000
v 0.20000000 1.15000000 0.60000000
v 0.29583962 1.03333880 0.60000000
v 0.23855885 0.99968508 0.60000000
v 0.21926049 0.96674825 0.60000000
v -0.17290368 0.62573593 0.60000000
v 0.31500000 1.05000000 0.60000000
v 0.24982208 0.99332354 0.58788756
vt 1.00000000 1.00000000
vt 0.00000000 1.00000000
vt 0.16600695 0.00000000
vt 0.80260667 0.38813690
vt 0.69245857 0.46945634
vt 0.65073362 0.54000995
vt 0.19074357 1.00000000
vt 0.00000000 0.80925643
vt 0.80925643 0.00000000
vt 1.00000000 0.19074357
vt 0.00000000 1.00000000
vt 0.00000000 0.00000000
vt 1.00000000 0.00000000
vt 1.00000000 1.00000000
vt 0.96821983 0.22252374
vt 0.87321168 0.28671604
vt 0.84120264 0.34954092
vt 0.19074357 1.00000000
vt 0.00000000 0.80925643
vt 0.80925643 0.00000000
vt 1.00000000 0.19074357
vt 1.00000000 1.00000000
vt 0.00000000 1.00000000
vt 0.16600695 0.00000000
vt 0.00000000 1.00000000
vt 0.19997562 0.00000000
vt 1.00000000 0.00000000
vt 1.00000000 1.00000000
vt 0.00000000 1.00000000
vt 0.00000000 0.43158925
vt 0.04467265 0.35669301
vt 0.00000000 0.24391938
vt 0.00000000 0.00000000
vt 1.00000000 0.00000000
vt 1.00000000 0.03927083
vt 0.93943779 0.13358769
vt 1.00000000 0.19622625
vt 0.00000000 1.00000000
vt 0.19997562 0.00000000
vt 1.00000000 0.00000000
vn 0.48476120 -0.32968737 -0.81013135
vn 0.48476120 -0.32968737 -0.81013135
vn 0.48476120 -0.32968737 -0.81013135
vn -0.00000000 0.00000000 -1.00000000
vn -0.00000000 0.00000000 -1.00000000
vn -0.00000000 0.00000000 -1.00000000
vn -0.00000000 0.00000000 -1.00000000
vn -0.00000000 0.00000000 -1.00000000
vn -0.00000000 0.00000000 -1.00000000
vn -0.00000000 0.00000000 -1.00000000
vn -0.65617871 0.75460552 0.00000000
vn -0.65617871 0.75460552 0.00000000
vn -0.65617871 0.75460552 0.00000000
vn -0.65617871 0.75460552 0.00000000
vn 0.00000000 0.00000000 1.00000000
vn 0.00000000 0.00000000 1.00000000
vn 0.00000000 0.00000000 1.00000000
vn 0.00000000 0.00000000 1.00000000
vn 0.00000000 0.00000000 1.00000000
vn 0.00000000 0.00000000 1.00000000
vn 0.00000000 0.00000000 1.00000000
vn 0.58976773 -0.34555703 0.72990709
vn 0.58976773 -0.34555703 0.72990709
vn 0.58976773 -0.34555703 0.72990709
vn 0.37207508 -0.63329540 0.67859934
vn 0.37207508 -0.63329540 0.67859934
vn 0.37207508 -0.63329540 0.67859934
vn 0.65617871 -0.75460552 -0.00000000
vn 0.65617871 -0.75460552 -0.00000000
vn 0.65617871 -0.75460552 -0.00000000
vn 0.65617871 -0.75460552 -0.00000000
vn 0.65617871 -0.75460552 -0.00000000
vn 0.65617871 -0.75460552 -0.00000000
vn 0.65617871 -0.75460552 -0.00000000
vn 0.65617871 -0.75460552 -0.00000000
vn 0.65617871 -0.75460552 -0.00000000
vn 0.65617871 -0.75460552 -0.00000000
vn 0.34936651 -0.54420400 -0.76274835
vn 0.34936651 -0.54420400 -0.76274835
vn 0.34936651 -0.54420400 -0.76274835
s 1
usemtl Wood_Light
f 1/1/1 2/2/2 3/3/3
s 2
usemtl Wood_Dark
f 7/9/9 8/10/10 4/4/4
f 6/8/8 7/9/9 1/5/5
f 1/5/5 3/6/6 6/8/8
f 3/6/6 5/7/7 6/8/8
f 7/9/9 4/4/4 1/5/5
s 3
f 7/11/11 6/12/12 10/14/14
f 6/12/12 9/13/13 10/14/14
s 4
f 9/19/19 14/18/18 13/17/17
f 10/20/20 13/17/17 12/16/16
f 12/16/16 11/15/15 15/21/21
f 12/16/16 15/21/21 10/20/20
f 10/20/20 9/19/19 13/17/17
s 5
usemtl Wood_Light
f 13/24/24 16/23/23 12/22/22
s 6
f 12/27/27 16/26/26 11/25/25
s 7
usemtl Wood_Dark
f 4/32/32 8/33/33 15/34/34
f 2/31/31 15/34/34 16/36/36
f 3/30/30 2/31/31 13/37/37
f 13/37/37 14/28/28 3/30/30
f 14/28/28 5/29/29 3/30/30
f 2/31/31 16/36/36 13/37/37
f 15/34/34 11/35/35 16/36/36
f 2/31/31 4/32/32 15/34/34
s 8
usemtl Wood_Light
f 4/38/38 2/39/39 1/40/40
