mtllib Materials_Modular_Terrain.mtl
o object1
g object1
v -0.50000000 -0.00000000 -0.50000000
v -0.42387953 -0.00000000 -0.11731657
v -0.42387953 1.00000000 -0.11731657
v -0.50000000 1.00000000 -0.50000000
v -0.20710678 -0.00000000 0.20710678
v -0.20710678 1.00000000 0.20710678
v 0.11731657 -0.00000000 0.42387953
v 0.11731657 1.00000000 0.42387953
v 0.50000000 -0.00000000 0.50000000
v 0.50000000 1.00000000 0.50000000
vt 0.00000000 1.00000000
vt 0.00000000 0.00000000
vt 1.00000000 0.00000000
vt 1.00000000 1.00000000
vt 0.00000000 1.00000000
vt 0.00000000 0.00000000
vt 1.00000000 0.00000000
vt 1.00000000 1.00000000
vt 0.00000000 1.00000000
vt 0.00000000 0.00000000
vt 1.00000000 0.00000000
vt 1.00000000 1.00000000
vt 0.00000000 1.00000000
vt 0.00000000 0.00000000
vt 1.00000000 0.00000000
vt 1.00000000 1.00000000
vn 0.98078528 0.00000000 -0.19509032
vn 0.98078528 0.00000000 -0.19509032
vn 0.98078528 0.00000000 -0.19509032
vn 0.98078528 0.00000000 -0.19509032
vn 0.83146961 0.00000000 -0.55557023
vn 0.83146961 0.00000000 -0.55557023
vn 0.83146961 0.00000000 -0.55557023
vn 0.83146961 0.00000000 -0.55557023
vn 0.55557023 0.00000000 -0.83146961
vn 0.55557023 0.00000000 -0.83146961
vn 0.55557023 0.00000000 -0.83146961
vn 0.55557023 0.00000000 -0.83146961
vn 0.19509032 0.00000000 -0.98078528
vn 0.19509032 0.00000000 -0.98078528
vn 0.19509032 0.00000000 -0.98078528
vn 0.19509032 0.00000000 -0.98078528
s 1
usemtl Rock
f 4/4/4 3/3/3 1/1/1
f 3/3/3 2/2/2 1/1/1
s 2
f 3/8/8 6/7/7 2/5/5
f 6/7/7 5/6/6 2/5/5
s 3
f 6/12/12 8/11/11 5/9/9
f 8/11/11 7/10/10 5/9/9
s 4
f 8/16/16 10/15/15 7/13/13
f 10/15/15 9/14/14 7/13/13
