mtllib Materials_Modular_Terrain.mtl
o object1
g object1
v -0.46157056 -0.00000000 -1.10981936
v -0.50000000 -0.00000000 -1.50000000
v -0.50000000 1.00000000 -1.50000000
v -0.46157056 1.00000000 -1.10981936
v -0.34775907 -0.00000000 -0.73463314
v -0.34775907 1.00000000 -0.73463314
v -0.16293922 -0.00000000 -0.38885953
v -0.16293922 1.00000000 -0.38885953
v 0.08578644 -0.00000000 -0.08578644
v 0.08578644 1.00000000 -0.08578644
v 0.38885953 -0.00000000 0.16293922
v 0.38885953 1.00000000 0.16293922
v 0.73463314 -0.00000000 0.34775907
v 0.73463314 1.00000000 0.34775907
v 1.10981936 -0.00000000 0.46157056
v 1.10981936 1.00000000 0.46157056
v 1.50000000 -0.00000000 0.50000000
v 1.50000000 1.00000000 0.50000000
vt 0.00000000 1.00000000
vt 0.00000000 0.00000000
vt 1.00000000 0.00000000
vt 1.00000000 1.00000000
vt 0.00000000 1.00000000
vt 0.00000000 0.00000000
vt 1.00000000 0.00000000
vt 1.00000000 1.00000000
vt 0.00000000 1.00000000
vt 0.00000000 0.00000000
vt 1.00000000 0.00000000
vt 1.00000000 1.00000000
vt 0.00000000 1.00000000
vt 0.00000000 0.00000000
vt 1.00000000 0.00000000
vt 1.00000000 1.00000000
vt 0.00000000 1.00000000
vt 0.00000000 0.00000000
vt 1.00000000 0.00000000
vt 1.00000000 1.00000000
vt 0.00000000 1.00000000
vt 0.00000000 0.00000000
vt 1.00000000 0.00000000
vt 1.00000000 1.00000000
vt 0.00000000 1.00000000
vt 0.00000000 0.00000000
vt 1.00000000 0.00000000
vt 1.00000000 1.00000000
vt 0.00000000 1.00000000
vt 0.00000000 0.00000000
vt 1.00000000 0.00000000
vt 1.00000000 1.00000000
vn 0.99518473 0.00000000 -0.09801714
vn 0.99518473 0.00000000 -0.09801714
vn 0.99518473 0.00000000 -0.09801714
vn 0.99518473 0.00000000 -0.09801714
vn 0.95694034 0.00000000 -0.29028468
vn 0.95694034 0.00000000 -0.29028468
vn 0.95694034 0.00000000 -0.29028468
vn 0.95694034 0.00000000 -0.29028468
vn 0.88192126 0.00000000 -0.47139674
vn 0.88192126 0.00000000 -0.47139674
vn 0.88192126 0.00000000 -0.47139674
vn 0.88192126 0.00000000 -0.47139674
vn 0.77301045 0.00000000 -0.63439328
vn 0.77301045 0.00000000 -0.63439328
vn 0.77301045 0.00000000 -0.63439328
vn 0.77301045 0.00000000 -0.63439328
vn 0.63439328 0.00000000 -0.77301045
vn 0.63439328 0.00000000 -0.77301045
vn 0.63439328 0.00000000 -0.77301045
vn 0.63439328 0.00000000 -0.77301045
vn 0.47139674 0.00000000 -0.88192126
vn 0.47139674 0.00000000 -0.88192126
vn 0.47139674 0.00000000 -0.88192126
vn 0.47139674 0.00000000 -0.88192126
vn 0.29028468 0.00000000 -0.95694034
vn 0.29028468 0.00000000 -0.95694034
vn 0.29028468 0.00000000 -0.95694034
vn 0.29028468 0.00000000 -0.95694034
vn 0.09801714 0.00000000 -0.99518473
vn 0.09801714 0.00000000 -0.99518473
vn 0.09801714 0.00000000 -0.99518473
vn 0.09801714 0.00000000 -0.99518473
s 1
usemtl Rock
f 1/1/1 2/2/2 4/4/4
f 2/2/2 3/3/3 4/4/4
s 2
f 5/5/5 1/6/6 6/8/8
f 1/6/6 4/7/7 6/8/8
s 3
f 7/9/9 5/10/10 8/12/12
f 5/10/10 6/11/11 8/12/12
s 4
f 9/13/13 7/14/14 10/16/16
f 7/14/14 8/15/15 10/16/16
s 5
f 11/17/17 9/18/18 12/20/20
f 9/18/18 10/19/19 12/20/20
s 6
f 13/21/21 11/22/22 14/24/24
f 11/22/22 12/23/23 14/24/24
s 7
f 15/25/25 13/26/26 16/28/28
f 13/26/26 14/27/27 16/28/28
s 8
f 17/29/29 15/30/30 16/31/31
f 17/29/29 16/31/31 18/32/32
