mtllib Materials_Modular_Terrain.mtl
o object1
g object1
v 0.51921472 0.00000000 -1.30490968
v 0.21613540 0.04894348 -1.24462345
v 0.19098301 0.04894348 -1.50000000
v 0.50000000 0.00000000 -1.50000000
v -0.05727640 0.19098301 -1.19023846
v -0.08778525 0.19098301 -1.50000000
v -0.27425724 0.41221475 -1.14707829
v -0.30901699 0.41221475 -1.50000000
v -0.41356751 0.69098301 -1.11936776
v -0.45105652 0.69098301 -1.50000000
v -0.46157056 1.00000000 -1.10981936
v -0.50000000 1.00000000 -1.50000000
v -0.30254118 0.69098301 -0.75336300
v -0.34775907 1.00000000 -0.73463314
v -0.12224421 0.69098301 -0.41605108
v -0.16293922 1.00000000 -0.38885953
v 0.12039471 0.69098301 -0.12039471
v 0.08578644 1.00000000 -0.08578644
v 0.41605108 0.69098301 0.12224421
v 0.38885953 1.00000000 0.16293922
v 0.75336300 0.69098301 0.30254118
v 0.73463314 1.00000000 0.34775907
v 1.11936776 0.69098301 0.41356751
v 1.10981936 1.00000000 0.46157056
v 1.50000000 0.69098301 0.45105652
v 1.50000000 1.00000000 0.50000000
v 1.14707829 0.41221475 0.27425724
v 1.50000000 0.41221475 0.30901699
v 1.19023846 0.19098301 0.05727640
v 1.50000000 0.19098301 0.08778525
v 1.24462345 0.04894348 -0.21613540
v 1.50000000 0.04894348 -0.19098301
v 1.30490968 0.00000000 -0.51921472
v 1.50000000 0.00000000 -0.50000000
v 0.99906088 0.04894348 -0.29062599
v 1.11731657 0.00000000 -0.57612047
v 0.77274912 0.04894348 -0.41159215
v 0.94442977 0.00000000 -0.66853039
v 0.61787378 0.19098301 -0.17980481
v 0.89238089 0.19098301 -0.03307770
v 0.49496401 0.41221475 0.00414266
v 0.80771917 0.41221475 0.17131378
v 0.22083182 0.41221475 -0.22083182
v 0.37726628 0.19098301 -0.37726628
v -0.00414266 0.41221475 -0.49496401
v 0.17980481 0.19098301 -0.61787378
v 0.41159215 0.04894348 -0.77274912
v 0.57438521 0.04894348 -0.57438521
v 0.66853039 0.00000000 -0.94442977
v 0.79289322 0.00000000 -0.79289322
v 0.29062599 0.04894348 -0.99906088
v 0.57612047 0.00000000 -1.11731657
v 0.03307770 0.19098301 -0.89238089
v -0.17131378 0.41221475 -0.80771917
vt 1.00000000 0.00000000
vt 1.00000000 1.00000000
vt 0.00000000 1.00000000
vt 0.00000000 0.00000000
vt 1.00000000 0.00000000
vt 1.00000000 1.00000000
vt 0.00000000 1.00000000
vt 0.00000000 0.00000000
vt 1.00000000 0.00000000
vt 1.00000000 1.00000000
vt 0.00000000 1.00000000
vt 0.00000000 0.00000000
vt 1.00000000 0.00000000
vt 1.00000000 1.00000000
vt 0.00000000 1.00000000
vt 0.00000000 0.00000000
vt 1.00000000 0.00000000
vt 1.00000000 1.00000000
vt 0.00000000 1.00000000
vt 0.00000000 0.00000000
vt 0.00000000 1.00000000
vt 0.00000000 0.00000000
vt 1.00000000 0.00000000
vt 1.00000000 1.00000000
vt 0.00000000 1.00000000
vt 0.00000000 0.00000000
vt 1.00000000 0.00000000
vt 1.00000000 1.00000000
vt 0.00000000 1.00000000
vt 0.00000000 0.00000000
vt 1.00000000 0.00000000
vt 1.00000000 1.00000000
vt 0.00000000 1.00000000
vt 0.00000000 0.00000000
vt 1.00000000 0.00000000
vt 1.00000000 1.00000000
vt 0.00000000 1.00000000
vt 0.00000000 0.00000000
vt 1.00000000 0.00000000
vt 1.00000000 1.00000000
vt 0.00000000 1.00000000
vt 0.00000000 0.00000000
vt 1.00000000 0.00000000
vt 1.00000000 1.00000000
vt 0.00000000 1.00000000
vt 0.00000000 0.00000000
vt 1.00000000 0.00000000
vt 1.00000000 1.00000000
vt 0.00000000 1.00000000
vt 0.00000000 0.00000000
vt 1.00000000 0.00000000
vt 1.00000000 1.00000000
vt 0.00000000 1.00000000
vt 0.00000000 0.00000000
vt 1.00000000 0.00000000
vt 1.00000000 1.00000000
vt 0.00000000 1.00000000
vt 0.00000000 0.00000000
vt 1.00000000 0.00000000
vt 1.00000000 1.00000000
vt 0.00000000 1.00000000
vt 0.00000000 0.00000000
vt 1.00000000 0.00000000
vt 1.00000000 1.00000000
vt 0.00000000 1.00000000
vt 0.00000000 0.00000000
vt 1.00000000 0.00000000
vt 1.00000000 1.00000000
vt 0.00000000 1.00000000
vt 0.00000000 0.00000000
vt 1.00000000 0.00000000
vt 1.00000000 1.00000000
vt 0.00000000 1.00000000
vt 0.00000000 0.00000000
vt 1.00000000 0.00000000
vt 1.00000000 1.00000000
vt 0.00000000 1.00000000
vt 0.00000000 0.00000000
vt 1.00000000 0.00000000
vt 1.00000000 1.00000000
vt 0.00000000 1.00000000
vt 0.00000000 0.00000000
vt 1.00000000 0.00000000
vt 1.00000000 1.00000000
vt 0.00000000 1.00000000
vt 0.00000000 0.00000000
vt 1.00000000 0.00000000
vt 1.00000000 1.00000000
vt 0.00000000 1.00000000
vt 0.00000000 0.00000000
vt 1.00000000 0.00000000
vt 1.00000000 1.00000000
vt 0.00000000 1.00000000
vt 0.00000000 0.00000000
vt 1.00000000 0.00000000
vt 1.00000000 1.00000000
vt 0.00000000 1.00000000
vt 0.00000000 0.00000000
vt 1.00000000 0.00000000
vt 1.00000000 1.00000000
vt 0.00000000 1.00000000
vt 0.00000000 0.00000000
vt 1.00000000 0.00000000
vt 1.00000000 1.00000000
vt 0.00000000 1.00000000
vt 0.00000000 0.00000000
vt 1.00000000 0.00000000
vt 1.00000000 1.00000000
vt 0.00000000 1.00000000
vt 0.00000000 0.00000000
vt 1.00000000 0.00000000
vt 1.00000000 1.00000000
vt 0.00000000 1.00000000
vt 0.00000000 0.00000000
vt 1.00000000 0.00000000
vt 1.00000000 1.00000000
vt 0.00000000 1.00000000
vt 0.00000000 0.00000000
vt 1.00000000 0.00000000
vt 1.00000000 1.00000000
vt 0.00000000 1.00000000
vt 0.00000000 0.00000000
vt 1.00000000 0.00000000
vt 1.00000000 1.00000000
vt 0.00000000 1.00000000
vt 0.00000000 0.00000000
vt 1.00000000 0.00000000
vt 1.00000000 1.00000000
vt 0.00000000 1.00000000
vt 0.00000000 0.00000000
vt 1.00000000 0.00000000
vt 1.00000000 1.00000000
vt 0.00000000 1.00000000
vt 0.00000000 0.00000000
vt 1.00000000 0.00000000
vt 1.00000000 1.00000000
vt 0.00000000 1.00000000
vt 0.00000000 0.00000000
vt 1.00000000 0.00000000
vt 1.00000000 1.00000000
vt 0.00000000 1.00000000
vt 0.00000000 0.00000000
vt 1.00000000 0.00000000
vt 1.00000000 1.00000000
vt 0.00000000 1.00000000
vt 0.00000000 0.00000000
vt 1.00000000 0.00000000
vt 1.00000000 1.00000000
vt 0.00000000 1.00000000
vt 0.00000000 0.00000000
vt 1.00000000 0.00000000
vt 1.00000000 1.00000000
vt 0.00000000 1.00000000
vt 0.00000000 0.00000000
vt 1.00000000 0.00000000
vt 1.00000000 1.00000000
vt 0.00000000 1.00000000
vt 0.00000000 0.00000000
vt 1.00000000 0.00000000
vt 1.00000000 1.00000000
vn 0.15641590 0.98757113 -0.01540562
vn 0.15641590 0.98757113 -0.01540562
vn 0.15641590 0.98757113 -0.01540562
vn 0.15641590 0.98757113 -0.01540562
vn 0.45353733 0.89011714 -0.04466953
vn 0.45353733 0.89011714 -0.04466953
vn 0.45353733 0.89011714 -0.04466953
vn 0.45353733 0.89011714 -0.04466953
vn 0.70539816 0.70539816 -0.06947565
vn 0.70539816 0.70539816 -0.06947565
vn 0.70539816 0.70539816 -0.06947565
vn 0.70539816 0.70539816 -0.06947565
vn 0.88759530 0.45225240 -0.08742051
vn 0.88759530 0.45225240 -0.08742051
vn 0.88759530 0.45225240 -0.08742051
vn 0.88759530 0.45225240 -0.08742051
vn 0.98304792 0.15569949 -0.09682177
vn 0.98304792 0.15569949 -0.09682177
vn 0.98304792 0.15569949 -0.09682177
vn 0.98304792 0.15569949 -0.09682177
vn 0.94526994 0.15569949 -0.28674450
vn 0.94526994 0.15569949 -0.28674450
vn 0.94526994 0.15569949 -0.28674450
vn 0.94526994 0.15569949 -0.28674450
vn 0.87116577 0.15569949 -0.46564780
vn 0.87116577 0.15569949 -0.46564780
vn 0.87116577 0.15569949 -0.46564780
vn 0.87116577 0.15569949 -0.46564780
vn 0.76358318 0.15569949 -0.62665652
vn 0.76358318 0.15569949 -0.62665652
vn 0.76358318 0.15569949 -0.62665652
vn 0.76358318 0.15569949 -0.62665652
vn 0.62665652 0.15569949 -0.76358318
vn 0.62665652 0.15569949 -0.76358318
vn 0.62665652 0.15569949 -0.76358318
vn 0.62665652 0.15569949 -0.76358318
vn 0.46564780 0.15569949 -0.87116577
vn 0.46564780 0.15569949 -0.87116577
vn 0.46564780 0.15569949 -0.87116577
vn 0.46564780 0.15569949 -0.87116577
vn 0.28674450 0.15569949 -0.94526994
vn 0.28674450 0.15569949 -0.94526994
vn 0.28674450 0.15569949 -0.94526994
vn 0.28674450 0.15569949 -0.94526994
vn 0.09682177 0.15569949 -0.98304792
vn 0.09682177 0.15569949 -0.98304792
vn 0.09682177 0.15569949 -0.98304792
vn 0.09682177 0.15569949 -0.98304792
vn 0.08742051 0.45225240 -0.88759530
vn 0.08742051 0.45225240 -0.88759530
vn 0.08742051 0.45225240 -0.88759530
vn 0.08742051 0.45225240 -0.88759530
vn 0.06947565 0.70539816 -0.70539816
vn 0.06947565 0.70539816 -0.70539816
vn 0.06947565 0.70539816 -0.70539816
vn 0.06947565 0.70539816 -0.70539816
vn 0.04466953 0.89011714 -0.45353733
vn 0.04466953 0.89011714 -0.45353733
vn 0.04466953 0.89011714 -0.45353733
vn 0.04466953 0.89011714 -0.45353733
vn 0.01540562 0.98757113 -0.15641590
vn 0.01540562 0.98757113 -0.15641590
vn 0.01540562 0.98757113 -0.15641590
vn 0.01540562 0.98757113 -0.15641590
vn 0.04562484 0.98757113 -0.15040493
vn 0.04562484 0.98757113 -0.15040493
vn 0.07409071 0.98757113 -0.13861397
vn 0.07409071 0.98757113 -0.13861397
vn 0.21483049 0.89011714 -0.40191957
vn 0.21483049 0.89011714 -0.40191957
vn 0.21483049 0.89011714 -0.40191957
vn 0.21483049 0.89011714 -0.40191957
vn 0.33413133 0.70539816 -0.62511574
vn 0.33413133 0.70539816 -0.62511574
vn 0.33413133 0.70539816 -0.62511574
vn 0.33413133 0.70539816 -0.62511574
vn 0.44966512 0.70539816 -0.54791853
vn 0.44966512 0.70539816 -0.54791853
vn 0.44966512 0.70539816 -0.54791853
vn 0.44966512 0.70539816 -0.54791853
vn 0.54791853 0.70539816 -0.44966512
vn 0.54791853 0.70539816 -0.44966512
vn 0.54791853 0.70539816 -0.44966512
vn 0.54791853 0.70539816 -0.44966512
vn 0.35228545 0.89011714 -0.28911320
vn 0.35228545 0.89011714 -0.28911320
vn 0.35228545 0.89011714 -0.28911320
vn 0.35228545 0.89011714 -0.28911320
vn 0.12149616 0.98757113 -0.09970932
vn 0.12149616 0.98757113 -0.09970932
vn 0.12149616 0.98757113 -0.09970932
vn 0.12149616 0.98757113 -0.09970932
vn 0.13861397 0.98757113 -0.07409071
vn 0.13861397 0.98757113 -0.07409071
vn 0.40191957 0.89011714 -0.21483049
vn 0.40191957 0.89011714 -0.21483049
vn 0.40191957 0.89011714 -0.21483049
vn 0.40191957 0.89011714 -0.21483049
vn 0.62511574 0.70539816 -0.33413133
vn 0.62511574 0.70539816 -0.33413133
vn 0.62511574 0.70539816 -0.33413133
vn 0.62511574 0.70539816 -0.33413133
vn 0.28911320 0.89011714 -0.35228545
vn 0.28911320 0.89011714 -0.35228545
vn 0.28911320 0.89011714 -0.35228545
vn 0.28911320 0.89011714 -0.35228545
vn 0.13229196 0.89011714 -0.43610815
vn 0.13229196 0.89011714 -0.43610815
vn 0.13229196 0.89011714 -0.43610815
vn 0.13229196 0.89011714 -0.43610815
vn 0.20575705 0.70539816 -0.67829011
vn 0.20575705 0.70539816 -0.67829011
vn 0.20575705 0.70539816 -0.67829011
vn 0.20575705 0.70539816 -0.67829011
vn 0.25890200 0.45225240 -0.85348551
vn 0.25890200 0.45225240 -0.85348551
vn 0.25890200 0.45225240 -0.85348551
vn 0.25890200 0.45225240 -0.85348551
vn 0.42043404 0.45225240 -0.78657676
vn 0.42043404 0.45225240 -0.78657676
vn 0.42043404 0.45225240 -0.78657676
vn 0.42043404 0.45225240 -0.78657676
vn 0.56580903 0.45225240 -0.68944029
vn 0.56580903 0.45225240 -0.68944029
vn 0.56580903 0.45225240 -0.68944029
vn 0.56580903 0.45225240 -0.68944029
vn 0.68944029 0.45225240 -0.56580903
vn 0.68944029 0.45225240 -0.56580903
vn 0.68944029 0.45225240 -0.56580903
vn 0.68944029 0.45225240 -0.56580903
vn 0.78657676 0.45225240 -0.42043404
vn 0.78657676 0.45225240 -0.42043404
vn 0.78657676 0.45225240 -0.42043404
vn 0.78657676 0.45225240 -0.42043404
vn 0.85348551 0.45225240 -0.25890200
vn 0.85348551 0.45225240 -0.25890200
vn 0.85348551 0.45225240 -0.25890200
vn 0.85348551 0.45225240 -0.25890200
vn 0.67829011 0.70539816 -0.20575705
vn 0.67829011 0.70539816 -0.20575705
vn 0.67829011 0.70539816 -0.20575705
vn 0.67829011 0.70539816 -0.20575705
vn 0.43610815 0.89011714 -0.13229196
vn 0.43610815 0.89011714 -0.13229196
vn 0.43610815 0.89011714 -0.13229196
vn 0.43610815 0.89011714 -0.13229196
s 1
usemtl Rock
f 4/4/4 3/3/3 1/1/1
f 51/160/93 1/158/1 2/157/2
f 47/100/89 52/98/94 51/97/93
f 47/100/89 49/99/90 52/98/94
f 50/95/91 49/94/90 47/93/89
f 38/115/68 50/114/91 48/113/92
f 37/116/67 38/115/68 48/113/92
f 35/72/65 36/71/66 37/69/67
f 33/67/62 36/66/66 35/65/65
f 34/63/63 33/62/62 31/61/61
f 32/64/64 34/63/63 31/61/61
f 31/68/61 33/67/62 35/65/65
f 36/71/66 38/70/68 37/69/67
f 48/96/92 50/95/91 47/93/89
f 51/160/93 52/159/94 1/158/1
f 3/3/3 2/2/2 1/1/1
s 2
f 3/8/8 6/7/7 2/5/5
f 6/7/7 5/6/6 2/5/5
s 3
f 6/12/12 8/11/11 5/9/9
f 8/11/11 7/10/10 5/9/9
s 4
f 8/16/16 10/15/15 7/13/13
f 10/15/15 9/14/14 7/13/13
s 5
f 10/20/20 12/19/19 9/17/17
f 12/19/19 11/18/18 9/17/17
s 6
f 14/24/24 13/23/23 9/22/22
f 14/24/24 9/22/22 11/21/21
s 7
f 16/28/28 15/27/27 13/26/26
f 16/28/28 13/26/26 14/25/25
s 8
f 18/32/32 17/31/31 15/30/30
f 18/32/32 15/30/30 16/29/29
s 9
f 20/36/36 19/35/35 17/34/34
f 20/36/36 17/34/34 18/33/33
s 10
f 22/40/40 21/39/39 19/38/38
f 22/40/40 19/38/38 20/37/37
s 11
f 24/44/44 23/43/43 21/42/42
f 24/44/44 21/42/42 22/41/41
s 12
f 26/48/48 25/47/47 24/45/45
f 25/47/47 23/46/46 24/45/45
s 13
f 25/52/52 28/51/51 23/49/49
f 28/51/51 27/50/50 23/49/49
s 14
f 28/56/56 30/55/55 27/53/53
f 30/55/55 29/54/54 27/53/53
s 15
f 30/60/60 32/59/59 29/57/57
f 32/59/59 31/58/58 29/57/57
s 16
f 40/76/72 35/75/71 39/73/69
f 35/75/71 37/74/70 39/73/69
s 17
f 42/80/76 40/79/75 41/77/73
f 40/79/75 39/78/74 41/77/73
s 18
f 41/84/80 39/83/79 44/82/78
f 41/84/80 44/82/78 43/81/77
s 19
f 43/88/84 44/87/83 46/86/82
f 43/88/84 46/86/82 45/85/81
s 20
f 44/92/88 48/91/87 47/90/86
f 44/92/88 47/90/86 46/89/85
s 21
f 46/104/98 47/103/97 51/102/96
f 46/104/98 51/102/96 53/101/95
s 22
f 45/108/102 46/107/101 53/106/100
f 45/108/102 53/106/100 54/105/99
s 23
f 39/112/106 37/111/105 44/109/103
f 37/111/105 48/110/104 44/109/103
s 24
f 29/120/110 31/119/109 40/117/107
f 31/119/109 35/118/108 40/117/107
s 25
f 27/124/114 29/123/113 42/121/111
f 29/123/113 40/122/112 42/121/111
s 26
f 23/128/118 27/127/117 21/125/115
f 27/127/117 42/126/116 21/125/115
s 27
f 21/132/122 42/131/121 41/130/120
f 21/132/122 41/130/120 19/129/119
s 28
f 19/136/126 41/135/125 43/134/124
f 19/136/126 43/134/124 17/133/123
s 29
f 17/140/130 43/139/129 45/138/128
f 17/140/130 45/138/128 15/137/127
s 30
f 15/144/134 45/143/133 54/142/132
f 15/144/134 54/142/132 13/141/131
s 31
f 13/148/138 54/147/137 7/146/136
f 13/148/138 7/146/136 9/145/135
s 32
f 54/152/142 53/151/141 5/150/140
f 54/152/142 5/150/140 7/149/139
s 33
f 53/156/146 51/155/145 2/154/144
f 53/156/146 2/154/144 5/153/143
