mtllib Materials_Modular_Terrain.mtl
o object1
g object1
v -0.55724838 0.42500000 1.33155948
v -0.26776695 0.07500000 0.26776695
v -1.33155948 0.42500000 0.55724838
v 0.54329142 0.07500000 0.80969883
v 0.50000000 0.00000000 0.23205081
v 1.50000000 0.00000000 0.50000000
v 1.50000000 0.07500000 1.00000000
v 0.41844052 0.42500000 1.82869781
v 1.50000000 0.42500000 2.00000000
v 0.46472382 0.50000000 2.36370331
v -0.50000000 0.50000000 1.96410162
v 1.50000000 0.50000000 2.50000000
v -1.50000000 0.50000000 2.50000000
v -1.50000000 0.50000000 1.50000000
v -2.50000000 0.50000000 1.50000000
v -2.50000000 0.50000000 -1.50000000
v -2.36370331 0.50000000 -0.46472382
v -1.96410162 0.50000000 0.50000000
v -1.32842712 0.50000000 1.32842712
v -2.00000000 0.42500000 -1.50000000
v -1.82869781 0.42500000 -0.41844052
v -1.00000000 0.07500000 -1.50000000
v -0.80969883 0.07500000 -0.54329142
v -0.50000000 0.00000000 -1.50000000
v -0.23205081 0.00000000 -0.50000000
vt 0.00000000 0.45695814
vt 1.00000000 0.00000000
vt 0.72787792 1.00000000
vt 1.00000000 0.40405513
vt 0.49056619 1.00000000
vt 0.00000000 0.00000000
vt 0.00000000 1.00000000
vt 0.93816971 0.00000000
vt 1.00000000 0.98040442
vt 0.53613761 0.00000000
vt 1.00000000 1.00000000
vt 0.00000000 0.96735937
vt 0.38060234 1.00000000
vt 0.00000000 0.00926937
vt 1.00000000 0.00000000
vt 1.00000000 0.18573394
vt 0.81324695 1.00000000
vt 0.00000000 0.00000000
vt 0.17130219 0.00000000
vt 1.00000000 1.00000000
vt 0.00000000 0.93304820
vt 1.00000000 0.00000000
vt 0.67981228 1.00000000
vt 0.00000000 0.03654890
vt 0.74691137 0.00000000
vt 1.00000000 0.97075240
vt 0.00000000 1.00000000
vt 0.13397460 0.50000000
vt 0.03407417 0.74118095
vt 0.00000000 1.00000000
vt 0.00000000 0.25000000
vt 0.25000000 0.25000000
vt 0.25000000 0.00000000
vt 1.00000000 0.00000000
vt 0.74118095 0.03407417
vt 0.50000000 0.13397460
vt 0.29289322 0.29289322
vt 0.00000000 0.25008568
vt 1.00000000 0.00000000
vt 1.00000000 1.00000000
vt 0.00000000 0.00000000
vt 1.00000000 0.29655252
vt 0.04279312 1.00000000
vt 0.00000000 0.88503209
vt 1.00000000 0.00000000
vt 1.00000000 1.00000000
vt 0.11543600 0.00000000
vt 1.00000000 0.12785426
vt 0.00000000 1.00000000
vt 0.00000000 0.34917646
vt 1.00000000 0.00000000
vt 1.00000000 1.00000000
vt 1.00000000 0.56600200
vt 0.00000000 1.00000000
vt 0.04329142 0.00000000
vt 1.00000000 1.00000000
vt 0.00000000 0.12401235
vt 0.94662355 0.00000000
vt 0.00000000 0.66218004
vt 1.00000000 0.00000000
vt 0.88655485 1.00000000
vt 1.00000000 0.25781698
vt 0.00000000 1.00000000
vt 0.05867483 0.00000000
vt 0.00000000 0.30939335
vt 0.95202430 0.00000000
vt 1.00000000 1.00000000
vt 0.00000000 0.05231774
vt 0.93089509 0.00000000
vt 1.00000000 1.00000000
vt 1.00000000 0.00000000
vt 0.99507239 0.96630119
vt 0.00000000 1.00000000
vt 0.21406291 0.00000000
vt 1.00000000 1.00000000
vt 0.00000000 0.96079900
vt 0.27259339 1.00000000
vt 0.00000000 0.00568993
vt 1.00000000 0.00000000
vt 1.00000000 0.91992759
vt 0.00000000 1.00000000
vt 0.04651951 0.00000000
vt 0.48786931 0.00000000
vt 1.00000000 1.00000000
vt 0.00000000 0.73296400
vt 1.00000000 0.03268408
vt 0.00000000 1.00000000
vt 0.00404535 0.00000000
vt 0.26303586 0.00000000
vt 1.00000000 0.37283537
vt 0.00000000 1.00000000
vn 0.24289452 0.93915095 -0.24289452
vn 0.24289452 0.93915095 -0.24289452
vn 0.24289452 0.93915095 -0.24289452
vn 0.17639137 0.94825958 -0.26398834
vn 0.17639137 0.94825958 -0.26398834
vn 0.17639137 0.94825958 -0.26398834
vn 0.09011805 0.98675655 -0.13487120
vn 0.09011805 0.98675655 -0.13487120
vn 0.09011805 0.98675655 -0.13487120
vn 0.03517325 0.99072270 -0.13126835
vn 0.03517325 0.99072270 -0.13126835
vn 0.03517325 0.99072270 -0.13126835
vn 0.02949391 0.98850613 -0.14827592
vn 0.06310970 0.94623170 -0.31727391
vn 0.06310970 0.94623170 -0.31727391
vn 0.06310970 0.94623170 -0.31727391
vn 0.05225089 0.94256904 -0.32989916
vn 0.02228212 0.98980381 -0.14068374
vn 0.02228212 0.98980381 -0.14068374
vn 0.02228212 0.98980381 -0.14068374
vn 0.05949258 0.98784194 -0.14362779
vn -0.00000000 1.00000000 0.00000000
vn -0.00000000 1.00000000 0.00000000
vn -0.00000000 1.00000000 0.00000000
vn -0.00000000 1.00000000 0.00000000
vn -0.00000000 1.00000000 0.00000000
vn -0.00000000 1.00000000 0.00000000
vn -0.00000000 1.00000000 0.00000000
vn -0.00000000 1.00000000 0.00000000
vn -0.00000000 1.00000000 0.00000000
vn -0.00000000 1.00000000 0.00000000
vn 0.14831217 0.98874782 -0.01952567
vn 0.14831217 0.98874782 -0.01952567
vn 0.14831217 0.98874782 -0.01952567
vn 0.14068374 0.98980381 -0.02228212
vn 0.32989916 0.94256904 -0.05225089
vn 0.32989916 0.94256904 -0.05225089
vn 0.32989916 0.94256904 -0.05225089
vn 0.31727391 0.94623170 -0.06310970
vn 0.14827592 0.98850613 -0.02949391
vn 0.14827592 0.98850613 -0.02949391
vn 0.14827592 0.98850613 -0.02949391
vn 0.13126835 0.99072270 -0.03517325
vn 0.13487120 0.98675655 -0.09011805
vn 0.13487120 0.98675655 -0.09011805
vn 0.13487120 0.98675655 -0.09011805
vn 0.30390517 0.94003400 -0.15484742
vn 0.30390517 0.94003400 -0.15484742
vn 0.30390517 0.94003400 -0.15484742
vn 0.12310909 0.99040873 -0.06272721
vn 0.12310909 0.99040873 -0.06272721
vn 0.12580577 0.98734698 -0.09653416
vn 0.09653416 0.98734698 -0.12580577
vn 0.01952567 0.98874782 -0.14831217
vn 0.15484742 0.94003400 -0.30390517
vn 0.26398834 0.94825958 -0.17639137
s 1
usemtl Rock
f 1/1/1 2/2/2 3/3/3
s 2
f 1/6/6 4/5/5 2/4/4
f 8/85/55 4/84/5 1/83/6
s 3
f 5/9/9 2/8/8 4/7/7
f 25/80/46 2/81/8 5/82/9
f 23/56/44 2/57/45 25/58/46
s 4
f 6/10/10 5/11/11 4/12/12
f 4/13/12 7/14/13 6/15/10
s 5
f 8/18/16 7/17/15 4/16/14
f 9/21/17 7/20/15 8/19/16
s 6
f 10/24/20 9/23/19 8/22/18
f 8/74/18 1/75/53 11/76/21
f 19/88/52 1/87/53 3/86/50
f 18/64/51 3/63/50 21/62/35
f 21/41/35 20/42/34 17/43/32
f 20/40/34 16/39/33 17/38/32
f 18/65/51 21/66/35 17/67/32
f 19/68/52 3/69/50 18/70/51
f 11/73/21 1/72/53 19/71/52
f 10/77/20 12/78/54 9/79/19
f 10/27/20 8/26/18 11/25/21
s 7
f 17/35/29 16/34/28 15/33/27
f 18/36/30 15/33/27 14/32/26
f 11/28/22 14/32/26 13/31/25
f 13/31/25 12/30/24 10/29/23
f 10/29/23 11/28/22 13/31/25
f 11/28/22 19/37/31 14/32/26
f 19/37/31 18/36/30 14/32/26
f 18/36/30 17/35/29 15/33/27
s 8
f 21/44/36 22/45/37 20/46/38
f 23/47/39 22/48/37 21/49/36
s 9
f 24/52/42 22/51/41 23/50/40
f 23/55/40 25/54/43 24/53/42
s 10
f 3/59/47 23/60/48 21/61/49
f 2/89/56 23/90/48 3/91/47
