mtllib Materials_Modular_Terrain.mtl
o object1
g object1
v 0.79903811 0.07500000 -0.25000000
v 1.23205081 0.00000000 -0.50000000
v 1.50000000 0.00000000 0.50000000
v 1.00000000 0.07500000 0.50000000
v -0.06698730 0.42500000 0.25000000
v -0.00000000 0.42500000 0.50000000
v -0.50000000 0.50000000 0.50000000
v -0.25000000 0.42500000 0.06698730
v -0.50000000 0.42500000 0.00000000
v -0.50000000 0.07500000 -1.00000000
v 0.25000000 0.07500000 -0.79903811
v -0.50000000 0.00000000 -1.50000000
v 0.50000000 0.00000000 -1.23205081
vt 0.71330554 1.00000000
vt 0.00000000 0.98808594
vt 0.38225928 0.00000000
vt 1.00000000 0.25893554
vt 0.93721828 1.00000000
vt 0.00000000 0.85102027
vt 0.18834516 0.00000000
vt 1.00000000 0.71632658
vt 0.00000000 0.95398833
vt 0.13397460 0.00000000
vt 1.00000000 1.00000000
vt 0.00000000 0.95398833
vt 0.13397460 0.00000000
vt 1.00000000 1.00000000
vt 0.00000000 0.95398833
vt 0.13397460 0.00000000
vt 1.00000000 1.00000000
vt 0.93721828 1.00000000
vt 0.00000000 0.85102027
vt 0.18834516 0.00000000
vt 1.00000000 0.71632658
vt 0.71330554 1.00000000
vt 0.00000000 0.98808594
vt 0.38225928 0.00000000
vt 1.00000000 0.25893554
vt 0.93721828 1.00000000
vt 0.00000000 0.85102027
vt 0.18834516 0.00000000
vt 1.00000000 0.71632658
vt 0.71330554 1.00000000
vt 0.00000000 0.98808594
vt 0.38225928 0.00000000
vt 1.00000000 0.25893554
vn 0.14822341 0.98815608 -0.03971634
vn 0.14822341 0.98815608 -0.03971634
vn 0.14822341 0.98815608 -0.03971634
vn 0.14822341 0.98815608 -0.03971634
vn 0.32906379 0.94018225 -0.08817238
vn 0.32906379 0.94018225 -0.08817238
vn 0.32906379 0.94018225 -0.08817238
vn 0.32906379 0.94018225 -0.08817238
vn 0.14822341 0.98815608 -0.03971634
vn 0.14822341 0.98815608 -0.03971634
vn 0.14822341 0.98815608 -0.03971634
vn 0.10850707 0.98815608 -0.10850707
vn 0.10850707 0.98815608 -0.10850707
vn 0.10850707 0.98815608 -0.10850707
vn 0.03971634 0.98815608 -0.14822341
vn 0.03971634 0.98815608 -0.14822341
vn 0.03971634 0.98815608 -0.14822341
vn 0.08817238 0.94018225 -0.32906379
vn 0.08817238 0.94018225 -0.32906379
vn 0.08817238 0.94018225 -0.32906379
vn 0.08817238 0.94018225 -0.32906379
vn 0.03971634 0.98815608 -0.14822341
vn 0.03971634 0.98815608 -0.14822341
vn 0.03971634 0.98815608 -0.14822341
vn 0.03971634 0.98815608 -0.14822341
vn 0.24089141 0.94018225 -0.24089141
vn 0.24089141 0.94018225 -0.24089141
vn 0.24089141 0.94018225 -0.24089141
vn 0.24089141 0.94018225 -0.24089141
vn 0.10850707 0.98815608 -0.10850707
vn 0.10850707 0.98815608 -0.10850707
vn 0.10850707 0.98815608 -0.10850707
vn 0.10850707 0.98815608 -0.10850707
s 1
usemtl Rock
f 2/2/2 1/1/1 4/4/4
f 4/4/4 3/3/3 2/2/2
s 2
f 1/6/6 5/5/5 6/8/8
f 6/8/8 4/7/7 1/6/6
s 3
f 7/11/11 6/10/10 5/9/9
s 4
f 7/14/14 5/13/13 8/12/12
s 5
f 7/17/17 8/16/16 9/15/15
s 6
f 9/18/18 8/21/21 11/20/20
f 11/20/20 10/19/19 9/18/18
s 7
f 10/22/22 11/25/25 13/24/24
f 13/24/24 12/23/23 10/22/22
s 8
f 11/27/27 8/26/26 5/29/29
f 5/29/29 1/28/28 11/27/27
s 9
f 11/30/30 1/33/33 2/32/32
f 2/32/32 13/31/31 11/30/30
