mtllib Materials_Modular_Terrain.mtl
o object1
g object1
v -0.50000000 0.10000000 1.50000000
v -0.50000000 0.40000000 1.50000000
v -0.50000000 0.40000000 0.41001168
v -0.50000000 0.37225287 0.37850862
v -0.50000000 0.40000000 0.28161624
v -0.50000000 0.40000000 -0.50000000
v -0.50000000 0.10000000 -0.50000000
v -0.50000000 0.10000000 0.84055426
v -0.50000000 0.12272607 0.99814304
v -0.50000000 0.10000000 1.20659847
v -0.40000000 0.10000000 1.20659847
v -0.40000000 0.10000000 1.50000000
v -0.40000000 0.40000000 1.50000000
v -0.40000000 0.40000000 0.41001168
v -0.40000000 0.37225287 0.37850862
v -0.40000000 0.40000000 0.28161624
v -0.40000000 0.40000000 -0.50000000
v -0.40000000 0.10000000 -0.50000000
v -0.40000000 0.10000000 0.84055426
v -0.40000000 0.12272607 0.99814304
vt 0.00000000 0.00000000
vt 1.00000000 0.00000000
vt 1.00000000 0.54499416
vt 0.90750956 0.56074569
vt 1.00000000 0.60919188
vt 1.00000000 1.00000000
vt 0.00000000 1.00000000
vt 0.00000000 0.32972287
vt 0.07575356 0.25092848
vt 0.00000000 0.14670076
vt 1.00000000 0.00000000
vt 1.00000000 1.00000000
vt 0.00000000 1.00000000
vt 0.00000000 0.00000000
vt 0.00000000 0.00000000
vt 1.00000000 0.00000000
vt 1.00000000 0.54499416
vt 0.90750956 0.56074569
vt 1.00000000 0.60919188
vt 1.00000000 1.00000000
vt 0.00000000 1.00000000
vt 0.00000000 0.32972287
vt 0.07575356 0.25092848
vt 0.00000000 0.14670076
vt 1.00000000 0.00000000
vt 1.00000000 1.00000000
vt 0.00000000 1.00000000
vt 0.00000000 0.00000000
vt 1.00000000 0.00000000
vt 1.00000000 1.00000000
vt 0.00000000 1.00000000
vt 0.00000000 0.00000000
vt 0.00000000 1.00000000
vt 0.00000000 0.00000000
vt 1.00000000 0.00000000
vt 1.00000000 1.00000000
vt 0.00000000 1.00000000
vt 0.00000000 0.00000000
vt 1.00000000 0.00000000
vt 1.00000000 1.00000000
vt 1.00000000 0.00000000
vt 1.00000000 1.00000000
vt 0.00000000 1.00000000
vt 0.00000000 0.00000000
vt 1.00000000 0.00000000
vt 1.00000000 1.00000000
vt 0.00000000 1.00000000
vt 0.00000000 0.00000000
vt 1.00000000 0.00000000
vt 1.00000000 1.00000000
vt 0.00000000 1.00000000
vt 0.00000000 0.00000000
vn -1.00000000 0.00000000 0.00000000
vn -1.00000000 0.00000000 0.00000000
vn -1.00000000 0.00000000 0.00000000
vn -1.00000000 0.00000000 0.00000000
vn -1.00000000 0.00000000 0.00000000
vn -1.00000000 0.00000000 0.00000000
vn -1.00000000 0.00000000 0.00000000
vn -1.00000000 0.00000000 0.00000000
vn -1.00000000 0.00000000 0.00000000
vn -1.00000000 0.00000000 0.00000000
vn 0.00000000 -1.00000000 0.00000000
vn 0.00000000 -1.00000000 0.00000000
vn 0.00000000 -1.00000000 0.00000000
vn 0.00000000 -1.00000000 0.00000000
vn 1.00000000 0.00000000 0.00000000
vn 1.00000000 0.00000000 0.00000000
vn 1.00000000 0.00000000 0.00000000
vn 1.00000000 0.00000000 0.00000000
vn 1.00000000 0.00000000 0.00000000
vn 1.00000000 0.00000000 0.00000000
vn 1.00000000 0.00000000 0.00000000
vn 1.00000000 0.00000000 0.00000000
vn 1.00000000 0.00000000 0.00000000
vn 1.00000000 0.00000000 0.00000000
vn -0.00000000 -0.99410964 -0.10837906
vn 0.00000000 -0.99410964 -0.10837906
vn 0.00000000 -0.99410964 -0.10837906
vn -0.00000000 -0.99410964 -0.10837906
vn 0.00000000 -0.98976099 0.14273463
vn -0.00000000 -0.98976099 0.14273463
vn -0.00000000 -0.98976099 0.14273463
vn 0.00000000 -0.98976099 0.14273463
vn 0.00000000 -1.00000000 0.00000000
vn 0.00000000 -1.00000000 0.00000000
vn 0.00000000 -1.00000000 0.00000000
vn 0.00000000 -1.00000000 0.00000000
vn 0.00000000 1.00000000 0.00000000
vn 0.00000000 1.00000000 0.00000000
vn 0.00000000 1.00000000 0.00000000
vn 0.00000000 1.00000000 0.00000000
vn 0.00000000 0.96135710 0.27530444
vn 0.00000000 0.96135710 0.27530444
vn 0.00000000 0.96135710 0.27530444
vn 0.00000000 0.96135710 0.27530444
vn 0.00000000 0.75042466 -0.66095600
vn 0.00000000 0.75042466 -0.66095600
vn 0.00000000 0.75042466 -0.66095600
vn 0.00000000 0.75042466 -0.66095600
vn 0.00000000 1.00000000 0.00000000
vn 0.00000000 1.00000000 0.00000000
vn 0.00000000 1.00000000 0.00000000
vn 0.00000000 1.00000000 0.00000000
s 1
usemtl Wood_Dark
f 10/10/10 1/1/1 2/2/2
f 9/9/9 2/2/2 3/3/3
f 3/3/3 4/4/4 8/8/8
f 5/5/5 7/7/7 8/8/8
f 5/5/5 6/6/6 7/7/7
f 4/4/4 5/5/5 8/8/8
f 3/3/3 8/8/8 9/9/9
f 9/9/9 10/10/10 2/2/2
s 2
f 10/11/11 11/12/12 12/13/13
f 10/11/11 12/13/13 1/14/14
s 3
f 13/16/16 12/15/15 11/24/24
f 14/17/17 13/16/16 20/23/23
f 20/23/23 19/22/22 14/17/17
f 19/22/22 16/19/19 15/18/18
f 18/21/21 17/20/20 16/19/19
f 19/22/22 18/21/21 16/19/19
f 19/22/22 15/18/18 14/17/17
f 13/16/16 11/24/24 20/23/23
s 4
usemtl Wood_Light
f 10/25/25 9/26/26 20/27/27
f 10/25/25 20/27/27 11/28/28
s 5
f 9/29/29 8/30/30 19/31/31
f 9/29/29 19/31/31 20/32/32
s 6
usemtl Wood_Dark
f 19/33/33 8/34/34 18/36/36
f 8/34/34 7/35/35 18/36/36
s 7
f 17/40/40 6/39/39 16/37/37
f 6/39/39 5/38/38 16/37/37
s 8
usemtl Wood_Light
f 5/41/41 4/42/42 15/43/43
f 5/41/41 15/43/43 16/44/44
s 9
f 4/45/45 3/46/46 14/47/47
f 4/45/45 14/47/47 15/48/48
s 10
usemtl Wood_Dark
f 2/52/52 13/51/51 14/50/50
f 2/52/52 14/50/50 3/49/49
o object2
g object2
v -0.50000000 0.59254965 -0.09227860
v -0.50000000 0.63301658 -0.04395616
v -0.40000000 0.63301658 -0.04395616
v -0.40000000 0.59254965 -0.09227860
v -0.50000000 0.58755076 -0.49218999
v -0.40000000 0.58755076 -0.49218999
v -0.40000000 0.88745705 -0.50718530
v -0.40000000 0.59382696 0.00990606
v -0.40000000 0.61254295 1.50718530
v -0.40000000 0.91244924 1.49218999
v -0.40000000 0.90866397 1.18936812
v -0.40000000 0.85657834 1.00666015
v -0.40000000 0.90358147 0.78276783
v -0.50000000 0.90358147 0.78276783
v -0.50000000 0.88745705 -0.50718530
v -0.50000000 0.85657834 1.00666015
v -0.50000000 0.90866397 1.18936812
v -0.50000000 0.91244924 1.49218999
v -0.50000000 0.59382696 0.00990606
v -0.50000000 0.61254295 1.50718530
vt 1.00000000 0.00000000
vt 1.00000000 1.00000000
vt 0.00000000 1.00000000
vt 0.00000000 0.00000000
vt 0.00000000 1.00000000
vt 0.00000000 0.00000000
vt 1.00000000 0.00000000
vt 1.00000000 1.00000000
vt 1.00000000 1.00000000
vt 0.00000000 1.00000000
vt 0.00000000 0.79998183
vt 0.13283482 0.77481680
vt 0.00000000 0.74887354
vt 0.00000000 0.00000000
vt 1.00000000 0.00000000
vt 1.00000000 0.15145824
vt 0.83404591 0.24408543
vt 1.00000000 0.35482191
vt 0.00000000 1.00000000
vt 0.00000000 0.00000000
vt 1.00000000 0.00000000
vt 1.00000000 1.00000000
vt 0.00000000 1.00000000
vt 0.00000000 0.00000000
vt 1.00000000 0.00000000
vt 1.00000000 1.00000000
vt 0.00000000 1.00000000
vt 0.00000000 0.00000000
vt 1.00000000 0.00000000
vt 1.00000000 1.00000000
vt 1.00000000 0.00000000
vt 1.00000000 1.00000000
vt 0.00000000 1.00000000
vt 0.00000000 0.00000000
vt 1.00000000 0.00000000
vt 1.00000000 1.00000000
vt 0.00000000 1.00000000
vt 0.00000000 0.00000000
vt 1.00000000 0.00000000
vt 1.00000000 1.00000000
vt 0.00000000 1.00000000
vt 0.00000000 0.00000000
vt 1.00000000 1.00000000
vt 0.00000000 1.00000000
vt 0.00000000 0.79998183
vt 0.13283482 0.77481680
vt 0.00000000 0.74887354
vt 0.00000000 0.00000000
vt 1.00000000 0.00000000
vt 1.00000000 0.15145824
vt 0.83404591 0.24408543
vt 1.00000000 0.35482191
vn 0.00000000 -0.76667230 0.64203862
vn 0.00000000 -0.76667230 0.64203862
vn 0.00000000 -0.76667230 0.64203862
vn 0.00000000 -0.76667230 0.64203862
vn 0.00000000 -0.99992188 0.01249902
vn 0.00000000 -0.99992188 0.01249902
vn 0.00000000 -0.99992188 0.01249902
vn 0.00000000 -0.99992188 0.01249902
vn 1.00000000 0.00000000 0.00000000
vn 1.00000000 0.00000000 0.00000000
vn 1.00000000 0.00000000 0.00000000
vn 1.00000000 0.00000000 0.00000000
vn 1.00000000 0.00000000 0.00000000
vn 1.00000000 0.00000000 0.00000000
vn 1.00000000 0.00000000 0.00000000
vn 1.00000000 0.00000000 0.00000000
vn 1.00000000 0.00000000 0.00000000
vn 1.00000000 0.00000000 0.00000000
vn 0.00000000 0.99992188 -0.01249902
vn 0.00000000 0.99992188 -0.01249902
vn 0.00000000 0.99992188 -0.01249902
vn 0.00000000 0.99992188 -0.01249902
vn 0.00000000 0.97866603 0.20545754
vn 0.00000000 0.97866603 0.20545754
vn 0.00000000 0.97866603 0.20545754
vn 0.00000000 0.97866603 0.20545754
vn 0.00000000 0.96168596 -0.27415346
vn 0.00000000 0.96168596 -0.27415346
vn 0.00000000 0.96168596 -0.27415346
vn 0.00000000 0.96168596 -0.27415346
vn 0.00000000 0.99992188 -0.01249902
vn 0.00000000 0.99992188 -0.01249902
vn 0.00000000 0.99992188 -0.01249902
vn 0.00000000 0.99992188 -0.01249902
vn 0.00000000 -0.99992188 0.01249902
vn 0.00000000 -0.99992188 0.01249902
vn 0.00000000 -0.99992188 0.01249902
vn 0.00000000 -0.99992188 0.01249902
vn -0.00000000 -0.80861395 -0.58833959
vn -0.00000000 -0.80861395 -0.58833959
vn -0.00000000 -0.80861395 -0.58833959
vn -0.00000000 -0.80861395 -0.58833959
vn -1.00000000 0.00000000 0.00000000
vn -1.00000000 0.00000000 0.00000000
vn -1.00000000 0.00000000 0.00000000
vn -1.00000000 0.00000000 0.00000000
vn -1.00000000 0.00000000 0.00000000
vn -1.00000000 0.00000000 0.00000000
vn -1.00000000 0.00000000 0.00000000
vn -1.00000000 0.00000000 0.00000000
vn -1.00000000 0.00000000 0.00000000
vn -1.00000000 0.00000000 0.00000000
s 1
usemtl Wood_Light
f 24/56/56 23/55/55 21/53/53
f 23/55/55 22/54/54 21/53/53
s 2
usemtl Wood_Dark
f 24/57/57 21/58/58 26/60/60
f 21/58/58 25/59/59 26/60/60
s 3
f 31/68/68 30/67/67 29/66/66
f 32/69/69 29/66/66 28/65/65
f 28/65/65 23/64/64 33/70/70
f 23/64/64 27/61/61 33/70/70
f 24/63/63 26/62/62 27/61/61
f 23/64/64 24/63/63 27/61/61
f 33/70/70 32/69/69 28/65/65
f 32/69/69 31/68/68 29/66/66
s 4
f 27/74/74 35/73/73 33/71/71
f 35/73/73 34/72/72 33/71/71
s 5
usemtl Wood_Light
f 32/75/75 33/76/76 36/78/78
f 33/76/76 34/77/77 36/78/78
s 6
f 31/79/79 32/80/80 37/82/82
f 32/80/80 36/81/81 37/82/82
s 7
usemtl Wood_Dark
f 38/86/86 30/85/85 31/84/84
f 38/86/86 31/84/84 37/83/83
s 8
f 39/87/87 28/88/88 29/89/89
f 39/87/87 29/89/89 40/90/90
s 9
usemtl Wood_Light
f 23/94/94 28/93/93 22/91/91
f 28/93/93 39/92/92 22/91/91
s 10
usemtl Wood_Dark
f 40/100/100 38/101/101 37/102/102
f 39/99/99 40/100/100 36/103/103
f 39/99/99 36/103/103 34/104/104
f 34/104/104 35/95/95 22/98/98
f 35/95/95 21/97/97 22/98/98
f 35/95/95 25/96/96 21/97/97
f 34/104/104 22/98/98 39/99/99
f 40/100/100 37/102/102 36/103/103
