mtllib Materials_Modular_Terrain.mtl
o object1
g object1
v 0.50000000 0.00000000 -0.50000000
v 0.50000000 0.07500000 0.00000000
v -0.00000000 0.07500000 -0.15000000
v -0.00000000 0.00000000 -0.65000000
v -1.00000000 0.07500000 -0.85000000
v -1.00000000 0.00000000 -1.35000000
v -1.00000000 0.42500000 0.15000000
v -0.00000000 0.42500000 0.85000000
v -1.00000000 0.50000000 0.65000000
v -0.00000000 0.50000000 1.35000000
v 0.50000000 0.42500000 1.00000000
v 0.50000000 0.50000000 1.50000000
v -1.50000000 0.50000000 0.50000000
v -1.50000000 0.50000000 1.50000000
v -1.50000000 0.42500000 0.00000000
v -1.50000000 0.07500000 -1.00000000
v -1.50000000 0.00000000 -1.50000000
vt 0.00000000 1.00000000
vt 0.00000000 0.00000000
vt 1.00000000 0.00000000
vt 1.00000000 1.00000000
vt 1.00000000 0.00000000
vt 1.00000000 1.00000000
vt 0.00000000 1.00000000
vt 0.00000000 0.00000000
vt 1.00000000 0.00000000
vt 1.00000000 1.00000000
vt 0.00000000 1.00000000
vt 0.00000000 0.00000000
vt 1.00000000 0.00000000
vt 1.00000000 1.00000000
vt 0.00000000 1.00000000
vt 0.00000000 0.00000000
vt 0.00000000 1.00000000
vt 0.00000000 0.00000000
vt 1.00000000 0.00000000
vt 1.00000000 1.00000000
vt 1.00000000 0.00000000
vt 0.85000000 0.25000000
vt 0.15000000 0.75000000
vt 0.00000000 1.00000000
vt 0.00000000 0.00000000
vt 1.00000000 0.00000000
vt 1.00000000 1.00000000
vt 0.00000000 1.00000000
vt 0.00000000 0.00000000
vt 1.00000000 0.00000000
vt 1.00000000 1.00000000
vt 0.00000000 1.00000000
vt 0.00000000 0.00000000
vt 1.00000000 0.00000000
vt 1.00000000 1.00000000
vt 0.00000000 1.00000000
vt 0.00000000 0.00000000
vt 0.00000000 1.00000000
vt 0.00000000 0.00000000
vt 1.00000000 0.00000000
vt 1.00000000 1.00000000
vn 0.04445813 0.98795854 -0.14819378
vn 0.04445813 0.98795854 -0.14819378
vn 0.04445813 0.98795854 -0.14819378
vn 0.04445813 0.98795854 -0.14819378
vn 0.10328299 0.98364753 -0.14754713
vn 0.10328299 0.98364753 -0.14754713
vn 0.10328299 0.98364753 -0.14754713
vn 0.10328299 0.98364753 -0.14754713
vn 0.22529986 0.91959126 -0.32185694
vn 0.22529986 0.91959126 -0.32185694
vn 0.22529986 0.91959126 -0.32185694
vn 0.22529986 0.91959126 -0.32185694
vn 0.10328299 0.98364753 -0.14754713
vn 0.10328299 0.98364753 -0.14754713
vn 0.10328299 0.98364753 -0.14754713
vn 0.10328299 0.98364753 -0.14754713
vn 0.04445813 0.98795854 -0.14819378
vn 0.04445813 0.98795854 -0.14819378
vn 0.04445813 0.98795854 -0.14819378
vn 0.04445813 0.98795854 -0.14819378
vn -0.00000000 1.00000000 0.00000000
vn -0.00000000 1.00000000 0.00000000
vn -0.00000000 1.00000000 0.00000000
vn -0.00000000 1.00000000 0.00000000
vn -0.00000000 1.00000000 0.00000000
vn 0.04445813 0.98795854 -0.14819378
vn 0.04445813 0.98795854 -0.14819378
vn 0.04445813 0.98795854 -0.14819378
vn 0.04445813 0.98795854 -0.14819378
vn 0.09862199 0.93925702 -0.32873996
vn 0.09862199 0.93925702 -0.32873996
vn 0.09862199 0.93925702 -0.32873996
vn 0.09862199 0.93925702 -0.32873996
vn 0.04445813 0.98795854 -0.14819378
vn 0.04445813 0.98795854 -0.14819378
vn 0.04445813 0.98795854 -0.14819378
vn 0.04445813 0.98795854 -0.14819378
vn 0.09862199 0.93925702 -0.32873996
vn 0.09862199 0.93925702 -0.32873996
vn 0.09862199 0.93925702 -0.32873996
vn 0.09862199 0.93925702 -0.32873996
s 1
usemtl Rock
f 4/4/4 3/3/3 1/1/1
f 3/3/3 2/2/2 1/1/1
s 2
f 3/8/8 4/7/7 5/5/5
f 4/7/7 6/6/6 5/5/5
s 3
f 8/12/12 3/11/11 7/9/9
f 3/11/11 5/10/10 7/9/9
s 4
f 10/16/16 8/15/15 9/13/13
f 8/15/15 7/14/14 9/13/13
s 5
f 8/20/20 10/19/19 11/17/17
f 10/19/19 12/18/18 11/17/17
s 6
f 9/22/22 13/21/21 14/25/25
f 14/25/25 12/24/24 10/23/23
f 10/23/23 9/22/22 14/25/25
s 7
f 9/29/29 7/28/28 13/26/26
f 7/28/28 15/27/27 13/26/26
s 8
f 7/33/33 5/32/32 15/30/30
f 5/32/32 16/31/31 15/30/30
s 9
f 5/37/37 6/36/36 16/34/34
f 6/36/36 17/35/35 16/34/34
s 10
f 3/41/41 8/40/40 2/38/38
f 8/40/40 11/39/39 2/38/38
