mtllib Materials_Modular_Terrain.mtl
o object1
g object1
v 0.10000000 0.50000000 0.38896417
v 0.12681781 0.50000000 0.54733666
v 0.12681781 0.40000000 0.54733666
v 0.10000000 0.40000000 0.38896417
v 0.10000000 0.50000000 0.08805262
v 0.10000000 0.40000000 0.08805262
v 0.13032728 0.40000000 -0.06366028
v 0.13032728 0.50000000 -0.06366028
v 0.10000000 0.40000000 -0.18041965
v 0.10000000 0.50000000 -0.18041965
v 0.10000000 0.50000000 -0.50000000
v 0.10000000 0.40000000 -0.50000000
v 0.10000000 0.40000000 0.68012994
v 0.10000000 0.40000000 1.50000000
v 0.40000000 0.40000000 1.50000000
v 0.40000000 0.40000000 -0.50000000
v 0.40000000 0.50000000 1.50000000
v 0.40000000 0.50000000 -0.50000000
v 0.10000000 0.50000000 0.68012994
v 0.10000000 0.50000000 1.50000000
vt 1.00000000 0.00000000
vt 1.00000000 1.00000000
vt 0.00000000 1.00000000
vt 0.00000000 0.00000000
vt 1.00000000 0.00000000
vt 1.00000000 1.00000000
vt 0.00000000 1.00000000
vt 0.00000000 0.00000000
vt 0.00000000 1.00000000
vt 0.00000000 0.00000000
vt 1.00000000 0.00000000
vt 1.00000000 1.00000000
vt 0.00000000 1.00000000
vt 0.00000000 0.00000000
vt 1.00000000 0.00000000
vt 1.00000000 1.00000000
vt 0.00000000 1.00000000
vt 0.00000000 0.00000000
vt 1.00000000 0.00000000
vt 1.00000000 1.00000000
vt 0.00000000 0.70597369
vt 0.00000000 0.55551792
vt 0.08939271 0.47633167
vt 0.00000000 0.40993503
vt 0.00000000 0.00000000
vt 1.00000000 0.00000000
vt 1.00000000 1.00000000
vt 0.00000000 1.00000000
vt 0.00000000 0.84020983
vt 0.10109094 0.78183014
vt 0.00000000 1.00000000
vt 0.00000000 0.00000000
vt 1.00000000 0.00000000
vt 1.00000000 1.00000000
vt 1.00000000 0.00000000
vt 1.00000000 1.00000000
vt 0.00000000 1.00000000
vt 0.00000000 0.00000000
vt 1.00000000 0.00000000
vt 1.00000000 1.00000000
vt 0.00000000 1.00000000
vt 0.00000000 0.00000000
vt 0.00000000 0.70597369
vt 0.00000000 0.55551792
vt 0.08939271 0.47633167
vt 0.00000000 0.40993503
vt 0.00000000 0.00000000
vt 1.00000000 0.00000000
vt 1.00000000 1.00000000
vt 0.00000000 1.00000000
vt 0.00000000 0.84020983
vt 0.10109094 0.78183014
vn -0.98596417 0.00000000 0.16695704
vn -0.98596417 0.00000000 0.16695704
vn -0.98596417 0.00000000 0.16695704
vn -0.98596417 0.00000000 0.16695704
vn -1.00000000 0.00000000 0.00000000
vn -1.00000000 0.00000000 0.00000000
vn -1.00000000 0.00000000 0.00000000
vn -1.00000000 0.00000000 0.00000000
vn -0.98059969 0.00000000 -0.19602105
vn -0.98059969 0.00000000 -0.19602105
vn -0.98059969 0.00000000 -0.19602105
vn -0.98059969 0.00000000 -0.19602105
vn -0.96788336 0.00000000 0.25139969
vn -0.96788336 0.00000000 0.25139969
vn -0.96788336 0.00000000 0.25139969
vn -0.96788336 0.00000000 0.25139969
vn -1.00000000 0.00000000 0.00000000
vn -1.00000000 0.00000000 0.00000000
vn -1.00000000 0.00000000 0.00000000
vn -1.00000000 0.00000000 0.00000000
vn 0.00000000 -1.00000000 0.00000000
vn 0.00000000 -1.00000000 0.00000000
vn 0.00000000 -1.00000000 0.00000000
vn 0.00000000 -1.00000000 0.00000000
vn 0.00000000 -1.00000000 0.00000000
vn 0.00000000 -1.00000000 0.00000000
vn 0.00000000 -1.00000000 0.00000000
vn 0.00000000 -1.00000000 0.00000000
vn 0.00000000 -1.00000000 0.00000000
vn 0.00000000 -1.00000000 0.00000000
vn 1.00000000 0.00000000 0.00000000
vn 1.00000000 0.00000000 0.00000000
vn 1.00000000 0.00000000 0.00000000
vn 1.00000000 0.00000000 0.00000000
vn -1.00000000 0.00000000 0.00000000
vn -1.00000000 0.00000000 0.00000000
vn -1.00000000 0.00000000 0.00000000
vn -1.00000000 0.00000000 0.00000000
vn -0.98021107 0.00000000 -0.19795518
vn -0.98021107 0.00000000 -0.19795518
vn -0.98021107 0.00000000 -0.19795518
vn -0.98021107 0.00000000 -0.19795518
vn 0.00000000 1.00000000 0.00000000
vn 0.00000000 1.00000000 0.00000000
vn 0.00000000 1.00000000 0.00000000
vn 0.00000000 1.00000000 0.00000000
vn 0.00000000 1.00000000 0.00000000
vn 0.00000000 1.00000000 0.00000000
vn 0.00000000 1.00000000 0.00000000
vn 0.00000000 1.00000000 0.00000000
vn 0.00000000 1.00000000 0.00000000
vn 0.00000000 1.00000000 0.00000000
s 1
usemtl Wood_Light
f 4/4/4 3/3/3 1/1/1
f 3/3/3 2/2/2 1/1/1
s 2
usemtl Wood_Dark
f 5/5/5 6/6/6 1/8/8
f 6/6/6 4/7/7 1/8/8
s 3
usemtl Wood_Light
f 5/12/12 8/11/11 6/9/9
f 8/11/11 7/10/10 6/9/9
s 4
f 8/16/16 10/15/15 7/13/13
f 10/15/15 9/14/14 7/13/13
s 5
usemtl Wood_Dark
f 9/17/17 10/18/18 12/20/20
f 10/18/18 11/19/19 12/20/20
s 6
f 9/29/29 12/28/28 16/27/27
f 16/27/27 13/24/24 3/23/23
f 15/26/26 14/25/25 13/24/24
f 3/23/23 4/22/22 16/27/27
f 4/22/22 6/21/21 7/30/30
f 4/22/22 7/30/30 16/27/27
f 16/27/27 15/26/26 13/24/24
f 7/30/30 9/29/29 16/27/27
s 7
f 16/34/34 18/33/33 15/31/31
f 18/33/33 17/32/32 15/31/31
s 8
f 19/35/35 13/36/36 20/38/38
f 13/36/36 14/37/37 20/38/38
s 9
usemtl Wood_Light
f 3/42/42 13/41/41 2/39/39
f 13/41/41 19/40/40 2/39/39
s 10
usemtl Wood_Dark
f 18/49/49 11/50/50 10/51/51
f 2/45/45 19/46/46 18/49/49
f 19/46/46 20/47/47 17/48/48
f 18/49/49 1/44/44 2/45/45
f 8/52/52 5/43/43 1/44/44
f 18/49/49 8/52/52 1/44/44
f 19/46/46 17/48/48 18/49/49
f 18/49/49 10/51/51 8/52/52
o object2
g object2
v -0.09212953 0.50000000 0.90349730
v -0.14169994 0.50000000 0.86087591
v -0.14169994 0.40000000 0.86087591
v -0.09212953 0.40000000 0.90349730
v -0.08089426 0.40000000 1.48773124
v -0.08089426 0.50000000 1.48773124
v -0.40092527 0.40000000 0.45765281
v -0.38067262 0.40000000 1.51079111
v -0.09596112 0.40000000 0.70425471
v -0.11932738 0.40000000 -0.51079111
v -0.41910574 0.40000000 -0.48773124
v -0.40985928 0.40000000 -0.00691539
v -0.37627129 0.40000000 0.20331644
v -0.37627129 0.50000000 0.20331644
v -0.40092527 0.50000000 0.45765281
v -0.40985928 0.50000000 -0.00691539
v -0.41910574 0.50000000 -0.48773124
v -0.09596112 0.50000000 0.70425471
v -0.11932738 0.50000000 -0.51079111
v -0.38067262 0.50000000 1.51079111
vt 1.00000000 0.00000000
vt 1.00000000 1.00000000
vt 0.00000000 1.00000000
vt 0.00000000 0.00000000
vt 1.00000000 0.00000000
vt 1.00000000 1.00000000
vt 0.00000000 1.00000000
vt 0.00000000 0.00000000
vt 0.00000000 0.52695848
vt 0.00000000 0.00000000
vt 1.00000000 0.00000000
vt 1.00000000 0.29233295
vt 0.83761751 0.31553305
vt 1.00000000 0.39202790
vt 1.00000000 1.00000000
vt 0.00000000 1.00000000
vt 0.00000000 0.75941432
vt 0.09841080 0.65308518
vt 0.00000000 1.00000000
vt 0.00000000 0.00000000
vt 1.00000000 0.00000000
vt 1.00000000 1.00000000
vt 0.00000000 1.00000000
vt 0.00000000 0.00000000
vt 1.00000000 0.00000000
vt 1.00000000 1.00000000
vt 0.00000000 1.00000000
vt 0.00000000 0.00000000
vt 1.00000000 0.00000000
vt 1.00000000 1.00000000
vt 0.00000000 1.00000000
vt 0.00000000 0.00000000
vt 1.00000000 0.00000000
vt 1.00000000 1.00000000
vt 1.00000000 0.00000000
vt 1.00000000 1.00000000
vt 0.00000000 1.00000000
vt 0.00000000 0.00000000
vt 1.00000000 0.00000000
vt 1.00000000 1.00000000
vt 0.00000000 1.00000000
vt 0.00000000 0.00000000
vt 0.00000000 0.52695848
vt 0.00000000 0.00000000
vt 1.00000000 0.00000000
vt 1.00000000 0.29233295
vt 0.83761751 0.31553305
vt 1.00000000 0.39202790
vt 1.00000000 1.00000000
vt 0.00000000 1.00000000
vt 0.00000000 0.75941432
vt 0.09841080 0.65308518
vn 0.65195871 0.00000000 -0.75825447
vn 0.65195871 0.00000000 -0.75825447
vn 0.65195871 0.00000000 -0.75825447
vn 0.65195871 0.00000000 -0.75825447
vn 0.99981514 0.00000000 -0.01922721
vn 0.99981514 0.00000000 -0.01922721
vn 0.99981514 0.00000000 -0.01922721
vn 0.99981514 0.00000000 -0.01922721
vn 0.00000000 -1.00000000 0.00000000
vn 0.00000000 -1.00000000 0.00000000
vn 0.00000000 -1.00000000 0.00000000
vn 0.00000000 -1.00000000 0.00000000
vn 0.00000000 -1.00000000 0.00000000
vn 0.00000000 -1.00000000 0.00000000
vn 0.00000000 -1.00000000 0.00000000
vn 0.00000000 -1.00000000 0.00000000
vn 0.00000000 -1.00000000 0.00000000
vn 0.00000000 -1.00000000 0.00000000
vn -0.99533470 0.00000000 -0.09648233
vn -0.99533470 0.00000000 -0.09648233
vn -0.99533470 0.00000000 -0.09648233
vn -0.99533470 0.00000000 -0.09648233
vn -0.98747659 -0.00000000 0.15776560
vn -0.98747659 -0.00000000 0.15776560
vn -0.98747659 -0.00000000 0.15776560
vn -0.98747659 -0.00000000 0.15776560
vn -0.99981514 0.00000000 0.01922721
vn -0.99981514 0.00000000 0.01922721
vn -0.99981514 0.00000000 0.01922721
vn -0.99981514 0.00000000 0.01922721
vn 0.99981514 0.00000000 -0.01922721
vn 0.99981514 0.00000000 -0.01922721
vn 0.99981514 0.00000000 -0.01922721
vn 0.99981514 0.00000000 -0.01922721
vn -0.99981514 0.00000000 0.01922721
vn -0.99981514 0.00000000 0.01922721
vn -0.99981514 0.00000000 0.01922721
vn -0.99981514 0.00000000 0.01922721
vn 0.95990500 -0.00000000 0.28032552
vn 0.95990500 -0.00000000 0.28032552
vn 0.95990500 -0.00000000 0.28032552
vn 0.95990500 -0.00000000 0.28032552
vn 0.00000000 1.00000000 0.00000000
vn 0.00000000 1.00000000 0.00000000
vn 0.00000000 1.00000000 0.00000000
vn 0.00000000 1.00000000 0.00000000
vn 0.00000000 1.00000000 0.00000000
vn 0.00000000 1.00000000 0.00000000
vn 0.00000000 1.00000000 0.00000000
vn 0.00000000 1.00000000 0.00000000
vn 0.00000000 1.00000000 0.00000000
vn 0.00000000 1.00000000 0.00000000
s 1
usemtl Wood_Light
f 24/56/56 23/55/55 21/53/53
f 23/55/55 22/54/54 21/53/53
s 2
usemtl Wood_Dark
f 26/60/60 25/59/59 24/58/58
f 26/60/60 24/58/58 21/57/57
s 3
f 32/69/69 31/68/68 30/67/67
f 33/70/70 30/67/67 29/66/66
f 27/61/61 29/66/66 23/65/65
f 23/65/65 24/64/64 28/62/62
f 24/64/64 25/63/63 28/62/62
f 28/62/62 27/61/61 23/65/65
f 27/61/61 33/70/70 29/66/66
f 33/70/70 32/69/69 30/67/67
s 4
usemtl Wood_Light
f 35/74/74 34/73/73 27/71/71
f 34/73/73 33/72/72 27/71/71
s 5
f 34/78/78 36/77/77 33/75/75
f 36/77/77 32/76/76 33/75/75
s 6
usemtl Wood_Dark
f 32/79/79 36/80/80 31/82/82
f 36/80/80 37/81/81 31/82/82
s 7
f 30/86/86 39/85/85 29/83/83
f 39/85/85 38/84/84 29/83/83
s 8
f 35/87/87 27/88/88 40/90/90
f 27/88/88 28/89/89 40/90/90
s 9
usemtl Wood_Light
f 23/94/94 29/93/93 38/92/92
f 23/94/94 38/92/92 22/91/91
s 10
usemtl Wood_Dark
f 39/101/101 37/102/102 36/103/103
f 38/100/100 39/101/101 34/104/104
f 22/99/99 38/100/100 35/95/95
f 40/96/96 21/98/98 22/99/99
f 40/96/96 26/97/97 21/98/98
f 22/99/99 35/95/95 40/96/96
f 38/100/100 34/104/104 35/95/95
f 39/101/101 36/103/103 34/104/104
