mtllib Materials_Modular_Terrain.mtl
o object1
g object1
v -0.40000000 0.91421870 -0.49102415
v -0.40000000 0.61434107 -0.50816002
v -0.40000000 0.60107902 0.42018401
v -0.40000000 0.63928258 0.59062517
v -0.40000000 0.59690520 0.71235085
v -0.40000000 0.58578130 1.49102415
v -0.40000000 0.88565893 1.50816002
v -0.40000000 0.90283229 0.30602432
v -0.40000000 0.88232725 0.16033937
v -0.40000000 0.90919612 -0.13944363
v -0.50000000 0.90919612 -0.13944363
v -0.50000000 0.91421870 -0.49102415
v -0.50000000 0.61434107 -0.50816002
v -0.50000000 0.60107902 0.42018401
v -0.50000000 0.63928258 0.59062517
v -0.50000000 0.59690520 0.71235085
v -0.50000000 0.58578130 1.49102415
v -0.50000000 0.88565893 1.50816002
v -0.50000000 0.90283229 0.30602432
v -0.50000000 0.88232725 0.16033937
vt 1.00000000 1.00000000
vt 0.00000000 1.00000000
vt 0.00000000 0.53563856
vt 0.13540620 0.45154383
vt 0.00000000 0.38949553
vt 0.00000000 0.00000000
vt 1.00000000 0.00000000
vt 1.00000000 0.60131313
vt 0.92474319 0.67354027
vt 1.00000000 0.82413800
vt 0.00000000 1.00000000
vt 0.00000000 0.00000000
vt 1.00000000 0.00000000
vt 1.00000000 1.00000000
vt 1.00000000 1.00000000
vt 0.00000000 1.00000000
vt 0.00000000 0.53563856
vt 0.13540620 0.45154383
vt 0.00000000 0.38949553
vt 0.00000000 0.00000000
vt 1.00000000 0.00000000
vt 1.00000000 0.60131313
vt 0.92474319 0.67354027
vt 1.00000000 0.82413800
vt 0.00000000 1.00000000
vt 0.00000000 0.00000000
vt 1.00000000 0.00000000
vt 1.00000000 1.00000000
vt 0.00000000 1.00000000
vt 0.00000000 0.00000000
vt 1.00000000 0.00000000
vt 1.00000000 1.00000000
vt 1.00000000 0.00000000
vt 1.00000000 1.00000000
vt 0.00000000 1.00000000
vt 0.00000000 0.00000000
vt 1.00000000 0.00000000
vt 1.00000000 1.00000000
vt 0.00000000 1.00000000
vt 0.00000000 0.00000000
vt 1.00000000 0.00000000
vt 1.00000000 1.00000000
vt 0.00000000 1.00000000
vt 0.00000000 0.00000000
vt 1.00000000 0.00000000
vt 1.00000000 1.00000000
vt 0.00000000 1.00000000
vt 0.00000000 0.00000000
vt 0.00000000 1.00000000
vt 0.00000000 0.00000000
vt 1.00000000 0.00000000
vt 1.00000000 1.00000000
vn 1.00000000 0.00000000 0.00000000
vn 1.00000000 0.00000000 0.00000000
vn 1.00000000 0.00000000 0.00000000
vn 1.00000000 0.00000000 0.00000000
vn 1.00000000 0.00000000 0.00000000
vn 1.00000000 0.00000000 0.00000000
vn 1.00000000 0.00000000 0.00000000
vn 1.00000000 0.00000000 0.00000000
vn 1.00000000 0.00000000 0.00000000
vn 1.00000000 0.00000000 0.00000000
vn 0.00000000 0.99989797 0.01428426
vn 0.00000000 0.99989797 0.01428426
vn 0.00000000 0.99989797 0.01428426
vn 0.00000000 0.99989797 0.01428426
vn -1.00000000 0.00000000 0.00000000
vn -1.00000000 0.00000000 0.00000000
vn -1.00000000 0.00000000 0.00000000
vn -1.00000000 0.00000000 0.00000000
vn -1.00000000 0.00000000 0.00000000
vn -1.00000000 0.00000000 0.00000000
vn -1.00000000 0.00000000 0.00000000
vn -1.00000000 0.00000000 0.00000000
vn -1.00000000 0.00000000 0.00000000
vn -1.00000000 0.00000000 0.00000000
vn 0.00000000 0.99600747 0.08926989
vn 0.00000000 0.99600747 0.08926989
vn 0.00000000 0.99600747 0.08926989
vn 0.00000000 0.99600747 0.08926989
vn -0.00000000 0.99023961 -0.13937545
vn -0.00000000 0.99023961 -0.13937545
vn -0.00000000 0.99023961 -0.13937545
vn -0.00000000 0.99023961 -0.13937545
vn 0.00000000 0.99989797 0.01428426
vn 0.00000000 0.99989797 0.01428426
vn 0.00000000 0.99989797 0.01428426
vn 0.00000000 0.99989797 0.01428426
vn 0.00000000 -0.99989797 -0.01428426
vn 0.00000000 -0.99989797 -0.01428426
vn 0.00000000 -0.99989797 -0.01428426
vn 0.00000000 -0.99989797 -0.01428426
vn 0.00000000 -0.94440526 -0.32878368
vn 0.00000000 -0.94440526 -0.32878368
vn 0.00000000 -0.94440526 -0.32878368
vn 0.00000000 -0.94440526 -0.32878368
vn 0.00000000 -0.97578807 0.21871818
vn 0.00000000 -0.97578807 0.21871818
vn 0.00000000 -0.97578807 0.21871818
vn 0.00000000 -0.97578807 0.21871818
vn 0.00000000 -0.99989797 -0.01428426
vn 0.00000000 -0.99989797 -0.01428426
vn 0.00000000 -0.99989797 -0.01428426
vn 0.00000000 -0.99989797 -0.01428426
s 1
usemtl Wood_Dark
f 2/2/2 1/1/1 10/10/10
f 3/3/3 2/2/2 9/9/9
f 4/4/4 3/3/3 8/8/8
f 7/7/7 5/5/5 4/4/4
f 7/7/7 6/6/6 5/5/5
f 4/4/4 8/8/8 7/7/7
f 3/3/3 9/9/9 8/8/8
f 2/2/2 10/10/10 9/9/9
s 2
f 1/14/14 12/13/13 10/11/11
f 12/13/13 11/12/12 10/11/11
s 3
f 11/24/24 12/15/15 13/16/16
f 20/23/23 13/16/16 14/17/17
f 19/22/22 14/17/17 15/18/18
f 15/18/18 16/19/19 18/21/21
f 16/19/19 17/20/20 18/21/21
f 18/21/21 19/22/22 15/18/18
f 19/22/22 20/23/23 14/17/17
f 20/23/23 11/24/24 13/16/16
s 4
usemtl Wood_Light
f 9/25/25 10/26/26 20/28/28
f 10/26/26 11/27/27 20/28/28
s 5
f 8/29/29 9/30/30 19/32/32
f 9/30/30 20/31/31 19/32/32
s 6
usemtl Wood_Dark
f 18/36/36 7/35/35 8/34/34
f 18/36/36 8/34/34 19/33/33
s 7
f 16/37/37 5/38/38 6/39/39
f 16/37/37 6/39/39 17/40/40
s 8
usemtl Wood_Light
f 4/44/44 5/43/43 15/41/41
f 5/43/43 16/42/42 15/41/41
s 9
f 3/48/48 4/47/47 14/45/45
f 4/47/47 15/46/46 14/45/45
s 10
usemtl Wood_Dark
f 3/49/49 14/50/50 2/52/52
f 14/50/50 13/51/51 2/52/52
o object2
g object2
v -0.40000000 0.39090945 1.17675392
v -0.40000000 0.36481175 1.08042377
v -0.40000000 0.39370957 0.96954509
v -0.40000000 0.41345383 -0.49152982
v -0.40000000 0.11356334 -0.50774012
v -0.40000000 0.08654617 1.49152982
v -0.40000000 0.38643666 1.50774012
v -0.50000000 0.39090945 1.17675392
v -0.50000000 0.38643666 1.50774012
v -0.50000000 0.36481175 1.08042377
v -0.50000000 0.39370957 0.96954509
v -0.50000000 0.41345383 -0.49152982
v -0.50000000 0.11356334 -0.50774012
v -0.50000000 0.08654617 1.49152982
vt 1.00000000 0.16555353
vt 0.90870181 0.21299594
vt 1.00000000 0.26919578
vt 1.00000000 1.00000000
vt 0.00000000 1.00000000
vt 0.00000000 0.00000000
vt 1.00000000 0.00000000
vt 1.00000000 0.00000000
vt 1.00000000 1.00000000
vt 0.00000000 1.00000000
vt 0.00000000 0.00000000
vt 1.00000000 0.16555353
vt 0.90870181 0.21299594
vt 1.00000000 0.26919578
vt 1.00000000 1.00000000
vt 0.00000000 1.00000000
vt 0.00000000 0.00000000
vt 1.00000000 0.00000000
vt 0.00000000 1.00000000
vt 0.00000000 0.00000000
vt 1.00000000 0.00000000
vt 1.00000000 1.00000000
vt 0.00000000 1.00000000
vt 0.00000000 0.00000000
vt 1.00000000 0.00000000
vt 1.00000000 1.00000000
vt 1.00000000 0.00000000
vt 1.00000000 1.00000000
vt 0.00000000 1.00000000
vt 0.00000000 0.00000000
vt 1.00000000 0.00000000
vt 1.00000000 1.00000000
vt 0.00000000 1.00000000
vt 0.00000000 0.00000000
vn 1.00000000 0.00000000 0.00000000
vn 1.00000000 0.00000000 0.00000000
vn 1.00000000 0.00000000 0.00000000
vn 1.00000000 0.00000000 0.00000000
vn 1.00000000 0.00000000 0.00000000
vn 1.00000000 0.00000000 0.00000000
vn 1.00000000 0.00000000 0.00000000
vn 0.00000000 0.99990870 0.01351228
vn 0.00000000 0.99990870 0.01351228
vn 0.00000000 0.99990870 0.01351228
vn 0.00000000 0.99990870 0.01351228
vn -1.00000000 0.00000000 0.00000000
vn -1.00000000 0.00000000 0.00000000
vn -1.00000000 0.00000000 0.00000000
vn -1.00000000 0.00000000 0.00000000
vn -1.00000000 0.00000000 0.00000000
vn -1.00000000 0.00000000 0.00000000
vn -1.00000000 0.00000000 0.00000000
vn 0.00000000 -0.99990870 -0.01351228
vn 0.00000000 -0.99990870 -0.01351228
vn 0.00000000 -0.99990870 -0.01351228
vn 0.00000000 -0.99990870 -0.01351228
vn 0.00000000 0.99990870 0.01351228
vn 0.00000000 0.99990870 0.01351228
vn 0.00000000 0.99990870 0.01351228
vn 0.00000000 0.99990870 0.01351228
vn 0.00000000 0.96767492 0.25220083
vn 0.00000000 0.96767492 0.25220083
vn 0.00000000 0.96767492 0.25220083
vn 0.00000000 0.96767492 0.25220083
vn -0.00000000 0.96520543 -0.26149280
vn -0.00000000 0.96520543 -0.26149280
vn -0.00000000 0.96520543 -0.26149280
vn -0.00000000 0.96520543 -0.26149280
s 1
usemtl Wood_Dark
f 21/53/53 27/59/59 26/58/58
f 26/58/58 23/55/55 22/54/54
f 25/57/57 24/56/56 23/55/55
f 26/58/58 25/57/57 23/55/55
f 22/54/54 21/53/53 26/58/58
s 2
f 29/63/63 27/62/62 21/61/61
f 29/63/63 21/61/61 28/60/60
s 3
f 34/69/69 29/70/70 28/64/64
f 30/65/65 31/66/66 34/69/69
f 31/66/66 32/67/67 33/68/68
f 34/69/69 28/64/64 30/65/65
f 31/66/66 33/68/68 34/69/69
s 4
f 26/71/71 34/72/72 25/74/74
f 34/72/72 33/73/73 25/74/74
s 5
f 24/78/78 32/77/77 23/75/75
f 32/77/77 31/76/76 23/75/75
s 6
usemtl Wood_Light
f 31/79/79 30/80/80 22/81/81
f 31/79/79 22/81/81 23/82/82
s 7
f 30/83/83 28/84/84 21/85/85
f 30/83/83 21/85/85 22/86/86
