mtllib Materials_Modular_Terrain.mtl
o object1
g object1
v -0.00000000 0.19098301 -0.46062585
v -0.00000000 0.41221475 -0.44580614
v -0.50000000 0.41221475 -0.50000000
v -0.50000000 0.19098301 -0.50000000
v -0.00000000 0.04894348 -0.47929979
v -0.50000000 0.00000000 -0.50000000
v -0.00000000 0.00000000 -0.50000000
v 0.18301270 0.04894348 -0.45102277
v 0.18301270 0.00000000 -0.50000000
v 0.36602540 0.00000000 -0.50000000
v 0.36602540 0.04894348 -0.42274575
v 0.63397460 0.00000000 -0.50000000
v 0.63397460 0.04894348 -0.26823725
v 0.36602540 0.19098301 -0.35305369
v 0.63397460 0.19098301 -0.05916106
v 0.36602540 0.41221475 -0.29774575
v 0.63397460 0.41221475 0.10676275
v 0.36602540 0.69098301 -0.26223587
v 0.63397460 0.69098301 0.21329239
v 0.36602540 1.00000000 -0.25000000
v 0.63397460 1.00000000 0.25000000
v 1.00000000 0.69098301 0.38847117
v 1.00000000 1.00000000 0.43419387
v 1.50000000 0.69098301 0.45105652
v 1.50000000 1.00000000 0.50000000
v 1.00000000 0.41221475 0.25577872
v 1.50000000 0.41221475 0.30901699
v 1.00000000 0.19098301 0.04910538
v 1.50000000 0.19098301 0.08778525
v 1.00000000 0.04894348 -0.21131822
v 1.50000000 0.04894348 -0.19098301
v 1.00000000 0.00000000 -0.50000000
v 1.50000000 0.00000000 -0.50000000
v -0.00000000 1.00000000 -0.43301270
v -0.00000000 0.69098301 -0.43629129
v -0.50000000 1.00000000 -0.50000000
v -0.50000000 0.69098301 -0.50000000
vt 1.00000000 0.00000000
vt 1.00000000 1.00000000
vt 0.00000000 1.00000000
vt 0.00000000 0.00000000
vt 0.00000000 1.00000000
vt 0.00000000 0.00000000
vt 1.00000000 0.00000000
vt 1.00000000 1.00000000
vt 0.00000000 0.00000000
vt 1.00000000 0.00000000
vt 1.00000000 1.00000000
vt 0.50000000 1.00000000
vt 0.00000000 1.00000000
vt 0.00000000 0.00000000
vt 0.50000000 0.00000000
vt 1.00000000 0.00000000
vt 1.00000000 1.00000000
vt 0.00000000 1.00000000
vt 0.00000000 0.00000000
vt 1.00000000 0.00000000
vt 1.00000000 1.00000000
vt 0.00000000 1.00000000
vt 0.00000000 0.00000000
vt 1.00000000 0.00000000
vt 1.00000000 1.00000000
vt 0.00000000 1.00000000
vt 0.00000000 0.00000000
vt 1.00000000 0.00000000
vt 1.00000000 1.00000000
vt 0.00000000 1.00000000
vt 0.00000000 0.00000000
vt 1.00000000 0.00000000
vt 1.00000000 1.00000000
vt 0.00000000 1.00000000
vt 0.00000000 0.00000000
vt 1.00000000 0.00000000
vt 1.00000000 1.00000000
vt 0.00000000 1.00000000
vt 0.00000000 0.00000000
vt 1.00000000 0.00000000
vt 1.00000000 1.00000000
vt 0.00000000 1.00000000
vt 0.00000000 0.00000000
vt 1.00000000 0.00000000
vt 1.00000000 1.00000000
vt 0.00000000 1.00000000
vt 0.00000000 0.00000000
vt 1.00000000 0.00000000
vt 1.00000000 1.00000000
vt 0.00000000 1.00000000
vt 0.00000000 0.00000000
vt 1.00000000 0.00000000
vt 1.00000000 1.00000000
vt 0.00000000 1.00000000
vt 0.00000000 0.00000000
vt 1.00000000 0.00000000
vt 1.00000000 1.00000000
vt 0.00000000 1.00000000
vt 0.00000000 0.00000000
vt 1.00000000 0.00000000
vt 1.00000000 1.00000000
vt 0.00000000 1.00000000
vt 0.00000000 0.00000000
vt 1.00000000 0.00000000
vt 1.00000000 1.00000000
vt 1.00000000 0.00000000
vt 1.00000000 1.00000000
vt 0.00000000 1.00000000
vt 0.00000000 0.00000000
vt 0.00000000 1.00000000
vt 0.00000000 0.00000000
vt 1.00000000 0.00000000
vt 1.00000000 1.00000000
vt 0.00000000 1.00000000
vt 0.00000000 0.00000000
vt 1.00000000 0.00000000
vt 1.00000000 1.00000000
vt 0.00000000 1.00000000
vt 0.00000000 0.00000000
vt 1.00000000 0.00000000
vt 1.00000000 1.00000000
vt 0.00000000 1.00000000
vt 0.00000000 0.00000000
vt 1.00000000 0.00000000
vt 1.00000000 1.00000000
vt 0.00000000 1.00000000
vt 0.00000000 0.00000000
vt 1.00000000 0.00000000
vt 1.00000000 1.00000000
vt 0.00000000 1.00000000
vt 0.00000000 0.00000000
vt 1.00000000 0.00000000
vt 1.00000000 1.00000000
vt 0.50000000 0.00000000
vt 1.00000000 0.00000000
vt 1.00000000 1.00000000
vt 0.00000000 1.00000000
vt 0.00000000 0.00000000
vt 0.00000000 1.00000000
vt 0.00000000 0.00000000
vt 1.00000000 0.00000000
vt 1.00000000 1.00000000
vn 0.07833078 0.06663214 -0.99469817
vn 0.10751845 0.06645006 -0.99197993
vn 0.10775662 -0.00000000 -0.99417730
vn 0.07850525 -0.00000000 -0.99691370
vn 0.07783954 0.12995282 -0.98846005
vn 0.02827650 0.13029619 -0.99107182
vn 0.04136499 -0.00000000 -0.99914410
vn -0.00000000 0.38953393 -0.92101212
vn -0.00000000 0.38953393 -0.92101212
vn -0.00000000 0.38953393 -0.92101212
vn 0.10857074 0.70316909 -0.70268458
vn 0.14088485 0.38564871 -0.91182593
vn -0.00000000 0.70735044 -0.70686304
vn -0.00000000 0.84474101 -0.53517533
vn 0.08240788 0.84186778 -0.53335503
vn 0.29487811 0.80717949 -0.51137869
vn -0.00000000 0.97842081 -0.20662218
vn 0.11830851 0.97154925 -0.20517104
vn 0.70162823 0.31386649 -0.63969185
vn 0.45972864 0.39117922 -0.79726307
vn 0.30826032 0.78688831 -0.53458616
vn 0.52470049 0.70415881 -0.47838245
vn 0.82585232 0.13676256 -0.54705022
vn 0.72870607 0.16609485 -0.66437939
vn 0.65955029 0.45099626 -0.60132835
vn 0.77023452 0.38265646 -0.51020861
vn 0.86951325 0.06241058 -0.48995064
vn 0.83163066 0.07017157 -0.55087783
vn 0.81571928 0.20648698 -0.54033803
vn 0.85627456 0.18438106 -0.48249094
vn 0.88125830 0.01869985 -0.47226490
vn 0.86973410 0.05821520 -0.49007508
vn 0.88002823 0.05602125 -0.47160570
vn 0.44700871 0.10551782 -0.88828442
vn 0.42924544 0.10653914 -0.89688224
vn 0.42790821 0.13229087 -0.89408819
vn 0.44564259 0.13103046 -0.88556970
vn 0.12910521 0.14514328 -0.98095121
vn 0.12288418 0.14525893 -0.98173282
vn 0.12269554 0.15525250 -0.98022572
vn 0.12890733 0.15512928 -0.97944771
vn 0.11230524 0.42707115 -0.89721668
vn 0.09569949 0.42781748 -0.89878463
vn 0.09444722 0.45196110 -0.88702361
vn 0.11084070 0.45119309 -0.88551631
vn 0.07757239 0.68059722 -0.72853960
vn 0.05643987 0.68156610 -0.72957672
vn 0.05461994 0.70605122 -0.70605122
vn 0.07507780 0.70511110 -0.70511110
vn 0.03701654 0.87730766 -0.47849873
vn 0.01947040 0.87774292 -0.47873613
vn 0.01846084 0.89085468 -0.45391313
vn 0.03509895 0.89045752 -0.45371077
vn 0.00679815 0.98590769 -0.16715207
vn -0.00000000 0.98593047 -0.16715593
vn -0.00000000 0.98768834 -0.15643447
vn 0.00636213 0.98766835 -0.15643130
vn 0.44719346 0.00948922 -0.89438692
vn 0.42942631 0.00958114 -0.90305108
vn 0.42917171 0.03573611 -0.90251569
vn 0.44693339 0.03539365 -0.89386679
vn 0.12638852 0.01052407 -0.99192499
vn 0.13278083 0.01051521 -0.99108964
vn 0.13278818 0.00000000 -0.99114444
vn 0.12639552 0.00000000 -0.99197993
vn 0.40813589 0.32588297 -0.85277511
vn 0.35546026 0.33365422 -0.87311103
vn 0.34502646 0.40339797 -0.84748264
vn 0.39668446 0.39452799 -0.82884806
vn 0.37480333 0.03162526 -0.92656479
vn 0.37240343 0.11727135 -0.92063191
vn 0.42663237 0.11428345 -0.89717563
vn 0.30968402 0.57050372 -0.76067162
vn 0.23027235 0.58387573 -0.77850098
vn 0.21126686 0.66724567 -0.71424753
vn 0.28514781 0.65431287 -0.70040373
vn 0.16396976 0.81597435 -0.55434626
vn 0.08705499 0.82402945 -0.55981863
vn 0.07425475 0.87548570 -0.47750500
vn 0.14023241 0.86923438 -0.47409542
vn 0.03211435 0.97791614 -0.20651560
vn 0.27975096 0.12514384 -0.95188152
vn 0.15142382 0.12884525 -0.98003557
vn 0.13739584 0.43631016 -0.88924453
vn 0.25511427 0.42591231 -0.86805265
vn 0.14595563 0.29384241 -0.94464469
vn 0.28138708 0.06413689 -0.95744857
vn 0.27419069 0.23324053 -0.93296212
vn 0.36530860 0.22577313 -0.90309253
s 1
usemtl Rock
f 4/4/4 3/3/3 1/1/1
f 3/98/3 37/97/65 2/95/2
f 37/97/65 35/96/62 2/95/2
f 36/68/64 34/67/63 35/66/62
f 37/69/65 36/68/64 35/66/62
f 3/3/3 2/2/2 1/1/1
f 5/6/6 6/7/7 4/8/4
f 1/5/5 5/6/6 4/8/4
s 2
f 5/9/8 7/10/9 6/11/10
f 9/15/13 7/14/9 5/13/12
f 8/12/11 10/16/14 9/15/13
f 12/20/17 10/19/14 11/18/16
f 32/88/55 12/87/17 13/86/81
f 30/89/54 32/88/55 13/86/81
f 31/61/57 33/60/56 30/58/54
f 33/60/56 32/59/55 30/58/54
f 13/21/18 12/20/17 11/18/16
f 8/12/11 11/17/15 10/16/14
f 9/15/13 5/13/12 8/12/11
s 3
f 15/25/22 13/24/21 14/22/19
f 13/24/21 11/23/20 14/22/19
s 4
f 17/29/26 15/28/25 16/26/23
f 15/28/25 14/27/24 16/26/23
s 5
f 19/33/30 17/32/29 18/30/27
f 19/36/32 18/35/27 20/34/31
f 21/37/33 19/36/32 20/34/31
f 17/32/29 16/31/28 18/30/27
s 6
f 23/41/37 22/40/36 21/38/34
f 22/40/36 19/39/35 21/38/34
s 7
f 25/45/41 24/44/40 23/42/38
f 24/44/40 22/43/39 23/42/38
s 8
f 24/49/45 27/48/44 22/46/42
f 27/48/44 26/47/43 22/46/42
s 9
f 27/53/49 29/52/48 26/50/46
f 29/52/48 28/51/47 26/50/46
s 10
f 29/57/53 31/56/52 28/54/50
f 31/56/52 30/55/51 28/54/50
s 11
f 20/65/61 18/64/60 34/62/58
f 18/64/60 35/63/59 34/62/58
f 16/76/71 2/75/70 35/74/59
f 14/101/88 1/100/87 2/99/70
f 16/102/89 14/101/88 2/99/70
f 18/77/72 16/76/71 35/74/59
s 12
f 22/73/69 26/72/68 19/70/66
f 26/72/68 17/71/67 19/70/66
s 13
f 26/81/76 28/80/75 17/78/73
f 28/80/75 15/79/74 17/78/73
s 14
f 28/85/80 30/84/79 15/82/77
f 30/84/79 13/83/78 15/82/77
s 15
f 8/94/86 5/91/83 1/90/82
f 14/93/85 8/94/86 1/90/82
f 14/93/85 11/92/84 8/94/86
