mtllib Materials_Modular_Terrain.mtl
o object1
g object1
v -0.43301270 0.50000000 0.50000000
v -0.50000000 1.00000000 0.50000000
v -0.25000000 1.00000000 0.00000000
v -0.21650635 0.75000000 0.00000000
v -0.25000000 0.13397460 0.50000000
v 0.12500000 0.06698730 0.00000000
v -0.00000000 0.00000000 0.50000000
v 0.25000000 0.00000000 0.00000000
v 0.12500000 0.00000000 -0.25000000
v -0.10786166 0.10858403 -0.31048222
v -0.25000000 0.00000000 -0.50000000
v -0.50000000 0.41221475 -0.50000000
v -0.40582742 0.53139086 -0.43721828
v -0.50000000 1.00000000 -0.50000000
v -0.50000000 0.19098301 -0.50000000
v -0.50000000 0.00000000 -0.50000000
vt 0.00000000 1.00000000
vt 0.00000000 0.00000000
vt 1.00000000 0.00000000
vt 1.00000000 1.00000000
vt 0.00000000 1.00000000
vt 0.00000000 0.00000000
vt 1.00000000 0.00000000
vt 1.00000000 1.00000000
vt 0.00000000 1.00000000
vt 0.00000000 0.00000000
vt 1.00000000 0.00000000
vt 1.00000000 1.00000000
vt 0.19480090 1.00000000
vt 0.00000000 0.00000000
vt 1.00000000 0.00000000
vt 1.00000000 1.00000000
vt 0.00000000 0.00000000
vt 1.00000000 1.00000000
vt 0.24192887 0.84216661
vt 0.00000000 1.00000000
vt 0.00000000 0.00000000
vt 1.00000000 0.00000000
vt 1.00000000 1.00000000
vt 1.00000000 0.00000000
vt 1.00000000 1.00000000
vt 0.00000000 0.79724549
vt 0.00000000 0.00000000
vt 1.00000000 1.00000000
vt 0.46330949 1.00000000
vt 0.00000000 1.00000000
vt 0.00000000 0.00000000
vt 0.71013091 0.18509473
vt 1.00000000 0.85482132
vt 0.00000000 1.00000000
vt 0.12556344 1.00000000
vt 0.00000000 0.00000000
vt 1.00000000 0.00000000
vt 1.00000000 1.00000000
vn 0.88807383 0.11897933 0.44403692
vn 0.88807383 0.11897933 0.44403692
vn 0.88807383 0.11897933 0.44403692
vn 0.88807383 0.11897933 0.44403692
vn 0.76326842 0.38163421 0.52132202
vn 0.76326842 0.38163421 0.52132202
vn 0.76326842 0.38163421 0.52132202
vn 0.76326842 0.38163421 0.52132202
vn 0.45970084 0.85781345 0.22985042
vn 0.45970084 0.85781345 0.22985042
vn 0.45970084 0.85781345 0.22985042
vn 0.45970084 0.85781345 0.22985042
vn 0.45970084 0.85781345 -0.22985042
vn 0.45970084 0.85781345 -0.22985042
vn 0.45970084 0.85781345 -0.22985042
vn 0.45970084 0.85781345 -0.22985042
vn 0.44885376 0.58755721 -0.67328065
vn 0.44885376 0.58755721 -0.67328065
vn 0.44885376 0.58755721 -0.67328065
vn 0.34509473 0.20929305 -0.91493500
vn 0.62350574 0.37814376 -0.68428640
vn 0.68401342 0.28015757 -0.67352607
vn 0.48237585 0.07843087 -0.87244606
vn 0.55470020 0.00000000 -0.83205029
vn 0.55470020 0.00000000 -0.83205029
vn 0.55470020 0.00000000 -0.83205029
vn -0.00000000 0.00000000 -1.00000000
vn -0.00000000 0.00000000 -1.00000000
vn -0.00000000 0.00000000 -1.00000000
vn -0.00000000 0.00000000 -1.00000000
vn 0.76326842 0.38163421 -0.52132202
vn 0.76326842 0.38163421 -0.52132202
vn 0.76326842 0.38163421 -0.52132202
vn 0.76326842 0.38163421 -0.52132202
vn 0.88807383 0.11897933 -0.44403692
vn 0.88807383 0.11897933 -0.44403692
vn 0.88807383 0.11897933 -0.44403692
vn 0.88807383 0.11897933 -0.44403692
s 1
usemtl Rock
f 4/4/4 3/3/3 2/2/2
f 4/4/4 2/2/2 1/1/1
s 2
f 6/8/8 4/7/7 5/5/5
f 4/7/7 1/6/6 5/5/5
s 3
f 8/12/12 6/11/11 7/9/9
f 6/11/11 5/10/10 7/9/9
s 4
f 9/13/13 10/14/14 6/15/15
f 9/13/13 6/15/15 8/16/16
s 5
f 9/17/17 11/18/18 10/19/19
s 6
f 13/23/23 10/22/22 12/20/20
f 10/22/22 11/21/21 12/20/20
s 7
f 13/26/26 12/25/25 14/24/24
s 8
f 11/27/27 16/30/30 15/29/29
f 15/29/29 12/28/28 11/27/27
s 9
f 6/31/31 10/32/32 13/33/33
f 6/31/31 13/33/33 4/34/34
s 10
f 13/35/35 14/36/36 4/38/38
f 14/36/36 3/37/37 4/38/38
