mtllib Materials_Modular_Terrain.mtl
o object1
g object1
v 0.37500000 1.00000000 -0.64951905
v 0.26250000 0.93333333 -0.45466334
v 0.00000000 0.93333333 -0.52500000
v 0.00000000 1.00000000 -0.75000000
v -0.26250000 0.93333333 -0.45466334
v -0.37500000 1.00000000 -0.64951905
v -0.18750000 0.80000000 -0.32475953
v 0.00000000 0.80000000 -0.37500000
v -0.11250000 0.46666667 -0.19485572
v 0.00000000 0.46666667 -0.22500000
v -0.07500000 0.00000000 -0.12990381
v 0.00000000 0.00000000 -0.15000000
v 0.11250000 0.46666667 -0.19485572
v 0.07500000 0.00000000 -0.12990381
v 0.19485572 0.46666667 -0.11250000
v 0.12990381 0.00000000 -0.07500000
v 0.22500000 0.46666667 0.00000000
v 0.15000000 0.00000000 0.00000000
v 0.19485572 0.46666667 0.11250000
v 0.12990381 0.00000000 0.07500000
v 0.32475953 0.80000000 0.18750000
v 0.37500000 0.80000000 0.00000000
v 0.45466334 0.93333333 0.26250000
v 0.52500000 0.93333333 0.00000000
v 0.64951905 1.00000000 0.37500000
v 0.75000000 1.00000000 0.00000000
v 0.45466334 0.93333333 -0.26250000
v 0.64951905 1.00000000 -0.37500000
v 0.37500000 1.00000000 0.64951905
v 0.26250000 0.93333333 0.45466334
v 0.00000000 1.00000000 0.75000000
v 0.00000000 0.93333333 0.52500000
v 0.18750000 0.80000000 0.32475953
v 0.00000000 0.80000000 0.37500000
v 0.11250000 0.46666667 0.19485572
v 0.00000000 0.46666667 0.22500000
v 0.07500000 -0.00000000 0.12990381
v 0.00000000 -0.00000000 0.15000000
v -0.11250000 0.46666667 0.19485572
v -0.07500000 -0.00000000 0.12990381
v -0.19485572 0.46666667 0.11250000
v -0.12990381 -0.00000000 0.07500000
v -0.22500000 0.46666667 0.00000000
v -0.15000000 -0.00000000 0.00000000
v -0.19485572 0.46666667 -0.11250000
v -0.12990381 0.00000000 -0.07500000
v -0.32475953 0.80000000 -0.18750000
v -0.37500000 0.80000000 0.00000000
v -0.45466334 0.93333333 -0.26250000
v -0.52500000 0.93333333 0.00000000
v -0.64951905 1.00000000 -0.37500000
v -0.75000000 1.00000000 0.00000000
v -0.45466334 0.93333333 0.26250000
v -0.64951905 1.00000000 0.37500000
v -0.26250000 0.93333333 0.45466334
v -0.37500000 1.00000000 0.64951905
v -0.18750000 0.80000000 0.32475953
v -0.32475953 0.80000000 0.18750000
v 0.32475953 0.80000000 -0.18750000
v 0.18750000 0.80000000 -0.32475953
vt 1.00000000 0.00000000
vt 1.00000000 1.00000000
vt 0.00000000 1.00000000
vt 0.00000000 0.00000000
vt 0.00000000 1.00000000
vt 0.00000000 0.00000000
vt 1.00000000 0.00000000
vt 1.00000000 1.00000000
vt 0.00000000 1.00000000
vt 0.00000000 0.00000000
vt 1.00000000 0.00000000
vt 1.00000000 1.00000000
vt 0.00000000 1.00000000
vt 0.00000000 0.00000000
vt 1.00000000 0.00000000
vt 1.00000000 1.00000000
vt 0.00000000 1.00000000
vt 0.00000000 0.00000000
vt 1.00000000 0.00000000
vt 1.00000000 1.00000000
vt 1.00000000 0.00000000
vt 1.00000000 1.00000000
vt 0.00000000 1.00000000
vt 0.00000000 0.00000000
vt 0.00000000 1.00000000
vt 0.00000000 0.00000000
vt 1.00000000 0.00000000
vt 1.00000000 1.00000000
vt 0.00000000 1.00000000
vt 0.00000000 0.00000000
vt 1.00000000 0.00000000
vt 1.00000000 1.00000000
vt 1.00000000 0.00000000
vt 1.00000000 1.00000000
vt 0.00000000 1.00000000
vt 0.00000000 0.00000000
vt 1.00000000 0.00000000
vt 1.00000000 1.00000000
vt 0.00000000 1.00000000
vt 0.00000000 0.00000000
vt 1.00000000 0.00000000
vt 1.00000000 1.00000000
vt 0.00000000 1.00000000
vt 0.00000000 0.00000000
vt 1.00000000 0.00000000
vt 1.00000000 1.00000000
vt 0.00000000 1.00000000
vt 0.00000000 0.00000000
vt 0.00000000 1.00000000
vt 0.00000000 0.00000000
vt 1.00000000 0.00000000
vt 1.00000000 1.00000000
vt 0.00000000 1.00000000
vt 0.00000000 0.00000000
vt 1.00000000 0.00000000
vt 1.00000000 1.00000000
vt 0.00000000 1.00000000
vt 0.00000000 0.00000000
vt 1.00000000 0.00000000
vt 1.00000000 1.00000000
vt 0.00000000 1.00000000
vt 0.00000000 0.00000000
vt 1.00000000 0.00000000
vt 1.00000000 1.00000000
vt 0.00000000 1.00000000
vt 0.00000000 0.00000000
vt 1.00000000 0.00000000
vt 1.00000000 1.00000000
vt 0.00000000 1.00000000
vt 0.00000000 0.00000000
vt 1.00000000 0.00000000
vt 1.00000000 1.00000000
vt 1.00000000 0.00000000
vt 1.00000000 1.00000000
vt 0.00000000 1.00000000
vt 0.00000000 0.00000000
vt 0.00000000 1.00000000
vt 0.00000000 0.00000000
vt 1.00000000 0.00000000
vt 1.00000000 1.00000000
vt 0.00000000 1.00000000
vt 0.00000000 0.00000000
vt 1.00000000 0.00000000
vt 1.00000000 1.00000000
vt 1.00000000 0.00000000
vt 1.00000000 1.00000000
vt 0.00000000 1.00000000
vt 0.00000000 0.00000000
vt 1.00000000 0.00000000
vt 1.00000000 1.00000000
vt 0.00000000 1.00000000
vt 0.00000000 0.00000000
vt 1.00000000 0.00000000
vt 1.00000000 1.00000000
vt 0.00000000 1.00000000
vt 0.00000000 0.00000000
vt 1.00000000 0.00000000
vt 1.00000000 1.00000000
vt 0.00000000 1.00000000
vt 0.00000000 0.00000000
vt 0.00000000 1.00000000
vt 0.00000000 0.00000000
vt 1.00000000 0.00000000
vt 1.00000000 1.00000000
vt 0.00000000 1.00000000
vt 0.00000000 0.00000000
vt 1.00000000 0.00000000
vt 1.00000000 1.00000000
vt 0.00000000 1.00000000
vt 0.00000000 0.00000000
vt 1.00000000 0.00000000
vt 1.00000000 1.00000000
vt 0.00000000 1.00000000
vt 0.00000000 0.00000000
vt 1.00000000 0.00000000
vt 1.00000000 1.00000000
vt 0.00000000 1.00000000
vt 0.00000000 0.00000000
vt 1.00000000 0.00000000
vt 1.00000000 1.00000000
vt 0.00000000 1.00000000
vt 0.00000000 0.00000000
vt 1.00000000 0.00000000
vt 1.00000000 1.00000000
vt 1.00000000 0.00000000
vt 1.00000000 1.00000000
vt 0.00000000 1.00000000
vt 0.00000000 0.00000000
vt 1.00000000 0.00000000
vt 1.00000000 1.00000000
vt 0.00000000 1.00000000
vt 0.00000000 0.00000000
vt 1.00000000 0.00000000
vt 1.00000000 1.00000000
vt 0.00000000 1.00000000
vt 0.00000000 0.00000000
vt 0.00000000 1.00000000
vt 0.00000000 0.00000000
vt 1.00000000 0.00000000
vt 1.00000000 1.00000000
vt 0.00000000 1.00000000
vt 0.00000000 0.00000000
vt 1.00000000 0.00000000
vt 1.00000000 1.00000000
vt 0.00000000 1.00000000
vt 0.00000000 0.00000000
vt 1.00000000 0.00000000
vt 1.00000000 1.00000000
vt 0.00000000 1.00000000
vt 0.00000000 0.00000000
vt 1.00000000 0.00000000
vt 1.00000000 1.00000000
vt 0.00000000 1.00000000
vt 0.00000000 0.00000000
vt 1.00000000 0.00000000
vt 1.00000000 1.00000000
vt 0.00000000 1.00000000
vt 0.00000000 0.00000000
vt 1.00000000 0.00000000
vt 1.00000000 1.00000000
vt 0.00000000 1.00000000
vt 0.00000000 0.00000000
vt 1.00000000 0.00000000
vt 1.00000000 1.00000000
vt 0.00000000 1.00000000
vt 0.00000000 0.00000000
vt 1.00000000 0.00000000
vt 1.00000000 1.00000000
vt 1.00000000 0.00000000
vt 1.00000000 1.00000000
vt 0.00000000 1.00000000
vt 0.00000000 0.00000000
vt 0.00000000 1.00000000
vt 0.00000000 0.00000000
vt 1.00000000 0.00000000
vt 1.00000000 1.00000000
vt 0.00000000 1.00000000
vt 0.00000000 0.00000000
vt 1.00000000 0.00000000
vt 1.00000000 1.00000000
vt 0.00000000 1.00000000
vt 0.00000000 0.00000000
vt 1.00000000 0.00000000
vt 1.00000000 1.00000000
vt 1.00000000 0.00000000
vt 1.00000000 1.00000000
vt 0.00000000 1.00000000
vt 0.00000000 0.00000000
vt 0.00000000 1.00000000
vt 0.00000000 0.00000000
vt 1.00000000 0.00000000
vt 1.00000000 1.00000000
vn 0.07590165 -0.95603228 -0.28326882
vn 0.07590165 -0.95603228 -0.28326882
vn 0.07590165 -0.95603228 -0.28326882
vn 0.07590165 -0.95603228 -0.28326882
vn -0.07590165 -0.95603228 -0.28326882
vn -0.07590165 -0.95603228 -0.28326882
vn -0.07590165 -0.95603228 -0.28326882
vn -0.07590165 -0.95603228 -0.28326882
vn -0.17526045 -0.73584100 -0.65408089
vn -0.17526045 -0.73584100 -0.65408089
vn -0.17526045 -0.73584100 -0.65408089
vn -0.17526045 -0.73584100 -0.65408089
vn -0.23736526 -0.39863665 -0.88585922
vn -0.23736526 -0.39863665 -0.88585922
vn -0.23736526 -0.39863665 -0.88585922
vn -0.23736526 -0.39863665 -0.88585922
vn -0.25575568 -0.15340069 -0.95449320
vn -0.25575568 -0.15340069 -0.95449320
vn -0.25575568 -0.15340069 -0.95449320
vn -0.25575568 -0.15340069 -0.95449320
vn 0.25575568 -0.15340069 -0.95449320
vn 0.25575568 -0.15340069 -0.95449320
vn 0.25575568 -0.15340069 -0.95449320
vn 0.25575568 -0.15340069 -0.95449320
vn 0.69873751 -0.15340069 -0.69873751
vn 0.69873751 -0.15340069 -0.69873751
vn 0.69873751 -0.15340069 -0.69873751
vn 0.69873751 -0.15340069 -0.69873751
vn 0.95449320 -0.15340069 -0.25575568
vn 0.95449320 -0.15340069 -0.25575568
vn 0.95449320 -0.15340069 -0.25575568
vn 0.95449320 -0.15340069 -0.25575568
vn 0.95449320 -0.15340069 0.25575568
vn 0.95449320 -0.15340069 0.25575568
vn 0.95449320 -0.15340069 0.25575568
vn 0.95449320 -0.15340069 0.25575568
vn 0.88585922 -0.39863665 0.23736526
vn 0.88585922 -0.39863665 0.23736526
vn 0.88585922 -0.39863665 0.23736526
vn 0.88585922 -0.39863665 0.23736526
vn 0.65408089 -0.73584100 0.17526045
vn 0.65408089 -0.73584100 0.17526045
vn 0.65408089 -0.73584100 0.17526045
vn 0.65408089 -0.73584100 0.17526045
vn 0.28326882 -0.95603228 0.07590165
vn 0.28326882 -0.95603228 0.07590165
vn 0.28326882 -0.95603228 0.07590165
vn 0.28326882 -0.95603228 0.07590165
vn 0.28326882 -0.95603228 -0.07590165
vn 0.28326882 -0.95603228 -0.07590165
vn 0.28326882 -0.95603228 -0.07590165
vn 0.28326882 -0.95603228 -0.07590165
vn 0.20736717 -0.95603228 0.20736717
vn 0.20736717 -0.95603228 0.20736717
vn 0.20736717 -0.95603228 0.20736717
vn 0.20736717 -0.95603228 0.20736717
vn 0.07590165 -0.95603228 0.28326882
vn 0.07590165 -0.95603228 0.28326882
vn 0.07590165 -0.95603228 0.28326882
vn 0.07590165 -0.95603228 0.28326882
vn 0.17526045 -0.73584100 0.65408089
vn 0.17526045 -0.73584100 0.65408089
vn 0.17526045 -0.73584100 0.65408089
vn 0.17526045 -0.73584100 0.65408089
vn 0.23736526 -0.39863665 0.88585922
vn 0.23736526 -0.39863665 0.88585922
vn 0.23736526 -0.39863665 0.88585922
vn 0.23736526 -0.39863665 0.88585922
vn 0.25575568 -0.15340069 0.95449320
vn 0.25575568 -0.15340069 0.95449320
vn 0.25575568 -0.15340069 0.95449320
vn 0.25575568 -0.15340069 0.95449320
vn -0.25575568 -0.15340069 0.95449320
vn -0.25575568 -0.15340069 0.95449320
vn -0.25575568 -0.15340069 0.95449320
vn -0.25575568 -0.15340069 0.95449320
vn -0.69873751 -0.15340069 0.69873751
vn -0.69873751 -0.15340069 0.69873751
vn -0.69873751 -0.15340069 0.69873751
vn -0.69873751 -0.15340069 0.69873751
vn -0.95449320 -0.15340069 0.25575568
vn -0.95449320 -0.15340069 0.25575568
vn -0.95449320 -0.15340069 0.25575568
vn -0.95449320 -0.15340069 0.25575568
vn -0.95449320 -0.15340069 -0.25575568
vn -0.95449320 -0.15340069 -0.25575568
vn -0.95449320 -0.15340069 -0.25575568
vn -0.95449320 -0.15340069 -0.25575568
vn -0.88585922 -0.39863665 -0.23736526
vn -0.88585922 -0.39863665 -0.23736526
vn -0.88585922 -0.39863665 -0.23736526
vn -0.88585922 -0.39863665 -0.23736526
vn -0.65408089 -0.73584100 -0.17526045
vn -0.65408089 -0.73584100 -0.17526045
vn -0.65408089 -0.73584100 -0.17526045
vn -0.65408089 -0.73584100 -0.17526045
vn -0.28326882 -0.95603228 -0.07590165
vn -0.28326882 -0.95603228 -0.07590165
vn -0.28326882 -0.95603228 -0.07590165
vn -0.28326882 -0.95603228 -0.07590165
vn -0.28326882 -0.95603228 0.07590165
vn -0.28326882 -0.95603228 0.07590165
vn -0.28326882 -0.95603228 0.07590165
vn -0.28326882 -0.95603228 0.07590165
vn -0.20736717 -0.95603228 0.20736717
vn -0.20736717 -0.95603228 0.20736717
vn -0.20736717 -0.95603228 0.20736717
vn -0.20736717 -0.95603228 0.20736717
vn -0.47882044 -0.73584100 0.47882044
vn -0.47882044 -0.73584100 0.47882044
vn -0.47882044 -0.73584100 0.47882044
vn -0.47882044 -0.73584100 0.47882044
vn -0.65408089 -0.73584100 0.17526045
vn -0.65408089 -0.73584100 0.17526045
vn -0.65408089 -0.73584100 0.17526045
vn -0.65408089 -0.73584100 0.17526045
vn -0.88585922 -0.39863665 0.23736526
vn -0.88585922 -0.39863665 0.23736526
vn -0.88585922 -0.39863665 0.23736526
vn -0.88585922 -0.39863665 0.23736526
vn -0.64849396 -0.39863665 0.64849396
vn -0.64849396 -0.39863665 0.64849396
vn -0.64849396 -0.39863665 0.64849396
vn -0.64849396 -0.39863665 0.64849396
vn -0.23736526 -0.39863665 0.88585922
vn -0.23736526 -0.39863665 0.88585922
vn -0.23736526 -0.39863665 0.88585922
vn -0.23736526 -0.39863665 0.88585922
vn -0.17526045 -0.73584100 0.65408089
vn -0.17526045 -0.73584100 0.65408089
vn -0.17526045 -0.73584100 0.65408089
vn -0.17526045 -0.73584100 0.65408089
vn -0.07590165 -0.95603228 0.28326882
vn -0.07590165 -0.95603228 0.28326882
vn -0.07590165 -0.95603228 0.28326882
vn -0.07590165 -0.95603228 0.28326882
vn 0.65408089 -0.73584100 -0.17526045
vn 0.65408089 -0.73584100 -0.17526045
vn 0.65408089 -0.73584100 -0.17526045
vn 0.65408089 -0.73584100 -0.17526045
vn 0.47882044 -0.73584100 -0.47882044
vn 0.47882044 -0.73584100 -0.47882044
vn 0.47882044 -0.73584100 -0.47882044
vn 0.47882044 -0.73584100 -0.47882044
vn 0.47882044 -0.73584100 0.47882044
vn 0.47882044 -0.73584100 0.47882044
vn 0.47882044 -0.73584100 0.47882044
vn 0.47882044 -0.73584100 0.47882044
vn 0.64849396 -0.39863665 0.64849396
vn 0.64849396 -0.39863665 0.64849396
vn 0.64849396 -0.39863665 0.64849396
vn 0.64849396 -0.39863665 0.64849396
vn 0.69873751 -0.15340069 0.69873751
vn 0.69873751 -0.15340069 0.69873751
vn 0.69873751 -0.15340069 0.69873751
vn 0.69873751 -0.15340069 0.69873751
vn 0.88585922 -0.39863665 -0.23736526
vn 0.88585922 -0.39863665 -0.23736526
vn 0.88585922 -0.39863665 -0.23736526
vn 0.88585922 -0.39863665 -0.23736526
vn 0.64849396 -0.39863665 -0.64849396
vn 0.64849396 -0.39863665 -0.64849396
vn 0.64849396 -0.39863665 -0.64849396
vn 0.64849396 -0.39863665 -0.64849396
vn -0.69873751 -0.15340069 -0.69873751
vn -0.69873751 -0.15340069 -0.69873751
vn -0.69873751 -0.15340069 -0.69873751
vn -0.69873751 -0.15340069 -0.69873751
vn 0.23736526 -0.39863665 -0.88585922
vn 0.23736526 -0.39863665 -0.88585922
vn 0.23736526 -0.39863665 -0.88585922
vn 0.23736526 -0.39863665 -0.88585922
vn -0.64849396 -0.39863665 -0.64849396
vn -0.64849396 -0.39863665 -0.64849396
vn -0.64849396 -0.39863665 -0.64849396
vn -0.64849396 -0.39863665 -0.64849396
vn -0.47882044 -0.73584100 -0.47882044
vn -0.47882044 -0.73584100 -0.47882044
vn -0.47882044 -0.73584100 -0.47882044
vn -0.47882044 -0.73584100 -0.47882044
vn -0.20736717 -0.95603228 -0.20736717
vn -0.20736717 -0.95603228 -0.20736717
vn -0.20736717 -0.95603228 -0.20736717
vn -0.20736717 -0.95603228 -0.20736717
vn 0.17526045 -0.73584100 -0.65408089
vn 0.17526045 -0.73584100 -0.65408089
vn 0.17526045 -0.73584100 -0.65408089
vn 0.17526045 -0.73584100 -0.65408089
vn 0.20736717 -0.95603228 -0.20736717
vn 0.20736717 -0.95603228 -0.20736717
vn 0.20736717 -0.95603228 -0.20736717
vn 0.20736717 -0.95603228 -0.20736717
s 1
usemtl Rock
f 1/1/1 2/2/2 4/4/4
f 2/2/2 3/3/3 4/4/4
s 2
f 5/5/5 6/6/6 4/7/7
f 5/5/5 4/7/7 3/8/8
s 3
f 7/9/9 5/10/10 3/11/11
f 7/9/9 3/11/11 8/12/12
s 4
f 9/13/13 7/14/14 8/15/15
f 9/13/13 8/15/15 10/16/16
s 5
f 11/17/17 9/18/18 10/19/19
f 11/17/17 10/19/19 12/20/20
s 6
f 13/21/21 14/22/22 10/24/24
f 14/22/22 12/23/23 10/24/24
s 7
f 14/25/25 13/26/26 15/27/27
f 14/25/25 15/27/27 16/28/28
s 8
f 16/29/29 15/30/30 17/31/31
f 16/29/29 17/31/31 18/32/32
s 9
f 19/33/33 20/34/34 17/36/36
f 20/34/34 18/35/35 17/36/36
s 10
f 21/37/37 19/38/38 22/40/40
f 19/38/38 17/39/39 22/40/40
s 11
f 23/41/41 21/42/42 24/44/44
f 21/42/42 22/43/43 24/44/44
s 12
f 25/45/45 23/46/46 26/48/48
f 23/46/46 24/47/47 26/48/48
s 13
f 27/49/49 28/50/50 26/51/51
f 27/49/49 26/51/51 24/52/52
s 14
f 23/53/53 25/54/54 29/55/55
f 23/53/53 29/55/55 30/56/56
s 15
f 30/57/57 29/58/58 32/60/60
f 29/58/58 31/59/59 32/60/60
s 16
f 33/61/61 30/62/62 34/64/64
f 30/62/62 32/63/63 34/64/64
s 17
f 35/65/65 33/66/66 36/68/68
f 33/66/66 34/67/67 36/68/68
s 18
f 37/69/69 35/70/70 38/72/72
f 35/70/70 36/71/71 38/72/72
s 19
f 39/73/73 40/74/74 38/75/75
f 39/73/73 38/75/75 36/76/76
s 20
f 40/77/77 39/78/78 42/80/80
f 39/78/78 41/79/79 42/80/80
s 21
f 42/81/81 41/82/82 44/84/84
f 41/82/82 43/83/83 44/84/84
s 22
f 45/85/85 46/86/86 44/87/87
f 45/85/85 44/87/87 43/88/88
s 23
f 47/89/89 45/90/90 43/91/91
f 47/89/89 43/91/91 48/92/92
s 24
f 49/93/93 47/94/94 48/95/95
f 49/93/93 48/95/95 50/96/96
s 25
f 51/97/97 49/98/98 50/99/99
f 51/97/97 50/99/99 52/100/100
s 26
f 53/101/101 54/102/102 50/104/104
f 54/102/102 52/103/103 50/104/104
s 27
f 55/105/105 56/106/106 53/108/108
f 56/106/106 54/107/107 53/108/108
s 28
f 57/109/109 55/110/110 58/112/112
f 55/110/110 53/111/111 58/112/112
s 29
f 58/113/113 53/114/114 48/116/116
f 53/114/114 50/115/115 48/116/116
s 30
f 41/117/117 58/118/118 43/120/120
f 58/118/118 48/119/119 43/120/120
s 31
f 39/121/121 57/122/122 41/124/124
f 57/122/122 58/123/123 41/124/124
s 32
f 57/125/125 39/126/126 36/127/127
f 57/125/125 36/127/127 34/128/128
s 33
f 55/129/129 57/130/130 34/131/131
f 55/129/129 34/131/131 32/132/132
s 34
f 56/133/133 55/134/134 32/135/135
f 56/133/133 32/135/135 31/136/136
s 35
f 59/137/137 27/138/138 24/139/139
f 59/137/137 24/139/139 22/140/140
s 36
f 60/141/141 2/142/142 27/143/143
f 60/141/141 27/143/143 59/144/144
s 37
f 21/145/145 23/146/146 30/147/147
f 21/145/145 30/147/147 33/148/148
s 38
f 19/149/149 21/150/150 33/151/151
f 19/149/149 33/151/151 35/152/152
s 39
f 20/153/153 19/154/154 35/155/155
f 20/153/153 35/155/155 37/156/156
s 40
f 15/157/157 59/158/158 22/159/159
f 15/157/157 22/159/159 17/160/160
s 41
f 13/161/161 60/162/162 59/163/163
f 13/161/161 59/163/163 15/164/164
s 42
f 46/165/165 45/166/166 11/168/168
f 45/166/166 9/167/167 11/168/168
s 43
f 60/169/169 13/170/170 8/172/172
f 13/170/170 10/171/171 8/172/172
s 44
f 45/173/173 47/174/174 9/176/176
f 47/174/174 7/175/175 9/176/176
s 45
f 47/177/177 49/178/178 7/180/180
f 49/178/178 5/179/179 7/180/180
s 46
f 49/181/181 51/182/182 5/184/184
f 51/182/182 6/183/183 5/184/184
s 47
f 2/185/185 60/186/186 3/188/188
f 60/186/186 8/187/187 3/188/188
s 48
f 2/189/189 1/190/190 28/191/191
f 2/189/189 28/191/191 27/192/192
