mtllib Materials_Modular_Terrain.mtl
o object1
g object1
v 0.64951905 0.50000000 0.00000000
v 0.75000000 1.00000000 0.00000000
v 0.50000000 1.00000000 -0.50000000
v 0.43301270 0.50000000 -0.50000000
v 0.37500000 0.13397460 0.00000000
v 0.25000000 0.13397460 -0.50000000
v 0.00000000 0.00000000 0.00000000
v 0.00000000 0.00000000 -0.50000000
v -0.50000000 0.00000000 -0.50000000
v -0.50000000 0.00000000 0.00000000
v -0.50000000 0.00000000 0.50000000
v 0.00000000 0.00000000 0.50000000
v 0.25000000 0.13397460 0.50000000
v 0.43301270 0.50000000 0.50000000
v 0.50000000 1.00000000 0.50000000
vt 0.00000000 1.00000000
vt 0.00000000 0.00000000
vt 1.00000000 0.00000000
vt 1.00000000 1.00000000
vt 0.00000000 1.00000000
vt 0.00000000 0.00000000
vt 1.00000000 0.00000000
vt 1.00000000 1.00000000
vt 0.00000000 1.00000000
vt 0.00000000 0.00000000
vt 1.00000000 0.00000000
vt 1.00000000 1.00000000
vt 1.00000000 1.00000000
vt 0.50000000 1.00000000
vt 0.00000000 1.00000000
vt 0.00000000 0.00000000
vt 0.50000000 0.00000000
vt 1.00000000 0.00000000
vt 0.00000000 1.00000000
vt 0.00000000 0.00000000
vt 1.00000000 0.00000000
vt 1.00000000 1.00000000
vt 0.00000000 1.00000000
vt 0.00000000 0.00000000
vt 1.00000000 0.00000000
vt 1.00000000 1.00000000
vt 0.00000000 1.00000000
vt 0.00000000 0.00000000
vt 1.00000000 0.00000000
vt 1.00000000 1.00000000
vn 0.90244560 -0.18135718 -0.39077041
vn 0.88031932 -0.17691064 -0.44015966
vn 0.88807383 -0.11897933 -0.44403692
vn 0.91080529 -0.12202477 -0.39439026
vn 0.78446454 -0.58834841 -0.19611614
vn 0.75592895 -0.56694671 -0.32732684
vn 0.83405766 -0.41702883 -0.36115756
vn 0.87287156 -0.43643578 -0.21821789
vn 0.33643890 -0.94170530 -0.00000000
vn 0.33525512 -0.93839185 -0.08381378
vn 0.46908821 -0.87533052 -0.11727205
vn 0.47234749 -0.88141242 -0.00000000
vn 0.00000000 -1.00000000 0.00000000
vn 0.00000000 -1.00000000 0.00000000
vn 0.00000000 -1.00000000 0.00000000
vn 0.00000000 -1.00000000 0.00000000
vn 0.00000000 -1.00000000 0.00000000
vn 0.00000000 -1.00000000 0.00000000
vn 0.33525512 -0.93839185 0.08381378
vn 0.46908821 -0.87533052 0.11727205
vn 0.47234749 -0.88141242 0.00000000
vn 0.78446454 -0.58834841 0.19611614
vn 0.75592895 -0.56694671 0.32732684
vn 0.83405766 -0.41702883 0.36115756
vn 0.87287156 -0.43643578 0.21821789
vn 0.90244560 -0.18135718 0.39077041
vn 0.88031932 -0.17691064 0.44015966
vn 0.88807383 -0.11897933 0.44403692
vn 0.91080529 -0.12202477 0.39439026
s 1
usemtl Rock
f 4/4/4 3/3/3 1/1/1
f 3/3/3 2/2/2 1/1/1
s 2
f 6/8/8 4/7/7 5/5/5
f 4/7/7 1/6/6 5/5/5
s 3
f 8/12/12 6/11/11 7/9/9
f 7/19/9 13/21/20 12/22/21
f 7/19/9 5/20/19 13/21/20
f 6/11/11 5/10/10 7/9/9
s 4
f 12/16/16 11/15/15 10/14/14
f 8/18/18 7/17/17 10/14/14
f 10/14/14 9/13/13 8/18/18
f 7/17/17 12/16/16 10/14/14
s 5
f 5/23/22 1/24/23 14/25/24
f 5/23/22 14/25/24 13/26/25
s 6
f 1/27/26 2/28/27 15/29/28
f 1/27/26 15/29/28 14/30/29
