mtllib Materials_Modular_Terrain.mtl
o object1
g object1
v -0.04813962 0.00000000 0.55550111
v -0.30581234 0.00000000 0.58012276
v -0.30399128 0.02124091 0.56034565
v -0.04808946 0.00058511 0.55495632
v -0.24902098 0.00000000 0.57469612
v -0.04804196 0.00000000 0.55444067
v -0.30226687 0.00000000 0.54162620
v -0.24902098 0.00000000 0.54431012
v -0.41199853 0.00000000 0.55194686
v -0.45000000 0.00000000 0.55552423
v -0.24902098 0.00000000 0.30000000
v 0.50000000 0.00000000 0.30000000
v 0.50000000 0.00000000 0.70000000
v -0.24902098 0.00000000 0.70000000
v -0.50000000 0.00000000 0.70000000
v -0.50000000 0.00000000 0.30000000
v -0.50000000 0.40000000 0.30000000
v 0.20000000 0.40000000 0.30000000
v 0.40000000 0.35000000 0.30000000
v 0.50000000 0.40000000 0.30000000
v 0.40000000 0.40000000 0.35000000
v -0.50000000 0.40000000 0.70000000
v 0.50000000 0.40000000 0.70000000
vt 1.00000000 0.02754626
vt 0.00000000 1.00000000
vt 0.00000000 0.00000000
vt 1.00000000 0.00000000
vt 0.22040113 0.78567009
vt 0.00000000 0.99950422
vt 0.48608301 0.00000000
vt 1.00000000 1.00000000
vt 0.00000000 0.00000000
vt 1.00000000 0.97245374
vt 1.00000000 1.00000000
vt 0.00000000 1.00000000
vt 0.20944402 0.20367462
vt 0.74277101 0.74264341
vt 1.00000000 0.99990452
vt 0.00000000 1.00000000
vt 0.00000000 0.00000000
vt 0.00000000 1.00000000
vt 0.00000000 0.00000000
vt 1.00000000 0.00009097
vt 0.74902098 0.31325971
vt 0.54813962 0.36124723
vt 0.54804196 0.36389832
vt 0.74902098 0.38922471
vt 0.74902098 1.00000000
vt 0.00000000 1.00000000
vt 0.00000000 0.00000000
vt 0.74902098 0.00000000
vt 0.80226687 0.39593449
vt 0.91199853 0.37013284
vt 0.95000000 0.36118943
vt 0.80581234 0.29969311
vt 1.00000000 0.00000000
vt 1.00000000 1.00000000
vt 1.00000000 0.00000000
vt 1.00000000 1.00000000
vt 0.30000000 1.00000000
vt 0.10000000 0.87500000
vt 0.00000000 1.00000000
vt 0.00000000 0.00000000
vt 0.74902098 0.00000000
vt 1.00000000 0.00000000
vt 1.00000000 1.00000000
vt 0.00000000 0.80000000
vt 1.00000000 1.00000000
vt 0.00000000 0.80000000
vt 1.00000000 0.00000000
vt 1.00000000 0.00000000
vt 1.00000000 1.00000000
vt 0.30000000 1.00000000
vt 0.10000000 0.87500000
vt 0.00000000 1.00000000
vt 0.00000000 0.00000000
vt 0.00000000 1.00000000
vt 0.00000000 0.00000000
vt 1.00000000 0.00000000
vt 1.00000000 1.00000000
vt 0.74902098 0.00000000
vn -0.07004732 -0.67654137 -0.73306558
vn -0.07004732 -0.67654137 -0.73306558
vn -0.07004732 -0.67654137 -0.73306558
vn -0.07004732 -0.67654137 -0.73306558
vn -0.07004732 -0.67654137 -0.73306558
vn -0.99578573 -0.00001775 -0.09171028
vn -0.99578573 -0.00001775 -0.09171028
vn -0.99578573 -0.00001775 -0.09171028
vn -0.03771268 -0.66242531 0.74817810
vn -0.03771268 -0.66242531 0.74817810
vn -0.03771268 -0.66242531 0.74817810
vn -0.03771268 -0.66242531 0.74817810
vn -0.03771268 -0.66242531 0.74817810
vn 0.07065269 -0.65628732 0.75119581
vn 0.07065269 -0.65628732 0.75119581
vn 0.07065269 -0.65628732 0.75119581
vn 0.07065269 -0.65628732 0.75119581
vn 0.12299236 -0.68189249 -0.72103781
vn 0.12299236 -0.68189249 -0.72103781
vn 0.12299236 -0.68189249 -0.72103781
vn 0.00000000 -1.00000000 0.00000000
vn 0.00000000 -1.00000000 0.00000000
vn 0.00000000 -1.00000000 0.00000000
vn 0.00000000 -1.00000000 0.00000000
vn 0.00000000 -1.00000000 0.00000000
vn 0.00000000 -1.00000000 0.00000000
vn 0.00000000 -1.00000000 0.00000000
vn 0.00000000 -1.00000000 0.00000000
vn 0.00000000 -1.00000000 0.00000000
vn 0.00000000 -1.00000000 0.00000000
vn 0.00000000 -1.00000000 0.00000000
vn 0.00000000 -1.00000000 0.00000000
vn 0.00000000 -1.00000000 0.00000000
vn 0.00000000 -1.00000000 0.00000000
vn 0.00000000 0.00000000 -1.00000000
vn 0.00000000 0.00000000 -1.00000000
vn 0.00000000 0.00000000 -1.00000000
vn 0.00000000 0.00000000 -1.00000000
vn 0.00000000 0.00000000 -1.00000000
vn 0.00000000 0.00000000 -1.00000000
vn 0.00000000 0.00000000 -1.00000000
vn -0.33333333 0.66666667 -0.66666667
vn -0.33333333 0.66666667 -0.66666667
vn -0.33333333 0.66666667 -0.66666667
vn 0.17407766 0.69631062 -0.69631062
vn 0.17407766 0.69631062 -0.69631062
vn 0.17407766 0.69631062 -0.69631062
vn 0.00000000 1.00000000 0.00000000
vn 0.00000000 1.00000000 0.00000000
vn 0.00000000 1.00000000 0.00000000
vn 0.00000000 1.00000000 0.00000000
vn 0.00000000 1.00000000 0.00000000
vn 0.00000000 1.00000000 0.00000000
vn 0.00000000 0.00000000 1.00000000
vn 0.00000000 0.00000000 1.00000000
vn 0.00000000 0.00000000 1.00000000
vn 0.00000000 0.00000000 1.00000000
vn 0.00000000 0.00000000 1.00000000
s 1
usemtl Wood_Light
f 5/5/5 2/2/2 3/3/3
f 5/5/5 3/3/3 4/4/4
f 4/4/4 1/1/1 5/5/5
s 2
f 1/8/8 4/7/7 6/6/6
s 3
f 3/12/12 7/9/9 8/13/13
f 8/13/13 6/10/10 4/11/11
f 8/13/13 4/11/11 3/12/12
s 4
f 9/14/14 7/17/17 3/16/16
f 3/16/16 10/15/15 9/14/14
s 5
f 10/20/20 3/19/19 2/18/18
s 6
usemtl Wood_Dark
f 14/28/28 5/21/21 1/22/22
f 1/22/22 6/23/23 12/26/26
f 6/23/23 11/25/25 12/26/26
f 16/34/34 11/25/25 9/30/30
f 9/30/30 10/31/31 16/34/34
f 10/31/31 15/33/33 16/34/34
f 11/25/25 7/29/29 9/30/30
f 11/25/25 8/24/24 7/29/29
f 6/23/23 8/24/24 11/25/25
f 12/26/26 13/27/27 1/22/22
f 10/31/31 14/28/28 15/33/33
f 10/31/31 2/32/32 14/28/28
f 2/32/32 5/21/21 14/28/28
f 13/27/27 14/28/28 1/22/22
s 7
f 19/38/38 20/39/39 12/40/40
f 18/37/37 12/40/40 11/41/41
f 11/41/41 16/35/35 17/36/36
f 11/41/41 17/36/36 18/37/37
f 18/37/37 19/38/38 12/40/40
s 8
usemtl Wood_Light
f 20/42/42 19/43/43 21/44/44
s 9
f 18/47/47 21/46/46 19/45/45
s 10
usemtl Wood_Dark
f 23/53/53 20/52/52 21/51/51
f 23/53/53 18/50/50 22/48/48
f 18/50/50 17/49/49 22/48/48
f 23/53/53 21/51/51 18/50/50
s 11
f 22/57/57 15/56/56 14/58/58
f 14/58/58 13/55/55 23/54/54
f 22/57/57 14/58/58 23/54/54
