mtllib Materials_Modular_Terrain.mtl
o object1
g object1
v -0.49124866 0.02984966 0.23598834
v -0.23658024 0.04108444 -0.14212099
v -0.24372372 0.03135905 -0.14722132
v -0.49839213 0.02012427 0.23088802
v -0.22577436 0.04263281 -0.13479689
v -0.48044277 0.03139802 0.24331245
v -0.47137742 0.02399518 0.24919828
v -0.21670900 0.03522996 -0.12891105
v -0.21542775 0.02381113 -0.12838738
v -0.47009617 0.01257635 0.24972196
v -0.47723964 0.00285096 0.24462164
v -0.22257123 0.01408574 -0.13348770
v -0.48804553 0.00130259 0.23729753
v -0.23337711 0.01253738 -0.14081181
v -0.49711088 0.00870544 0.23141169
v -0.24244246 0.01994022 -0.14669764
vt 0.00000000 0.00000000
vt 1.00000000 0.00000000
vt 1.00000000 1.00000000
vt 0.00000000 1.00000000
vt 0.00000000 1.00000000
vt 0.00000000 0.00000000
vt 1.00000000 0.00000000
vt 1.00000000 1.00000000
vt 0.00000000 0.00000000
vt 1.00000000 0.00000000
vt 1.00000000 1.00000000
vt 0.00000000 1.00000000
vt 0.00000000 1.00000000
vt 0.00000000 0.00000000
vt 1.00000000 0.00000000
vt 1.00000000 1.00000000
vt 0.00000000 0.00000000
vt 1.00000000 0.00000000
vt 1.00000000 1.00000000
vt 0.00000000 1.00000000
vt 0.00000000 1.00000000
vt 0.00000000 0.00000000
vt 1.00000000 0.00000000
vt 1.00000000 1.00000000
vt 0.00000000 0.00000000
vt 1.00000000 0.00000000
vt 1.00000000 1.00000000
vt 0.00000000 1.00000000
vt 0.00000000 0.30000000
vt 0.30000000 0.00000000
vt 0.70000000 0.00000000
vt 1.00000000 0.30000000
vt 1.00000000 0.70000000
vt 0.70000000 1.00000000
vt 0.30000000 1.00000000
vt 0.00000000 0.70000000
vt 0.00000000 1.00000000
vt 0.00000000 0.00000000
vt 1.00000000 0.00000000
vt 1.00000000 1.00000000
vt 0.00000000 0.30000000
vt 0.30000000 0.00000000
vt 0.70000000 0.00000000
vt 1.00000000 0.30000000
vt 1.00000000 0.70000000
vt 0.70000000 1.00000000
vt 0.30000000 1.00000000
vt 0.00000000 0.70000000
vn -0.62512981 0.66954557 -0.40115016
vn -0.62512981 0.66954557 -0.40115016
vn -0.62512981 0.66954557 -0.40115016
vn -0.62512981 0.66954557 -0.40115016
vn -0.11138988 0.99273337 -0.04552742
vn -0.11138988 0.99273337 -0.04552742
vn -0.11138988 0.99273337 -0.04552742
vn -0.11138988 0.99273337 -0.04552742
vn 0.45747095 0.82467043 0.33262442
vn 0.45747095 0.82467043 0.33262442
vn 0.45747095 0.82467043 0.33262442
vn 0.45747095 0.82467043 0.33262442
vn 0.82201457 0.11778571 0.55715220
vn 0.82201457 0.11778571 0.55715220
vn 0.82201457 0.11778571 0.55715220
vn 0.82201457 0.11778571 0.55715220
vn 0.62512981 -0.66954557 0.40115016
vn 0.62512981 -0.66954557 0.40115016
vn 0.62512981 -0.66954557 0.40115016
vn 0.62512981 -0.66954557 0.40115016
vn 0.11138988 -0.99273337 0.04552742
vn 0.11138988 -0.99273337 0.04552742
vn 0.11138988 -0.99273337 0.04552742
vn 0.11138988 -0.99273337 0.04552742
vn -0.45747095 -0.82467043 -0.33262442
vn -0.45747095 -0.82467043 -0.33262442
vn -0.45747095 -0.82467043 -0.33262442
vn -0.45747095 -0.82467043 -0.33262442
vn -0.55846606 -0.02463692 0.82916143
vn -0.55846606 -0.02463692 0.82916143
vn -0.55846606 -0.02463692 0.82916143
vn -0.55846606 -0.02463692 0.82916143
vn -0.55846606 -0.02463692 0.82916143
vn -0.55846606 -0.02463692 0.82916143
vn -0.55846606 -0.02463692 0.82916143
vn -0.55846606 -0.02463692 0.82916143
vn -0.82201457 -0.11778571 -0.55715220
vn -0.82201457 -0.11778571 -0.55715220
vn -0.82201457 -0.11778571 -0.55715220
vn -0.82201457 -0.11778571 -0.55715220
vn 0.55846606 0.02463692 -0.82916143
vn 0.55846606 0.02463692 -0.82916143
vn 0.55846606 0.02463692 -0.82916143
vn 0.55846606 0.02463692 -0.82916143
vn 0.55846606 0.02463692 -0.82916143
vn 0.55846606 0.02463692 -0.82916143
vn 0.55846606 0.02463692 -0.82916143
vn 0.55846606 0.02463692 -0.82916143
s 1
usemtl Wood_Dark
f 1/1/1 2/2/2 4/4/4
f 2/2/2 3/3/3 4/4/4
s 2
f 2/8/8 1/7/7 6/6/6
f 2/8/8 6/6/6 5/5/5
s 3
f 7/9/9 8/10/10 6/12/12
f 8/10/10 5/11/11 6/12/12
s 4
f 8/16/16 7/15/15 10/14/14
f 8/16/16 10/14/14 9/13/13
s 5
f 11/17/17 12/18/18 9/19/19
f 11/17/17 9/19/19 10/20/20
s 6
f 12/21/21 11/22/22 14/24/24
f 11/22/22 13/23/23 14/24/24
s 7
f 15/25/25 16/26/26 14/27/27
f 15/25/25 14/27/27 13/28/28
s 8
f 10/30/30 7/31/31 6/32/32
f 6/32/32 4/34/34 13/36/36
f 4/34/34 15/35/35 13/36/36
f 6/32/32 1/33/33 4/34/34
f 10/30/30 6/32/32 13/36/36
f 13/36/36 11/29/29 10/30/30
s 9
f 16/37/37 15/38/38 3/40/40
f 15/38/38 4/39/39 3/40/40
s 10
f 5/44/44 8/43/43 9/42/42
f 14/48/48 2/45/45 9/42/42
f 16/47/47 3/46/46 2/45/45
f 14/48/48 16/47/47 2/45/45
f 9/42/42 12/41/41 14/48/48
f 2/45/45 5/44/44 9/42/42
o object2
g object2
v -0.38891691 0.00076706 -0.17231183
v -0.38267674 0.00104235 -0.18157669
v -0.45000000 0.00000000 -0.20000000
v -0.39054390 0.01526716 -0.17297682
v -0.38430373 0.01554245 -0.18224168
v -0.33302989 0.02811715 -0.14257729
v -0.32275196 0.02857056 -0.15783706
v -0.32001863 0.00421040 -0.15671988
v -0.26686654 0.00913550 -0.12804042
v -0.27012051 0.03813569 -0.12937039
v -0.28268568 0.00843763 -0.10455355
v -0.33029656 0.00375699 -0.14146012
v -0.28472214 0.00805225 -0.11385379
v -0.28791648 0.03652098 -0.11515938
v -0.28593965 0.03743783 -0.10588352
v -0.28766711 0.00821787 -0.09715756
v -0.29092108 0.03721807 -0.09848753
v -0.28706943 0.04366326 -0.09570181
v -0.26259817 0.04474282 -0.13203459
v -0.26644982 0.03829763 -0.13482031
v -0.22657855 0.04990403 -0.10762090
v -0.26319585 0.00929743 -0.13349034
v -0.25804260 0.00414254 -0.13017263
v -0.22202299 0.00930376 -0.10575895
v -0.21817133 0.01574895 -0.10297323
v -0.22142530 0.04474915 -0.10430320
v -0.24649425 0.00822420 -0.06942616
v -0.28251386 0.00306299 -0.09383985
v -0.22184202 0.01558702 -0.09752331
v -0.23766116 0.01488915 -0.07403644
v -0.24264259 0.01466939 -0.06664045
v -0.21578701 0.01680961 -0.09245021
v -0.22835211 0.01612946 -0.07564682
v -0.23154645 0.04459819 -0.07695241
v -0.24091513 0.04388935 -0.07536641
v -0.17297317 0.01970137 -0.02944881
v -0.17293886 0.01975588 -0.02941765
v -0.17719991 0.05752943 -0.03112224
v -0.17724457 0.05757140 -0.03115735
v -0.21897231 0.04519773 -0.09375211
v -0.16019917 0.05836531 -0.05393699
v -0.15594106 0.02060234 -0.05223419
v -0.16014997 0.05832232 -0.05390531
v -0.15590342 0.02065713 -0.05220730
v -0.15542244 0.02471799 -0.04694790
v -0.15883376 0.05496660 -0.04831219
v -0.16791625 0.02405709 -0.03023478
v -0.17133645 0.05438435 -0.03160262
v -0.22509599 0.04458721 -0.09885328
v -0.24589656 0.04366959 -0.06797041
v -0.25104981 0.04882448 -0.07128812
vt 0.50000000 0.00000000
vt 1.00000000 0.00000000
vt 0.00000000 1.00000000
vt 0.50000000 0.00000000
vt 1.00000000 1.00000000
vt 0.00000000 1.00000000
vt 0.00000000 0.00000000
vt 1.00000000 1.00000000
vt 0.50000000 1.00000000
vt 0.28205128 1.00000000
vt 0.00000000 0.00000000
vt 0.43589744 0.00000000
vt 1.00000000 1.00000000
vt 0.20238095 1.00000000
vt 0.00000000 0.00000000
vt 1.00000000 0.00000000
vt 0.79761905 1.00000000
vt 0.08000000 1.00000000
vt 0.00000000 0.00000000
vt 1.00000000 0.00000000
vt 0.92000000 1.00000000
vt 0.00000000 0.00000000
vt 1.00000000 0.00000000
vt 0.78729572 1.00000000
vt 0.13758082 1.00000000
vt 0.23175153 0.11453865
vt 1.00000000 1.00000000
vt 0.00000000 1.00000000
vt 0.07215931 0.00000000
vt 0.92784069 0.00000000
vt 0.00000000 0.00000000
vt 1.00000000 0.00000000
vt 0.99083691 1.00000000
vt 0.00916309 1.00000000
vt 1.00000000 0.00000000
vt 1.00000000 1.00000000
vt 0.00000000 1.00000000
vt 0.00000000 0.00000000
vt 0.85000000 1.00000000
vt 0.20356262 1.00000000
vt 0.00000000 1.00000000
vt 0.00000000 0.00000000
vt 1.00000000 0.00000000
vt 1.00000000 1.00000000
vt 0.10000000 0.00000000
vt 0.90000000 0.00000000
vt 1.00000000 0.14285714
vt 1.00000000 0.85714286
vt 0.90000000 1.00000000
vt 0.10000000 1.00000000
vt 0.00000000 0.85714286
vt 0.00000000 0.14285714
vt 0.00000000 1.00000000
vt 0.00000000 0.00000000
vt 1.00000000 0.00000000
vt 1.00000000 1.00000000
vt 0.85000000 1.00000000
vt 0.20356262 1.00000000
vt 0.00000000 1.00000000
vt 0.00000000 0.00000000
vt 1.00000000 0.00000000
vt 1.00000000 1.00000000
vt 0.97194175 0.00000000
vt 1.00000000 1.00000000
vt 0.00000000 1.00000000
vt 0.23175153 0.13170426
vt 0.00916309 0.00000000
vt 0.99083691 0.00000000
vt 1.00000000 1.00000000
vt 0.00000000 1.00000000
vt 0.00000000 0.00000000
vt 0.99927515 0.00000000
vt 1.00000000 0.00137085
vt 0.99998034 0.99864671
vt 0.99926480 1.00000000
vt 0.00000000 1.00000000
vt 0.00003336 0.99999407
vt 0.00000000 0.00000000
vt 0.99999008 0.00000000
vt 1.00000000 1.00000000
vt 0.99925399 1.00000000
vt 0.00000004 0.99999446
vt 0.00000000 0.00000551
vt 0.99926458 0.00000000
vt 1.00000000 0.00139478
vt 0.99998040 0.99862230
vt 0.90137782 0.00000000
vt 1.00000000 1.00000000
vt 0.00000000 1.00000000
vt 0.09828250 0.00000000
vt 0.00000000 0.24223637
vt 0.59437791 0.00000000
vt 1.00000000 0.75973411
vt 0.40457006 1.00000000
vt 0.00000000 0.98727719
vt 0.13377267 0.00000000
vt 0.86715011 0.00000000
vt 1.00000000 0.98692177
vt 0.99989784 1.00000000
vt 0.00008848 1.00000000
vt 0.90126319 0.00000000
vt 1.00000000 1.00000000
vt 0.00000000 1.00000000
vt 0.09839638 0.00000000
vt 0.00000000 0.98708445
vt 0.13327492 0.00000000
vt 0.86665247 0.00000000
vt 1.00000000 0.98710946
vt 0.99990547 1.00000000
vt 0.00009600 1.00000000
vt 0.97194175 1.00000000
vt 0.23175153 0.86829574
vt 0.00000000 0.00000000
vt 1.00000000 0.00000000
vt 0.00003340 0.00000600
vt 0.99998896 0.00000000
vt 1.00000000 1.00000000
vt 0.00000000 1.00000000
vt 0.01055296 0.00000000
vt 0.98944704 0.00000000
vt 1.00000000 1.00000000
vt 0.00000000 1.00000000
vt 1.00000000 0.00000000
vt 1.00000000 1.00000000
vt 0.00000000 1.00000000
vt 0.00000000 0.00000000
vt 0.00000000 1.00000000
vt 0.00000000 0.00000000
vt 1.00000000 0.00000000
vt 1.00000000 1.00000000
vt 1.00000000 0.00000000
vt 1.00000000 1.00000000
vt 0.00000000 1.00000000
vt 0.00000000 0.00000000
vt 0.20356262 0.00000000
vt 0.85000000 0.00000000
vt 0.00000000 1.00000000
vt 0.00000000 0.00000000
vt 1.00000000 0.00000000
vt 1.00000000 1.00000000
vt 0.10000000 0.00000000
vt 0.90000000 0.00000000
vt 1.00000000 0.14285714
vt 1.00000000 0.85714286
vt 0.90000000 1.00000000
vt 0.10000000 1.00000000
vt 0.00000000 0.85714286
vt 0.00000000 0.14285714
vt 1.00000000 0.00000000
vt 1.00000000 1.00000000
vt 0.00000000 1.00000000
vt 0.00000000 0.00000000
vt 0.20356262 0.00000000
vt 0.85000000 0.00000000
vt 0.00000000 1.00000000
vt 0.00000000 0.00000000
vt 1.00000000 0.00000000
vt 1.00000000 1.00000000
vt 0.23175153 0.88546135
vt 0.13758082 0.00000000
vt 0.78729572 0.00000000
vt 1.00000000 1.00000000
vt 0.00000000 1.00000000
vt 0.00000000 1.00000000
vt 0.20238095 0.00000000
vt 0.79761905 0.00000000
vt 1.00000000 1.00000000
vt 0.00000000 1.00000000
vt 0.28205128 0.00000000
vt 1.00000000 0.00000000
vt 0.43589744 1.00000000
vt 0.00000000 0.00000000
vt 1.00000000 0.00000000
vt 0.50000000 1.00000000
vn 0.01993227 -0.99966881 -0.01627821
vn 0.01993227 -0.99966881 -0.01627821
vn 0.01993227 -0.99966881 -0.01627821
vn -0.41280109 -0.00454809 0.91080984
vn -0.41280109 -0.00454809 0.91080984
vn -0.41280109 -0.00454809 0.91080984
vn -0.20148492 0.97365430 -0.10677613
vn -0.20148492 0.97365430 -0.10677613
vn -0.20148492 0.97365430 -0.10677613
vn -0.17300454 0.98103780 -0.08737432
vn -0.17300454 0.98103780 -0.08737432
vn 0.36880327 -0.00124614 -0.92950664
vn 0.36880327 -0.00124614 -0.92950664
vn 0.36880327 -0.00124614 -0.92950664
vn 0.36880327 -0.00124614 -0.92950664
vn 0.47390099 0.01279453 -0.88048518
vn 0.47390099 0.01279453 -0.88048518
vn 0.47390099 0.01279453 -0.88048518
vn 0.47390099 0.01279453 -0.88048518
vn 0.07944594 -0.99655266 0.02389869
vn 0.07944594 -0.99655266 0.02389869
vn 0.07944594 -0.99655266 0.02389869
vn 0.07944594 -0.99655266 0.02389869
vn 0.07944594 -0.99655266 0.02389869
vn -0.51671983 -0.01872424 0.85594977
vn -0.51671983 -0.01872424 0.85594977
vn -0.51671983 -0.01872424 0.85594977
vn -0.51671983 -0.01872424 0.85594977
vn -0.97118813 -0.09903148 0.21676343
vn -0.97118813 -0.09903148 0.21676343
vn -0.97118813 -0.09903148 0.21676343
vn -0.97118813 -0.09903148 0.21676343
vn -0.82201457 -0.11778571 -0.55715220
vn -0.82201457 -0.11778571 -0.55715220
vn -0.82201457 -0.11778571 -0.55715220
vn -0.82201457 -0.11778571 -0.55715220
vn -0.67587433 0.59304212 -0.43760133
vn -0.67587433 0.59304212 -0.43760133
vn -0.67587433 0.59304212 -0.43760133
vn -0.67587433 0.59304212 -0.43760133
vn -0.67587433 0.59304212 -0.43760133
vn -0.67587433 0.59304212 -0.43760133
vn 0.55846606 0.02463692 -0.82916143
vn 0.55846606 0.02463692 -0.82916143
vn 0.55846606 0.02463692 -0.82916143
vn 0.55846606 0.02463692 -0.82916143
vn 0.55846606 0.02463692 -0.82916143
vn 0.55846606 0.02463692 -0.82916143
vn 0.55846606 0.02463692 -0.82916143
vn 0.55846606 0.02463692 -0.82916143
vn 0.11138988 -0.99273337 0.04552742
vn 0.11138988 -0.99273337 0.04552742
vn 0.11138988 -0.99273337 0.04552742
vn 0.11138988 -0.99273337 0.04552742
vn 0.67587433 -0.59304212 0.43760133
vn 0.67587433 -0.59304212 0.43760133
vn 0.67587433 -0.59304212 0.43760133
vn 0.67587433 -0.59304212 0.43760133
vn 0.67587433 -0.59304212 0.43760133
vn 0.67587433 -0.59304212 0.43760133
vn 0.14316643 -0.98742221 0.06708772
vn 0.14316643 -0.98742221 0.06708772
vn 0.14316643 -0.98742221 0.06708772
vn 0.14316643 -0.98742221 0.06708772
vn 0.16191796 0.06333025 0.98476995
vn 0.16191796 0.06333025 0.98476995
vn 0.16191796 0.06333025 0.98476995
vn 0.16191796 0.06333025 0.98476995
vn -0.63877400 -0.03642841 0.76853155
vn -0.63871596 -0.03736854 0.76853466
vn -0.63871632 -0.03736911 0.76853433
vn -0.63900023 -0.03741185 0.76829621
vn -0.63900069 -0.03741141 0.76829584
vn -0.63915277 -0.03648548 0.76821386
vn -0.16191794 0.98304173 -0.08609024
vn -0.16211820 0.98299545 -0.08624167
vn -0.16170436 0.98301983 -0.08673929
vn -0.16155666 0.98305397 -0.08662759
vn 0.55647450 0.02529978 -0.83047941
vn 0.55652862 0.02435950 -0.83047126
vn 0.55693712 0.02441798 -0.83019565
vn 0.55678158 0.02534376 -0.83027222
vn 0.55678107 0.02534422 -0.83027255
vn 0.55647490 0.02530036 -0.83047913
vn 0.98021282 0.10291838 -0.16908763
vn 0.98021286 0.10289041 -0.16910447
vn 0.98024320 0.10290210 -0.16892137
vn 0.98023719 0.10292777 -0.16894058
vn 0.79328335 0.11641764 0.59761900
vn 0.79328335 0.11641764 0.59761900
vn 0.79328335 0.11641764 0.59761900
vn 0.79328335 0.11641764 0.59761900
vn 0.46201189 0.80427756 0.37374138
vn 0.46203098 0.80427059 0.37373278
vn 0.46207616 0.80422959 0.37376515
vn 0.46207350 0.80422166 0.37378551
vn 0.46207335 0.80422166 0.37378570
vn 0.46201176 0.80427755 0.37374157
vn 0.11207174 0.05738269 0.99204191
vn 0.11205053 0.05740756 0.99204287
vn 0.11223468 0.05742732 0.99202091
vn 0.11221958 0.05739856 0.99202428
vn 0.62405246 -0.64505845 0.44097406
vn 0.62404742 -0.64504843 0.44099586
vn 0.62408601 -0.64498978 0.44102703
vn 0.62410508 -0.64497847 0.44101657
vn 0.62410524 -0.64497847 0.44101635
vn 0.62405262 -0.64505843 0.44097385
vn -0.07944594 0.99655266 -0.02389869
vn -0.07944594 0.99655266 -0.02389869
vn -0.07944594 0.99655266 -0.02389869
vn -0.07944594 0.99655266 -0.02389869
vn 0.06016652 -0.99817773 0.00460637
vn 0.05976582 -0.99819886 0.00520466
vn 0.05993315 -0.99818816 0.00533018
vn 0.06039343 -0.99816322 0.00477651
vn 0.63748801 0.03623476 -0.76960775
vn 0.63748801 0.03623476 -0.76960775
vn 0.63748801 0.03623476 -0.76960775
vn 0.63748801 0.03623476 -0.76960775
vn 0.82201457 0.11778571 0.55715220
vn 0.82201457 0.11778571 0.55715220
vn 0.82201457 0.11778571 0.55715220
vn 0.82201457 0.11778571 0.55715220
vn 0.82201457 0.11778571 0.55715220
vn 0.82201457 0.11778571 0.55715220
vn 0.82201457 0.11778571 0.55715220
vn 0.82201457 0.11778571 0.55715220
vn 0.52350609 0.76490024 0.37532518
vn 0.52350609 0.76490024 0.37532518
vn 0.52350609 0.76490024 0.37532518
vn 0.52350609 0.76490024 0.37532518
vn 0.52350609 0.76490024 0.37532518
vn 0.52350609 0.76490024 0.37532518
vn -0.11138988 0.99273337 -0.04552742
vn -0.11138988 0.99273337 -0.04552742
vn -0.11138988 0.99273337 -0.04552742
vn -0.11138988 0.99273337 -0.04552742
vn -0.55846606 -0.02463692 0.82916143
vn -0.55846606 -0.02463692 0.82916143
vn -0.55846606 -0.02463692 0.82916143
vn -0.55846606 -0.02463692 0.82916143
vn -0.55846606 -0.02463692 0.82916143
vn -0.55846606 -0.02463692 0.82916143
vn -0.55846606 -0.02463692 0.82916143
vn -0.55846606 -0.02463692 0.82916143
vn -0.52350609 -0.76490024 -0.37532518
vn -0.52350609 -0.76490024 -0.37532518
vn -0.52350609 -0.76490024 -0.37532518
vn -0.52350609 -0.76490024 -0.37532518
vn -0.52350609 -0.76490024 -0.37532518
vn -0.52350609 -0.76490024 -0.37532518
vn -0.82201457 -0.11778571 -0.55715220
vn -0.82201457 -0.11778571 -0.55715220
vn -0.82201457 -0.11778571 -0.55715220
vn -0.82201457 -0.11778571 -0.55715220
vn -0.14316643 0.98742221 -0.06708772
vn -0.14316643 0.98742221 -0.06708772
vn -0.14316643 0.98742221 -0.06708772
vn -0.46523823 -0.01161046 0.88510936
vn -0.46523823 -0.01161046 0.88510936
vn -0.46523823 -0.01161046 0.88510936
vn -0.46523823 -0.01161046 0.88510936
vn 0.26413171 -0.01458998 -0.96437626
vn 0.26413171 -0.01458998 -0.96437626
vn 0.26413171 -0.01458998 -0.96437626
s 1
usemtl Iron_Grey_-_Dark
f 19/51/51 18/50/50 17/49/49
f 18/219/50 28/217/71 17/216/49
f 29/74/72 28/73/71 24/72/70
f 29/74/72 24/72/70 25/71/69
f 25/71/69 27/70/68 29/74/72
f 18/219/50 24/218/70 28/217/71
s 2
f 17/54/54 20/53/53 19/52/52
s 3
f 20/57/57 21/56/56 19/55/55
f 23/61/59 21/60/56 22/58/58
f 26/210/206 23/209/59 30/207/205
f 30/207/205 31/211/207 26/210/206
f 23/209/59 22/208/58 30/207/205
f 21/60/56 20/59/57 22/58/58
s 4
f 21/65/63 23/64/62 18/62/60
f 23/64/62 24/63/61 18/62/60
s 5
f 23/69/67 26/68/66 25/67/65
f 23/69/67 25/67/65 24/66/64
s 6
f 22/78/76 28/77/75 29/76/74
f 22/78/76 29/76/74 30/75/73
s 7
f 27/79/77 31/80/78 29/82/80
f 31/80/78 30/81/79 29/82/80
s 8
f 31/83/81 27/84/82 32/85/83
f 31/83/81 32/85/83 33/86/84
s 9
f 35/91/89 36/92/90 26/87/85
f 31/88/86 34/90/88 35/91/89
f 31/88/86 33/89/87 34/90/88
f 35/91/89 26/87/85 31/88/86
s 10
f 38/96/94 36/95/93 35/94/92
f 41/99/97 40/98/96 38/96/94
f 37/93/91 42/100/98 41/99/97
f 40/98/96 39/97/95 38/96/94
f 38/96/94 37/93/91 41/99/97
f 38/96/94 35/94/92 37/93/91
s 11
f 43/101/99 44/102/100 40/104/102
f 44/102/100 39/103/101 40/104/102
s 12
f 40/109/107 41/110/108 45/105/103
f 46/106/104 43/108/106 40/109/107
f 46/106/104 47/107/105 43/108/106
f 40/109/107 45/105/103 46/106/104
s 13
f 45/112/110 48/111/109 49/114/112
f 49/114/112 46/113/111 45/112/110
s 14
f 49/115/113 50/116/114 46/118/116
f 50/116/114 51/117/115 46/118/116
s 15
f 50/124/122 49/119/117 52/120/118
f 52/120/118 53/121/119 55/123/121
f 53/121/119 54/122/120 55/123/121
f 55/123/121 50/124/122 52/120/118
s 16
f 56/125/123 50/126/124 57/128/126
f 50/126/124 55/127/125 57/128/126
s 17
f 48/130/128 56/131/129 57/132/130
f 58/129/127 57/132/130 59/133/131
f 59/133/131 60/134/132 58/129/127
f 58/129/127 48/130/128 57/132/130
s 18
f 61/135/133 60/136/134 59/137/135
f 61/135/133 59/137/135 62/138/136
s 19
f 63/140/138 61/139/137 62/142/140
f 62/142/140 64/141/139 63/140/138
s 20
f 64/144/142 62/145/143 59/146/144
f 54/143/141 59/146/144 57/147/145
f 57/147/145 55/148/146 54/143/141
f 54/143/141 64/144/142 59/146/144
s 21
f 64/149/147 54/150/148 53/151/149
f 64/149/147 53/151/149 63/152/150
s 22
f 60/153/151 61/154/152 63/155/153
f 60/153/151 53/156/154 58/158/156
f 53/156/154 52/157/155 58/158/156
f 60/153/151 63/155/153 53/156/154
s 23
f 50/160/158 56/159/157 65/162/160
f 65/162/160 51/161/159 50/160/158
s 24
f 48/163/161 58/164/162 52/165/163
f 48/163/161 52/165/163 49/166/164
s 25
f 45/170/168 65/169/167 48/167/165
f 65/169/167 56/168/166 48/167/165
s 26
f 46/171/169 51/172/170 47/174/172
f 51/172/170 66/173/171 47/174/172
s 27
f 65/175/173 45/176/174 41/177/175
f 65/175/173 41/177/175 42/178/176
s 28
f 65/184/182 42/179/177 37/180/178
f 37/180/178 67/181/179 51/183/181
f 67/181/179 66/182/180 51/183/181
f 51/183/181 65/184/182 37/180/178
s 29
f 34/185/183 67/186/184 37/187/185
f 34/185/183 37/187/185 35/188/186
s 30
f 33/191/189 32/192/190 44/193/191
f 34/190/188 33/191/189 43/194/192
f 34/190/188 43/194/192 47/195/193
f 47/195/193 66/196/194 67/189/187
f 47/195/193 67/189/187 34/190/188
f 33/191/189 44/193/191 43/194/192
s 31
f 25/202/200 38/197/195 39/198/196
f 39/198/196 44/199/197 27/201/199
f 44/199/197 32/200/198 27/201/199
f 27/201/199 25/202/200 39/198/196
s 32
f 25/203/201 26/204/202 38/206/204
f 26/204/202 36/205/203 38/206/204
s 33
f 22/215/211 20/214/210 17/213/209
f 22/215/211 17/213/209 28/212/208
s 34
f 19/222/214 21/221/213 18/220/212
