mtllib Materials_Modular_Terrain.mtl
o object1
g object1
v -0.15000000 1.00000000 0.53629817
v -0.16327329 0.85399128 0.54232495
v -0.14999113 0.85226601 0.51891403
v -0.14999772 0.85581234 0.56704633
v -0.15000000 1.00000000 0.62500000
v -0.15000000 0.00000000 0.62500000
v -0.15000000 0.00000000 0.37500000
v -0.15000000 1.00000000 0.37500000
v -0.14998201 0.59803992 0.53491603
v -0.14998220 0.59814175 0.53629817
v -0.15036341 0.59808946 0.53558828
v -0.40000000 1.00000000 0.37500000
v -0.40000000 0.55000000 0.37500000
v -0.36875000 0.35000000 0.37500000
v -0.40000000 0.15000000 0.37500000
v -0.40000000 0.00000000 0.37500000
v -0.40000000 0.35000000 0.40625000
v -0.40000000 1.00000000 0.62500000
v -0.40000000 0.00000000 0.62500000
vt 1.00000000 1.00000000
vt 0.00000000 1.00000000
vt 0.00000000 0.00000000
vt 0.14418766 0.23181470
vt 0.00000000 0.35480734
vt 0.00000000 0.00000000
vt 1.00000000 0.00000000
vt 1.00000000 1.00000000
vt 0.00000000 1.00000000
vt 0.00000000 0.35480734
vt 0.14773399 0.42434388
vt 0.40196008 0.36033587
vt 0.40185825 0.35480734
vt 1.00000000 0.02871531
vt 0.00000000 1.00000000
vt 0.00000000 0.00000000
vt 1.00000000 0.00000000
vt 0.00000000 1.00000000
vt 0.48620689 0.00000000
vt 1.00000000 1.00000000
vt 0.00000000 0.00000000
vt 0.45000000 0.00000000
vt 0.65000000 0.12500000
vt 0.85000000 0.00000000
vt 1.00000000 0.00000000
vt 1.00000000 1.00000000
vt 0.00000000 1.00000000
vt 1.00000000 1.00000000
vt 0.00000000 0.80000000
vt 1.00000000 0.00000000
vt 1.00000000 0.00000000
vt 1.00000000 1.00000000
vt 0.00000000 0.80000000
vt 0.85000000 1.00000000
vt 0.65000000 0.87500000
vt 0.45000000 1.00000000
vt 0.00000000 1.00000000
vt 0.00000000 0.00000000
vt 1.00000000 0.00000000
vt 1.00000000 1.00000000
vt 0.00000000 1.00000000
vt 0.00000000 0.00000000
vt 1.00000000 0.00000000
vt 1.00000000 1.00000000
vt 0.00000000 0.00000000
vt 1.00000000 0.97128469
vt 1.00000000 1.00000000
vt 0.00000000 1.00000000
vt 0.00000000 1.00000000
vt 0.00000000 0.00000000
vt 1.00000000 0.00000000
vn 0.86643837 -0.05829782 0.49586885
vn 0.86643837 -0.05829782 0.49586885
vn 0.86643837 -0.05829782 0.49586885
vn 1.00000000 0.00000000 0.00000000
vn 1.00000000 0.00000000 0.00000000
vn 1.00000000 0.00000000 0.00000000
vn 1.00000000 0.00000000 0.00000000
vn 1.00000000 0.00000000 0.00000000
vn 1.00000000 0.00000000 0.00000000
vn 1.00000000 0.00000000 0.00000000
vn 1.00000000 0.00000000 0.00000000
vn 1.00000000 0.00000000 0.00000000
vn 0.87783255 0.05680530 -0.47558719
vn 0.87783255 0.05680530 -0.47558719
vn 0.87783255 0.05680530 -0.47558719
vn 0.87783255 0.05680530 -0.47558719
vn 0.00002844 0.99729672 -0.07347956
vn 0.00002844 0.99729672 -0.07347956
vn 0.00002844 0.99729672 -0.07347956
vn 0.00000000 0.00000000 -1.00000000
vn 0.00000000 0.00000000 -1.00000000
vn 0.00000000 0.00000000 -1.00000000
vn 0.00000000 0.00000000 -1.00000000
vn 0.00000000 0.00000000 -1.00000000
vn 0.00000000 0.00000000 -1.00000000
vn 0.00000000 0.00000000 -1.00000000
vn -0.70283006 0.10981720 -0.70283006
vn -0.70283006 0.10981720 -0.70283006
vn -0.70283006 0.10981720 -0.70283006
vn -0.70283006 -0.10981720 -0.70283006
vn -0.70283006 -0.10981720 -0.70283006
vn -0.70283006 -0.10981720 -0.70283006
vn -1.00000000 -0.00000000 0.00000000
vn -1.00000000 -0.00000000 0.00000000
vn -1.00000000 -0.00000000 0.00000000
vn -1.00000000 -0.00000000 0.00000000
vn -1.00000000 -0.00000000 0.00000000
vn -1.00000000 -0.00000000 0.00000000
vn -1.00000000 -0.00000000 0.00000000
vn 0.00000000 0.00000000 1.00000000
vn 0.00000000 0.00000000 1.00000000
vn 0.00000000 0.00000000 1.00000000
vn 0.00000000 0.00000000 1.00000000
vn 0.87032829 0.03096803 0.49149735
vn 0.87032829 0.03096803 0.49149735
vn 0.87032829 0.03096803 0.49149735
vn 0.87032829 0.03096803 0.49149735
vn 0.87968900 -0.09916796 -0.46509460
vn 0.87968900 -0.09916796 -0.46509460
vn 0.87968900 -0.09916796 -0.46509460
s 1
usemtl Wood_Light
f 1/1/1 2/2/2 3/3/3
s 2
usemtl Wood_Dark
f 4/4/4 1/5/5 5/6/6
f 5/6/6 6/7/7 10/13/12
f 6/7/7 9/12/11 10/13/12
f 7/8/8 8/9/9 9/12/11
f 8/9/9 3/11/10 9/12/11
f 6/7/7 7/8/8 9/12/11
f 8/9/9 1/10/5 3/11/10
f 10/13/12 4/4/4 5/6/6
s 3
usemtl Wood_Light
f 11/17/16 2/16/15 10/14/13
f 2/16/15 4/15/14 10/14/13
s 4
f 9/18/17 11/19/18 10/20/19
s 5
usemtl Wood_Dark
f 7/26/25 16/25/24 15/24/23
f 8/27/26 7/26/25 14/23/22
f 14/23/22 13/22/21 8/27/26
f 13/22/21 12/21/20 8/27/26
f 7/26/25 15/24/23 14/23/22
s 6
usemtl Wood_Light
f 15/30/29 17/29/28 14/28/27
s 7
f 13/31/30 14/32/31 17/33/32
s 8
usemtl Wood_Dark
f 15/34/33 16/40/39 19/39/38
f 19/39/38 18/38/37 17/35/34
f 18/38/37 13/36/35 17/35/34
f 18/38/37 12/37/36 13/36/35
f 17/35/34 15/34/33 19/39/38
s 9
f 5/41/40 18/42/41 6/44/43
f 18/42/41 19/43/42 6/44/43
s 10
usemtl Wood_Light
f 2/48/47 11/47/46 3/45/44
f 11/47/46 9/46/45 3/45/44
s 11
f 4/49/48 2/50/49 1/51/50
