mtllib Materials_Modular_Terrain.mtl
o object1
g object1
v 0.50000000 0.00000000 -0.36602540
v 0.42317241 0.04894348 -0.09988684
v 0.00000000 0.04894348 -0.19098301
v 0.00000000 0.00000000 -0.50000000
v -0.50000000 -0.00000000 -0.50000000
v -0.50000000 0.04894348 -0.19098301
v 0.00000000 0.19098301 0.08778525
v -0.50000000 0.19098301 0.08778525
v 0.00000000 0.41221475 0.30901699
v -0.50000000 0.41221475 0.30901699
v 0.00000000 0.69098301 0.45105652
v -0.50000000 0.69098301 0.45105652
v 0.00000000 1.00000000 0.50000000
v -0.50000000 1.00000000 0.50000000
v 0.26354900 0.69098301 0.45306488
v 0.25138071 1.00000000 0.49521709
v 0.45420585 0.69098301 0.47552826
v 0.43301270 1.00000000 0.50000000
v 0.50000000 1.00000000 0.50000000
v 0.56698730 0.50000000 0.50000000
v 0.51571077 0.41221475 0.40450850
v 0.75000000 0.13397460 0.50000000
v 0.61150692 0.19098301 0.29389263
v 0.29886277 0.41221475 0.33073441
v 0.35386525 0.19098301 0.14020023
v 0.73221712 0.04894348 0.15450850
v 1.00000000 0.00000000 0.50000000
v 0.86602540 -0.00000000 -0.00000000
vt 1.00000000 0.00000000
vt 1.00000000 1.00000000
vt 0.00000000 1.00000000
vt 0.00000000 0.00000000
vt 0.00000000 1.00000000
vt 0.00000000 0.00000000
vt 1.00000000 0.00000000
vt 1.00000000 1.00000000
vt 0.00000000 1.00000000
vt 0.00000000 0.00000000
vt 1.00000000 0.00000000
vt 1.00000000 1.00000000
vt 0.00000000 1.00000000
vt 0.00000000 0.00000000
vt 1.00000000 0.00000000
vt 1.00000000 1.00000000
vt 0.00000000 1.00000000
vt 0.00000000 0.00000000
vt 1.00000000 0.00000000
vt 1.00000000 1.00000000
vt 0.00000000 1.00000000
vt 0.00000000 0.00000000
vt 1.00000000 0.00000000
vt 1.00000000 1.00000000
vt 1.00000000 0.00000000
vt 1.00000000 1.00000000
vt 0.00000000 1.00000000
vt 0.00000000 0.00000000
vt 0.00000000 1.00000000
vt 0.00000000 0.00000000
vt 1.00000000 0.00000000
vt 1.00000000 1.00000000
vt 0.00000000 0.00000000
vt 1.00000000 0.68362435
vt 0.00000000 1.00000000
vt 0.00000000 1.00000000
vt 0.00000000 0.00000000
vt 1.00000000 0.59508224
vt 0.25627141 0.00000000
vt 1.00000000 1.00000000
vt 0.00000000 0.79233405
vt 0.00000000 1.00000000
vt 0.00000000 0.00000000
vt 1.00000000 0.86416902
vt 0.46330949 1.00000000
vt 0.00000000 0.00000000
vt 1.00000000 0.34493227
vt 0.00000000 1.00000000
vt 0.00000000 0.00000000
vt 1.00000000 0.00000000
vt 1.00000000 1.00000000
vt 0.00000000 1.00000000
vt 0.00000000 0.00000000
vt 1.00000000 0.00000000
vt 1.00000000 1.00000000
vt 0.59656279 1.00000000
vt 0.00000000 0.22403236
vt 1.00000000 0.00000000
vt 1.00000000 0.91365620
vt 0.00000000 1.00000000
vt 0.00000000 0.00000000
vt 1.00000000 0.52399274
vt 0.00000000 1.00000000
vt 0.69098301 0.00000000
vt 0.00000000 1.00000000
vt 0.00000000 0.00000000
vt 1.00000000 0.00000000
vt 1.00000000 1.00000000
vt 1.00000000 0.00000000
vt 1.00000000 1.00000000
vt 0.00000000 1.00000000
vt 0.00000000 0.00000000
vt 1.00000000 0.00000000
vt 1.00000000 1.00000000
vt 0.00000000 1.00000000
vt 0.00000000 0.00000000
vt 1.00000000 0.00000000
vt 1.00000000 1.00000000
vt 0.00000000 1.00000000
vt 0.00000000 0.00000000
vt 0.00000000 1.00000000
vt 0.00000000 0.00000000
vt 1.00000000 0.00000000
vt 1.00000000 1.00000000
vn -0.04504067 -0.98474145 0.16809406
vn -0.03670119 -0.98467578 0.17048938
vn -0.03365651 -0.98712877 0.15634584
vn -0.04187971 -0.98682180 0.15629722
vn 0.00000000 -0.98768834 0.15643447
vn 0.00000000 -0.98768834 0.15643447
vn -0.00000000 -0.89100652 0.45399050
vn -0.00000000 -0.89100652 0.45399050
vn -0.00000000 -0.89100652 0.45399050
vn -0.00000000 -0.89100652 0.45399050
vn -0.00000000 -0.70710678 0.70710678
vn -0.00000000 -0.70710678 0.70710678
vn -0.00000000 -0.70710678 0.70710678
vn -0.00000000 -0.70710678 0.70710678
vn -0.00000000 -0.45399050 0.89100652
vn -0.00000000 -0.45399050 0.89100652
vn -0.00000000 -0.45399050 0.89100652
vn -0.00000000 -0.45399050 0.89100652
vn -0.00000000 -0.15643447 0.98768834
vn -0.00000000 -0.15643447 0.98768834
vn -0.00000000 -0.15643447 0.98768834
vn -0.00000000 -0.15643447 0.98768834
vn -0.00755002 -0.13544380 0.99075626
vn 0.01885051 -0.13440301 0.99074744
vn -0.11588024 -0.13872359 0.98352811
vn -0.11657456 -0.08634943 0.98942112
vn -0.02623797 -0.08070600 0.99639255
vn -0.00000000 -0.07894506 0.99687897
vn -0.00000000 -0.07894506 0.99687897
vn -0.27003928 -0.03617840 0.96216938
vn -0.27003928 -0.03617840 0.96216938
vn -0.27003928 -0.03617840 0.96216938
vn -0.68181829 -0.31823554 0.65867288
vn -0.68181829 -0.31823554 0.65867288
vn -0.68181829 -0.31823554 0.65867288
vn -0.66766743 -0.33383371 0.66541360
vn -0.76884636 -0.51940005 0.37295961
vn -0.76884636 -0.51940005 0.37295961
vn -0.76884636 -0.51940005 0.37295961
vn -0.23994671 -0.66707922 0.70528781
vn -0.38707914 -0.65507724 0.64887869
vn -0.42929723 -0.54571657 0.71965083
vn -0.27461738 -0.52251137 0.80719711
vn -0.25956849 -0.86214208 0.43512669
vn -0.33455916 -0.85022664 0.40642937
vn -0.38791962 -0.79211060 0.47125277
vn -0.31568561 -0.78758595 0.52919841
vn -0.62905342 -0.74670542 0.21615459
vn -0.62905342 -0.74670542 0.21615459
vn -0.62905342 -0.74670542 0.21615459
vn -0.45917493 -0.85683209 0.23451471
vn -0.45917493 -0.85683209 0.23451471
vn -0.45917493 -0.85683209 0.23451471
vn -0.26834751 -0.96063495 0.07190350
vn -0.26834751 -0.96063495 0.07190350
vn -0.26834751 -0.96063495 0.07190350
vn -0.10668011 -0.41084474 0.90544241
vn -0.29302500 -0.41508130 0.86130359
vn -0.30744270 -0.29805594 0.90368227
vn -0.11271217 -0.26858383 0.95663927
vn -0.06616992 -0.40797317 0.91059290
vn -0.00697550 -0.40256800 0.91536350
vn -0.06461135 -0.45304189 0.88914477
vn -0.10954032 -0.66414951 0.73953117
vn -0.05448961 -0.65935431 0.74985517
vn -0.10416778 -0.70325994 0.70325994
vn -0.10418207 -0.86886593 0.48396083
vn -0.07289851 -0.86745035 0.49215414
vn -0.06709414 -0.88899877 0.45296750
vn -0.09726696 -0.88678166 0.45183783
vn -0.12011213 -0.98197860 0.14591470
vn -0.13988609 -0.98023659 0.13988609
vn -0.16506585 -0.97237160 0.16506585
vn -0.14804309 -0.97249099 0.17984581
s 1
usemtl Rock
f 1/1/1 2/2/2 3/3/3
f 6/8/6 4/6/4 3/5/3
f 6/8/6 5/7/5 4/6/4
f 1/1/1 3/3/3 4/4/4
s 2
f 8/12/10 6/11/9 3/10/8
f 8/12/10 3/10/8 7/9/7
s 3
f 10/16/14 8/15/13 7/14/12
f 10/16/14 7/14/12 9/13/11
f 24/74/65 9/75/11 7/76/66
f 25/73/64 24/74/65 7/76/66
s 4
f 12/20/18 10/19/17 9/18/16
f 12/20/18 9/18/16 11/17/15
f 15/70/62 11/71/15 9/72/63
f 24/69/61 15/70/62 9/72/63
s 5
f 14/24/22 12/23/21 11/22/20
f 16/26/24 13/27/19 11/28/20
f 16/29/24 15/30/25 18/32/27
f 18/35/27 17/34/29 19/33/28
f 15/30/25 17/31/26 18/32/27
f 15/25/23 16/26/24 11/28/20
f 14/24/22 11/22/20 13/21/19
s 6
f 20/36/30 19/37/31 17/38/32
s 7
f 17/39/33 21/40/34 20/41/35
f 21/44/34 22/43/36 20/42/35
s 8
f 23/47/39 22/46/38 21/45/37
s 9
f 24/48/40 25/49/41 21/51/43
f 25/49/41 23/50/42 21/51/43
s 10
f 25/52/44 2/53/45 26/54/46
f 25/52/44 26/54/46 23/55/47
s 11
f 26/58/50 22/57/49 23/56/48
s 12
f 27/61/53 22/60/52 26/59/51
s 13
f 28/62/54 27/63/55 26/64/56
s 14
f 15/65/57 24/66/58 17/68/60
f 24/66/58 21/67/59 17/68/60
s 15
f 2/77/67 25/78/68 7/79/69
f 2/77/67 7/79/69 3/80/70
s 16
f 2/81/71 1/82/72 28/83/73
f 2/81/71 28/83/73 26/84/74
