mtllib Materials_Modular_Terrain.mtl
o object1
g object1
v -0.15000000 0.25097902 0.54668507
v -0.15000000 0.45186038 0.53468819
v -0.15000000 0.45195804 0.53402542
v -0.15000000 0.25097902 0.52769382
v -0.15000000 0.25097902 0.37500000
v -0.15000000 1.00000000 0.37500000
v -0.15000000 1.00000000 0.62500000
v -0.15000000 0.25097902 0.62500000
v -0.15000000 0.19773313 0.52601638
v -0.15000000 0.08800147 0.53246679
v -0.15000000 0.05000000 0.53470264
v -0.15000000 0.19418766 0.55007672
v -0.15000000 0.00000000 0.62500000
v -0.15000000 0.00000000 0.37500000
v -0.16327557 0.19600872 0.53771603
v -0.15036569 0.45191054 0.53434770
v -0.40000000 0.00000000 0.37500000
v -0.40000000 0.70000000 0.37500000
v -0.36875000 0.90000000 0.37500000
v -0.40000000 1.00000000 0.37500000
v -0.40000000 0.90000000 0.40625000
v -0.40000000 0.00000000 0.62500000
v -0.40000000 1.00000000 0.62500000
vt 0.74902098 0.31325971
vt 0.54813962 0.36124723
vt 0.54804196 0.36389832
vt 0.74902098 0.38922471
vt 0.74902098 1.00000000
vt 0.00000000 1.00000000
vt 0.00000000 0.00000000
vt 0.74902098 0.00000000
vt 0.80226687 0.39593449
vt 0.91199853 0.37013284
vt 0.95000000 0.36118943
vt 0.80581234 0.29969311
vt 1.00000000 0.00000000
vt 1.00000000 1.00000000
vt 1.00000000 0.02754626
vt 0.00000000 1.00000000
vt 0.00000000 0.00000000
vt 1.00000000 0.00000000
vt 0.22040113 0.78567009
vt 0.00000000 1.00000000
vt 0.00000000 0.00000000
vt 1.00000000 0.00009097
vt 0.74277101 0.74264341
vt 1.00000000 0.99990452
vt 0.00000000 1.00000000
vt 0.00000000 0.00000000
vt 0.00000000 0.00000000
vt 1.00000000 0.97245374
vt 1.00000000 1.00000000
vt 0.00000000 1.00000000
vt 0.20944402 0.20367462
vt 0.00000000 0.99950422
vt 0.48608301 0.00000000
vt 1.00000000 1.00000000
vt 1.00000000 0.00000000
vt 1.00000000 1.00000000
vt 0.30000000 1.00000000
vt 0.10000000 0.87500000
vt 0.00000000 1.00000000
vt 0.00000000 0.00000000
vt 0.74902098 0.00000000
vt 1.00000000 0.00000000
vt 1.00000000 1.00000000
vt 0.00000000 0.80000000
vt 1.00000000 1.00000000
vt 0.00000000 0.80000000
vt 1.00000000 0.00000000
vt 1.00000000 0.00000000
vt 1.00000000 1.00000000
vt 0.30000000 1.00000000
vt 0.10000000 0.87500000
vt 0.00000000 1.00000000
vt 0.00000000 0.00000000
vt 0.00000000 1.00000000
vt 0.00000000 0.00000000
vt 1.00000000 0.00000000
vt 1.00000000 1.00000000
vt 0.74902098 0.00000000
vn 1.00000000 0.00000000 0.00000000
vn 1.00000000 0.00000000 0.00000000
vn 1.00000000 0.00000000 0.00000000
vn 1.00000000 0.00000000 0.00000000
vn 1.00000000 0.00000000 0.00000000
vn 1.00000000 0.00000000 0.00000000
vn 1.00000000 0.00000000 0.00000000
vn 1.00000000 0.00000000 0.00000000
vn 1.00000000 0.00000000 0.00000000
vn 1.00000000 0.00000000 0.00000000
vn 1.00000000 0.00000000 0.00000000
vn 1.00000000 0.00000000 0.00000000
vn 1.00000000 0.00000000 0.00000000
vn 1.00000000 0.00000000 0.00000000
vn 0.67755507 -0.04384517 -0.73416397
vn 0.67755507 -0.04384517 -0.73416397
vn 0.67755507 -0.04384517 -0.73416397
vn 0.67755507 -0.04384517 -0.73416397
vn 0.67755507 -0.04384517 -0.73416397
vn 0.68505726 0.07722699 -0.72438425
vn 0.68505726 0.07722699 -0.72438425
vn 0.68505726 0.07722699 -0.72438425
vn 0.65728778 0.04422524 0.75234095
vn 0.65728778 0.04422524 0.75234095
vn 0.65728778 0.04422524 0.75234095
vn 0.65728778 0.04422524 0.75234095
vn 0.66271255 -0.02358065 0.74850253
vn 0.66271255 -0.02358065 0.74850253
vn 0.66271255 -0.02358065 0.74850253
vn 0.66271255 -0.02358065 0.74850253
vn 0.66271255 -0.02358065 0.74850253
vn 0.00002822 -0.98931656 -0.14578318
vn 0.00002822 -0.98931656 -0.14578318
vn 0.00002822 -0.98931656 -0.14578318
vn 0.00000000 0.00000000 -1.00000000
vn 0.00000000 0.00000000 -1.00000000
vn 0.00000000 0.00000000 -1.00000000
vn 0.00000000 0.00000000 -1.00000000
vn 0.00000000 0.00000000 -1.00000000
vn 0.00000000 0.00000000 -1.00000000
vn 0.00000000 0.00000000 -1.00000000
vn -0.69045096 -0.21576593 -0.69045096
vn -0.69045096 -0.21576593 -0.69045096
vn -0.69045096 -0.21576593 -0.69045096
vn -0.70283006 0.10981720 -0.70283006
vn -0.70283006 0.10981720 -0.70283006
vn -0.70283006 0.10981720 -0.70283006
vn -1.00000000 0.00000000 0.00000000
vn -1.00000000 0.00000000 0.00000000
vn -1.00000000 0.00000000 0.00000000
vn -1.00000000 0.00000000 0.00000000
vn -1.00000000 0.00000000 0.00000000
vn -1.00000000 0.00000000 0.00000000
vn 0.00000000 -0.00000000 1.00000000
vn 0.00000000 -0.00000000 1.00000000
vn 0.00000000 -0.00000000 1.00000000
vn 0.00000000 -0.00000000 1.00000000
vn 0.00000000 -0.00000000 1.00000000
s 1
usemtl Wood_Dark
f 8/8/8 1/1/1 2/2/2
f 2/2/2 3/3/3 7/7/7
f 3/3/3 6/6/6 7/7/7
f 3/3/3 5/5/5 6/6/6
f 10/10/10 14/14/14 5/5/5
f 11/11/11 13/13/13 14/14/14
f 10/10/10 11/11/11 14/14/14
f 5/5/5 9/9/9 10/10/10
f 5/5/5 4/4/4 9/9/9
f 3/3/3 4/4/4 5/5/5
f 11/11/11 8/8/8 13/13/13
f 11/11/11 12/12/12 8/8/8
f 12/12/12 1/1/1 8/8/8
f 2/2/2 7/7/7 8/8/8
s 2
usemtl Wood_Light
f 1/19/19 12/16/16 15/17/17
f 1/19/19 15/17/17 16/18/18
f 16/18/18 2/15/15 1/19/19
s 3
f 11/22/22 15/21/21 12/20/20
s 4
f 10/23/23 9/26/26 15/25/25
f 15/25/25 11/24/24 10/23/23
s 5
f 15/30/30 9/27/27 4/31/31
f 4/31/31 3/28/28 16/29/29
f 4/31/31 16/29/29 15/30/30
s 6
f 2/34/34 16/33/33 3/32/32
s 7
usemtl Wood_Dark
f 19/38/38 20/39/39 6/40/40
f 18/37/37 6/40/40 5/41/41
f 5/41/41 14/35/35 17/36/36
f 5/41/41 17/36/36 18/37/37
f 18/37/37 19/38/38 6/40/40
s 8
usemtl Wood_Light
f 20/42/42 19/43/43 21/44/44
s 9
f 18/47/47 21/46/46 19/45/45
s 10
usemtl Wood_Dark
f 23/53/53 20/52/52 21/51/51
f 23/53/53 18/50/50 22/48/48
f 18/50/50 17/49/49 22/48/48
f 23/53/53 21/51/51 18/50/50
s 11
f 22/57/57 13/56/56 8/58/58
f 8/58/58 7/55/55 23/54/54
f 22/57/57 8/58/58 23/54/54
