mtllib Materials_Modular_Terrain.mtl
o object1
g object1
v 0.37500000 0.00000000 -0.64951905
v 0.22500000 0.06000000 -0.38971143
v 0.00000000 0.06000000 -0.45000000
v 0.00000000 0.00000000 -0.75000000
v -0.22500000 0.06000000 -0.38971143
v -0.37500000 0.00000000 -0.64951905
v 0.00000000 0.11780306 -0.35366156
v -0.17683078 0.11780306 -0.30627990
v -0.30627990 0.11780306 -0.17683078
v -0.38971143 0.06000000 -0.22500000
v -0.35366156 0.11780306 0.00000000
v -0.45000000 0.06000000 0.00000000
v -0.64951905 0.00000000 -0.37500000
v -0.75000000 -0.00000000 0.00000000
v -0.38971143 0.06000000 0.22500000
v -0.64951905 -0.00000000 0.37500000
v -0.22500000 0.06000000 0.38971143
v -0.37500000 -0.00000000 0.64951905
v -0.30627990 0.11780306 0.17683078
v -0.17683078 0.11780306 0.30627990
v -0.00000000 0.11780306 0.35366156
v 0.00000000 0.06000000 0.45000000
v 0.17683078 0.11780306 0.30627990
v 0.22500000 0.06000000 0.38971143
v 0.37500000 -0.00000000 0.64951905
v 0.00000000 -0.00000000 0.75000000
v 0.38971143 0.06000000 0.22500000
v 0.64951905 -0.00000000 0.37500000
v 0.45000000 0.06000000 0.00000000
v 0.75000000 0.00000000 0.00000000
v 0.38971143 0.06000000 -0.22500000
v 0.64951905 0.00000000 -0.37500000
v 0.35366156 0.11780306 0.00000000
v 0.30627990 0.11780306 -0.17683078
v 0.17683078 0.11780306 -0.30627990
v 0.23356813 0.21059751 -0.13485062
v 0.13485062 0.21059751 -0.23356813
v 0.00000000 0.21059751 -0.26970124
v 0.07500000 0.45000000 -0.12990381
v 0.00000000 0.45000000 -0.15000000
v -0.13485062 0.21059751 -0.23356813
v -0.07500000 0.45000000 -0.12990381
v -0.23356813 0.21059751 -0.13485062
v -0.12990381 0.45000000 -0.07500000
v -0.26970124 0.21059751 0.00000000
v -0.15000000 0.45000000 0.00000000
v -0.23356813 0.21059751 0.13485062
v -0.12990381 0.45000000 0.07500000
v -0.13485062 0.21059751 0.23356813
v -0.07500000 0.45000000 0.12990381
v -0.00000000 0.21059751 0.26970124
v 0.00000000 0.45000000 0.15000000
v 0.13485062 0.21059751 0.23356813
v 0.07500000 0.45000000 0.12990381
v 0.23356813 0.21059751 0.13485062
v 0.12990381 0.45000000 0.07500000
v 0.26970124 0.21059751 0.00000000
v 0.15000000 0.45000000 -0.00000000
v 0.12990381 0.45000000 -0.07500000
v 0.06495191 0.55980762 -0.03750000
v 0.07500000 0.55980762 -0.00000000
v 0.00000000 0.60000000 0.00000000
v 0.06495191 0.55980762 0.03750000
v 0.03750000 0.55980762 0.06495191
v 0.00000000 0.55980762 0.07500000
v -0.03750000 0.55980762 0.06495191
v -0.06495191 0.55980762 0.03750000
v -0.07500000 0.55980762 0.00000000
v -0.06495191 0.55980762 -0.03750000
v -0.03750000 0.55980762 -0.06495191
v 0.00000000 0.55980762 -0.07500000
v 0.03750000 0.55980762 -0.06495191
v 0.30627990 0.11780306 0.17683078
vt 1.00000000 0.00000000
vt 1.00000000 1.00000000
vt 0.00000000 1.00000000
vt 0.00000000 0.00000000
vt 0.00000000 1.00000000
vt 0.00000000 0.00000000
vt 1.00000000 0.00000000
vt 1.00000000 1.00000000
vt 1.00000000 1.00000000
vt 0.00000000 1.00000000
vt 0.00000000 0.00000000
vt 1.00000000 0.00000000
vt 1.00000000 1.00000000
vt 0.00000000 1.00000000
vt 0.00000000 0.00000000
vt 1.00000000 0.00000000
vt 1.00000000 1.00000000
vt 0.00000000 1.00000000
vt 0.00000000 0.00000000
vt 1.00000000 0.00000000
vt 1.00000000 0.00000000
vt 1.00000000 1.00000000
vt 0.00000000 1.00000000
vt 0.00000000 0.00000000
vt 0.00000000 1.00000000
vt 0.00000000 0.00000000
vt 1.00000000 0.00000000
vt 1.00000000 1.00000000
vt 0.00000000 1.00000000
vt 0.00000000 0.00000000
vt 1.00000000 0.00000000
vt 1.00000000 1.00000000
vt 1.00000000 1.00000000
vt 0.00000000 1.00000000
vt 0.00000000 0.00000000
vt 1.00000000 0.00000000
vt 1.00000000 1.00000000
vt 0.00000000 1.00000000
vt 0.00000000 0.00000000
vt 1.00000000 0.00000000
vt 1.00000000 1.00000000
vt 0.00000000 1.00000000
vt 0.00000000 0.00000000
vt 1.00000000 0.00000000
vt 0.00000000 1.00000000
vt 0.00000000 0.00000000
vt 1.00000000 0.00000000
vt 1.00000000 1.00000000
vt 0.00000000 1.00000000
vt 0.00000000 0.00000000
vt 1.00000000 0.00000000
vt 1.00000000 1.00000000
vt 1.00000000 0.00000000
vt 1.00000000 1.00000000
vt 0.00000000 1.00000000
vt 0.00000000 0.00000000
vt 0.00000000 1.00000000
vt 0.00000000 0.00000000
vt 1.00000000 0.00000000
vt 1.00000000 1.00000000
vt 1.00000000 1.00000000
vt 0.00000000 1.00000000
vt 0.00000000 0.00000000
vt 1.00000000 0.00000000
vt 1.00000000 1.00000000
vt 0.00000000 1.00000000
vt 0.00000000 0.00000000
vt 1.00000000 0.00000000
vt 0.00000000 0.00000000
vt 1.00000000 0.00000000
vt 0.88129849 1.00000000
vt 0.11870151 1.00000000
vt 0.00000000 0.00000000
vt 1.00000000 0.00000000
vt 0.88129849 1.00000000
vt 0.11870151 1.00000000
vt 0.00000000 0.00000000
vt 1.00000000 0.00000000
vt 1.00000000 1.00000000
vt 0.00000000 1.00000000
vt 0.00000000 0.00000000
vt 1.00000000 0.00000000
vt 1.00000000 1.00000000
vt 0.00000000 1.00000000
vt 0.00000000 0.00000000
vt 1.00000000 0.00000000
vt 1.00000000 1.00000000
vt 0.00000000 1.00000000
vt 0.00000000 0.00000000
vt 1.00000000 0.00000000
vt 1.00000000 1.00000000
vt 0.00000000 1.00000000
vt 0.00000000 0.00000000
vt 1.00000000 0.00000000
vt 1.00000000 1.00000000
vt 0.00000000 1.00000000
vt 0.00000000 0.00000000
vt 1.00000000 0.00000000
vt 1.00000000 1.00000000
vt 0.00000000 1.00000000
vt 0.00000000 0.00000000
vt 1.00000000 0.00000000
vt 1.00000000 1.00000000
vt 0.00000000 1.00000000
vt 0.00000000 0.00000000
vt 1.00000000 0.00000000
vt 1.00000000 1.00000000
vt 0.00000000 1.00000000
vt 0.00000000 0.00000000
vt 1.00000000 0.00000000
vt 1.00000000 1.00000000
vt 0.00000000 1.00000000
vt 0.00000000 0.00000000
vt 1.00000000 0.00000000
vt 1.00000000 1.00000000
vt 0.00000000 1.00000000
vt 0.00000000 0.00000000
vt 1.00000000 0.00000000
vt 1.00000000 1.00000000
vt 0.00000000 1.00000000
vt 0.00000000 1.00000000
vt 0.00000000 0.00000000
vt 1.00000000 0.00000000
vt 1.00000000 1.00000000
vt 0.00000000 0.00000000
vt 1.00000000 0.00000000
vt 1.00000000 1.00000000
vt 1.00000000 0.00000000
vt 0.00000000 1.00000000
vt 0.00000000 0.00000000
vt 0.00000000 0.00000000
vt 1.00000000 0.00000000
vt 1.00000000 1.00000000
vt 0.00000000 0.00000000
vt 1.00000000 0.00000000
vt 1.00000000 1.00000000
vt 1.00000000 0.00000000
vt 0.00000000 1.00000000
vt 0.00000000 0.00000000
vt 0.00000000 0.00000000
vt 1.00000000 0.00000000
vt 1.00000000 1.00000000
vt 0.00000000 0.00000000
vt 1.00000000 0.00000000
vt 1.00000000 1.00000000
vt 1.00000000 0.00000000
vt 0.00000000 1.00000000
vt 0.00000000 0.00000000
vt 0.00000000 0.00000000
vt 1.00000000 0.00000000
vt 1.00000000 1.00000000
vt 0.00000000 0.00000000
vt 1.00000000 0.00000000
vt 1.00000000 1.00000000
vt 1.00000000 0.00000000
vt 0.00000000 1.00000000
vt 0.00000000 0.00000000
vt 0.00000000 0.00000000
vt 1.00000000 0.00000000
vt 1.00000000 1.00000000
vt 0.00000000 1.00000000
vt 0.00000000 0.00000000
vt 1.00000000 0.00000000
vt 1.00000000 1.00000000
vt 1.00000000 0.00000000
vt 1.00000000 1.00000000
vt 0.00000000 1.00000000
vt 0.00000000 0.00000000
vt 0.00000000 0.00000000
vt 1.00000000 0.00000000
vt 0.88129849 1.00000000
vt 0.11870151 1.00000000
vt 0.00000000 1.00000000
vt 0.00000000 0.00000000
vt 1.00000000 0.00000000
vt 1.00000000 1.00000000
vt 0.00000000 0.00000000
vt 1.00000000 0.00000000
vt 0.88129849 1.00000000
vt 0.11870151 1.00000000
vt 0.00000000 1.00000000
vt 0.00000000 0.00000000
vt 1.00000000 0.00000000
vt 1.00000000 1.00000000
vt 1.00000000 0.00000000
vt 1.00000000 1.00000000
vt 0.00000000 1.00000000
vt 0.00000000 0.00000000
vt 0.00000000 1.00000000
vt 0.00000000 0.00000000
vt 1.00000000 0.00000000
vt 1.00000000 1.00000000
vt 0.00000000 1.00000000
vt 0.00000000 0.00000000
vt 1.00000000 0.00000000
vt 1.00000000 1.00000000
vt 0.00000000 0.00000000
vt 1.00000000 0.00000000
vt 0.88129849 1.00000000
vt 0.11870151 1.00000000
vt 1.00000000 0.00000000
vt 1.00000000 1.00000000
vt 0.00000000 1.00000000
vt 0.00000000 0.00000000
vt 0.00000000 1.00000000
vt 0.00000000 0.00000000
vt 1.00000000 0.00000000
vt 1.00000000 1.00000000
vt 0.00000000 1.00000000
vt 0.00000000 0.00000000
vt 1.00000000 0.00000000
vt 1.00000000 1.00000000
vt 1.00000000 0.00000000
vt 1.00000000 1.00000000
vt 0.00000000 1.00000000
vt 0.00000000 0.00000000
vt 0.00000000 0.00000000
vt 1.00000000 0.00000000
vt 1.00000000 1.00000000
vt 0.00000000 1.00000000
vt 0.00000000 0.00000000
vt 1.00000000 0.00000000
vt 0.88129849 1.00000000
vt 0.11870151 1.00000000
vt 1.00000000 1.00000000
vt 0.00000000 1.00000000
vt 0.00000000 0.00000000
vt 1.00000000 0.00000000
vt 1.00000000 1.00000000
vt 0.00000000 1.00000000
vt 0.00000000 0.00000000
vt 1.00000000 0.00000000
vt 0.00000000 0.00000000
vt 1.00000000 0.00000000
vt 0.88129849 1.00000000
vt 0.11870151 1.00000000
vt 0.00000536 0.00000000
vt 1.00000000 0.00000000
vt 0.88129913 1.00000000
vt 0.11870623 1.00000000
vt 0.00000000 0.00000000
vt 1.00000000 0.00000000
vt 0.88129849 1.00000000
vt 0.11870151 1.00000000
vt 1.00000000 0.00000000
vt 1.00000000 1.00000000
vt 0.00000000 1.00000000
vt 0.00000000 0.00000000
vt 1.00000000 1.00000000
vt 0.00000000 1.00000000
vt 0.00000000 0.00000000
vt 1.00000000 0.00000000
vt 0.00000000 0.00000000
vt 1.00000000 0.00000000
vt 0.88129849 1.00000000
vt 0.11870151 1.00000000
vt 0.00000000 0.00000000
vt 1.00000000 0.00000000
vt 0.88129849 1.00000000
vt 0.11870151 1.00000000
vt 0.00000000 0.00000000
vt 1.00000000 0.00000000
vt 0.88129849 1.00000000
vt 0.11870151 1.00000000
vt 0.00000000 1.00000000
vt 0.00000000 0.00000000
vt 1.00000000 0.00000000
vt 1.00000000 1.00000000
vt 1.00000000 1.00000000
vt 0.00000000 1.00000000
vt 0.00000000 0.00000000
vt 1.00000000 0.00000000
vt 0.00000000 1.00000000
vt 0.00000000 0.00000000
vt 1.00000000 0.00000000
vt 1.00000000 1.00000000
vn 0.05247675 0.97922958 -0.19584592
vn 0.05247675 0.97922958 -0.19584592
vn 0.05247675 0.97922958 -0.19584592
vn 0.05247675 0.97922958 -0.19584592
vn -0.05247675 0.97922958 -0.19584592
vn -0.05247675 0.97922958 -0.19584592
vn -0.05247675 0.97922958 -0.19584592
vn -0.05247675 0.97922958 -0.19584592
vn -0.13656710 0.84945892 -0.50967535
vn -0.13656710 0.84945892 -0.50967535
vn -0.13656710 0.84945892 -0.50967535
vn -0.13656710 0.84945892 -0.50967535
vn -0.37310825 0.84945892 -0.37310825
vn -0.37310825 0.84945892 -0.37310825
vn -0.37310825 0.84945892 -0.37310825
vn -0.37310825 0.84945892 -0.37310825
vn -0.50967535 0.84945892 -0.13656710
vn -0.50967535 0.84945892 -0.13656710
vn -0.50967535 0.84945892 -0.13656710
vn -0.50967535 0.84945892 -0.13656710
vn -0.19584592 0.97922958 -0.05247675
vn -0.19584592 0.97922958 -0.05247675
vn -0.19584592 0.97922958 -0.05247675
vn -0.19584592 0.97922958 -0.05247675
vn -0.19584592 0.97922958 0.05247675
vn -0.19584592 0.97922958 0.05247675
vn -0.19584592 0.97922958 0.05247675
vn -0.19584592 0.97922958 0.05247675
vn -0.14336916 0.97922958 0.14336916
vn -0.14336916 0.97922958 0.14336916
vn -0.14336916 0.97922958 0.14336916
vn -0.14336916 0.97922958 0.14336916
vn -0.37310825 0.84945892 0.37310825
vn -0.37310825 0.84945892 0.37310825
vn -0.37310825 0.84945892 0.37310825
vn -0.37310825 0.84945892 0.37310825
vn -0.13656710 0.84945892 0.50967535
vn -0.13656710 0.84945892 0.50967535
vn -0.13656710 0.84945892 0.50967535
vn -0.13656710 0.84945892 0.50967535
vn 0.13656710 0.84945892 0.50967535
vn 0.13656710 0.84945892 0.50967535
vn 0.13656710 0.84945892 0.50967535
vn 0.13656710 0.84945892 0.50967535
vn 0.05247675 0.97922958 0.19584592
vn 0.05247675 0.97922958 0.19584592
vn 0.05247675 0.97922958 0.19584592
vn 0.05247675 0.97922958 0.19584592
vn 0.14336916 0.97922958 0.14336916
vn 0.14336916 0.97922958 0.14336916
vn 0.14336916 0.97922958 0.14336916
vn 0.14336916 0.97922958 0.14336916
vn 0.19584592 0.97922958 0.05247675
vn 0.19584592 0.97922958 0.05247675
vn 0.19584592 0.97922958 0.05247675
vn 0.19584592 0.97922958 0.05247675
vn 0.19584592 0.97922958 -0.05247675
vn 0.19584592 0.97922958 -0.05247675
vn 0.19584592 0.97922958 -0.05247675
vn 0.19584592 0.97922958 -0.05247675
vn 0.50967535 0.84945892 -0.13656710
vn 0.50967535 0.84945892 -0.13656710
vn 0.50967535 0.84945892 -0.13656710
vn 0.50967535 0.84945892 -0.13656710
vn 0.37310825 0.84945892 -0.37310825
vn 0.37310825 0.84945892 -0.37310825
vn 0.37310825 0.84945892 -0.37310825
vn 0.37310825 0.84945892 -0.37310825
vn 0.53242412 0.65806467 -0.53242412
vn 0.53242412 0.65806467 -0.53242412
vn 0.53242412 0.65806467 -0.53242412
vn 0.53242412 0.65806467 -0.53242412
vn 0.19488075 0.65806467 -0.72730488
vn 0.19488075 0.65806467 -0.72730488
vn 0.19488075 0.65806467 -0.72730488
vn 0.19488075 0.65806467 -0.72730488
vn 0.23306127 0.43489825 -0.86979650
vn 0.23306127 0.43489825 -0.86979650
vn 0.23306127 0.43489825 -0.86979650
vn 0.23306127 0.43489825 -0.86979650
vn -0.23306127 0.43489825 -0.86979650
vn -0.23306127 0.43489825 -0.86979650
vn -0.23306127 0.43489825 -0.86979650
vn -0.23306127 0.43489825 -0.86979650
vn -0.63673523 0.43489825 -0.63673523
vn -0.63673523 0.43489825 -0.63673523
vn -0.63673523 0.43489825 -0.63673523
vn -0.63673523 0.43489825 -0.63673523
vn -0.86979650 0.43489825 -0.23306127
vn -0.86979650 0.43489825 -0.23306127
vn -0.86979650 0.43489825 -0.23306127
vn -0.86979650 0.43489825 -0.23306127
vn -0.86979650 0.43489825 0.23306127
vn -0.86979650 0.43489825 0.23306127
vn -0.86979650 0.43489825 0.23306127
vn -0.86979650 0.43489825 0.23306127
vn -0.63673523 0.43489825 0.63673523
vn -0.63673523 0.43489825 0.63673523
vn -0.63673523 0.43489825 0.63673523
vn -0.63673523 0.43489825 0.63673523
vn -0.23306127 0.43489825 0.86979650
vn -0.23306127 0.43489825 0.86979650
vn -0.23306127 0.43489825 0.86979650
vn -0.23306127 0.43489825 0.86979650
vn 0.23306127 0.43489825 0.86979650
vn 0.23306127 0.43489825 0.86979650
vn 0.23306127 0.43489825 0.86979650
vn 0.23306127 0.43489825 0.86979650
vn 0.63673523 0.43489825 0.63673523
vn 0.63673523 0.43489825 0.63673523
vn 0.63673523 0.43489825 0.63673523
vn 0.63673523 0.43489825 0.63673523
vn 0.86979650 0.43489825 0.23306127
vn 0.86979650 0.43489825 0.23306127
vn 0.86979650 0.43489825 0.23306127
vn 0.86979650 0.43489825 0.23306127
vn 0.86979650 0.43489825 -0.23306127
vn 0.86979650 0.43489825 -0.23306127
vn 0.86979650 0.43489825 -0.23306127
vn 0.86979650 0.43489825 -0.23306127
vn 0.80626729 0.55069080 -0.21603867
vn 0.80626729 0.55069080 -0.21603867
vn 0.80626729 0.55069080 -0.21603867
vn 0.80626729 0.55069080 -0.21603867
vn 0.46860914 0.87443656 -0.12556344
vn 0.46860914 0.87443656 -0.12556344
vn 0.46860914 0.87443656 -0.12556344
vn 0.46860914 0.87443656 0.12556344
vn 0.46860914 0.87443656 0.12556344
vn 0.46860914 0.87443656 0.12556344
vn 0.34304570 0.87443656 0.34304570
vn 0.34304570 0.87443656 0.34304570
vn 0.34304570 0.87443656 0.34304570
vn 0.12556344 0.87443656 0.46860914
vn 0.12556344 0.87443656 0.46860914
vn 0.12556344 0.87443656 0.46860914
vn -0.12556344 0.87443656 0.46860914
vn -0.12556344 0.87443656 0.46860914
vn -0.12556344 0.87443656 0.46860914
vn -0.34304570 0.87443656 0.34304570
vn -0.34304570 0.87443656 0.34304570
vn -0.34304570 0.87443656 0.34304570
vn -0.46860914 0.87443656 0.12556344
vn -0.46860914 0.87443656 0.12556344
vn -0.46860914 0.87443656 0.12556344
vn -0.46860914 0.87443656 -0.12556344
vn -0.46860914 0.87443656 -0.12556344
vn -0.46860914 0.87443656 -0.12556344
vn -0.34304570 0.87443656 -0.34304570
vn -0.34304570 0.87443656 -0.34304570
vn -0.34304570 0.87443656 -0.34304570
vn -0.12556344 0.87443656 -0.46860914
vn -0.12556344 0.87443656 -0.46860914
vn -0.12556344 0.87443656 -0.46860914
vn 0.12556344 0.87443656 -0.46860914
vn 0.12556344 0.87443656 -0.46860914
vn 0.12556344 0.87443656 -0.46860914
vn 0.34304570 0.87443656 -0.34304570
vn 0.34304570 0.87443656 -0.34304570
vn 0.34304570 0.87443656 -0.34304570
vn 0.59022862 0.55069080 -0.59022862
vn 0.59022862 0.55069080 -0.59022862
vn 0.59022862 0.55069080 -0.59022862
vn 0.59022862 0.55069080 -0.59022862
vn 0.80626729 0.55069080 0.21603867
vn 0.80626729 0.55069080 0.21603867
vn 0.80626729 0.55069080 0.21603867
vn 0.80626729 0.55069080 0.21603867
vn 0.72730488 0.65806467 0.19488075
vn 0.72730488 0.65806467 0.19488075
vn 0.72730488 0.65806467 0.19488075
vn 0.72730488 0.65806467 0.19488075
vn 0.59022862 0.55069080 0.59022862
vn 0.59022862 0.55069080 0.59022862
vn 0.59022862 0.55069080 0.59022862
vn 0.59022862 0.55069080 0.59022862
vn 0.53242412 0.65806467 0.53242412
vn 0.53242412 0.65806467 0.53242412
vn 0.53242412 0.65806467 0.53242412
vn 0.53242412 0.65806467 0.53242412
vn 0.21603867 0.55069080 0.80626729
vn 0.21603867 0.55069080 0.80626729
vn 0.21603867 0.55069080 0.80626729
vn 0.21603867 0.55069080 0.80626729
vn -0.21603867 0.55069080 0.80626729
vn -0.21603867 0.55069080 0.80626729
vn -0.21603867 0.55069080 0.80626729
vn -0.21603867 0.55069080 0.80626729
vn -0.59022862 0.55069080 0.59022862
vn -0.59022862 0.55069080 0.59022862
vn -0.59022862 0.55069080 0.59022862
vn -0.59022862 0.55069080 0.59022862
vn -0.80626729 0.55069080 0.21603867
vn -0.80626729 0.55069080 0.21603867
vn -0.80626729 0.55069080 0.21603867
vn -0.80626729 0.55069080 0.21603867
vn -0.72730488 0.65806467 0.19488075
vn -0.72730488 0.65806467 0.19488075
vn -0.72730488 0.65806467 0.19488075
vn -0.72730488 0.65806467 0.19488075
vn -0.80626729 0.55069080 -0.21603867
vn -0.80626729 0.55069080 -0.21603867
vn -0.80626729 0.55069080 -0.21603867
vn -0.80626729 0.55069080 -0.21603867
vn -0.59022862 0.55069080 -0.59022862
vn -0.59022862 0.55069080 -0.59022862
vn -0.59022862 0.55069080 -0.59022862
vn -0.59022862 0.55069080 -0.59022862
vn -0.21603867 0.55069080 -0.80626729
vn -0.21603867 0.55069080 -0.80626729
vn -0.21603867 0.55069080 -0.80626729
vn -0.21603867 0.55069080 -0.80626729
vn 0.21603867 0.55069080 -0.80626729
vn 0.21603867 0.55069080 -0.80626729
vn 0.21603867 0.55069080 -0.80626729
vn 0.21603867 0.55069080 -0.80626729
vn 0.63673523 0.43489825 -0.63673523
vn 0.63673523 0.43489825 -0.63673523
vn 0.63673523 0.43489825 -0.63673523
vn 0.63673523 0.43489825 -0.63673523
vn 0.72730488 0.65806467 -0.19488075
vn 0.72730488 0.65806467 -0.19488075
vn 0.72730488 0.65806467 -0.19488075
vn 0.72730488 0.65806467 -0.19488075
vn 0.50967535 0.84945892 0.13656710
vn 0.50967535 0.84945892 0.13656710
vn 0.50967535 0.84945892 0.13656710
vn 0.50967535 0.84945892 0.13656710
vn 0.37310825 0.84945892 0.37310825
vn 0.37310825 0.84945892 0.37310825
vn 0.37310825 0.84945892 0.37310825
vn 0.37310825 0.84945892 0.37310825
vn 0.19488075 0.65806467 0.72730488
vn 0.19488075 0.65806467 0.72730488
vn 0.19488075 0.65806467 0.72730488
vn 0.19488075 0.65806467 0.72730488
vn -0.19488075 0.65806467 0.72730488
vn -0.19488075 0.65806467 0.72730488
vn -0.19488075 0.65806467 0.72730488
vn -0.19488075 0.65806467 0.72730488
vn -0.53242412 0.65806467 0.53242412
vn -0.53242412 0.65806467 0.53242412
vn -0.53242412 0.65806467 0.53242412
vn -0.53242412 0.65806467 0.53242412
vn -0.05247675 0.97922958 0.19584592
vn -0.05247675 0.97922958 0.19584592
vn -0.05247675 0.97922958 0.19584592
vn -0.05247675 0.97922958 0.19584592
vn -0.50967535 0.84945892 0.13656710
vn -0.50967535 0.84945892 0.13656710
vn -0.50967535 0.84945892 0.13656710
vn -0.50967535 0.84945892 0.13656710
vn -0.72730488 0.65806467 -0.19488075
vn -0.72730488 0.65806467 -0.19488075
vn -0.72730488 0.65806467 -0.19488075
vn -0.72730488 0.65806467 -0.19488075
vn -0.53242412 0.65806467 -0.53242412
vn -0.53242412 0.65806467 -0.53242412
vn -0.53242412 0.65806467 -0.53242412
vn -0.53242412 0.65806467 -0.53242412
vn -0.19488075 0.65806467 -0.72730488
vn -0.19488075 0.65806467 -0.72730488
vn -0.19488075 0.65806467 -0.72730488
vn -0.19488075 0.65806467 -0.72730488
vn -0.14336916 0.97922958 -0.14336916
vn -0.14336916 0.97922958 -0.14336916
vn -0.14336916 0.97922958 -0.14336916
vn -0.14336916 0.97922958 -0.14336916
vn 0.13656710 0.84945892 -0.50967535
vn 0.13656710 0.84945892 -0.50967535
vn 0.13656710 0.84945892 -0.50967535
vn 0.13656710 0.84945892 -0.50967535
vn 0.14336916 0.97922958 -0.14336916
vn 0.14336916 0.97922958 -0.14336916
vn 0.14336916 0.97922958 -0.14336916
vn 0.14336916 0.97922958 -0.14336916
s 1
usemtl Rock
f 4/4/4 3/3/3 2/2/2
f 4/4/4 2/2/2 1/1/1
s 2
f 3/8/8 4/7/7 5/5/5
f 4/7/7 6/6/6 5/5/5
s 3
f 3/12/12 5/11/11 7/9/9
f 5/11/11 8/10/10 7/9/9
s 4
f 5/16/16 10/15/15 8/13/13
f 10/15/15 9/14/14 8/13/13
s 5
f 10/20/20 12/19/19 9/17/17
f 12/19/19 11/18/18 9/17/17
s 6
f 14/24/24 12/23/23 10/22/22
f 14/24/24 10/22/22 13/21/21
s 7
f 12/28/28 14/27/27 15/25/25
f 14/27/27 16/26/26 15/25/25
s 8
f 15/32/32 16/31/31 17/29/29
f 16/31/31 18/30/30 17/29/29
s 9
f 15/36/36 17/35/35 20/34/34
f 15/36/36 20/34/34 19/33/33
s 10
f 17/40/40 22/39/39 21/38/38
f 17/40/40 21/38/38 20/37/37
s 11
f 22/44/44 24/43/43 23/42/42
f 22/44/44 23/42/42 21/41/41
s 12
f 22/48/48 26/47/47 25/46/46
f 22/48/48 25/46/46 24/45/45
s 13
f 24/52/52 25/51/51 28/50/50
f 24/52/52 28/50/50 27/49/49
s 14
f 30/56/56 29/55/55 28/53/53
f 29/55/55 27/54/54 28/53/53
s 15
f 29/60/60 30/59/59 32/58/58
f 29/60/60 32/58/58 31/57/57
s 16
f 29/64/64 31/63/63 33/61/61
f 31/63/63 34/62/62 33/61/61
s 17
f 31/68/68 2/67/67 34/65/65
f 2/67/67 35/66/66 34/65/65
s 18
f 37/72/72 36/71/71 34/70/70
f 37/72/72 34/70/70 35/69/69
s 19
f 38/76/76 37/75/75 7/73/73
f 37/75/75 35/74/74 7/73/73
s 20
f 40/80/80 39/79/79 37/78/78
f 40/80/80 37/78/78 38/77/77
s 21
f 42/84/84 40/83/83 41/81/81
f 40/83/83 38/82/82 41/81/81
s 22
f 44/88/88 42/87/87 41/86/86
f 44/88/88 41/86/86 43/85/85
s 23
f 46/92/92 44/91/91 43/90/90
f 46/92/92 43/90/90 45/89/89
s 24
f 48/96/96 46/95/95 45/94/94
f 48/96/96 45/94/94 47/93/93
s 25
f 50/100/100 48/99/99 49/97/97
f 48/99/99 47/98/98 49/97/97
s 26
f 52/104/104 50/103/103 51/101/101
f 50/103/103 49/102/102 51/101/101
s 27
f 54/108/108 52/107/107 53/105/105
f 52/107/107 51/106/106 53/105/105
s 28
f 56/112/112 54/111/111 55/109/109
f 54/111/111 53/110/110 55/109/109
s 29
f 58/116/116 56/115/115 55/114/114
f 58/116/116 55/114/114 57/113/113
s 30
f 59/120/120 58/119/119 36/117/117
f 58/119/119 57/118/118 36/117/117
s 31
f 61/124/124 58/123/123 59/122/122
f 61/124/124 59/122/122 60/121/121
s 32
f 62/127/127 61/126/126 60/125/125
s 33
f 61/130/130 62/129/129 63/128/128
s 34
f 62/133/133 64/132/132 63/131/131
s 35
f 62/136/136 65/135/135 64/134/134
s 36
f 65/139/139 62/138/138 66/137/137
s 37
f 62/142/142 67/141/141 66/140/140
s 38
f 62/145/145 68/144/144 67/143/143
s 39
f 68/148/148 62/147/147 69/146/146
s 40
f 62/151/151 70/150/150 69/149/149
s 41
f 62/154/154 71/153/153 70/152/152
s 42
f 71/157/157 62/156/156 72/155/155
s 43
f 62/160/160 60/159/159 72/158/158
s 44
f 60/164/164 59/163/163 72/161/161
f 59/163/163 39/162/162 72/161/161
s 45
f 58/168/168 61/167/167 56/165/165
f 61/167/167 63/166/166 56/165/165
s 46
f 57/172/172 55/171/171 73/170/170
f 57/172/172 73/170/170 33/169/169
s 47
f 64/176/176 54/175/175 56/174/174
f 64/176/176 56/174/174 63/173/173
s 48
f 55/180/180 53/179/179 23/178/178
f 55/180/180 23/178/178 73/177/177
s 49
f 65/184/184 52/183/183 54/182/182
f 65/184/184 54/182/182 64/181/181
s 50
f 52/188/188 65/187/187 50/185/185
f 65/187/187 66/186/186 50/185/185
s 51
f 67/192/192 48/191/191 50/190/190
f 67/192/192 50/190/190 66/189/189
s 52
f 68/196/196 46/195/195 67/193/193
f 46/195/195 48/194/194 67/193/193
s 53
f 47/200/200 45/199/199 19/197/197
f 45/199/199 11/198/198 19/197/197
s 54
f 46/204/204 68/203/203 69/202/202
f 46/204/204 69/202/202 44/201/201
s 55
f 70/208/208 42/207/207 69/205/205
f 42/207/207 44/206/206 69/205/205
s 56
f 71/212/212 40/211/211 70/209/209
f 40/211/211 42/210/210 70/209/209
s 57
f 40/216/216 71/215/215 72/214/214
f 40/216/216 72/214/214 39/213/213
s 58
f 39/220/220 59/219/219 36/218/218
f 39/220/220 36/218/218 37/217/217
s 59
f 36/224/224 57/223/223 33/222/222
f 36/224/224 33/222/222 34/221/221
s 60
f 27/228/228 29/227/227 73/225/225
f 29/227/227 33/226/226 73/225/225
s 61
f 24/232/232 27/231/231 23/229/229
f 27/231/231 73/230/230 23/229/229
s 62
f 53/236/236 51/235/235 23/233/233
f 51/235/235 21/234/234 23/233/233
s 63
f 51/240/240 49/239/239 21/237/237
f 49/239/239 20/238/238 21/237/237
s 64
f 49/244/244 47/243/243 20/241/241
f 47/243/243 19/242/242 20/241/241
s 65
f 26/248/248 22/247/247 18/245/245
f 22/247/247 17/246/246 18/245/245
s 66
f 12/252/252 15/251/251 11/249/249
f 15/251/251 19/250/250 11/249/249
s 67
f 45/256/256 43/255/255 11/253/253
f 43/255/255 9/254/254 11/253/253
s 68
f 43/260/260 41/259/259 9/257/257
f 41/259/259 8/258/258 9/257/257
s 69
f 41/264/264 38/263/263 8/261/261
f 38/263/263 7/262/262 8/261/261
s 70
f 5/268/268 6/267/267 10/265/265
f 6/267/267 13/266/266 10/265/265
s 71
f 2/272/272 3/271/271 35/269/269
f 3/271/271 7/270/270 35/269/269
s 72
f 31/276/276 32/275/275 1/274/274
f 31/276/276 1/274/274 2/273/273
