mtllib Materials_Modular_Terrain.mtl
o object1
g object1
v 0.50000000 0.00000000 0.23205081
v 0.50000000 1.00000000 0.23205081
v 1.04706667 1.00000000 0.19037020
v 1.04706667 0.00000000 0.19037020
v 0.26256313 0.00000000 -0.26256313
v 0.26256313 1.00000000 -0.26256313
v -0.23205081 0.00000000 -0.50000000
v -0.23205081 1.00000000 -0.50000000
v -0.19037020 0.00000000 -1.04706667
v -0.19037020 1.00000000 -1.04706667
v -0.50000000 0.00000000 -1.50000000
v -0.50000000 1.00000000 -1.50000000
v 1.50000000 1.00000000 0.50000000
v 1.50000000 0.00000000 0.50000000
vt 0.00000000 1.00000000
vt 0.00000000 0.00000000
vt 1.00000000 0.00000000
vt 1.00000000 1.00000000
vt 0.00000000 1.00000000
vt 0.00000000 0.00000000
vt 1.00000000 0.00000000
vt 1.00000000 1.00000000
vt 0.00000000 1.00000000
vt 0.00000000 0.00000000
vt 1.00000000 0.00000000
vt 1.00000000 1.00000000
vt 0.00000000 1.00000000
vt 0.00000000 0.00000000
vt 1.00000000 0.00000000
vt 1.00000000 1.00000000
vt 1.00000000 0.00000000
vt 1.00000000 1.00000000
vt 0.00000000 1.00000000
vt 0.00000000 0.00000000
vt 0.00000000 1.00000000
vt 0.00000000 0.00000000
vt 1.00000000 0.00000000
vt 1.00000000 1.00000000
vn -0.07596910 -0.00000000 -0.99711017
vn -0.07596910 -0.00000000 -0.99711017
vn -0.07596910 -0.00000000 -0.99711017
vn -0.07596910 -0.00000000 -0.99711017
vn 0.90150729 -0.00000000 -0.43276392
vn 0.90150729 -0.00000000 -0.43276392
vn 0.90150729 -0.00000000 -0.43276392
vn 0.90150729 -0.00000000 -0.43276392
vn 0.43276392 -0.00000000 -0.90150729
vn 0.43276392 -0.00000000 -0.90150729
vn 0.43276392 -0.00000000 -0.90150729
vn 0.43276392 -0.00000000 -0.90150729
vn 0.99711017 -0.00000000 0.07596910
vn 0.99711017 -0.00000000 0.07596910
vn 0.99711017 -0.00000000 0.07596910
vn 0.99711017 -0.00000000 0.07596910
vn 0.82553819 -0.00000000 -0.56434626
vn 0.82553819 -0.00000000 -0.56434626
vn 0.82553819 -0.00000000 -0.56434626
vn 0.82553819 -0.00000000 -0.56434626
vn 0.56434626 -0.00000000 -0.82553819
vn 0.56434626 -0.00000000 -0.82553819
vn 0.56434626 -0.00000000 -0.82553819
vn 0.56434626 -0.00000000 -0.82553819
s 1
usemtl Rock
f 1/1/1 2/2/2 4/4/4
f 2/2/2 3/3/3 4/4/4
s 2
f 5/5/5 6/6/6 2/7/7
f 5/5/5 2/7/7 1/8/8
s 3
f 7/9/9 8/10/10 6/11/11
f 7/9/9 6/11/11 5/12/12
s 4
f 9/13/13 10/14/14 8/15/15
f 9/13/13 8/15/15 7/16/16
s 5
f 10/17/17 9/18/18 12/20/20
f 9/18/18 11/19/19 12/20/20
s 6
f 4/21/21 3/22/22 13/23/23
f 4/21/21 13/23/23 14/24/24
