mtllib Materials_Modular_Terrain.mtl
o object1
g object1
v -0.40000000 1.05000000 1.00000000
v -0.50000000 1.05000000 1.00000000
v -0.50000000 1.20000000 1.50000000
v -0.40000000 1.20000000 1.50000000
v -0.25000000 1.00000000 1.00000000
v -0.25000000 1.15000000 1.50000000
v -0.15000000 0.90000000 1.00000000
v -0.15000000 1.05000000 1.50000000
v -0.11431023 0.90000000 1.50000000
v -0.10241364 0.70000000 1.00000000
v -0.09059167 0.70000000 1.16562130
v -0.12599288 0.86212678 1.21008646
v -0.13149805 0.90000000 1.25920527
v 0.50000000 0.90000000 1.18903882
v 0.50000000 0.90000000 1.50000000
v 0.50000000 0.86212678 1.14053170
v 0.50000000 0.70000000 1.10000000
v -0.12596570 0.70000000 0.85859056
v 0.50000000 0.70000000 0.78903882
v -0.12505037 0.66212678 0.80998174
v 0.50000000 0.66212678 0.74053170
v -0.09380413 0.50000000 0.76597824
v 0.50000000 0.50000000 0.70000000
v -0.14465440 0.50000000 0.46066709
v 0.50000000 0.50000000 0.38903882
v -0.14373906 0.46212678 0.41205826
v 0.50000000 0.46212678 0.34053170
v -0.11249283 0.30000000 0.36805476
v 0.50000000 0.30000000 0.30000000
v -0.20299541 0.30000000 0.06714942
v 0.50000000 0.30000000 -0.01096118
v -0.15000000 0.30000000 0.14285714
v -0.19935993 0.26212678 0.01823835
v 0.50000000 0.26212678 -0.05946830
v -0.15769231 0.20769231 0.00000000
v -0.15000000 0.19909910 -0.00300300
v -0.12836120 0.10000000 -0.03018209
v 0.50000000 0.10000000 -0.10000000
v -0.15000000 0.10000000 -0.33333333
v -0.15156937 0.10000000 -0.33856458
v -0.15000000 0.09736640 -0.34211202
v -0.15000000 0.05000000 -0.50000000
v -0.25000000 0.15000000 -0.50000000
v -0.25000000 0.30000000 0.00000000
v -0.14487765 0.06212678 -0.38781523
v 0.50000000 0.06212678 -0.45946830
v 0.50000000 0.10000000 -0.41096118
v -0.10947643 -0.10000000 -0.43228040
v 0.50000000 -0.10000000 -0.50000000
v -0.11431023 -0.10000000 -0.50000000
v -0.40000000 0.35000000 0.00000000
v -0.40000000 0.20000000 -0.50000000
v -0.50000000 0.20000000 -0.50000000
v -0.50000000 0.35000000 0.00000000
vt 0.00000000 1.00000000
vt 0.00000000 0.00000000
vt 1.00000000 0.00000000
vt 1.00000000 1.00000000
vt 0.00000000 1.00000000
vt 0.00000000 0.00000000
vt 1.00000000 0.00000000
vt 1.00000000 1.00000000
vt 0.00000000 1.00000000
vt 0.00000000 0.00000000
vt 1.00000000 0.00000000
vt 1.00000000 1.00000000
vt 1.00000000 0.39924639
vt 1.00000000 1.00000000
vt 0.00000000 1.00000000
vt 0.00000000 0.19899518
vt 0.33124259 0.00000000
vt 0.42017292 0.59589645
vt 0.51841054 0.68856300
vt 0.97278247 0.21950229
vt 1.00000000 1.00000000
vt 0.00000000 1.00000000
vt 0.00000000 0.00000000
vt 1.00000000 0.00000000
vt 0.99128237 1.00000000
vt 0.00000000 1.00000000
vt 0.00000000 0.00000000
vt 1.00000000 0.00000000
vt 0.94344790 1.00000000
vt 0.00000000 1.00000000
vt 0.00000000 0.00000000
vt 0.96237484 0.53683501
vt 1.00000000 1.00000000
vt 0.00000000 1.00000000
vt 0.00000000 0.00000000
vt 0.94348886 0.00000000
vt 1.00000000 0.00000000
vt 0.99853773 1.00000000
vt 0.00000000 1.00000000
vt 0.00000000 0.00000000
vt 1.00000000 0.00000000
vt 0.95001005 1.00000000
vt 0.00000000 1.00000000
vt 0.00000000 0.00000000
vt 0.92112012 0.00000000
vt 1.00000000 1.00000000
vt 0.00000000 1.00000000
vt 0.00000000 0.00000000
vt 1.00000000 0.00000000
vt 0.99858012 1.00000000
vt 0.00000000 1.00000000
vt 0.00000000 0.00000000
vt 1.00000000 0.00000000
vt 0.95146133 1.00000000
vt 0.00000000 1.00000000
vt 0.00000000 0.00000000
vt 1.00000000 1.00000000
vt 0.00000000 1.00000000
vt 0.00000000 0.00000000
vt 0.87126149 0.00000000
vt 0.92461486 0.73760036
vt 1.00000000 0.00000000
vt 0.99482860 1.00000000
vt 0.00000000 1.00000000
vt 0.00000000 0.00000000
vt 0.94042034 0.33575251
vt 0.92942127 0.38875553
vt 0.89848042 1.00000000
vt 0.00000000 1.00000000
vt 0.00000000 0.00000000
vt 1.00000000 0.00000000
vt 1.00000000 0.92307692
vt 0.99399399 1.00000000
vt 0.33333333 1.00000000
vt 0.32287084 0.98430625
vt 0.31577597 1.00000000
vt 0.00000000 1.00000000
vt 0.00000000 0.00000000
vt 1.00000000 0.00000000
vt 0.99759139 0.06953739
vt 0.98972983 1.00000000
vt 0.00000000 1.00000000
vt 0.00000000 0.00000000
vt 1.00000000 0.00000000
vt 1.00000000 0.00000000
vt 0.94510398 1.00000000
vt 0.00000000 1.00000000
vt 0.00000000 0.00000000
vt 0.00000000 0.00786865
vt 1.00000000 0.00000000
vt 1.00000000 1.00000000
vt 1.00000000 1.00000000
vt 0.00000000 1.00000000
vt 0.00000000 0.11928354
vt 0.42890917 0.00000000
vt 0.71053392 0.87359576
vt 1.00000000 0.00000000
vt 1.00000000 1.00000000
vt 0.00000000 1.00000000
vt 0.00000000 0.00000000
vt 0.00000000 0.00000000
vt 1.00000000 0.00000000
vt 1.00000000 1.00000000
vt 0.00000000 1.00000000
vt 1.00000000 1.00000000
vt 0.00000000 1.00000000
vt 0.00000000 0.00000000
vt 0.96438112 0.00000000
vt 0.99759139 0.98261640
vt 0.91772150 0.00000000
vt 1.00000000 1.00000000
vt 0.00000000 1.00000000
vt 0.77831203 0.55602372
vt 0.83502233 0.57231198
vt 1.00000000 0.15320533
vt 1.00000000 1.00000000
vt 0.00000000 1.00000000
vt 0.26273055 0.33256351
vt 0.31406797 0.88858723
vt 0.37077827 0.90487549
vt 0.72697461 0.00000000
vt 1.00000000 0.00000000
vt 1.00000000 1.00000000
vt 0.14285714 1.00000000
vt 0.06714942 0.47004595
vt 0.01823835 0.50640067
vt 0.00000000 0.92307692
vt 0.00000000 0.00000000
vt 0.00000000 1.00000000
vt 0.00000000 0.00000000
vt 1.00000000 0.00000000
vt 1.00000000 1.00000000
vt 0.00000000 1.00000000
vt 0.00000000 0.00000000
vt 1.00000000 0.00000000
vt 1.00000000 1.00000000
vn 0.00000000 0.95782629 -0.28734789
vn 0.00000000 0.95782629 -0.28734789
vn 0.00000000 0.95782629 -0.28734789
vn 0.00000000 0.95782629 -0.28734789
vn 0.30414953 0.91244860 -0.27373458
vn 0.30414953 0.91244860 -0.27373458
vn 0.30414953 0.91244860 -0.27373458
vn 0.30414953 0.91244860 -0.27373458
vn 0.69171446 0.69171446 -0.20751434
vn 0.69171446 0.69171446 -0.20751434
vn 0.69171446 0.69171446 -0.20751434
vn 0.69171446 0.69171446 -0.20751434
vn 0.97050493 0.23091399 -0.06927420
vn 0.97050493 0.23091399 -0.06927420
vn 0.97050493 0.23091399 -0.06927420
vn 0.97050493 0.23091399 -0.06927420
vn 0.97050493 0.23091399 -0.06927420
vn 0.97050493 0.23091399 -0.06927420
vn 0.97050493 0.23091399 -0.06927420
vn -0.00000000 1.00000000 -0.00000000
vn 0.00000000 1.00000000 0.00000000
vn 0.00000000 1.00000000 0.00000000
vn -0.00000000 1.00000000 -0.00000000
vn -0.06821983 0.78636917 -0.61397849
vn -0.06821983 0.78636917 -0.61397849
vn -0.06821983 0.78636917 -0.61397849
vn -0.06821983 0.78636917 -0.61397849
vn -0.10717276 0.24113872 -0.96455488
vn -0.10717276 0.24113872 -0.96455488
vn -0.10717276 0.24113872 -0.96455488
vn -0.10717276 0.24113872 -0.96455488
vn -0.00000000 1.00000000 -0.00000000
vn 0.00000000 1.00000000 0.00000000
vn 0.00000000 1.00000000 0.00000000
vn -0.00000000 1.00000000 -0.00000000
vn -0.00000000 1.00000000 -0.00000000
vn -0.06821983 0.78636917 -0.61397849
vn -0.06821983 0.78636917 -0.61397849
vn -0.06821983 0.78636917 -0.61397849
vn -0.06821983 0.78636917 -0.61397849
vn -0.10717276 0.24113872 -0.96455488
vn -0.10717276 0.24113872 -0.96455488
vn -0.10717276 0.24113872 -0.96455488
vn -0.10717276 0.24113872 -0.96455488
vn 0.00000000 1.00000000 0.00000000
vn 0.00000000 1.00000000 0.00000000
vn 0.00000000 1.00000000 0.00000000
vn 0.00000000 1.00000000 0.00000000
vn -0.06821983 0.78636917 -0.61397849
vn -0.06821983 0.78636917 -0.61397849
vn -0.06821983 0.78636917 -0.61397849
vn -0.06821983 0.78636917 -0.61397849
vn -0.10717276 0.24113872 -0.96455488
vn -0.10717276 0.24113872 -0.96455488
vn -0.10717276 0.24113872 -0.96455488
vn -0.10717276 0.24113872 -0.96455488
vn 0.00000000 1.00000000 0.00000000
vn 0.00000000 1.00000000 0.00000000
vn -0.00000000 1.00000000 -0.00000000
vn -0.00000000 1.00000000 0.00000000
vn 0.00000000 1.00000000 0.00000000
vn -0.06821983 0.78636917 -0.61397849
vn -0.06821983 0.78636917 -0.61397849
vn -0.06821983 0.78636917 -0.61397849
vn -0.06821983 0.78636917 -0.61397849
vn -0.10717276 0.24113872 -0.96455488
vn -0.10717276 0.24113872 -0.96455488
vn -0.10717276 0.24113872 -0.96455488
vn -0.10717276 0.24113872 -0.96455488
vn -0.10717276 0.24113872 -0.96455488
vn -0.10717276 0.24113872 -0.96455488
vn 0.69171446 0.69171446 -0.20751434
vn 0.69171446 0.69171446 -0.20751434
vn 0.69171446 0.69171446 -0.20751434
vn 0.69171446 0.69171446 -0.20751434
vn 0.69171446 0.69171446 -0.20751434
vn 0.69171446 0.69171446 -0.20751434
vn 0.69171446 0.69171446 -0.20751434
vn 0.69171446 0.69171446 -0.20751434
vn -0.06821983 0.78636917 -0.61397849
vn -0.06821983 0.78636917 -0.61397849
vn -0.06821983 0.78636917 -0.61397849
vn -0.06821983 0.78636917 -0.61397849
vn -0.06821983 0.78636917 -0.61397849
vn -0.10717276 0.24113872 -0.96455488
vn -0.10717276 0.24113872 -0.96455488
vn -0.10717276 0.24113872 -0.96455488
vn -0.10717276 0.24113872 -0.96455488
vn 0.00000000 1.00000000 0.00000000
vn 0.00000000 1.00000000 0.00000000
vn 0.00000000 1.00000000 0.00000000
vn 0.97050493 0.23091399 -0.06927420
vn 0.97050493 0.23091399 -0.06927420
vn 0.97050493 0.23091399 -0.06927420
vn 0.97050493 0.23091399 -0.06927420
vn 0.97050493 0.23091399 -0.06927420
vn 0.30414953 0.91244860 -0.27373458
vn 0.30414953 0.91244860 -0.27373458
vn 0.30414953 0.91244860 -0.27373458
vn 0.30414953 0.91244860 -0.27373458
vn 0.00000000 0.95782629 -0.28734789
vn 0.00000000 0.95782629 -0.28734789
vn 0.00000000 0.95782629 -0.28734789
vn 0.00000000 0.95782629 -0.28734789
vn 0.00000000 1.00000000 0.00000000
vn 0.00000000 1.00000000 0.00000000
vn 0.00000000 1.00000000 0.00000000
vn 0.00000000 1.00000000 -0.00000000
vn 0.00000000 1.00000000 0.00000000
vn 0.97050493 0.23091399 -0.06927420
vn 0.97050493 0.23091399 -0.06927420
vn 0.97050493 0.23091399 -0.06927420
vn 0.96031789 0.22849017 -0.15994312
vn 0.96031789 0.22849017 -0.15994312
vn 0.96031789 0.22849017 -0.15994312
vn 0.96031789 0.22849017 -0.15994312
vn 0.96031789 0.22849017 -0.15994312
vn 0.96031789 0.22849017 -0.15994312
vn 0.96031789 0.22849017 -0.15994312
vn 0.96031789 0.22849017 -0.15994312
vn 0.96031789 0.22849017 -0.15994312
vn 0.63372425 0.63372425 -0.44360698
vn 0.63372425 0.63372425 -0.44360698
vn 0.63372425 0.63372425 -0.44360698
vn 0.63372425 0.63372425 -0.44360698
vn 0.63372425 0.63372425 -0.44360698
vn 0.63372425 0.63372425 -0.44360698
vn 0.63372425 0.63372425 -0.44360698
vn 0.26343168 0.79029505 -0.55320654
vn 0.26343168 0.79029505 -0.55320654
vn 0.26343168 0.79029505 -0.55320654
vn 0.26343168 0.79029505 -0.55320654
vn 0.00000000 0.81923192 -0.57346234
vn 0.00000000 0.81923192 -0.57346234
vn 0.00000000 0.81923192 -0.57346234
vn 0.00000000 0.81923192 -0.57346234
s 1
usemtl Grass
f 1/1/1 2/2/2 4/4/4
f 2/2/2 3/3/3 4/4/4
s 2
f 5/5/5 1/6/6 6/8/8
f 1/6/6 4/7/7 6/8/8
s 3
f 7/9/9 5/10/10 8/12/12
f 5/10/10 6/11/11 8/12/12
s 4
f 12/18/18 11/17/17 10/16/16
f 13/19/19 12/18/18 7/15/15
f 13/19/19 7/15/15 8/14/14
f 8/14/14 9/13/13 13/19/19
f 12/18/18 10/16/16 7/15/15
s 5
usemtl Rock
f 13/21/21 9/20/20 15/23/23
f 15/23/23 14/22/22 13/21/21
s 6
f 14/27/27 16/26/26 12/25/25
f 14/27/27 12/25/25 13/24/24
s 7
f 16/31/31 17/30/30 11/29/29
f 16/31/31 11/29/29 12/28/28
s 8
f 10/32/32 11/36/36 17/35/35
f 17/35/35 19/34/34 10/32/32
f 19/34/34 18/33/33 10/32/32
s 9
f 19/40/40 21/39/39 20/38/38
f 19/40/40 20/38/38 18/37/37
s 10
f 21/44/44 23/43/43 22/42/42
f 21/44/44 22/42/42 20/41/41
s 11
f 23/48/48 25/47/47 24/46/46
f 23/48/48 24/46/46 22/45/45
s 12
f 25/52/52 27/51/51 26/50/50
f 25/52/52 26/50/50 24/49/49
s 13
f 27/56/56 29/55/55 28/54/54
f 27/56/56 28/54/54 26/53/53
s 14
f 32/61/61 28/60/60 29/59/59
f 32/61/61 31/58/58 30/57/57
f 32/61/61 29/59/59 31/58/58
s 15
f 31/65/65 34/64/64 33/63/63
f 31/65/65 33/63/63 30/62/62
s 16
f 34/70/70 38/69/69 37/68/68
f 33/71/71 34/70/70 36/67/67
f 36/67/67 35/66/66 33/71/71
f 34/70/70 37/68/68 36/67/67
s 17
usemtl Grass
f 41/76/76 42/77/77 43/78/78
f 40/75/75 43/78/78 35/72/72
f 35/72/72 36/73/73 40/75/75
f 36/73/73 39/74/74 40/75/75
f 43/78/78 44/79/79 35/72/72
f 40/75/75 41/76/76 43/78/78
s 18
usemtl Rock
f 41/80/80 40/84/84 47/83/83
f 47/83/83 46/82/82 45/81/81
f 47/83/83 45/81/81 41/80/80
s 19
f 46/88/88 49/87/87 48/86/86
f 46/88/88 48/86/86 45/85/85
s 20
f 49/91/91 50/90/90 48/89/89
s 21
usemtl Grass
f 42/93/93 41/92/92 45/96/96
f 45/96/96 48/95/95 42/93/93
f 48/95/95 50/94/94 42/93/93
s 22
f 51/97/97 44/98/98 52/100/100
f 44/98/98 43/99/99 52/100/100
s 23
f 53/101/101 54/102/102 51/103/103
f 53/101/101 51/103/103 52/104/104
s 24
usemtl Rock
f 39/109/109 37/108/108 38/107/107
f 39/109/109 47/106/106 40/105/105
f 39/109/109 38/107/107 47/106/106
s 25
usemtl Grass
f 39/112/112 36/111/111 37/110/110
s 26
f 7/116/116 10/115/115 18/114/114
f 24/120/120 32/117/117 7/116/116
f 26/119/119 28/118/118 32/117/117
f 24/120/120 26/119/119 32/117/117
f 20/113/113 22/121/121 24/120/120
f 7/116/116 20/113/113 24/120/120
f 7/116/116 18/114/114 20/113/113
s 27
f 33/126/126 35/127/127 44/128/128
f 5/122/122 7/123/123 44/128/128
f 7/123/123 32/124/124 30/125/125
f 7/123/123 30/125/125 44/128/128
f 30/125/125 33/126/126 44/128/128
s 28
f 44/129/129 51/130/130 5/132/132
f 51/130/130 1/131/131 5/132/132
s 29
f 51/133/133 54/134/134 1/136/136
f 54/134/134 2/135/135 1/136/136
