mtllib Materials_Modular_Terrain.mtl
o object1
g object1
v -0.84301278 0.06698730 -1.04145486
v -0.81172768 0.00000000 -1.16247652
v -1.50000000 0.00000000 -1.00000000
v -1.50000000 0.13397460 -0.75000000
v -0.92848528 0.75000000 -0.71081753
v -1.50000000 0.50000000 -0.56698730
v -0.93686810 1.00000000 -0.67838988
v -1.50000000 1.00000000 -0.50000000
v -0.50000000 1.00000000 -0.23205081
v -0.46650635 0.50000000 -0.29006351
v 0.09099026 1.00000000 -0.09099026
v 0.11467384 0.75000000 -0.11467384
v 0.23205081 1.00000000 0.50000000
v 0.29006351 0.50000000 0.46650635
v 0.67333311 1.00000000 0.91765715
v 0.70568549 0.75000000 0.90898835
v 0.50000000 1.00000000 1.50000000
v 0.56698730 0.50000000 1.50000000
v 1.03555529 0.06698730 0.82060001
v 0.75000000 0.13397460 1.50000000
v 1.15629602 0.00000000 0.78824763
v 1.00000000 0.00000000 1.50000000
v 0.66506351 0.00000000 0.25000000
v 0.44855716 0.13397460 0.37500000
v 0.44454365 0.00000000 -0.44454365
v 0.35615530 0.06698730 -0.35615530
v -0.25000000 0.00000000 -0.66506351
v -0.37500000 0.13397460 -0.44855716
vt 1.00000000 0.00000000
vt 1.00000000 1.00000000
vt 0.00000000 1.00000000
vt 0.00000000 0.00000000
vt 1.00000000 0.00000000
vt 1.00000000 1.00000000
vt 0.00000000 1.00000000
vt 0.00000000 0.00000000
vt 1.00000000 0.00000000
vt 1.00000000 1.00000000
vt 0.00000000 1.00000000
vt 0.00000000 0.00000000
vt 0.00000000 1.00000000
vt 0.00000000 0.00000000
vt 1.00000000 0.00000000
vt 1.00000000 1.00000000
vt 0.00000000 1.00000000
vt 0.00000000 0.00000000
vt 1.00000000 0.00000000
vt 1.00000000 1.00000000
vt 0.00000000 1.00000000
vt 0.00000000 0.00000000
vt 1.00000000 0.00000000
vt 1.00000000 1.00000000
vt 0.00000000 1.00000000
vt 0.00000000 0.00000000
vt 1.00000000 0.00000000
vt 1.00000000 1.00000000
vt 0.00000000 1.00000000
vt 0.00000000 0.00000000
vt 1.00000000 0.00000000
vt 1.00000000 1.00000000
vt 0.00000000 1.00000000
vt 0.00000000 0.00000000
vt 1.00000000 0.00000000
vt 1.00000000 1.00000000
vt 0.00000000 1.00000000
vt 0.00000000 0.00000000
vt 1.00000000 0.00000000
vt 1.00000000 1.00000000
vt 0.00000000 1.00000000
vt 0.00000000 0.00000000
vt 1.00000000 0.00000000
vt 1.00000000 1.00000000
vt 0.00000000 1.00000000
vt 0.00000000 0.00000000
vt 1.00000000 0.00000000
vt 1.00000000 1.00000000
vt 0.00000000 1.00000000
vt 0.00000000 0.00000000
vt 1.00000000 0.00000000
vt 1.00000000 1.00000000
vt 0.00000000 1.00000000
vt 0.00000000 0.00000000
vt 1.00000000 0.00000000
vt 1.00000000 1.00000000
vt 0.00000000 1.00000000
vt 0.00000000 0.00000000
vt 1.00000000 0.00000000
vt 1.00000000 1.00000000
vt 0.00000000 1.00000000
vt 0.00000000 0.00000000
vt 1.00000000 0.00000000
vt 1.00000000 1.00000000
vt 0.00000000 1.00000000
vt 0.00000000 0.00000000
vt 1.00000000 0.00000000
vt 1.00000000 1.00000000
vt 0.00000000 1.00000000
vt 0.00000000 0.00000000
vt 1.00000000 0.00000000
vt 1.00000000 1.00000000
vn -0.13802318 0.85099207 -0.50671698
vn -0.11902639 0.85533809 -0.50421173
vn -0.11081759 0.87598359 -0.46943819
vn -0.11882649 0.87516764 -0.46900092
vn -0.37439954 0.36565174 -0.85212898
vn -0.34397751 0.37390804 -0.86132006
vn -0.33135071 0.42194945 -0.84389891
vn -0.38779847 0.41221653 -0.82443306
vn -0.30006384 0.11280375 -0.94722595
vn -0.28892729 0.11361296 -0.95058567
vn -0.29393750 0.12692221 -0.94736028
vn -0.29955802 0.12669029 -0.94562919
vn 0.70211901 0.11469853 -0.70276109
vn 0.70999368 0.11394656 -0.69492816
vn 0.70877252 0.12796940 -0.69373291
vn 0.70481415 0.12816660 -0.69771795
vn 0.23585242 0.12757550 -0.96337850
vn 0.23027277 0.12736152 -0.96475567
vn 0.23066575 0.11340344 -0.96640208
vn 0.24168421 0.11418309 -0.96361349
vn 0.96361349 0.11418309 -0.24168421
vn 0.96640208 0.11340344 -0.23066575
vn 0.96475567 0.12736152 -0.23027277
vn 0.96337850 0.12757550 -0.23585242
vn 0.68594344 0.12757550 -0.71638404
vn 0.68179990 0.12736152 -0.72036653
vn 0.68296343 0.11340344 -0.72159588
vn 0.69111141 0.11418309 -0.71367166
vn 0.95535587 0.11418309 0.27250208
vn 0.95226162 0.11340344 0.28343864
vn 0.95063930 0.12736152 0.28295576
vn 0.95223646 0.12757550 0.27743506
vn 0.86679711 0.37628569 0.32721835
vn 0.85833098 0.36831304 0.35723021
vn 0.83071909 0.41535954 0.37065111
vn 0.84890817 0.42445408 0.31495024
vn 0.50469345 0.85615527 0.11082728
vn 0.50732394 0.85201142 0.12922445
vn 0.46943196 0.87597196 0.11093581
vn 0.46982688 0.87670889 0.10317082
vn 0.35529661 0.87670889 -0.32426199
vn 0.35107210 0.87597196 -0.33078921
vn 0.37474319 0.85201142 -0.36557363
vn 0.38166371 0.85615527 -0.34832596
vn 0.49249098 0.85615527 -0.15636749
vn 0.50396765 0.85201142 -0.14175031
vn 0.46200791 0.87597196 -0.13864275
vn 0.45846742 0.87670889 -0.14556489
vn 0.14556489 0.87670889 -0.45846742
vn 0.13864275 0.87597196 -0.46200791
vn 0.14175031 0.85201142 -0.50396765
vn 0.15636749 0.85615527 -0.49249098
vn 0.57770092 0.42445408 -0.69720899
vn 0.53409828 0.41535954 -0.73635282
vn 0.56472133 0.36831304 -0.73853593
vn 0.58705915 0.37628569 -0.71677796
vn 0.91427749 0.37628569 -0.15001916
vn 0.92195154 0.36831304 -0.11979505
vn 0.90474939 0.41535954 -0.09436627
vn 0.89265116 0.42445408 -0.15169918
vn 0.15169918 0.42445408 -0.89265116
vn 0.09436627 0.41535954 -0.90474939
vn 0.11979505 0.36831304 -0.92195154
vn 0.15001916 0.37628569 -0.91427749
vn 0.70526859 0.37845465 -0.59947335
vn 0.72699968 0.37075046 -0.57794080
vn 0.72487272 0.41824347 -0.54738646
vn 0.68579724 0.42673552 -0.58955826
vn 0.34175954 0.85688050 -0.38594848
vn 0.35857272 0.85292055 -0.37941025
vn 0.32446061 0.87668729 -0.35516856
vn 0.31811325 0.87735236 -0.35924476
s 1
usemtl Rock
f 1/1/1 2/2/2 3/3/3
f 1/1/1 3/3/3 4/4/4
s 2
f 5/5/5 1/6/6 4/7/7
f 5/5/5 4/7/7 6/8/8
s 3
f 7/9/9 5/10/10 8/12/12
f 5/10/10 6/11/11 8/12/12
s 4
f 5/13/13 7/14/14 9/15/15
f 5/13/13 9/15/15 10/16/16
s 5
f 10/17/17 9/18/18 12/20/20
f 9/18/18 11/19/19 12/20/20
s 6
f 12/21/21 11/22/22 13/23/23
f 12/21/21 13/23/23 14/24/24
s 7
f 14/25/25 13/26/26 16/28/28
f 13/26/26 15/27/27 16/28/28
s 8
f 16/29/29 15/30/30 17/31/31
f 16/29/29 17/31/31 18/32/32
s 9
f 19/33/33 16/34/34 20/36/36
f 16/34/34 18/35/35 20/36/36
s 10
f 21/37/37 19/38/38 22/40/40
f 19/38/38 20/39/39 22/40/40
s 11
f 23/41/41 24/42/42 19/43/43
f 23/41/41 19/43/43 21/44/44
s 12
f 25/45/45 26/46/46 23/48/48
f 26/46/46 24/47/47 23/48/48
s 13
f 27/49/49 28/50/50 26/51/51
f 27/49/49 26/51/51 25/52/52
s 14
f 24/53/53 14/54/54 16/55/55
f 24/53/53 16/55/55 19/56/56
s 15
f 26/57/57 12/58/58 24/60/60
f 12/58/58 14/59/59 24/60/60
s 16
f 28/61/61 10/62/62 12/63/63
f 28/61/61 12/63/63 26/64/64
s 17
f 1/65/65 5/66/66 28/68/68
f 5/66/66 10/67/67 28/68/68
s 18
f 2/69/69 1/70/70 27/72/72
f 1/70/70 28/71/71 27/72/72
