mtllib Materials_Modular_Terrain.mtl
o object1
g object1
v -0.25000000 1.00000000 0.00000000
v -0.25000000 0.00000000 0.00000000
v -0.50000000 0.00000000 -0.50000000
v -0.50000000 1.00000000 -0.50000000
v -0.50000000 1.00000000 0.50000000
v -0.50000000 0.00000000 0.50000000
vt 1.00000000 0.00000000
vt 1.00000000 1.00000000
vt 0.00000000 1.00000000
vt 0.00000000 0.00000000
vt 0.00000000 1.00000000
vt 0.00000000 0.00000000
vt 1.00000000 0.00000000
vt 1.00000000 1.00000000
vn 0.89442719 -0.00000000 -0.44721360
vn 0.89442719 -0.00000000 -0.44721360
vn 0.89442719 -0.00000000 -0.44721360
vn 0.89442719 -0.00000000 -0.44721360
vn 0.89442719 -0.00000000 0.44721360
vn 0.89442719 -0.00000000 0.44721360
vn 0.89442719 -0.00000000 0.44721360
vn 0.89442719 -0.00000000 0.44721360
s 1
usemtl Rock
f 1/1/1 2/2/2 4/4/4
f 2/2/2 3/3/3 4/4/4
s 2
f 2/5/5 1/6/6 5/7/7
f 2/5/5 5/7/7 6/8/8
