mtllib Materials_Modular_Terrain.mtl
o object1
g object1
v -0.50000000 1.00000000 0.50000000
v -0.50000000 1.00000000 -0.50000000
v 0.18750000 1.00000000 -0.50000000
v 0.18750000 1.00000000 0.50000000
v 0.18750000 0.96650635 0.50000000
v 0.18750000 0.96650635 -0.50000000
v 0.12500000 0.93301270 -0.50000000
v 0.12500000 0.93301270 -0.00000000
v 0.12500000 0.93301270 0.50000000
v -0.43301270 0.50000000 0.50000000
v -0.21650635 0.25000000 -0.00000000
v -0.50000000 -0.00000000 0.50000000
v -0.25000000 -0.00000000 -0.00000000
v -0.50000000 -0.00000000 -0.50000000
v -0.43301270 0.50000000 -0.50000000
vt 0.00000000 1.00000000
vt 0.00000000 0.00000000
vt 1.00000000 0.00000000
vt 1.00000000 1.00000000
vt 0.00000000 1.00000000
vt 0.00000000 0.00000000
vt 1.00000000 0.00000000
vt 1.00000000 1.00000000
vt 1.00000000 1.00000000
vt 0.00000000 1.00000000
vt 0.00000000 0.50000000
vt 0.00000000 0.00000000
vt 1.00000000 0.00000000
vt 1.00000000 0.00000000
vt 1.00000000 1.00000000
vt 0.00000000 1.00000000
vt 0.00000000 0.90192379
vt 0.38799538 0.00000000
vt 1.00000000 1.00000000
vt 0.00000000 0.00000000
vt 1.00000000 0.00000000
vt 1.00000000 1.00000000
vt 0.00000000 1.00000000
vt 0.00000000 0.00000000
vt 1.00000000 0.00000000
vt 1.00000000 1.00000000
vt 0.00000000 1.00000000
vt 0.00000000 0.90192379
vt 0.38799538 0.00000000
vt 1.00000000 1.00000000
vt 1.00000000 0.00000000
vt 1.00000000 1.00000000
vt 0.00000000 1.00000000
vn 0.00000000 1.00000000 -0.00000000
vn 0.00000000 1.00000000 -0.00000000
vn 0.00000000 1.00000000 -0.00000000
vn 0.00000000 1.00000000 -0.00000000
vn 1.00000000 0.00000000 0.00000000
vn 1.00000000 0.00000000 0.00000000
vn 1.00000000 0.00000000 0.00000000
vn 1.00000000 0.00000000 0.00000000
vn 0.47234749 -0.88141242 0.00000000
vn 0.47234749 -0.88141242 0.00000000
vn 0.47234749 -0.88141242 0.00000000
vn 0.47234749 -0.88141242 0.00000000
vn 0.47234749 -0.88141242 0.00000000
vn 0.61306057 -0.79003591 -0.00000000
vn 0.61306057 -0.79003591 -0.00000000
vn 0.61306057 -0.79003591 -0.00000000
vn 0.76326842 -0.38163421 0.52132202
vn 0.76326842 -0.38163421 0.52132202
vn 0.76326842 -0.38163421 0.52132202
vn 0.88807383 -0.11897933 0.44403692
vn 0.88807383 -0.11897933 0.44403692
vn 0.88807383 -0.11897933 0.44403692
vn 0.88807383 -0.11897933 0.44403692
vn 0.88807383 -0.11897933 -0.44403692
vn 0.88807383 -0.11897933 -0.44403692
vn 0.88807383 -0.11897933 -0.44403692
vn 0.88807383 -0.11897933 -0.44403692
vn 0.76326842 -0.38163421 -0.52132202
vn 0.76326842 -0.38163421 -0.52132202
vn 0.76326842 -0.38163421 -0.52132202
vn 0.61306057 -0.79003591 0.00000000
vn 0.61306057 -0.79003591 0.00000000
s 1
usemtl Dirt
f 4/4/4 3/3/3 1/1/1
f 3/3/3 2/2/2 1/1/1
s 2
f 5/5/5 6/6/6 3/7/7
f 5/5/5 3/7/7 4/8/8
s 3
usemtl Grass
f 8/11/11 7/10/10 6/9/9
f 5/13/13 8/11/11 6/9/9
f 5/13/13 9/12/12 8/11/11
s 4
usemtl Rock
f 8/14/14 9/15/15 10/16/16
f 15/33/32 7/32/31 8/31/14
s 5
f 10/17/17 11/18/18 8/19/19
s 6
f 12/20/20 13/21/21 11/22/22
f 12/20/20 11/22/22 10/23/23
s 7
f 15/27/27 11/26/26 14/24/24
f 11/26/26 13/25/25 14/24/24
s 8
f 8/30/30 11/29/29 15/28/28
