mtllib Materials_Modular_Terrain.mtl
o object1
g object1
v 0.03349365 0.50000000 0.30801270
v -0.00000000 1.00000000 0.36602540
v -0.36602540 1.00000000 -0.00000000
v -0.30801270 0.50000000 -0.03349365
v -0.50000000 1.00000000 -0.50000000
v -0.43301270 0.50000000 -0.50000000
v -0.14951905 0.13397460 -0.12500000
v -0.25000000 0.13397460 -0.50000000
v 0.06698730 0.00000000 -0.25000000
v -0.00000000 0.00000000 -0.50000000
v 0.25000000 0.00000000 -0.06698730
v 0.12500000 0.13397460 0.14951905
v 0.50000000 0.00000000 0.00000000
v 0.50000000 0.13397460 0.25000000
v 0.50000000 0.50000000 0.43301270
v 0.50000000 1.00000000 0.50000000
vt 0.00000000 1.00000000
vt 0.00000000 0.00000000
vt 1.00000000 0.00000000
vt 1.00000000 1.00000000
vt 0.00000000 1.00000000
vt 0.00000000 0.00000000
vt 1.00000000 0.00000000
vt 1.00000000 1.00000000
vt 0.00000000 1.00000000
vt 0.00000000 0.00000000
vt 1.00000000 0.00000000
vt 1.00000000 1.00000000
vt 0.00000000 1.00000000
vt 0.00000000 0.00000000
vt 1.00000000 0.00000000
vt 1.00000000 1.00000000
vt 0.00000000 1.00000000
vt 0.00000000 0.00000000
vt 1.00000000 0.00000000
vt 1.00000000 1.00000000
vt 1.00000000 0.00000000
vt 1.00000000 1.00000000
vt 0.00000000 1.00000000
vt 0.00000000 0.00000000
vt 1.00000000 0.00000000
vt 1.00000000 1.00000000
vt 0.00000000 1.00000000
vt 0.00000000 0.00000000
vt 0.00000000 1.00000000
vt 0.00000000 0.00000000
vt 1.00000000 0.00000000
vt 1.00000000 1.00000000
vt 1.00000000 0.00000000
vt 1.00000000 1.00000000
vt 0.00000000 1.00000000
vt 0.00000000 0.00000000
vn 0.70125923 0.12833935 -0.70125923
vn 0.70125923 0.12833935 -0.70125923
vn 0.70125923 0.12833935 -0.70125923
vn 0.70125923 0.12833935 -0.70125923
vn 0.95793792 0.12833935 -0.25667869
vn 0.95793792 0.12833935 -0.25667869
vn 0.95793792 0.12833935 -0.25667869
vn 0.95793792 0.12833935 -0.25667869
vn 0.86979650 0.43489825 -0.23306127
vn 0.86979650 0.43489825 -0.23306127
vn 0.86979650 0.43489825 -0.23306127
vn 0.86979650 0.43489825 -0.23306127
vn 0.46860914 0.87443656 -0.12556344
vn 0.46860914 0.87443656 -0.12556344
vn 0.46860914 0.87443656 -0.12556344
vn 0.46860914 0.87443656 -0.12556344
vn 0.34304570 0.87443656 -0.34304570
vn 0.34304570 0.87443656 -0.34304570
vn 0.34304570 0.87443656 -0.34304570
vn 0.34304570 0.87443656 -0.34304570
vn 0.12556344 0.87443656 -0.46860914
vn 0.12556344 0.87443656 -0.46860914
vn 0.12556344 0.87443656 -0.46860914
vn 0.12556344 0.87443656 -0.46860914
vn 0.23306127 0.43489825 -0.86979650
vn 0.23306127 0.43489825 -0.86979650
vn 0.23306127 0.43489825 -0.86979650
vn 0.23306127 0.43489825 -0.86979650
vn 0.63673523 0.43489825 -0.63673523
vn 0.63673523 0.43489825 -0.63673523
vn 0.63673523 0.43489825 -0.63673523
vn 0.63673523 0.43489825 -0.63673523
vn 0.25667869 0.12833935 -0.95793792
vn 0.25667869 0.12833935 -0.95793792
vn 0.25667869 0.12833935 -0.95793792
vn 0.25667869 0.12833935 -0.95793792
s 1
usemtl Rock
f 4/4/4 3/3/3 1/1/1
f 3/3/3 2/2/2 1/1/1
s 2
f 6/8/8 5/7/7 4/5/5
f 5/7/7 3/6/6 4/5/5
s 3
f 8/12/12 6/11/11 7/9/9
f 6/11/11 4/10/10 7/9/9
s 4
f 10/16/16 8/15/15 9/13/13
f 8/15/15 7/14/14 9/13/13
s 5
f 9/20/20 7/19/19 11/17/17
f 7/19/19 12/18/18 11/17/17
s 6
f 14/24/24 13/23/23 12/21/21
f 13/23/23 11/22/22 12/21/21
s 7
f 15/28/28 14/27/27 1/25/25
f 14/27/27 12/26/26 1/25/25
s 8
f 7/32/32 4/31/31 12/29/29
f 4/31/31 1/30/30 12/29/29
s 9
f 16/36/36 15/35/35 1/34/34
f 16/36/36 1/34/34 2/33/33
