mtllib Materials_Modular_Terrain.mtl
o object1
g object1
v 1.50000000 1.20000000 1.25000000
v 1.01227419 1.20000000 0.95196320
v 0.44762056 1.20000000 1.04066871
v 0.11107442 1.20000000 0.57867403
v -0.44454365 1.20000000 0.44454365
v -0.57867403 1.20000000 -0.11107442
v -1.04066871 1.20000000 -0.44762056
v -0.95196320 1.20000000 -1.01227419
v -1.25000000 1.20000000 -1.50000000
v -1.50000000 1.20000000 -1.50000000
v -1.50000000 1.20000000 0.50000000
v -0.50000000 1.20000000 0.50000000
v -0.50000000 1.20000000 1.50000000
v 1.50000000 1.20000000 1.50000000
v 0.19440995 1.15000000 0.45395359
v 0.50502308 1.15000000 0.90208678
v 0.24996698 1.05000000 0.37080663
v 0.54329142 1.05000000 0.80969883
v -0.33847763 1.15000000 0.33847763
v -0.26776695 1.05000000 0.26776695
v -0.45395359 1.15000000 -0.19440995
v -0.37080663 1.05000000 -0.24996698
v -0.90208678 1.15000000 -0.50502308
v -0.80969883 1.05000000 -0.54329142
v -0.80484541 1.15000000 -1.04153774
v -0.70676688 1.05000000 -1.06104678
v -1.10000000 1.15000000 -1.50000000
v -1.00000000 1.05000000 -1.50000000
v -0.70676688 1.00000000 -1.06104678
v -1.00000000 1.00000000 -1.50000000
v -0.82936504 0.93301270 -1.03666049
v -1.25000000 0.86602540 -1.50000000
v -1.04066871 0.86602540 -0.44762056
v -0.80969883 1.00000000 -0.54329142
v -0.47474033 0.93301270 -0.18052070
v -0.37080663 1.00000000 -0.24996698
v -0.44454365 0.86602540 0.44454365
v -0.26776695 1.00000000 0.26776695
v 0.18052070 0.93301270 0.47474033
v 0.24996698 1.00000000 0.37080663
v 0.44762056 0.86602540 1.04066871
v 0.54329142 1.00000000 0.80969883
v 1.03666049 0.93301270 0.82936504
v 1.06104678 1.00000000 0.70676688
v 1.06104678 1.05000000 0.70676688
v 1.50000000 1.00000000 1.00000000
v 1.50000000 1.05000000 1.00000000
v 1.04153774 1.15000000 0.80484541
v 1.50000000 1.15000000 1.10000000
v 1.50000000 0.86602540 1.25000000
v 0.97003590 0.25000000 1.16430944
v 1.50000000 0.50000000 1.43301270
v 0.96350161 -0.00000000 1.19715952
v 1.50000000 0.00000000 1.50000000
v 0.37758463 0.50000000 1.20975040
v 0.35194970 0.00000000 1.27163860
v -0.00921007 0.25000000 0.75869248
v -0.02781814 -0.00000000 0.78654143
v -0.57395317 0.50000000 0.57395317
v -0.62132034 0.00000000 0.62132034
v -0.75869248 0.25000000 0.00921007
v -0.78654143 -0.00000000 0.02781814
v -1.20975040 0.50000000 -0.37758463
v -1.27163860 0.00000000 -0.35194970
v -1.16430944 0.25000000 -0.97003590
v -1.19715952 -0.00000000 -0.96350161
v -1.43301270 0.50000000 -1.50000000
v -1.50000000 0.00000000 -1.50000000
vt 0.08333333 0.00000000
vt 0.18267893 0.16257527
vt 0.15311043 0.35079315
vt 0.30710866 0.46297519
vt 0.35181878 0.64818122
vt 0.53702481 0.69289134
vt 0.64920685 0.84688957
vt 0.83742473 0.81732107
vt 1.00000000 0.91666667
vt 1.00000000 1.00000000
vt 0.33333333 1.00000000
vt 0.33333333 0.66666667
vt 0.00000000 0.66666667
vt 0.00000000 0.00000000
vt 0.00000000 1.00000000
vt 0.00000000 0.00000000
vt 1.00000000 0.00000000
vt 1.00000000 1.00000000
vt 0.00000000 1.00000000
vt 0.00000000 0.00000000
vt 1.00000000 0.00000000
vt 1.00000000 1.00000000
vt 0.00000000 1.00000000
vt 0.00000000 0.00000000
vt 1.00000000 0.00000000
vt 1.00000000 1.00000000
vt 0.00000000 1.00000000
vt 0.00000000 0.00000000
vt 1.00000000 0.00000000
vt 1.00000000 1.00000000
vt 0.00000000 1.00000000
vt 0.00000000 0.00000000
vt 1.00000000 0.00000000
vt 1.00000000 1.00000000
vt 0.00000000 1.00000000
vt 0.00000000 0.00000000
vt 1.00000000 0.00000000
vt 1.00000000 1.00000000
vt 1.00000000 0.00000000
vt 1.00000000 1.00000000
vt 0.00000000 1.00000000
vt 0.00000000 0.00000000
vt 1.00000000 0.00000000
vt 1.00000000 1.00000000
vt 0.00000000 1.00000000
vt 0.00000000 0.00000000
vt 1.00000000 0.00000000
vt 1.00000000 1.00000000
vt 0.00000000 1.00000000
vt 0.00000000 0.00000000
vt 0.00000000 1.00000000
vt 0.00000000 0.00000000
vt 1.00000000 0.00000000
vt 1.00000000 1.00000000
vt 0.00000000 1.00000000
vt 0.00000000 0.00000000
vt 1.00000000 0.00000000
vt 1.00000000 1.00000000
vt 0.00000000 1.00000000
vt 0.00000000 0.00000000
vt 1.00000000 0.00000000
vt 1.00000000 1.00000000
vt 0.00000000 1.00000000
vt 0.00000000 0.00000000
vt 1.00000000 0.00000000
vt 1.00000000 1.00000000
vt 0.00000000 1.00000000
vt 0.00000000 0.00000000
vt 1.00000000 0.00000000
vt 1.00000000 1.00000000
vt 0.00000000 1.00000000
vt 0.00000000 0.00000000
vt 1.00000000 0.00000000
vt 1.00000000 1.00000000
vt 0.00000000 1.00000000
vt 0.00000000 0.00000000
vt 1.00000000 0.00000000
vt 1.00000000 1.00000000
vt 0.00000000 1.00000000
vt 0.00000000 0.00000000
vt 1.00000000 0.00000000
vt 1.00000000 1.00000000
vt 0.00000000 1.00000000
vt 0.00000000 0.00000000
vt 1.00000000 0.00000000
vt 1.00000000 1.00000000
vt 0.00000000 1.00000000
vt 0.00000000 0.00000000
vt 1.00000000 0.00000000
vt 1.00000000 1.00000000
vt 0.00000000 1.00000000
vt 0.00000000 0.00000000
vt 1.00000000 0.00000000
vt 1.00000000 1.00000000
vt 0.00000000 1.00000000
vt 0.00000000 0.00000000
vt 1.00000000 0.00000000
vt 1.00000000 1.00000000
vt 0.00000000 1.00000000
vt 0.00000000 0.00000000
vt 1.00000000 0.00000000
vt 1.00000000 1.00000000
vt 0.00000000 1.00000000
vt 0.00000000 0.00000000
vt 1.00000000 0.00000000
vt 1.00000000 1.00000000
vt 0.00000000 1.00000000
vt 0.00000000 0.00000000
vt 1.00000000 0.00000000
vt 1.00000000 1.00000000
vt 0.00000000 1.00000000
vt 0.00000000 0.00000000
vt 1.00000000 0.00000000
vt 1.00000000 1.00000000
vt 0.00000000 1.00000000
vt 0.00000000 0.00000000
vt 1.00000000 0.00000000
vt 1.00000000 1.00000000
vt 0.00000000 1.00000000
vt 0.00000000 0.00000000
vt 1.00000000 0.00000000
vt 1.00000000 1.00000000
vt 1.00000000 0.00000000
vt 1.00000000 1.00000000
vt 0.00000000 1.00000000
vt 0.00000000 0.00000000
vt 0.00000000 1.00000000
vt 0.00000000 0.00000000
vt 1.00000000 0.00000000
vt 1.00000000 1.00000000
vt 0.00000000 1.00000000
vt 0.00000000 0.00000000
vt 1.00000000 0.00000000
vt 1.00000000 1.00000000
vt 0.00000000 1.00000000
vt 0.00000000 0.00000000
vt 1.00000000 0.00000000
vt 1.00000000 1.00000000
vt 0.00000000 1.00000000
vt 0.00000000 0.00000000
vt 1.00000000 0.00000000
vt 1.00000000 1.00000000
vt 0.00000000 1.00000000
vt 0.00000000 0.00000000
vt 1.00000000 0.00000000
vt 1.00000000 1.00000000
vt 0.00000000 1.00000000
vt 0.00000000 0.00000000
vt 1.00000000 0.00000000
vt 1.00000000 1.00000000
vt 1.00000000 0.00000000
vt 1.00000000 1.00000000
vt 0.00000000 1.00000000
vt 0.00000000 0.00000000
vt 0.00000000 1.00000000
vt 0.00000000 0.00000000
vt 1.00000000 0.00000000
vt 1.00000000 1.00000000
vt 0.00000000 1.00000000
vt 0.00000000 0.00000000
vt 1.00000000 0.00000000
vt 1.00000000 1.00000000
vt 0.00000000 1.00000000
vt 0.00000000 0.00000000
vt 1.00000000 0.00000000
vt 1.00000000 1.00000000
vt 0.00000000 1.00000000
vt 0.00000000 0.00000000
vt 1.00000000 0.00000000
vt 1.00000000 1.00000000
vt 0.00000000 1.00000000
vt 0.00000000 0.00000000
vt 1.00000000 0.00000000
vt 1.00000000 1.00000000
vt 0.00000000 1.00000000
vt 0.00000000 0.00000000
vt 1.00000000 0.00000000
vt 1.00000000 1.00000000
vt 0.00000000 1.00000000
vt 0.00000000 0.00000000
vt 1.00000000 0.00000000
vt 1.00000000 1.00000000
vt 0.00000000 1.00000000
vt 0.00000000 0.00000000
vt 1.00000000 0.00000000
vt 1.00000000 1.00000000
vt 0.00000000 1.00000000
vt 0.00000000 0.00000000
vt 1.00000000 0.00000000
vt 1.00000000 1.00000000
vt 0.00000000 1.00000000
vt 0.00000000 0.00000000
vt 1.00000000 0.00000000
vt 1.00000000 1.00000000
vt 1.00000000 0.00000000
vt 1.00000000 1.00000000
vt 0.00000000 1.00000000
vt 0.00000000 0.00000000
vt 0.00000000 1.00000000
vt 0.00000000 0.00000000
vt 1.00000000 0.00000000
vt 1.00000000 1.00000000
vt 0.00000000 1.00000000
vt 0.00000000 0.00000000
vt 1.00000000 0.00000000
vt 1.00000000 1.00000000
vn 0.00000000 1.00000000 0.00000000
vn 0.00000000 1.00000000 0.00000000
vn 0.00000000 1.00000000 0.00000000
vn 0.00000000 1.00000000 0.00000000
vn 0.00000000 1.00000000 0.00000000
vn 0.00000000 1.00000000 0.00000000
vn 0.00000000 1.00000000 0.00000000
vn 0.00000000 1.00000000 0.00000000
vn 0.00000000 1.00000000 0.00000000
vn 0.00000000 1.00000000 0.00000000
vn 0.00000000 1.00000000 0.00000000
vn 0.00000000 1.00000000 0.00000000
vn 0.00000000 1.00000000 0.00000000
vn 0.00000000 1.00000000 0.00000000
vn 0.27049272 0.94234142 -0.19704400
vn 0.27723412 0.94139067 -0.19215839
vn 0.30289002 0.92961408 -0.20994119
vn 0.29410366 0.93145192 -0.21424370
vn 0.60175636 0.68111845 -0.41709345
vn 0.61066780 0.67861412 -0.40812708
vn 0.63927566 0.63936454 -0.42724654
vn 0.62906095 0.64356023 -0.43601899
vn 0.16209782 0.64356023 -0.74803378
vn 0.15008413 0.63936454 -0.75411387
vn 0.14336780 0.67861412 -0.72036696
vn 0.15506192 0.68111845 -0.71556513
vn 0.71556513 0.68111845 -0.15506192
vn 0.72036696 0.67861412 -0.14336780
vn 0.75411387 0.63936454 -0.15008413
vn 0.74803378 0.64356023 -0.16209782
vn 0.43601899 0.64356023 -0.62906095
vn 0.42724654 0.63936454 -0.63927566
vn 0.40812708 0.67861412 -0.61066780
vn 0.41709345 0.68111845 -0.60175636
vn 0.72043561 0.68111845 0.13057639
vn 0.72039677 0.67861412 0.14321792
vn 0.75414508 0.63936454 0.14992723
vn 0.75312525 0.64356023 0.13650127
vn 0.61075271 0.67861412 -0.40800001
vn 0.61562629 0.68111845 -0.39633563
vn 0.64356023 0.64356023 -0.41431929
vn 0.63936454 0.63936454 -0.42711353
vn 0.83152741 -0.00000000 -0.55548373
vn 0.83152741 -0.00000000 -0.55548373
vn 0.83152741 -0.00000000 -0.55548373
vn 0.83152741 -0.00000000 -0.55548373
vn 0.42308008 -0.86842599 -0.25853344
vn 0.41720700 -0.86502096 -0.27870603
vn 0.45045445 -0.84055945 -0.30091626
vn 0.45225439 -0.84391818 -0.28856207
vn 0.49210519 -0.86502096 0.09783259
vn 0.48981149 -0.86842599 0.07694802
vn 0.52825650 -0.84391818 0.09352633
vn 0.53132132 -0.84055945 0.10562892
vn 0.30100998 -0.84055945 -0.45039183
vn 0.30740065 -0.84391818 -0.43966685
vn 0.29193856 -0.86842599 -0.40075949
vn 0.27879283 -0.86502096 -0.41714901
vn 0.49208483 -0.86502096 -0.09793498
vn 0.48197354 -0.86842599 -0.11635204
vn 0.52383634 -0.84391818 -0.11574795
vn 0.53129933 -0.84055945 -0.10573947
vn 0.10573947 -0.84055945 -0.53129933
vn 0.11574795 -0.84391818 -0.52383634
vn 0.11635204 -0.86842599 -0.48197354
vn 0.09793498 -0.86502096 -0.49208483
vn 0.41714901 -0.86502096 -0.27879283
vn 0.40075949 -0.86842599 -0.29193856
vn 0.43966685 -0.84391818 -0.30740065
vn 0.45039183 -0.84055945 -0.30100998
vn -0.10562892 -0.84055945 -0.53132132
vn -0.09352633 -0.84391818 -0.52825650
vn -0.07694802 -0.86842599 -0.48981149
vn -0.09783259 -0.86502096 -0.49210519
vn -0.19498829 -0.00000000 -0.98080557
vn -0.19498829 -0.00000000 -0.98080557
vn -0.19498829 -0.00000000 -0.98080557
vn -0.19498829 -0.00000000 -0.98080557
vn 0.55548373 -0.00000000 -0.83152741
vn 0.55548373 -0.00000000 -0.83152741
vn 0.55548373 -0.00000000 -0.83152741
vn 0.55548373 -0.00000000 -0.83152741
vn 0.39633563 0.68111845 -0.61562629
vn 0.40800001 0.67861412 -0.61075271
vn 0.42711353 0.63936454 -0.63936454
vn 0.41431929 0.64356023 -0.64356023
vn 0.27870603 -0.86502096 -0.41720700
vn 0.25853344 -0.86842599 -0.42308008
vn 0.28856207 -0.84391818 -0.45225439
vn 0.30091626 -0.84055945 -0.45045445
vn 0.58254850 -0.40297643 -0.70586630
vn 0.55867170 -0.40847448 -0.72182722
vn 0.55342600 -0.37248347 -0.74496693
vn 0.59863276 -0.35822865 -0.71645729
vn 0.49522221 -0.12589489 -0.85959609
vn 0.48763407 -0.12625819 -0.86387029
vn 0.48825606 -0.11588430 -0.86497217
vn 0.49202720 -0.11560271 -0.86287035
vn -0.12436767 -0.11560271 -0.98547892
vn -0.12007926 -0.11588430 -0.98597759
vn -0.11992629 -0.12625819 -0.98472156
vn -0.12857248 -0.12589489 -0.98367657
vn 0.78647885 -0.12589489 -0.60464990
vn 0.78110399 -0.12625819 -0.61150260
vn 0.78210030 -0.11588430 -0.61228258
vn 0.78478005 -0.11560271 -0.60889760
vn 0.26222571 -0.11560271 -0.95805725
vn 0.26637852 -0.11588430 -0.95687685
vn 0.26603918 -0.12625819 -0.95565790
vn 0.25765124 -0.12589489 -0.95800121
vn 0.95800121 -0.12589489 -0.25765124
vn 0.95565790 -0.12625819 -0.26603918
vn 0.95687685 -0.11588430 -0.26637852
vn 0.95805725 -0.11560271 -0.26222571
vn 0.60889760 -0.11560271 -0.78478005
vn 0.61228258 -0.11588430 -0.78210030
vn 0.61150260 -0.12625819 -0.78110399
vn 0.60464990 -0.12589489 -0.78647885
vn 0.98367657 -0.12589489 0.12857248
vn 0.98472156 -0.12625819 0.11992629
vn 0.98597759 -0.11588430 0.12007926
vn 0.98547892 -0.11560271 0.12436767
vn 0.86387029 -0.12625819 -0.48763407
vn 0.85959609 -0.12589489 -0.49522221
vn 0.86287035 -0.11560271 -0.49202720
vn 0.86497217 -0.11588430 -0.48825606
vn -0.27888822 -0.35822865 -0.89100707
vn -0.22621245 -0.37248347 -0.90004666
vn -0.23991403 -0.40847448 -0.88067580
vn -0.26808130 -0.40297643 -0.87506709
vn 0.80832798 -0.40297643 -0.42920377
vn 0.79237667 -0.40847448 -0.45308699
vn 0.79638545 -0.37248347 -0.47647274
vn 0.82724089 -0.35822865 -0.43283339
vn 0.08331452 -0.35822865 -0.92990910
vn 0.13543990 -0.37248347 -0.91810245
vn 0.11536837 -0.40847448 -0.90544947
vn 0.08719885 -0.40297643 -0.91104685
vn 0.91104685 -0.40297643 -0.08719885
vn 0.90544947 -0.40847448 -0.11536837
vn 0.91810245 -0.37248347 -0.13543990
vn 0.92990910 -0.35822865 -0.08331452
vn 0.43283339 -0.35822865 -0.82724089
vn 0.47647274 -0.37248347 -0.79638545
vn 0.45308699 -0.40847448 -0.79237667
vn 0.42920377 -0.40297643 -0.80832798
vn 0.87506709 -0.40297643 0.26808130
vn 0.88067580 -0.40847448 0.23991403
vn 0.90004666 -0.37248347 0.22621245
vn 0.89100707 -0.35822865 0.27888822
vn 0.72182722 -0.40847448 -0.55867170
vn 0.70586630 -0.40297643 -0.58254850
vn 0.71645729 -0.35822865 -0.59863276
vn 0.74496693 -0.37248347 -0.55342600
vn 0.98080557 -0.00000000 0.19498829
vn 0.98080557 -0.00000000 0.19498829
vn 0.98080557 -0.00000000 0.19498829
vn 0.98080557 -0.00000000 0.19498829
vn 0.55565673 -0.00000000 -0.83141181
vn 0.55565673 -0.00000000 -0.83141181
vn 0.55565673 -0.00000000 -0.83141181
vn 0.55565673 -0.00000000 -0.83141181
vn 0.98076498 -0.00000000 -0.19519235
vn 0.98076498 -0.00000000 -0.19519235
vn 0.98076498 -0.00000000 -0.19519235
vn 0.98076498 -0.00000000 -0.19519235
vn 0.19519235 -0.00000000 -0.98076498
vn 0.19519235 -0.00000000 -0.98076498
vn 0.19519235 -0.00000000 -0.98076498
vn 0.19519235 -0.00000000 -0.98076498
vn -0.13650127 0.64356023 -0.75312525
vn -0.14992723 0.63936454 -0.75414508
vn -0.14321792 0.67861412 -0.72039677
vn -0.13057639 0.68111845 -0.72043561
vn 0.83141181 -0.00000000 -0.55565673
vn 0.83141181 -0.00000000 -0.55565673
vn 0.83141181 -0.00000000 -0.55565673
vn 0.83141181 -0.00000000 -0.55565673
vn 0.08538678 0.93145192 -0.35370387
vn 0.07804937 0.92961408 -0.36017491
vn 0.07143830 0.94139067 -0.32966676
vn 0.07853184 0.94234142 -0.32530816
vn 0.32530816 0.94234142 -0.07853184
vn 0.32966676 0.94139067 -0.07143830
vn 0.36017491 0.92961408 -0.07804937
vn 0.35370387 0.93145192 -0.08538678
vn 0.21424370 0.93145192 -0.29410366
vn 0.20994119 0.92961408 -0.30289002
vn 0.19215839 0.94139067 -0.27723412
vn 0.19704400 0.94234142 -0.27049272
vn 0.33059839 0.94234142 0.05193609
vn 0.33191063 0.94139067 0.06015762
vn 0.36262643 0.92961408 0.06572475
vn 0.35945587 0.93145192 0.05646952
vn 0.28362411 0.94139067 -0.18259509
vn 0.28555801 0.94234142 -0.17449721
vn 0.31048397 0.93145192 -0.18972884
vn 0.30987136 0.92961408 -0.19949288
vn 0.17449721 0.94234142 -0.28555801
vn 0.18259509 0.94139067 -0.28362411
vn 0.19949288 0.92961408 -0.30987136
vn 0.18972884 0.93145192 -0.31048397
vn -0.05646952 0.93145192 -0.35945587
vn -0.06572475 0.92961408 -0.36262643
vn -0.06015762 0.94139067 -0.33191063
vn -0.05193609 0.94234142 -0.33059839
s 1
usemtl Grass
f 14/14/14 1/1/1 2/2/2
f 13/13/13 14/14/14 3/3/3
f 12/12/12 3/3/3 5/5/5
f 5/5/5 6/6/6 7/7/7
f 7/7/7 10/10/10 11/11/11
f 8/8/8 9/9/9 10/10/10
f 7/7/7 8/8/8 10/10/10
f 5/5/5 7/7/7 12/12/12
f 7/7/7 11/11/11 12/12/12
f 3/3/3 4/4/4 5/5/5
f 12/12/12 13/13/13 3/3/3
f 14/14/14 2/2/2 3/3/3
s 2
f 3/18/18 16/17/17 4/15/15
f 16/17/17 15/16/16 4/15/15
s 3
f 16/22/22 18/21/21 15/19/19
f 18/21/21 17/20/20 15/19/19
s 4
f 15/26/26 17/25/25 20/24/24
f 15/26/26 20/24/24 19/23/23
s 5
f 19/30/30 20/29/29 21/27/27
f 20/29/29 22/28/28 21/27/27
s 6
f 21/34/34 22/33/33 24/32/32
f 21/34/34 24/32/32 23/31/31
s 7
f 23/38/38 24/37/37 25/35/35
f 24/37/37 26/36/36 25/35/35
s 8
f 28/42/42 27/41/41 25/40/40
f 28/42/42 25/40/40 26/39/39
s 9
f 30/46/46 28/45/45 26/44/44
f 30/46/46 26/44/44 29/43/43
s 10
f 32/50/50 30/49/49 31/47/47
f 30/49/49 29/48/48 31/47/47
s 11
f 34/54/54 33/53/53 31/52/52
f 34/54/54 31/52/52 29/51/51
s 12
f 36/58/58 35/57/57 34/55/55
f 35/57/57 33/56/56 34/55/55
s 13
f 38/62/62 37/61/61 35/60/60
f 38/62/62 35/60/60 36/59/59
s 14
f 40/66/66 39/65/65 38/63/63
f 39/65/65 37/64/64 38/63/63
s 15
f 42/70/70 41/69/69 39/68/68
f 42/70/70 39/68/68 40/67/67
s 16
f 44/74/74 43/73/73 42/71/71
f 43/73/73 41/72/72 42/71/71
s 17
f 45/78/78 44/77/77 42/76/76
f 45/78/78 42/76/76 18/75/75
s 18
f 47/82/82 46/81/81 45/79/79
f 46/81/81 44/80/80 45/79/79
s 19
f 49/86/86 47/85/85 48/83/83
f 47/85/85 45/84/84 48/83/83
s 20
f 46/90/90 50/89/89 43/88/88
f 46/90/90 43/88/88 44/87/87
s 21
usemtl Rock
f 50/94/94 52/93/93 51/92/92
f 50/94/94 51/92/92 43/91/91
s 22
f 52/98/98 54/97/97 51/95/95
f 54/97/97 53/96/96 51/95/95
s 23
f 51/102/102 53/101/101 56/100/100
f 51/102/102 56/100/100 55/99/99
s 24
f 55/106/106 56/105/105 57/103/103
f 56/105/105 58/104/104 57/103/103
s 25
f 57/110/110 58/109/109 60/108/108
f 57/110/110 60/108/108 59/107/107
s 26
f 59/114/114 60/113/113 61/111/111
f 60/113/113 62/112/112 61/111/111
s 27
f 61/118/118 62/117/117 64/116/116
f 61/118/118 64/116/116 63/115/115
s 28
f 63/122/122 64/121/121 65/119/119
f 64/121/121 66/120/120 65/119/119
s 29
f 68/126/126 67/125/125 65/124/124
f 68/126/126 65/124/124 66/123/123
s 30
f 43/130/130 51/129/129 41/127/127
f 51/129/129 55/128/128 41/127/127
s 31
f 41/134/134 55/133/133 57/132/132
f 41/134/134 57/132/132 39/131/131
s 32
f 39/138/138 57/137/137 37/135/135
f 57/137/137 59/136/136 37/135/135
s 33
f 37/142/142 59/141/141 61/140/140
f 37/142/142 61/140/140 35/139/139
s 34
f 35/146/146 61/145/145 33/143/143
f 61/145/145 63/144/144 33/143/143
s 35
f 33/150/150 63/149/149 65/148/148
f 33/150/150 65/148/148 31/147/147
s 36
f 67/154/154 32/153/153 65/151/151
f 32/153/153 31/152/152 65/151/151
s 37
usemtl Grass
f 24/158/158 34/157/157 29/156/156
f 24/158/158 29/156/156 26/155/155
s 38
f 22/162/162 36/161/161 24/159/159
f 36/161/161 34/160/160 24/159/159
s 39
f 20/166/166 38/165/165 36/164/164
f 20/166/166 36/164/164 22/163/163
s 40
f 17/170/170 40/169/169 20/167/167
f 40/169/169 38/168/168 20/167/167
s 41
f 48/174/174 45/173/173 18/172/172
f 48/174/174 18/172/172 16/171/171
s 42
f 18/178/178 42/177/177 17/175/175
f 42/177/177 40/176/176 17/175/175
s 43
f 4/182/182 15/181/181 19/180/180
f 4/182/182 19/180/180 5/179/179
s 44
f 5/186/186 19/185/185 6/183/183
f 19/185/185 21/184/184 6/183/183
s 45
f 6/190/190 21/189/189 23/188/188
f 6/190/190 23/188/188 7/187/187
s 46
f 7/194/194 23/193/193 8/191/191
f 23/193/193 25/192/192 8/191/191
s 47
f 27/198/198 9/197/197 8/196/196
f 27/198/198 8/196/196 25/195/195
s 48
f 1/202/202 49/201/201 2/199/199
f 49/201/201 48/200/200 2/199/199
s 49
f 2/206/206 48/205/205 16/204/204
f 2/206/206 16/204/204 3/203/203
