mtllib Materials_Modular_Terrain.mtl
o object1
g object1
v 0.50000000 0.90000000 1.18903882
v 0.50000000 0.86212678 1.14053170
v -0.50000000 0.86212678 1.14053170
v -0.50000000 0.90000000 1.18903882
v 0.50000000 0.90000000 1.33333333
v -0.50000000 0.90000000 1.33333333
v 0.50000000 1.00000000 1.50000000
v -0.50000000 1.00000000 1.50000000
v 0.50000000 0.70000000 1.10000000
v -0.50000000 0.70000000 1.10000000
v 0.50000000 0.70000000 0.78903882
v -0.50000000 0.70000000 0.78903882
v 0.50000000 0.66212678 0.74053170
v -0.50000000 0.66212678 0.74053170
v 0.50000000 0.50000000 0.70000000
v -0.50000000 0.50000000 0.70000000
v 0.50000000 0.50000000 0.38903882
v -0.50000000 0.50000000 0.38903882
v 0.50000000 0.46212678 0.34053170
v -0.50000000 0.46212678 0.34053170
v 0.50000000 0.30000000 0.30000000
v -0.50000000 0.30000000 0.30000000
v 0.50000000 0.30000000 -0.01096118
v -0.50000000 0.30000000 -0.01096118
v 0.50000000 0.26212678 -0.05946830
v -0.50000000 0.26212678 -0.05946830
v 0.50000000 0.10000000 -0.10000000
v -0.50000000 0.10000000 -0.10000000
v 0.50000000 0.10000000 -0.41096118
v -0.50000000 0.10000000 -0.41096118
v 0.50000000 0.06212678 -0.45946830
v -0.50000000 0.06212678 -0.45946830
v 0.50000000 -0.10000000 -0.50000000
v -0.50000000 -0.10000000 -0.50000000
vt 1.00000000 0.00000000
vt 1.00000000 1.00000000
vt 0.00000000 1.00000000
vt 0.00000000 0.00000000
vt 1.00000000 0.00000000
vt 1.00000000 1.00000000
vt 0.00000000 1.00000000
vt 0.00000000 0.00000000
vt 1.00000000 0.00000000
vt 1.00000000 1.00000000
vt 0.00000000 1.00000000
vt 0.00000000 0.00000000
vt 1.00000000 0.00000000
vt 1.00000000 1.00000000
vt 0.00000000 1.00000000
vt 0.00000000 0.00000000
vt 1.00000000 0.00000000
vt 1.00000000 1.00000000
vt 0.00000000 1.00000000
vt 0.00000000 0.00000000
vt 1.00000000 0.00000000
vt 1.00000000 1.00000000
vt 0.00000000 1.00000000
vt 0.00000000 0.00000000
vt 1.00000000 0.00000000
vt 1.00000000 1.00000000
vt 0.00000000 1.00000000
vt 0.00000000 0.00000000
vt 1.00000000 0.00000000
vt 1.00000000 1.00000000
vt 0.00000000 1.00000000
vt 0.00000000 0.00000000
vt 1.00000000 0.00000000
vt 1.00000000 1.00000000
vt 0.00000000 1.00000000
vt 0.00000000 0.00000000
vt 1.00000000 0.00000000
vt 1.00000000 1.00000000
vt 0.00000000 1.00000000
vt 0.00000000 0.00000000
vt 1.00000000 0.00000000
vt 1.00000000 1.00000000
vt 0.00000000 1.00000000
vt 0.00000000 0.00000000
vt 1.00000000 0.00000000
vt 1.00000000 1.00000000
vt 0.00000000 1.00000000
vt 0.00000000 0.00000000
vt 1.00000000 0.00000000
vt 1.00000000 1.00000000
vt 0.00000000 1.00000000
vt 0.00000000 0.00000000
vt 1.00000000 0.00000000
vt 1.00000000 1.00000000
vt 0.00000000 1.00000000
vt 0.00000000 0.00000000
vt 1.00000000 0.00000000
vt 1.00000000 1.00000000
vt 0.00000000 1.00000000
vt 0.00000000 0.00000000
vt 1.00000000 0.00000000
vt 1.00000000 1.00000000
vt 0.00000000 1.00000000
vt 0.00000000 0.00000000
vn -0.00000000 0.78820544 -0.61541221
vn -0.00000000 0.78820544 -0.61541221
vn -0.00000000 0.78820544 -0.61541221
vn -0.00000000 0.78820544 -0.61541221
vn -0.00000000 1.00000000 -0.00000000
vn -0.00000000 1.00000000 -0.00000000
vn -0.00000000 1.00000000 -0.00000000
vn -0.00000000 1.00000000 -0.00000000
vn -0.00000000 0.85749293 -0.51449576
vn -0.00000000 0.85749293 -0.51449576
vn -0.00000000 0.85749293 -0.51449576
vn -0.00000000 0.85749293 -0.51449576
vn -0.00000000 0.24253563 -0.97014250
vn -0.00000000 0.24253563 -0.97014250
vn -0.00000000 0.24253563 -0.97014250
vn -0.00000000 0.24253563 -0.97014250
vn -0.00000000 1.00000000 -0.00000000
vn -0.00000000 1.00000000 -0.00000000
vn -0.00000000 1.00000000 -0.00000000
vn -0.00000000 1.00000000 -0.00000000
vn -0.00000000 0.78820544 -0.61541221
vn -0.00000000 0.78820544 -0.61541221
vn -0.00000000 0.78820544 -0.61541221
vn -0.00000000 0.78820544 -0.61541221
vn -0.00000000 0.24253563 -0.97014250
vn -0.00000000 0.24253563 -0.97014250
vn -0.00000000 0.24253563 -0.97014250
vn -0.00000000 0.24253563 -0.97014250
vn -0.00000000 1.00000000 0.00000000
vn -0.00000000 1.00000000 0.00000000
vn -0.00000000 1.00000000 0.00000000
vn -0.00000000 1.00000000 0.00000000
vn -0.00000000 0.78820544 -0.61541221
vn -0.00000000 0.78820544 -0.61541221
vn -0.00000000 0.78820544 -0.61541221
vn -0.00000000 0.78820544 -0.61541221
vn -0.00000000 0.24253563 -0.97014250
vn -0.00000000 0.24253563 -0.97014250
vn -0.00000000 0.24253563 -0.97014250
vn -0.00000000 0.24253563 -0.97014250
vn -0.00000000 1.00000000 -0.00000000
vn -0.00000000 1.00000000 -0.00000000
vn -0.00000000 1.00000000 -0.00000000
vn -0.00000000 1.00000000 -0.00000000
vn -0.00000000 0.78820544 -0.61541221
vn -0.00000000 0.78820544 -0.61541221
vn -0.00000000 0.78820544 -0.61541221
vn -0.00000000 0.78820544 -0.61541221
vn -0.00000000 0.24253563 -0.97014250
vn -0.00000000 0.24253563 -0.97014250
vn -0.00000000 0.24253563 -0.97014250
vn -0.00000000 0.24253563 -0.97014250
vn -0.00000000 1.00000000 0.00000000
vn -0.00000000 1.00000000 0.00000000
vn -0.00000000 1.00000000 0.00000000
vn -0.00000000 1.00000000 0.00000000
vn -0.00000000 0.78820544 -0.61541221
vn -0.00000000 0.78820544 -0.61541221
vn -0.00000000 0.78820544 -0.61541221
vn -0.00000000 0.78820544 -0.61541221
vn -0.00000000 0.24253563 -0.97014250
vn -0.00000000 0.24253563 -0.97014250
vn -0.00000000 0.24253563 -0.97014250
vn -0.00000000 0.24253563 -0.97014250
s 1
usemtl Rock
f 1/1/1 2/2/2 4/4/4
f 2/2/2 3/3/3 4/4/4
s 2
f 5/5/5 1/6/6 4/7/7
f 5/5/5 4/7/7 6/8/8
s 3
usemtl Dirt
f 7/9/9 5/10/10 8/12/12
f 5/10/10 6/11/11 8/12/12
s 4
usemtl Rock
f 2/13/13 9/14/14 3/16/16
f 9/14/14 10/15/15 3/16/16
s 5
f 9/17/17 11/18/18 12/19/19
f 9/17/17 12/19/19 10/20/20
s 6
f 11/21/21 13/22/22 12/24/24
f 13/22/22 14/23/23 12/24/24
s 7
f 13/25/25 15/26/26 14/28/28
f 15/26/26 16/27/27 14/28/28
s 8
f 15/29/29 17/30/30 18/31/31
f 15/29/29 18/31/31 16/32/32
s 9
f 17/33/33 19/34/34 18/36/36
f 19/34/34 20/35/35 18/36/36
s 10
f 19/37/37 21/38/38 20/40/40
f 21/38/38 22/39/39 20/40/40
s 11
f 21/41/41 23/42/42 24/43/43
f 21/41/41 24/43/43 22/44/44
s 12
f 23/45/45 25/46/46 24/48/48
f 25/46/46 26/47/47 24/48/48
s 13
f 25/49/49 27/50/50 26/52/52
f 27/50/50 28/51/51 26/52/52
s 14
f 27/53/53 29/54/54 30/55/55
f 27/53/53 30/55/55 28/56/56
s 15
f 29/57/57 31/58/58 30/60/60
f 31/58/58 32/59/59 30/60/60
s 16
f 31/61/61 33/62/62 32/64/64
f 33/62/62 34/63/63 32/64/64
