mtllib Materials_Modular_Terrain.mtl
o object1
g object1
v 1.05970344 1.15000000 0.81412953
v 0.91481457 1.20000000 0.85295239
v 0.75000000 1.20000000 1.50000000
v 0.90000000 1.15000000 1.50000000
v 1.15629602 1.05000000 0.78824763
v 1.00000000 1.05000000 1.50000000
v 1.15629602 1.00000000 0.78824763
v 1.00000000 1.00000000 1.50000000
v 1.03555529 0.93301270 0.82060001
v 0.75000000 0.86602540 1.50000000
v 0.66506351 1.00000000 0.25000000
v 0.44855716 0.86602540 0.37500000
v 0.44454365 1.00000000 -0.44454365
v 0.35615530 0.93301270 -0.35615530
v -0.25000000 1.00000000 -0.66506351
v -0.37500000 0.86602540 -0.44855716
v -0.81172768 1.00000000 -1.16247652
v -0.84301278 0.93301270 -1.04145486
v -1.50000000 1.00000000 -1.00000000
v -1.50000000 0.86602540 -0.75000000
v -0.92848528 0.25000000 -0.71081753
v -1.50000000 0.50000000 -0.56698730
v -0.93686810 -0.00000000 -0.67838988
v -1.50000000 0.00000000 -0.50000000
v -0.50000000 0.00000000 -0.23205081
v -0.46650635 0.50000000 -0.29006351
v 0.09099026 -0.00000000 -0.09099026
v 0.11467384 0.25000000 -0.11467384
v 0.23205081 0.00000000 0.50000000
v 0.29006351 0.50000000 0.46650635
v 0.67333311 -0.00000000 0.91765715
v 0.70568549 0.25000000 0.90898835
v 0.50000000 0.00000000 1.50000000
v 0.56698730 0.50000000 1.50000000
v -0.81172768 1.05000000 -1.16247652
v -1.50000000 1.05000000 -1.00000000
v -0.83675576 1.15000000 -1.06565919
v -1.50000000 1.15000000 -0.90000000
v -0.87429789 1.20000000 -0.92043320
v -1.50000000 1.20000000 -0.75000000
v -0.37500000 1.20000000 -0.44855716
v -0.30000000 1.15000000 -0.57846097
v 0.26776695 1.20000000 -0.26776695
v 0.37383297 1.15000000 -0.37383297
v 0.44855716 1.20000000 0.37500000
v 0.57846097 1.15000000 0.30000000
v 0.66506351 1.05000000 0.25000000
v 0.44454365 1.05000000 -0.44454365
v -0.25000000 1.05000000 -0.66506351
v -0.50000000 1.20000000 0.50000000
v 0.50000000 1.20000000 0.50000000
v 0.50000000 1.20000000 1.50000000
v -1.50000000 1.20000000 -0.50000000
v -0.50000000 1.20000000 -0.50000000
vt 1.00000000 0.00000000
vt 1.00000000 1.00000000
vt 0.00000000 1.00000000
vt 0.00000000 0.00000000
vt 1.00000000 0.00000000
vt 1.00000000 1.00000000
vt 0.00000000 1.00000000
vt 0.00000000 0.00000000
vt 1.00000000 0.00000000
vt 1.00000000 1.00000000
vt 0.00000000 1.00000000
vt 0.00000000 0.00000000
vt 0.00000000 1.00000000
vt 0.00000000 0.00000000
vt 1.00000000 0.00000000
vt 1.00000000 1.00000000
vt 0.00000000 1.00000000
vt 0.00000000 0.00000000
vt 1.00000000 0.00000000
vt 1.00000000 1.00000000
vt 0.00000000 1.00000000
vt 0.00000000 0.00000000
vt 1.00000000 0.00000000
vt 1.00000000 1.00000000
vt 0.00000000 1.00000000
vt 0.00000000 0.00000000
vt 1.00000000 0.00000000
vt 1.00000000 1.00000000
vt 0.00000000 1.00000000
vt 0.00000000 0.00000000
vt 1.00000000 0.00000000
vt 1.00000000 1.00000000
vt 1.00000000 0.00000000
vt 1.00000000 1.00000000
vt 0.00000000 1.00000000
vt 0.00000000 0.00000000
vt 1.00000000 0.00000000
vt 1.00000000 1.00000000
vt 0.00000000 1.00000000
vt 0.00000000 0.00000000
vt 1.00000000 0.00000000
vt 1.00000000 1.00000000
vt 0.00000000 1.00000000
vt 0.00000000 0.00000000
vt 0.00000000 1.00000000
vt 0.00000000 0.00000000
vt 1.00000000 0.00000000
vt 1.00000000 1.00000000
vt 0.00000000 1.00000000
vt 0.00000000 0.00000000
vt 1.00000000 0.00000000
vt 1.00000000 1.00000000
vt 0.00000000 1.00000000
vt 0.00000000 0.00000000
vt 1.00000000 0.00000000
vt 1.00000000 1.00000000
vt 0.00000000 1.00000000
vt 0.00000000 0.00000000
vt 1.00000000 0.00000000
vt 1.00000000 1.00000000
vt 0.00000000 1.00000000
vt 0.00000000 0.00000000
vt 1.00000000 0.00000000
vt 1.00000000 1.00000000
vt 0.00000000 1.00000000
vt 0.00000000 0.00000000
vt 1.00000000 0.00000000
vt 1.00000000 1.00000000
vt 0.00000000 1.00000000
vt 0.00000000 0.00000000
vt 1.00000000 0.00000000
vt 1.00000000 1.00000000
vt 0.00000000 1.00000000
vt 0.00000000 0.00000000
vt 1.00000000 0.00000000
vt 1.00000000 1.00000000
vt 0.00000000 1.00000000
vt 0.00000000 0.00000000
vt 1.00000000 0.00000000
vt 1.00000000 1.00000000
vt 0.00000000 1.00000000
vt 0.00000000 0.00000000
vt 1.00000000 0.00000000
vt 1.00000000 1.00000000
vt 0.00000000 1.00000000
vt 0.00000000 0.00000000
vt 1.00000000 0.00000000
vt 1.00000000 1.00000000
vt 0.00000000 1.00000000
vt 0.00000000 0.00000000
vt 1.00000000 0.00000000
vt 1.00000000 1.00000000
vt 0.00000000 1.00000000
vt 0.00000000 0.00000000
vt 1.00000000 0.00000000
vt 1.00000000 1.00000000
vt 0.00000000 1.00000000
vt 0.00000000 0.00000000
vt 1.00000000 0.00000000
vt 1.00000000 1.00000000
vt 0.00000000 1.00000000
vt 0.00000000 0.00000000
vt 1.00000000 0.00000000
vt 1.00000000 1.00000000
vt 0.00000000 1.00000000
vt 0.00000000 0.00000000
vt 1.00000000 0.00000000
vt 1.00000000 1.00000000
vt 0.00000000 1.00000000
vt 0.00000000 0.00000000
vt 1.00000000 0.00000000
vt 1.00000000 1.00000000
vt 0.00000000 1.00000000
vt 0.00000000 0.00000000
vt 1.00000000 0.00000000
vt 1.00000000 1.00000000
vt 0.00000000 1.00000000
vt 0.00000000 0.00000000
vt 1.00000000 0.00000000
vt 1.00000000 1.00000000
vt 0.00000000 1.00000000
vt 0.00000000 0.00000000
vt 1.00000000 0.00000000
vt 1.00000000 1.00000000
vt 0.00000000 1.00000000
vt 0.00000000 0.00000000
vt 1.00000000 0.00000000
vt 1.00000000 1.00000000
vt 0.00000000 1.00000000
vt 0.00000000 0.00000000
vt 1.00000000 0.00000000
vt 1.00000000 1.00000000
vt 0.00000000 1.00000000
vt 0.00000000 0.00000000
vt 1.00000000 0.00000000
vt 1.00000000 1.00000000
vt 0.00000000 1.00000000
vt 0.00000000 0.00000000
vt 1.00000000 0.00000000
vt 1.00000000 1.00000000
vt 0.00000000 1.00000000
vt 0.00000000 0.00000000
vt 1.00000000 0.00000000
vt 1.00000000 1.00000000
vt 0.41314918 0.58588953
vt 0.41314918 0.17177906
vt 0.00000000 0.17177906
vt 0.00000000 0.06825144
vt 0.26732719 0.00000000
vt 0.46479283 0.19308208
vt 0.73035147 0.26794919
vt 0.80504480 0.53412572
vt 1.00000000 0.74089020
vt 0.92958566 1.00000000
vt 0.82629837 1.00000000
vt 0.82629837 0.58588953
vn 0.34429162 0.93543383 0.08016755
vn 0.34596316 0.93410054 0.08812299
vn 0.31520687 0.94562061 0.08028881
vn 0.31537397 0.94612192 0.07343414
vn 0.73036151 0.66396501 0.16038246
vn 0.73040605 0.66149982 0.17007345
vn 0.69771285 0.69771285 0.16246091
vn 0.69873351 0.69873351 0.15343717
vn 0.97672776 -0.00000000 0.21448283
vn 0.97672776 -0.00000000 0.21448283
vn 0.97672776 -0.00000000 0.21448283
vn 0.97672776 -0.00000000 0.21448283
vn 0.50469345 -0.85615527 0.11082728
vn 0.50732394 -0.85201142 0.12922445
vn 0.46943196 -0.87597196 0.11093581
vn 0.46982688 -0.87670889 0.10317082
vn 0.35529661 -0.87670889 -0.32426199
vn 0.35107210 -0.87597196 -0.33078921
vn 0.37474319 -0.85201142 -0.36557363
vn 0.38166371 -0.85615527 -0.34832596
vn 0.49249098 -0.85615527 -0.15636749
vn 0.50396765 -0.85201142 -0.14175031
vn 0.46200791 -0.87597196 -0.13864275
vn 0.45846742 -0.87670889 -0.14556489
vn 0.14556489 -0.87670889 -0.45846742
vn 0.13864275 -0.87597196 -0.46200791
vn 0.14175031 -0.85201142 -0.50396765
vn 0.15636749 -0.85615527 -0.49249098
vn 0.34175954 -0.85688050 -0.38594848
vn 0.35857272 -0.85292055 -0.37941025
vn 0.32446061 -0.87668729 -0.35516856
vn 0.31811325 -0.87735236 -0.35924476
vn -0.13802318 -0.85099207 -0.50671698
vn -0.11902639 -0.85533809 -0.50421173
vn -0.11081759 -0.87598359 -0.46943819
vn -0.11882649 -0.87516764 -0.46900092
vn -0.37439954 -0.36565174 -0.85212898
vn -0.34397751 -0.37390804 -0.86132006
vn -0.33135071 -0.42194945 -0.84389891
vn -0.38779847 -0.41221653 -0.82443306
vn -0.30006384 -0.11280375 -0.94722595
vn -0.28892729 -0.11361296 -0.95058567
vn -0.29393750 -0.12692221 -0.94736028
vn -0.29955802 -0.12669029 -0.94562919
vn 0.70211901 -0.11469853 -0.70276109
vn 0.70999368 -0.11394656 -0.69492816
vn 0.70877252 -0.12796940 -0.69373291
vn 0.70481415 -0.12816660 -0.69771795
vn 0.23585242 -0.12757550 -0.96337850
vn 0.23027277 -0.12736152 -0.96475567
vn 0.23066575 -0.11340344 -0.96640208
vn 0.24168421 -0.11418309 -0.96361349
vn 0.96361349 -0.11418309 -0.24168421
vn 0.96640208 -0.11340344 -0.23066575
vn 0.96475567 -0.12736152 -0.23027277
vn 0.96337850 -0.12757550 -0.23585242
vn 0.68594344 -0.12757550 -0.71638404
vn 0.68179990 -0.12736152 -0.72036653
vn 0.68296343 -0.11340344 -0.72159588
vn 0.69111141 -0.11418309 -0.71367166
vn 0.95535587 -0.11418309 0.27250208
vn 0.95226162 -0.11340344 0.28343864
vn 0.95063930 -0.12736152 0.28295576
vn 0.95223646 -0.12757550 0.27743506
vn -0.22974952 -0.00000000 -0.97324979
vn -0.22974952 -0.00000000 -0.97324979
vn -0.22974952 -0.00000000 -0.97324979
vn -0.22974952 -0.00000000 -0.97324979
vn -0.18203810 0.66006335 -0.72881994
vn -0.17206818 0.66263991 -0.72890390
vn -0.16464466 0.69745686 -0.69745686
vn -0.17392304 0.69632994 -0.69632994
vn -0.09418343 0.93358034 -0.34577050
vn -0.08595247 0.93498134 -0.34412508
vn -0.07873930 0.94573787 -0.31524596
vn -0.08581860 0.94518340 -0.31506113
vn 0.22263994 0.94600974 -0.23557809
vn 0.21696164 0.94646284 -0.23903086
vn 0.23687191 0.93583558 -0.26096640
vn 0.24438461 0.93456366 -0.25858639
vn 0.09666484 0.93410054 -0.34367438
vn 0.10271867 0.93543383 -0.33824906
vn 0.09409116 0.94612192 -0.30983894
vn 0.08807129 0.94562061 -0.31312156
vn 0.31312156 0.94562061 -0.08807129
vn 0.30983894 0.94612192 -0.09409116
vn 0.33824906 0.93543383 -0.10271867
vn 0.34367438 0.93410054 -0.09666484
vn 0.68546751 0.69771285 -0.20816115
vn 0.68183955 0.69873351 -0.21648627
vn 0.71270285 0.66396501 -0.22628547
vn 0.71758693 0.66149982 -0.21791510
vn 0.21791510 0.66149982 -0.71758693
vn 0.22628547 0.66396501 -0.71270285
vn 0.21648627 0.69873351 -0.68183955
vn 0.20816115 0.69771285 -0.68546751
vn 0.48066691 0.69894594 -0.52956009
vn 0.47352425 0.69986933 -0.53475014
vn 0.49503277 0.66514450 -0.55903968
vn 0.50327523 0.66278137 -0.55446812
vn 0.66294769 -0.00000000 -0.74866572
vn 0.66294769 -0.00000000 -0.74866572
vn 0.66294769 -0.00000000 -0.74866572
vn 0.66294769 -0.00000000 -0.74866572
vn 0.70526859 -0.37845465 -0.59947335
vn 0.72699968 -0.37075046 -0.57794080
vn 0.72487272 -0.41824347 -0.54738646
vn 0.68579724 -0.42673552 -0.58955826
vn 0.30261630 -0.00000000 -0.95311247
vn 0.30261630 -0.00000000 -0.95311247
vn 0.30261630 -0.00000000 -0.95311247
vn 0.30261630 -0.00000000 -0.95311247
vn 0.15169918 -0.42445408 -0.89265116
vn 0.09436627 -0.41535954 -0.90474939
vn 0.11979505 -0.36831304 -0.92195154
vn 0.15001916 -0.37628569 -0.91427749
vn 0.95311247 -0.00000000 -0.30261630
vn 0.95311247 -0.00000000 -0.30261630
vn 0.95311247 -0.00000000 -0.30261630
vn 0.95311247 -0.00000000 -0.30261630
vn 0.91427749 -0.37628569 -0.15001916
vn 0.92195154 -0.36831304 -0.11979505
vn 0.90474939 -0.41535954 -0.09436627
vn 0.89265116 -0.42445408 -0.15169918
vn 0.57770092 -0.42445408 -0.69720899
vn 0.53409828 -0.41535954 -0.73635282
vn 0.56472133 -0.36831304 -0.73853593
vn 0.58705915 -0.37628569 -0.71677796
vn 0.86679711 -0.37628569 0.32721835
vn 0.85833098 -0.36831304 0.35723021
vn 0.83071909 -0.41535954 0.37065111
vn 0.84890817 -0.42445408 0.31495024
vn 0.73862964 -0.00000000 -0.67411146
vn 0.73862964 -0.00000000 -0.67411146
vn 0.73862964 -0.00000000 -0.67411146
vn 0.73862964 -0.00000000 -0.67411146
vn 0.54751347 0.66149982 -0.51249096
vn 0.55232039 0.66396501 -0.50407604
vn 0.52840239 0.69873351 -0.48224724
vn 0.52300660 0.69771285 -0.48955170
vn 0.25555140 0.93410054 -0.24929833
vn 0.25808151 0.93543383 -0.24157294
vn 0.23640480 0.94612192 -0.22128282
vn 0.23283275 0.94562061 -0.22713558
vn -0.00000000 1.00000000 0.00000000
vn -0.00000000 1.00000000 0.00000000
vn -0.00000000 1.00000000 0.00000000
vn -0.00000000 1.00000000 0.00000000
vn -0.00000000 1.00000000 0.00000000
vn -0.00000000 1.00000000 0.00000000
vn -0.00000000 1.00000000 0.00000000
vn -0.00000000 1.00000000 0.00000000
vn -0.00000000 1.00000000 0.00000000
vn -0.00000000 1.00000000 0.00000000
vn -0.00000000 1.00000000 0.00000000
vn -0.00000000 1.00000000 0.00000000
s 1
usemtl Grass
f 1/1/1 2/2/2 4/4/4
f 2/2/2 3/3/3 4/4/4
s 2
f 5/5/5 1/6/6 6/8/8
f 1/6/6 4/7/7 6/8/8
s 3
f 7/9/9 5/10/10 6/11/11
f 7/9/9 6/11/11 8/12/12
s 4
f 8/16/16 10/15/15 9/14/14
f 8/16/16 9/14/14 7/13/13
s 5
f 7/20/20 9/19/19 11/17/17
f 9/19/19 12/18/18 11/17/17
s 6
f 11/24/24 12/23/23 14/22/22
f 11/24/24 14/22/22 13/21/21
s 7
f 13/28/28 14/27/27 15/25/25
f 14/27/27 16/26/26 15/25/25
s 8
f 15/32/32 16/31/31 18/30/30
f 15/32/32 18/30/30 17/29/29
s 9
f 20/36/36 19/35/35 18/33/33
f 19/35/35 17/34/34 18/33/33
s 10
usemtl Rock
f 22/40/40 20/39/39 21/37/37
f 20/39/39 18/38/38 21/37/37
s 11
f 24/44/44 22/43/43 21/42/42
f 24/44/44 21/42/42 23/41/41
s 12
f 26/48/48 25/47/47 21/45/45
f 25/47/47 23/46/46 21/45/45
s 13
f 28/52/52 27/51/51 25/50/50
f 28/52/52 25/50/50 26/49/49
s 14
f 30/56/56 29/55/55 28/53/53
f 29/55/55 27/54/54 28/53/53
s 15
f 32/60/60 31/59/59 29/58/58
f 32/60/60 29/58/58 30/57/57
s 16
f 34/64/64 33/63/63 32/61/61
f 33/63/63 31/62/62 32/61/61
s 17
usemtl Grass
f 35/65/65 17/66/66 36/68/68
f 17/66/66 19/67/67 36/68/68
s 18
f 37/69/69 35/70/70 36/71/71
f 37/69/69 36/71/71 38/72/72
s 19
f 39/73/73 37/74/74 38/75/75
f 39/73/73 38/75/75 40/76/76
s 20
f 41/77/77 42/78/78 39/80/80
f 42/78/78 37/79/79 39/80/80
s 21
f 43/81/81 44/82/82 42/83/83
f 43/81/81 42/83/83 41/84/84
s 22
f 45/85/85 46/86/86 43/88/88
f 46/86/86 44/87/87 43/88/88
s 23
f 46/89/89 47/90/90 44/92/92
f 47/90/90 48/91/91 44/92/92
s 24
f 44/93/93 48/94/94 49/95/95
f 44/93/93 49/95/95 42/96/96
s 25
f 42/97/97 49/98/98 37/100/100
f 49/98/98 35/99/99 37/100/100
s 26
f 49/101/101 15/102/102 17/103/103
f 49/101/101 17/103/103 35/104/104
s 27
usemtl Rock
f 16/108/108 26/107/107 21/106/106
f 16/108/108 21/106/106 18/105/105
s 28
usemtl Grass
f 48/109/109 13/110/110 49/112/112
f 13/110/110 15/111/111 49/112/112
s 29
usemtl Rock
f 14/116/116 28/115/115 16/113/113
f 28/115/115 26/114/114 16/113/113
s 30
usemtl Grass
f 47/117/117 11/118/118 48/120/120
f 11/118/118 13/119/119 48/120/120
s 31
usemtl Rock
f 12/124/124 30/123/123 28/122/122
f 12/124/124 28/122/122 14/121/121
s 32
f 9/128/128 32/127/127 12/125/125
f 32/127/127 30/126/126 12/125/125
s 33
f 10/132/132 34/131/131 32/130/130
f 10/132/132 32/130/130 9/129/129
s 34
usemtl Grass
f 5/133/133 7/134/134 47/136/136
f 7/134/134 11/135/135 47/136/136
s 35
f 1/137/137 5/138/138 47/139/139
f 1/137/137 47/139/139 46/140/140
s 36
f 2/141/141 1/142/142 46/143/143
f 2/141/141 46/143/143 45/144/144
s 37
f 39/153/153 40/154/154 53/155/155
f 41/152/152 39/153/153 54/156/156
f 54/156/156 50/145/145 51/146/146
f 51/146/146 2/149/149 45/150/150
f 52/147/147 3/148/148 2/149/149
f 51/146/146 52/147/147 2/149/149
f 51/146/146 41/152/152 54/156/156
f 51/146/146 45/150/150 41/152/152
f 45/150/150 43/151/151 41/152/152
f 39/153/153 53/155/155 54/156/156
