mtllib Materials_Modular_Terrain.mtl
o object1
g object1
v -0.50000000 0.66212678 0.74053170
v 0.50000000 0.66212678 0.74053170
v 0.50000000 0.50000000 0.70000000
v -0.50000000 0.50000000 0.70000000
v -0.50000000 0.50000000 0.38903882
v 0.50000000 0.50000000 0.38903882
v 0.50000000 0.46212678 0.34053170
v -0.50000000 0.46212678 0.34053170
v 0.50000000 0.30000000 0.30000000
v -0.50000000 0.30000000 0.30000000
v -0.50000000 0.30000000 -0.01096118
v 0.50000000 0.30000000 -0.01096118
v 0.50000000 0.26212678 -0.05946830
v -0.50000000 0.26212678 -0.05946830
v 0.50000000 0.10000000 -0.10000000
v -0.50000000 0.10000000 -0.10000000
v -0.50000000 0.10000000 -0.41096118
v 0.50000000 0.10000000 -0.41096118
v 0.50000000 0.06212678 -0.45946830
v -0.50000000 0.06212678 -0.45946830
v 0.50000000 -0.10000000 -0.50000000
v -0.50000000 -0.10000000 -0.50000000
v -0.50000000 0.70000000 0.78903882
v 0.50000000 0.70000000 0.78903882
v 0.50000000 0.70000000 1.10000000
v -0.50000000 0.70000000 1.10000000
v -0.50000000 0.86212678 1.14053170
v 0.50000000 0.86212678 1.14053170
v -0.50000000 0.90000000 1.18903882
v 0.50000000 0.90000000 1.18903882
v 0.50000000 0.90000000 1.50000000
v -0.50000000 0.90000000 1.50000000
vt 1.00000000 1.00000000
vt 0.00000000 1.00000000
vt 0.00000000 0.00000000
vt 1.00000000 0.00000000
vt 1.00000000 1.00000000
vt 0.00000000 1.00000000
vt 0.00000000 0.00000000
vt 1.00000000 0.00000000
vt 0.00000000 0.00000000
vt 1.00000000 0.00000000
vt 1.00000000 1.00000000
vt 0.00000000 1.00000000
vt 1.00000000 1.00000000
vt 0.00000000 1.00000000
vt 0.00000000 0.00000000
vt 1.00000000 0.00000000
vt 1.00000000 1.00000000
vt 0.00000000 1.00000000
vt 0.00000000 0.00000000
vt 1.00000000 0.00000000
vt 0.00000000 0.00000000
vt 1.00000000 0.00000000
vt 1.00000000 1.00000000
vt 0.00000000 1.00000000
vt 1.00000000 1.00000000
vt 0.00000000 1.00000000
vt 0.00000000 0.00000000
vt 1.00000000 0.00000000
vt 1.00000000 1.00000000
vt 0.00000000 1.00000000
vt 0.00000000 0.00000000
vt 1.00000000 0.00000000
vt 0.00000000 0.00000000
vt 1.00000000 0.00000000
vt 1.00000000 1.00000000
vt 0.00000000 1.00000000
vt 1.00000000 1.00000000
vt 0.00000000 1.00000000
vt 0.00000000 0.00000000
vt 1.00000000 0.00000000
vt 0.00000000 0.00000000
vt 1.00000000 0.00000000
vt 1.00000000 1.00000000
vt 0.00000000 1.00000000
vt 1.00000000 1.00000000
vt 0.00000000 1.00000000
vt 0.00000000 0.00000000
vt 1.00000000 0.00000000
vt 1.00000000 1.00000000
vt 0.00000000 1.00000000
vt 0.00000000 0.00000000
vt 1.00000000 0.00000000
vt 0.00000000 0.00000000
vt 1.00000000 0.00000000
vt 1.00000000 1.00000000
vt 0.00000000 1.00000000
vt 1.00000000 1.00000000
vt 0.00000000 1.00000000
vt 0.00000000 0.00000000
vt 1.00000000 0.00000000
vn 0.00000000 0.24253563 -0.97014250
vn 0.00000000 0.24253563 -0.97014250
vn 0.00000000 0.24253563 -0.97014250
vn 0.00000000 0.24253563 -0.97014250
vn 0.00000000 1.00000000 0.00000000
vn 0.00000000 1.00000000 0.00000000
vn 0.00000000 1.00000000 0.00000000
vn 0.00000000 1.00000000 0.00000000
vn 0.00000000 0.78820544 -0.61541221
vn 0.00000000 0.78820544 -0.61541221
vn 0.00000000 0.78820544 -0.61541221
vn 0.00000000 0.78820544 -0.61541221
vn 0.00000000 0.24253563 -0.97014250
vn 0.00000000 0.24253563 -0.97014250
vn 0.00000000 0.24253563 -0.97014250
vn 0.00000000 0.24253563 -0.97014250
vn 0.00000000 1.00000000 0.00000000
vn 0.00000000 1.00000000 0.00000000
vn 0.00000000 1.00000000 0.00000000
vn 0.00000000 1.00000000 0.00000000
vn 0.00000000 0.78820544 -0.61541221
vn 0.00000000 0.78820544 -0.61541221
vn 0.00000000 0.78820544 -0.61541221
vn 0.00000000 0.78820544 -0.61541221
vn 0.00000000 0.24253563 -0.97014250
vn 0.00000000 0.24253563 -0.97014250
vn 0.00000000 0.24253563 -0.97014250
vn 0.00000000 0.24253563 -0.97014250
vn 0.00000000 1.00000000 0.00000000
vn 0.00000000 1.00000000 0.00000000
vn 0.00000000 1.00000000 0.00000000
vn 0.00000000 1.00000000 0.00000000
vn 0.00000000 0.78820544 -0.61541221
vn 0.00000000 0.78820544 -0.61541221
vn 0.00000000 0.78820544 -0.61541221
vn 0.00000000 0.78820544 -0.61541221
vn 0.00000000 0.24253563 -0.97014250
vn 0.00000000 0.24253563 -0.97014250
vn 0.00000000 0.24253563 -0.97014250
vn 0.00000000 0.24253563 -0.97014250
vn -0.00000000 0.78820544 -0.61541221
vn -0.00000000 0.78820544 -0.61541221
vn 0.00000000 0.78820544 -0.61541221
vn 0.00000000 0.78820544 -0.61541221
vn 0.00000000 1.00000000 0.00000000
vn 0.00000000 1.00000000 0.00000000
vn 0.00000000 1.00000000 0.00000000
vn 0.00000000 1.00000000 0.00000000
vn 0.00000000 0.24253563 -0.97014250
vn 0.00000000 0.24253563 -0.97014250
vn 0.00000000 0.24253563 -0.97014250
vn 0.00000000 0.24253563 -0.97014250
vn 0.00000000 0.78820544 -0.61541221
vn 0.00000000 0.78820544 -0.61541221
vn 0.00000000 0.78820544 -0.61541221
vn 0.00000000 0.78820544 -0.61541221
vn 0.00000000 1.00000000 0.00000000
vn 0.00000000 1.00000000 0.00000000
vn 0.00000000 1.00000000 0.00000000
vn 0.00000000 1.00000000 0.00000000
s 1
usemtl Rock
f 1/1/1 2/2/2 3/3/3
f 1/1/1 3/3/3 4/4/4
s 2
f 4/8/8 3/7/7 6/6/6
f 4/8/8 6/6/6 5/5/5
s 3
f 7/9/9 8/10/10 6/12/12
f 8/10/10 5/11/11 6/12/12
s 4
f 8/13/13 7/14/14 9/15/15
f 8/13/13 9/15/15 10/16/16
s 5
f 10/20/20 9/19/19 12/18/18
f 10/20/20 12/18/18 11/17/17
s 6
f 13/21/21 14/22/22 12/24/24
f 14/22/22 11/23/23 12/24/24
s 7
f 14/25/25 13/26/26 15/27/27
f 14/25/25 15/27/27 16/28/28
s 8
f 16/32/32 15/31/31 18/30/30
f 16/32/32 18/30/30 17/29/29
s 9
f 19/33/33 20/34/34 18/36/36
f 20/34/34 17/35/35 18/36/36
s 10
f 20/37/37 19/38/38 21/39/39
f 20/37/37 21/39/39 22/40/40
s 11
f 2/41/41 1/42/42 24/44/44
f 1/42/42 23/43/43 24/44/44
s 12
f 26/48/48 25/47/47 24/46/46
f 26/48/48 24/46/46 23/45/45
s 13
f 27/49/49 28/50/50 25/51/51
f 27/49/49 25/51/51 26/52/52
s 14
f 28/53/53 27/54/54 30/56/56
f 27/54/54 29/55/55 30/56/56
s 15
f 32/60/60 31/59/59 30/58/58
f 32/60/60 30/58/58 29/57/57
