mtllib Materials_Modular_Terrain.mtl
o object1
g object1
v -0.21650635 1.60000000 1.00000000
v -0.25000000 1.85000000 1.00000000
v -0.50000000 1.50000000 0.50000000
v -0.43301270 1.00000000 0.50000000
v -0.25000000 1.15000000 0.00000000
v -0.21650635 0.90000000 0.00000000
v -0.50000000 1.00000000 -0.50000000
v -0.43301270 0.50000000 -0.50000000
v 0.12500000 0.21698730 0.00000000
v -0.25000000 0.13397460 -0.50000000
v 0.25000000 0.15000000 0.00000000
v -0.00000000 0.00000000 -0.50000000
v -0.00000000 0.50000000 0.50000000
v -0.25000000 0.63397460 0.50000000
v 0.25000000 0.85000000 1.00000000
v 0.12500000 0.91698730 1.00000000
v -0.00000000 1.00000000 1.50000000
v -0.25000000 1.13397460 1.50000000
v -0.43301270 1.50000000 1.50000000
v -0.50000000 2.00000000 1.50000000
vt 0.00000000 1.00000000
vt 0.00000000 0.00000000
vt 1.00000000 0.00000000
vt 1.00000000 1.00000000
vt 0.00000000 1.00000000
vt 0.00000000 0.00000000
vt 1.00000000 0.00000000
vt 1.00000000 1.00000000
vt 0.00000000 1.00000000
vt 0.00000000 0.00000000
vt 1.00000000 0.00000000
vt 1.00000000 1.00000000
vt 0.00000000 1.00000000
vt 0.00000000 0.00000000
vt 1.00000000 0.00000000
vt 1.00000000 1.00000000
vt 0.00000000 1.00000000
vt 0.00000000 0.00000000
vt 1.00000000 0.00000000
vt 1.00000000 1.00000000
vt 0.00000000 1.00000000
vt 0.00000000 0.00000000
vt 1.00000000 0.00000000
vt 1.00000000 1.00000000
vt 0.00000000 1.00000000
vt 0.00000000 0.00000000
vt 1.00000000 0.00000000
vt 1.00000000 1.00000000
vt 1.00000000 0.00000000
vt 1.00000000 1.00000000
vt 0.00000000 1.00000000
vt 0.00000000 0.00000000
vt 1.00000000 0.00000000
vt 1.00000000 1.00000000
vt 0.00000000 1.00000000
vt 0.00000000 0.00000000
vt 0.00000000 1.00000000
vt 0.00000000 0.00000000
vt 1.00000000 0.00000000
vt 1.00000000 1.00000000
vt 0.00000000 1.00000000
vt 0.00000000 0.00000000
vt 1.00000000 0.00000000
vt 1.00000000 1.00000000
vt 1.00000000 0.00000000
vt 1.00000000 1.00000000
vt 0.00000000 1.00000000
vt 0.00000000 0.00000000
vn 0.85419353 0.11444023 -0.50720493
vn 0.85419353 0.11444023 -0.50720493
vn 0.85419353 0.11444023 -0.50720493
vn 0.85419353 0.11444023 -0.50720493
vn 0.91942136 0.12317911 0.37348531
vn 0.91942136 0.12317911 0.37348531
vn 0.91942136 0.12317911 0.37348531
vn 0.91942136 0.12317911 0.37348531
vn 0.87378510 0.11706501 -0.47201205
vn 0.87378510 0.11706501 -0.47201205
vn 0.87378510 0.11706501 -0.47201205
vn 0.87378510 0.11706501 -0.47201205
vn 0.71723571 0.35861786 -0.59746646
vn 0.71723571 0.35861786 -0.59746646
vn 0.71723571 0.35861786 -0.59746646
vn 0.71723571 0.35861786 -0.59746646
vn 0.42237945 0.78817078 -0.44764096
vn 0.42237945 0.78817078 -0.44764096
vn 0.42237945 0.78817078 -0.44764096
vn 0.42237945 0.78817078 -0.44764096
vn 0.44142312 0.82370675 -0.35588317
vn 0.44142312 0.82370675 -0.35588317
vn 0.44142312 0.82370675 -0.35588317
vn 0.44142312 0.82370675 -0.35588317
vn 0.35933875 0.67053523 -0.64904404
vn 0.35933875 0.67053523 -0.64904404
vn 0.35933875 0.67053523 -0.64904404
vn 0.35933875 0.67053523 -0.64904404
vn 0.47215912 0.88106092 -0.02823871
vn 0.47215912 0.88106092 -0.02823871
vn 0.47215912 0.88106092 -0.02823871
vn 0.47215912 0.88106092 -0.02823871
vn 0.80737037 0.40368518 0.43033866
vn 0.80737037 0.40368518 0.43033866
vn 0.80737037 0.40368518 0.43033866
vn 0.80737037 0.40368518 0.43033866
vn 0.85721014 0.42860507 0.28546186
vn 0.85721014 0.42860507 0.28546186
vn 0.85721014 0.42860507 0.28546186
vn 0.85721014 0.42860507 0.28546186
vn 0.65694072 0.32847036 -0.67862811
vn 0.65694072 0.32847036 -0.67862811
vn 0.65694072 0.32847036 -0.67862811
vn 0.65694072 0.32847036 -0.67862811
vn 0.90189982 0.12083166 0.41470041
vn 0.90189982 0.12083166 0.41470041
vn 0.90189982 0.12083166 0.41470041
vn 0.90189982 0.12083166 0.41470041
s 1
usemtl Rock
f 4/4/4 3/3/3 1/1/1
f 3/3/3 2/2/2 1/1/1
s 2
f 6/8/8 5/7/7 4/5/5
f 5/7/7 3/6/6 4/5/5
s 3
f 8/12/12 7/11/11 6/9/9
f 7/11/11 5/10/10 6/9/9
s 4
f 10/16/16 8/15/15 9/13/13
f 8/15/15 6/14/14 9/13/13
s 5
f 12/20/20 10/19/19 9/18/18
f 12/20/20 9/18/18 11/17/17
s 6
f 11/24/24 9/23/23 13/21/21
f 9/23/23 14/22/22 13/21/21
s 7
f 13/28/28 14/27/27 16/26/26
f 13/28/28 16/26/26 15/25/25
s 8
f 18/32/32 17/31/31 16/29/29
f 17/31/31 15/30/30 16/29/29
s 9
f 19/36/36 18/35/35 1/33/33
f 18/35/35 16/34/34 1/33/33
s 10
f 9/40/40 6/39/39 14/37/37
f 6/39/39 4/38/38 14/37/37
s 11
f 14/44/44 4/43/43 16/41/41
f 4/43/43 1/42/42 16/41/41
s 12
f 20/48/48 19/47/47 2/45/45
f 19/47/47 1/46/46 2/45/45
