mtllib Materials_Modular_Terrain.mtl
o object1
g object1
v -0.36602540 1.00000000 -0.00000000
v -0.36602540 0.00000000 -0.00000000
v -0.50000000 0.00000000 -0.50000000
v -0.50000000 1.00000000 -0.50000000
v -0.00000000 1.00000000 0.36602540
v -0.00000000 0.00000000 0.36602540
v 0.50000000 1.00000000 0.50000000
v 0.50000000 0.00000000 0.50000000
vt 1.00000000 0.00000000
vt 1.00000000 1.00000000
vt 0.00000000 1.00000000
vt 0.00000000 0.00000000
vt 0.00000000 1.00000000
vt 0.00000000 0.00000000
vt 1.00000000 0.00000000
vt 1.00000000 1.00000000
vt 0.00000000 1.00000000
vt 0.00000000 0.00000000
vt 1.00000000 0.00000000
vt 1.00000000 1.00000000
vn 0.96592583 -0.00000000 -0.25881905
vn 0.96592583 -0.00000000 -0.25881905
vn 0.96592583 -0.00000000 -0.25881905
vn 0.96592583 -0.00000000 -0.25881905
vn 0.70710678 -0.00000000 -0.70710678
vn 0.70710678 -0.00000000 -0.70710678
vn 0.70710678 -0.00000000 -0.70710678
vn 0.70710678 -0.00000000 -0.70710678
vn 0.25881905 -0.00000000 -0.96592583
vn 0.25881905 -0.00000000 -0.96592583
vn 0.25881905 -0.00000000 -0.96592583
vn 0.25881905 -0.00000000 -0.96592583
s 1
usemtl Rock
f 1/1/1 2/2/2 4/4/4
f 2/2/2 3/3/3 4/4/4
s 2
f 2/5/5 1/6/6 5/7/7
f 2/5/5 5/7/7 6/8/8
s 3
f 6/9/9 5/10/10 7/11/11
f 6/9/9 7/11/11 8/12/12
