mtllib Materials_Modular_Terrain.mtl
o object1
g object1
v 0.13142766 1.15000000 -1.02440123
v 0.16969601 1.05000000 -1.11678918
v -0.50000000 1.05000000 -1.00000000
v -0.50000000 1.15000000 -0.90000000
v 0.48994949 1.15000000 -0.48994949
v 0.56066017 1.05000000 -0.56066017
v 1.02440123 1.15000000 -0.13142766
v 1.11678918 1.05000000 -0.16969601
v 0.90000000 1.15000000 0.50000000
v 1.00000000 1.05000000 0.50000000
v 1.11678918 1.00000000 -0.16969601
v 1.00000000 1.00000000 0.50000000
v 1.00130424 0.93301270 -0.12186058
v 0.75000000 0.86602540 0.50000000
v 0.38388348 0.86602540 -0.38388348
v 0.56066017 1.00000000 -0.56066017
v 0.12186058 0.93301270 -1.00130424
v 0.16969601 1.00000000 -1.11678918
v -0.50000000 0.86602540 -0.75000000
v -0.50000000 1.00000000 -1.00000000
v -0.00882824 0.25000000 -0.68579351
v -0.50000000 0.50000000 -0.56698730
v -0.02164571 -0.00000000 -0.65484942
v -0.50000000 0.00000000 -0.50000000
v 0.25447395 0.50000000 -0.25447395
v 0.20710678 0.00000000 -0.20710678
v 0.68579351 0.25000000 0.00882824
v 0.65484942 -0.00000000 0.02164571
v 0.56698730 0.50000000 0.50000000
v 0.50000000 0.00000000 0.50000000
v 0.88581930 1.20000000 -0.07402515
v 0.75000000 1.20000000 0.50000000
v 0.38388348 1.20000000 -0.38388348
v 0.07402515 1.20000000 -0.88581930
v -0.50000000 1.20000000 -0.75000000
v -0.50000000 1.20000000 0.50000000
vt 0.00000000 1.00000000
vt 0.00000000 0.00000000
vt 1.00000000 0.00000000
vt 1.00000000 1.00000000
vt 0.00000000 1.00000000
vt 0.00000000 0.00000000
vt 1.00000000 0.00000000
vt 1.00000000 1.00000000
vt 0.00000000 1.00000000
vt 0.00000000 0.00000000
vt 1.00000000 0.00000000
vt 1.00000000 1.00000000
vt 1.00000000 0.00000000
vt 1.00000000 1.00000000
vt 0.00000000 1.00000000
vt 0.00000000 0.00000000
vt 1.00000000 0.00000000
vt 1.00000000 1.00000000
vt 0.00000000 1.00000000
vt 0.00000000 0.00000000
vt 0.00000000 1.00000000
vt 0.00000000 0.00000000
vt 1.00000000 0.00000000
vt 1.00000000 1.00000000
vt 0.00000000 1.00000000
vt 0.00000000 0.00000000
vt 1.00000000 0.00000000
vt 1.00000000 1.00000000
vt 0.00000000 1.00000000
vt 0.00000000 0.00000000
vt 1.00000000 0.00000000
vt 1.00000000 1.00000000
vt 1.00000000 0.00000000
vt 1.00000000 1.00000000
vt 0.00000000 1.00000000
vt 0.00000000 0.00000000
vt 1.00000000 0.00000000
vt 1.00000000 1.00000000
vt 0.00000000 1.00000000
vt 0.00000000 0.00000000
vt 1.00000000 0.00000000
vt 1.00000000 1.00000000
vt 0.00000000 1.00000000
vt 0.00000000 0.00000000
vt 0.00000000 1.00000000
vt 0.00000000 0.00000000
vt 1.00000000 0.00000000
vt 1.00000000 1.00000000
vt 0.00000000 1.00000000
vt 0.00000000 0.00000000
vt 1.00000000 0.00000000
vt 1.00000000 1.00000000
vt 0.00000000 1.00000000
vt 0.00000000 0.00000000
vt 1.00000000 0.00000000
vt 1.00000000 1.00000000
vt 0.00000000 1.00000000
vt 0.00000000 0.00000000
vt 1.00000000 0.00000000
vt 1.00000000 1.00000000
vt 0.00000000 1.00000000
vt 0.00000000 0.00000000
vt 1.00000000 0.00000000
vt 1.00000000 1.00000000
vt 0.00000000 1.00000000
vt 0.00000000 0.00000000
vt 1.00000000 0.00000000
vt 1.00000000 1.00000000
vt 1.00000000 0.00000000
vt 1.00000000 1.00000000
vt 0.00000000 1.00000000
vt 0.00000000 0.00000000
vt 0.63780572 0.36219428
vt 1.00000000 0.58578644
vt 0.90199350 1.00000000
vt 0.00000000 1.00000000
vt 0.00000000 0.09800650
vt 0.41421356 0.00000000
vt 0.00000000 1.00000000
vt 0.00000000 0.00000000
vt 1.00000000 0.00000000
vt 1.00000000 1.00000000
vt 0.00000000 1.00000000
vt 0.00000000 0.00000000
vt 1.00000000 0.00000000
vt 1.00000000 1.00000000
vt 0.00000000 1.00000000
vt 0.00000000 0.00000000
vt 1.00000000 0.00000000
vt 1.00000000 1.00000000
vt 0.00000000 1.00000000
vt 0.00000000 0.00000000
vt 1.00000000 0.00000000
vt 1.00000000 1.00000000
vt 0.00000000 1.00000000
vt 0.00000000 0.00000000
vt 1.00000000 0.00000000
vt 1.00000000 1.00000000
vt 0.00000000 1.00000000
vt 0.00000000 0.00000000
vt 1.00000000 0.00000000
vt 1.00000000 1.00000000
vn -0.14855936 0.63979826 -0.75404795
vn -0.13126214 0.64516053 -0.75268728
vn -0.12238629 0.70179114 -0.70179114
vn -0.13797873 0.70034344 -0.70034344
vn 0.59278329 0.70034344 -0.39765190
vn 0.58278145 0.70179114 -0.40970109
vn 0.62504663 0.64516053 -0.43941393
vn 0.63823975 0.63979826 -0.42814508
vn 0.42814508 0.63979826 -0.63823975
vn 0.43941393 0.64516053 -0.62504663
vn 0.40970109 0.70179114 -0.58278145
vn 0.39765190 0.70034344 -0.59278329
vn 0.75268728 0.64516053 0.13126214
vn 0.75404795 0.63979826 0.14855936
vn 0.70034344 0.70034344 0.13797873
vn 0.70179114 0.70179114 0.12238629
vn 0.98513211 -0.00000000 0.17179851
vn 0.98513211 -0.00000000 0.17179851
vn 0.98513211 -0.00000000 0.17179851
vn 0.98513211 -0.00000000 0.17179851
vn 0.53651323 -0.83428943 0.12694366
vn 0.52787880 -0.84431593 0.09205749
vn 0.47075308 -0.87843720 0.08209526
vn 0.47018866 -0.87738398 0.09549861
vn 0.26494587 -0.87738398 -0.40000130
vn 0.27482258 -0.87843720 -0.39092281
vn 0.30817220 -0.84431593 -0.43836115
vn 0.28960942 -0.83428943 -0.46913486
vn 0.46913486 -0.83428943 -0.28960942
vn 0.43836115 -0.84431593 -0.30817220
vn 0.39092281 -0.87843720 -0.27482258
vn 0.40000130 -0.87738398 -0.26494587
vn -0.09205749 -0.84431593 -0.52787880
vn -0.12694366 -0.83428943 -0.53651323
vn -0.09549861 -0.87738398 -0.47018866
vn -0.08209526 -0.87843720 -0.47075308
vn -0.31916221 -0.34641612 -0.88211754
vn -0.37656778 -0.32813773 -0.86632692
vn -0.40577848 -0.40874046 -0.81748092
vn -0.29895195 -0.42676170 -0.85352339
vn -0.28329361 -0.10348810 -0.95343324
vn -0.30638946 -0.10144400 -0.94648540
vn -0.30550650 -0.12643957 -0.94375781
vn -0.29376830 -0.12692912 -0.94741183
vn 0.88591631 -0.10144400 -0.45261618
vn 0.87449794 -0.10348810 -0.47386028
vn 0.87764689 -0.12692912 -0.46219577
vn 0.88336327 -0.12643957 -0.45131183
vn 0.45131183 -0.12643957 -0.88336327
vn 0.46219577 -0.12692912 -0.87764689
vn 0.47386028 -0.10348810 -0.87449794
vn 0.45261618 -0.10144400 -0.88591631
vn 0.94648540 -0.10144400 0.30638946
vn 0.95343324 -0.10348810 0.28329361
vn 0.94741183 -0.12692912 0.29376830
vn 0.94375781 -0.12643957 0.30550650
vn 0.87885927 -0.32813773 -0.34631201
vn 0.84943306 -0.34641612 -0.39806953
vn 0.81492313 -0.42676170 -0.39214123
vn 0.86497502 -0.40874046 -0.29111759
vn 0.29111759 -0.40874046 -0.86497502
vn 0.39214123 -0.42676170 -0.81492313
vn 0.39806953 -0.34641612 -0.84943306
vn 0.34631201 -0.32813773 -0.87885927
vn 0.86632692 -0.32813773 0.37656778
vn 0.88211754 -0.34641612 0.31916221
vn 0.85352339 -0.42676170 0.29895195
vn 0.81748092 -0.40874046 0.40577848
vn 0.36470724 0.92834571 0.07185309
vn 0.36996501 0.92491253 0.08753691
vn 0.31534629 0.94603886 0.07461365
vn 0.31561582 0.94684747 0.06218131
vn 0.00000000 1.00000000 -0.00000000
vn 0.00000000 1.00000000 -0.00000000
vn 0.00000000 1.00000000 -0.00000000
vn 0.00000000 1.00000000 -0.00000000
vn 0.00000000 1.00000000 -0.00000000
vn 0.00000000 1.00000000 -0.00000000
vn 0.19970682 0.92491253 -0.32350271
vn 0.20707916 0.92834571 -0.30869477
vn 0.17920527 0.94684747 -0.26714291
vn 0.17022368 0.94603886 -0.27574332
vn 0.57511371 -0.00000000 -0.81807348
vn 0.57511371 -0.00000000 -0.81807348
vn 0.57511371 -0.00000000 -0.81807348
vn 0.57511371 -0.00000000 -0.81807348
vn 0.27574332 0.94603886 -0.17022368
vn 0.26714291 0.94684747 -0.17920527
vn 0.30869477 0.92834571 -0.20707916
vn 0.32350271 0.92491253 -0.19970682
vn 0.81807348 -0.00000000 -0.57511371
vn 0.81807348 -0.00000000 -0.57511371
vn 0.81807348 -0.00000000 -0.57511371
vn 0.81807348 -0.00000000 -0.57511371
vn -0.08753691 0.92491253 -0.36996501
vn -0.07185309 0.92834571 -0.36470724
vn -0.06218131 0.94684747 -0.31561582
vn -0.07461365 0.94603886 -0.31534629
vn -0.17179851 -0.00000000 -0.98513211
vn -0.17179851 -0.00000000 -0.98513211
vn -0.17179851 -0.00000000 -0.98513211
vn -0.17179851 -0.00000000 -0.98513211
s 1
usemtl Grass
f 1/1/1 2/2/2 3/3/3
f 1/1/1 3/3/3 4/4/4
s 2
f 5/5/5 6/6/6 1/8/8
f 6/6/6 2/7/7 1/8/8
s 3
f 7/9/9 8/10/10 6/11/11
f 7/9/9 6/11/11 5/12/12
s 4
f 8/13/13 7/14/14 10/16/16
f 7/14/14 9/15/15 10/16/16
s 5
f 11/17/17 8/18/18 10/19/19
f 11/17/17 10/19/19 12/20/20
s 6
f 13/21/21 11/22/22 12/23/23
f 13/21/21 12/23/23 14/24/24
s 7
f 15/25/25 16/26/26 13/28/28
f 16/26/26 11/27/27 13/28/28
s 8
f 17/29/29 18/30/30 16/31/31
f 17/29/29 16/31/31 15/32/32
s 9
f 18/33/33 17/34/34 20/36/36
f 17/34/34 19/35/35 20/36/36
s 10
usemtl Rock
f 17/37/37 21/38/38 19/40/40
f 21/38/38 22/39/39 19/40/40
s 11
f 21/41/41 23/42/42 24/43/43
f 21/41/41 24/43/43 22/44/44
s 12
f 23/45/45 21/46/46 26/48/48
f 21/46/46 25/47/47 26/48/48
s 13
f 26/49/49 25/50/50 27/51/51
f 26/49/49 27/51/51 28/52/52
s 14
f 28/53/53 27/54/54 30/56/56
f 27/54/54 29/55/55 30/56/56
s 15
f 21/57/57 17/58/58 15/59/59
f 21/57/57 15/59/59 25/60/60
s 16
f 25/61/61 15/62/62 27/64/64
f 15/62/62 13/63/63 27/64/64
s 17
f 27/65/65 13/66/66 14/67/67
f 27/65/65 14/67/67 29/68/68
s 18
usemtl Grass
f 7/69/69 31/70/70 9/72/72
f 31/70/70 32/71/71 9/72/72
s 19
f 32/77/77 31/78/78 33/73/73
f 33/73/73 35/75/75 36/76/76
f 33/73/73 34/74/74 35/75/75
f 33/73/73 36/76/76 32/77/77
s 20
f 31/79/79 7/80/80 5/81/81
f 31/79/79 5/81/81 33/82/82
s 21
f 8/83/83 11/84/84 6/86/86
f 11/84/84 16/85/85 6/86/86
s 22
f 33/87/87 5/88/88 34/90/90
f 5/88/88 1/89/89 34/90/90
s 23
f 6/91/91 16/92/92 2/94/94
f 16/92/92 18/93/93 2/94/94
s 24
f 34/95/95 1/96/96 4/97/97
f 34/95/95 4/97/97 35/98/98
s 25
f 2/99/99 18/100/100 20/101/101
f 2/99/99 20/101/101 3/102/102
