mtllib Materials_Modular_Terrain.mtl
o object1
g object1
v -0.50000000 0.13397460 0.25000000
v -0.50000000 0.00000000 -0.00000000
v -0.00000000 0.00000000 0.50000000
v -0.25000000 0.13397460 0.50000000
v -0.50000000 0.50000000 0.43301270
v -0.43301270 0.50000000 0.50000000
v -0.50000000 1.00000000 0.50000000
vt 0.00000000 1.00000000
vt 0.00000000 0.00000000
vt 1.00000000 0.00000000
vt 1.00000000 1.00000000
vt 0.00000000 1.00000000
vt 0.00000000 0.00000000
vt 1.00000000 0.00000000
vt 1.00000000 1.00000000
vt 0.00000000 0.00000000
vt 1.00000000 0.00000000
vt 1.00000000 1.00000000
vn 0.42709892 0.79697743 -0.42709892
vn 0.42709892 0.79697743 -0.42709892
vn 0.42709892 0.79697743 -0.42709892
vn 0.42709892 0.79697743 -0.42709892
vn 0.66666667 0.33333333 -0.66666667
vn 0.66666667 0.33333333 -0.66666667
vn 0.66666667 0.33333333 -0.66666667
vn 0.66666667 0.33333333 -0.66666667
vn 0.70395498 0.09431208 -0.70395498
vn 0.70395498 0.09431208 -0.70395498
vn 0.70395498 0.09431208 -0.70395498
s 1
usemtl Rock
f 4/4/4 3/3/3 2/2/2
f 4/4/4 2/2/2 1/1/1
s 2
f 6/8/8 4/7/7 1/6/6
f 6/8/8 1/6/6 5/5/5
s 3
f 7/11/11 6/10/10 5/9/9
