mtllib Materials_Modular_Terrain.mtl
o object1
g object1
v -0.00882824 0.75000000 -0.68579351
v 0.12186058 0.06698730 -1.00130424
v -0.50000000 0.13397460 -0.75000000
v -0.50000000 0.50000000 -0.56698730
v -0.02164571 1.00000000 -0.65484942
v -0.50000000 1.00000000 -0.50000000
v 0.20710678 1.00000000 -0.20710678
v 0.25447395 0.50000000 -0.25447395
v 0.65484942 1.00000000 0.02164571
v 0.68579351 0.75000000 0.00882824
v 0.50000000 1.00000000 0.50000000
v 0.56698730 0.50000000 0.50000000
v 1.00130424 0.06698730 -0.12186058
v 0.75000000 0.13397460 0.50000000
v 1.11678918 0.00000000 -0.16969601
v 1.00000000 0.00000000 0.50000000
v 0.56066017 0.00000000 -0.56066017
v 0.38388348 0.13397460 -0.38388348
v 0.16969601 0.00000000 -1.11678918
v -0.50000000 0.00000000 -1.00000000
vt 1.00000000 0.00000000
vt 1.00000000 1.00000000
vt 0.00000000 1.00000000
vt 0.00000000 0.00000000
vt 1.00000000 0.00000000
vt 1.00000000 1.00000000
vt 0.00000000 1.00000000
vt 0.00000000 0.00000000
vt 0.00000000 1.00000000
vt 0.00000000 0.00000000
vt 1.00000000 0.00000000
vt 1.00000000 1.00000000
vt 0.00000000 1.00000000
vt 0.00000000 0.00000000
vt 1.00000000 0.00000000
vt 1.00000000 1.00000000
vt 0.00000000 1.00000000
vt 0.00000000 0.00000000
vt 1.00000000 0.00000000
vt 1.00000000 1.00000000
vt 0.00000000 1.00000000
vt 0.00000000 0.00000000
vt 1.00000000 0.00000000
vt 1.00000000 1.00000000
vt 0.00000000 1.00000000
vt 0.00000000 0.00000000
vt 1.00000000 0.00000000
vt 1.00000000 1.00000000
vt 0.00000000 1.00000000
vt 0.00000000 0.00000000
vt 1.00000000 0.00000000
vt 1.00000000 1.00000000
vt 0.00000000 1.00000000
vt 0.00000000 0.00000000
vt 1.00000000 0.00000000
vt 1.00000000 1.00000000
vt 0.00000000 1.00000000
vt 0.00000000 0.00000000
vt 1.00000000 0.00000000
vt 1.00000000 1.00000000
vt 0.00000000 1.00000000
vt 0.00000000 0.00000000
vt 1.00000000 0.00000000
vt 1.00000000 1.00000000
vt 1.00000000 0.00000000
vt 1.00000000 1.00000000
vt 0.00000000 1.00000000
vt 0.00000000 0.00000000
vn -0.37656778 0.32813773 -0.86632692
vn -0.31916221 0.34641612 -0.88211754
vn -0.29895195 0.42676170 -0.85352339
vn -0.40577848 0.40874046 -0.81748092
vn -0.30638946 0.10144400 -0.94648540
vn -0.28329361 0.10348810 -0.95343324
vn -0.29376830 0.12692912 -0.94741183
vn -0.30550650 0.12643957 -0.94375781
vn 0.87449794 0.10348810 -0.47386028
vn 0.88591631 0.10144400 -0.45261618
vn 0.88336327 0.12643957 -0.45131183
vn 0.87764689 0.12692912 -0.46219577
vn 0.46219577 0.12692912 -0.87764689
vn 0.45131183 0.12643957 -0.88336327
vn 0.45261618 0.10144400 -0.88591631
vn 0.47386028 0.10348810 -0.87449794
vn 0.95343324 0.10348810 0.28329361
vn 0.94648540 0.10144400 0.30638946
vn 0.94375781 0.12643957 0.30550650
vn 0.94741183 0.12692912 0.29376830
vn 0.88211754 0.34641612 0.31916221
vn 0.86632692 0.32813773 0.37656778
vn 0.81748092 0.40874046 0.40577848
vn 0.85352339 0.42676170 0.29895195
vn 0.52787880 0.84431593 0.09205749
vn 0.53651323 0.83428943 0.12694366
vn 0.47018866 0.87738398 0.09549861
vn 0.47075308 0.87843720 0.08209526
vn 0.27482258 0.87843720 -0.39092281
vn 0.26494587 0.87738398 -0.40000130
vn 0.28960942 0.83428943 -0.46913486
vn 0.30817220 0.84431593 -0.43836115
vn 0.43836115 0.84431593 -0.30817220
vn 0.46913486 0.83428943 -0.28960942
vn 0.40000130 0.87738398 -0.26494587
vn 0.39092281 0.87843720 -0.27482258
vn 0.39214123 0.42676170 -0.81492313
vn 0.29111759 0.40874046 -0.86497502
vn 0.34631201 0.32813773 -0.87885927
vn 0.39806953 0.34641612 -0.84943306
vn 0.84943306 0.34641612 -0.39806953
vn 0.87885927 0.32813773 -0.34631201
vn 0.86497502 0.40874046 -0.29111759
vn 0.81492313 0.42676170 -0.39214123
vn -0.12694366 0.83428943 -0.53651323
vn -0.09205749 0.84431593 -0.52787880
vn -0.08209526 0.87843720 -0.47075308
vn -0.09549861 0.87738398 -0.47018866
s 1
usemtl Rock
f 1/1/1 2/2/2 3/3/3
f 1/1/1 3/3/3 4/4/4
s 2
f 5/5/5 1/6/6 6/8/8
f 1/6/6 4/7/7 6/8/8
s 3
f 1/9/9 5/10/10 7/11/11
f 1/9/9 7/11/11 8/12/12
s 4
f 8/13/13 7/14/14 10/16/16
f 7/14/14 9/15/15 10/16/16
s 5
f 10/17/17 9/18/18 11/19/19
f 10/17/17 11/19/19 12/20/20
s 6
f 13/21/21 10/22/22 14/24/24
f 10/22/22 12/23/23 14/24/24
s 7
f 15/25/25 13/26/26 16/28/28
f 13/26/26 14/27/27 16/28/28
s 8
f 17/29/29 18/30/30 13/31/31
f 17/29/29 13/31/31 15/32/32
s 9
f 19/33/33 2/34/34 17/36/36
f 2/34/34 18/35/35 17/36/36
s 10
f 18/37/37 8/38/38 10/39/39
f 18/37/37 10/39/39 13/40/40
s 11
f 2/41/41 1/42/42 18/44/44
f 1/42/42 8/43/43 18/44/44
s 12
f 2/45/45 19/46/46 20/47/47
f 2/45/45 20/47/47 3/48/48
