mtllib Materials_Modular_Terrain.mtl
o object1
g object1
v 0.67333311 0.00000000 0.91765715
v 0.67333311 1.00000000 0.91765715
v 0.50000000 1.00000000 1.50000000
v 0.50000000 0.00000000 1.50000000
v 0.23205081 0.00000000 0.50000000
v 0.23205081 1.00000000 0.50000000
v 0.09099026 0.00000000 -0.09099026
v 0.09099026 1.00000000 -0.09099026
v -0.50000000 0.00000000 -0.23205081
v -0.50000000 1.00000000 -0.23205081
v -0.93686810 0.00000000 -0.67838988
v -0.93686810 1.00000000 -0.67838988
v -1.50000000 0.00000000 -0.50000000
v -1.50000000 1.00000000 -0.50000000
vt 0.00000000 1.00000000
vt 0.00000000 0.00000000
vt 1.00000000 0.00000000
vt 1.00000000 1.00000000
vt 0.00000000 1.00000000
vt 0.00000000 0.00000000
vt 1.00000000 0.00000000
vt 1.00000000 1.00000000
vt 0.00000000 1.00000000
vt 0.00000000 0.00000000
vt 1.00000000 0.00000000
vt 1.00000000 1.00000000
vt 0.00000000 1.00000000
vt 0.00000000 0.00000000
vt 1.00000000 0.00000000
vt 1.00000000 1.00000000
vt 0.00000000 1.00000000
vt 0.00000000 0.00000000
vt 1.00000000 0.00000000
vt 1.00000000 1.00000000
vt 1.00000000 0.00000000
vt 1.00000000 1.00000000
vt 0.00000000 1.00000000
vt 0.00000000 0.00000000
vn 0.95844453 -0.00000000 0.28527897
vn 0.95844453 -0.00000000 0.28527897
vn 0.95844453 -0.00000000 0.28527897
vn 0.95844453 -0.00000000 0.28527897
vn 0.68739782 -0.00000000 -0.72628110
vn 0.68739782 -0.00000000 -0.72628110
vn 0.68739782 -0.00000000 -0.72628110
vn 0.68739782 -0.00000000 -0.72628110
vn 0.97267679 -0.00000000 -0.23216343
vn 0.97267679 -0.00000000 -0.23216343
vn 0.97267679 -0.00000000 -0.23216343
vn 0.97267679 -0.00000000 -0.23216343
vn 0.23216343 -0.00000000 -0.97267679
vn 0.23216343 -0.00000000 -0.97267679
vn 0.23216343 -0.00000000 -0.97267679
vn 0.23216343 -0.00000000 -0.97267679
vn 0.71464827 -0.00000000 -0.69948399
vn 0.71464827 -0.00000000 -0.69948399
vn 0.71464827 -0.00000000 -0.69948399
vn 0.71464827 -0.00000000 -0.69948399
vn -0.30199137 -0.00000000 -0.95331066
vn -0.30199137 -0.00000000 -0.95331066
vn -0.30199137 -0.00000000 -0.95331066
vn -0.30199137 -0.00000000 -0.95331066
s 1
usemtl Rock
f 1/1/1 2/2/2 3/3/3
f 1/1/1 3/3/3 4/4/4
s 2
f 5/5/5 6/6/6 2/7/7
f 5/5/5 2/7/7 1/8/8
s 3
f 7/9/9 8/10/10 6/11/11
f 7/9/9 6/11/11 5/12/12
s 4
f 9/13/13 10/14/14 8/15/15
f 9/13/13 8/15/15 7/16/16
s 5
f 11/17/17 12/18/18 10/19/19
f 11/17/17 10/19/19 9/20/20
s 6
f 12/21/21 11/22/22 13/23/23
f 12/21/21 13/23/23 14/24/24
