mtllib Materials_Modular_Terrain.mtl
o object1
g object1
v 0.00000000 1.20000000 -0.40000000
v 0.00000000 0.20000000 -0.40000000
v -0.06698730 0.20000000 -0.55000000
v -0.06698730 1.20000000 -0.55000000
v -0.25000000 0.20000000 -0.65980762
v -0.25000000 1.20000000 -0.65980762
v -0.50000000 0.20000000 -0.70000000
v -0.50000000 1.20000000 -0.70000000
vt 0.00000000 0.00000000
vt 1.00000000 0.00000000
vt 1.00000000 1.00000000
vt 0.00000000 1.00000000
vt 0.00000000 0.00000000
vt 1.00000000 0.00000000
vt 1.00000000 1.00000000
vt 0.00000000 1.00000000
vt 0.00000000 0.00000000
vt 1.00000000 0.00000000
vt 1.00000000 1.00000000
vt 0.00000000 1.00000000
vn 0.91308573 0.00000000 -0.40776764
vn 0.91308573 0.00000000 -0.40776764
vn 0.91308573 0.00000000 -0.40776764
vn 0.91308573 0.00000000 -0.40776764
vn 0.51449576 0.00000000 -0.85749293
vn 0.51449576 0.00000000 -0.85749293
vn 0.51449576 0.00000000 -0.85749293
vn 0.51449576 0.00000000 -0.85749293
vn 0.15873125 0.00000000 -0.98732183
vn 0.15873125 0.00000000 -0.98732183
vn 0.15873125 0.00000000 -0.98732183
vn 0.15873125 0.00000000 -0.98732183
s 1
usemtl Water
f 1/1/1 2/2/2 4/4/4
f 2/2/2 3/3/3 4/4/4
s 2
f 4/5/5 3/6/6 6/8/8
f 3/6/6 5/7/7 6/8/8
s 3
f 6/9/9 5/10/10 8/12/12
f 5/10/10 7/11/11 8/12/12
