mtllib Materials_Modular_Terrain.mtl
o object1
g object1
v -0.43301270 1.35000000 2.50000000
v -0.50000000 0.85000000 2.50000000
v -0.25000000 0.92500000 3.00000000
v -0.21650635 1.17500000 3.00000000
v -0.50000000 1.00000000 3.50000000
v -0.43301270 1.50000000 3.50000000
v 0.12500000 1.85801270 3.00000000
v -0.25000000 1.86602540 3.50000000
v 0.25000000 1.92500000 3.00000000
v -0.00000000 2.00000000 3.50000000
v 0.25000000 1.97500000 3.00000000
v -0.00000000 2.05000000 3.50000000
v 0.15000000 2.07500000 3.00000000
v -0.10000000 2.15000000 3.50000000
v -0.00000000 2.12500000 3.00000000
v -0.25000000 2.20000000 3.50000000
v -0.50000000 2.20000000 3.50000000
v -0.50000000 2.12500000 3.00000000
v -0.50000000 2.05000000 2.50000000
v -0.25000000 2.05000000 2.50000000
v -0.50000000 1.87500000 2.00000000
v -0.00000000 1.87500000 2.00000000
v 0.15000000 1.82500000 2.00000000
v -0.10000000 2.00000000 2.50000000
v -0.25000000 1.70000000 1.50000000
v -0.10000000 1.65000000 1.50000000
v -0.00000000 1.52500000 1.00000000
v 0.15000000 1.47500000 1.00000000
v -0.50000000 1.70000000 1.50000000
v -0.50000000 1.52500000 1.00000000
v -0.50000000 1.35000000 0.50000000
v -0.25000000 1.35000000 0.50000000
v -0.50000000 1.27500000 0.00000000
v -0.00000000 1.27500000 0.00000000
v 0.15000000 1.22500000 0.00000000
v -0.10000000 1.30000000 0.50000000
v -0.25000000 1.20000000 -0.50000000
v -0.10000000 1.15000000 -0.50000000
v 0.25000000 1.12500000 0.00000000
v -0.00000000 1.05000000 -0.50000000
v 0.25000000 1.07500000 0.00000000
v -0.00000000 1.00000000 -0.50000000
v 0.12500000 1.00801270 0.00000000
v -0.25000000 0.86602540 -0.50000000
v -0.21650635 0.32500000 0.00000000
v -0.43301270 0.50000000 -0.50000000
v -0.25000000 0.07500000 0.00000000
v -0.50000000 -0.00000000 -0.50000000
v -0.25000000 -0.00000000 0.00000000
v -0.50000000 0.00000000 0.50000000
v -0.50000000 0.15000000 0.50000000
v -0.25000000 0.00000000 1.00000000
v -0.25000000 0.32500000 1.00000000
v -0.43301270 0.65000000 0.50000000
v -0.21650635 0.57500000 1.00000000
v -0.50000000 0.50000000 1.50000000
v -0.43301270 1.00000000 1.50000000
v -0.25000000 0.67500000 2.00000000
v -0.21650635 0.92500000 2.00000000
v -0.25000000 1.36602540 1.50000000
v 0.12500000 1.60801270 2.00000000
v -0.25000000 1.71602540 2.50000000
v 0.25000000 1.67500000 2.00000000
v -0.00000000 1.85000000 2.50000000
v 0.25000000 1.72500000 2.00000000
v -0.00000000 1.90000000 2.50000000
v -0.00000000 1.55000000 1.50000000
v -0.00000000 1.50000000 1.50000000
v 0.25000000 1.37500000 1.00000000
v 0.25000000 1.32500000 1.00000000
v -0.00000000 1.20000000 0.50000000
v -0.00000000 1.15000000 0.50000000
v -0.25000000 1.01602540 0.50000000
v 0.12500000 1.25801270 1.00000000
v -0.50000000 -0.00000000 1.50000000
v -0.25000000 0.00000000 2.00000000
v -0.50000000 0.00000000 2.50000000
v -0.50000000 1.20000000 -0.50000000
v -0.25000000 0.00000000 3.00000000
v -0.50000000 0.00000000 3.50000000
vt 0.00000000 1.00000000
vt 0.00000000 0.00000000
vt 1.00000000 0.00000000
vt 1.00000000 1.00000000
vt 0.00000000 1.00000000
vt 0.00000000 0.00000000
vt 1.00000000 0.00000000
vt 1.00000000 1.00000000
vt 0.00000000 1.00000000
vt 0.00000000 0.00000000
vt 1.00000000 0.00000000
vt 1.00000000 1.00000000
vt 0.00000000 1.00000000
vt 0.00000000 0.00000000
vt 1.00000000 0.00000000
vt 1.00000000 1.00000000
vt 0.00000000 1.00000000
vt 0.00000000 0.00000000
vt 1.00000000 0.00000000
vt 1.00000000 1.00000000
vt 0.00000000 1.00000000
vt 0.00000000 0.00000000
vt 1.00000000 0.00000000
vt 1.00000000 1.00000000
vt 0.00000000 1.00000000
vt 0.00000000 0.00000000
vt 1.00000000 0.00000000
vt 1.00000000 1.00000000
vt 1.00000000 0.60000000
vt 0.00000000 1.00000000
vt 0.00000000 0.00000000
vt 1.00000000 0.00000000
vt 1.00000000 1.00000000
vt 0.00000000 0.60000000
vt 0.00000000 0.00000000
vt 1.00000000 0.00000000
vt 1.00000000 0.60000000
vt 0.00000000 1.00000000
vt 0.00000000 0.00000000
vt 1.00000000 0.00000000
vt 0.00000000 1.00000000
vt 0.00000000 0.00000000
vt 1.00000000 0.00000000
vt 1.00000000 1.00000000
vt 0.00000000 1.00000000
vt 0.00000000 0.00000000
vt 1.00000000 0.00000000
vt 1.00000000 1.00000000
vt 0.00000000 1.00000000
vt 0.00000000 0.00000000
vt 1.00000000 0.00000000
vt 1.00000000 1.00000000
vt 1.00000000 0.60000000
vt 0.00000000 1.00000000
vt 0.00000000 0.00000000
vt 1.00000000 0.00000000
vt 1.00000000 1.00000000
vt 0.00000000 0.60000000
vt 0.00000000 0.00000000
vt 1.00000000 0.00000000
vt 1.00000000 0.60000000
vt 0.00000000 1.00000000
vt 0.00000000 0.00000000
vt 1.00000000 0.00000000
vt 0.00000000 1.00000000
vt 0.00000000 0.00000000
vt 1.00000000 0.00000000
vt 1.00000000 1.00000000
vt 1.00000000 0.00000000
vt 1.00000000 1.00000000
vt 0.00000000 1.00000000
vt 0.00000000 0.00000000
vt 1.00000000 0.00000000
vt 1.00000000 1.00000000
vt 0.00000000 1.00000000
vt 0.00000000 0.00000000
vt 1.00000000 0.00000000
vt 1.00000000 1.00000000
vt 0.00000000 1.00000000
vt 0.00000000 0.00000000
vt 1.00000000 0.00000000
vt 1.00000000 1.00000000
vt 0.00000000 1.00000000
vt 0.00000000 0.00000000
vt 1.00000000 0.00000000
vt 1.00000000 1.00000000
vt 0.00000000 1.00000000
vt 0.00000000 0.00000000
vt 1.00000000 0.00000000
vt 1.00000000 1.00000000
vt 0.00000000 1.00000000
vt 0.00000000 0.00000000
vt 1.00000000 0.00000000
vt 0.00000000 1.00000000
vt 0.00000000 0.00000000
vt 1.00000000 0.50000000
vt 0.00000000 1.00000000
vt 0.00000000 0.00000000
vt 1.00000000 0.00000000
vt 1.00000000 0.46153846
vt 0.00000000 1.00000000
vt 0.00000000 0.00000000
vt 1.00000000 0.00000000
vt 0.00000000 1.00000000
vt 0.00000000 0.00000000
vt 1.00000000 0.00000000
vt 1.00000000 1.00000000
vt 0.00000000 1.00000000
vt 0.00000000 0.00000000
vt 1.00000000 0.00000000
vt 1.00000000 1.00000000
vt 0.00000000 1.00000000
vt 0.00000000 0.00000000
vt 1.00000000 0.00000000
vt 1.00000000 1.00000000
vt 0.00000000 1.00000000
vt 0.00000000 0.00000000
vt 1.00000000 0.00000000
vt 1.00000000 1.00000000
vt 0.00000000 1.00000000
vt 0.00000000 0.00000000
vt 1.00000000 0.00000000
vt 1.00000000 1.00000000
vt 0.00000000 1.00000000
vt 0.00000000 0.00000000
vt 1.00000000 0.00000000
vt 1.00000000 1.00000000
vt 0.00000000 1.00000000
vt 0.00000000 0.00000000
vt 1.00000000 0.00000000
vt 1.00000000 1.00000000
vt 0.00000000 1.00000000
vt 0.00000000 0.00000000
vt 1.00000000 0.00000000
vt 1.00000000 1.00000000
vt 0.00000000 1.00000000
vt 0.00000000 0.00000000
vt 1.00000000 0.00000000
vt 1.00000000 1.00000000
vt 0.00000000 1.00000000
vt 0.00000000 0.00000000
vt 1.00000000 0.00000000
vt 1.00000000 1.00000000
vt 0.00000000 1.00000000
vt 0.00000000 0.00000000
vt 1.00000000 0.00000000
vt 1.00000000 1.00000000
vt 0.00000000 1.00000000
vt 0.00000000 0.00000000
vt 1.00000000 0.00000000
vt 1.00000000 1.00000000
vt 0.00000000 1.00000000
vt 0.00000000 0.00000000
vt 1.00000000 0.00000000
vt 1.00000000 1.00000000
vt 0.00000000 1.00000000
vt 0.00000000 0.00000000
vt 1.00000000 0.00000000
vt 1.00000000 1.00000000
vt 1.00000000 0.74074074
vt 0.00000000 1.00000000
vt 0.00000000 0.00000000
vt 1.00000000 0.00000000
vt 1.00000000 0.79411765
vt 0.00000000 1.00000000
vt 0.00000000 0.00000000
vt 1.00000000 0.00000000
vt 0.00000000 1.00000000
vt 0.00000000 0.00000000
vt 1.00000000 0.00000000
vt 1.00000000 1.00000000
vt 0.00000000 1.00000000
vt 0.00000000 0.00000000
vt 1.00000000 0.00000000
vt 1.00000000 1.00000000
vt 1.00000000 0.65000000
vt 0.00000000 1.00000000
vt 0.00000000 0.00000000
vt 1.00000000 0.00000000
vt 0.00000000 1.00000000
vt 0.00000000 0.00000000
vt 1.00000000 0.00000000
vt 1.00000000 1.00000000
vt 0.00000000 1.00000000
vt 0.00000000 0.00000000
vt 1.00000000 0.00000000
vt 1.00000000 1.00000000
vt 0.00000000 1.00000000
vt 0.00000000 0.00000000
vt 1.00000000 0.00000000
vt 1.00000000 1.00000000
vt 0.00000000 1.00000000
vt 0.00000000 0.00000000
vt 1.00000000 0.00000000
vt 1.00000000 1.00000000
vt 0.00000000 1.00000000
vt 0.00000000 0.00000000
vt 1.00000000 0.00000000
vt 1.00000000 1.00000000
vt 1.00000000 1.00000000
vt 0.00000000 0.60000000
vt 0.00000000 0.00000000
vt 1.00000000 0.00000000
vt 0.00000000 1.00000000
vt 0.00000000 0.00000000
vt 1.00000000 0.00000000
vt 1.00000000 1.00000000
vt 0.00000000 1.00000000
vt 0.00000000 0.00000000
vt 1.00000000 0.00000000
vt 1.00000000 1.00000000
vt 0.00000000 1.00000000
vt 0.00000000 0.00000000
vt 1.00000000 0.00000000
vt 1.00000000 1.00000000
vt 0.00000000 1.00000000
vt 0.00000000 0.00000000
vt 1.00000000 0.00000000
vt 1.00000000 1.00000000
vt 1.00000000 1.00000000
vt 0.00000000 0.60000000
vt 0.00000000 0.00000000
vt 1.00000000 0.00000000
vt 0.00000000 1.00000000
vt 0.00000000 0.00000000
vt 1.00000000 0.00000000
vt 1.00000000 1.00000000
vt 0.00000000 1.00000000
vt 0.00000000 0.00000000
vt 1.00000000 0.00000000
vt 1.00000000 1.00000000
vt 0.00000000 1.00000000
vt 0.00000000 0.00000000
vt 1.00000000 0.00000000
vt 1.00000000 1.00000000
vt 0.00000000 1.00000000
vt 0.00000000 0.00000000
vt 1.00000000 0.00000000
vt 1.00000000 1.00000000
vt 1.00000000 0.92500000
vt 0.00000000 1.00000000
vt 0.00000000 0.00000000
vt 1.00000000 0.00000000
vt 0.00000000 1.00000000
vt 0.00000000 0.00000000
vt 1.00000000 0.00000000
vt 1.00000000 1.00000000
vt 0.00000000 1.00000000
vt 0.00000000 0.00000000
vt 1.00000000 0.00000000
vt 1.00000000 1.00000000
vt 1.00000000 0.91891892
vt 0.00000000 1.00000000
vt 0.00000000 0.00000000
vt 1.00000000 0.00000000
vn 0.89505149 -0.11991416 -0.42953862
vn 0.89505149 -0.11991416 -0.42953862
vn 0.89505149 -0.11991416 -0.42953862
vn 0.89505149 -0.11991416 -0.42953862
vn 0.88098060 -0.11802902 0.45819465
vn 0.88098060 -0.11802902 0.45819465
vn 0.88098060 -0.11802902 0.45819465
vn 0.88098060 -0.11802902 0.45819465
vn 0.74031774 -0.37015887 0.56117025
vn 0.74031774 -0.37015887 0.56117025
vn 0.74031774 -0.37015887 0.56117025
vn 0.74031774 -0.37015887 0.56117025
vn 0.44322911 -0.82707678 0.34567607
vn 0.44322911 -0.82707678 0.34567607
vn 0.44322911 -0.82707678 0.34567607
vn 0.44322911 -0.82707678 0.34567607
vn 0.89442719 -0.00000000 0.44721360
vn 0.89442719 -0.00000000 0.44721360
vn 0.89442719 -0.00000000 0.44721360
vn 0.89442719 -0.00000000 0.44721360
vn 0.68639822 0.68639822 0.24023938
vn 0.68639822 0.68639822 0.24023938
vn 0.68639822 0.68639822 0.24023938
vn 0.68639822 0.68639822 0.24023938
vn 0.31618824 0.94856473 0.01580941
vn 0.31618824 0.94856473 0.01580941
vn 0.31618824 0.94856473 0.01580941
vn 0.31618824 0.94856473 0.01580941
vn 0.00000000 0.98893635 -0.14834045
vn 0.00000000 0.98893635 -0.14834045
vn 0.00000000 0.98893635 -0.14834045
vn 0.00000000 0.98893635 -0.14834045
vn 0.00000000 0.98893635 -0.14834045
vn 0.00000000 0.98893635 -0.14834045
vn 0.00000000 0.94385836 -0.33035042
vn 0.00000000 0.94385836 -0.33035042
vn 0.00000000 0.94385836 -0.33035042
vn 0.00000000 0.94385836 -0.33035042
vn 0.31155067 0.93465201 -0.17135287
vn 0.31155067 0.93465201 -0.17135287
vn 0.31155067 0.93465201 -0.17135287
vn 0.31155067 0.93465201 -0.17135287
vn 0.28395229 0.85185688 -0.44012606
vn 0.28395229 0.85185688 -0.44012606
vn 0.28395229 0.85185688 -0.44012606
vn 0.28395229 0.85185688 -0.44012606
vn 0.31155067 0.93465201 -0.17135287
vn 0.31155067 0.93465201 -0.17135287
vn 0.31155067 0.93465201 -0.17135287
vn 0.31155067 0.93465201 -0.17135287
vn 0.00000000 0.94385836 -0.33035042
vn 0.00000000 0.94385836 -0.33035042
vn 0.00000000 0.94385836 -0.33035042
vn 0.00000000 0.94385836 -0.33035042
vn 0.00000000 0.94385836 -0.33035042
vn 0.00000000 0.94385836 -0.33035042
vn 0.00000000 0.98893635 -0.14834045
vn 0.00000000 0.98893635 -0.14834045
vn 0.00000000 0.98893635 -0.14834045
vn 0.00000000 0.98893635 -0.14834045
vn 0.31618824 0.94856473 0.01580941
vn 0.31618824 0.94856473 0.01580941
vn 0.31618824 0.94856473 0.01580941
vn 0.31618824 0.94856473 0.01580941
vn 0.30285654 0.90856961 -0.28771371
vn 0.30285654 0.90856961 -0.28771371
vn 0.30285654 0.90856961 -0.28771371
vn 0.30285654 0.90856961 -0.28771371
vn 0.64249257 0.64249257 -0.41762017
vn 0.64249257 0.64249257 -0.41762017
vn 0.64249257 0.64249257 -0.41762017
vn 0.64249257 0.64249257 -0.41762017
vn 0.89442719 -0.00000000 -0.44721360
vn 0.89442719 -0.00000000 -0.44721360
vn 0.89442719 -0.00000000 -0.44721360
vn 0.89442719 -0.00000000 -0.44721360
vn 0.46981541 -0.87668750 -0.10340458
vn 0.46981541 -0.87668750 -0.10340458
vn 0.46981541 -0.87668750 -0.10340458
vn 0.46981541 -0.87668750 -0.10340458
vn 0.78575194 -0.39287597 -0.47774716
vn 0.78575194 -0.39287597 -0.47774716
vn 0.78575194 -0.39287597 -0.47774716
vn 0.78575194 -0.39287597 -0.47774716
vn 0.89505149 -0.11991416 -0.42953862
vn 0.89505149 -0.11991416 -0.42953862
vn 0.89505149 -0.11991416 -0.42953862
vn 0.89505149 -0.11991416 -0.42953862
vn 0.89442719 -0.00000000 -0.44721360
vn 0.89442719 -0.00000000 -0.44721360
vn 0.89442719 -0.00000000 -0.44721360
vn 0.89442719 -0.00000000 0.44721360
vn 0.89442719 -0.00000000 0.44721360
vn 0.89442719 -0.00000000 0.44721360
vn 0.89442719 -0.00000000 0.44721360
vn 0.89442719 -0.00000000 -0.44721360
vn 0.89442719 -0.00000000 -0.44721360
vn 0.89442719 -0.00000000 -0.44721360
vn 0.89442719 -0.00000000 -0.44721360
vn 0.90415142 -0.12113332 -0.40967905
vn 0.90415142 -0.12113332 -0.40967905
vn 0.90415142 -0.12113332 -0.40967905
vn 0.90415142 -0.12113332 -0.40967905
vn 0.87136612 -0.11674092 0.47654238
vn 0.87136612 -0.11674092 0.47654238
vn 0.87136612 -0.11674092 0.47654238
vn 0.87136612 -0.11674092 0.47654238
vn 0.90415142 -0.12113332 -0.40967905
vn 0.90415142 -0.12113332 -0.40967905
vn 0.90415142 -0.12113332 -0.40967905
vn 0.90415142 -0.12113332 -0.40967905
vn 0.81430716 -0.40715358 -0.41367838
vn 0.81430716 -0.40715358 -0.41367838
vn 0.81430716 -0.40715358 -0.41367838
vn 0.81430716 -0.40715358 -0.41367838
vn 0.70956153 -0.35478077 0.60881281
vn 0.70956153 -0.35478077 0.60881281
vn 0.70956153 -0.35478077 0.60881281
vn 0.70956153 -0.35478077 0.60881281
vn 0.41480884 -0.77404382 0.47831976
vn 0.41480884 -0.77404382 0.47831976
vn 0.41480884 -0.77404382 0.47831976
vn 0.41480884 -0.77404382 0.47831976
vn 0.89442719 -0.00000000 0.44721360
vn 0.89442719 -0.00000000 0.44721360
vn 0.89442719 -0.00000000 0.44721360
vn 0.89442719 -0.00000000 0.44721360
vn 0.89442719 -0.00000000 -0.44721360
vn 0.89442719 -0.00000000 -0.44721360
vn 0.89442719 -0.00000000 -0.44721360
vn 0.89442719 -0.00000000 -0.44721360
vn 0.89442719 -0.00000000 0.44721360
vn 0.89442719 -0.00000000 0.44721360
vn 0.89442719 -0.00000000 0.44721360
vn 0.89442719 -0.00000000 0.44721360
vn 0.89442719 -0.00000000 -0.44721360
vn 0.89442719 -0.00000000 -0.44721360
vn 0.89442719 -0.00000000 -0.44721360
vn 0.89442719 -0.00000000 -0.44721360
vn 0.60606061 0.60606061 -0.51515152
vn 0.60606061 0.60606061 -0.51515152
vn 0.60606061 0.60606061 -0.51515152
vn 0.60606061 0.60606061 -0.51515152
vn 0.47111706 -0.87911641 0.07213221
vn 0.47111706 -0.87911641 0.07213221
vn 0.47111706 -0.87911641 0.07213221
vn 0.47111706 -0.87911641 0.07213221
vn 0.41480884 -0.77404382 0.47831976
vn 0.41480884 -0.77404382 0.47831976
vn 0.41480884 -0.77404382 0.47831976
vn 0.41480884 -0.77404382 0.47831976
vn 0.47111706 -0.87911641 0.07213221
vn 0.47111706 -0.87911641 0.07213221
vn 0.47111706 -0.87911641 0.07213221
vn 0.47111706 -0.87911641 0.07213221
vn 0.89442719 -0.00000000 -0.44721360
vn 0.89442719 -0.00000000 -0.44721360
vn 0.89442719 -0.00000000 -0.44721360
vn 0.89442719 -0.00000000 -0.44721360
vn 0.89442719 -0.00000000 0.44721360
vn 0.89442719 -0.00000000 0.44721360
vn 0.89442719 -0.00000000 0.44721360
vn 0.89442719 -0.00000000 0.44721360
vn 0.70956153 -0.35478077 0.60881281
vn 0.70956153 -0.35478077 0.60881281
vn 0.70956153 -0.35478077 0.60881281
vn 0.70956153 -0.35478077 0.60881281
vn 0.81430716 -0.40715358 -0.41367838
vn 0.81430716 -0.40715358 -0.41367838
vn 0.81430716 -0.40715358 -0.41367838
vn 0.81430716 -0.40715358 -0.41367838
vn 0.89442719 -0.00000000 0.44721360
vn 0.89442719 -0.00000000 0.44721360
vn 0.89442719 -0.00000000 0.44721360
vn 0.89442719 -0.00000000 0.44721360
vn 0.88098060 -0.11802902 0.45819465
vn 0.88098060 -0.11802902 0.45819465
vn 0.88098060 -0.11802902 0.45819465
vn 0.88098060 -0.11802902 0.45819465
vn 0.74031774 -0.37015887 0.56117025
vn 0.74031774 -0.37015887 0.56117025
vn 0.74031774 -0.37015887 0.56117025
vn 0.74031774 -0.37015887 0.56117025
vn 0.44322911 -0.82707678 0.34567607
vn 0.44322911 -0.82707678 0.34567607
vn 0.44322911 -0.82707678 0.34567607
vn 0.44322911 -0.82707678 0.34567607
vn 0.89442719 -0.00000000 0.44721360
vn 0.89442719 -0.00000000 0.44721360
vn 0.89442719 -0.00000000 0.44721360
vn 0.89442719 -0.00000000 0.44721360
vn 0.68639822 0.68639822 0.24023938
vn 0.68639822 0.68639822 0.24023938
vn 0.68639822 0.68639822 0.24023938
vn 0.68639822 0.68639822 0.24023938
vn 0.00000000 0.98893635 -0.14834045
vn 0.00000000 0.98893635 -0.14834045
vn 0.28395229 0.85185688 -0.44012606
vn 0.28395229 0.85185688 -0.44012606
vn 0.28395229 0.85185688 -0.44012606
vn 0.28395229 0.85185688 -0.44012606
vn 0.70316255 0.70316255 0.10547438
vn 0.70316255 0.70316255 0.10547438
vn 0.70316255 0.70316255 0.10547438
vn 0.70316255 0.70316255 0.10547438
vn 0.60606061 0.60606061 -0.51515152
vn 0.60606061 0.60606061 -0.51515152
vn 0.60606061 0.60606061 -0.51515152
vn 0.60606061 0.60606061 -0.51515152
vn 0.70316255 0.70316255 0.10547438
vn 0.70316255 0.70316255 0.10547438
vn 0.70316255 0.70316255 0.10547438
vn 0.70316255 0.70316255 0.10547438
vn 0.30285654 0.90856961 -0.28771371
vn 0.30285654 0.90856961 -0.28771371
vn 0.30285654 0.90856961 -0.28771371
vn 0.30285654 0.90856961 -0.28771371
vn 0.64249257 0.64249257 -0.41762017
vn 0.64249257 0.64249257 -0.41762017
vn 0.64249257 0.64249257 -0.41762017
vn 0.64249257 0.64249257 -0.41762017
vn 0.89442719 -0.00000000 -0.44721360
vn 0.89442719 -0.00000000 -0.44721360
vn 0.89442719 -0.00000000 -0.44721360
vn 0.89442719 -0.00000000 -0.44721360
vn 0.46981541 -0.87668750 -0.10340458
vn 0.46981541 -0.87668750 -0.10340458
vn 0.46981541 -0.87668750 -0.10340458
vn 0.46981541 -0.87668750 -0.10340458
vn 0.89442719 -0.00000000 0.44721360
vn 0.89442719 -0.00000000 0.44721360
vn 0.89442719 -0.00000000 0.44721360
vn 0.89442719 -0.00000000 0.44721360
vn 0.78575194 -0.39287597 -0.47774716
vn 0.78575194 -0.39287597 -0.47774716
vn 0.78575194 -0.39287597 -0.47774716
vn 0.78575194 -0.39287597 -0.47774716
vn 0.87136612 -0.11674092 0.47654238
vn 0.87136612 -0.11674092 0.47654238
vn 0.87136612 -0.11674092 0.47654238
vn 0.87136612 -0.11674092 0.47654238
vn 0.89442719 -0.00000000 -0.44721360
vn 0.89442719 -0.00000000 -0.44721360
vn 0.89442719 -0.00000000 -0.44721360
vn 0.89442719 -0.00000000 -0.44721360
s 1
usemtl Rock
f 4/4/4 3/3/3 2/2/2
f 4/4/4 2/2/2 1/1/1
s 2
f 6/8/8 5/7/7 4/5/5
f 5/7/7 3/6/6 4/5/5
s 3
f 8/12/12 6/11/11 7/9/9
f 6/11/11 4/10/10 7/9/9
s 4
usemtl Grass
f 10/16/16 8/15/15 7/14/14
f 10/16/16 7/14/14 9/13/13
s 5
f 12/20/20 10/19/19 11/17/17
f 10/19/19 9/18/18 11/17/17
s 6
f 14/24/24 12/23/23 13/21/21
f 12/23/23 11/22/22 13/21/21
s 7
f 16/28/28 14/27/27 15/25/25
f 14/27/27 13/26/26 15/25/25
s 8
f 16/32/32 15/31/31 18/30/30
f 20/35/34 19/34/33 18/33/30
f 15/36/31 20/35/34 18/33/30
f 16/32/32 18/30/30 17/29/29
s 9
f 20/40/38 22/39/37 21/38/36
f 25/222/54 29/221/51 21/220/36
f 25/56/54 30/54/52 29/53/51
f 32/59/56 31/58/55 30/57/52
f 27/60/53 32/59/56 30/57/52
f 25/56/54 27/55/53 30/54/52
f 22/223/37 25/222/54 21/220/36
f 20/40/38 21/38/36 19/37/35
s 10
f 20/44/42 24/43/41 22/41/39
f 24/43/41 23/42/40 22/41/39
s 11
f 22/48/46 23/47/45 26/46/44
f 22/48/46 26/46/44 25/45/43
s 12
f 25/52/50 26/51/49 27/49/47
f 26/51/49 28/50/48 27/49/47
s 13
f 32/64/60 34/63/59 33/62/58
f 37/202/197 78/201/196 33/200/58
f 34/203/59 37/202/197 33/200/58
f 32/64/60 33/62/58 31/61/57
s 14
f 32/68/64 36/67/63 34/65/61
f 36/67/63 35/66/62 34/65/61
s 15
f 38/72/68 37/71/67 34/70/66
f 38/72/68 34/70/66 35/69/65
s 16
f 40/76/72 38/75/71 35/74/70
f 40/76/72 35/74/70 39/73/69
s 17
f 42/80/76 40/79/75 41/77/73
f 40/79/75 39/78/74 41/77/73
s 18
f 44/84/80 42/83/79 43/81/77
f 42/83/79 41/82/78 43/81/77
s 19
usemtl Rock
f 46/88/84 44/87/83 45/85/81
f 44/87/83 43/86/82 45/85/81
s 20
f 48/92/88 46/91/87 45/90/86
f 48/92/88 45/90/86 47/89/85
s 21
f 47/95/91 49/94/90 48/93/89
s 22
f 47/99/95 51/98/94 50/97/93
f 47/99/95 50/97/93 49/96/92
s 23
f 51/103/99 53/102/98 52/101/97
f 51/103/99 52/101/97 50/100/96
s 24
f 55/107/103 53/106/102 54/104/100
f 53/106/102 51/105/101 54/104/100
s 25
f 57/111/107 56/110/106 55/108/104
f 56/110/106 53/109/105 55/108/104
s 26
f 59/115/111 58/114/110 57/112/108
f 58/114/110 56/113/109 57/112/108
s 27
f 61/119/115 59/118/114 60/116/112
f 59/118/114 57/117/113 60/116/112
s 28
f 62/123/119 1/122/118 61/120/116
f 1/122/118 59/121/117 61/120/116
s 29
usemtl Grass
f 64/127/123 62/126/122 61/125/121
f 64/127/123 61/125/121 63/124/120
s 30
f 66/131/127 64/130/126 65/128/124
f 64/130/126 63/129/125 65/128/124
s 31
f 65/135/131 63/134/130 67/132/128
f 63/134/130 68/133/129 67/132/128
s 32
f 67/139/135 68/138/134 69/136/132
f 68/138/134 70/137/133 69/136/132
s 33
f 69/143/139 70/142/138 71/140/136
f 70/142/138 72/141/137 71/140/136
s 34
f 28/147/143 69/146/142 71/145/141
f 28/147/143 71/145/141 36/144/140
s 35
f 70/151/147 74/150/146 72/148/144
f 74/150/146 73/149/145 72/148/144
s 36
f 68/155/151 60/154/150 74/153/149
f 68/155/151 74/153/149 70/152/148
s 37
f 63/159/155 61/158/154 68/156/152
f 61/158/154 60/157/153 68/156/152
s 38
usemtl Rock
f 56/163/159 58/162/158 76/161/157
f 56/163/159 76/161/157 75/160/156
s 39
f 58/167/163 2/166/162 77/165/161
f 58/167/163 77/165/161 76/164/160
s 40
f 60/171/167 57/170/166 74/168/164
f 57/170/166 55/169/165 74/168/164
s 41
f 74/175/171 55/174/170 73/172/168
f 55/174/170 54/173/169 73/172/168
s 42
f 53/179/175 56/178/174 75/177/173
f 53/179/175 75/177/173 52/176/172
s 43
f 54/183/179 51/182/178 45/180/176
f 51/182/178 47/181/177 45/180/176
s 44
f 73/187/183 54/186/182 43/184/180
f 54/186/182 45/185/181 43/184/180
s 45
usemtl Grass
f 72/191/187 73/190/186 43/189/185
f 72/191/187 43/189/185 41/188/184
s 46
f 71/195/191 72/194/190 39/192/188
f 72/194/190 41/193/189 39/192/188
s 47
f 36/199/195 71/198/194 35/196/192
f 71/198/194 39/197/193 35/196/192
s 48
f 27/207/201 28/206/200 36/205/199
f 27/207/201 36/205/199 32/204/198
s 49
f 26/211/205 67/210/204 28/208/202
f 67/210/204 69/209/203 28/208/202
s 50
f 23/215/209 65/214/208 67/213/207
f 23/215/209 67/213/207 26/212/206
s 51
f 24/219/213 66/218/212 23/216/210
f 66/218/212 65/217/211 23/216/210
s 52
f 15/227/217 13/226/216 24/225/215
f 15/227/217 24/225/215 20/224/214
s 53
f 13/231/221 11/230/220 66/229/219
f 13/231/221 66/229/219 24/228/218
s 54
f 11/235/225 9/234/224 66/232/222
f 9/234/224 64/233/223 66/232/222
s 55
f 9/239/229 7/238/228 64/236/226
f 7/238/228 62/237/227 64/236/226
s 56
usemtl Rock
f 3/243/233 5/242/232 80/241/231
f 3/243/233 80/241/231 79/240/230
s 57
f 7/247/237 4/246/236 62/244/234
f 4/246/236 1/245/235 62/244/234
s 58
f 1/251/241 2/250/240 59/248/238
f 2/250/240 58/249/239 59/248/238
s 59
f 2/255/245 3/254/244 79/253/243
f 2/255/245 79/253/243 77/252/242
