mtllib Materials_Modular_Terrain.mtl
o object1
g object1
v -0.37080663 0.00000000 -0.24996698
v -0.47474033 0.06698730 -0.18052070
v -0.44454365 0.13397460 0.44454365
v -0.26776695 0.00000000 0.26776695
v 0.18052070 0.06698730 0.47474033
v 0.24996698 0.00000000 0.37080663
v 0.44762056 0.13397460 1.04066871
v 0.54329142 0.00000000 0.80969883
v 1.03666049 0.06698730 0.82936504
v 1.06104678 0.00000000 0.70676688
v 1.50000000 0.13397460 1.25000000
v 1.50000000 0.00000000 1.00000000
v 0.97003590 0.75000000 1.16430944
v 1.50000000 0.50000000 1.43301270
v 0.96350161 1.00000000 1.19715952
v 1.50000000 1.00000000 1.50000000
v 0.37758463 0.50000000 1.20975040
v 0.35194970 1.00000000 1.27163860
v -0.00921007 0.75000000 0.75869248
v -0.02781814 1.00000000 0.78654143
v -0.57395317 0.50000000 0.57395317
v -0.62132034 1.00000000 0.62132034
v -0.75869248 0.75000000 0.00921007
v -0.78654143 1.00000000 0.02781814
v -1.20975040 0.50000000 -0.37758463
v -1.27163860 1.00000000 -0.35194970
v -1.04066871 0.13397460 -0.44762056
v -0.82936504 0.06698730 -1.03666049
v -1.16430944 0.75000000 -0.97003590
v -0.70676688 0.00000000 -1.06104678
v -0.80969883 0.00000000 -0.54329142
v -1.00000000 0.00000000 -1.50000000
v -1.25000000 0.13397460 -1.50000000
v -1.43301270 0.50000000 -1.50000000
v -1.19715952 1.00000000 -0.96350161
v -1.50000000 1.00000000 -1.50000000
vt 0.00000000 1.00000000
vt 0.00000000 0.00000000
vt 1.00000000 0.00000000
vt 1.00000000 1.00000000
vt 0.00000000 1.00000000
vt 0.00000000 0.00000000
vt 1.00000000 0.00000000
vt 1.00000000 1.00000000
vt 0.00000000 1.00000000
vt 0.00000000 0.00000000
vt 1.00000000 0.00000000
vt 1.00000000 1.00000000
vt 0.00000000 1.00000000
vt 0.00000000 0.00000000
vt 1.00000000 0.00000000
vt 1.00000000 1.00000000
vt 0.00000000 1.00000000
vt 0.00000000 0.00000000
vt 1.00000000 0.00000000
vt 1.00000000 1.00000000
vt 0.00000000 1.00000000
vt 0.00000000 0.00000000
vt 1.00000000 0.00000000
vt 1.00000000 1.00000000
vt 0.00000000 1.00000000
vt 0.00000000 0.00000000
vt 1.00000000 0.00000000
vt 1.00000000 1.00000000
vt 0.00000000 1.00000000
vt 0.00000000 0.00000000
vt 1.00000000 0.00000000
vt 1.00000000 1.00000000
vt 0.00000000 1.00000000
vt 0.00000000 0.00000000
vt 1.00000000 0.00000000
vt 1.00000000 1.00000000
vt 0.00000000 1.00000000
vt 0.00000000 0.00000000
vt 1.00000000 0.00000000
vt 1.00000000 1.00000000
vt 0.00000000 1.00000000
vt 0.00000000 0.00000000
vt 1.00000000 0.00000000
vt 1.00000000 1.00000000
vt 0.00000000 1.00000000
vt 0.00000000 0.00000000
vt 1.00000000 0.00000000
vt 1.00000000 1.00000000
vt 0.00000000 1.00000000
vt 0.00000000 0.00000000
vt 1.00000000 0.00000000
vt 1.00000000 1.00000000
vt 0.00000000 1.00000000
vt 0.00000000 0.00000000
vt 1.00000000 0.00000000
vt 1.00000000 1.00000000
vt 0.00000000 1.00000000
vt 0.00000000 0.00000000
vt 1.00000000 0.00000000
vt 1.00000000 1.00000000
vt 1.00000000 0.00000000
vt 1.00000000 1.00000000
vt 0.00000000 1.00000000
vt 0.00000000 0.00000000
vt 1.00000000 0.00000000
vt 1.00000000 1.00000000
vt 0.00000000 1.00000000
vt 0.00000000 0.00000000
vt 1.00000000 0.00000000
vt 1.00000000 1.00000000
vt 0.00000000 1.00000000
vt 0.00000000 0.00000000
vt 0.00000000 1.00000000
vt 0.00000000 0.00000000
vt 1.00000000 0.00000000
vt 1.00000000 1.00000000
vt 0.00000000 1.00000000
vt 0.00000000 0.00000000
vt 1.00000000 0.00000000
vt 1.00000000 1.00000000
vt 0.00000000 1.00000000
vt 0.00000000 0.00000000
vt 1.00000000 0.00000000
vt 1.00000000 1.00000000
vt 0.00000000 1.00000000
vt 0.00000000 0.00000000
vt 1.00000000 0.00000000
vt 1.00000000 1.00000000
vt 0.00000000 1.00000000
vt 0.00000000 0.00000000
vt 1.00000000 0.00000000
vt 1.00000000 1.00000000
vt 0.00000000 1.00000000
vt 0.00000000 0.00000000
vt 1.00000000 0.00000000
vt 1.00000000 1.00000000
vn 0.49208483 0.86502096 -0.09793498
vn 0.48197354 0.86842599 -0.11635204
vn 0.52383634 0.84391818 -0.11574795
vn 0.53129933 0.84055945 -0.10573947
vn 0.10573947 0.84055945 -0.53129933
vn 0.11574795 0.84391818 -0.52383634
vn 0.11635204 0.86842599 -0.48197354
vn 0.09793498 0.86502096 -0.49208483
vn 0.41714901 0.86502096 -0.27879283
vn 0.40075949 0.86842599 -0.29193856
vn 0.43966685 0.84391818 -0.30740065
vn 0.45039183 0.84055945 -0.30100998
vn -0.10562892 0.84055945 -0.53132132
vn -0.09352633 0.84391818 -0.52825650
vn -0.07694802 0.86842599 -0.48981149
vn -0.09783259 0.86502096 -0.49210519
vn 0.27870603 0.86502096 -0.41720700
vn 0.25853344 0.86842599 -0.42308008
vn 0.28856207 0.84391818 -0.45225439
vn 0.30091626 0.84055945 -0.45045445
vn 0.58254850 0.40297643 -0.70586630
vn 0.55867170 0.40847448 -0.72182722
vn 0.55342600 0.37248347 -0.74496693
vn 0.59863276 0.35822865 -0.71645729
vn 0.49522221 0.12589489 -0.85959609
vn 0.48763407 0.12625819 -0.86387029
vn 0.48825606 0.11588430 -0.86497217
vn 0.49202720 0.11560271 -0.86287035
vn -0.12436767 0.11560271 -0.98547892
vn -0.12007926 0.11588430 -0.98597759
vn -0.11992629 0.12625819 -0.98472156
vn -0.12857248 0.12589489 -0.98367657
vn 0.78647885 0.12589489 -0.60464990
vn 0.78110399 0.12625819 -0.61150260
vn 0.78210030 0.11588430 -0.61228258
vn 0.78478005 0.11560271 -0.60889760
vn 0.26222571 0.11560271 -0.95805725
vn 0.26637852 0.11588430 -0.95687685
vn 0.26603918 0.12625819 -0.95565790
vn 0.25765124 0.12589489 -0.95800121
vn 0.95800121 0.12589489 -0.25765124
vn 0.95565790 0.12625819 -0.26603918
vn 0.95687685 0.11588430 -0.26637852
vn 0.95805725 0.11560271 -0.26222571
vn 0.60889760 0.11560271 -0.78478005
vn 0.61228258 0.11588430 -0.78210030
vn 0.61150260 0.12625819 -0.78110399
vn 0.60464990 0.12589489 -0.78647885
vn 0.43283339 0.35822865 -0.82724089
vn 0.47647274 0.37248347 -0.79638545
vn 0.45308699 0.40847448 -0.79237667
vn 0.42920377 0.40297643 -0.80832798
vn 0.87506709 0.40297643 0.26808130
vn 0.88067580 0.40847448 0.23991403
vn 0.90004666 0.37248347 0.22621245
vn 0.89100707 0.35822865 0.27888822
vn 0.49210519 0.86502096 0.09783259
vn 0.48981149 0.86842599 0.07694802
vn 0.52825650 0.84391818 0.09352633
vn 0.53132132 0.84055945 0.10562892
vn 0.42308008 0.86842599 -0.25853344
vn 0.41720700 0.86502096 -0.27870603
vn 0.45045445 0.84055945 -0.30091626
vn 0.45225439 0.84391818 -0.28856207
vn 0.72182722 0.40847448 -0.55867170
vn 0.70586630 0.40297643 -0.58254850
vn 0.71645729 0.35822865 -0.59863276
vn 0.74496693 0.37248347 -0.55342600
vn 0.86387029 0.12625819 -0.48763407
vn 0.85959609 0.12589489 -0.49522221
vn 0.86287035 0.11560271 -0.49202720
vn 0.86497217 0.11588430 -0.48825606
vn 0.98367657 0.12589489 0.12857248
vn 0.98472156 0.12625819 0.11992629
vn 0.98597759 0.11588430 0.12007926
vn 0.98547892 0.11560271 0.12436767
vn -0.27888822 0.35822865 -0.89100707
vn -0.22621245 0.37248347 -0.90004666
vn -0.23991403 0.40847448 -0.88067580
vn -0.26808130 0.40297643 -0.87506709
vn 0.80832798 0.40297643 -0.42920377
vn 0.79237667 0.40847448 -0.45308699
vn 0.79638545 0.37248347 -0.47647274
vn 0.82724089 0.35822865 -0.43283339
vn 0.08331452 0.35822865 -0.92990910
vn 0.13543990 0.37248347 -0.91810245
vn 0.11536837 0.40847448 -0.90544947
vn 0.08719885 0.40297643 -0.91104685
vn 0.30100998 0.84055945 -0.45039183
vn 0.30740065 0.84391818 -0.43966685
vn 0.29193856 0.86842599 -0.40075949
vn 0.27879283 0.86502096 -0.41714901
vn 0.91104685 0.40297643 -0.08719885
vn 0.90544947 0.40847448 -0.11536837
vn 0.91810245 0.37248347 -0.13543990
vn 0.92990910 0.35822865 -0.08331452
s 1
usemtl Rock
f 1/1/1 2/2/2 4/4/4
f 2/2/2 3/3/3 4/4/4
s 2
f 4/5/5 3/6/6 5/7/7
f 4/5/5 5/7/7 6/8/8
s 3
f 6/9/9 5/10/10 8/12/12
f 5/10/10 7/11/11 8/12/12
s 4
f 8/13/13 7/14/14 9/15/15
f 8/13/13 9/15/15 10/16/16
s 5
f 10/17/17 9/18/18 12/20/20
f 9/18/18 11/19/19 12/20/20
s 6
f 9/21/21 13/22/22 11/24/24
f 13/22/22 14/23/23 11/24/24
s 7
f 13/25/25 15/26/26 16/27/27
f 13/25/25 16/27/27 14/28/28
s 8
f 17/29/29 18/30/30 13/32/32
f 18/30/30 15/31/31 13/32/32
s 9
f 19/33/33 20/34/34 18/35/35
f 19/33/33 18/35/35 17/36/36
s 10
f 21/37/37 22/38/38 19/40/40
f 22/38/38 20/39/39 19/40/40
s 11
f 23/41/41 24/42/42 22/43/43
f 23/41/41 22/43/43 21/44/44
s 12
f 25/45/45 26/46/46 23/48/48
f 26/46/46 24/47/47 23/48/48
s 13
f 27/49/49 25/50/50 23/51/51
f 27/49/49 23/51/51 2/52/52
s 14
f 28/53/53 29/54/54 27/56/56
f 29/54/54 25/55/55 27/56/56
s 15
f 30/57/57 28/58/58 31/60/60
f 28/58/58 27/59/59 31/60/60
s 16
f 28/61/61 30/62/62 32/63/63
f 28/61/61 32/63/63 33/64/64
s 17
f 29/65/65 28/66/66 33/67/67
f 29/65/65 33/67/67 34/68/68
s 18
f 35/69/69 29/70/70 36/72/72
f 29/70/70 34/71/71 36/72/72
s 19
f 29/73/73 35/74/74 26/75/75
f 29/73/73 26/75/75 25/76/76
s 20
f 7/77/77 17/78/78 13/79/79
f 7/77/77 13/79/79 9/80/80
s 21
f 5/81/81 19/82/82 7/84/84
f 19/82/82 17/83/83 7/84/84
s 22
f 3/85/85 21/86/86 19/87/87
f 3/85/85 19/87/87 5/88/88
s 23
f 31/89/89 27/90/90 2/91/91
f 31/89/89 2/91/91 1/92/92
s 24
f 2/93/93 23/94/94 3/96/96
f 23/94/94 21/95/95 3/96/96
