mtllib Materials_Modular_Terrain.mtl
o object1
g object1
v -0.43301270 0.50000000 0.50000000
v -0.21650635 0.25000000 0.00000000
v 0.12500000 0.93301270 0.00000000
v 0.12500000 0.93301270 0.50000000
v 0.18750000 0.96650635 0.50000000
v 0.18750000 0.96650635 0.00000000
v 0.18750000 1.00000000 0.00000000
v 0.18750000 1.00000000 0.50000000
v -0.50000000 1.00000000 0.50000000
v -0.50000000 1.00000000 0.00000000
v -0.50000000 1.05000000 -0.15000000
v 0.17500000 1.05000000 -0.15000000
v 0.02500000 1.15000000 -0.25000000
v -0.50000000 1.15000000 -0.25000000
v -0.20000000 1.20000000 -0.40000000
v -0.50000000 1.20000000 -0.40000000
v -0.25000000 1.20000000 -0.50000000
v -0.50000000 1.20000000 -0.50000000
v -0.10000000 1.15000000 -0.50000000
v -0.00000000 1.05000000 -0.50000000
v -0.00000000 1.00000000 -0.50000000
v 0.17500000 1.00000000 -0.15000000
v -0.25000000 0.86602540 -0.50000000
v -0.50000000 -0.00000000 0.50000000
v -0.25000000 -0.00000000 0.00000000
v -0.43301270 0.50000000 -0.50000000
v -0.50000000 -0.00000000 -0.50000000
vt 0.00000000 0.90192379
vt 0.38799538 0.00000000
vt 1.00000000 1.00000000
vt 1.00000000 0.00000000
vt 1.00000000 1.00000000
vt 0.00000000 1.00000000
vt 1.00000000 0.00000000
vt 1.00000000 1.00000000
vt 0.00000000 1.00000000
vt 0.00000000 0.00000000
vt 0.00000000 1.00000000
vt 0.00000000 0.00000000
vt 1.00000000 0.00000000
vt 1.00000000 1.00000000
vt 0.00000000 1.00000000
vt 0.00000000 0.00000000
vt 1.00000000 0.00000000
vt 1.00000000 1.00000000
vt 0.00000000 1.00000000
vt 0.00000000 0.00000000
vt 0.98181818 0.00000000
vt 1.00000000 1.00000000
vt 0.00000000 0.00000000
vt 1.00000000 0.00000000
vt 0.77777778 1.00000000
vt 0.00000000 1.00000000
vt 0.00000000 0.00000000
vt 1.00000000 0.00000000
vt 0.57142857 1.00000000
vt 0.00000000 1.00000000
vt 0.83333333 0.00000000
vt 1.00000000 1.00000000
vt 0.00000000 1.00000000
vt 0.00000000 0.00000000
vt 0.00000000 0.00000000
vt 1.00000000 0.00000000
vt 0.40000000 1.00000000
vt 0.00000000 1.00000000
vt 0.00000000 0.00000000
vt 1.00000000 0.00000000
vt 0.71428571 1.00000000
vt 0.00000000 1.00000000
vt 0.00000000 0.00000000
vt 1.00000000 0.00000000
vt 1.00000000 1.00000000
vt 0.00000000 1.00000000
vt 0.00000000 0.40115206
vt 1.00000000 0.00000000
vt 1.00000000 0.40115206
vt 0.00000000 1.00000000
vt 1.00000000 0.00000000
vt 1.00000000 1.00000000
vt 0.30000000 1.00000000
vt 0.00000000 0.50000000
vt 0.00000000 0.00000000
vt 0.00000000 0.00000000
vt 1.00000000 0.00000000
vt 1.00000000 1.00000000
vt 0.00000000 1.00000000
vt 1.00000000 1.00000000
vt 0.00000000 1.00000000
vt 0.00000000 0.00000000
vt 1.00000000 0.00000000
vt 1.00000000 1.00000000
vt 0.00000000 1.00000000
vt 0.00000000 0.00000000
vt 1.00000000 0.00000000
vn 0.76326842 -0.38163421 0.52132202
vn 0.76326842 -0.38163421 0.52132202
vn 0.76326842 -0.38163421 0.52132202
vn 0.61306057 -0.79003591 -0.00000000
vn 0.61306057 -0.79003591 -0.00000000
vn 0.61306057 -0.79003591 -0.00000000
vn 0.47234749 -0.88141242 0.00000000
vn 0.47234749 -0.88141242 0.00000000
vn 0.47234749 -0.88141242 0.00000000
vn 0.47234749 -0.88141242 0.00000000
vn 1.00000000 0.00000000 0.00000000
vn 1.00000000 0.00000000 0.00000000
vn 1.00000000 0.00000000 0.00000000
vn 1.00000000 0.00000000 0.00000000
vn 0.00000000 1.00000000 -0.00000000
vn 0.00000000 1.00000000 -0.00000000
vn 0.00000000 1.00000000 -0.00000000
vn 0.00000000 1.00000000 -0.00000000
vn -0.00000000 0.94868330 0.31622777
vn -0.00000000 0.94868330 0.31622777
vn -0.00000000 0.94868330 0.31622777
vn -0.00000000 0.94868330 0.31622777
vn 0.00000000 0.70710678 0.70710678
vn 0.00000000 0.70710678 0.70710678
vn 0.00000000 0.70710678 0.70710678
vn 0.00000000 0.70710678 0.70710678
vn 0.00000000 0.94868330 0.31622777
vn 0.00000000 0.94868330 0.31622777
vn 0.00000000 0.94868330 0.31622777
vn 0.00000000 0.94868330 0.31622777
vn 0.00000000 1.00000000 -0.00000000
vn 0.00000000 1.00000000 -0.00000000
vn 0.00000000 1.00000000 -0.00000000
vn 0.00000000 1.00000000 -0.00000000
vn 0.31234752 0.93704257 -0.15617376
vn 0.31234752 0.93704257 -0.15617376
vn 0.31234752 0.93704257 -0.15617376
vn 0.31234752 0.93704257 -0.15617376
vn 0.66666667 0.66666667 -0.33333333
vn 0.66666667 0.66666667 -0.33333333
vn 0.66666667 0.66666667 -0.33333333
vn 0.66666667 0.66666667 -0.33333333
vn 0.89442719 -0.00000000 -0.44721360
vn 0.89442719 -0.00000000 -0.44721360
vn 0.89442719 -0.00000000 -0.44721360
vn 0.89442719 -0.00000000 -0.44721360
vn 0.99654576 -0.00000000 -0.08304548
vn 0.99654576 -0.00000000 -0.08304548
vn 0.99654576 -0.00000000 -0.08304548
vn 0.99654576 -0.00000000 -0.08304548
vn 0.45970084 -0.85781345 -0.22985042
vn 0.45970084 -0.85781345 -0.22985042
vn 0.45970084 -0.85781345 -0.22985042
vn 0.45970084 -0.85781345 -0.22985042
vn 0.45970084 -0.85781345 -0.22985042
vn 0.88807383 -0.11897933 0.44403692
vn 0.88807383 -0.11897933 0.44403692
vn 0.88807383 -0.11897933 0.44403692
vn 0.88807383 -0.11897933 0.44403692
vn 0.88807383 -0.11897933 -0.44403692
vn 0.88807383 -0.11897933 -0.44403692
vn 0.88807383 -0.11897933 -0.44403692
vn 0.88807383 -0.11897933 -0.44403692
vn 0.76326842 -0.38163421 -0.52132202
vn 0.76326842 -0.38163421 -0.52132202
vn 0.76326842 -0.38163421 -0.52132202
vn 0.76326842 -0.38163421 -0.52132202
s 1
usemtl Rock
f 1/1/1 2/2/2 3/3/3
s 2
f 3/4/4 4/5/5 1/6/6
s 3
usemtl Grass
f 4/10/10 3/9/9 6/8/8
f 4/10/10 6/8/8 5/7/7
s 4
usemtl Dirt
f 5/11/11 6/12/12 7/13/13
f 5/11/11 7/13/13 8/14/14
s 5
f 8/18/18 7/17/17 9/15/15
f 7/17/17 10/16/16 9/15/15
s 6
f 7/22/22 12/21/21 10/19/19
f 12/21/21 11/20/20 10/19/19
s 7
usemtl Grass
f 11/23/23 12/24/24 13/25/25
f 11/23/23 13/25/25 14/26/26
s 8
f 14/27/27 13/28/28 15/29/29
f 14/27/27 15/29/29 16/30/30
s 9
f 18/34/34 16/33/33 17/31/31
f 16/33/33 15/32/32 17/31/31
s 10
f 17/38/38 15/37/37 19/35/35
f 15/37/37 13/36/36 19/35/35
s 11
f 19/42/42 13/41/41 20/39/39
f 13/41/41 12/40/40 20/39/39
s 12
f 20/46/46 12/45/45 22/44/44
f 20/46/46 22/44/44 21/43/43
s 13
usemtl Dirt
f 12/50/50 7/49/49 22/47/47
f 7/49/49 6/48/48 22/47/47
s 14
usemtl Grass
f 22/53/53 6/54/54 3/55/55
f 23/51/51 21/52/52 3/55/55
f 21/52/52 22/53/53 3/55/55
s 15
usemtl Rock
f 24/56/56 25/57/57 2/58/58
f 24/56/56 2/58/58 1/59/59
s 16
f 26/60/60 2/61/61 27/63/63
f 2/61/61 25/62/62 27/63/63
s 17
f 23/64/64 3/65/65 2/66/66
f 23/64/64 2/66/66 26/67/67
