mtllib Materials_Modular_Terrain.mtl
o object1
g object1
v 0.61611652 0.00000000 -0.61611652
v 0.52772818 0.06698730 -0.52772818
v -0.01554446 0.13397460 -0.62500000
v 0.20096189 0.00000000 -0.75000000
v 0.17185199 0.06698730 -1.14412381
v 0.29259272 0.00000000 -1.17647619
v -0.25000000 0.13397460 -1.50000000
v -0.00000000 0.00000000 -1.50000000
v -0.15801782 0.75000000 -1.05573547
v -0.43301270 0.50000000 -1.50000000
v -0.19037020 1.00000000 -1.04706667
v -0.50000000 1.00000000 -1.50000000
v -0.17403811 0.50000000 -0.53349365
v -0.23205081 1.00000000 -0.50000000
v 0.28624672 0.75000000 -0.28624672
v 0.26256313 1.00000000 -0.26256313
v 0.53349365 0.50000000 0.17403811
v 0.50000000 1.00000000 0.23205081
v 0.62500000 0.13397460 0.01554446
v 1.14412381 0.06698730 -0.17185199
v 1.05573547 0.75000000 0.15801782
v 1.17647619 0.00000000 -0.29259272
v 0.75000000 0.00000000 -0.20096189
v 1.50000000 0.00000000 0.00000000
v 1.50000000 0.13397460 0.25000000
v 1.50000000 0.50000000 0.43301270
v 1.04706667 1.00000000 0.19037020
v 1.50000000 1.00000000 0.50000000
vt 0.00000000 1.00000000
vt 0.00000000 0.00000000
vt 1.00000000 0.00000000
vt 1.00000000 1.00000000
vt 0.00000000 1.00000000
vt 0.00000000 0.00000000
vt 1.00000000 0.00000000
vt 1.00000000 1.00000000
vt 0.00000000 1.00000000
vt 0.00000000 0.00000000
vt 1.00000000 0.00000000
vt 1.00000000 1.00000000
vt 0.00000000 1.00000000
vt 0.00000000 0.00000000
vt 1.00000000 0.00000000
vt 1.00000000 1.00000000
vt 0.00000000 1.00000000
vt 0.00000000 0.00000000
vt 1.00000000 0.00000000
vt 1.00000000 1.00000000
vt 0.00000000 1.00000000
vt 0.00000000 0.00000000
vt 1.00000000 0.00000000
vt 1.00000000 1.00000000
vt 0.00000000 1.00000000
vt 0.00000000 0.00000000
vt 1.00000000 0.00000000
vt 1.00000000 1.00000000
vt 0.00000000 1.00000000
vt 0.00000000 0.00000000
vt 1.00000000 0.00000000
vt 1.00000000 1.00000000
vt 0.00000000 1.00000000
vt 0.00000000 0.00000000
vt 1.00000000 0.00000000
vt 1.00000000 1.00000000
vt 0.00000000 1.00000000
vt 0.00000000 0.00000000
vt 1.00000000 0.00000000
vt 1.00000000 1.00000000
vt 0.00000000 1.00000000
vt 0.00000000 0.00000000
vt 1.00000000 0.00000000
vt 1.00000000 1.00000000
vt 1.00000000 0.00000000
vt 1.00000000 1.00000000
vt 0.00000000 1.00000000
vt 0.00000000 0.00000000
vt 1.00000000 0.00000000
vt 1.00000000 1.00000000
vt 0.00000000 1.00000000
vt 0.00000000 0.00000000
vt 1.00000000 0.00000000
vt 1.00000000 1.00000000
vt 0.00000000 1.00000000
vt 0.00000000 0.00000000
vt 0.00000000 1.00000000
vt 0.00000000 0.00000000
vt 1.00000000 0.00000000
vt 1.00000000 1.00000000
vt 0.00000000 1.00000000
vt 0.00000000 0.00000000
vt 1.00000000 0.00000000
vt 1.00000000 1.00000000
vt 0.00000000 1.00000000
vt 0.00000000 0.00000000
vt 1.00000000 0.00000000
vt 1.00000000 1.00000000
vt 0.00000000 1.00000000
vt 0.00000000 0.00000000
vt 1.00000000 0.00000000
vt 1.00000000 1.00000000
vn 0.15832309 0.85668729 -0.49093858
vn 0.18991172 0.86453951 -0.46530096
vn 0.19729981 0.82005493 -0.53719894
vn 0.17975613 0.81055134 -0.55739955
vn 0.57260024 0.81055134 0.12302640
vn 0.56387783 0.82005493 0.09773283
vn 0.49791831 0.86453951 0.06818211
vn 0.50432683 0.85668729 0.10835747
vn 0.38258111 0.85668729 -0.34600374
vn 0.39711885 0.86453951 -0.30800659
vn 0.43946611 0.82005493 -0.36657802
vn 0.43437315 0.81055134 -0.39284411
vn 0.62900268 0.39075600 -0.67206054
vn 0.66055902 0.40115108 -0.63461767
vn 0.69662558 0.34831279 -0.62720890
vn 0.64006920 0.32003460 -0.69849071
vn 0.81070196 0.12474725 -0.57201439
vn 0.81902125 0.12540348 -0.55989121
vn 0.82053480 0.10993082 -0.56092589
vn 0.81646578 0.10938567 -0.56693774
vn 0.99054898 0.10938567 0.08274960
vn 0.99106693 0.10993082 0.07550867
vn 0.98923881 0.12540348 0.07536939
vn 0.98809568 0.12474725 0.09002801
vn 0.41608130 0.12474725 -0.90072997
vn 0.42934760 0.12540348 -0.89439063
vn 0.43014104 0.10993082 -0.89604347
vn 0.42361123 0.10938567 -0.89921538
vn 0.89921538 0.10938567 -0.42361123
vn 0.89604347 0.10993082 -0.43014104
vn 0.89439063 0.12540348 -0.42934760
vn 0.90072997 0.12474725 -0.41608130
vn 0.92494530 0.32003460 -0.20507083
vn 0.89149163 0.34831279 -0.28969100
vn 0.87987454 0.40115108 -0.25475206
vn 0.89652284 0.39075600 -0.20870203
vn -0.26752016 0.39075600 -0.88076257
vn -0.21931551 0.40115108 -0.88936973
vn -0.19486605 0.34831279 -0.91689990
vn -0.28487610 0.32003460 -0.90356154
vn -0.10835747 0.85668729 -0.50432683
vn -0.06818211 0.86453951 -0.49791831
vn -0.09773283 0.82005493 -0.56387783
vn -0.12302640 0.81055134 -0.57260024
vn 0.30800659 0.86453951 -0.39711885
vn 0.34600374 0.85668729 -0.38258111
vn 0.39284411 0.81055134 -0.43437315
vn 0.36657802 0.82005493 -0.43946611
vn 0.63461767 0.40115108 -0.66055902
vn 0.67206054 0.39075600 -0.62900268
vn 0.69849071 0.32003460 -0.64006920
vn 0.62720890 0.34831279 -0.69662558
vn 0.55989121 0.12540348 -0.81902125
vn 0.57201439 0.12474725 -0.81070196
vn 0.56693774 0.10938567 -0.81646578
vn 0.56092589 0.10993082 -0.82053480
vn -0.09002801 0.12474725 -0.98809568
vn -0.07536939 0.12540348 -0.98923881
vn -0.07550867 0.10993082 -0.99106693
vn -0.08274960 0.10938567 -0.99054898
vn 0.90356154 0.32003460 0.28487610
vn 0.91689990 0.34831279 0.19486605
vn 0.88936973 0.40115108 0.21931551
vn 0.88076257 0.39075600 0.26752016
vn 0.55739955 0.81055134 -0.17975613
vn 0.53719894 0.82005493 -0.19729981
vn 0.46530096 0.86453951 -0.18991172
vn 0.49093858 0.85668729 -0.15832309
vn 0.20870203 0.39075600 -0.89652284
vn 0.25475206 0.40115108 -0.87987454
vn 0.28969100 0.34831279 -0.89149163
vn 0.20507083 0.32003460 -0.92494530
s 1
usemtl Rock
f 4/4/4 3/3/3 2/2/2
f 4/4/4 2/2/2 1/1/1
s 2
f 6/8/8 5/7/7 4/5/5
f 5/7/7 3/6/6 4/5/5
s 3
f 8/12/12 7/11/11 5/10/10
f 8/12/12 5/10/10 6/9/9
s 4
f 7/16/16 10/15/15 9/14/14
f 7/16/16 9/14/14 5/13/13
s 5
f 10/20/20 12/19/19 9/17/17
f 12/19/19 11/18/18 9/17/17
s 6
f 9/24/24 11/23/23 14/22/22
f 9/24/24 14/22/22 13/21/21
s 7
f 13/28/28 14/27/27 15/25/25
f 14/27/27 16/26/26 15/25/25
s 8
f 15/32/32 16/31/31 18/30/30
f 15/32/32 18/30/30 17/29/29
s 9
f 2/36/36 15/35/35 19/33/33
f 15/35/35 17/34/34 19/33/33
s 10
f 19/40/40 17/39/39 21/38/38
f 19/40/40 21/38/38 20/37/37
s 11
f 23/44/44 19/43/43 20/42/42
f 23/44/44 20/42/42 22/41/41
s 12
f 25/48/48 24/47/47 20/45/45
f 24/47/47 22/46/46 20/45/45
s 13
f 26/52/52 25/51/51 21/49/49
f 25/51/51 20/50/50 21/49/49
s 14
f 28/56/56 26/55/55 21/54/54
f 28/56/56 21/54/54 27/53/53
s 15
f 17/60/60 18/59/59 21/57/57
f 18/59/59 27/58/58 21/57/57
s 16
f 5/64/64 9/63/63 3/61/61
f 9/63/63 13/62/62 3/61/61
s 17
f 1/68/68 2/67/67 23/65/65
f 2/67/67 19/66/66 23/65/65
s 18
f 3/72/72 13/71/71 15/70/70
f 3/72/72 15/70/70 2/69/69
