mtllib Materials_Modular_Terrain.mtl
o object1
g object1
v -0.21650635 0.40000000 0.00000000
v -0.25000000 0.15000000 0.00000000
v -0.50000000 0.50000000 0.50000000
v -0.43301270 1.00000000 0.50000000
v -0.25000000 0.85000000 1.00000000
v -0.21650635 1.10000000 1.00000000
v -0.50000000 1.00000000 1.50000000
v -0.43301270 1.50000000 1.50000000
v 0.12500000 1.78301270 1.00000000
v -0.25000000 1.86602540 1.50000000
v 0.25000000 1.85000000 1.00000000
v -0.00000000 2.00000000 1.50000000
v 0.25000000 1.90000000 1.00000000
v -0.00000000 2.05000000 1.50000000
v 0.15000000 2.00000000 1.00000000
v -0.10000000 2.15000000 1.50000000
v -0.00000000 2.05000000 1.00000000
v -0.25000000 2.20000000 1.50000000
v -0.50000000 2.20000000 1.50000000
v -0.50000000 2.05000000 1.00000000
v -0.50000000 1.70000000 0.50000000
v -0.25000000 1.70000000 0.50000000
v -0.50000000 1.35000000 0.00000000
v -0.00000000 1.35000000 0.00000000
v 0.15000000 1.30000000 0.00000000
v -0.10000000 1.65000000 0.50000000
v -0.25000000 1.20000000 -0.50000000
v -0.10000000 1.15000000 -0.50000000
v 0.25000000 1.20000000 0.00000000
v -0.00000000 1.05000000 -0.50000000
v 0.25000000 1.15000000 0.00000000
v -0.00000000 1.00000000 -0.50000000
v 0.12500000 1.08301270 0.00000000
v -0.25000000 0.86602540 -0.50000000
v -0.43301270 0.50000000 -0.50000000
v -0.25000000 1.36602540 0.50000000
v -0.00000000 1.50000000 0.50000000
v -0.00000000 1.55000000 0.50000000
v -0.50000000 1.20000000 -0.50000000
v -0.25000000 0.00000000 1.00000000
v -0.50000000 -0.00000000 1.50000000
v -0.50000000 -0.00000000 0.50000000
v -0.50000000 -0.00000000 -0.50000000
v -0.25000000 0.00000000 0.00000000
vt 0.00000000 1.00000000
vt 0.00000000 0.00000000
vt 1.00000000 0.00000000
vt 1.00000000 1.00000000
vt 0.00000000 1.00000000
vt 0.00000000 0.00000000
vt 1.00000000 0.00000000
vt 1.00000000 1.00000000
vt 0.00000000 1.00000000
vt 0.00000000 0.00000000
vt 1.00000000 0.00000000
vt 1.00000000 1.00000000
vt 0.00000000 1.00000000
vt 0.00000000 0.00000000
vt 1.00000000 0.00000000
vt 1.00000000 1.00000000
vt 0.00000000 1.00000000
vt 0.00000000 0.00000000
vt 1.00000000 0.00000000
vt 1.00000000 1.00000000
vt 0.00000000 1.00000000
vt 0.00000000 0.00000000
vt 1.00000000 0.00000000
vt 1.00000000 1.00000000
vt 0.00000000 1.00000000
vt 0.00000000 0.00000000
vt 1.00000000 0.00000000
vt 1.00000000 1.00000000
vt 0.00000000 1.00000000
vt 0.00000000 0.00000000
vt 1.00000000 0.00000000
vt 1.00000000 1.00000000
vt 1.00000000 0.60000000
vt 0.00000000 1.00000000
vt 0.00000000 0.00000000
vt 1.00000000 0.00000000
vt 1.00000000 1.00000000
vt 0.00000000 0.60000000
vt 0.00000000 0.00000000
vt 1.00000000 0.00000000
vt 1.00000000 0.60000000
vt 0.00000000 1.00000000
vt 0.00000000 0.00000000
vt 1.00000000 0.00000000
vt 0.00000000 1.00000000
vt 0.00000000 0.00000000
vt 1.00000000 0.00000000
vt 1.00000000 1.00000000
vt 1.00000000 0.00000000
vt 1.00000000 1.00000000
vt 0.00000000 1.00000000
vt 0.00000000 0.00000000
vt 1.00000000 0.00000000
vt 1.00000000 1.00000000
vt 0.00000000 1.00000000
vt 0.00000000 0.00000000
vt 1.00000000 0.00000000
vt 1.00000000 1.00000000
vt 0.00000000 1.00000000
vt 0.00000000 0.00000000
vt 1.00000000 0.00000000
vt 1.00000000 1.00000000
vt 0.00000000 1.00000000
vt 0.00000000 0.00000000
vt 1.00000000 0.00000000
vt 1.00000000 1.00000000
vt 0.00000000 1.00000000
vt 0.00000000 0.00000000
vt 0.00000000 1.00000000
vt 0.00000000 0.00000000
vt 1.00000000 0.00000000
vt 1.00000000 1.00000000
vt 0.00000000 1.00000000
vt 0.00000000 0.00000000
vt 1.00000000 0.00000000
vt 1.00000000 1.00000000
vt 0.00000000 1.00000000
vt 0.00000000 0.00000000
vt 1.00000000 0.00000000
vt 1.00000000 1.00000000
vt 1.00000000 1.00000000
vt 0.00000000 0.60000000
vt 0.00000000 0.00000000
vt 1.00000000 0.00000000
vt 0.00000000 1.00000000
vt 0.00000000 0.00000000
vt 1.00000000 0.00000000
vt 1.00000000 1.00000000
vt 0.00000000 1.00000000
vt 0.00000000 0.00000000
vt 1.00000000 0.00000000
vt 1.00000000 1.00000000
vt 0.00000000 1.00000000
vt 0.00000000 0.00000000
vt 1.00000000 0.00000000
vt 1.00000000 1.00000000
vt 0.00000000 1.00000000
vt 0.00000000 0.00000000
vt 1.00000000 0.00000000
vt 1.00000000 1.00000000
vt 1.00000000 0.85000000
vt 0.00000000 1.00000000
vt 0.00000000 0.00000000
vt 1.00000000 0.00000000
vt 0.00000000 1.00000000
vt 0.00000000 0.00000000
vt 1.00000000 0.00000000
vt 1.00000000 1.00000000
vt 1.00000000 0.58823529
vt 0.00000000 1.00000000
vt 0.00000000 0.00000000
vt 1.00000000 0.00000000
vt 0.00000000 1.00000000
vt 0.00000000 0.00000000
vt 1.00000000 0.00000000
vt 1.00000000 1.00000000
vt 1.00000000 0.00000000
vt 1.00000000 1.00000000
vt 0.00000000 1.00000000
vt 0.00000000 0.00000000
vt 1.00000000 0.00000000
vt 0.00000000 1.00000000
vt 0.00000000 0.00000000
vt 1.00000000 0.30000000
vt 0.00000000 1.00000000
vt 0.00000000 0.00000000
vt 1.00000000 0.00000000
vn 0.85419353 -0.11444023 0.50720493
vn 0.85419353 -0.11444023 0.50720493
vn 0.85419353 -0.11444023 0.50720493
vn 0.85419353 -0.11444023 0.50720493
vn 0.91942136 -0.12317911 -0.37348531
vn 0.91942136 -0.12317911 -0.37348531
vn 0.91942136 -0.12317911 -0.37348531
vn 0.91942136 -0.12317911 -0.37348531
vn 0.87378510 -0.11706501 0.47201205
vn 0.87378510 -0.11706501 0.47201205
vn 0.87378510 -0.11706501 0.47201205
vn 0.87378510 -0.11706501 0.47201205
vn 0.71723571 -0.35861786 0.59746646
vn 0.71723571 -0.35861786 0.59746646
vn 0.71723571 -0.35861786 0.59746646
vn 0.71723571 -0.35861786 0.59746646
vn 0.42237945 -0.78817078 0.44764096
vn 0.42237945 -0.78817078 0.44764096
vn 0.42237945 -0.78817078 0.44764096
vn 0.42237945 -0.78817078 0.44764096
vn 0.89442719 -0.00000000 0.44721360
vn 0.89442719 -0.00000000 0.44721360
vn 0.89442719 -0.00000000 0.44721360
vn 0.89442719 -0.00000000 0.44721360
vn 0.70014004 0.70014004 0.14002801
vn 0.70014004 0.70014004 0.14002801
vn 0.70014004 0.70014004 0.14002801
vn 0.70014004 0.70014004 0.14002801
vn 0.31372790 0.94118371 -0.12549116
vn 0.31372790 0.94118371 -0.12549116
vn 0.31372790 0.94118371 -0.12549116
vn 0.31372790 0.94118371 -0.12549116
vn 0.00000000 0.95782629 -0.28734789
vn 0.00000000 0.95782629 -0.28734789
vn 0.00000000 0.95782629 -0.28734789
vn 0.00000000 0.95782629 -0.28734789
vn 0.00000000 0.81923192 -0.57346234
vn 0.00000000 0.81923192 -0.57346234
vn 0.00000000 0.81923192 -0.57346234
vn 0.00000000 0.81923192 -0.57346234
vn 0.00000000 0.81923192 -0.57346234
vn 0.00000000 0.81923192 -0.57346234
vn 0.28216632 0.84649897 -0.45146612
vn 0.28216632 0.84649897 -0.45146612
vn 0.28216632 0.84649897 -0.45146612
vn 0.28216632 0.84649897 -0.45146612
vn 0.28915747 0.86747240 -0.40482045
vn 0.28915747 0.86747240 -0.40482045
vn 0.61545745 0.61545745 -0.49236596
vn 0.61545745 0.61545745 -0.49236596
vn 0.61545745 0.61545745 -0.49236596
vn 0.61545745 0.61545745 -0.49236596
vn 0.89442719 -0.00000000 -0.44721360
vn 0.89442719 -0.00000000 -0.44721360
vn 0.89442719 -0.00000000 -0.44721360
vn 0.89442719 -0.00000000 -0.44721360
vn 0.47215912 -0.88106092 0.02823871
vn 0.47215912 -0.88106092 0.02823871
vn 0.47215912 -0.88106092 0.02823871
vn 0.47215912 -0.88106092 0.02823871
vn 0.80737037 -0.40368518 -0.43033866
vn 0.80737037 -0.40368518 -0.43033866
vn 0.80737037 -0.40368518 -0.43033866
vn 0.80737037 -0.40368518 -0.43033866
vn 0.35933875 -0.67053523 0.64904404
vn 0.35933875 -0.67053523 0.64904404
vn 0.35933875 -0.67053523 0.64904404
vn 0.35933875 -0.67053523 0.64904404
vn 0.89442719 -0.00000000 0.44721360
vn 0.89442719 -0.00000000 0.44721360
vn 0.89442719 -0.00000000 0.44721360
vn 0.89442719 -0.00000000 0.44721360
vn 0.70014004 0.70014004 -0.14002801
vn 0.70014004 0.70014004 -0.14002801
vn 0.70014004 0.70014004 -0.14002801
vn 0.70014004 0.70014004 -0.14002801
vn 0.00000000 0.95782629 -0.28734789
vn 0.00000000 0.95782629 -0.28734789
vn 0.00000000 0.95782629 -0.28734789
vn 0.00000000 0.95782629 -0.28734789
vn 0.24426598 0.73279795 -0.63509156
vn 0.24426598 0.73279795 -0.63509156
vn 0.24426598 0.73279795 -0.63509156
vn 0.24426598 0.73279795 -0.63509156
vn 0.53916387 0.53916387 -0.64699664
vn 0.53916387 0.53916387 -0.64699664
vn 0.53916387 0.53916387 -0.64699664
vn 0.53916387 0.53916387 -0.64699664
vn 0.89442719 -0.00000000 -0.44721360
vn 0.89442719 -0.00000000 -0.44721360
vn 0.89442719 -0.00000000 -0.44721360
vn 0.89442719 -0.00000000 -0.44721360
vn 0.44142312 -0.82370675 0.35588317
vn 0.44142312 -0.82370675 0.35588317
vn 0.44142312 -0.82370675 0.35588317
vn 0.44142312 -0.82370675 0.35588317
vn 0.89442719 -0.00000000 0.44721360
vn 0.89442719 -0.00000000 0.44721360
vn 0.89442719 -0.00000000 0.44721360
vn 0.89442719 -0.00000000 0.44721360
vn 0.85721014 -0.42860507 -0.28546186
vn 0.85721014 -0.42860507 -0.28546186
vn 0.85721014 -0.42860507 -0.28546186
vn 0.85721014 -0.42860507 -0.28546186
vn 0.89442719 -0.00000000 -0.44721360
vn 0.89442719 -0.00000000 -0.44721360
vn 0.89442719 -0.00000000 -0.44721360
vn 0.89442719 -0.00000000 -0.44721360
vn 0.65694072 -0.32847036 0.67862811
vn 0.65694072 -0.32847036 0.67862811
vn 0.65694072 -0.32847036 0.67862811
vn 0.65694072 -0.32847036 0.67862811
vn 0.90189982 -0.12083166 -0.41470041
vn 0.90189982 -0.12083166 -0.41470041
vn 0.90189982 -0.12083166 -0.41470041
vn 0.90189982 -0.12083166 -0.41470041
vn 0.89442719 -0.00000000 -0.44721360
vn 0.89442719 -0.00000000 -0.44721360
vn 0.89442719 -0.00000000 -0.44721360
vn 0.89442719 -0.00000000 0.44721360
vn 0.89442719 -0.00000000 0.44721360
vn 0.89442719 -0.00000000 0.44721360
vn 0.89442719 -0.00000000 0.44721360
s 1
usemtl Rock
f 4/4/4 3/3/3 1/1/1
f 3/3/3 2/2/2 1/1/1
s 2
f 6/8/8 5/7/7 4/5/5
f 5/7/7 3/6/6 4/5/5
s 3
f 8/12/12 7/11/11 6/9/9
f 7/11/11 5/10/10 6/9/9
s 4
f 10/16/16 8/15/15 9/13/13
f 8/15/15 6/14/14 9/13/13
s 5
usemtl Grass
f 12/20/20 10/19/19 9/18/18
f 12/20/20 9/18/18 11/17/17
s 6
f 14/24/24 12/23/23 13/21/21
f 12/23/23 11/22/22 13/21/21
s 7
f 16/28/28 14/27/27 15/25/25
f 14/27/27 13/26/26 15/25/25
s 8
f 18/32/32 16/31/31 17/29/29
f 16/31/31 15/30/30 17/29/29
s 9
f 18/36/36 17/35/35 20/34/34
f 18/36/36 20/34/34 19/33/33
s 10
f 17/40/40 22/39/39 20/37/37
f 22/44/39 23/42/41 21/41/38
f 22/44/39 24/43/42 23/42/41
f 22/39/39 21/38/38 20/37/37
s 11
f 22/48/46 26/47/45 24/45/43
f 28/52/48 24/50/43 25/49/44
f 28/52/48 27/51/47 24/50/43
f 26/47/45 25/46/44 24/45/43
s 12
f 30/56/52 28/55/51 25/54/50
f 30/56/52 25/54/50 29/53/49
s 13
f 32/60/56 30/59/55 31/57/53
f 30/59/55 29/58/54 31/57/53
s 14
f 34/64/60 32/63/59 33/61/57
f 32/63/59 31/62/58 33/61/57
s 15
usemtl Rock
f 35/68/64 34/67/63 1/65/61
f 34/67/63 33/66/62 1/65/61
s 16
usemtl Grass
f 37/72/68 36/71/67 33/70/66
f 37/72/68 33/70/66 31/69/65
s 17
f 38/76/72 37/75/71 29/73/69
f 37/75/71 31/74/70 29/73/69
s 18
f 26/80/76 38/79/75 25/77/73
f 38/79/75 29/78/74 25/77/73
s 19
f 24/84/80 27/83/79 23/81/77
f 27/83/79 39/82/78 23/81/77
s 20
f 17/88/84 15/87/83 26/86/82
f 17/88/84 26/86/82 22/85/81
s 21
f 15/92/88 13/91/87 26/89/85
f 13/91/87 38/90/86 26/89/85
s 22
f 13/96/92 11/95/91 38/93/89
f 11/95/91 37/94/90 38/93/89
s 23
f 11/100/96 9/99/95 37/97/93
f 9/99/95 36/98/94 37/97/93
s 24
usemtl Rock
f 5/104/100 7/103/99 41/102/98
f 5/104/100 41/102/98 40/101/97
s 25
f 9/108/104 6/107/103 36/105/101
f 6/107/103 4/106/102 36/105/101
s 26
f 3/112/108 5/111/107 40/110/106
f 3/112/108 40/110/106 42/109/105
s 27
f 36/116/112 4/115/111 33/113/109
f 4/115/111 1/114/110 33/113/109
s 28
f 43/120/116 35/119/115 2/117/113
f 35/119/115 1/118/114 2/117/113
s 29
f 2/123/119 44/122/118 43/121/117
s 30
f 2/127/123 3/126/122 42/125/121
f 2/127/123 42/125/121 44/124/120
