mtllib Materials_Modular_Terrain.mtl
o object1
g object1
v -0.02164571 0.00000000 -0.65484942
v -0.02164571 1.00000000 -0.65484942
v 0.20710678 1.00000000 -0.20710678
v 0.20710678 0.00000000 -0.20710678
v 0.65484942 1.00000000 0.02164571
v 0.65484942 0.00000000 0.02164571
v 0.50000000 1.00000000 0.50000000
v 0.50000000 0.00000000 0.50000000
v -0.50000000 0.00000000 -0.50000000
v -0.50000000 1.00000000 -0.50000000
vt 0.00000000 1.00000000
vt 0.00000000 0.00000000
vt 1.00000000 0.00000000
vt 1.00000000 1.00000000
vt 0.00000000 1.00000000
vt 0.00000000 0.00000000
vt 1.00000000 0.00000000
vt 1.00000000 1.00000000
vt 0.00000000 1.00000000
vt 0.00000000 0.00000000
vt 1.00000000 0.00000000
vt 1.00000000 1.00000000
vt 1.00000000 0.00000000
vt 1.00000000 1.00000000
vt 0.00000000 1.00000000
vt 0.00000000 0.00000000
vn 0.89051023 -0.00000000 -0.45496322
vn 0.89051023 -0.00000000 -0.45496322
vn 0.89051023 -0.00000000 -0.45496322
vn 0.89051023 -0.00000000 -0.45496322
vn 0.45496322 -0.00000000 -0.89051023
vn 0.45496322 -0.00000000 -0.89051023
vn 0.45496322 -0.00000000 -0.89051023
vn 0.45496322 -0.00000000 -0.89051023
vn 0.95139340 -0.00000000 0.30797824
vn 0.95139340 -0.00000000 0.30797824
vn 0.95139340 -0.00000000 0.30797824
vn 0.95139340 -0.00000000 0.30797824
vn -0.30797824 -0.00000000 -0.95139340
vn -0.30797824 -0.00000000 -0.95139340
vn -0.30797824 -0.00000000 -0.95139340
vn -0.30797824 -0.00000000 -0.95139340
s 1
usemtl Rock
f 1/1/1 2/2/2 3/3/3
f 1/1/1 3/3/3 4/4/4
s 2
f 4/5/5 3/6/6 5/7/7
f 4/5/5 5/7/7 6/8/8
s 3
f 6/9/9 5/10/10 7/11/11
f 6/9/9 7/11/11 8/12/12
s 4
f 2/13/13 1/14/14 9/15/15
f 2/13/13 9/15/15 10/16/16
