mtllib Materials_Modular_Terrain.mtl
o object1
g object1
v -0.15000000 0.09736640 -0.34211202
v -0.15000000 0.05000000 -0.50000000
v -0.11431023 -0.10000000 -0.50000000
v -0.10947643 -0.10000000 -0.43228040
v -0.14487765 0.06212678 -0.38781523
v -0.15769231 0.20769231 0.00000000
v -0.15000000 0.19909910 -0.00300300
v -0.15000000 0.10000000 -0.33333333
v -0.15156937 0.10000000 -0.33856458
v -0.25000000 0.15000000 -0.50000000
v -0.25000000 0.30000000 0.00000000
v 0.50000000 0.10000000 -0.41096118
v 0.50000000 0.10000000 -0.10000000
v -0.12836120 0.10000000 -0.03018209
v -0.40000000 0.35000000 0.00000000
v -0.40000000 0.20000000 -0.50000000
v -0.50000000 0.20000000 -0.50000000
v -0.50000000 0.35000000 0.00000000
v -0.50000000 1.05000000 1.00000000
v -0.40000000 1.05000000 1.00000000
v -0.50000000 1.20000000 1.50000000
v -0.40000000 1.20000000 1.50000000
v -0.25000000 1.00000000 1.00000000
v -0.25000000 1.15000000 1.50000000
v -0.15000000 0.90000000 1.00000000
v -0.15000000 1.05000000 1.50000000
v -0.13141825 0.90000000 1.26032319
v -0.10241364 0.70000000 1.00000000
v -0.09059167 0.70000000 1.16562130
v -0.12599288 0.86212678 1.21008646
v -0.13149805 0.90000000 1.25920527
v 0.00000000 0.90000000 1.33333333
v 0.00000000 1.00000000 1.50000000
v 0.50000000 0.90000000 1.33333333
v 0.50000000 1.00000000 1.50000000
v 0.50000000 0.90000000 1.18903882
v 0.50000000 0.86212678 1.14053170
v 0.50000000 0.70000000 1.10000000
v -0.12596570 0.70000000 0.85859056
v 0.50000000 0.70000000 0.78903882
v -0.12505037 0.66212678 0.80998174
v 0.50000000 0.66212678 0.74053170
v -0.09380413 0.50000000 0.76597824
v 0.50000000 0.50000000 0.70000000
v -0.14465440 0.50000000 0.46066709
v 0.50000000 0.50000000 0.38903882
v -0.14373906 0.46212678 0.41205826
v 0.50000000 0.46212678 0.34053170
v -0.11249283 0.30000000 0.36805476
v 0.50000000 0.30000000 0.30000000
v -0.20299541 0.30000000 0.06714942
v 0.50000000 0.30000000 -0.01096118
v -0.15000000 0.30000000 0.14285714
v -0.19935993 0.26212678 0.01823835
v 0.50000000 0.26212678 -0.05946830
v 0.50000000 0.06212678 -0.45946830
v 0.50000000 -0.10000000 -0.50000000
vt 1.00000000 1.00000000
vt 0.00000000 1.00000000
vt 0.00000000 0.11928354
vt 0.42890917 0.00000000
vt 0.71053392 0.87359576
vt 1.00000000 0.92307692
vt 0.99399399 1.00000000
vt 0.33333333 1.00000000
vt 0.32287084 0.98430625
vt 0.31577597 1.00000000
vt 0.00000000 1.00000000
vt 0.00000000 0.00000000
vt 1.00000000 0.00000000
vt 1.00000000 1.00000000
vt 0.00000000 1.00000000
vt 0.00000000 0.00000000
vt 0.96438112 0.00000000
vt 0.99759139 0.98261640
vt 1.00000000 0.00000000
vt 1.00000000 1.00000000
vt 0.00000000 1.00000000
vt 0.00000000 0.00000000
vt 0.00000000 0.00000000
vt 1.00000000 0.00000000
vt 1.00000000 1.00000000
vt 0.00000000 1.00000000
vt 0.00000000 1.00000000
vt 0.00000000 0.00000000
vt 1.00000000 0.00000000
vt 1.00000000 1.00000000
vt 0.00000000 1.00000000
vt 0.00000000 0.00000000
vt 1.00000000 0.00000000
vt 1.00000000 1.00000000
vt 0.00000000 1.00000000
vt 0.00000000 0.00000000
vt 1.00000000 0.00000000
vt 1.00000000 1.00000000
vt 0.00000000 1.00000000
vt 0.00000000 0.00000000
vt 1.00000000 0.00000000
vt 1.00000000 1.00000000
vt 0.52064639 0.68721980
vt 1.00000000 1.00000000
vt 0.00000000 1.00000000
vt 0.00000000 0.19899518
vt 0.33124259 0.00000000
vt 0.42017292 0.59589645
vt 0.51841054 0.68856300
vt 1.00000000 1.00000000
vt 0.00000000 0.87612166
vt 0.30461912 0.00000000
vt 1.00000000 0.00000000
vt 1.00000000 1.00000000
vt 0.00000000 1.00000000
vt 0.00000000 0.00000000
vt 1.00000000 0.00000000
vt 1.00000000 1.00000000
vt 0.00000000 1.00000000
vt 0.00000000 0.00000000
vt 0.79176809 0.38501503
vt 0.99987364 0.99219103
vt 1.00000000 0.00000000
vt 0.99128237 1.00000000
vt 0.00000000 1.00000000
vt 0.00000000 0.00000000
vt 1.00000000 0.00000000
vt 0.94344790 1.00000000
vt 0.00000000 1.00000000
vt 0.00000000 0.00000000
vt 0.96237484 0.53683501
vt 1.00000000 1.00000000
vt 0.00000000 1.00000000
vt 0.00000000 0.00000000
vt 0.94348886 0.00000000
vt 1.00000000 0.00000000
vt 0.99853773 1.00000000
vt 0.00000000 1.00000000
vt 0.00000000 0.00000000
vt 1.00000000 0.00000000
vt 0.95001005 1.00000000
vt 0.00000000 1.00000000
vt 0.00000000 0.00000000
vt 0.92112012 0.00000000
vt 1.00000000 1.00000000
vt 0.00000000 1.00000000
vt 0.00000000 0.00000000
vt 1.00000000 0.00000000
vt 0.99858012 1.00000000
vt 0.00000000 1.00000000
vt 0.00000000 0.00000000
vt 1.00000000 0.00000000
vt 0.95146133 1.00000000
vt 0.00000000 1.00000000
vt 0.00000000 0.00000000
vt 1.00000000 1.00000000
vt 0.00000000 1.00000000
vt 0.00000000 0.00000000
vt 0.87126149 0.00000000
vt 0.92461486 0.73760036
vt 1.00000000 0.00000000
vt 0.99482860 1.00000000
vt 0.00000000 1.00000000
vt 0.00000000 0.00000000
vt 0.77831203 0.55602372
vt 0.83502233 0.57231198
vt 1.00000000 0.15320533
vt 1.00000000 1.00000000
vt 0.00000000 1.00000000
vt 0.26273055 0.33256351
vt 0.31406797 0.88858723
vt 0.37077827 0.90487549
vt 0.72697461 0.00000000
vt 0.00000000 1.00000000
vt 0.00000000 0.00000000
vt 1.00000000 0.00000000
vt 1.00000000 1.00000000
vt 1.00000000 0.00000000
vt 1.00000000 1.00000000
vt 0.14285714 1.00000000
vt 0.06714942 0.47004595
vt 0.01823835 0.50640067
vt 0.00000000 0.92307692
vt 0.00000000 0.00000000
vt 0.94042034 0.33575251
vt 0.92942127 0.38875553
vt 0.89848042 1.00000000
vt 0.00000000 1.00000000
vt 0.00000000 0.00000000
vt 1.00000000 0.00000000
vt 0.91772150 0.00000000
vt 1.00000000 1.00000000
vt 0.00000000 1.00000000
vt 0.99759139 0.06953739
vt 0.98972983 1.00000000
vt 0.00000000 1.00000000
vt 0.00000000 0.00000000
vt 1.00000000 0.00000000
vt 1.00000000 0.00000000
vt 0.94510398 1.00000000
vt 0.00000000 1.00000000
vt 0.00000000 0.00000000
vt 0.00000000 0.00786865
vt 1.00000000 0.00000000
vt 1.00000000 1.00000000
vn 0.97050493 0.23091399 -0.06927420
vn 0.97050493 0.23091399 -0.06927420
vn 0.97050493 0.23091399 -0.06927420
vn 0.97050493 0.23091399 -0.06927420
vn 0.97050493 0.23091399 -0.06927420
vn 0.69171446 0.69171446 -0.20751434
vn 0.69171446 0.69171446 -0.20751434
vn 0.69171446 0.69171446 -0.20751434
vn 0.69171446 0.69171446 -0.20751434
vn 0.69171446 0.69171446 -0.20751434
vn 0.69171446 0.69171446 -0.20751434
vn 0.69171446 0.69171446 -0.20751434
vn 0.69171446 0.69171446 -0.20751434
vn 0.00000000 1.00000000 0.00000000
vn 0.00000000 1.00000000 0.00000000
vn 0.00000000 1.00000000 0.00000000
vn 0.00000000 1.00000000 -0.00000000
vn 0.00000000 1.00000000 0.00000000
vn 0.30414953 0.91244860 -0.27373458
vn 0.30414953 0.91244860 -0.27373458
vn 0.30414953 0.91244860 -0.27373458
vn 0.30414953 0.91244860 -0.27373458
vn 0.00000000 0.95782629 -0.28734789
vn 0.00000000 0.95782629 -0.28734789
vn 0.00000000 0.95782629 -0.28734789
vn 0.00000000 0.95782629 -0.28734789
vn 0.00000000 0.81923192 -0.57346234
vn 0.00000000 0.81923192 -0.57346234
vn 0.00000000 0.81923192 -0.57346234
vn 0.00000000 0.81923192 -0.57346234
vn 0.00000000 0.95782629 -0.28734789
vn 0.00000000 0.95782629 -0.28734789
vn 0.00000000 0.95782629 -0.28734789
vn 0.00000000 0.95782629 -0.28734789
vn 0.30414953 0.91244860 -0.27373458
vn 0.30414953 0.91244860 -0.27373458
vn 0.30414953 0.91244860 -0.27373458
vn 0.30414953 0.91244860 -0.27373458
vn 0.69171446 0.69171446 -0.20751434
vn 0.69171446 0.69171446 -0.20751434
vn 0.69171446 0.69171446 -0.20751434
vn 0.69171446 0.69171446 -0.20751434
vn 0.97050493 0.23091399 -0.06927420
vn 0.97050493 0.23091399 -0.06927420
vn 0.97050493 0.23091399 -0.06927420
vn 0.97050493 0.23091399 -0.06927420
vn 0.97050493 0.23091399 -0.06927420
vn 0.97050493 0.23091399 -0.06927420
vn 0.97050493 0.23091399 -0.06927420
vn 0.27482485 0.82447456 -0.49468474
vn 0.27482485 0.82447456 -0.49468474
vn 0.27482485 0.82447456 -0.49468474
vn 0.27482485 0.82447456 -0.49468474
vn 0.00000000 0.85749293 -0.51449576
vn 0.00000000 0.85749293 -0.51449576
vn 0.00000000 0.85749293 -0.51449576
vn 0.00000000 0.85749293 -0.51449576
vn 0.00000000 1.00000000 0.00000000
vn 0.00000000 1.00000000 0.00000000
vn -0.00000000 1.00000000 -0.00000000
vn -0.00000000 1.00000000 -0.00000000
vn 0.00000000 1.00000000 0.00000000
vn -0.06821983 0.78636917 -0.61397849
vn -0.06821983 0.78636917 -0.61397849
vn -0.06821983 0.78636917 -0.61397849
vn -0.06821983 0.78636917 -0.61397849
vn -0.10717276 0.24113872 -0.96455488
vn -0.10717276 0.24113872 -0.96455488
vn -0.10717276 0.24113872 -0.96455488
vn -0.10717276 0.24113872 -0.96455488
vn -0.00000000 1.00000000 -0.00000000
vn 0.00000000 1.00000000 0.00000000
vn 0.00000000 1.00000000 0.00000000
vn -0.00000000 1.00000000 -0.00000000
vn -0.00000000 1.00000000 -0.00000000
vn -0.06821983 0.78636917 -0.61397849
vn -0.06821983 0.78636917 -0.61397849
vn -0.06821983 0.78636917 -0.61397849
vn -0.06821983 0.78636917 -0.61397849
vn -0.10717276 0.24113872 -0.96455488
vn -0.10717276 0.24113872 -0.96455488
vn -0.10717276 0.24113872 -0.96455488
vn -0.10717276 0.24113872 -0.96455488
vn 0.00000000 1.00000000 0.00000000
vn 0.00000000 1.00000000 0.00000000
vn 0.00000000 1.00000000 0.00000000
vn 0.00000000 1.00000000 0.00000000
vn -0.06821983 0.78636917 -0.61397849
vn -0.06821983 0.78636917 -0.61397849
vn -0.06821983 0.78636917 -0.61397849
vn -0.06821983 0.78636917 -0.61397849
vn -0.10717276 0.24113872 -0.96455488
vn -0.10717276 0.24113872 -0.96455488
vn -0.10717276 0.24113872 -0.96455488
vn -0.10717276 0.24113872 -0.96455488
vn 0.00000000 1.00000000 0.00000000
vn 0.00000000 1.00000000 0.00000000
vn -0.00000000 1.00000000 -0.00000000
vn -0.00000000 1.00000000 0.00000000
vn 0.00000000 1.00000000 0.00000000
vn -0.06821983 0.78636917 -0.61397849
vn -0.06821983 0.78636917 -0.61397849
vn -0.06821983 0.78636917 -0.61397849
vn -0.06821983 0.78636917 -0.61397849
vn 0.96031789 0.22849017 -0.15994312
vn 0.96031789 0.22849017 -0.15994312
vn 0.96031789 0.22849017 -0.15994312
vn 0.96031789 0.22849017 -0.15994312
vn 0.96031789 0.22849017 -0.15994312
vn 0.96031789 0.22849017 -0.15994312
vn 0.96031789 0.22849017 -0.15994312
vn 0.96031789 0.22849017 -0.15994312
vn 0.96031789 0.22849017 -0.15994312
vn 0.26343168 0.79029505 -0.55320654
vn 0.26343168 0.79029505 -0.55320654
vn 0.26343168 0.79029505 -0.55320654
vn 0.26343168 0.79029505 -0.55320654
vn 0.63372425 0.63372425 -0.44360698
vn 0.63372425 0.63372425 -0.44360698
vn 0.63372425 0.63372425 -0.44360698
vn 0.63372425 0.63372425 -0.44360698
vn 0.63372425 0.63372425 -0.44360698
vn 0.63372425 0.63372425 -0.44360698
vn 0.63372425 0.63372425 -0.44360698
vn -0.10717276 0.24113872 -0.96455488
vn -0.10717276 0.24113872 -0.96455488
vn -0.10717276 0.24113872 -0.96455488
vn -0.10717276 0.24113872 -0.96455488
vn -0.10717276 0.24113872 -0.96455488
vn -0.10717276 0.24113872 -0.96455488
vn 0.97050493 0.23091399 -0.06927420
vn 0.97050493 0.23091399 -0.06927420
vn 0.97050493 0.23091399 -0.06927420
vn -0.06821983 0.78636917 -0.61397849
vn -0.06821983 0.78636917 -0.61397849
vn -0.06821983 0.78636917 -0.61397849
vn -0.06821983 0.78636917 -0.61397849
vn -0.06821983 0.78636917 -0.61397849
vn -0.10717276 0.24113872 -0.96455488
vn -0.10717276 0.24113872 -0.96455488
vn -0.10717276 0.24113872 -0.96455488
vn -0.10717276 0.24113872 -0.96455488
vn 0.00000000 1.00000000 0.00000000
vn 0.00000000 1.00000000 0.00000000
vn 0.00000000 1.00000000 0.00000000
s 1
usemtl Grass
f 2/2/2 1/1/1 5/5/5
f 5/5/5 4/4/4 2/2/2
f 4/4/4 3/3/3 2/2/2
s 2
f 1/10/10 2/11/11 10/12/12
f 9/9/9 10/12/12 6/6/6
f 6/6/6 7/7/7 9/9/9
f 7/7/7 8/8/8 9/9/9
f 10/12/12 11/13/13 6/6/6
f 9/9/9 1/10/10 10/12/12
s 3
usemtl Rock
f 8/18/18 14/17/17 13/16/16
f 8/18/18 12/15/15 9/14/14
f 8/18/18 13/16/16 12/15/15
s 4
usemtl Grass
f 15/19/19 11/20/20 16/22/22
f 11/20/20 10/21/21 16/22/22
s 5
f 17/23/23 18/24/24 15/25/25
f 17/23/23 15/25/25 16/26/26
s 6
f 15/27/27 18/28/28 20/30/30
f 18/28/28 19/29/29 20/30/30
s 7
f 20/31/31 19/32/32 22/34/34
f 19/32/32 21/33/33 22/34/34
s 8
f 23/35/35 20/36/36 24/38/38
f 20/36/36 22/37/37 24/38/38
s 9
f 25/39/39 23/40/40 26/42/42
f 23/40/40 24/41/41 26/42/42
s 10
f 30/48/48 29/47/47 28/46/46
f 31/49/49 30/48/48 25/45/45
f 31/49/49 26/44/44 27/43/43
f 31/49/49 25/45/45 26/44/44
f 30/48/48 28/46/46 25/45/45
s 11
usemtl Dirt
f 26/50/50 33/53/53 32/52/52
f 32/52/52 27/51/51 26/50/50
s 12
f 33/57/57 35/56/56 34/55/55
f 33/57/57 34/55/55 32/54/54
s 13
usemtl Rock
f 32/61/61 34/60/60 36/59/59
f 32/61/61 36/59/59 31/58/58
f 31/58/58 27/62/62 32/61/61
s 14
f 36/66/66 37/65/65 30/64/64
f 36/66/66 30/64/64 31/63/63
s 15
f 37/70/70 38/69/69 29/68/68
f 37/70/70 29/68/68 30/67/67
s 16
f 28/71/71 29/75/75 38/74/74
f 38/74/74 40/73/73 28/71/71
f 40/73/73 39/72/72 28/71/71
s 17
f 40/79/79 42/78/78 41/77/77
f 40/79/79 41/77/77 39/76/76
s 18
f 42/83/83 44/82/82 43/81/81
f 42/83/83 43/81/81 41/80/80
s 19
f 44/87/87 46/86/86 45/85/85
f 44/87/87 45/85/85 43/84/84
s 20
f 46/91/91 48/90/90 47/89/89
f 46/91/91 47/89/89 45/88/88
s 21
f 48/95/95 50/94/94 49/93/93
f 48/95/95 49/93/93 47/92/92
s 22
f 53/100/100 49/99/99 50/98/98
f 53/100/100 52/97/97 51/96/96
f 53/100/100 50/98/98 52/97/97
s 23
f 52/104/104 55/103/103 54/102/102
f 52/104/104 54/102/102 51/101/101
s 24
usemtl Grass
f 25/108/108 28/107/107 39/106/106
f 45/112/112 53/109/109 25/108/108
f 47/111/111 49/110/110 53/109/109
f 45/112/112 47/111/111 53/109/109
f 41/105/105 43/113/113 45/112/112
f 25/108/108 41/105/105 45/112/112
f 25/108/108 39/106/106 41/105/105
s 25
f 11/114/114 15/115/115 23/117/117
f 15/115/115 20/116/116 23/117/117
s 26
f 54/122/122 6/123/123 11/124/124
f 23/118/118 25/119/119 11/124/124
f 25/119/119 53/120/120 51/121/121
f 25/119/119 51/121/121 11/124/124
f 51/121/121 54/122/122 11/124/124
s 27
usemtl Rock
f 55/129/129 13/128/128 14/127/127
f 54/130/130 55/129/129 7/126/126
f 7/126/126 6/125/125 54/130/130
f 55/129/129 14/127/127 7/126/126
s 28
usemtl Grass
f 8/133/133 7/132/132 14/131/131
s 29
usemtl Rock
f 1/134/134 9/138/138 12/137/137
f 12/137/137 56/136/136 5/135/135
f 12/137/137 5/135/135 1/134/134
s 30
f 56/142/142 57/141/141 4/140/140
f 56/142/142 4/140/140 5/139/139
s 31
f 57/145/145 3/144/144 4/143/143
