mtllib Materials_Modular_Terrain.mtl
o object1
g object1
v -0.50000000 1.15000000 0.10000000
v -0.50000000 1.05000000 -0.00000000
v -0.00000000 1.05000000 0.50000000
v -0.10000000 1.15000000 0.50000000
v -0.50000000 1.20000000 0.25000000
v -0.25000000 1.20000000 0.50000000
v -0.50000000 1.20000000 0.50000000
v -0.50000000 1.00000000 0.00000000
v -0.00000000 1.00000000 0.50000000
v -0.50000000 0.86602540 0.25000000
v -0.25000000 0.86602540 0.50000000
v -0.50000000 0.50000000 0.43301270
v -0.43301270 0.50000000 0.50000000
v -0.50000000 0.00000000 0.50000000
vt 0.00000000 1.00000000
vt 0.00000000 0.00000000
vt 1.00000000 0.00000000
vt 1.00000000 1.00000000
vt 0.00000000 1.00000000
vt 0.00000000 0.00000000
vt 1.00000000 0.00000000
vt 1.00000000 1.00000000
vt 0.00000000 1.00000000
vt 0.00000000 0.00000000
vt 1.00000000 0.00000000
vt 0.00000000 1.00000000
vt 0.00000000 0.00000000
vt 1.00000000 0.00000000
vt 1.00000000 1.00000000
vt 0.00000000 1.00000000
vt 0.00000000 0.00000000
vt 1.00000000 0.00000000
vt 1.00000000 1.00000000
vt 0.00000000 1.00000000
vt 0.00000000 0.00000000
vt 1.00000000 0.00000000
vt 1.00000000 1.00000000
vt 0.00000000 1.00000000
vt 1.00000000 0.00000000
vt 1.00000000 1.00000000
vn 0.57735027 0.57735027 -0.57735027
vn 0.57735027 0.57735027 -0.57735027
vn 0.57735027 0.57735027 -0.57735027
vn 0.57735027 0.57735027 -0.57735027
vn 0.30151134 0.90453403 -0.30151134
vn 0.30151134 0.90453403 -0.30151134
vn 0.30151134 0.90453403 -0.30151134
vn 0.30151134 0.90453403 -0.30151134
vn -0.00000000 1.00000000 0.00000000
vn -0.00000000 1.00000000 0.00000000
vn -0.00000000 1.00000000 0.00000000
vn 0.70710678 -0.00000000 -0.70710678
vn 0.70710678 -0.00000000 -0.70710678
vn 0.70710678 -0.00000000 -0.70710678
vn 0.70710678 -0.00000000 -0.70710678
vn 0.42709892 -0.79697743 -0.42709892
vn 0.42709892 -0.79697743 -0.42709892
vn 0.42709892 -0.79697743 -0.42709892
vn 0.42709892 -0.79697743 -0.42709892
vn 0.66666667 -0.33333333 -0.66666667
vn 0.66666667 -0.33333333 -0.66666667
vn 0.66666667 -0.33333333 -0.66666667
vn 0.66666667 -0.33333333 -0.66666667
vn 0.70395498 -0.09431208 -0.70395498
vn 0.70395498 -0.09431208 -0.70395498
vn 0.70395498 -0.09431208 -0.70395498
s 1
usemtl Grass
f 4/4/4 3/3/3 2/2/2
f 4/4/4 2/2/2 1/1/1
s 2
f 6/8/8 4/7/7 1/6/6
f 6/8/8 1/6/6 5/5/5
s 3
f 5/11/11 7/10/10 6/9/9
s 4
f 3/15/15 9/14/14 8/13/13
f 3/15/15 8/13/13 2/12/12
s 5
f 9/19/19 11/18/18 8/16/16
f 11/18/18 10/17/17 8/16/16
s 6
usemtl Rock
f 11/23/23 13/22/22 10/20/20
f 13/22/22 12/21/21 10/20/20
s 7
f 13/26/26 14/25/25 12/24/24
