mtllib Materials_Modular_Terrain.mtl
o object1
g object1
v 0.50000000 1.00000000 1.50000000
v 0.23205081 1.00000000 0.50000000
v 0.23205081 0.50000000 0.50000000
v 0.50000000 0.50000000 1.50000000
v 0.55000000 0.35000000 1.50000000
v 0.27535208 0.35000000 0.47500000
v -0.47500000 0.35000000 -0.27535208
v -0.50000000 0.50000000 -0.23205081
v -1.50000000 0.35000000 -0.55000000
v -1.50000000 0.50000000 -0.50000000
v -1.50000000 0.17500000 -0.67500000
v -0.41250000 0.17500000 -0.38360525
v -1.50000000 0.05000000 -0.85000000
v -0.32500000 0.05000000 -0.53515970
v -1.50000000 0.00000000 -1.00000000
v -0.25000000 0.00000000 -0.66506351
v 0.53515970 0.05000000 0.32500000
v 0.66506351 0.00000000 0.25000000
v 0.85000000 0.05000000 1.50000000
v 1.00000000 0.00000000 1.50000000
v 0.67500000 0.17500000 1.50000000
v 0.38360525 0.17500000 0.41250000
v -0.50000000 1.00000000 -0.23205081
v -1.50000000 1.00000000 -0.50000000
vt 1.00000000 0.00000000
vt 1.00000000 1.00000000
vt 0.00000000 1.00000000
vt 0.00000000 0.00000000
vt 0.00000000 1.00000000
vt 0.00000000 0.00000000
vt 1.00000000 0.00000000
vt 1.00000000 1.00000000
vt 1.00000000 0.00000000
vt 1.00000000 1.00000000
vt 0.00000000 1.00000000
vt 0.00000000 0.00000000
vt 1.00000000 0.00000000
vt 1.00000000 1.00000000
vt 0.00000000 1.00000000
vt 0.00000000 0.00000000
vt 1.00000000 0.00000000
vt 1.00000000 1.00000000
vt 0.00000000 1.00000000
vt 0.00000000 0.00000000
vt 1.00000000 0.00000000
vt 1.00000000 1.00000000
vt 0.00000000 1.00000000
vt 0.00000000 0.00000000
vt 1.00000000 0.00000000
vt 1.00000000 1.00000000
vt 0.00000000 1.00000000
vt 0.00000000 0.00000000
vt 1.00000000 0.00000000
vt 1.00000000 1.00000000
vt 0.00000000 1.00000000
vt 0.00000000 0.00000000
vt 0.00000000 1.00000000
vt 0.00000000 0.00000000
vt 1.00000000 0.00000000
vt 1.00000000 1.00000000
vt 0.00000000 1.00000000
vt 0.00000000 0.00000000
vt 1.00000000 0.00000000
vt 1.00000000 1.00000000
vt 1.00000000 0.00000000
vt 1.00000000 1.00000000
vt 0.00000000 1.00000000
vt 0.00000000 0.00000000
vt 1.00000000 0.00000000
vt 1.00000000 1.00000000
vt 0.00000000 1.00000000
vt 0.00000000 0.00000000
vt 1.00000000 0.00000000
vt 1.00000000 1.00000000
vt 0.00000000 1.00000000
vt 0.00000000 0.00000000
vt 0.00000000 1.00000000
vt 0.00000000 0.00000000
vt 1.00000000 0.00000000
vt 1.00000000 1.00000000
vt 1.00000000 0.00000000
vt 1.00000000 1.00000000
vt 0.00000000 1.00000000
vt 0.00000000 0.00000000
vn 0.96592583 0.00000000 -0.25881905
vn 0.96592583 0.00000000 -0.25881905
vn 0.96592583 0.00000000 -0.25881905
vn 0.96592583 0.00000000 -0.25881905
vn 0.91944242 0.30648081 -0.24636385
vn 0.91944242 0.30648081 -0.24636385
vn 0.91944242 0.30648081 -0.24636385
vn 0.91944242 0.30648081 -0.24636385
vn 0.67307857 0.30648081 -0.67307857
vn 0.67307857 0.30648081 -0.67307857
vn 0.67307857 0.30648081 -0.67307857
vn 0.67307857 0.30648081 -0.67307857
vn 0.24636385 0.30648081 -0.91944242
vn 0.24636385 0.30648081 -0.91944242
vn 0.24636385 0.30648081 -0.91944242
vn 0.24636385 0.30648081 -0.91944242
vn 0.21303409 0.56789574 -0.79505403
vn 0.21303409 0.56789574 -0.79505403
vn 0.21303409 0.56789574 -0.79505403
vn 0.21303409 0.56789574 -0.79505403
vn 0.15388717 0.80404063 -0.57431473
vn 0.15388717 0.80404063 -0.57431473
vn 0.15388717 0.80404063 -0.57431473
vn 0.15388717 0.80404063 -0.57431473
vn 0.08443043 0.94529591 -0.31509864
vn 0.08443043 0.94529591 -0.31509864
vn 0.08443043 0.94529591 -0.31509864
vn 0.08443043 0.94529591 -0.31509864
vn 0.23066821 0.94529591 -0.23066821
vn 0.23066821 0.94529591 -0.23066821
vn 0.23066821 0.94529591 -0.23066821
vn 0.23066821 0.94529591 -0.23066821
vn 0.31509864 0.94529591 -0.08443043
vn 0.31509864 0.94529591 -0.08443043
vn 0.31509864 0.94529591 -0.08443043
vn 0.31509864 0.94529591 -0.08443043
vn 0.57431473 0.80404063 -0.15388717
vn 0.57431473 0.80404063 -0.15388717
vn 0.57431473 0.80404063 -0.15388717
vn 0.57431473 0.80404063 -0.15388717
vn 0.42042756 0.80404063 -0.42042756
vn 0.42042756 0.80404063 -0.42042756
vn 0.42042756 0.80404063 -0.42042756
vn 0.42042756 0.80404063 -0.42042756
vn 0.25881905 0.00000000 -0.96592583
vn 0.25881905 0.00000000 -0.96592583
vn 0.25881905 0.00000000 -0.96592583
vn 0.25881905 0.00000000 -0.96592583
vn 0.58201995 0.56789574 -0.58201995
vn 0.58201995 0.56789574 -0.58201995
vn 0.58201995 0.56789574 -0.58201995
vn 0.58201995 0.56789574 -0.58201995
vn 0.79505403 0.56789574 -0.21303409
vn 0.79505403 0.56789574 -0.21303409
vn 0.79505403 0.56789574 -0.21303409
vn 0.79505403 0.56789574 -0.21303409
vn 0.70710678 0.00000000 -0.70710678
vn 0.70710678 0.00000000 -0.70710678
vn 0.70710678 0.00000000 -0.70710678
vn 0.70710678 0.00000000 -0.70710678
s 1
usemtl Dirt
f 4/4/4 3/3/3 1/1/1
f 3/3/3 2/2/2 1/1/1
s 2
f 4/5/5 5/6/6 3/8/8
f 5/6/6 6/7/7 3/8/8
s 3
f 7/9/9 8/10/10 6/12/12
f 8/10/10 3/11/11 6/12/12
s 4
f 9/13/13 10/14/14 7/16/16
f 10/14/14 8/15/15 7/16/16
s 5
f 11/17/17 9/18/18 12/20/20
f 9/18/18 7/19/19 12/20/20
s 6
f 13/21/21 11/22/22 14/24/24
f 11/22/22 12/23/23 14/24/24
s 7
f 15/25/25 13/26/26 16/28/28
f 13/26/26 14/27/27 16/28/28
s 8
f 16/29/29 14/30/30 18/32/32
f 14/30/30 17/31/31 18/32/32
s 9
f 19/33/33 20/34/34 18/35/35
f 19/33/33 18/35/35 17/36/36
s 10
f 21/37/37 19/38/38 17/39/39
f 21/37/37 17/39/39 22/40/40
s 11
f 14/41/41 12/42/42 17/44/44
f 12/42/42 22/43/43 17/44/44
s 12
f 8/48/48 10/47/47 23/45/45
f 10/47/47 24/46/46 23/45/45
s 13
f 12/49/49 7/50/50 22/52/52
f 7/50/50 6/51/51 22/52/52
s 14
f 5/53/53 21/54/54 6/56/56
f 21/54/54 22/55/55 6/56/56
s 15
f 3/60/60 8/59/59 2/57/57
f 8/59/59 23/58/58 2/57/57
