mtllib Materials_Modular_Terrain.mtl
o object1
g object1
v 0.75000000 1.15000000 0.50000000
v 0.58253175 1.15000000 -0.12500000
v 0.66913430 1.05000000 -0.17500000
v 0.85000000 1.05000000 0.50000000
v 0.60000000 1.20000000 0.50000000
v 0.45262794 1.20000000 -0.05000000
v 0.05000000 1.20000000 -0.45262794
v -0.50000000 1.20000000 -0.60000000
v -0.50000000 1.20000000 0.50000000
v -0.50000000 1.15000000 -0.75000000
v 0.12500000 1.15000000 -0.58253175
v -0.50000000 1.05000000 -0.85000000
v 0.17500000 1.05000000 -0.66913430
v -0.50000000 0.89857613 -0.89091031
v 0.19545515 0.89857613 -0.70456366
v -0.50000000 0.75221954 -0.85866225
v 0.17933112 0.75221954 -0.67663602
v -0.50000000 0.64803350 -0.76687930
v 0.13343965 0.64803350 -0.59714966
v -0.50000000 0.60000000 -0.65000000
v 0.07500000 0.60000000 -0.49592921
v -0.50000000 0.53372233 -0.56623513
v 0.03311757 0.53372233 -0.42338671
v -0.50000000 0.45053225 -0.52432257
v 0.01216129 0.45053225 -0.38708937
v -0.50000000 0.30000000 -0.50000000
v 0.00000000 0.30000000 -0.36602540
v 0.00000000 -0.00000000 -0.36602540
v -0.50000000 -0.00000000 -0.50000000
v 0.36602540 -0.00000000 -0.00000000
v 0.36602540 0.30000000 -0.00000000
v 0.50000000 -0.00000000 0.50000000
v 0.50000000 0.30000000 0.50000000
v 0.52432257 0.45053225 0.50000000
v 0.38708937 0.45053225 -0.01216129
v 0.56623513 0.53372233 0.50000000
v 0.42338671 0.53372233 -0.03311757
v 0.65000000 0.60000000 0.50000000
v 0.49592921 0.60000000 -0.07500000
v 0.76687930 0.64803350 0.50000000
v 0.59714966 0.64803350 -0.13343965
v 0.85866225 0.75221954 0.50000000
v 0.67663602 0.75221954 -0.17933112
v 0.89091031 0.89857613 0.50000000
v 0.70456366 0.89857613 -0.19545515
vt 0.00000000 0.00000000
vt 1.00000000 0.00000000
vt 1.00000000 1.00000000
vt 0.00000000 1.00000000
vt 0.00000000 0.00000000
vt 1.00000000 0.00000000
vt 1.00000000 1.00000000
vt 0.00000000 1.00000000
vt 0.50000000 0.13397460
vt 0.86602540 0.50000000
vt 1.00000000 1.00000000
vt 0.00000000 1.00000000
vt 0.00000000 0.00000000
vt 1.00000000 1.00000000
vt 0.00000000 1.00000000
vt 0.00000000 0.00000000
vt 1.00000000 0.00000000
vt 1.00000000 1.00000000
vt 0.00000000 1.00000000
vt 0.00000000 0.00000000
vt 1.00000000 0.00000000
vt 1.00000000 1.00000000
vt 0.00000000 1.00000000
vt 0.00000000 0.00000000
vt 1.00000000 0.00000000
vt 1.00000000 1.00000000
vt 0.00000000 1.00000000
vt 0.00000000 0.00000000
vt 1.00000000 0.00000000
vt 1.00000000 1.00000000
vt 0.00000000 1.00000000
vt 0.00000000 0.00000000
vt 1.00000000 0.00000000
vt 1.00000000 1.00000000
vt 0.00000000 1.00000000
vt 0.00000000 0.00000000
vt 1.00000000 0.00000000
vt 1.00000000 1.00000000
vt 0.00000000 1.00000000
vt 0.00000000 0.00000000
vt 1.00000000 0.00000000
vt 1.00000000 1.00000000
vt 0.00000000 1.00000000
vt 0.00000000 0.00000000
vt 1.00000000 0.00000000
vt 1.00000000 1.00000000
vt 0.00000000 1.00000000
vt 0.00000000 0.00000000
vt 1.00000000 0.00000000
vt 0.00000000 0.00000000
vt 1.00000000 0.00000000
vt 1.00000000 1.00000000
vt 0.00000000 1.00000000
vt 0.00000000 0.00000000
vt 1.00000000 0.00000000
vt 1.00000000 1.00000000
vt 0.00000000 1.00000000
vt 0.00000000 0.00000000
vt 1.00000000 0.00000000
vt 1.00000000 1.00000000
vt 0.00000000 1.00000000
vt 0.00000000 0.00000000
vt 1.00000000 0.00000000
vt 1.00000000 1.00000000
vt 0.00000000 1.00000000
vt 0.00000000 0.00000000
vt 1.00000000 0.00000000
vt 1.00000000 1.00000000
vt 0.00000000 1.00000000
vt 0.00000000 0.00000000
vt 1.00000000 0.00000000
vt 1.00000000 1.00000000
vt 0.00000000 1.00000000
vt 0.00000000 0.00000000
vt 1.00000000 0.00000000
vt 1.00000000 1.00000000
vt 0.00000000 1.00000000
vt 0.00000000 0.00000000
vt 1.00000000 0.00000000
vt 1.00000000 1.00000000
vt 0.00000000 1.00000000
vt 0.00000000 0.00000000
vt 1.00000000 0.00000000
vt 1.00000000 1.00000000
vt 0.00000000 1.00000000
vt 1.00000000 1.00000000
vt 0.00000000 1.00000000
vt 0.00000000 0.00000000
vt 1.00000000 0.00000000
vt 1.00000000 1.00000000
vt 0.00000000 1.00000000
vt 0.00000000 0.00000000
vt 1.00000000 0.00000000
vt 1.00000000 1.00000000
vt 0.00000000 1.00000000
vt 0.00000000 0.00000000
vt 1.00000000 0.00000000
vt 1.00000000 1.00000000
vt 0.00000000 1.00000000
vt 0.00000000 0.00000000
vt 1.00000000 0.00000000
vt 1.00000000 1.00000000
vt 0.00000000 1.00000000
vt 0.00000000 0.00000000
vt 1.00000000 0.00000000
vt 1.00000000 1.00000000
vt 0.00000000 1.00000000
vt 0.00000000 0.00000000
vt 1.00000000 0.00000000
vt 1.00000000 1.00000000
vt 0.00000000 1.00000000
vt 0.00000000 0.00000000
vt 1.00000000 0.00000000
vt 1.00000000 1.00000000
vt 0.00000000 1.00000000
vt 0.00000000 0.00000000
vt 1.00000000 0.00000000
vt 0.00000000 0.00000000
vt 1.00000000 0.00000000
vt 1.00000000 1.00000000
vt 0.00000000 1.00000000
vt 1.00000000 1.00000000
vt 0.00000000 1.00000000
vt 0.00000000 0.00000000
vt 1.00000000 0.00000000
vn 0.69474659 0.69474659 -0.18615679
vn 0.69474659 0.69474659 -0.18615679
vn 0.69474659 0.69474659 -0.18615679
vn 0.69474659 0.69474659 -0.18615679
vn 0.31509864 0.94529591 -0.08443043
vn 0.31509864 0.94529591 -0.08443043
vn 0.31509864 0.94529591 -0.08443043
vn 0.31509864 0.94529591 -0.08443043
vn 0.00000000 1.00000000 0.00000000
vn 0.00000000 1.00000000 0.00000000
vn 0.00000000 1.00000000 0.00000000
vn 0.00000000 1.00000000 0.00000000
vn 0.00000000 1.00000000 0.00000000
vn 0.08443043 0.94529591 -0.31509864
vn 0.08443043 0.94529591 -0.31509864
vn 0.08443043 0.94529591 -0.31509864
vn 0.08443043 0.94529591 -0.31509864
vn 0.18615679 0.69474659 -0.69474659
vn 0.18615679 0.69474659 -0.69474659
vn 0.18615679 0.69474659 -0.69474659
vn 0.18615679 0.69474659 -0.69474659
vn 0.25043194 0.25250832 -0.93462473
vn 0.25043194 0.25250832 -0.93462473
vn 0.25043194 0.25250832 -0.93462473
vn 0.25043194 0.25250832 -0.93462473
vn 0.25314908 -0.20816861 -0.94476525
vn 0.25314908 -0.20816861 -0.94476525
vn 0.25314908 -0.20816861 -0.94476525
vn 0.25314908 -0.20816861 -0.94476525
vn 0.19711346 -0.64806157 -0.73563746
vn 0.19711346 -0.64806157 -0.73563746
vn 0.19711346 -0.64806157 -0.73563746
vn 0.19711346 -0.64806157 -0.73563746
vn 0.10132824 -0.92017715 -0.37816213
vn 0.10132824 -0.92017715 -0.37816213
vn 0.10132824 -0.92017715 -0.37816213
vn 0.10132824 -0.92017715 -0.37816213
vn 0.16400967 -0.77359144 -0.61209240
vn 0.16400967 -0.77359144 -0.61209240
vn 0.16400967 -0.77359144 -0.61209240
vn 0.16400967 -0.77359144 -0.61209240
vn 0.23272423 -0.43758435 -0.86853864
vn 0.23272423 -0.43758435 -0.86853864
vn 0.23272423 -0.43758435 -0.86853864
vn 0.23272423 -0.43758435 -0.86853864
vn 0.25572329 -0.15420477 -0.95437230
vn 0.25572329 -0.15420477 -0.95437230
vn 0.25572329 -0.15420477 -0.95437230
vn 0.25572329 -0.15420477 -0.95437230
vn 0.25881905 0.00000000 -0.96592583
vn 0.25881905 0.00000000 -0.96592583
vn 0.25881905 0.00000000 -0.96592583
vn 0.25881905 0.00000000 -0.96592583
vn 0.70710678 0.00000000 -0.70710678
vn 0.70710678 0.00000000 -0.70710678
vn 0.70710678 0.00000000 -0.70710678
vn 0.70710678 0.00000000 -0.70710678
vn 0.96592583 0.00000000 -0.25881905
vn 0.96592583 0.00000000 -0.25881905
vn 0.96592583 0.00000000 -0.25881905
vn 0.96592583 0.00000000 -0.25881905
vn 0.95437230 -0.15420477 -0.25572329
vn 0.95437230 -0.15420477 -0.25572329
vn 0.95437230 -0.15420477 -0.25572329
vn 0.95437230 -0.15420477 -0.25572329
vn 0.86853864 -0.43758435 -0.23272423
vn 0.86853864 -0.43758435 -0.23272423
vn 0.86853864 -0.43758435 -0.23272423
vn 0.86853864 -0.43758435 -0.23272423
vn 0.61209240 -0.77359144 -0.16400967
vn 0.61209240 -0.77359144 -0.16400967
vn 0.61209240 -0.77359144 -0.16400967
vn 0.61209240 -0.77359144 -0.16400967
vn 0.37816213 -0.92017715 -0.10132824
vn 0.37816213 -0.92017715 -0.10132824
vn 0.37816213 -0.92017715 -0.10132824
vn 0.37816213 -0.92017715 -0.10132824
vn 0.73563746 -0.64806157 -0.19711346
vn 0.73563746 -0.64806157 -0.19711346
vn 0.73563746 -0.64806157 -0.19711346
vn 0.73563746 -0.64806157 -0.19711346
vn 0.94476525 -0.20816861 -0.25314908
vn 0.94476525 -0.20816861 -0.25314908
vn 0.94476525 -0.20816861 -0.25314908
vn 0.94476525 -0.20816861 -0.25314908
vn 0.69864901 -0.15420477 -0.69864901
vn 0.69864901 -0.15420477 -0.69864901
vn 0.69864901 -0.15420477 -0.69864901
vn 0.69864901 -0.15420477 -0.69864901
vn 0.63581441 -0.43758435 -0.63581441
vn 0.63581441 -0.43758435 -0.63581441
vn 0.63581441 -0.43758435 -0.63581441
vn 0.63581441 -0.43758435 -0.63581441
vn 0.44808274 -0.77359144 -0.44808274
vn 0.44808274 -0.77359144 -0.44808274
vn 0.44808274 -0.77359144 -0.44808274
vn 0.44808274 -0.77359144 -0.44808274
vn 0.27683389 -0.92017715 -0.27683389
vn 0.27683389 -0.92017715 -0.27683389
vn 0.27683389 -0.92017715 -0.27683389
vn 0.27683389 -0.92017715 -0.27683389
vn 0.53852400 -0.64806157 -0.53852400
vn 0.53852400 -0.64806157 -0.53852400
vn 0.53852400 -0.64806157 -0.53852400
vn 0.53852400 -0.64806157 -0.53852400
vn 0.69161616 -0.20816861 -0.69161616
vn 0.69161616 -0.20816861 -0.69161616
vn 0.69161616 -0.20816861 -0.69161616
vn 0.69161616 -0.20816861 -0.69161616
vn 0.68419279 0.25250832 -0.68419279
vn 0.68419279 0.25250832 -0.68419279
vn 0.68419279 0.25250832 -0.68419279
vn 0.68419279 0.25250832 -0.68419279
vn 0.23066821 0.94529591 -0.23066821
vn 0.23066821 0.94529591 -0.23066821
vn 0.23066821 0.94529591 -0.23066821
vn 0.23066821 0.94529591 -0.23066821
vn 0.93462473 0.25250832 -0.25043194
vn 0.93462473 0.25250832 -0.25043194
vn 0.93462473 0.25250832 -0.25043194
vn 0.93462473 0.25250832 -0.25043194
vn 0.50858980 0.69474659 -0.50858980
vn 0.50858980 0.69474659 -0.50858980
vn 0.50858980 0.69474659 -0.50858980
vn 0.50858980 0.69474659 -0.50858980
s 1
usemtl Grass
f 4/4/4 3/3/3 1/1/1
f 3/3/3 2/2/2 1/1/1
s 2
f 1/8/8 2/7/7 5/5/5
f 2/7/7 6/6/6 5/5/5
s 3
f 5/13/13 6/9/9 7/10/10
f 7/10/10 8/11/11 9/12/12
f 7/10/10 9/12/12 5/13/13
s 4
f 8/17/17 7/16/16 11/15/15
f 8/17/17 11/15/15 10/14/14
s 5
f 10/21/21 11/20/20 13/19/19
f 10/21/21 13/19/19 12/18/18
s 6
f 12/25/25 13/24/24 15/23/23
f 12/25/25 15/23/23 14/22/22
s 7
f 14/29/29 15/28/28 16/26/26
f 15/28/28 17/27/27 16/26/26
s 8
f 16/33/33 17/32/32 18/30/30
f 17/32/32 19/31/31 18/30/30
s 9
f 18/37/37 19/36/36 20/34/34
f 19/36/36 21/35/35 20/34/34
s 10
usemtl Dirt
f 20/41/41 21/40/40 22/38/38
f 21/40/40 23/39/39 22/38/38
s 11
f 22/45/45 23/44/44 24/42/42
f 23/44/44 25/43/43 24/42/42
s 12
f 24/49/49 25/48/48 26/46/46
f 25/48/48 27/47/47 26/46/46
s 13
f 29/53/53 26/52/52 28/50/50
f 26/52/52 27/51/51 28/50/50
s 14
f 28/57/57 27/56/56 31/55/55
f 28/57/57 31/55/55 30/54/54
s 15
f 30/61/61 31/60/60 33/59/59
f 30/61/61 33/59/59 32/58/58
s 16
f 33/65/65 31/64/64 35/63/63
f 33/65/65 35/63/63 34/62/62
s 17
f 34/69/69 35/68/68 37/67/67
f 34/69/69 37/67/67 36/66/66
s 18
f 36/73/73 37/72/72 39/71/71
f 36/73/73 39/71/71 38/70/70
s 19
usemtl Grass
f 38/77/77 39/76/76 41/75/75
f 38/77/77 41/75/75 40/74/74
s 20
f 40/81/81 41/80/80 43/79/79
f 40/81/81 43/79/79 42/78/78
s 21
f 42/85/85 43/84/84 45/83/83
f 42/85/85 45/83/83 44/82/82
s 22
usemtl Dirt
f 25/89/89 35/88/88 27/86/86
f 35/88/88 31/87/87 27/86/86
s 23
f 23/93/93 37/92/92 25/90/90
f 37/92/92 35/91/91 25/90/90
s 24
f 21/97/97 39/96/96 23/94/94
f 39/96/96 37/95/95 23/94/94
s 25
usemtl Grass
f 19/101/101 41/100/100 21/98/98
f 41/100/100 39/99/99 21/98/98
s 26
f 17/105/105 43/104/104 19/102/102
f 43/104/104 41/103/103 19/102/102
s 27
f 15/109/109 45/108/108 17/106/106
f 45/108/108 43/107/107 17/106/106
s 28
f 13/113/113 3/112/112 45/111/111
f 13/113/113 45/111/111 15/110/110
s 29
f 7/117/117 6/116/116 2/115/115
f 7/117/117 2/115/115 11/114/114
s 30
f 44/121/121 45/120/120 4/118/118
f 45/120/120 3/119/119 4/118/118
s 31
f 11/125/125 2/124/124 3/123/123
f 11/125/125 3/123/123 13/122/122
