mtllib Materials_Modular_Terrain.mtl
o object1
g object1
v 1.50000000 0.00000000 0.50000000
v 1.50000000 0.30000000 0.50000000
v 0.50000000 0.30000000 0.23205081
v 0.50000000 0.00000000 0.23205081
v -0.23205081 0.30000000 -0.50000000
v -0.23205081 0.00000000 -0.50000000
v -0.50000000 0.30000000 -1.50000000
v -0.50000000 0.00000000 -1.50000000
v -0.47567743 0.45053225 -1.50000000
v -0.21098684 0.45053225 -0.51216129
v -0.43376487 0.53372233 -1.50000000
v -0.17468950 0.53372233 -0.53311757
v -0.35000000 0.60000000 -1.50000000
v -0.10214700 0.60000000 -0.57500000
v -0.23312070 0.64803350 -1.50000000
v -0.00092655 0.64803350 -0.63343965
v -0.14133775 0.75221954 -1.50000000
v 0.07855981 0.75221954 -0.67933112
v -0.10908969 0.89857613 -1.50000000
v 0.10648745 0.89857613 -0.69545515
v -0.15000000 1.05000000 -1.50000000
v 0.07105808 1.05000000 -0.67500000
v -0.25000000 1.15000000 -1.50000000
v -0.01554446 1.15000000 -0.62500000
v -0.40000000 1.20000000 -1.50000000
v -0.14544827 1.20000000 -0.55000000
v 1.50000000 1.20000000 0.50000000
v 1.50000000 1.20000000 0.40000000
v 0.55000000 1.20000000 0.14544827
v -0.50000000 1.20000000 -1.50000000
v -0.50000000 1.20000000 0.50000000
v 1.50000000 1.15000000 0.25000000
v 0.62500000 1.15000000 0.01554446
v 1.50000000 1.05000000 0.15000000
v 0.67500000 1.05000000 -0.07105808
v 1.50000000 0.89857613 0.10908969
v 0.69545515 0.89857613 -0.10648745
v 1.50000000 0.75221954 0.14133775
v 0.67933112 0.75221954 -0.07855981
v 1.50000000 0.64803350 0.23312070
v 0.63343965 0.64803350 0.00092655
v 1.50000000 0.60000000 0.35000000
v 0.57500000 0.60000000 0.10214700
v 1.50000000 0.53372233 0.43376487
v 0.53311757 0.53372233 0.17468950
v 1.50000000 0.45053225 0.47567743
v 0.51216129 0.45053225 0.21098684
vt 0.00000000 0.00000000
vt 1.00000000 0.00000000
vt 1.00000000 1.00000000
vt 0.00000000 1.00000000
vt 0.00000000 0.00000000
vt 1.00000000 0.00000000
vt 1.00000000 1.00000000
vt 0.00000000 1.00000000
vt 0.00000000 0.00000000
vt 1.00000000 0.00000000
vt 1.00000000 1.00000000
vt 0.00000000 1.00000000
vt 0.00000000 0.00000000
vt 1.00000000 0.00000000
vt 1.00000000 1.00000000
vt 0.00000000 1.00000000
vt 0.00000000 0.00000000
vt 1.00000000 0.00000000
vt 1.00000000 1.00000000
vt 0.00000000 1.00000000
vt 0.00000000 0.00000000
vt 1.00000000 0.00000000
vt 1.00000000 1.00000000
vt 0.00000000 1.00000000
vt 0.00000000 0.00000000
vt 1.00000000 0.00000000
vt 1.00000000 1.00000000
vt 0.00000000 1.00000000
vt 0.00000000 0.00000000
vt 1.00000000 0.00000000
vt 1.00000000 1.00000000
vt 0.00000000 1.00000000
vt 0.00000000 0.00000000
vt 1.00000000 0.00000000
vt 1.00000000 1.00000000
vt 0.00000000 1.00000000
vt 0.00000000 0.00000000
vt 1.00000000 0.00000000
vt 1.00000000 1.00000000
vt 0.00000000 1.00000000
vt 0.00000000 0.00000000
vt 1.00000000 0.00000000
vt 1.00000000 1.00000000
vt 0.00000000 1.00000000
vt 0.00000000 0.00000000
vt 1.00000000 0.00000000
vt 1.00000000 1.00000000
vt 0.00000000 1.00000000
vt 0.00000000 0.00000000
vt 0.05000000 0.00000000
vt 0.17727587 0.47500000
vt 0.52500000 0.82272413
vt 1.00000000 0.95000000
vt 1.00000000 1.00000000
vt 0.00000000 1.00000000
vt 1.00000000 1.00000000
vt 0.00000000 1.00000000
vt 0.00000000 0.00000000
vt 1.00000000 0.00000000
vt 1.00000000 1.00000000
vt 0.00000000 1.00000000
vt 0.00000000 0.00000000
vt 1.00000000 0.00000000
vt 1.00000000 1.00000000
vt 0.00000000 1.00000000
vt 0.00000000 0.00000000
vt 1.00000000 0.00000000
vt 1.00000000 1.00000000
vt 0.00000000 1.00000000
vt 0.00000000 0.00000000
vt 1.00000000 0.00000000
vt 1.00000000 1.00000000
vt 0.00000000 1.00000000
vt 0.00000000 0.00000000
vt 1.00000000 0.00000000
vt 1.00000000 1.00000000
vt 0.00000000 1.00000000
vt 0.00000000 0.00000000
vt 1.00000000 0.00000000
vt 1.00000000 1.00000000
vt 0.00000000 1.00000000
vt 0.00000000 0.00000000
vt 1.00000000 0.00000000
vt 1.00000000 1.00000000
vt 0.00000000 1.00000000
vt 0.00000000 0.00000000
vt 1.00000000 0.00000000
vt 1.00000000 1.00000000
vt 0.00000000 1.00000000
vt 0.00000000 0.00000000
vt 1.00000000 0.00000000
vt 1.00000000 1.00000000
vt 0.00000000 1.00000000
vt 0.00000000 0.00000000
vt 1.00000000 0.00000000
vt 1.00000000 1.00000000
vt 0.00000000 1.00000000
vt 0.00000000 0.00000000
vt 1.00000000 0.00000000
vt 1.00000000 1.00000000
vt 0.00000000 1.00000000
vt 0.00000000 0.00000000
vt 1.00000000 0.00000000
vt 1.00000000 1.00000000
vt 0.00000000 1.00000000
vt 0.00000000 0.00000000
vt 1.00000000 0.00000000
vt 1.00000000 1.00000000
vt 0.00000000 1.00000000
vt 0.00000000 0.00000000
vt 1.00000000 0.00000000
vt 1.00000000 1.00000000
vt 0.00000000 1.00000000
vt 0.00000000 0.00000000
vt 1.00000000 0.00000000
vt 1.00000000 1.00000000
vt 0.00000000 1.00000000
vt 0.00000000 0.00000000
vt 1.00000000 0.00000000
vt 1.00000000 1.00000000
vt 0.00000000 1.00000000
vt 0.00000000 0.00000000
vt 1.00000000 0.00000000
vt 1.00000000 1.00000000
vt 0.00000000 1.00000000
vt 0.00000000 0.00000000
vt 1.00000000 0.00000000
vn 0.25881905 0.00000000 -0.96592583
vn 0.25881905 0.00000000 -0.96592583
vn 0.25881905 0.00000000 -0.96592583
vn 0.25881905 0.00000000 -0.96592583
vn 0.70710678 0.00000000 -0.70710678
vn 0.70710678 0.00000000 -0.70710678
vn 0.70710678 0.00000000 -0.70710678
vn 0.70710678 0.00000000 -0.70710678
vn 0.96592583 0.00000000 -0.25881905
vn 0.96592583 0.00000000 -0.25881905
vn 0.96592583 0.00000000 -0.25881905
vn 0.96592583 0.00000000 -0.25881905
vn 0.95437230 -0.15420477 -0.25572329
vn 0.95437230 -0.15420477 -0.25572329
vn 0.95437230 -0.15420477 -0.25572329
vn 0.95437230 -0.15420477 -0.25572329
vn 0.86853864 -0.43758435 -0.23272423
vn 0.86853864 -0.43758435 -0.23272423
vn 0.86853864 -0.43758435 -0.23272423
vn 0.86853864 -0.43758435 -0.23272423
vn 0.61209240 -0.77359144 -0.16400967
vn 0.61209240 -0.77359144 -0.16400967
vn 0.61209240 -0.77359144 -0.16400967
vn 0.61209240 -0.77359144 -0.16400967
vn 0.37816213 -0.92017715 -0.10132824
vn 0.37816213 -0.92017715 -0.10132824
vn 0.37816213 -0.92017715 -0.10132824
vn 0.37816213 -0.92017715 -0.10132824
vn 0.73563746 -0.64806157 -0.19711346
vn 0.73563746 -0.64806157 -0.19711346
vn 0.73563746 -0.64806157 -0.19711346
vn 0.73563746 -0.64806157 -0.19711346
vn 0.94476525 -0.20816861 -0.25314908
vn 0.94476525 -0.20816861 -0.25314908
vn 0.94476525 -0.20816861 -0.25314908
vn 0.94476525 -0.20816861 -0.25314908
vn 0.93462473 0.25250832 -0.25043194
vn 0.93462473 0.25250832 -0.25043194
vn 0.93462473 0.25250832 -0.25043194
vn 0.93462473 0.25250832 -0.25043194
vn 0.69474659 0.69474659 -0.18615679
vn 0.69474659 0.69474659 -0.18615679
vn 0.69474659 0.69474659 -0.18615679
vn 0.69474659 0.69474659 -0.18615679
vn 0.31509864 0.94529591 -0.08443043
vn 0.31509864 0.94529591 -0.08443043
vn 0.31509864 0.94529591 -0.08443043
vn 0.31509864 0.94529591 -0.08443043
vn 0.00000000 1.00000000 0.00000000
vn 0.00000000 1.00000000 0.00000000
vn 0.00000000 1.00000000 0.00000000
vn 0.00000000 1.00000000 0.00000000
vn 0.00000000 1.00000000 0.00000000
vn 0.00000000 1.00000000 0.00000000
vn 0.00000000 1.00000000 0.00000000
vn 0.08443043 0.94529591 -0.31509864
vn 0.08443043 0.94529591 -0.31509864
vn 0.08443043 0.94529591 -0.31509864
vn 0.08443043 0.94529591 -0.31509864
vn 0.18615679 0.69474659 -0.69474659
vn 0.18615679 0.69474659 -0.69474659
vn 0.18615679 0.69474659 -0.69474659
vn 0.18615679 0.69474659 -0.69474659
vn 0.25043194 0.25250832 -0.93462473
vn 0.25043194 0.25250832 -0.93462473
vn 0.25043194 0.25250832 -0.93462473
vn 0.25043194 0.25250832 -0.93462473
vn 0.25314908 -0.20816861 -0.94476525
vn 0.25314908 -0.20816861 -0.94476525
vn 0.25314908 -0.20816861 -0.94476525
vn 0.25314908 -0.20816861 -0.94476525
vn 0.19711346 -0.64806157 -0.73563746
vn 0.19711346 -0.64806157 -0.73563746
vn 0.19711346 -0.64806157 -0.73563746
vn 0.19711346 -0.64806157 -0.73563746
vn 0.10132824 -0.92017715 -0.37816213
vn 0.10132824 -0.92017715 -0.37816213
vn 0.10132824 -0.92017715 -0.37816213
vn 0.10132824 -0.92017715 -0.37816213
vn 0.16400967 -0.77359144 -0.61209240
vn 0.16400967 -0.77359144 -0.61209240
vn 0.16400967 -0.77359144 -0.61209240
vn 0.16400967 -0.77359144 -0.61209240
vn 0.23272423 -0.43758435 -0.86853864
vn 0.23272423 -0.43758435 -0.86853864
vn 0.23272423 -0.43758435 -0.86853864
vn 0.23272423 -0.43758435 -0.86853864
vn 0.23066821 0.94529591 -0.23066821
vn 0.23066821 0.94529591 -0.23066821
vn 0.23066821 0.94529591 -0.23066821
vn 0.23066821 0.94529591 -0.23066821
vn 0.50858980 0.69474659 -0.50858980
vn 0.50858980 0.69474659 -0.50858980
vn 0.50858980 0.69474659 -0.50858980
vn 0.50858980 0.69474659 -0.50858980
vn 0.68419279 0.25250832 -0.68419279
vn 0.68419279 0.25250832 -0.68419279
vn 0.68419279 0.25250832 -0.68419279
vn 0.68419279 0.25250832 -0.68419279
vn 0.69161616 -0.20816861 -0.69161616
vn 0.69161616 -0.20816861 -0.69161616
vn 0.69161616 -0.20816861 -0.69161616
vn 0.69161616 -0.20816861 -0.69161616
vn 0.53852400 -0.64806157 -0.53852400
vn 0.53852400 -0.64806157 -0.53852400
vn 0.53852400 -0.64806157 -0.53852400
vn 0.53852400 -0.64806157 -0.53852400
vn 0.27683389 -0.92017715 -0.27683389
vn 0.27683389 -0.92017715 -0.27683389
vn 0.27683389 -0.92017715 -0.27683389
vn 0.27683389 -0.92017715 -0.27683389
vn 0.44808274 -0.77359144 -0.44808274
vn 0.44808274 -0.77359144 -0.44808274
vn 0.44808274 -0.77359144 -0.44808274
vn 0.44808274 -0.77359144 -0.44808274
vn 0.63581441 -0.43758435 -0.63581441
vn 0.63581441 -0.43758435 -0.63581441
vn 0.63581441 -0.43758435 -0.63581441
vn 0.63581441 -0.43758435 -0.63581441
vn 0.69864901 -0.15420477 -0.69864901
vn 0.69864901 -0.15420477 -0.69864901
vn 0.69864901 -0.15420477 -0.69864901
vn 0.69864901 -0.15420477 -0.69864901
vn 0.25572329 -0.15420477 -0.95437230
vn 0.25572329 -0.15420477 -0.95437230
vn 0.25572329 -0.15420477 -0.95437230
vn 0.25572329 -0.15420477 -0.95437230
s 1
usemtl Dirt
f 4/4/4 3/3/3 1/1/1
f 3/3/3 2/2/2 1/1/1
s 2
f 6/8/8 5/7/7 4/5/5
f 5/7/7 3/6/6 4/5/5
s 3
f 8/12/12 7/11/11 6/9/9
f 7/11/11 5/10/10 6/9/9
s 4
f 9/13/13 10/14/14 7/16/16
f 10/14/14 5/15/15 7/16/16
s 5
f 11/17/17 12/18/18 9/20/20
f 12/18/18 10/19/19 9/20/20
s 6
f 13/21/21 14/22/22 11/24/24
f 14/22/22 12/23/23 11/24/24
s 7
usemtl Grass
f 15/25/25 16/26/26 13/28/28
f 16/26/26 14/27/27 13/28/28
s 8
f 17/29/29 18/30/30 15/32/32
f 18/30/30 16/31/31 15/32/32
s 9
f 19/33/33 20/34/34 17/36/36
f 20/34/34 18/35/35 17/36/36
s 10
f 21/37/37 22/38/38 20/39/39
f 21/37/37 20/39/39 19/40/40
s 11
f 23/41/41 24/42/42 22/43/43
f 23/41/41 22/43/43 21/44/44
s 12
f 25/45/45 26/46/46 24/47/47
f 25/45/45 24/47/47 23/48/48
s 13
f 26/52/52 25/53/53 30/54/54
f 29/51/51 26/52/52 31/55/55
f 27/49/49 28/50/50 31/55/55
f 28/50/50 29/51/51 31/55/55
f 26/52/52 30/54/54 31/55/55
s 14
f 32/56/56 33/57/57 28/59/59
f 33/57/57 29/58/58 28/59/59
s 15
f 34/60/60 35/61/61 32/63/63
f 35/61/61 33/62/62 32/63/63
s 16
f 36/64/64 37/65/65 34/67/67
f 37/65/65 35/66/66 34/67/67
s 17
f 38/68/68 39/69/69 37/70/70
f 38/68/68 37/70/70 36/71/71
s 18
f 40/72/72 41/73/73 39/74/74
f 40/72/72 39/74/74 38/75/75
s 19
f 42/76/76 43/77/77 41/78/78
f 42/76/76 41/78/78 40/79/79
s 20
usemtl Dirt
f 44/80/80 45/81/81 43/82/82
f 44/80/80 43/82/82 42/83/83
s 21
f 46/84/84 47/85/85 45/86/86
f 46/84/84 45/86/86 44/87/87
s 22
usemtl Grass
f 33/88/88 24/89/89 29/91/91
f 24/89/89 26/90/90 29/91/91
s 23
f 35/92/92 22/93/93 33/95/95
f 22/93/93 24/94/94 33/95/95
s 24
f 37/96/96 20/97/97 35/99/99
f 20/97/97 22/98/98 35/99/99
s 25
f 39/100/100 18/101/101 20/102/102
f 39/100/100 20/102/102 37/103/103
s 26
f 41/104/104 16/105/105 18/106/106
f 41/104/104 18/106/106 39/107/107
s 27
f 43/108/108 14/109/109 16/110/110
f 43/108/108 16/110/110 41/111/111
s 28
usemtl Dirt
f 45/112/112 12/113/113 14/114/114
f 45/112/112 14/114/114 43/115/115
s 29
f 47/116/116 10/117/117 12/118/118
f 47/116/116 12/118/118 45/119/119
s 30
f 3/120/120 5/121/121 10/122/122
f 3/120/120 10/122/122 47/123/123
s 31
f 2/124/124 3/125/125 47/126/126
f 2/124/124 47/126/126 46/127/127
