mtllib Materials_Modular_Terrain.mtl
o object1
g object1
v -0.45000000 0.35000000 0.50000000
v -0.50000000 0.50000000 0.50000000
v -0.50000000 0.50000000 -0.50000000
v -0.45000000 0.35000000 -0.50000000
v -0.32500000 0.17500000 0.50000000
v -0.32500000 0.17500000 -0.50000000
v -0.15000000 0.05000000 0.50000000
v -0.15000000 0.05000000 -0.50000000
v 0.00000000 -0.00000000 0.50000000
v 0.00000000 -0.00000000 -0.50000000
v -0.50000000 1.00000000 -0.50000000
v -0.50000000 1.00000000 0.50000000
vt 1.00000000 0.00000000
vt 1.00000000 1.00000000
vt 0.00000000 1.00000000
vt 0.00000000 0.00000000
vt 1.00000000 0.00000000
vt 1.00000000 1.00000000
vt 0.00000000 1.00000000
vt 0.00000000 0.00000000
vt 1.00000000 0.00000000
vt 1.00000000 1.00000000
vt 0.00000000 1.00000000
vt 0.00000000 0.00000000
vt 1.00000000 0.00000000
vt 1.00000000 1.00000000
vt 0.00000000 1.00000000
vt 0.00000000 0.00000000
vt 1.00000000 0.00000000
vt 1.00000000 1.00000000
vt 0.00000000 1.00000000
vt 0.00000000 0.00000000
vn 0.94868330 0.31622777 -0.00000000
vn 0.94868330 0.31622777 -0.00000000
vn 0.94868330 0.31622777 -0.00000000
vn 0.94868330 0.31622777 -0.00000000
vn 0.81373347 0.58123819 0.00000000
vn 0.81373347 0.58123819 0.00000000
vn 0.81373347 0.58123819 0.00000000
vn 0.81373347 0.58123819 0.00000000
vn 0.58123819 0.81373347 0.00000000
vn 0.58123819 0.81373347 0.00000000
vn 0.58123819 0.81373347 0.00000000
vn 0.58123819 0.81373347 0.00000000
vn 0.31622777 0.94868330 0.00000000
vn 0.31622777 0.94868330 0.00000000
vn 0.31622777 0.94868330 0.00000000
vn 0.31622777 0.94868330 0.00000000
vn 1.00000000 -0.00000000 -0.00000000
vn 1.00000000 -0.00000000 -0.00000000
vn 1.00000000 -0.00000000 -0.00000000
vn 1.00000000 -0.00000000 -0.00000000
s 1
usemtl Dirt
f 4/4/4 3/3/3 1/1/1
f 3/3/3 2/2/2 1/1/1
s 2
f 6/8/8 4/7/7 5/5/5
f 4/7/7 1/6/6 5/5/5
s 3
f 8/12/12 6/11/11 5/10/10
f 8/12/12 5/10/10 7/9/9
s 4
f 10/16/16 8/15/15 9/13/13
f 8/15/15 7/14/14 9/13/13
s 5
f 11/17/17 12/18/18 3/20/20
f 12/18/18 2/19/19 3/20/20
