mtllib Materials_Modular_Terrain.mtl
o object1
g object1
v 1.81429822 0.05000000 0.09192681
v 1.84999999 0.05000000 0.50000003
v 1.99999999 0.00000000 0.50000003
v 1.96201938 0.00000000 0.06587959
v 1.84923156 0.00000000 -0.35505033
v 1.70827766 0.05000000 -0.30374731
v 1.61430840 0.15000000 -0.26954530
v 1.71581744 0.15000000 0.10929163
v 1.47335451 0.20000000 -0.21824228
v 1.56809628 0.20000000 0.13533885
v 0.84985400 0.20000000 -1.10869332
v 1.10869334 0.20000000 -0.84985396
v 1.31865336 0.20000000 -0.54999998
v 1.59999999 0.20000000 0.50000002
v 0.49999999 0.20000000 0.50000001
v 0.50000001 0.20000000 -0.49999999
v -0.49999999 0.20000000 -0.50000001
v -0.49999998 0.20000000 -1.60000001
v -0.13533880 0.20000000 -1.56809628
v 0.21824232 0.20000000 -1.47335450
v 0.55000002 0.20000000 -1.31865334
v 1.22360001 0.15000000 -0.94627210
v 0.94627214 0.15000000 -1.22359998
v 1.30020446 0.05000000 -1.01055086
v 1.01055090 0.05000000 -1.30020443
v 1.53515971 0.05000000 -0.67499998
v 1.44855717 0.15000000 -0.62499998
v 1.66506352 0.00000000 -0.74999998
v 1.41511112 0.00000000 -1.10696900
v 1.10696905 0.00000000 -1.41511109
v 0.75000002 0.00000000 -1.66506350
v 0.67500002 0.05000000 -1.53515969
v 0.35505039 0.00000000 -1.84923155
v 0.30374736 0.05000000 -1.70827765
v 0.26954535 0.15000000 -1.61430839
v 0.62500002 0.15000000 -1.44855715
v -0.09192676 0.05000000 -1.81429822
v -0.10929157 0.15000000 -1.71581745
v -0.49999997 0.05000000 -1.85000001
v -0.49999997 0.15000000 -1.75000001
v -0.06587953 0.00000000 -1.96201938
v -0.49999997 0.00000000 -2.00000001
v 1.74999999 0.15000000 0.50000003
vt 1.00000000 1.00000000
vt 0.00000000 1.00000000
vt 0.00000000 0.00000000
vt 1.00000000 0.00000000
vt 0.00000000 0.00000000
vt 1.00000000 0.00000000
vt 1.00000000 1.00000000
vt 0.00000000 1.00000000
vt 0.00000000 0.00000000
vt 1.00000000 0.00000000
vt 1.00000000 1.00000000
vt 0.00000000 1.00000000
vt 0.00000000 0.00000000
vt 1.00000000 0.00000000
vt 1.00000000 1.00000000
vt 0.00000000 1.00000000
vt 0.23395556 0.35721239
vt 0.35721239 0.23395556
vt 0.50000000 0.13397460
vt 0.65797986 0.06030738
vt 0.82635182 0.01519225
vt 1.00000000 0.00000000
vt 1.00000000 0.52380952
vt 0.52380952 0.52380952
vt 0.52380952 1.00000000
vt 0.00000000 1.00000000
vt 0.01519225 0.82635182
vt 0.06030738 0.65797986
vt 0.13397460 0.50000000
vt 0.00000000 0.00000000
vt 1.00000000 0.00000000
vt 1.00000000 1.00000000
vt 0.00000000 1.00000000
vt 0.00000000 0.00000000
vt 1.00000000 0.00000000
vt 1.00000000 1.00000000
vt 0.00000000 1.00000000
vt 0.00000000 0.00000000
vt 1.00000000 0.00000000
vt 1.00000000 1.00000000
vt 0.00000000 1.00000000
vt 0.00000000 0.00000000
vt 1.00000000 0.00000000
vt 1.00000000 1.00000000
vt 0.00000000 1.00000000
vt 0.00000000 0.00000000
vt 1.00000000 0.00000000
vt 1.00000000 1.00000000
vt 0.00000000 1.00000000
vt 0.00000000 0.00000000
vt 1.00000000 0.00000000
vt 1.00000000 1.00000000
vt 0.00000000 1.00000000
vt 0.00000000 0.00000000
vt 1.00000000 0.00000000
vt 1.00000000 1.00000000
vt 0.00000000 1.00000000
vt 0.00000000 0.00000000
vt 1.00000000 0.00000000
vt 1.00000000 1.00000000
vt 0.00000000 1.00000000
vt 0.00000000 0.00000000
vt 1.00000000 0.00000000
vt 1.00000000 1.00000000
vt 0.00000000 1.00000000
vt 0.00000000 0.00000000
vt 1.00000000 0.00000000
vt 1.00000000 1.00000000
vt 0.00000000 1.00000000
vt 0.00000000 0.00000000
vt 1.00000000 0.00000000
vt 1.00000000 1.00000000
vt 0.00000000 1.00000000
vt 0.00000000 0.00000000
vt 1.00000000 0.00000000
vt 1.00000000 1.00000000
vt 0.00000000 1.00000000
vt 0.00000000 0.00000000
vt 1.00000000 0.00000000
vt 1.00000000 1.00000000
vt 0.00000000 1.00000000
vt 0.00000000 0.00000000
vt 1.00000000 0.00000000
vt 1.00000000 1.00000000
vt 0.00000000 1.00000000
vt 0.00000000 0.00000000
vt 1.00000000 0.00000000
vt 1.00000000 1.00000000
vt 0.00000000 1.00000000
vt 0.00000000 0.00000000
vt 1.00000000 0.00000000
vt 1.00000000 1.00000000
vt 0.00000000 1.00000000
vt 0.00000000 0.00000000
vt 1.00000000 0.00000000
vt 1.00000000 1.00000000
vt 0.00000000 1.00000000
vt 0.00000000 0.00000000
vt 1.00000000 0.00000000
vt 1.00000000 1.00000000
vt 0.00000000 1.00000000
vt 1.00000000 1.00000000
vt 0.00000000 1.00000000
vt 0.00000000 0.00000000
vt 1.00000000 0.00000000
vt 0.00000000 0.00000000
vt 1.00000000 0.00000000
vt 1.00000000 1.00000000
vt 0.00000000 1.00000000
vt 0.00000000 0.00000000
vt 1.00000000 0.00000000
vt 1.00000000 1.00000000
vt 0.00000000 1.00000000
vt 0.00000000 0.00000000
vt 1.00000000 0.00000000
vt 1.00000000 1.00000000
vt 0.00000000 1.00000000
vt 1.00000000 1.00000000
vt 0.00000000 1.00000000
vt 0.00000000 0.00000000
vt 1.00000000 0.00000000
vn 0.31610681 0.94832043 -0.02765576
vn 0.31610681 0.94832043 -0.02765576
vn 0.31610681 0.94832043 -0.02765576
vn 0.31610681 0.94832043 -0.02765576
vn 0.30650207 0.94832043 -0.08212698
vn 0.30650207 0.94832043 -0.08212698
vn 0.30650207 0.94832043 -0.08212698
vn 0.30650207 0.94832043 -0.08212698
vn 0.68431347 0.70575756 -0.18336123
vn 0.68431347 0.70575756 -0.18336123
vn 0.68431347 0.70575756 -0.18336123
vn 0.68431347 0.70575756 -0.18336123
vn 0.30650207 0.94832043 -0.08212698
vn 0.30650207 0.94832043 -0.08212698
vn 0.30650207 0.94832043 -0.08212698
vn 0.30650207 0.94832043 -0.08212698
vn -0.00000000 1.00000000 0.00000000
vn -0.00000000 1.00000000 0.00000000
vn -0.00000000 1.00000000 0.00000000
vn -0.00000000 1.00000000 0.00000000
vn -0.00000000 1.00000000 0.00000000
vn -0.00000000 1.00000000 0.00000000
vn -0.00000000 1.00000000 0.00000000
vn -0.00000000 1.00000000 0.00000000
vn -0.00000000 1.00000000 0.00000000
vn -0.00000000 1.00000000 0.00000000
vn -0.00000000 1.00000000 0.00000000
vn -0.00000000 1.00000000 0.00000000
vn -0.00000000 1.00000000 0.00000000
vn 0.22437509 0.94832043 -0.22437508
vn 0.22437509 0.94832043 -0.22437508
vn 0.22437509 0.94832043 -0.22437508
vn 0.22437509 0.94832043 -0.22437508
vn 0.50095224 0.70575756 -0.50095222
vn 0.50095224 0.70575756 -0.50095222
vn 0.50095224 0.70575756 -0.50095222
vn 0.50095224 0.70575756 -0.50095222
vn 0.58033109 0.70575756 -0.40635219
vn 0.58033109 0.70575756 -0.40635219
vn 0.58033109 0.70575756 -0.40635219
vn 0.58033109 0.70575756 -0.40635219
vn 0.25992865 0.94832043 -0.18200399
vn 0.25992865 0.94832043 -0.18200399
vn 0.25992865 0.94832043 -0.18200399
vn 0.25992865 0.94832043 -0.18200399
vn 0.22437509 0.94832043 -0.22437508
vn 0.22437509 0.94832043 -0.22437508
vn 0.22437509 0.94832043 -0.22437508
vn 0.22437509 0.94832043 -0.22437508
vn 0.18200400 0.94832043 -0.25992864
vn 0.18200400 0.94832043 -0.25992864
vn 0.18200400 0.94832043 -0.25992864
vn 0.18200400 0.94832043 -0.25992864
vn 0.13410282 0.94832043 -0.28758441
vn 0.13410282 0.94832043 -0.28758441
vn 0.13410282 0.94832043 -0.28758441
vn 0.13410282 0.94832043 -0.28758441
vn 0.29940537 0.70575756 -0.64207686
vn 0.29940537 0.70575756 -0.64207686
vn 0.29940537 0.70575756 -0.64207686
vn 0.29940537 0.70575756 -0.64207686
vn 0.18336125 0.70575756 -0.68431347
vn 0.18336125 0.70575756 -0.68431347
vn 0.18336125 0.70575756 -0.68431347
vn 0.18336125 0.70575756 -0.68431347
vn 0.06174580 0.70575756 -0.70575756
vn 0.06174580 0.70575756 -0.70575756
vn 0.06174580 0.70575756 -0.70575756
vn 0.06174580 0.70575756 -0.70575756
vn 0.02765577 0.94832043 -0.31610681
vn 0.02765577 0.94832043 -0.31610681
vn 0.02765577 0.94832043 -0.31610681
vn 0.02765577 0.94832043 -0.31610681
vn 0.08212699 0.94832043 -0.30650206
vn 0.08212699 0.94832043 -0.30650206
vn 0.08212699 0.94832043 -0.30650206
vn 0.08212699 0.94832043 -0.30650206
vn 0.40635221 0.70575756 -0.58033107
vn 0.40635221 0.70575756 -0.58033107
vn 0.40635221 0.70575756 -0.58033107
vn 0.40635221 0.70575756 -0.58033107
vn 0.18200400 0.94832043 -0.25992864
vn 0.18200400 0.94832043 -0.25992864
vn 0.18200400 0.94832043 -0.25992864
vn 0.18200400 0.94832043 -0.25992864
vn 0.13410282 0.94832043 -0.28758441
vn 0.13410282 0.94832043 -0.28758441
vn 0.13410282 0.94832043 -0.28758441
vn 0.13410282 0.94832043 -0.28758441
vn 0.08212699 0.94832043 -0.30650206
vn 0.08212699 0.94832043 -0.30650206
vn 0.08212699 0.94832043 -0.30650206
vn 0.08212699 0.94832043 -0.30650206
vn 0.02765577 0.94832043 -0.31610681
vn 0.02765577 0.94832043 -0.31610681
vn 0.02765577 0.94832043 -0.31610681
vn 0.02765577 0.94832043 -0.31610681
vn 0.25992865 0.94832043 -0.18200399
vn 0.25992865 0.94832043 -0.18200399
vn 0.25992865 0.94832043 -0.18200399
vn 0.25992865 0.94832043 -0.18200399
vn 0.31610681 0.94832043 -0.02765576
vn 0.31610681 0.94832043 -0.02765576
vn 0.31610681 0.94832043 -0.02765576
vn 0.31610681 0.94832043 -0.02765576
vn 0.28758441 0.94832043 -0.13410281
vn 0.28758441 0.94832043 -0.13410281
vn 0.28758441 0.94832043 -0.13410281
vn 0.28758441 0.94832043 -0.13410281
vn 0.64207687 0.70575756 -0.29940535
vn 0.64207687 0.70575756 -0.29940535
vn 0.64207687 0.70575756 -0.29940535
vn 0.64207687 0.70575756 -0.29940535
vn 0.28758441 0.94832043 -0.13410281
vn 0.28758441 0.94832043 -0.13410281
vn 0.28758441 0.94832043 -0.13410281
vn 0.28758441 0.94832043 -0.13410281
vn 0.70575756 0.70575756 -0.06174577
vn 0.70575756 0.70575756 -0.06174577
vn 0.70575756 0.70575756 -0.06174577
vn 0.70575756 0.70575756 -0.06174577
s 1
usemtl Dirt
f 1/1/1 2/2/2 3/3/3
f 1/1/1 3/3/3 4/4/4
s 2
f 4/5/5 5/6/6 1/8/8
f 5/6/6 6/7/7 1/8/8
s 3
usemtl Grass
f 1/9/9 6/10/10 8/12/12
f 6/10/10 7/11/11 8/12/12
s 4
f 8/13/13 7/14/14 10/16/16
f 7/14/14 9/15/15 10/16/16
s 5
f 19/27/27 18/26/26 17/25/25
f 21/29/29 17/25/25 16/24/24
f 16/24/24 15/23/23 13/19/19
f 15/23/23 9/20/20 13/19/19
f 15/23/23 10/21/21 9/20/20
f 15/23/23 14/22/22 10/21/21
f 13/19/19 12/18/18 16/24/24
f 12/18/18 11/17/17 16/24/24
f 11/17/17 21/29/29 16/24/24
f 21/29/29 20/28/28 17/25/25
f 20/28/28 19/27/27 17/25/25
s 6
f 22/30/30 23/31/31 12/33/33
f 23/31/31 11/32/32 12/33/33
s 7
f 24/34/34 25/35/35 22/37/37
f 25/35/35 23/36/36 22/37/37
s 8
f 26/38/38 24/39/39 27/41/41
f 24/39/39 22/40/40 27/41/41
s 9
usemtl Dirt
f 28/42/42 29/43/43 26/45/45
f 29/43/43 24/44/44 26/45/45
s 10
f 29/46/46 30/47/47 24/49/49
f 30/47/47 25/48/48 24/49/49
s 11
f 30/50/50 31/51/51 25/53/53
f 31/51/51 32/52/52 25/53/53
s 12
f 31/54/54 33/55/55 32/57/57
f 33/55/55 34/56/56 32/57/57
s 13
usemtl Grass
f 32/58/58 34/59/59 36/61/61
f 34/59/59 35/60/60 36/61/61
s 14
f 34/62/62 37/63/63 35/65/65
f 37/63/63 38/64/64 35/65/65
s 15
f 37/66/66 39/67/67 38/69/69
f 39/67/67 40/68/68 38/69/69
s 16
usemtl Dirt
f 41/70/70 42/71/71 37/73/73
f 42/71/71 39/72/72 37/73/73
s 17
f 33/74/74 41/75/75 34/77/77
f 41/75/75 37/76/76 34/77/77
s 18
usemtl Grass
f 25/78/78 32/79/79 23/81/81
f 32/79/79 36/80/80 23/81/81
s 19
f 23/82/82 36/83/83 11/85/85
f 36/83/83 21/84/84 11/85/85
s 20
f 36/86/86 35/87/87 21/89/89
f 35/87/87 20/88/88 21/89/89
s 21
f 35/90/90 38/91/91 20/93/93
f 38/91/91 19/92/92 20/93/93
s 22
f 38/94/94 40/95/95 19/97/97
f 40/95/95 18/96/96 19/97/97
s 23
f 27/98/98 22/99/99 13/101/101
f 22/99/99 12/100/100 13/101/101
s 24
f 10/102/102 14/103/103 43/104/104
f 10/102/102 43/104/104 8/105/105
s 25
f 7/106/106 27/107/107 9/109/109
f 27/107/107 13/108/108 9/109/109
s 26
f 6/110/110 26/111/111 7/113/113
f 26/111/111 27/112/112 7/113/113
s 27
usemtl Dirt
f 5/114/114 28/115/115 6/117/117
f 28/115/115 26/116/116 6/117/117
s 28
usemtl Grass
f 8/118/118 43/119/119 2/120/120
f 8/118/118 2/120/120 1/121/121
