mtllib Materials_Modular_Terrain.mtl
o object1
g object1
v -1.00000000 0.35000000 -0.85000000
v -0.00000000 0.35000000 -0.15000000
v -0.00000000 1.05000000 0.85000000
v -1.00000000 1.05000000 0.15000000
v -0.00000000 1.20000000 1.35000000
v -1.00000000 1.20000000 0.65000000
v -1.50000000 1.20000000 1.50000000
v -1.50000000 1.20000000 0.50000000
v 0.50000000 1.20000000 1.50000000
v -1.50000000 1.05000000 0.00000000
v 0.50000000 1.05000000 1.00000000
v -1.50000000 0.35000000 -1.00000000
v -1.50000000 0.20000000 -1.50000000
v -1.00000000 0.20000000 -1.35000000
v -0.00000000 0.20000000 -0.65000000
v 0.50000000 0.35000000 0.00000000
v 0.50000000 0.20000000 -0.50000000
vt 1.00000000 1.00000000
vt 0.00000000 1.00000000
vt 0.00000000 0.00000000
vt 1.00000000 0.00000000
vt 1.00000000 1.00000000
vt 0.00000000 1.00000000
vt 0.00000000 0.00000000
vt 1.00000000 0.00000000
vt 0.00000000 0.00000000
vt 1.00000000 0.00000000
vt 0.85000000 0.25000000
vt 0.15000000 0.75000000
vt 0.00000000 1.00000000
vt 1.00000000 1.00000000
vt 0.00000000 1.00000000
vt 0.00000000 0.00000000
vt 1.00000000 0.00000000
vt 0.00000000 0.00000000
vt 1.00000000 0.00000000
vt 1.00000000 1.00000000
vt 0.00000000 1.00000000
vt 1.00000000 1.00000000
vt 0.00000000 1.00000000
vt 0.00000000 0.00000000
vt 1.00000000 0.00000000
vt 1.00000000 1.00000000
vt 0.00000000 1.00000000
vt 0.00000000 0.00000000
vt 1.00000000 0.00000000
vt 1.00000000 1.00000000
vt 0.00000000 1.00000000
vt 0.00000000 0.00000000
vt 1.00000000 0.00000000
vt 0.00000000 0.00000000
vt 1.00000000 0.00000000
vt 1.00000000 1.00000000
vt 0.00000000 1.00000000
vt 0.00000000 0.00000000
vt 1.00000000 0.00000000
vt 1.00000000 1.00000000
vt 0.00000000 1.00000000
vn 0.37252933 0.76026395 -0.53218476
vn 0.37252933 0.76026395 -0.53218476
vn 0.37252933 0.76026395 -0.53218476
vn 0.37252933 0.76026395 -0.53218476
vn 0.19719397 0.93901888 -0.28170566
vn 0.19719397 0.93901888 -0.28170566
vn 0.19719397 0.93901888 -0.28170566
vn 0.19719397 0.93901888 -0.28170566
vn -0.00000000 1.00000000 0.00000000
vn -0.00000000 1.00000000 0.00000000
vn -0.00000000 1.00000000 0.00000000
vn -0.00000000 1.00000000 0.00000000
vn -0.00000000 1.00000000 0.00000000
vn 0.08588584 0.95428710 -0.28628613
vn 0.08588584 0.95428710 -0.28628613
vn 0.08588584 0.95428710 -0.28628613
vn 0.08588584 0.95428710 -0.28628613
vn 0.08588584 0.95428710 -0.28628613
vn 0.08588584 0.95428710 -0.28628613
vn 0.08588584 0.95428710 -0.28628613
vn 0.08588584 0.95428710 -0.28628613
vn 0.16954792 0.80737104 -0.56515972
vn 0.16954792 0.80737104 -0.56515972
vn 0.16954792 0.80737104 -0.56515972
vn 0.16954792 0.80737104 -0.56515972
vn 0.08588584 0.95428710 -0.28628613
vn 0.08588584 0.95428710 -0.28628613
vn 0.08588584 0.95428710 -0.28628613
vn 0.08588584 0.95428710 -0.28628613
vn 0.19719397 0.93901888 -0.28170566
vn 0.19719397 0.93901888 -0.28170566
vn 0.19719397 0.93901888 -0.28170566
vn 0.19719397 0.93901888 -0.28170566
vn 0.08588584 0.95428710 -0.28628613
vn 0.08588584 0.95428710 -0.28628613
vn 0.08588584 0.95428710 -0.28628613
vn 0.08588584 0.95428710 -0.28628613
vn 0.16954792 0.80737104 -0.56515972
vn 0.16954792 0.80737104 -0.56515972
vn 0.16954792 0.80737104 -0.56515972
vn 0.16954792 0.80737104 -0.56515972
s 1
usemtl Grass
f 4/4/4 3/3/3 2/2/2
f 4/4/4 2/2/2 1/1/1
s 2
f 6/8/8 5/7/7 3/6/6
f 6/8/8 3/6/6 4/5/5
s 3
f 6/11/11 8/10/10 7/9/9
f 9/13/13 5/12/12 7/9/9
f 5/12/12 6/11/11 7/9/9
s 4
f 8/17/17 6/16/16 4/15/15
f 8/17/17 4/15/15 10/14/14
s 5
f 11/21/21 3/20/20 5/19/19
f 11/21/21 5/19/19 9/18/18
s 6
f 10/25/25 4/24/24 1/23/23
f 10/25/25 1/23/23 12/22/22
s 7
f 12/29/29 1/28/28 14/27/27
f 12/29/29 14/27/27 13/26/26
s 8
f 1/33/33 2/32/32 15/31/31
f 1/33/33 15/31/31 14/30/30
s 9
f 17/37/37 15/36/36 2/35/35
f 17/37/37 2/35/35 16/34/34
s 10
f 16/41/41 2/40/40 3/39/39
f 16/41/41 3/39/39 11/38/38
