mtllib Materials_Modular_Terrain.mtl
o object1
g object1
v -0.55707818 -0.00314294 0.57500000
v -0.59275204 0.74600817 0.57500000
v -0.44292182 0.75314294 0.57500000
v -0.40724796 0.00399183 0.57500000
v -0.44292182 0.75314294 0.42500000
v -0.40724796 0.00399183 0.42500000
v -0.53507275 0.74875480 0.42500000
v -0.51783693 0.62457555 0.42500000
v -0.50037176 0.75040723 0.42500000
v -0.55707818 -0.00314294 0.42500000
v -0.59275204 0.74600817 0.42500000
v -0.51783693 0.74957555 0.50000000
vt 0.00000000 0.00000000
vt 1.00000000 0.00000000
vt 1.00000000 1.00000000
vt 0.00000000 1.00000000
vt 0.00000000 0.00000000
vt 1.00000000 0.00000000
vt 1.00000000 1.00000000
vt 0.00000000 1.00000000
vt 1.00000000 0.38496433
vt 0.83352198 0.46036238
vt 1.00000000 0.61656642
vt 1.00000000 1.00000000
vt 0.00000000 1.00000000
vt 0.00000000 0.00000000
vt 1.00000000 0.00000000
vt 0.00000000 0.00000000
vt 1.00000000 0.00000000
vt 0.73046616 1.00000000
vt 0.00000000 1.00000000
vt 0.74018632 0.00000000
vt 1.00000000 1.00000000
vt 0.00000000 0.00000000
vt 1.00000000 0.00000000
vt 1.00000000 1.00000000
vt 0.00000000 1.00000000
vt 1.00000000 0.38496433
vt 0.50000000 0.50000000
vt 1.00000000 0.61656642
vt 1.00000000 1.00000000
vt 0.00000000 1.00000000
vt 0.00000000 0.00000000
vt 1.00000000 0.00000000
vn 0.00000000 0.00000000 1.00000000
vn 0.00000000 0.00000000 1.00000000
vn 0.00000000 0.00000000 1.00000000
vn 0.00000000 0.00000000 1.00000000
vn 0.99886814 0.04756515 0.00000000
vn 0.99886814 0.04756515 0.00000000
vn 0.99886814 0.04756515 0.00000000
vn 0.99886814 0.04756515 0.00000000
vn 0.00000000 0.00000000 -1.00000000
vn 0.00000000 0.00000000 -1.00000000
vn 0.00000000 0.00000000 -1.00000000
vn 0.00000000 0.00000000 -1.00000000
vn 0.00000000 0.00000000 -1.00000000
vn 0.00000000 0.00000000 -1.00000000
vn 0.00000000 0.00000000 -1.00000000
vn 0.96548382 0.13400713 -0.22334522
vn 0.96548382 0.13400713 -0.22334522
vn 0.96548382 0.13400713 -0.22334522
vn -0.96548382 0.13400713 -0.22334522
vn -0.96548382 0.13400713 -0.22334522
vn -0.96548382 0.13400713 -0.22334522
vn -0.99886814 -0.04756515 0.00000000
vn -0.99886814 -0.04756515 0.00000000
vn -0.99886814 -0.04756515 0.00000000
vn -0.99886814 -0.04756515 0.00000000
vn -0.04756515 0.99886814 0.00000000
vn -0.04756515 0.99886814 0.00000000
vn -0.04756515 0.99886814 0.00000000
vn -0.04756515 0.99886814 0.00000000
vn -0.04756515 0.99886814 0.00000000
vn -0.04756515 0.99886814 0.00000000
vn -0.04756515 0.99886814 0.00000000
s 1
usemtl Wood_Dark
f 4/4/4 3/3/3 1/1/1
f 3/3/3 2/2/2 1/1/1
s 2
f 6/8/8 5/7/7 4/5/5
f 5/7/7 3/6/6 4/5/5
s 3
f 11/15/15 7/9/9 8/10/10
f 8/10/10 5/12/12 6/13/13
f 8/10/10 9/11/11 5/12/12
f 8/10/10 6/13/13 11/15/15
f 6/13/13 10/14/14 11/15/15
s 4
f 7/18/18 12/17/17 8/16/16
s 5
f 12/21/21 9/20/20 8/19/19
s 6
f 1/22/22 2/23/23 10/25/25
f 2/23/23 11/24/24 10/25/25
s 7
f 5/29/29 9/28/28 12/27/27
f 12/27/27 2/31/31 3/30/30
f 12/27/27 11/32/32 2/31/31
f 12/27/27 7/26/26 11/32/32
f 3/30/30 5/29/29 12/27/27
