mtllib Materials_Modular_Terrain.mtl
o object1
g object1
v -0.57500000 0.74976581 -1.57500000
v -0.57500000 0.74976581 -1.42500000
v -0.57500000 -0.00000000 -1.42500000
v -0.57500000 -0.00000000 -1.57500000
v -0.42500000 0.74976581 -1.57500000
v -0.42500000 -0.00000000 -1.57500000
v -0.42500000 0.74976581 -1.42500000
v -0.42500000 -0.00000000 -1.42500000
vt 1.00000000 0.00000000
vt 1.00000000 1.00000000
vt 0.00000000 1.00000000
vt 0.00000000 0.00000000
vt 1.00000000 0.00000000
vt 1.00000000 1.00000000
vt 0.00000000 1.00000000
vt 0.00000000 0.00000000
vt 1.00000000 0.00000000
vt 1.00000000 1.00000000
vt 0.00000000 1.00000000
vt 0.00000000 0.00000000
vt 1.00000000 0.00000000
vt 1.00000000 1.00000000
vt 0.00000000 1.00000000
vt 0.00000000 0.00000000
vt 1.00000000 0.00000000
vt 1.00000000 1.00000000
vt 0.00000000 1.00000000
vt 0.00000000 0.00000000
vn -1.00000000 0.00000000 0.00000000
vn -1.00000000 0.00000000 0.00000000
vn -1.00000000 0.00000000 0.00000000
vn -1.00000000 0.00000000 0.00000000
vn 0.00000000 0.00000000 -1.00000000
vn 0.00000000 0.00000000 -1.00000000
vn 0.00000000 0.00000000 -1.00000000
vn 0.00000000 0.00000000 -1.00000000
vn 1.00000000 0.00000000 0.00000000
vn 1.00000000 0.00000000 0.00000000
vn 1.00000000 0.00000000 0.00000000
vn 1.00000000 0.00000000 0.00000000
vn 0.00000000 1.00000000 0.00000000
vn 0.00000000 1.00000000 0.00000000
vn 0.00000000 1.00000000 0.00000000
vn 0.00000000 1.00000000 0.00000000
vn 0.00000000 0.00000000 1.00000000
vn 0.00000000 0.00000000 1.00000000
vn 0.00000000 0.00000000 1.00000000
vn 0.00000000 0.00000000 1.00000000
s 1
usemtl Wood_Dark
f 4/4/4 3/3/3 1/1/1
f 3/3/3 2/2/2 1/1/1
s 2
f 1/5/5 5/6/6 4/8/8
f 5/6/6 6/7/7 4/8/8
s 3
f 5/9/9 7/10/10 6/12/12
f 7/10/10 8/11/11 6/12/12
s 4
f 1/16/16 2/15/15 7/14/14
f 1/16/16 7/14/14 5/13/13
s 5
f 3/20/20 8/19/19 2/17/17
f 8/19/19 7/18/18 2/17/17
o object10
g object10
v 0.48376391 0.70000000 0.22681846
v 1.44968974 0.70000000 0.48563750
v 1.44968974 0.55000000 0.48563750
v 0.48376391 0.55000000 0.22681846
v 1.43674879 0.55000000 0.53393379
v 0.47082296 0.55000000 0.27511475
v 0.47082296 0.70000000 0.27511475
v 1.43674879 0.70000000 0.53393379
vt 1.00000000 0.00000000
vt 1.00000000 1.00000000
vt 0.00000000 1.00000000
vt 0.00000000 0.00000000
vt 1.00000000 0.00000000
vt 1.00000000 1.00000000
vt 0.00000000 1.00000000
vt 0.00000000 0.00000000
vt 1.00000000 0.00000000
vt 1.00000000 1.00000000
vt 0.00000000 1.00000000
vt 0.00000000 0.00000000
vt 1.00000000 0.00000000
vt 1.00000000 1.00000000
vt 0.00000000 1.00000000
vt 0.00000000 0.00000000
vn 0.25881905 0.00000000 -0.96592583
vn 0.25881905 0.00000000 -0.96592583
vn 0.25881905 0.00000000 -0.96592583
vn 0.25881905 0.00000000 -0.96592583
vn 0.00000000 -1.00000000 0.00000000
vn 0.00000000 -1.00000000 0.00000000
vn 0.00000000 -1.00000000 0.00000000
vn 0.00000000 -1.00000000 0.00000000
vn -0.25881905 0.00000000 0.96592583
vn -0.25881905 0.00000000 0.96592583
vn -0.25881905 0.00000000 0.96592583
vn -0.25881905 0.00000000 0.96592583
vn 0.00000000 1.00000000 0.00000000
vn 0.00000000 1.00000000 0.00000000
vn 0.00000000 1.00000000 0.00000000
vn 0.00000000 1.00000000 0.00000000
s 1
usemtl Wood_Light
f 9/21/21 10/22/22 12/24/24
f 10/22/22 11/23/23 12/24/24
s 2
f 12/25/25 11/26/26 14/28/28
f 11/26/26 13/27/27 14/28/28
s 3
f 14/32/32 13/31/31 15/29/29
f 13/31/31 16/30/30 15/29/29
s 4
f 15/36/36 16/35/35 10/34/34
f 15/36/36 10/34/34 9/33/33
o object2
g object2
v 1.42500000 0.74976581 0.57500000
v 1.42500000 0.74976581 0.42500000
v 1.42500000 -0.00000000 0.42500000
v 1.42500000 -0.00000000 0.57500000
v 1.57500000 0.74976581 0.57500000
v 1.57500000 -0.00000000 0.57500000
v 1.57500000 0.74976581 0.42500000
v 1.57500000 -0.00000000 0.42500000
vt 1.00000000 0.00000000
vt 1.00000000 1.00000000
vt 0.00000000 1.00000000
vt 0.00000000 0.00000000
vt 1.00000000 0.00000000
vt 1.00000000 1.00000000
vt 0.00000000 1.00000000
vt 0.00000000 0.00000000
vt 1.00000000 0.00000000
vt 1.00000000 1.00000000
vt 0.00000000 1.00000000
vt 0.00000000 0.00000000
vt 1.00000000 0.00000000
vt 1.00000000 1.00000000
vt 0.00000000 1.00000000
vt 0.00000000 0.00000000
vt 1.00000000 0.00000000
vt 1.00000000 1.00000000
vt 0.00000000 1.00000000
vt 0.00000000 0.00000000
vn -1.00000000 0.00000000 0.00000000
vn -1.00000000 0.00000000 0.00000000
vn -1.00000000 0.00000000 0.00000000
vn -1.00000000 0.00000000 0.00000000
vn 0.00000000 0.00000000 1.00000000
vn 0.00000000 0.00000000 1.00000000
vn 0.00000000 0.00000000 1.00000000
vn 0.00000000 0.00000000 1.00000000
vn 1.00000000 0.00000000 0.00000000
vn 1.00000000 0.00000000 0.00000000
vn 1.00000000 0.00000000 0.00000000
vn 1.00000000 0.00000000 0.00000000
vn 0.00000000 1.00000000 0.00000000
vn 0.00000000 1.00000000 0.00000000
vn 0.00000000 1.00000000 0.00000000
vn 0.00000000 1.00000000 0.00000000
vn 0.00000000 0.00000000 -1.00000000
vn 0.00000000 0.00000000 -1.00000000
vn 0.00000000 0.00000000 -1.00000000
vn 0.00000000 0.00000000 -1.00000000
s 1
usemtl Wood_Dark
f 17/37/37 18/38/38 20/40/40
f 18/38/38 19/39/39 20/40/40
s 2
f 20/44/44 22/43/43 17/41/41
f 22/43/43 21/42/42 17/41/41
s 3
f 22/48/48 24/47/47 21/45/45
f 24/47/47 23/46/46 21/45/45
s 4
f 17/52/52 21/51/51 23/50/50
f 17/52/52 23/50/50 18/49/49
s 5
f 18/53/53 23/54/54 19/56/56
f 23/54/54 24/55/55 19/56/56
o object3
g object3
v 0.48376391 0.42500000 0.22681846
v 1.44968974 0.42500000 0.48563750
v 1.43674879 0.42500000 0.53393379
v 0.47082296 0.42500000 0.27511475
v 1.43674879 0.27500000 0.53393379
v 0.47082296 0.27500000 0.27511475
v 0.48376391 0.27500000 0.22681846
v 1.44968974 0.27500000 0.48563750
vt 1.00000000 0.00000000
vt 1.00000000 1.00000000
vt 0.00000000 1.00000000
vt 0.00000000 0.00000000
vt 1.00000000 0.00000000
vt 1.00000000 1.00000000
vt 0.00000000 1.00000000
vt 0.00000000 0.00000000
vt 1.00000000 0.00000000
vt 1.00000000 1.00000000
vt 0.00000000 1.00000000
vt 0.00000000 0.00000000
vt 1.00000000 0.00000000
vt 1.00000000 1.00000000
vt 0.00000000 1.00000000
vt 0.00000000 0.00000000
vn 0.00000000 1.00000000 0.00000000
vn 0.00000000 1.00000000 0.00000000
vn 0.00000000 1.00000000 0.00000000
vn 0.00000000 1.00000000 0.00000000
vn -0.25881905 0.00000000 0.96592583
vn -0.25881905 0.00000000 0.96592583
vn -0.25881905 0.00000000 0.96592583
vn -0.25881905 0.00000000 0.96592583
vn 0.00000000 -1.00000000 0.00000000
vn 0.00000000 -1.00000000 0.00000000
vn 0.00000000 -1.00000000 0.00000000
vn 0.00000000 -1.00000000 0.00000000
vn 0.25881905 0.00000000 -0.96592583
vn 0.25881905 0.00000000 -0.96592583
vn 0.25881905 0.00000000 -0.96592583
vn 0.25881905 0.00000000 -0.96592583
s 1
usemtl Wood_Light
f 28/60/60 27/59/59 26/58/58
f 28/60/60 26/58/58 25/57/57
s 2
f 30/64/64 29/63/63 28/61/61
f 29/63/63 27/62/62 28/61/61
s 3
f 31/65/65 32/66/66 30/68/68
f 32/66/66 29/67/67 30/68/68
s 4
f 25/69/69 26/70/70 31/72/72
f 26/70/70 32/71/71 31/72/72
o object4
g object4
v -0.33450271 0.74976581 -0.52745191
v -0.25950271 0.74976581 -0.39754809
v -0.25950271 -0.00000000 -0.39754809
v -0.33450271 -0.00000000 -0.52745191
v -0.20459890 0.74976581 -0.60245191
v -0.12959890 0.74976581 -0.47254809
v -0.12959890 -0.00000000 -0.47254809
v -0.20459890 -0.00000000 -0.60245191
vt 1.00000000 0.00000000
vt 1.00000000 1.00000000
vt 0.00000000 1.00000000
vt 0.00000000 0.00000000
vt 1.00000000 0.00000000
vt 1.00000000 1.00000000
vt 0.00000000 1.00000000
vt 0.00000000 0.00000000
vt 1.00000000 0.00000000
vt 1.00000000 1.00000000
vt 0.00000000 1.00000000
vt 0.00000000 0.00000000
vt 1.00000000 0.00000000
vt 1.00000000 1.00000000
vt 0.00000000 1.00000000
vt 0.00000000 0.00000000
vt 1.00000000 0.00000000
vt 1.00000000 1.00000000
vt 0.00000000 1.00000000
vt 0.00000000 0.00000000
vn -0.86602540 0.00000000 0.50000000
vn -0.86602540 0.00000000 0.50000000
vn -0.86602540 0.00000000 0.50000000
vn -0.86602540 0.00000000 0.50000000
vn 0.00000000 1.00000000 0.00000000
vn 0.00000000 1.00000000 0.00000000
vn 0.00000000 1.00000000 0.00000000
vn 0.00000000 1.00000000 0.00000000
vn 0.86602540 0.00000000 -0.50000000
vn 0.86602540 0.00000000 -0.50000000
vn 0.86602540 0.00000000 -0.50000000
vn 0.86602540 0.00000000 -0.50000000
vn -0.50000000 0.00000000 -0.86602540
vn -0.50000000 0.00000000 -0.86602540
vn -0.50000000 0.00000000 -0.86602540
vn -0.50000000 0.00000000 -0.86602540
vn 0.50000000 0.00000000 0.86602540
vn 0.50000000 0.00000000 0.86602540
vn 0.50000000 0.00000000 0.86602540
vn 0.50000000 0.00000000 0.86602540
s 1
usemtl Wood_Dark
f 36/76/76 35/75/75 33/73/73
f 35/75/75 34/74/74 33/73/73
s 2
f 33/80/80 34/79/79 38/78/78
f 33/80/80 38/78/78 37/77/77
s 3
f 37/81/81 38/82/82 40/84/84
f 38/82/82 39/83/83 40/84/84
s 4
f 33/85/85 37/86/86 36/88/88
f 37/86/86 40/87/87 36/88/88
s 5
f 35/92/92 39/91/91 34/89/89
f 39/91/91 38/90/90 34/89/89
o object5
g object5
v -0.24349550 0.42500000 -0.51264939
v 0.46361129 0.42500000 0.19445739
v 0.42825595 0.42500000 0.22981273
v -0.27885083 0.42500000 -0.47729405
v 0.42825595 0.27500000 0.22981273
v -0.27885083 0.27500000 -0.47729405
v -0.24349550 0.27500000 -0.51264939
v 0.46361129 0.27500000 0.19445739
vt 1.00000000 0.00000000
vt 1.00000000 1.00000000
vt 0.00000000 1.00000000
vt 0.00000000 0.00000000
vt 1.00000000 0.00000000
vt 1.00000000 1.00000000
vt 0.00000000 1.00000000
vt 0.00000000 0.00000000
vt 1.00000000 0.00000000
vt 1.00000000 1.00000000
vt 0.00000000 1.00000000
vt 0.00000000 0.00000000
vt 1.00000000 0.00000000
vt 1.00000000 1.00000000
vt 0.00000000 1.00000000
vt 0.00000000 0.00000000
vn 0.00000000 1.00000000 0.00000000
vn 0.00000000 1.00000000 0.00000000
vn 0.00000000 1.00000000 0.00000000
vn 0.00000000 1.00000000 0.00000000
vn -0.70710678 0.00000000 0.70710678
vn -0.70710678 0.00000000 0.70710678
vn -0.70710678 0.00000000 0.70710678
vn -0.70710678 0.00000000 0.70710678
vn 0.00000000 -1.00000000 0.00000000
vn 0.00000000 -1.00000000 0.00000000
vn 0.00000000 -1.00000000 0.00000000
vn 0.00000000 -1.00000000 0.00000000
vn 0.70710678 0.00000000 -0.70710678
vn 0.70710678 0.00000000 -0.70710678
vn 0.70710678 0.00000000 -0.70710678
vn 0.70710678 0.00000000 -0.70710678
s 1
usemtl Wood_Light
f 44/96/96 43/95/95 42/94/94
f 44/96/96 42/94/94 41/93/93
s 2
f 46/100/100 45/99/99 44/97/97
f 45/99/99 43/98/98 44/97/97
s 3
f 47/101/101 48/102/102 46/104/104
f 48/102/102 45/103/103 46/104/104
s 4
f 41/105/105 42/106/106 47/108/108
f 42/106/106 48/107/107 47/108/108
o object6
g object6
v -0.50358669 0.70000000 -1.51667704
v -0.24476765 0.70000000 -0.55075121
v -0.29306394 0.70000000 -0.53781026
v -0.55188299 0.70000000 -1.50373609
v -0.29306394 0.55000000 -0.53781026
v -0.55188299 0.55000000 -1.50373609
v -0.50358669 0.55000000 -1.51667704
v -0.24476765 0.55000000 -0.55075121
vt 1.00000000 0.00000000
vt 1.00000000 1.00000000
vt 0.00000000 1.00000000
vt 0.00000000 0.00000000
vt 1.00000000 0.00000000
vt 1.00000000 1.00000000
vt 0.00000000 1.00000000
vt 0.00000000 0.00000000
vt 1.00000000 0.00000000
vt 1.00000000 1.00000000
vt 0.00000000 1.00000000
vt 0.00000000 0.00000000
vt 1.00000000 0.00000000
vt 1.00000000 1.00000000
vt 0.00000000 1.00000000
vt 0.00000000 0.00000000
vn 0.00000000 1.00000000 0.00000000
vn 0.00000000 1.00000000 0.00000000
vn 0.00000000 1.00000000 0.00000000
vn 0.00000000 1.00000000 0.00000000
vn -0.96592583 0.00000000 0.25881905
vn -0.96592583 0.00000000 0.25881905
vn -0.96592583 0.00000000 0.25881905
vn -0.96592583 0.00000000 0.25881905
vn 0.00000000 -1.00000000 0.00000000
vn 0.00000000 -1.00000000 0.00000000
vn 0.00000000 -1.00000000 0.00000000
vn 0.00000000 -1.00000000 0.00000000
vn 0.96592583 0.00000000 -0.25881905
vn 0.96592583 0.00000000 -0.25881905
vn 0.96592583 0.00000000 -0.25881905
vn 0.96592583 0.00000000 -0.25881905
s 1
usemtl Wood_Light
f 52/112/112 51/111/111 50/110/110
f 52/112/112 50/110/110 49/109/109
s 2
f 54/116/116 53/115/115 52/113/113
f 53/115/115 51/114/114 52/113/113
s 3
f 55/117/117 56/118/118 54/120/120
f 56/118/118 53/119/119 54/120/120
s 4
f 49/121/121 50/122/122 55/124/124
f 50/122/122 56/123/123 55/124/124
o object7
g object7
v -0.24349550 0.70000000 -0.51264939
v 0.46361129 0.70000000 0.19445739
v 0.42825595 0.70000000 0.22981273
v -0.27885083 0.70000000 -0.47729405
v 0.42825595 0.55000000 0.22981273
v -0.27885083 0.55000000 -0.47729405
v -0.24349550 0.55000000 -0.51264939
v 0.46361129 0.55000000 0.19445739
vt 1.00000000 0.00000000
vt 1.00000000 1.00000000
vt 0.00000000 1.00000000
vt 0.00000000 0.00000000
vt 1.00000000 0.00000000
vt 1.00000000 1.00000000
vt 0.00000000 1.00000000
vt 0.00000000 0.00000000
vt 1.00000000 0.00000000
vt 1.00000000 1.00000000
vt 0.00000000 1.00000000
vt 0.00000000 0.00000000
vt 1.00000000 0.00000000
vt 1.00000000 1.00000000
vt 0.00000000 1.00000000
vt 0.00000000 0.00000000
vn 0.00000000 1.00000000 0.00000000
vn 0.00000000 1.00000000 0.00000000
vn 0.00000000 1.00000000 0.00000000
vn 0.00000000 1.00000000 0.00000000
vn -0.70710678 0.00000000 0.70710678
vn -0.70710678 0.00000000 0.70710678
vn -0.70710678 0.00000000 0.70710678
vn -0.70710678 0.00000000 0.70710678
vn 0.00000000 -1.00000000 0.00000000
vn 0.00000000 -1.00000000 0.00000000
vn 0.00000000 -1.00000000 0.00000000
vn 0.00000000 -1.00000000 0.00000000
vn 0.70710678 0.00000000 -0.70710678
vn 0.70710678 0.00000000 -0.70710678
vn 0.70710678 0.00000000 -0.70710678
vn 0.70710678 0.00000000 -0.70710678
s 1
usemtl Wood_Light
f 60/128/128 59/127/127 58/126/126
f 60/128/128 58/126/126 57/125/125
s 2
f 62/132/132 61/131/131 60/129/129
f 61/131/131 59/130/130 60/129/129
s 3
f 63/133/133 64/134/134 62/136/136
f 64/134/134 61/135/135 62/136/136
s 4
f 57/137/137 58/138/138 63/140/140
f 58/138/138 64/139/139 63/140/140
o object8
g object8
v 0.39754809 0.74976581 0.25950271
v 0.47254809 0.74976581 0.12959890
v 0.47254809 -0.00000000 0.12959890
v 0.39754809 -0.00000000 0.25950271
v 0.52745191 0.74976581 0.33450271
v 0.52745191 -0.00000000 0.33450271
v 0.60245191 0.74976581 0.20459890
v 0.60245191 -0.00000000 0.20459890
vt 1.00000000 0.00000000
vt 1.00000000 1.00000000
vt 0.00000000 1.00000000
vt 0.00000000 0.00000000
vt 1.00000000 0.00000000
vt 1.00000000 1.00000000
vt 0.00000000 1.00000000
vt 0.00000000 0.00000000
vt 1.00000000 0.00000000
vt 1.00000000 1.00000000
vt 0.00000000 1.00000000
vt 0.00000000 0.00000000
vt 1.00000000 0.00000000
vt 1.00000000 1.00000000
vt 0.00000000 1.00000000
vt 0.00000000 0.00000000
vt 1.00000000 0.00000000
vt 1.00000000 1.00000000
vt 0.00000000 1.00000000
vt 0.00000000 0.00000000
vn -0.86602540 0.00000000 -0.50000000
vn -0.86602540 0.00000000 -0.50000000
vn -0.86602540 0.00000000 -0.50000000
vn -0.86602540 0.00000000 -0.50000000
vn -0.50000000 0.00000000 0.86602540
vn -0.50000000 0.00000000 0.86602540
vn -0.50000000 0.00000000 0.86602540
vn -0.50000000 0.00000000 0.86602540
vn 0.86602540 0.00000000 0.50000000
vn 0.86602540 0.00000000 0.50000000
vn 0.86602540 0.00000000 0.50000000
vn 0.86602540 0.00000000 0.50000000
vn 0.00000000 1.00000000 0.00000000
vn 0.00000000 1.00000000 0.00000000
vn 0.00000000 1.00000000 0.00000000
vn 0.00000000 1.00000000 0.00000000
vn 0.50000000 0.00000000 -0.86602540
vn 0.50000000 0.00000000 -0.86602540
vn 0.50000000 0.00000000 -0.86602540
vn 0.50000000 0.00000000 -0.86602540
s 1
usemtl Wood_Dark
f 65/141/141 66/142/142 68/144/144
f 66/142/142 67/143/143 68/144/144
s 2
f 68/148/148 70/147/147 65/145/145
f 70/147/147 69/146/146 65/145/145
s 3
f 70/152/152 72/151/151 69/149/149
f 72/151/151 71/150/150 69/149/149
s 4
f 65/156/156 69/155/155 71/154/154
f 65/156/156 71/154/154 66/153/153
s 5
f 66/157/157 71/158/158 67/160/160
f 71/158/158 72/159/159 67/160/160
o object9
g object9
v -0.50358669 0.42500000 -1.51667704
v -0.24476765 0.42500000 -0.55075121
v -0.29306394 0.42500000 -0.53781026
v -0.55188299 0.42500000 -1.50373609
v -0.29306394 0.27500000 -0.53781026
v -0.55188299 0.27500000 -1.50373609
v -0.50358669 0.27500000 -1.51667704
v -0.24476765 0.27500000 -0.55075121
vt 1.00000000 0.00000000
vt 1.00000000 1.00000000
vt 0.00000000 1.00000000
vt 0.00000000 0.00000000
vt 1.00000000 0.00000000
vt 1.00000000 1.00000000
vt 0.00000000 1.00000000
vt 0.00000000 0.00000000
vt 1.00000000 0.00000000
vt 1.00000000 1.00000000
vt 0.00000000 1.00000000
vt 0.00000000 0.00000000
vt 1.00000000 0.00000000
vt 1.00000000 1.00000000
vt 0.00000000 1.00000000
vt 0.00000000 0.00000000
vn 0.00000000 1.00000000 0.00000000
vn 0.00000000 1.00000000 0.00000000
vn 0.00000000 1.00000000 0.00000000
vn 0.00000000 1.00000000 0.00000000
vn -0.96592583 0.00000000 0.25881905
vn -0.96592583 0.00000000 0.25881905
vn -0.96592583 0.00000000 0.25881905
vn -0.96592583 0.00000000 0.25881905
vn 0.00000000 -1.00000000 0.00000000
vn 0.00000000 -1.00000000 0.00000000
vn 0.00000000 -1.00000000 0.00000000
vn 0.00000000 -1.00000000 0.00000000
vn 0.96592583 0.00000000 -0.25881905
vn 0.96592583 0.00000000 -0.25881905
vn 0.96592583 0.00000000 -0.25881905
vn 0.96592583 0.00000000 -0.25881905
s 1
usemtl Wood_Light
f 76/164/164 75/163/163 74/162/162
f 76/164/164 74/162/162 73/161/161
s 2
f 78/168/168 77/167/167 76/165/165
f 77/167/167 75/166/166 76/165/165
s 3
f 79/169/169 80/170/170 78/172/172
f 80/170/170 77/171/171 78/172/172
s 4
f 73/173/173 74/174/174 79/176/176
f 74/174/174 80/175/175 79/176/176
