mtllib Materials_Modular_Terrain.mtl
o object1
g object1
v 0.33652146 0.80000000 -0.65269620
v -0.31562742 0.80000000 -0.52226642
v -0.23166190 0.92426407 -0.41233454
v 0.28210458 0.92426407 -0.51508784
v 0.37500000 0.58786797 -0.75000000
v -0.37500000 0.58786797 -0.60000000
v -0.64570847 0.80000000 0.13789569
v -0.75000000 0.58786797 0.15000000
v -0.32735394 0.80000000 0.51992112
v -0.37500000 0.58786797 0.60000000
v -0.25997225 0.92426407 0.40667247
v -0.49821798 0.92426407 0.12077760
v -0.14494449 1.01213203 0.21334495
v -0.24643595 1.01213203 0.09155520
v 0.23555513 1.01213203 0.28944487
v 0.32573593 1.01213203 0.19926407
v 0.32573593 1.01213203 -0.08903819
v 0.18920916 1.01213203 -0.28017568
v -0.08832381 1.01213203 -0.22466909
v 0.53786797 0.92426407 -0.15701910
v 0.53786797 0.92426407 0.28713203
v 0.66213203 0.80000000 0.33860390
v 0.66213203 0.80000000 -0.19684139
v 0.75000000 0.58786797 0.37500000
v 0.75000000 0.58786797 -0.22500000
v 0.75000000 0.11213203 -0.22500000
v 0.75000000 0.11213203 0.37500000
v 0.45000000 -0.18786797 0.25073593
v 0.45000000 -0.18786797 -0.12886048
v 0.37500000 0.11213203 -0.75000000
v 0.24362603 -0.18786797 -0.41778404
v -0.37500000 0.11213203 -0.60000000
v -0.17228932 -0.18786797 -0.33460097
v -0.75000000 0.11213203 0.15000000
v -0.39392645 -0.18786797 0.10867328
v -0.37500000 0.11213203 0.60000000
v -0.21232619 -0.18786797 0.32659359
v 0.37500000 0.11213203 0.75000000
v 0.27639759 -0.18786797 0.42433835
v 0.37500000 0.58786797 0.75000000
v 0.34612002 0.80000000 0.65461591
v 0.30527756 0.92426407 0.51972244
vt 0.00000000 0.00000000
vt 1.00000000 0.00000000
vt 0.90861700 1.00000000
vt 0.12081147 1.00000000
vt 0.94381299 1.00000000
vt 0.07428116 1.00000000
vt 0.00000000 0.00000000
vt 1.00000000 0.00000000
vt 0.93146658 1.00000000
vt 0.05125044 1.00000000
vt 0.00000000 0.00000000
vt 1.00000000 0.00000000
vt 0.94705071 1.00000000
vt 0.09810530 1.00000000
vt 0.00000000 0.00000000
vt 1.00000000 0.00000000
vt 0.00000000 0.00000000
vt 1.00000000 0.00000000
vt 0.91179455 1.00000000
vt 0.16342847 1.00000000
vt 0.79879350 1.00000000
vt 0.37279863 1.00000000
vt 0.00000000 0.00000000
vt 1.00000000 0.00000000
vt 0.13359757 0.82262068
vt 0.00000000 0.15761139
vt 0.15831733 0.00000000
vt 0.66444770 0.00000000
vt 1.00000000 0.23861147
vt 0.90255514 0.72366321
vt 0.34740613 1.00000000
vt 0.68829192 1.00000000
vt 0.15449083 1.00000000
vt 0.00000000 0.00000000
vt 1.00000000 0.00000000
vt 0.84694196 1.00000000
vt 0.19783348 1.00000000
vt 0.00000000 0.00000000
vt 1.00000000 0.00000000
vt 0.00000000 0.00000000
vt 1.00000000 0.00000000
vt 0.92562771 1.00000000
vt 0.09612908 1.00000000
vt 0.95306898 1.00000000
vt 0.06066017 1.00000000
vt 0.00000000 0.00000000
vt 1.00000000 0.00000000
vt 1.00000000 0.00000000
vt 1.00000000 1.00000000
vt 0.00000000 1.00000000
vt 0.00000000 0.00000000
vt 1.00000000 1.00000000
vt 0.00000000 1.00000000
vt 0.20710678 0.00000000
vt 0.83976747 0.00000000
vt 1.00000000 1.00000000
vt 0.00000000 1.00000000
vt 0.14901322 0.00000000
vt 0.69934380 0.00000000
vt 1.00000000 1.00000000
vt 0.00000000 1.00000000
vt 0.25361174 0.00000000
vt 0.80816555 0.00000000
vt 1.00000000 1.00000000
vt 0.00000000 1.00000000
vt 0.17497994 0.00000000
vt 0.76601227 0.00000000
vt 1.00000000 1.00000000
vt 0.00000000 1.00000000
vt 0.33495245 0.00000000
vt 0.81921980 0.00000000
vt 1.00000000 1.00000000
vt 0.00000000 1.00000000
vt 0.13845196 0.00000000
vt 0.79008366 0.00000000
vt 1.00000000 0.00000000
vt 1.00000000 1.00000000
vt 0.00000000 1.00000000
vt 0.00000000 0.00000000
vt 1.00000000 1.00000000
vt 0.00000000 1.00000000
vt 0.30274565 0.00000000
vt 0.76568542 0.00000000
vt 1.00000000 0.00000000
vt 1.00000000 1.00000000
vt 0.00000000 1.00000000
vt 0.00000000 0.00000000
vt 1.00000000 0.00000000
vt 1.00000000 1.00000000
vt 0.00000000 1.00000000
vt 0.00000000 0.00000000
vt 0.93137085 1.00000000
vt 0.08867215 1.00000000
vt 0.00000000 0.00000000
vt 1.00000000 0.00000000
vt 0.00000000 0.00000000
vt 1.00000000 0.00000000
vt 0.88482684 1.00000000
vt 0.14880924 1.00000000
vt 0.73286931 1.00000000
vt 0.34514564 1.00000000
vt 0.00000000 0.00000000
vt 1.00000000 0.00000000
vt 0.80305177 1.00000000
vt 0.12989874 1.00000000
vt 0.00000000 0.00000000
vt 1.00000000 0.00000000
vt 0.76723334 1.00000000
vt 0.17406681 1.00000000
vt 0.00000000 0.00000000
vt 1.00000000 0.00000000
vt 0.00000000 0.00000000
vt 1.00000000 0.00000000
vt 0.90316976 1.00000000
vt 0.06386514 1.00000000
vt 0.93851693 1.00000000
vt 0.04055164 1.00000000
vt 0.00000000 0.00000000
vt 1.00000000 0.00000000
vt 1.00000000 0.00000000
vt 1.00000000 1.00000000
vt 0.00000000 1.00000000
vt 0.00000000 0.00000000
vt 1.00000000 0.00000000
vt 1.00000000 1.00000000
vt 0.00000000 1.00000000
vt 0.00000000 0.00000000
vt 1.00000000 0.00000000
vt 1.00000000 1.00000000
vt 0.00000000 1.00000000
vt 0.00000000 0.00000000
vt 0.91193984 1.00000000
vt 0.04364496 1.00000000
vt 0.00000000 0.00000000
vt 1.00000000 0.00000000
vt 0.00000000 0.00000000
vt 1.00000000 0.00000000
vt 0.85657421 1.00000000
vt 0.07108564 1.00000000
vt 0.80198089 1.00000000
vt 0.26178807 1.00000000
vt 0.00000000 0.00000000
vt 1.00000000 0.00000000
vt 0.00000000 0.00000000
vt 1.00000000 0.00000000
vt 0.88988967 1.00000000
vt 0.08234235 1.00000000
vn -0.13867505 0.70710678 -0.69337525
vn -0.13867505 0.70710678 -0.69337525
vn -0.13867505 0.70710678 -0.69337525
vn -0.13867505 0.70710678 -0.69337525
vn -0.18118768 0.38268343 -0.90593842
vn -0.18118768 0.38268343 -0.90593842
vn -0.18118768 0.38268343 -0.90593842
vn -0.18118768 0.38268343 -0.90593842
vn -0.82634298 0.38268343 -0.41317149
vn -0.82634298 0.38268343 -0.41317149
vn -0.82634298 0.38268343 -0.41317149
vn -0.82634298 0.38268343 -0.41317149
vn -0.70974392 0.38268343 0.59145326
vn -0.70974392 0.38268343 0.59145326
vn -0.70974392 0.38268343 0.59145326
vn -0.70974392 0.38268343 0.59145326
vn -0.54321448 0.70710678 0.45267873
vn -0.54321448 0.70710678 0.45267873
vn -0.54321448 0.70710678 0.45267873
vn -0.54321448 0.70710678 0.45267873
vn -0.29398556 0.92387953 0.24498796
vn -0.29398556 0.92387953 0.24498796
vn -0.29398556 0.92387953 0.24498796
vn -0.29398556 0.92387953 0.24498796
vn 0.00000000 1.00000000 -0.00000000
vn 0.00000000 1.00000000 -0.00000000
vn 0.00000000 1.00000000 -0.00000000
vn 0.00000000 1.00000000 -0.00000000
vn 0.00000000 1.00000000 -0.00000000
vn 0.00000000 1.00000000 -0.00000000
vn 0.00000000 1.00000000 -0.00000000
vn 0.31140232 0.92387953 -0.22243023
vn 0.31140232 0.92387953 -0.22243023
vn 0.31140232 0.92387953 -0.22243023
vn 0.31140232 0.92387953 -0.22243023
vn 0.38268343 0.92387953 0.00000000
vn 0.38268343 0.92387953 0.00000000
vn 0.38268343 0.92387953 0.00000000
vn 0.38268343 0.92387953 0.00000000
vn 0.70710678 0.70710678 0.00000000
vn 0.70710678 0.70710678 0.00000000
vn 0.70710678 0.70710678 0.00000000
vn 0.70710678 0.70710678 0.00000000
vn 0.92387953 0.38268343 0.00000000
vn 0.92387953 0.38268343 0.00000000
vn 0.92387953 0.38268343 0.00000000
vn 0.92387953 0.38268343 0.00000000
vn 1.00000000 0.00000000 0.00000000
vn 1.00000000 0.00000000 0.00000000
vn 1.00000000 0.00000000 0.00000000
vn 1.00000000 0.00000000 0.00000000
vn 0.70710678 -0.70710678 0.00000000
vn 0.70710678 -0.70710678 0.00000000
vn 0.70710678 -0.70710678 0.00000000
vn 0.70710678 -0.70710678 0.00000000
vn 0.57539646 -0.70710678 -0.41099747
vn 0.57539646 -0.70710678 -0.41099747
vn 0.57539646 -0.70710678 -0.41099747
vn 0.57539646 -0.70710678 -0.41099747
vn -0.13867505 -0.70710678 -0.69337525
vn -0.13867505 -0.70710678 -0.69337525
vn -0.13867505 -0.70710678 -0.69337525
vn -0.13867505 -0.70710678 -0.69337525
vn -0.63245553 -0.70710678 -0.31622777
vn -0.63245553 -0.70710678 -0.31622777
vn -0.63245553 -0.70710678 -0.31622777
vn -0.63245553 -0.70710678 -0.31622777
vn -0.54321448 -0.70710678 0.45267873
vn -0.54321448 -0.70710678 0.45267873
vn -0.54321448 -0.70710678 0.45267873
vn -0.54321448 -0.70710678 0.45267873
vn -0.13867505 -0.70710678 0.69337525
vn -0.13867505 -0.70710678 0.69337525
vn -0.13867505 -0.70710678 0.69337525
vn -0.13867505 -0.70710678 0.69337525
vn -0.19611614 0.00000000 0.98058068
vn -0.19611614 0.00000000 0.98058068
vn -0.19611614 0.00000000 0.98058068
vn -0.19611614 0.00000000 0.98058068
vn 0.50000000 -0.70710678 0.50000000
vn 0.50000000 -0.70710678 0.50000000
vn 0.50000000 -0.70710678 0.50000000
vn 0.50000000 -0.70710678 0.50000000
vn 0.70710678 0.00000000 0.70710678
vn 0.70710678 0.00000000 0.70710678
vn 0.70710678 0.00000000 0.70710678
vn 0.70710678 0.00000000 0.70710678
vn 0.81373347 0.00000000 -0.58123819
vn 0.81373347 0.00000000 -0.58123819
vn 0.81373347 0.00000000 -0.58123819
vn 0.81373347 0.00000000 -0.58123819
vn 0.65328148 0.38268343 0.65328148
vn 0.65328148 0.38268343 0.65328148
vn 0.65328148 0.38268343 0.65328148
vn 0.65328148 0.38268343 0.65328148
vn 0.50000000 0.70710678 0.50000000
vn 0.50000000 0.70710678 0.50000000
vn 0.50000000 0.70710678 0.50000000
vn 0.50000000 0.70710678 0.50000000
vn 0.27059805 0.92387953 0.27059805
vn 0.27059805 0.92387953 0.27059805
vn 0.27059805 0.92387953 0.27059805
vn 0.27059805 0.92387953 0.27059805
vn -0.07505040 0.92387953 0.37525198
vn -0.07505040 0.92387953 0.37525198
vn -0.07505040 0.92387953 0.37525198
vn -0.07505040 0.92387953 0.37525198
vn -0.34228247 0.92387953 -0.17114123
vn -0.34228247 0.92387953 -0.17114123
vn -0.34228247 0.92387953 -0.17114123
vn -0.34228247 0.92387953 -0.17114123
vn -0.13867505 0.70710678 0.69337525
vn -0.13867505 0.70710678 0.69337525
vn -0.13867505 0.70710678 0.69337525
vn -0.13867505 0.70710678 0.69337525
vn -0.18118768 0.38268343 0.90593842
vn -0.18118768 0.38268343 0.90593842
vn -0.18118768 0.38268343 0.90593842
vn -0.18118768 0.38268343 0.90593842
vn -0.76822128 0.00000000 0.64018440
vn -0.76822128 0.00000000 0.64018440
vn -0.76822128 0.00000000 0.64018440
vn -0.76822128 0.00000000 0.64018440
vn -0.89442719 0.00000000 -0.44721360
vn -0.89442719 0.00000000 -0.44721360
vn -0.89442719 0.00000000 -0.44721360
vn -0.89442719 0.00000000 -0.44721360
vn -0.19611614 0.00000000 -0.98058068
vn -0.19611614 0.00000000 -0.98058068
vn -0.19611614 0.00000000 -0.98058068
vn -0.19611614 0.00000000 -0.98058068
vn 0.75179170 0.38268343 -0.53699407
vn 0.75179170 0.38268343 -0.53699407
vn 0.75179170 0.38268343 -0.53699407
vn 0.75179170 0.38268343 -0.53699407
vn 0.57539646 0.70710678 -0.41099747
vn 0.57539646 0.70710678 -0.41099747
vn 0.57539646 0.70710678 -0.41099747
vn 0.57539646 0.70710678 -0.41099747
vn -0.07505040 0.92387953 -0.37525198
vn -0.07505040 0.92387953 -0.37525198
vn -0.07505040 0.92387953 -0.37525198
vn -0.07505040 0.92387953 -0.37525198
vn -0.63245553 0.70710678 -0.31622777
vn -0.63245553 0.70710678 -0.31622777
vn -0.63245553 0.70710678 -0.31622777
vn -0.63245553 0.70710678 -0.31622777
s 1
usemtl Rock
f 1/1/1 2/2/2 4/4/4
f 2/2/2 3/3/3 4/4/4
s 2
f 2/5/5 1/6/6 6/8/8
f 1/6/6 5/7/7 6/8/8
s 3
f 7/9/9 2/10/10 6/11/11
f 7/9/9 6/11/11 8/12/12
s 4
f 9/13/13 7/14/14 10/16/16
f 7/14/14 8/15/15 10/16/16
s 5
f 7/17/17 9/18/18 12/20/20
f 9/18/18 11/19/19 12/20/20
s 6
f 13/21/21 14/22/22 11/24/24
f 14/22/22 12/23/23 11/24/24
s 7
f 15/26/26 16/27/27 17/28/28
f 13/25/25 17/28/28 19/30/30
f 19/30/30 14/31/31 13/25/25
f 17/28/28 18/29/29 19/30/30
f 13/25/25 15/26/26 17/28/28
s 8
f 18/32/32 17/33/33 20/34/34
f 18/32/32 20/34/34 4/35/35
s 9
f 17/36/36 16/37/37 20/39/39
f 16/37/37 21/38/38 20/39/39
s 10
f 22/40/40 23/41/41 21/43/43
f 23/41/41 20/42/42 21/43/43
s 11
f 23/44/44 22/45/45 25/47/47
f 22/45/45 24/46/46 25/47/47
s 12
f 27/51/51 26/50/50 24/48/48
f 26/50/50 25/49/49 24/48/48
s 13
f 26/52/52 27/53/53 28/54/54
f 26/52/52 28/54/54 29/55/55
s 14
f 30/56/56 26/57/57 31/59/59
f 26/57/57 29/58/58 31/59/59
s 15
f 32/60/60 30/61/61 31/62/62
f 32/60/60 31/62/62 33/63/63
s 16
f 34/64/64 32/65/65 35/67/67
f 32/65/65 33/66/66 35/67/67
s 17
f 36/68/68 34/69/69 35/70/70
f 36/68/68 35/70/70 37/71/71
s 18
f 38/72/72 36/73/73 39/75/75
f 36/73/73 37/74/74 39/75/75
s 19
f 36/79/79 38/78/78 10/76/76
f 38/78/78 40/77/77 10/76/76
s 20
f 27/80/80 38/81/81 39/82/82
f 27/80/80 39/82/82 28/83/83
s 21
f 38/87/87 27/86/86 40/84/84
f 27/86/86 24/85/85 40/84/84
s 22
f 26/91/91 30/90/90 25/88/88
f 30/90/90 5/89/89 25/88/88
s 23
f 22/92/92 41/93/93 24/95/95
f 41/93/93 40/94/94 24/95/95
s 24
f 41/96/96 22/97/97 42/99/99
f 22/97/97 21/98/98 42/99/99
s 25
f 16/100/100 15/101/101 21/103/103
f 15/101/101 42/102/102 21/103/103
s 26
f 15/104/104 13/105/105 11/106/106
f 15/104/104 11/106/106 42/107/107
s 27
f 14/108/108 19/109/109 3/110/110
f 14/108/108 3/110/110 12/111/111
s 28
f 9/112/112 41/113/113 42/114/114
f 9/112/112 42/114/114 11/115/115
s 29
f 41/116/116 9/117/117 10/118/118
f 41/116/116 10/118/118 40/119/119
s 30
f 34/123/123 36/122/122 8/120/120
f 36/122/122 10/121/121 8/120/120
s 31
f 32/127/127 34/126/126 6/124/124
f 34/126/126 8/125/125 6/124/124
s 32
f 30/131/131 32/130/130 5/128/128
f 32/130/130 6/129/129 5/128/128
s 33
f 1/132/132 23/133/133 25/134/134
f 1/132/132 25/134/134 5/135/135
s 34
f 23/136/136 1/137/137 4/138/138
f 23/136/136 4/138/138 20/139/139
s 35
f 19/140/140 18/141/141 3/143/143
f 18/141/141 4/142/142 3/143/143
s 36
f 2/144/144 7/145/145 12/146/146
f 2/144/144 12/146/146 3/147/147
