mtllib Materials_Modular_Terrain.mtl
o object1
g object1
v 0.14996504 0.59755202 0.52500000
v 0.19851665 0.54614443 0.52500000
v 0.19851665 0.54614443 0.47500000
v 0.14996504 0.59755202 0.47500000
v 0.09855744 0.54900040 0.52500000
v -0.50119781 0.56613627 0.52500000
v -0.49691384 0.71607508 0.52500000
v 0.50267824 0.68751531 0.52500000
v 0.49839428 0.53757649 0.52500000
v 0.50267824 0.68751531 0.47500000
v -0.49691384 0.71607508 0.47500000
v -0.50119781 0.56613627 0.47500000
v 0.09855744 0.54900040 0.47500000
v 0.49839428 0.53757649 0.47500000
vt 1.00000000 0.00000000
vt 1.00000000 1.00000000
vt 0.00000000 1.00000000
vt 0.00000000 0.00000000
vt 0.30000000 0.00000000
vt 0.35000000 0.33333333
vt 0.40000000 0.00000000
vt 1.00000000 0.00000000
vt 1.00000000 1.00000000
vt 0.00000000 1.00000000
vt 0.00000000 0.00000000
vt 0.00000000 0.00000000
vt 1.00000000 0.00000000
vt 1.00000000 1.00000000
vt 0.00000000 1.00000000
vt 1.00000000 0.00000000
vt 1.00000000 1.00000000
vt 0.00000000 1.00000000
vt 0.00000000 0.00000000
vt 1.00000000 0.00000000
vt 1.00000000 1.00000000
vt 0.00000000 1.00000000
vt 0.00000000 0.00000000
vt 0.30000000 0.00000000
vt 0.35000000 0.33333333
vt 0.40000000 0.00000000
vt 1.00000000 0.00000000
vt 1.00000000 1.00000000
vt 0.00000000 1.00000000
vt 0.00000000 0.00000000
vt 0.00000000 1.00000000
vt 0.00000000 0.00000000
vt 1.00000000 0.00000000
vt 1.00000000 1.00000000
vn -0.72701315 -0.68662353 0.00000000
vn -0.72701315 -0.68662353 0.00000000
vn -0.72701315 -0.68662353 0.00000000
vn -0.72701315 -0.68662353 0.00000000
vn 0.00000000 0.00000000 1.00000000
vn 0.00000000 0.00000000 1.00000000
vn 0.00000000 0.00000000 1.00000000
vn 0.00000000 0.00000000 1.00000000
vn 0.00000000 0.00000000 1.00000000
vn 0.00000000 0.00000000 1.00000000
vn 0.00000000 0.00000000 1.00000000
vn 0.02855977 0.99959209 0.00000000
vn 0.02855977 0.99959209 0.00000000
vn 0.02855977 0.99959209 0.00000000
vn 0.02855977 0.99959209 0.00000000
vn -0.02855977 -0.99959209 0.00000000
vn -0.02855977 -0.99959209 0.00000000
vn -0.02855977 -0.99959209 0.00000000
vn -0.02855977 -0.99959209 0.00000000
vn 0.68662353 -0.72701315 0.00000000
vn 0.68662353 -0.72701315 0.00000000
vn 0.68662353 -0.72701315 0.00000000
vn 0.68662353 -0.72701315 0.00000000
vn 0.00000000 0.00000000 -1.00000000
vn 0.00000000 0.00000000 -1.00000000
vn 0.00000000 0.00000000 -1.00000000
vn 0.00000000 0.00000000 -1.00000000
vn 0.00000000 0.00000000 -1.00000000
vn 0.00000000 0.00000000 -1.00000000
vn 0.00000000 0.00000000 -1.00000000
vn -0.02855977 -0.99959209 0.00000000
vn -0.02855977 -0.99959209 0.00000000
vn -0.02855977 -0.99959209 0.00000000
vn -0.02855977 -0.99959209 0.00000000
s 1
usemtl Wood_Light
f 4/4/4 3/3/3 2/2/2
f 4/4/4 2/2/2 1/1/1
s 2
f 2/5/5 9/11/11 8/10/10
f 8/10/10 7/9/9 1/6/6
f 7/9/9 5/7/7 1/6/6
f 7/9/9 6/8/8 5/7/7
f 1/6/6 2/5/5 8/10/10
s 3
f 10/12/12 11/13/13 8/15/15
f 11/13/13 7/14/14 8/15/15
s 4
f 13/19/19 5/18/18 12/16/16
f 5/18/18 6/17/17 12/16/16
s 5
f 13/23/23 4/22/22 1/21/21
f 13/23/23 1/21/21 5/20/20
s 6
f 10/29/29 14/30/30 3/24/24
f 4/25/25 11/28/28 10/29/29
f 13/26/26 12/27/27 11/28/28
f 4/25/25 13/26/26 11/28/28
f 10/29/29 3/24/24 4/25/25
s 7
f 2/34/34 3/33/33 14/32/32
f 2/34/34 14/32/32 9/31/31
o object2
g object2
v -0.24775551 0.43163421 0.52500000
v -0.29912459 0.38304185 0.52500000
v -0.29912459 0.38304185 0.47500000
v -0.24775551 0.43163421 0.47500000
v -0.49765912 0.43857598 0.52500000
v -0.34771696 0.43441092 0.52500000
v 0.50195530 0.41080891 0.52500000
v 0.49779024 0.26086675 0.52500000
v 0.34784808 0.26503181 0.52500000
v 0.24858081 0.29279888 0.52500000
v 0.19790592 0.26919687 0.52500000
v -0.50182418 0.28863382 0.52500000
v -0.49765912 0.43857598 0.47500000
v -0.34771696 0.43441092 0.47500000
v -0.50182418 0.28863382 0.47500000
v 0.19790592 0.26919687 0.47500000
v 0.24858081 0.29279888 0.47500000
v 0.34784808 0.26503181 0.47500000
v 0.49779024 0.26086675 0.47500000
v 0.50195530 0.41080891 0.47500000
vt 1.00000000 0.00000000
vt 1.00000000 1.00000000
vt 0.00000000 1.00000000
vt 0.00000000 0.00000000
vt 1.00000000 1.00000000
vt 0.85000000 1.00000000
vt 0.80000000 0.66666667
vt 0.75000000 1.00000000
vt 0.00000000 1.00000000
vt 0.00000000 0.00000000
vt 0.15000000 0.00000000
vt 0.25000000 0.16666667
vt 0.30000000 0.00000000
vt 1.00000000 0.00000000
vt 1.00000000 0.00000000
vt 1.00000000 1.00000000
vt 0.00000000 1.00000000
vt 0.00000000 0.00000000
vt 1.00000000 0.00000000
vt 1.00000000 1.00000000
vt 0.00000000 1.00000000
vt 0.00000000 0.00000000
vt 1.00000000 0.00000000
vt 1.00000000 1.00000000
vt 0.00000000 1.00000000
vt 0.00000000 0.00000000
vt 1.00000000 0.00000000
vt 1.00000000 1.00000000
vt 0.00000000 1.00000000
vt 0.00000000 0.00000000
vt 0.00000000 1.00000000
vt 0.00000000 0.00000000
vt 1.00000000 0.00000000
vt 1.00000000 1.00000000
vt 0.00000000 1.00000000
vt 0.00000000 0.00000000
vt 1.00000000 0.00000000
vt 1.00000000 1.00000000
vt 1.00000000 1.00000000
vt 0.85000000 1.00000000
vt 0.80000000 0.66666667
vt 0.75000000 1.00000000
vt 0.00000000 1.00000000
vt 0.00000000 0.00000000
vt 0.15000000 0.00000000
vt 0.25000000 0.16666667
vt 0.30000000 0.00000000
vt 1.00000000 0.00000000
vt 1.00000000 0.00000000
vt 1.00000000 1.00000000
vt 0.00000000 1.00000000
vt 0.00000000 0.00000000
vn -0.68719985 0.72646842 0.00000000
vn -0.68719985 0.72646842 0.00000000
vn -0.68719985 0.72646842 0.00000000
vn -0.68719985 0.72646842 0.00000000
vn 0.00000000 0.00000000 1.00000000
vn 0.00000000 0.00000000 1.00000000
vn 0.00000000 0.00000000 1.00000000
vn 0.00000000 0.00000000 1.00000000
vn 0.00000000 0.00000000 1.00000000
vn 0.00000000 0.00000000 1.00000000
vn 0.00000000 0.00000000 1.00000000
vn 0.00000000 0.00000000 1.00000000
vn 0.00000000 0.00000000 1.00000000
vn 0.00000000 0.00000000 1.00000000
vn 0.02776707 0.99961442 0.00000000
vn 0.02776707 0.99961442 0.00000000
vn 0.02776707 0.99961442 0.00000000
vn 0.02776707 0.99961442 0.00000000
vn -0.02776707 -0.99961442 0.00000000
vn -0.02776707 -0.99961442 0.00000000
vn -0.02776707 -0.99961442 0.00000000
vn -0.02776707 -0.99961442 0.00000000
vn 0.42220554 -0.90650013 0.00000000
vn 0.42220554 -0.90650013 0.00000000
vn 0.42220554 -0.90650013 0.00000000
vn 0.42220554 -0.90650013 0.00000000
vn -0.26938012 -0.96303393 0.00000000
vn -0.26938012 -0.96303393 0.00000000
vn -0.26938012 -0.96303393 0.00000000
vn -0.26938012 -0.96303393 0.00000000
vn -0.02776707 -0.99961442 0.00000000
vn -0.02776707 -0.99961442 0.00000000
vn -0.02776707 -0.99961442 0.00000000
vn -0.02776707 -0.99961442 0.00000000
vn 0.02776707 0.99961442 0.00000000
vn 0.02776707 0.99961442 0.00000000
vn 0.02776707 0.99961442 0.00000000
vn 0.02776707 0.99961442 0.00000000
vn 0.00000000 0.00000000 -1.00000000
vn 0.00000000 0.00000000 -1.00000000
vn 0.00000000 0.00000000 -1.00000000
vn 0.00000000 0.00000000 -1.00000000
vn 0.00000000 0.00000000 -1.00000000
vn 0.00000000 0.00000000 -1.00000000
vn 0.00000000 0.00000000 -1.00000000
vn 0.00000000 0.00000000 -1.00000000
vn 0.00000000 0.00000000 -1.00000000
vn 0.00000000 0.00000000 -1.00000000
vn 0.72646842 0.68719985 0.00000000
vn 0.72646842 0.68719985 0.00000000
vn 0.72646842 0.68719985 0.00000000
vn 0.72646842 0.68719985 0.00000000
s 1
usemtl Wood_Light
f 18/38/38 17/37/37 15/35/35
f 17/37/37 16/36/36 15/35/35
s 2
f 16/41/41 20/40/40 19/39/39
f 25/47/47 15/42/42 16/41/41
f 24/46/46 21/43/43 15/42/42
f 23/45/45 22/44/44 21/43/43
f 24/46/46 23/45/45 21/43/43
f 25/47/47 24/46/46 15/42/42
f 16/41/41 26/48/48 25/47/47
f 16/41/41 19/39/39 26/48/48
s 3
f 27/49/49 19/50/50 20/51/51
f 27/49/49 20/51/51 28/52/52
s 4
f 30/56/56 25/55/55 29/53/53
f 25/55/55 26/54/54 29/53/53
s 5
f 24/57/57 25/58/58 31/60/60
f 25/58/58 30/59/59 31/60/60
s 6
f 23/61/61 24/62/62 32/64/64
f 24/62/62 31/63/63 32/64/64
s 7
f 23/68/68 32/67/67 33/66/66
f 23/68/68 33/66/66 22/65/65
s 8
f 21/69/69 34/70/70 15/72/72
f 34/70/70 18/71/71 15/72/72
s 9
f 27/73/73 28/74/74 17/75/75
f 17/75/75 18/76/76 30/81/81
f 18/76/76 31/80/80 30/81/81
f 34/77/77 32/79/79 31/80/80
f 34/77/77 33/78/78 32/79/79
f 18/76/76 34/77/77 31/80/80
f 30/81/81 29/82/82 17/75/75
f 29/82/82 27/73/73 17/75/75
s 10
f 17/86/86 28/85/85 16/83/83
f 28/85/85 20/84/84 16/83/83
