mtllib Materials_Modular_Terrain.mtl
o object1
g object1
v -0.00000000 -0.03500000 -0.00000000
v 0.03878999 0.05845179 -0.00000000
v 0.06292598 0.08590655 0.03563636
v 0.06292598 0.08590655 -0.03563636
v 0.02198099 0.06399554 -0.00000000
v 0.07757997 0.15190358 -0.00000000
v 0.14740194 0.18199822 -0.02672727
v 0.09438896 0.14635983 -0.00000000
v 0.17153794 0.20945299 -0.00000000
v 0.14740194 0.18199822 0.02672727
v 0.15472894 0.21499674 -0.00000000
v 0.26549590 0.26700239 -0.00000000
vt 1.00000000 0.00000000
vt 1.00000000 0.75510204
vt 0.00000000 1.00000000
vt 1.00000000 0.00000000
vt 1.00000000 0.75510204
vt 0.00000000 1.00000000
vt 1.00000000 0.00000000
vt 1.00000000 0.77272727
vt 0.00000000 1.00000000
vt 1.00000000 1.00000000
vt 0.00000000 0.32413793
vt 1.00000000 0.00000000
vt 0.25000000 0.00000000
vt 1.00000000 0.43452381
vt 0.00000000 1.00000000
vt 0.25000000 0.00000000
vt 1.00000000 0.43005952
vt 0.00000000 1.00000000
vt 1.00000000 1.00000000
vt 0.00000000 0.39603960
vt 1.00000000 0.00000000
vt 1.00000000 1.00000000
vt 0.00000000 0.39603960
vt 1.00000000 0.00000000
vt 0.25000000 0.00000000
vt 1.00000000 0.43005952
vt 0.00000000 1.00000000
vt 0.25000000 0.00000000
vt 1.00000000 0.43452381
vt 0.00000000 1.00000000
vt 1.00000000 1.00000000
vt 0.00000000 0.38613861
vt 1.00000000 0.00000000
vt 1.00000000 0.74657534
vt 0.00000000 1.00000000
vt 1.00000000 0.00000000
vt 1.00000000 0.74657534
vt 0.00000000 1.00000000
vt 1.00000000 0.00000000
vt 1.00000000 0.72222222
vt 0.00000000 1.00000000
vt 1.00000000 0.00000000
vt 1.00000000 0.72222222
vt 0.00000000 1.00000000
vt 1.00000000 0.00000000
vt 1.00000000 1.00000000
vt 0.00000000 0.38613861
vt 1.00000000 0.00000000
vt 1.00000000 1.00000000
vt 0.00000000 0.32413793
vt 1.00000000 0.00000000
vt 1.00000000 1.00000000
vt 0.00000000 0.33103448
vt 1.00000000 0.00000000
vt 1.00000000 0.00000000
vt 1.00000000 0.77272727
vt 0.00000000 1.00000000
vt 1.00000000 1.00000000
vt 0.00000000 0.33103448
vt 1.00000000 0.00000000
vn 0.87702460 -0.36403553 -0.31353785
vn 0.87702460 -0.36403553 -0.31353785
vn 0.87702460 -0.36403553 -0.31353785
vn 0.87702460 -0.36403553 0.31353785
vn 0.87702460 -0.36403553 0.31353785
vn 0.87702460 -0.36403553 0.31353785
vn -0.69431943 0.15416684 -0.70296025
vn -0.69431943 0.15416684 -0.70296025
vn -0.69431943 0.15416684 -0.70296025
vn -0.71107178 0.44972980 -0.54048129
vn -0.71107178 0.44972980 -0.54048129
vn -0.71107178 0.44972980 -0.54048129
vn -0.48857541 0.49606468 -0.71778402
vn -0.48857541 0.49606468 -0.71778402
vn -0.48857541 0.49606468 -0.71778402
vn 0.64331574 -0.60861404 0.46447154
vn 0.64331574 -0.60861404 0.46447154
vn 0.64331574 -0.60861404 0.46447154
vn 0.61782483 -0.75546306 0.21810100
vn 0.61782483 -0.75546306 0.21810100
vn 0.61782483 -0.75546306 0.21810100
vn 0.61782483 -0.75546306 -0.21810100
vn 0.61782483 -0.75546306 -0.21810100
vn 0.61782483 -0.75546306 -0.21810100
vn 0.64331574 -0.60861404 -0.46447154
vn 0.64331574 -0.60861404 -0.46447154
vn 0.64331574 -0.60861404 -0.46447154
vn -0.48857541 0.49606468 0.71778402
vn -0.48857541 0.49606468 0.71778402
vn -0.48857541 0.49606468 0.71778402
vn -0.49864479 0.60973225 0.61610060
vn -0.49864479 0.60973225 0.61610060
vn -0.49864479 0.60973225 0.61610060
vn -0.30035374 0.63972408 0.70748903
vn -0.30035374 0.63972408 0.70748903
vn -0.30035374 0.63972408 0.70748903
vn -0.30035374 0.63972408 -0.70748903
vn -0.30035374 0.63972408 -0.70748903
vn -0.30035374 0.63972408 -0.70748903
vn 0.48423564 -0.79058669 -0.37481801
vn 0.48423564 -0.79058669 -0.37481801
vn 0.48423564 -0.79058669 -0.37481801
vn 0.48423564 -0.79058669 0.37481801
vn 0.48423564 -0.79058669 0.37481801
vn 0.48423564 -0.79058669 0.37481801
vn -0.49864479 0.60973225 -0.61610060
vn -0.49864479 0.60973225 -0.61610060
vn -0.49864479 0.60973225 -0.61610060
vn -0.71107178 0.44972980 0.54048129
vn -0.71107178 0.44972980 0.54048129
vn -0.71107178 0.44972980 0.54048129
vn 0.83445711 -0.52776701 0.15856643
vn 0.83445711 -0.52776701 0.15856643
vn 0.83445711 -0.52776701 0.15856643
vn -0.69431943 0.15416684 0.70296025
vn -0.69431943 0.15416684 0.70296025
vn -0.69431943 0.15416684 0.70296025
vn 0.83445711 -0.52776701 -0.15856643
vn 0.83445711 -0.52776701 -0.15856643
vn 0.83445711 -0.52776701 -0.15856643
s 1
usemtl Grass
f 1/1/1 2/2/2 3/3/3
s 2
f 4/6/6 2/5/5 1/4/4
s 3
f 1/7/7 5/8/8 4/9/9
s 4
f 6/10/10 4/11/11 5/12/12
s 5
f 4/15/15 6/14/14 7/13/13
s 6
f 7/16/16 8/17/17 4/18/18
s 7
f 8/19/19 7/20/20 9/21/21
s 8
f 9/24/24 10/23/23 8/22/22
s 9
f 3/27/27 8/26/26 10/25/25
s 10
f 10/28/28 6/29/29 3/30/30
s 11
f 6/31/31 10/32/32 11/33/33
s 12
f 11/34/34 10/35/35 12/36/36
s 13
f 12/39/39 7/38/38 11/37/37
s 14
f 12/42/42 10/41/41 9/40/40
s 15
f 9/43/43 7/44/44 12/45/45
s 16
f 11/48/48 7/47/47 6/46/46
s 17
f 5/51/51 3/50/50 6/49/49
s 18
f 2/54/54 4/53/53 8/52/52
s 19
f 3/57/57 5/56/56 1/55/55
s 20
f 8/58/58 3/59/59 2/60/60
o object2
g object2
v -0.00000000 -0.03500000 -0.00000000
v -0.01911514 0.05845179 -0.03375314
v -0.00000000 0.08590655 -0.07231617
v -0.06201802 0.08590655 -0.03719400
v -0.01083191 0.06399554 -0.01912678
v -0.03823029 0.15190358 -0.06750627
v -0.09589430 0.18199822 -0.11509111
v -0.04651352 0.14635983 -0.08213263
v -0.08453141 0.20945299 -0.14926387
v -0.04938079 0.18199822 -0.14143273
v -0.07624818 0.21499674 -0.13463751
v -0.13083254 0.26700239 -0.23102147
vt 1.00000000 0.00000000
vt 1.00000000 0.75510204
vt 0.00000000 1.00000000
vt 1.00000000 0.00000000
vt 1.00000000 0.75510204
vt 0.00000000 1.00000000
vt 1.00000000 0.00000000
vt 1.00000000 0.77272727
vt 0.00000000 1.00000000
vt 1.00000000 1.00000000
vt 0.00000000 0.32413793
vt 1.00000000 0.00000000
vt 0.25000000 0.00000000
vt 1.00000000 0.43452381
vt 0.00000000 1.00000000
vt 0.25000000 0.00000000
vt 1.00000000 0.43005952
vt 0.00000000 1.00000000
vt 1.00000000 1.00000000
vt 0.00000000 0.39603960
vt 1.00000000 0.00000000
vt 1.00000000 1.00000000
vt 0.00000000 0.39603960
vt 1.00000000 0.00000000
vt 0.25000000 0.00000000
vt 1.00000000 0.43005952
vt 0.00000000 1.00000000
vt 0.25000000 0.00000000
vt 1.00000000 0.43452381
vt 0.00000000 1.00000000
vt 1.00000000 1.00000000
vt 0.00000000 0.38613861
vt 1.00000000 0.00000000
vt 1.00000000 0.74657534
vt 0.00000000 1.00000000
vt 1.00000000 0.00000000
vt 1.00000000 0.74657534
vt 0.00000000 1.00000000
vt 1.00000000 0.00000000
vt 1.00000000 0.72222222
vt 0.00000000 1.00000000
vt 1.00000000 0.00000000
vt 1.00000000 0.72222222
vt 0.00000000 1.00000000
vt 1.00000000 0.00000000
vt 1.00000000 1.00000000
vt 0.00000000 0.38613861
vt 1.00000000 0.00000000
vt 1.00000000 1.00000000
vt 0.00000000 0.32413793
vt 1.00000000 0.00000000
vt 1.00000000 1.00000000
vt 0.00000000 0.33103448
vt 1.00000000 0.00000000
vt 1.00000000 0.00000000
vt 1.00000000 0.77272727
vt 0.00000000 1.00000000
vt 1.00000000 1.00000000
vt 0.00000000 0.33103448
vt 1.00000000 0.00000000
vn -0.70501024 -0.36403553 -0.60863675
vn -0.70501024 -0.36403553 -0.60863675
vn -0.70501024 -0.36403553 -0.60863675
vn -0.15935982 -0.36403553 -0.91765058
vn -0.15935982 -0.36403553 -0.91765058
vn -0.15935982 -0.36403553 -0.91765058
vn -0.26953086 0.15416684 0.95057125
vn -0.26953086 0.15416684 0.95057125
vn -0.26953086 0.15416684 0.95057125
vn -0.11989435 0.44972980 0.88508104
vn -0.11989435 0.44972980 0.88508104
vn -0.11989435 0.44972980 0.88508104
vn -0.38381746 0.49606468 0.77884786
vn -0.38381746 0.49606468 0.77884786
vn -0.38381746 0.49606468 0.77884786
vn 0.08714360 -0.60861404 -0.78866656
vn 0.08714360 -0.60861404 -0.78866656
vn 0.08714360 -0.60861404 -0.78866656
vn -0.11467437 -0.75546306 -0.64507779
vn -0.11467437 -0.75546306 -0.64507779
vn -0.11467437 -0.75546306 -0.64507779
vn -0.49423589 -0.75546306 -0.43012376
vn -0.49423589 -0.75546306 -0.43012376
vn -0.49423589 -0.75546306 -0.43012376
vn -0.72117697 -0.60861404 -0.33089685
vn -0.72117697 -0.60861404 -0.33089685
vn -0.72117697 -0.60861404 -0.33089685
vn 0.86534324 0.49606468 0.07142071
vn 0.86534324 0.49606468 0.07142071
vn 0.86534324 0.49606468 0.07142071
vn 0.78182537 0.60973225 0.13029071
vn 0.78182537 0.60973225 0.13029071
vn 0.78182537 0.60973225 0.13029071
vn 0.76363213 0.63972408 -0.08728730
vn 0.76363213 0.63972408 -0.08728730
vn 0.76363213 0.63972408 -0.08728730
vn -0.46761217 0.63972408 0.60999341
vn -0.46761217 0.63972408 0.60999341
vn -0.46761217 0.63972408 0.60999341
vn -0.56477251 -0.79058669 -0.23665314
vn -0.56477251 -0.79058669 -0.23665314
vn -0.56477251 -0.79058669 -0.23665314
vn 0.08752388 -0.79058669 -0.60606292
vn 0.08752388 -0.79058669 -0.60606292
vn 0.08752388 -0.79058669 -0.60606292
vn -0.29037549 0.60973225 0.73750163
vn -0.29037549 0.60973225 0.73750163
vn -0.29037549 0.60973225 0.73750163
vn 0.82070611 0.44972980 0.35239833
vn 0.82070611 0.44972980 0.35239833
vn 0.82070611 0.44972980 0.35239833
vn -0.27323168 -0.52776701 -0.80424277
vn -0.27323168 -0.52776701 -0.80424277
vn -0.27323168 -0.52776701 -0.80424277
vn 0.95383199 0.15416684 0.25775398
vn 0.95383199 0.15416684 0.25775398
vn 0.95383199 0.15416684 0.25775398
vn -0.54918509 -0.52776701 -0.64796428
vn -0.54918509 -0.52776701 -0.64796428
vn -0.54918509 -0.52776701 -0.64796428
s 1
usemtl Grass
f 13/61/61 14/62/62 15/63/63
s 2
f 16/66/66 14/65/65 13/64/64
s 3
f 13/67/67 17/68/68 16/69/69
s 4
f 18/70/70 16/71/71 17/72/72
s 5
f 16/75/75 18/74/74 19/73/73
s 6
f 19/76/76 20/77/77 16/78/78
s 7
f 20/79/79 19/80/80 21/81/81
s 8
f 21/84/84 22/83/83 20/82/82
s 9
f 15/87/87 20/86/86 22/85/85
s 10
f 22/88/88 18/89/89 15/90/90
s 11
f 18/91/91 22/92/92 23/93/93
s 12
f 23/94/94 22/95/95 24/96/96
s 13
f 24/99/99 19/98/98 23/97/97
s 14
f 24/102/102 22/101/101 21/100/100
s 15
f 21/103/103 19/104/104 24/105/105
s 16
f 23/108/108 19/107/107 18/106/106
s 17
f 17/111/111 15/110/110 18/109/109
s 18
f 14/114/114 16/113/113 20/112/112
s 19
f 15/117/117 17/116/116 13/115/115
s 20
f 20/118/118 15/119/119 14/120/120
o object3
g object3
v -0.00000000 -0.03500000 -0.00000000
v -0.01828929 0.06399554 0.01219286
v -0.03259008 0.08590655 0.06455630
v -0.07212508 0.08590655 0.00525380
v -0.03227522 0.05845179 0.02151681
v -0.07853637 0.14635983 0.05235758
v -0.13747146 0.18199822 0.05952545
v -0.06455044 0.15190358 0.04303363
v -0.12874226 0.21499674 0.08582817
v -0.10782021 0.18199822 0.10400232
v -0.14272819 0.20945299 0.09515213
v -0.22090594 0.26700239 0.14727063
vt 1.00000000 0.00000000
vt 1.00000000 0.77272727
vt 0.00000000 1.00000000
vt 1.00000000 0.00000000
vt 1.00000000 0.77272727
vt 0.00000000 1.00000000
vt 1.00000000 0.00000000
vt 1.00000000 0.75510204
vt 0.00000000 1.00000000
vt 1.00000000 1.00000000
vt 0.00000000 0.33103448
vt 1.00000000 0.00000000
vt 0.25000000 0.00000000
vt 1.00000000 0.43005952
vt 0.00000000 1.00000000
vt 0.25000000 0.00000000
vt 1.00000000 0.43452381
vt 0.00000000 1.00000000
vt 1.00000000 1.00000000
vt 0.00000000 0.38613861
vt 1.00000000 0.00000000
vt 1.00000000 1.00000000
vt 0.00000000 0.38613861
vt 1.00000000 0.00000000
vt 0.25000000 0.00000000
vt 1.00000000 0.43452381
vt 0.00000000 1.00000000
vt 0.25000000 0.00000000
vt 1.00000000 0.43005952
vt 0.00000000 1.00000000
vt 1.00000000 1.00000000
vt 0.00000000 0.39603960
vt 1.00000000 0.00000000
vt 1.00000000 0.72222222
vt 0.00000000 1.00000000
vt 1.00000000 0.00000000
vt 1.00000000 0.72222222
vt 0.00000000 1.00000000
vt 1.00000000 0.00000000
vt 1.00000000 0.74657534
vt 0.00000000 1.00000000
vt 1.00000000 0.00000000
vt 1.00000000 0.74657534
vt 0.00000000 1.00000000
vt 1.00000000 0.00000000
vt 1.00000000 1.00000000
vt 0.00000000 0.39603960
vt 1.00000000 0.00000000
vt 1.00000000 1.00000000
vt 0.00000000 0.33103448
vt 1.00000000 0.00000000
vt 1.00000000 1.00000000
vt 0.00000000 0.32413793
vt 1.00000000 0.00000000
vt 1.00000000 0.00000000
vt 1.00000000 0.75510204
vt 0.00000000 1.00000000
vt 1.00000000 1.00000000
vt 0.00000000 0.32413793
vt 1.00000000 0.00000000
vn 0.96764088 0.15416684 0.19975915
vn 0.96764088 0.15416684 0.19975915
vn 0.96764088 0.15416684 0.19975915
vn 0.18777650 0.15416684 -0.97003741
vn 0.18777650 0.15416684 -0.97003741
vn 0.18777650 0.15416684 -0.97003741
vn -0.55580907 -0.36403553 0.74736498
vn -0.55580907 -0.36403553 0.74736498
vn -0.55580907 -0.36403553 0.74736498
vn -0.60635345 -0.52776701 0.59480877
vn -0.60635345 -0.52776701 0.59480877
vn -0.60635345 -0.52776701 0.59480877
vn -0.27762859 -0.60861404 0.74331105
vn -0.27762859 -0.60861404 0.74331105
vn -0.27762859 -0.60861404 0.74331105
vn 0.00836437 0.49606468 -0.86824528
vn 0.00836437 0.49606468 -0.86824528
vn 0.00836437 0.49606468 -0.86824528
vn 0.07314642 0.60973225 -0.78922505
vn 0.07314642 0.60973225 -0.78922505
vn 0.07314642 0.60973225 -0.78922505
vn 0.75664867 0.60973225 0.23602832
vn 0.75664867 0.60973225 0.23602832
vn 0.75664867 0.60973225 0.23602832
vn 0.80467425 0.49606468 0.32621953
vn 0.80467425 0.49606468 0.32621953
vn 0.80467425 0.49606468 0.32621953
vn -0.79291351 -0.60861404 -0.02961632
vn -0.79291351 -0.60861404 -0.02961632
vn -0.79291351 -0.60861404 -0.02961632
vn -0.63504200 -0.75546306 0.16123655
vn -0.63504200 -0.75546306 0.16123655
vn -0.63504200 -0.75546306 0.16123655
vn -0.61082003 -0.79058669 -0.04326183
vn -0.61082003 -0.79058669 -0.04326183
vn -0.61082003 -0.79058669 -0.04326183
vn -0.19499678 -0.79058669 0.58047304
vn -0.19499678 -0.79058669 0.58047304
vn -0.19499678 -0.79058669 0.58047304
vn 0.64235373 0.63972408 0.42206018
vn 0.64235373 0.63972408 0.42206018
vn 0.64235373 0.63972408 0.42206018
vn -0.14253488 0.63972408 -0.75527274
vn -0.14253488 0.63972408 -0.75527274
vn -0.14253488 0.63972408 -0.75527274
vn -0.39308066 -0.75546306 0.52417855
vn -0.39308066 -0.75546306 0.52417855
vn -0.39308066 -0.75546306 0.52417855
vn -0.78226711 -0.52776701 0.33093828
vn -0.78226711 -0.52776701 0.33093828
vn -0.78226711 -0.52776701 0.33093828
vn 0.29184241 0.44972980 -0.84413927
vn 0.29184241 0.44972980 -0.84413927
vn 0.29184241 0.44972980 -0.84413927
vn -0.90364808 -0.36403553 0.22560646
vn -0.90364808 -0.36403553 0.22560646
vn -0.90364808 -0.36403553 0.22560646
vn 0.89145256 0.44972980 0.05527596
vn 0.89145256 0.44972980 0.05527596
vn 0.89145256 0.44972980 0.05527596
s 1
usemtl Grass
f 25/121/121 26/122/122 27/123/123
s 2
f 28/126/126 26/125/125 25/124/124
s 3
f 25/127/127 29/128/128 28/129/129
s 4
f 30/130/130 28/131/131 29/132/132
s 5
f 28/135/135 30/134/134 31/133/133
s 6
f 31/136/136 32/137/137 28/138/138
s 7
f 32/139/139 31/140/140 33/141/141
s 8
f 33/144/144 34/143/143 32/142/142
s 9
f 27/147/147 32/146/146 34/145/145
s 10
f 34/148/148 30/149/149 27/150/150
s 11
f 30/151/151 34/152/152 35/153/153
s 12
f 35/154/154 34/155/155 36/156/156
s 13
f 36/159/159 31/158/158 35/157/157
s 14
f 36/162/162 34/161/161 33/160/160
s 15
f 33/163/163 31/164/164 36/165/165
s 16
f 35/168/168 31/167/167 30/166/166
s 17
f 29/171/171 27/170/170 30/169/169
s 18
f 26/174/174 28/173/173 32/172/172
s 19
f 27/177/177 29/176/176 25/175/175
s 20
f 32/178/178 27/179/179 26/180/180
