mtllib Materials_Modular_Terrain.mtl
o object1
g object1
v -0.35000000 0.15000000 0.04444444
v -0.20000000 0.15000000 0.26666667
v -0.15910809 0.24142136 0.19716232
v -0.27434879 0.24142136 0.02643536
v -0.20000000 0.00000000 0.26666667
v -0.35000000 0.00000000 0.04444444
v 0.13750000 0.00000000 0.40000000
v 0.13750000 0.15000000 0.40000000
v 0.36250000 0.00000000 0.26666667
v 0.36250000 0.15000000 0.26666667
v 0.30184215 0.24142136 0.21175678
v 0.13223895 0.24142136 0.31226239
v 0.20800942 0.30000000 0.12681569
v 0.12410053 0.30000000 0.17653948
v -0.15732256 0.30000000 -0.00142323
v -0.09585164 0.30000000 0.08964479
v 0.21812207 0.30000000 0.06688887
v 0.14537625 0.30000000 -0.13428477
v 0.07928932 0.30000000 -0.19302870
v -0.03912973 0.30000000 -0.19302870
v -0.12602896 0.30000000 -0.13123369
v -0.21650930 0.24142136 -0.21349143
v -0.06850831 0.24142136 -0.31873657
v -0.08750000 0.15000000 -0.40000000
v -0.27500000 0.15000000 -0.26666667
v -0.27500000 0.00000000 -0.26666667
v -0.08750000 0.00000000 -0.40000000
v 0.13750000 0.00000000 -0.40000000
v 0.13750000 0.15000000 -0.40000000
v 0.28750000 0.00000000 -0.26666667
v 0.28750000 0.15000000 -0.26666667
v 0.11464466 0.24142136 -0.31873657
v 0.23169775 0.24142136 -0.21468938
v 0.40000000 0.15000000 0.04444444
v 0.32858902 0.24142136 0.05325683
v 0.40000000 0.00000000 0.04444444
vt 0.00000000 0.00000000
vt 1.00000000 0.00000000
vt 0.91567232 1.00000000
vt 0.14740098 1.00000000
vt 0.00000000 1.00000000
vt 0.00000000 0.00000000
vt 1.00000000 0.00000000
vt 1.00000000 1.00000000
vt 0.00000000 1.00000000
vt 0.00000000 0.00000000
vt 1.00000000 0.00000000
vt 1.00000000 1.00000000
vt 0.00000000 1.00000000
vt 0.00000000 0.00000000
vt 1.00000000 0.00000000
vt 1.00000000 1.00000000
vt 0.00000000 0.00000000
vt 1.00000000 0.00000000
vt 0.86669247 1.00000000
vt 0.11290046 1.00000000
vt 0.72642873 1.00000000
vt 0.23169226 1.00000000
vt 0.00000000 0.00000000
vt 1.00000000 0.00000000
vt 0.48154229 1.00000000
vt 0.23512492 0.83627170
vt 0.00000000 0.25042718
vt 0.13454564 0.02693513
vt 0.29669926 0.00000000
vt 0.84104710 0.19375913
vt 1.00000000 0.36978223
vt 1.00000000 0.68519238
vt 0.83279130 0.91664925
vt 0.73994903 1.00000000
vt 0.19890707 1.00000000
vt 0.00000000 0.00000000
vt 1.00000000 0.00000000
vt 0.75736772 1.00000000
vt 0.17021461 1.00000000
vt 0.00000000 0.00000000
vt 1.00000000 0.00000000
vt 0.00000000 0.00000000
vt 1.00000000 0.00000000
vt 0.87619318 1.00000000
vt 0.08685460 1.00000000
vt 0.00000000 1.00000000
vt 0.00000000 0.00000000
vt 1.00000000 0.00000000
vt 1.00000000 1.00000000
vt 0.00000000 1.00000000
vt 0.00000000 0.00000000
vt 1.00000000 0.00000000
vt 1.00000000 1.00000000
vt 0.00000000 1.00000000
vt 0.00000000 0.00000000
vt 1.00000000 0.00000000
vt 1.00000000 1.00000000
vt 0.00000000 0.00000000
vt 1.00000000 0.00000000
vt 0.87810486 1.00000000
vt 0.09775090 1.00000000
vt 0.00000000 0.00000000
vt 1.00000000 0.00000000
vt 0.93582339 1.00000000
vt 0.07456772 1.00000000
vt 0.00000000 1.00000000
vt 0.00000000 0.00000000
vt 1.00000000 0.00000000
vt 1.00000000 1.00000000
vt 0.00000000 0.00000000
vt 1.00000000 0.00000000
vt 0.91559250 1.00000000
vt 0.10157928 1.00000000
vt 0.83959536 1.00000000
vt 0.19303721 1.00000000
vt 0.00000000 0.00000000
vt 1.00000000 0.00000000
vt 0.75836374 1.00000000
vt 0.19377443 1.00000000
vt 0.00000000 0.00000000
vt 1.00000000 0.00000000
vt 0.88473114 1.00000000
vt 0.13393254 1.00000000
vt 0.00000000 0.00000000
vt 1.00000000 0.00000000
vt 0.75845177 1.00000000
vt 0.38036448 1.00000000
vt 0.00000000 0.00000000
vt 1.00000000 0.00000000
vt 0.85694230 1.00000000
vt 0.10199322 1.00000000
vt 0.00000000 0.00000000
vt 1.00000000 0.00000000
vt 0.00000000 0.00000000
vt 1.00000000 0.00000000
vt 0.88862745 1.00000000
vt 0.17537766 1.00000000
vt 0.00000000 1.00000000
vt 0.00000000 0.00000000
vt 1.00000000 0.00000000
vt 1.00000000 1.00000000
vt 0.00000000 1.00000000
vt 0.00000000 0.00000000
vt 1.00000000 0.00000000
vt 1.00000000 1.00000000
vt 0.00000000 0.00000000
vt 1.00000000 0.00000000
vt 0.87035542 1.00000000
vt 0.09916219 1.00000000
vt 0.83020581 1.00000000
vt 0.29679260 1.00000000
vt 0.00000000 0.00000000
vt 1.00000000 0.00000000
vt 0.00000000 0.00000000
vt 1.00000000 0.00000000
vt 0.92016732 1.00000000
vt 0.05691684 1.00000000
vn -0.64845921 0.62282473 0.43770996
vn -0.64845921 0.62282473 0.43770996
vn -0.64845921 0.62282473 0.43770996
vn -0.64845921 0.62282473 0.43770996
vn -0.82884867 0.00000000 0.55947286
vn -0.82884867 0.00000000 0.55947286
vn -0.82884867 0.00000000 0.55947286
vn -0.82884867 0.00000000 0.55947286
vn -0.36742795 0.00000000 0.93005199
vn -0.36742795 0.00000000 0.93005199
vn -0.36742795 0.00000000 0.93005199
vn -0.36742795 0.00000000 0.93005199
vn 0.50980239 0.00000000 0.86029153
vn 0.50980239 0.00000000 0.86029153
vn 0.50980239 0.00000000 0.86029153
vn 0.50980239 0.00000000 0.86029153
vn 0.38748758 0.64983643 0.65388530
vn 0.38748758 0.64983643 0.65388530
vn 0.38748758 0.64983643 0.65388530
vn 0.38748758 0.64983643 0.65388530
vn 0.22227652 0.89994412 0.37509163
vn 0.22227652 0.89994412 0.37509163
vn 0.22227652 0.89994412 0.37509163
vn 0.22227652 0.89994412 0.37509163
vn 0.00000000 1.00000000 0.00000000
vn 0.00000000 1.00000000 0.00000000
vn 0.00000000 1.00000000 0.00000000
vn 0.00000000 1.00000000 0.00000000
vn 0.00000000 1.00000000 0.00000000
vn 0.00000000 1.00000000 0.00000000
vn 0.00000000 1.00000000 0.00000000
vn 0.00000000 1.00000000 0.00000000
vn 0.00000000 1.00000000 0.00000000
vn -0.46603780 0.87760276 -0.11234840
vn -0.46603780 0.87760276 -0.11234840
vn -0.46603780 0.87760276 -0.11234840
vn -0.46603780 0.87760276 -0.11234840
vn -0.25513071 0.89787916 -0.35877756
vn -0.25513071 0.89787916 -0.35877756
vn -0.25513071 0.89787916 -0.35877756
vn -0.25513071 0.89787916 -0.35877756
vn -0.44269726 0.64533660 -0.62254302
vn -0.44269726 0.64533660 -0.62254302
vn -0.44269726 0.64533660 -0.62254302
vn -0.44269726 0.64533660 -0.62254302
vn -0.57952379 0.00000000 -0.81495532
vn -0.57952379 0.00000000 -0.81495532
vn -0.57952379 0.00000000 -0.81495532
vn -0.57952379 0.00000000 -0.81495532
vn 0.00000000 0.00000000 -1.00000000
vn 0.00000000 0.00000000 -1.00000000
vn 0.00000000 0.00000000 -1.00000000
vn 0.00000000 0.00000000 -1.00000000
vn 0.66436384 0.00000000 -0.74740932
vn 0.66436384 0.00000000 -0.74740932
vn 0.66436384 0.00000000 -0.74740932
vn 0.66436384 0.00000000 -0.74740932
vn 0.51110125 0.63887656 -0.57498891
vn 0.51110125 0.63887656 -0.57498891
vn 0.51110125 0.63887656 -0.57498891
vn 0.51110125 0.63887656 -0.57498891
vn 0.74606591 0.60877165 -0.26978276
vn 0.74606591 0.60877165 -0.26978276
vn 0.74606591 0.60877165 -0.26978276
vn 0.74606591 0.60877165 -0.26978276
vn 0.94040479 0.00000000 -0.34005709
vn 0.94040479 0.00000000 -0.34005709
vn 0.94040479 0.00000000 -0.34005709
vn 0.94040479 0.00000000 -0.34005709
vn 0.00000000 0.66436384 -0.74740932
vn 0.00000000 0.66436384 -0.74740932
vn 0.00000000 0.66436384 -0.74740932
vn 0.00000000 0.66436384 -0.74740932
vn 0.00000000 0.90641795 -0.42238193
vn 0.00000000 0.90641795 -0.42238193
vn 0.00000000 0.90641795 -0.42238193
vn 0.00000000 0.90641795 -0.42238193
vn 0.29653176 0.89486375 -0.33359823
vn 0.29653176 0.89486375 -0.33359823
vn 0.29653176 0.89486375 -0.33359823
vn 0.29653176 0.89486375 -0.33359823
vn 0.44670368 0.87997925 -0.16153124
vn 0.44670368 0.87997925 -0.16153124
vn 0.44670368 0.87997925 -0.16153124
vn 0.44670368 0.87997925 -0.16153124
vn 0.47468023 0.87650573 0.08010229
vn 0.47468023 0.87650573 0.08010229
vn 0.47468023 0.87650573 0.08010229
vn 0.47468023 0.87650573 0.08010229
vn -0.15773552 0.90316363 0.39926803
vn -0.15773552 0.90316363 0.39926803
vn -0.15773552 0.90316363 0.39926803
vn -0.15773552 0.90316363 0.39926803
vn 0.78726088 0.60213879 0.13285027
vn 0.78726088 0.60213879 0.13285027
vn 0.78726088 0.60213879 0.13285027
vn 0.78726088 0.60213879 0.13285027
vn 0.98605877 0.00000000 0.16639742
vn 0.98605877 0.00000000 0.16639742
vn 0.98605877 0.00000000 0.16639742
vn 0.98605877 0.00000000 0.16639742
vn -0.97215044 0.00000000 -0.23435769
vn -0.97215044 0.00000000 -0.23435769
vn -0.97215044 0.00000000 -0.23435769
vn -0.97215044 0.00000000 -0.23435769
vn -0.77462755 0.60421861 -0.18674057
vn -0.77462755 0.60421861 -0.18674057
vn -0.77462755 0.60421861 -0.18674057
vn -0.77462755 0.60421861 -0.18674057
vn -0.38257358 0.88710260 0.25823717
vn -0.38257358 0.88710260 0.25823717
vn -0.38257358 0.88710260 0.25823717
vn -0.38257358 0.88710260 0.25823717
vn -0.27700697 0.65697970 0.70117388
vn -0.27700697 0.65697970 0.70117388
vn -0.27700697 0.65697970 0.70117388
vn -0.27700697 0.65697970 0.70117388
s 1
usemtl Rock
f 1/1/1 2/2/2 3/3/3
f 1/1/1 3/3/3 4/4/4
s 2
f 2/8/8 1/7/7 5/5/5
f 1/7/7 6/6/6 5/5/5
s 3
f 8/12/12 2/11/11 7/9/9
f 2/11/11 5/10/10 7/9/9
s 4
f 10/16/16 8/15/15 9/13/13
f 8/15/15 7/14/14 9/13/13
s 5
f 8/17/17 10/18/18 12/20/20
f 10/18/18 11/19/19 12/20/20
s 6
f 13/21/21 14/22/22 11/24/24
f 14/22/22 12/23/23 11/24/24
s 7
f 14/27/27 13/28/28 17/29/29
f 16/26/26 14/27/27 18/30/30
f 18/30/30 19/31/31 20/32/32
f 20/32/32 21/33/33 15/25/25
f 18/30/30 20/32/32 16/26/26
f 20/32/32 15/25/25 16/26/26
f 14/27/27 17/29/29 18/30/30
s 8
f 15/34/34 21/35/35 4/37/37
f 21/35/35 22/36/36 4/37/37
s 9
f 21/38/38 20/39/39 22/41/41
f 20/39/39 23/40/40 22/41/41
s 10
f 24/42/42 25/43/43 23/45/45
f 25/43/43 22/44/44 23/45/45
s 11
f 25/49/49 24/48/48 26/46/46
f 24/48/48 27/47/47 26/46/46
s 12
f 24/53/53 29/52/52 27/50/50
f 29/52/52 28/51/51 27/50/50
s 13
f 29/57/57 31/56/56 28/54/54
f 31/56/56 30/55/55 28/54/54
s 14
f 31/58/58 29/59/59 32/60/60
f 31/58/58 32/60/60 33/61/61
s 15
f 34/62/62 31/63/63 33/64/64
f 34/62/62 33/64/64 35/65/65
s 16
f 31/69/69 34/68/68 30/66/66
f 34/68/68 36/67/67 30/66/66
s 17
f 29/70/70 24/71/71 32/73/73
f 24/71/71 23/72/72 32/73/73
s 18
f 20/74/74 19/75/75 23/77/77
f 19/75/75 32/76/76 23/77/77
s 19
f 19/78/78 18/79/79 33/80/80
f 19/78/78 33/80/80 32/81/81
s 20
f 18/82/82 17/83/83 35/84/84
f 18/82/82 35/84/84 33/85/85
s 21
f 17/86/86 13/87/87 35/89/89
f 13/87/87 11/88/88 35/89/89
s 22
f 14/90/90 16/91/91 3/92/92
f 14/90/90 3/92/92 12/93/93
s 23
f 10/94/94 34/95/95 11/97/97
f 34/95/95 35/96/96 11/97/97
s 24
f 34/101/101 10/100/100 36/98/98
f 10/100/100 9/99/99 36/98/98
s 25
f 1/105/105 25/104/104 6/102/102
f 25/104/104 26/103/103 6/102/102
s 26
f 25/106/106 1/107/107 22/109/109
f 1/107/107 4/108/108 22/109/109
s 27
f 16/110/110 15/111/111 4/112/112
f 16/110/110 4/112/112 3/113/113
s 28
f 2/114/114 8/115/115 12/116/116
f 2/114/114 12/116/116 3/117/117
