mtllib Materials_Modular_Terrain.mtl
o object1
g object1
v -0.28687500 0.20000000 -0.03750000
v -0.25500000 0.20000000 0.07500000
v -0.23610045 0.23750000 0.05276524
v -0.25952331 0.23750000 -0.02990370
v 0.22572658 0.23750000 -0.03654409
v 0.17648551 0.23750000 0.05035191
v -0.06279445 0.23750000 0.12072837
v -0.18279786 0.23750000 -0.12016893
v 0.03588684 0.23750000 -0.08341520
v 0.15222095 0.23750000 -0.15184703
v 0.19125000 0.20000000 0.07500000
v 0.25500000 0.20000000 -0.03750000
v 0.19125000 0.00000000 0.07500000
v 0.25500000 0.00000000 -0.03750000
v -0.06375000 0.00000000 0.15000000
v -0.06375000 0.20000000 0.15000000
v -0.25500000 0.00000000 0.07500000
v 0.15937500 0.00000000 -0.18750000
v 0.15937500 0.20000000 -0.18750000
v 0.03187500 0.00000000 -0.11250000
v 0.03187500 0.20000000 -0.11250000
v -0.19125000 0.00000000 -0.15000000
v -0.19125000 0.20000000 -0.15000000
v -0.28687500 0.00000000 -0.03750000
vt 1.00000000 1.00000000
vt 0.00000000 1.00000000
vt 0.11858541 0.00000000
vt 0.85342037 0.00000000
vt 0.57698699 1.00000000
vt 0.25819080 0.89852431
vt 0.00000000 0.40541762
vt 0.24933701 0.04826969
vt 0.55262532 0.00000000
vt 0.88378225 0.15811534
vt 0.74894348 0.60877943
vt 1.00000000 0.84852006
vt 1.00000000 1.00000000
vt 0.00000000 1.00000000
vt 0.14717203 0.00000000
vt 0.91958091 0.00000000
vt 0.00000000 1.00000000
vt 0.00000000 0.00000000
vt 1.00000000 0.00000000
vt 1.00000000 1.00000000
vt 0.00000000 1.00000000
vt 0.00000000 0.00000000
vt 1.00000000 0.00000000
vt 1.00000000 1.00000000
vt 0.00000000 1.00000000
vt 0.00000000 0.00000000
vt 1.00000000 0.00000000
vt 1.00000000 1.00000000
vt 0.00000000 1.00000000
vt 0.00000000 0.00000000
vt 1.00000000 0.00000000
vt 1.00000000 1.00000000
vt 0.00000000 1.00000000
vt 0.00000000 0.00000000
vt 1.00000000 0.00000000
vt 1.00000000 1.00000000
vt 0.00000000 1.00000000
vt 0.00000000 0.00000000
vt 1.00000000 0.00000000
vt 1.00000000 1.00000000
vt 0.00000000 1.00000000
vt 0.00000000 0.00000000
vt 1.00000000 0.00000000
vt 1.00000000 1.00000000
vt 1.00000000 1.00000000
vt 0.00000000 1.00000000
vt 0.12518645 0.00000000
vt 0.89387274 0.00000000
vt 1.00000000 1.00000000
vt 0.04977933 1.00000000
vt 0.00000000 0.00000000
vt 0.86700454 0.00000000
vt 0.96793003 1.00000000
vt 0.00000000 1.00000000
vt 0.05133224 0.00000000
vt 1.00000000 0.00000000
vt 1.00000000 1.00000000
vt 0.00000000 1.00000000
vt 0.03516223 0.00000000
vt 0.97351505 0.00000000
vt 1.00000000 1.00000000
vt 0.00000000 1.00000000
vt 0.10925401 0.00000000
vt 0.91161165 0.00000000
vt 0.00000000 1.00000000
vt 0.00000000 0.00000000
vt 1.00000000 0.00000000
vt 1.00000000 1.00000000
vt 1.00000000 1.00000000
vt 0.00000000 1.00000000
vt 0.03453215 0.00000000
vt 0.94070729 0.00000000
vn -0.80796632 0.54294044 0.22892379
vn -0.80796632 0.54294044 0.22892379
vn -0.80796632 0.54294044 0.22892379
vn -0.80796632 0.54294044 0.22892379
vn 0.00000000 1.00000000 0.00000000
vn 0.00000000 1.00000000 0.00000000
vn 0.00000000 1.00000000 0.00000000
vn 0.00000000 1.00000000 0.00000000
vn 0.00000000 1.00000000 0.00000000
vn 0.00000000 1.00000000 0.00000000
vn 0.00000000 1.00000000 0.00000000
vn 0.00000000 1.00000000 0.00000000
vn 0.72392673 0.55465793 0.41022515
vn 0.72392673 0.55465793 0.41022515
vn 0.72392673 0.55465793 0.41022515
vn 0.72392673 0.55465793 0.41022515
vn 0.87002219 0.00000000 0.49301257
vn 0.87002219 0.00000000 0.49301257
vn 0.87002219 0.00000000 0.49301257
vn 0.87002219 0.00000000 0.49301257
vn 0.28216632 0.00000000 0.95936550
vn 0.28216632 0.00000000 0.95936550
vn 0.28216632 0.00000000 0.95936550
vn 0.28216632 0.00000000 0.95936550
vn -0.36508753 0.00000000 0.93097320
vn -0.36508753 0.00000000 0.93097320
vn -0.36508753 0.00000000 0.93097320
vn -0.36508753 0.00000000 0.93097320
vn 0.84322720 0.00000000 -0.53755734
vn 0.84322720 0.00000000 -0.53755734
vn 0.84322720 0.00000000 -0.53755734
vn 0.84322720 0.00000000 -0.53755734
vn -0.50702013 0.00000000 -0.86193422
vn -0.50702013 0.00000000 -0.86193422
vn -0.50702013 0.00000000 -0.86193422
vn -0.50702013 0.00000000 -0.86193422
vn 0.16574269 0.00000000 -0.98616903
vn 0.16574269 0.00000000 -0.98616903
vn 0.16574269 0.00000000 -0.98616903
vn 0.16574269 0.00000000 -0.98616903
vn -0.76193932 0.00000000 -0.64764842
vn -0.76193932 0.00000000 -0.64764842
vn -0.76193932 0.00000000 -0.64764842
vn -0.76193932 0.00000000 -0.64764842
vn 0.69989718 0.55773056 -0.44618445
vn 0.69989718 0.55773056 -0.44618445
vn 0.69989718 0.55773056 -0.44618445
vn 0.69989718 0.55773056 -0.44618445
vn -0.41092698 0.58577367 -0.69857586
vn -0.41092698 0.58577367 -0.69857586
vn -0.41092698 0.58577367 -0.69857586
vn -0.41092698 0.58577367 -0.69857586
vn 0.13277647 0.59853054 -0.79002000
vn 0.13277647 0.59853054 -0.79002000
vn 0.13277647 0.59853054 -0.79002000
vn 0.13277647 0.59853054 -0.79002000
vn 0.22663617 0.59570860 0.77056298
vn 0.22663617 0.59570860 0.77056298
vn 0.22663617 0.59570860 0.77056298
vn 0.22663617 0.59570860 0.77056298
vn -0.62803558 0.56621248 -0.53383025
vn -0.62803558 0.56621248 -0.53383025
vn -0.62803558 0.56621248 -0.53383025
vn -0.62803558 0.56621248 -0.53383025
vn -0.96212673 0.00000000 0.27260257
vn -0.96212673 0.00000000 0.27260257
vn -0.96212673 0.00000000 0.27260257
vn -0.96212673 0.00000000 0.27260257
vn -0.29403420 0.59275883 0.74978721
vn -0.29403420 0.59275883 0.74978721
vn -0.29403420 0.59275883 0.74978721
vn -0.29403420 0.59275883 0.74978721
s 1
usemtl Rock
f 1/1/1 2/2/2 3/3/3
f 1/1/1 3/3/3 4/4/4
s 2
f 8/10/10 4/9/9 3/8/8
f 9/11/11 8/10/10 7/7/7
f 7/7/7 6/6/6 9/11/11
f 6/6/6 5/5/5 10/12/12
f 6/6/6 10/12/12 9/11/11
f 8/10/10 3/8/8 7/7/7
s 3
f 11/13/13 12/14/14 5/15/15
f 11/13/13 5/15/15 6/16/16
s 4
f 13/17/17 14/18/18 11/20/20
f 14/18/18 12/19/19 11/20/20
s 5
f 15/21/21 13/22/22 16/24/24
f 13/22/22 11/23/23 16/24/24
s 6
f 17/25/25 15/26/26 2/28/28
f 15/26/26 16/27/27 2/28/28
s 7
f 14/29/29 18/30/30 12/32/32
f 18/30/30 19/31/31 12/32/32
s 8
f 18/33/33 20/34/34 21/35/35
f 18/33/33 21/35/35 19/36/36
s 9
f 20/37/37 22/38/38 21/40/40
f 22/38/38 23/39/39 21/40/40
s 10
f 22/41/41 24/42/42 23/44/44
f 24/42/42 1/43/43 23/44/44
s 11
f 12/45/45 19/46/46 10/47/47
f 12/45/45 10/47/47 5/48/48
s 12
f 19/49/49 21/50/50 10/52/52
f 21/50/50 9/51/51 10/52/52
s 13
f 21/53/53 23/54/54 8/55/55
f 21/53/53 8/55/55 9/56/56
s 14
f 16/57/57 11/58/58 7/60/60
f 11/58/58 6/59/59 7/60/60
s 15
f 23/61/61 1/62/62 8/64/64
f 1/62/62 4/63/63 8/64/64
s 16
f 24/65/65 17/66/66 1/68/68
f 17/66/66 2/67/67 1/68/68
s 17
f 2/69/69 16/70/70 7/71/71
f 2/69/69 7/71/71 3/72/72
