mtllib Materials_Modular_Terrain.mtl
o object1
g object1
v -0.92442478 0.16271418 0.16476607
v -0.92442671 0.09007795 0.14324425
v -0.30766890 0.04311588 0.16012987
v -0.31325271 0.12532253 0.18402689
v -1.40192831 0.17051455 0.37233290
v -1.41261669 0.10383507 0.35419789
v -1.43401473 0.08833739 0.28965032
v -1.41263796 0.22169635 0.32592033
v -1.43403600 0.20619867 0.26137276
v -1.44472438 0.13951919 0.24323775
v -0.92448237 0.12735532 0.01743175
v -0.92445550 0.07239852 0.06957709
v -0.49618116 0.09919768 0.01850925
v -0.49780129 0.08811620 0.02900366
v -0.40978666 0.03216233 0.07617684
v -0.92448044 0.19999155 0.03895357
v -0.29655779 0.16791347 0.04292252
v -0.41298504 0.16250247 0.03886030
v -0.71666151 0.08976503 -0.21080871
v -0.67546604 0.07764850 -0.26126942
v -1.15240132 0.03558092 -0.38463657
v -1.14881161 0.02340107 -0.43538355
v -1.14879213 -0.06499889 -0.41417487
v -1.15238184 -0.05281903 -0.36342788
v -1.15418643 -0.00252913 -0.34865874
v -1.14700701 -0.02688883 -0.45015270
v -0.71664327 -0.02219839 -0.18392502
v -0.67544780 -0.03431491 -0.23438573
v -0.29652953 0.02330803 0.07762917
v 0.43465202 0.05698745 0.15244527
v 0.41331425 0.07739444 0.23741029
v 0.44530594 0.12333978 0.09158864
v 0.40263041 0.16415375 0.26151870
v 0.41328433 0.23050608 0.20066207
v 0.43462210 0.21009909 0.11569705
v -0.30769715 0.18772133 0.12542322
v -0.29097398 0.08570682 0.01902550
v -0.65485918 0.01560854 -0.27305793
v -0.73725012 0.03984158 -0.17213651
v -0.92445165 0.21767098 0.11262073
vt 0.00000000 1.00000000
vt 0.00000000 0.00000000
vt 1.00000000 0.00000000
vt 1.00000000 1.00000000
vt 0.00000000 1.00000000
vt 0.00000000 0.00000000
vt 1.00000000 0.00000000
vt 1.00000000 1.00000000
vt 0.75003349 1.00000000
vt 0.25003349 0.99998490
vt 0.00000000 0.49998490
vt 0.24996651 0.00000000
vt 0.74996651 0.00001510
vt 1.00000000 0.50001510
vt 0.00000000 1.00000000
vt 0.00000000 0.00000000
vt 1.00000000 0.00000000
vt 1.00000000 1.00000000
vt 0.00000000 0.00000000
vt 0.82485479 0.00000000
vt 0.82307241 0.18577567
vt 1.00000000 1.00000000
vt 0.00000000 1.00000000
vt 0.00000000 1.00000000
vt 0.00000000 0.00000000
vt 1.00000000 0.00000000
vt 0.81355878 0.14164815
vt 0.67607820 1.00000000
vt 0.00000000 1.00000000
vt 0.25745002 0.00000000
vt 1.00000000 0.00000000
vt 1.00000000 1.00000000
vt 0.00000000 1.00000000
vt 0.00000000 0.00000000
vt 1.00000000 0.00000000
vt 1.00000000 1.00000000
vt 0.75003402 1.00000000
vt 0.25003402 0.99998560
vt 0.00000000 0.49998560
vt 0.24996598 0.00000000
vt 0.74996598 0.00001440
vt 1.00000000 0.50001440
vt 0.00000000 1.00000000
vt 0.00000000 0.00000000
vt 1.00000000 0.00000000
vt 1.00000000 1.00000000
vt 1.00000000 0.00000000
vt 1.00000000 1.00000000
vt 0.00000000 1.00000000
vt 0.00000000 0.00000000
vt 0.00000000 1.00000000
vt 0.00000000 0.00000000
vt 1.00000000 0.00000000
vt 1.00000000 1.00000000
vt 1.00000000 0.50012103
vt 0.74999603 1.00000000
vt 0.24999603 0.99987897
vt 0.00000000 0.49987897
vt 0.25000397 0.00000000
vt 0.75000397 0.00012103
vt 0.00000000 1.00000000
vt 0.00000000 0.00000000
vt 1.00000000 0.00000000
vt 1.00000000 1.00000000
vt 0.00000000 1.00000000
vt 0.00000000 0.00000000
vt 1.00000000 0.00000000
vt 1.00000000 1.00000000
vt 0.00000000 1.00000000
vt 0.00000000 0.00000000
vt 1.00000000 0.00000000
vt 1.00000000 1.00000000
vt 0.00000000 1.00000000
vt 0.00000000 0.00000000
vt 1.00000000 0.00000000
vt 1.00000000 1.00000000
vt 1.00000000 0.00000000
vt 1.00000000 1.00000000
vt 0.00000000 1.00000000
vt 0.00000000 0.00000000
vt 0.00000000 1.00000000
vt 0.00000000 0.00000000
vt 1.00000000 0.00000000
vt 1.00000000 1.00000000
vt 0.00000000 1.00000000
vt 0.00000000 0.00000000
vt 1.00000000 0.00000000
vt 1.00000000 1.00000000
vt 0.00000000 1.00000000
vt 0.00000000 0.00000000
vt 1.00000000 0.00000000
vt 1.00000000 1.00000000
vt 0.00000000 1.00000000
vt 0.00000000 0.00000000
vt 1.00000000 0.00000000
vt 1.00000000 1.00000000
vt 1.00000000 0.00000000
vt 1.00000000 1.00000000
vt 0.00000000 1.00000000
vt 0.00000000 0.00000000
vt 0.00000000 1.00000000
vt 0.00000000 0.00000000
vt 1.00000000 0.00000000
vt 1.00000000 1.00000000
vt 1.00000000 0.00000000
vt 1.00000000 1.00000000
vt 0.43525874 1.00000000
vt 0.24814291 0.06805127
vt 0.00000000 0.00000000
vt 1.00000000 0.00000000
vt 1.00000000 1.00000000
vt 0.00000000 1.00000000
vt 0.24191137 0.19733191
vt 0.23945690 0.00000000
vt 0.00000000 1.00000000
vt 0.00000000 0.00000000
vt 1.00000000 0.00000000
vt 1.00000000 1.00000000
vt 0.00000000 1.00000000
vt 0.00000000 0.00000000
vt 1.00000000 0.00000000
vt 1.00000000 1.00000000
vt 0.00000000 1.00000000
vt 0.00000000 0.00000000
vt 1.00000000 0.00000000
vt 1.00000000 1.00000000
vt 0.00000000 1.00000000
vt 0.00000000 0.00000000
vt 1.00000000 0.00000000
vt 1.00000000 1.00000000
vt 0.00000000 1.00000000
vt 0.00000000 0.00000000
vt 1.00000000 0.00000000
vt 1.00000000 1.00000000
vt 0.00000000 1.00000000
vt 0.00000000 0.00000000
vt 1.00000000 0.00000000
vt 1.00000000 1.00000000
vt 0.81963300 0.00000000
vt 1.00000000 1.00000000
vt 0.00000000 1.00000000
vt 0.00000000 0.00000000
vn -0.04754280 -0.28376560 0.95771434
vn -0.04782659 -0.28376175 0.95770136
vn -0.04769377 -0.28180769 0.95828479
vn -0.04744074 -0.28179522 0.95830101
vn 0.37632926 -0.29883527 0.87696851
vn 0.37145983 -0.29863702 0.87910951
vn 0.37641908 -0.26320238 0.88827540
vn 0.38104599 -0.26266460 0.88645996
vn -0.95177353 0.07141483 0.29837404
vn -0.95177353 0.07141483 0.29837404
vn -0.95177353 0.07141483 0.29837404
vn -0.95177353 0.07141483 0.29837404
vn -0.95177353 0.07141483 0.29837404
vn -0.95177353 0.07141483 0.29837404
vn -0.31078601 -0.67335055 -0.67082867
vn -0.30743020 -0.67371647 -0.67200654
vn -0.31416611 -0.65353833 -0.68861259
vn -0.31747759 -0.65278050 -0.68781219
vn -0.04338606 -0.68767095 -0.72472499
vn -0.04311110 -0.68363503 -0.72854964
vn -0.04329391 -0.68363162 -0.72854200
vn -0.04402808 -0.68279285 -0.72928420
vn -0.04446582 -0.68763855 -0.72469029
vn 0.02108406 0.28402434 -0.95858523
vn 0.02056889 0.28402741 -0.95859551
vn 0.02038829 0.28035825 -0.95967889
vn 0.02048569 0.28098186 -0.95949442
vn 0.02091814 0.28147168 -0.95934151
vn -0.03981109 0.97036233 -0.23835271
vn -0.03379143 0.96982630 -0.24144377
vn -0.02437467 0.96737261 -0.25218268
vn -0.02654878 0.96688186 -0.25383976
vn -0.02702776 0.97159401 -0.23510545
vn -0.02492530 0.97168114 -0.23497764
vn -0.99764272 -0.01621717 -0.06667838
vn -0.99764272 -0.01621717 -0.06667838
vn -0.99764272 -0.01621717 -0.06667838
vn -0.99764272 -0.01621717 -0.06667838
vn -0.99764272 -0.01621717 -0.06667838
vn -0.99764272 -0.01621717 -0.06667838
vn -0.02091821 -0.97589146 0.21725169
vn -0.01964639 -0.97569663 0.21824321
vn -0.02494406 -0.97248124 0.23164204
vn -0.02702479 -0.97246180 0.23149019
vn -0.03693451 -0.97282392 0.22858142
vn -0.03994674 -0.97280163 0.22816936
vn 0.02088559 -0.97151082 0.23607311
vn 0.02059815 -0.97152553 0.23603783
vn 0.02033948 -0.97097427 0.23831759
vn 0.02061170 -0.97095300 0.23838085
vn 0.97145569 0.05554251 0.23062712
vn 0.97145569 0.05554251 0.23062712
vn 0.97145569 0.05554251 0.23062712
vn 0.97145569 0.05554251 0.23062712
vn 0.97145569 0.05554251 0.23062712
vn 0.97145569 0.05554251 0.23062712
vn -0.11569471 0.68544896 0.71887026
vn -0.11500641 0.68547135 0.71895935
vn -0.11519954 0.68141063 0.72277840
vn -0.11585183 0.68141551 0.72266954
vn -0.03282443 0.97082763 -0.23752108
vn -0.03239915 0.96995875 -0.24110230
vn -0.03197690 0.96999684 -0.24100541
vn 0.07971377 0.28324010 -0.95573049
vn 0.07879333 0.28320296 -0.95581781
vn 0.07941727 0.27595357 -0.95788440
vn 0.08028496 0.27603389 -0.95778892
vn 0.10527735 -0.68575233 -0.72018083
vn 0.10601701 -0.68573329 -0.72009044
vn 0.10620074 -0.68131293 -0.72424726
vn 0.10549993 -0.68130295 -0.72435907
vn 0.55179134 -0.64091852 -0.53361950
vn 0.54288821 -0.64266148 -0.54060948
vn 0.56431140 -0.59131258 -0.57610943
vn 0.57220348 -0.58793518 -0.57176516
vn 0.30412721 -0.65859925 -0.68829766
vn 0.30448705 -0.65861370 -0.68812472
vn 0.30384009 -0.66150474 -0.68563305
vn 0.30335646 -0.66159868 -0.68575655
vn -0.34890064 -0.28549867 0.89261350
vn -0.34786697 -0.28524723 0.89309719
vn -0.34953650 -0.27553111 0.89549251
vn -0.35092574 -0.27543044 0.89498000
vn 0.30451404 0.27445990 -0.91210907
vn 0.30412367 0.27436066 -0.91226916
vn 0.30328766 0.27851075 -0.91128939
vn 0.30381226 0.27848093 -0.91112375
vn -0.34782600 0.65958556 0.66630620
vn -0.34889244 0.65958993 0.66574409
vn -0.35098138 0.65144114 0.67263401
vn -0.34954802 0.65177405 0.67305777
vn 0.54291577 0.32728668 -0.77338599
vn 0.55179854 0.32890600 -0.76638059
vn 0.57216571 0.26453145 -0.77630504
vn 0.56429186 0.26556408 -0.78169714
vn 0.05108367 0.97111526 -0.23307857
vn 0.05199322 0.97106953 -0.23306795
vn 0.05193253 0.97262377 -0.22650831
vn 0.05112076 0.97264032 -0.22662189
vn -0.57529639 -0.33304206 0.74707232
vn -0.56673046 -0.33155967 0.75424451
vn -0.58094305 -0.28893647 0.76093422
vn -0.59194738 -0.27629276 0.75713975
vn -0.59666695 -0.26111301 0.75882049
vn -0.56673028 0.63776921 0.52160064
vn -0.57531437 0.63582823 0.51452487
vn -0.59237613 0.58999652 0.54862978
vn -0.58247330 0.60228641 0.54587172
vn -0.58097209 0.60274890 0.54695996
vn -0.37408463 0.29874488 -0.87795910
vn -0.37869379 0.29892864 -0.87591819
vn -0.38334271 0.26239480 -0.88554917
vn -0.37896761 0.26290712 -0.88727865
vn -0.07888566 0.97495687 -0.20793304
vn -0.08231153 0.97491723 -0.20678782
vn -0.09351740 0.96813630 -0.23230713
vn -0.08964067 0.96848264 -0.23239176
vn 0.30026106 0.67446801 0.67448958
vn 0.30369294 0.67411337 0.67330659
vn 0.31041347 0.65438647 0.68950839
vn 0.30701387 0.65514508 0.69030965
vn 0.06444699 -0.97498419 0.21272614
vn 0.06176018 -0.97496439 0.21361208
vn 0.07018659 -0.96999756 0.23276293
vn 0.07322914 -0.96978513 0.23271076
vn 0.01836341 0.68819657 0.72529185
vn 0.01924647 0.68818537 0.72527958
vn 0.01882752 0.68357996 0.72963276
vn 0.01805187 0.68362649 0.72960877
vn -0.08938761 -0.27686404 0.95674247
vn -0.08856089 -0.27678959 0.95684089
vn -0.07881348 -0.97132705 0.22430380
vn -0.08017150 -0.96925221 0.23264282
vn -0.07876705 -0.96936121 0.23266843
s 1
usemtl Wood_Dark
f 1/1/1 2/2/2 4/4/4
f 4/135/4 3/136/3 33/138/131
f 3/136/3 31/137/130 33/138/131
f 2/2/2 3/3/3 4/4/4
s 2
f 5/5/5 6/6/6 1/8/8
f 6/6/6 2/7/7 1/8/8
s 3
usemtl Wood_Light
f 10/14/14 7/9/9 6/10/10
f 5/11/11 9/13/13 10/14/14
f 5/11/11 8/12/12 9/13/13
f 10/14/14 6/10/10 5/11/11
s 4
usemtl Wood_Dark
f 7/15/15 10/16/16 12/18/18
f 10/16/16 11/17/17 12/18/18
s 5
f 12/23/23 11/19/19 13/20/20
f 14/21/21 15/22/22 12/23/23
f 12/23/23 13/20/20 14/21/21
s 6
f 13/28/28 11/24/24 16/25/25
f 16/25/25 17/26/26 18/27/27
f 18/27/27 13/28/28 16/25/25
s 7
f 20/32/32 19/31/31 18/30/30
f 22/36/34 21/35/33 19/34/31
f 22/36/34 19/34/31 20/33/32
f 20/32/32 18/30/30 17/29/29
f 17/65/29 34/67/62 35/68/63
f 17/65/29 36/66/61 34/67/62
s 8
usemtl Wood_Light
f 26/42/40 23/37/35 24/38/36
f 25/39/37 22/41/39 26/42/40
f 25/39/37 21/40/38 22/41/39
f 26/42/40 24/38/36 25/39/37
s 9
usemtl Wood_Dark
f 24/46/44 23/45/43 27/43/41
f 29/50/46 27/48/41 28/47/42
f 29/50/46 3/49/45 27/48/41
f 15/139/132 3/140/45 2/141/133
f 15/139/132 2/141/133 12/142/134
f 23/45/43 28/44/42 27/43/41
s 10
f 3/51/47 29/52/48 31/54/50
f 29/52/48 30/53/49 31/54/50
s 11
usemtl Wood_Light
f 35/60/56 34/59/55 33/58/54
f 33/58/54 31/57/53 32/55/51
f 31/57/53 30/56/52 32/55/51
f 32/55/51 35/60/56 33/58/54
s 12
usemtl Wood_Dark
f 36/61/57 4/62/58 33/63/59
f 36/61/57 33/63/59 34/64/60
s 13
f 37/69/64 17/70/65 35/71/66
f 37/69/64 35/71/66 32/72/67
s 14
f 29/73/68 37/74/69 30/76/71
f 37/74/69 32/75/70 30/76/71
s 15
f 37/80/75 29/79/74 28/78/73
f 37/80/75 28/78/73 38/77/72
s 16
f 23/84/79 26/83/78 28/81/76
f 26/83/78 38/82/77 28/81/76
s 17
f 25/88/83 24/87/82 39/85/80
f 24/87/82 27/86/81 39/85/80
s 18
f 26/92/87 22/91/86 20/90/85
f 26/92/87 20/90/85 38/89/84
s 19
f 21/96/91 25/95/90 39/94/89
f 21/96/91 39/94/89 19/93/88
s 20
f 17/100/95 37/99/94 20/97/92
f 37/99/94 38/98/93 20/97/92
s 21
f 16/101/96 40/102/97 36/103/98
f 16/101/96 36/103/98 17/104/99
s 22
f 14/107/102 39/106/101 27/105/100
f 3/109/104 15/108/103 27/105/100
f 15/108/103 14/107/102 27/105/100
s 23
f 19/111/106 39/110/105 14/114/109
f 14/114/109 13/113/108 19/111/106
f 13/113/108 18/112/107 19/111/106
s 24
f 10/115/110 9/116/111 16/117/112
f 10/115/110 16/117/112 11/118/113
s 25
f 9/119/114 8/120/115 40/121/116
f 9/119/114 40/121/116 16/122/117
s 26
f 8/123/118 5/124/119 1/125/120
f 8/123/118 1/125/120 40/126/121
s 27
f 6/127/122 7/128/123 2/130/125
f 7/128/123 12/129/124 2/130/125
s 28
f 40/131/126 1/132/127 36/134/129
f 1/132/127 4/133/128 36/134/129
