mtllib Materials_Modular_Terrain.mtl
o object1
g object1
v -0.35000000 0.38658828 -0.47222113
v 0.50000000 0.38658828 -0.47222113
v 0.50000000 0.40574809 -0.43763767
v -0.35000000 0.40574809 -0.43763767
v 0.50000000 0.40574809 -0.22902682
v -0.35000000 0.40574809 -0.22902682
v 0.50000000 0.38658828 -0.19444336
v -0.35000000 0.38658828 -0.19444336
v 0.50000000 0.23269482 -0.19444336
v -0.35000000 0.23269482 -0.19444336
v 0.50000000 0.15574809 -0.33333224
v -0.35000000 0.15574809 -0.33333224
v 0.50000000 0.23269482 -0.47222113
v -0.35000000 0.23269482 -0.47222113
vt 0.00000000 0.00000000
vt 1.00000000 0.00000000
vt 1.00000000 1.00000000
vt 0.00000000 1.00000000
vt 1.00000000 0.00000000
vt 1.00000000 1.00000000
vt 0.00000000 1.00000000
vt 0.00000000 0.00000000
vt 1.00000000 1.00000000
vt 0.00000000 1.00000000
vt 0.00000000 0.00000000
vt 1.00000000 0.00000000
vt 1.00000000 0.00000000
vt 1.00000000 1.00000000
vt 0.00000000 1.00000000
vt 0.00000000 0.00000000
vt 1.00000000 0.00000000
vt 1.00000000 1.00000000
vt 0.00000000 1.00000000
vt 0.00000000 0.00000000
vt 1.00000000 0.00000000
vt 1.00000000 1.00000000
vt 0.00000000 1.00000000
vt 0.00000000 0.00000000
vt 0.00000000 0.07663923
vt 0.12450047 0.00000000
vt 0.87549953 0.00000000
vt 1.00000000 0.07663923
vt 1.00000000 0.69221308
vt 0.50000000 1.00000000
vt 0.00000000 0.69221308
vt 1.00000000 0.00000000
vt 1.00000000 1.00000000
vt 0.00000000 1.00000000
vt 0.00000000 0.00000000
vn 0.00000000 0.87472821 -0.48461383
vn 0.00000000 0.87472821 -0.48461383
vn 0.00000000 0.87472821 -0.48461383
vn 0.00000000 0.87472821 -0.48461383
vn 0.00000000 1.00000000 -0.00000000
vn 0.00000000 1.00000000 -0.00000000
vn 0.00000000 1.00000000 -0.00000000
vn 0.00000000 1.00000000 -0.00000000
vn 0.00000000 0.87472821 0.48461383
vn 0.00000000 0.87472821 0.48461383
vn 0.00000000 0.87472821 0.48461383
vn 0.00000000 0.87472821 0.48461383
vn -0.00000000 0.00000000 1.00000000
vn -0.00000000 0.00000000 1.00000000
vn -0.00000000 0.00000000 1.00000000
vn -0.00000000 0.00000000 1.00000000
vn -0.00000000 -0.87472821 0.48461383
vn -0.00000000 -0.87472821 0.48461383
vn -0.00000000 -0.87472821 0.48461383
vn -0.00000000 -0.87472821 0.48461383
vn -0.00000000 -0.87472821 -0.48461383
vn -0.00000000 -0.87472821 -0.48461383
vn -0.00000000 -0.87472821 -0.48461383
vn -0.00000000 -0.87472821 -0.48461383
vn -1.00000000 -0.00000000 0.00000000
vn -1.00000000 -0.00000000 0.00000000
vn -1.00000000 -0.00000000 0.00000000
vn -1.00000000 -0.00000000 0.00000000
vn -1.00000000 -0.00000000 0.00000000
vn -1.00000000 -0.00000000 0.00000000
vn -1.00000000 -0.00000000 0.00000000
vn 0.00000000 -0.00000000 -1.00000000
vn 0.00000000 -0.00000000 -1.00000000
vn 0.00000000 -0.00000000 -1.00000000
vn 0.00000000 -0.00000000 -1.00000000
s 1
usemtl Wood_Dark
f 4/4/4 3/3/3 2/2/2
f 4/4/4 2/2/2 1/1/1
s 2
usemtl Wood_Light
f 3/8/8 4/7/7 5/5/5
f 4/7/7 6/6/6 5/5/5
s 3
usemtl Wood_Dark
f 5/12/12 6/11/11 7/9/9
f 6/11/11 8/10/10 7/9/9
s 4
f 8/16/16 10/15/15 7/13/13
f 10/15/15 9/14/14 7/13/13
s 5
f 10/20/20 12/19/19 9/17/17
f 12/19/19 11/18/18 9/17/17
s 6
f 12/24/24 14/23/23 13/22/22
f 12/24/24 13/22/22 11/21/21
s 7
usemtl Wood_Light
f 10/29/29 8/28/28 6/27/27
f 14/31/31 10/29/29 4/26/26
f 4/26/26 1/25/25 14/31/31
f 10/29/29 6/27/27 4/26/26
f 14/31/31 12/30/30 10/29/29
s 8
usemtl Wood_Dark
f 14/35/35 1/34/34 2/33/33
f 14/35/35 2/33/33 13/32/32
o object2
g object2
v -0.13786797 0.60000000 -0.50000000
v -0.05000000 0.68786797 -0.50000000
v -0.05000000 0.68786797 0.50000000
v -0.13786797 0.60000000 0.50000000
v -0.26213203 0.60000000 -0.50000000
v -0.26213203 0.60000000 0.50000000
v -0.35000000 0.68786797 -0.50000000
v -0.35000000 0.68786797 0.50000000
v -0.35000000 0.81213203 -0.50000000
v -0.35000000 0.81213203 0.50000000
v -0.26213203 0.90000000 -0.50000000
v -0.26213203 0.90000000 0.50000000
v -0.13786797 0.90000000 -0.50000000
v -0.13786797 0.90000000 0.50000000
v -0.05000000 0.81213203 -0.50000000
v -0.05000000 0.81213203 0.50000000
vt 1.00000000 0.00000000
vt 1.00000000 1.00000000
vt 0.00000000 1.00000000
vt 0.00000000 0.00000000
vt 1.00000000 0.00000000
vt 1.00000000 1.00000000
vt 0.00000000 1.00000000
vt 0.00000000 0.00000000
vt 1.00000000 0.00000000
vt 1.00000000 1.00000000
vt 0.00000000 1.00000000
vt 0.00000000 0.00000000
vt 1.00000000 0.00000000
vt 1.00000000 1.00000000
vt 0.00000000 1.00000000
vt 0.00000000 0.00000000
vt 1.00000000 0.00000000
vt 1.00000000 1.00000000
vt 0.00000000 1.00000000
vt 0.00000000 0.00000000
vt 1.00000000 0.00000000
vt 1.00000000 1.00000000
vt 0.00000000 1.00000000
vt 0.00000000 0.00000000
vt 1.00000000 0.00000000
vt 1.00000000 1.00000000
vt 0.00000000 1.00000000
vt 0.00000000 0.00000000
vt 1.00000000 0.00000000
vt 1.00000000 1.00000000
vt 0.00000000 1.00000000
vt 0.00000000 0.00000000
vn 0.70710678 -0.70710678 0.00000000
vn 0.70710678 -0.70710678 0.00000000
vn 0.70710678 -0.70710678 0.00000000
vn 0.70710678 -0.70710678 0.00000000
vn 0.00000000 -1.00000000 0.00000000
vn 0.00000000 -1.00000000 0.00000000
vn 0.00000000 -1.00000000 0.00000000
vn 0.00000000 -1.00000000 0.00000000
vn -0.70710678 -0.70710678 0.00000000
vn -0.70710678 -0.70710678 0.00000000
vn -0.70710678 -0.70710678 0.00000000
vn -0.70710678 -0.70710678 0.00000000
vn -1.00000000 -0.00000000 -0.00000000
vn -1.00000000 -0.00000000 -0.00000000
vn -1.00000000 -0.00000000 -0.00000000
vn -1.00000000 -0.00000000 -0.00000000
vn -0.70710678 0.70710678 -0.00000000
vn -0.70710678 0.70710678 -0.00000000
vn -0.70710678 0.70710678 -0.00000000
vn -0.70710678 0.70710678 -0.00000000
vn 0.00000000 1.00000000 -0.00000000
vn 0.00000000 1.00000000 -0.00000000
vn 0.00000000 1.00000000 -0.00000000
vn 0.00000000 1.00000000 -0.00000000
vn 0.70710678 0.70710678 -0.00000000
vn 0.70710678 0.70710678 -0.00000000
vn 0.70710678 0.70710678 -0.00000000
vn 0.70710678 0.70710678 -0.00000000
vn 1.00000000 0.00000000 0.00000000
vn 1.00000000 0.00000000 0.00000000
vn 1.00000000 0.00000000 0.00000000
vn 1.00000000 0.00000000 0.00000000
s 1
usemtl Wood_Dark
f 15/36/36 16/37/37 17/38/38
f 15/36/36 17/38/38 18/39/39
s 2
f 19/40/40 15/41/41 18/42/42
f 19/40/40 18/42/42 20/43/43
s 3
f 21/44/44 19/45/45 20/46/46
f 21/44/44 20/46/46 22/47/47
s 4
f 23/48/48 21/49/49 22/50/50
f 23/48/48 22/50/50 24/51/51
s 5
f 25/52/52 23/53/53 26/55/55
f 23/53/53 24/54/54 26/55/55
s 6
f 27/56/56 25/57/57 28/59/59
f 25/57/57 26/58/58 28/59/59
s 7
f 29/60/60 27/61/61 30/63/63
f 27/61/61 28/62/62 30/63/63
s 8
f 16/64/64 29/65/65 17/67/67
f 29/65/65 30/66/66 17/67/67
o object3
g object3
v -0.15857864 0.30000000 -0.50000000
v -0.24142136 0.30000000 -0.50000000
v -0.24142136 0.30000000 0.50000000
v -0.15857864 0.30000000 0.50000000
v -0.10000000 0.24142136 -0.50000000
v -0.10000000 0.24142136 0.50000000
v -0.10000000 0.15857864 -0.50000000
v -0.10000000 0.15857864 0.50000000
v -0.15857864 0.10000000 -0.50000000
v -0.15857864 0.10000000 0.50000000
v -0.24142136 0.10000000 -0.50000000
v -0.24142136 0.10000000 0.50000000
v -0.30000000 0.15857864 -0.50000000
v -0.30000000 0.15857864 0.50000000
v -0.30000000 0.24142136 -0.50000000
v -0.30000000 0.24142136 0.50000000
vt 1.00000000 0.00000000
vt 1.00000000 1.00000000
vt 0.00000000 1.00000000
vt 0.00000000 0.00000000
vt 1.00000000 0.00000000
vt 1.00000000 1.00000000
vt 0.00000000 1.00000000
vt 0.00000000 0.00000000
vt 1.00000000 0.00000000
vt 1.00000000 1.00000000
vt 0.00000000 1.00000000
vt 0.00000000 0.00000000
vt 1.00000000 0.00000000
vt 1.00000000 1.00000000
vt 0.00000000 1.00000000
vt 0.00000000 0.00000000
vt 1.00000000 0.00000000
vt 1.00000000 1.00000000
vt 0.00000000 1.00000000
vt 0.00000000 0.00000000
vt 1.00000000 0.00000000
vt 1.00000000 1.00000000
vt 0.00000000 1.00000000
vt 0.00000000 0.00000000
vt 1.00000000 0.00000000
vt 1.00000000 1.00000000
vt 0.00000000 1.00000000
vt 0.00000000 0.00000000
vt 1.00000000 0.00000000
vt 1.00000000 1.00000000
vt 0.00000000 1.00000000
vt 0.00000000 0.00000000
vn 0.00000000 1.00000000 -0.00000000
vn 0.00000000 1.00000000 -0.00000000
vn 0.00000000 1.00000000 -0.00000000
vn 0.00000000 1.00000000 -0.00000000
vn 0.70710678 0.70710678 -0.00000000
vn 0.70710678 0.70710678 -0.00000000
vn 0.70710678 0.70710678 -0.00000000
vn 0.70710678 0.70710678 -0.00000000
vn 1.00000000 0.00000000 0.00000000
vn 1.00000000 0.00000000 0.00000000
vn 1.00000000 0.00000000 0.00000000
vn 1.00000000 0.00000000 0.00000000
vn 0.70710678 -0.70710678 0.00000000
vn 0.70710678 -0.70710678 0.00000000
vn 0.70710678 -0.70710678 0.00000000
vn 0.70710678 -0.70710678 0.00000000
vn -0.00000000 -1.00000000 0.00000000
vn -0.00000000 -1.00000000 0.00000000
vn -0.00000000 -1.00000000 0.00000000
vn -0.00000000 -1.00000000 0.00000000
vn -0.70710678 -0.70710678 0.00000000
vn -0.70710678 -0.70710678 0.00000000
vn -0.70710678 -0.70710678 0.00000000
vn -0.70710678 -0.70710678 0.00000000
vn -1.00000000 -0.00000000 -0.00000000
vn -1.00000000 -0.00000000 -0.00000000
vn -1.00000000 -0.00000000 -0.00000000
vn -1.00000000 -0.00000000 -0.00000000
vn -0.70710678 0.70710678 -0.00000000
vn -0.70710678 0.70710678 -0.00000000
vn -0.70710678 0.70710678 -0.00000000
vn -0.70710678 0.70710678 -0.00000000
s 1
usemtl Wood_Dark
f 31/68/68 32/69/69 34/71/71
f 32/69/69 33/70/70 34/71/71
s 2
f 35/72/72 31/73/73 36/75/75
f 31/73/73 34/74/74 36/75/75
s 3
f 37/76/76 35/77/77 38/79/79
f 35/77/77 36/78/78 38/79/79
s 4
f 39/80/80 37/81/81 38/82/82
f 39/80/80 38/82/82 40/83/83
s 5
f 41/84/84 39/85/85 40/86/86
f 41/84/84 40/86/86 42/87/87
s 6
f 43/88/88 41/89/89 42/90/90
f 43/88/88 42/90/90 44/91/91
s 7
f 45/92/92 43/93/93 44/94/94
f 45/92/92 44/94/94 46/95/95
s 8
f 32/96/96 45/97/97 33/99/99
f 45/97/97 46/98/98 33/99/99
o object4
g object4
v -0.35000000 0.38658828 -0.13888562
v 0.50000000 0.38658828 -0.13888562
v 0.50000000 0.40574809 -0.10430216
v -0.35000000 0.40574809 -0.10430216
v 0.50000000 0.40574809 0.10430869
v -0.35000000 0.40574809 0.10430869
v 0.50000000 0.38658828 0.13889216
v -0.35000000 0.38658828 0.13889216
v 0.50000000 0.23269482 0.13889216
v -0.35000000 0.23269482 0.13889216
v 0.50000000 0.15574809 0.00000327
v -0.35000000 0.15574809 0.00000327
v 0.50000000 0.23269482 -0.13888562
v -0.35000000 0.23269482 -0.13888562
vt 0.00000000 0.00000000
vt 1.00000000 0.00000000
vt 1.00000000 1.00000000
vt 0.00000000 1.00000000
vt 1.00000000 0.00000000
vt 1.00000000 1.00000000
vt 0.00000000 1.00000000
vt 0.00000000 0.00000000
vt 1.00000000 1.00000000
vt 0.00000000 1.00000000
vt 0.00000000 0.00000000
vt 1.00000000 0.00000000
vt 1.00000000 0.00000000
vt 1.00000000 1.00000000
vt 0.00000000 1.00000000
vt 0.00000000 0.00000000
vt 1.00000000 0.00000000
vt 1.00000000 1.00000000
vt 0.00000000 1.00000000
vt 0.00000000 0.00000000
vt 1.00000000 0.00000000
vt 1.00000000 1.00000000
vt 0.00000000 1.00000000
vt 0.00000000 0.00000000
vt 0.00000000 0.07663923
vt 0.12450047 0.00000000
vt 0.87549953 0.00000000
vt 1.00000000 0.07663923
vt 1.00000000 0.69221308
vt 0.50000000 1.00000000
vt 0.00000000 0.69221308
vt 1.00000000 0.00000000
vt 1.00000000 1.00000000
vt 0.00000000 1.00000000
vt 0.00000000 0.00000000
vn 0.00000000 0.87472821 -0.48461383
vn 0.00000000 0.87472821 -0.48461383
vn 0.00000000 0.87472821 -0.48461383
vn 0.00000000 0.87472821 -0.48461383
vn 0.00000000 1.00000000 -0.00000000
vn 0.00000000 1.00000000 -0.00000000
vn 0.00000000 1.00000000 -0.00000000
vn 0.00000000 1.00000000 -0.00000000
vn 0.00000000 0.87472821 0.48461383
vn 0.00000000 0.87472821 0.48461383
vn 0.00000000 0.87472821 0.48461383
vn 0.00000000 0.87472821 0.48461383
vn -0.00000000 0.00000000 1.00000000
vn -0.00000000 0.00000000 1.00000000
vn -0.00000000 0.00000000 1.00000000
vn -0.00000000 0.00000000 1.00000000
vn -0.00000000 -0.87472821 0.48461383
vn -0.00000000 -0.87472821 0.48461383
vn -0.00000000 -0.87472821 0.48461383
vn -0.00000000 -0.87472821 0.48461383
vn -0.00000000 -0.87472821 -0.48461383
vn -0.00000000 -0.87472821 -0.48461383
vn -0.00000000 -0.87472821 -0.48461383
vn -0.00000000 -0.87472821 -0.48461383
vn -1.00000000 -0.00000000 0.00000000
vn -1.00000000 -0.00000000 0.00000000
vn -1.00000000 -0.00000000 0.00000000
vn -1.00000000 -0.00000000 0.00000000
vn -1.00000000 -0.00000000 0.00000000
vn -1.00000000 -0.00000000 0.00000000
vn -1.00000000 -0.00000000 0.00000000
vn 0.00000000 -0.00000000 -1.00000000
vn 0.00000000 -0.00000000 -1.00000000
vn 0.00000000 -0.00000000 -1.00000000
vn 0.00000000 -0.00000000 -1.00000000
s 1
usemtl Wood_Dark
f 50/103/103 49/102/102 48/101/101
f 50/103/103 48/101/101 47/100/100
s 2
usemtl Wood_Light
f 49/107/107 50/106/106 51/104/104
f 50/106/106 52/105/105 51/104/104
s 3
usemtl Wood_Dark
f 51/111/111 52/110/110 53/108/108
f 52/110/110 54/109/109 53/108/108
s 4
f 54/115/115 56/114/114 53/112/112
f 56/114/114 55/113/113 53/112/112
s 5
f 56/119/119 58/118/118 55/116/116
f 58/118/118 57/117/117 55/116/116
s 6
f 58/123/123 60/122/122 59/121/121
f 58/123/123 59/121/121 57/120/120
s 7
usemtl Wood_Light
f 56/128/128 54/127/127 52/126/126
f 60/130/130 56/128/128 50/125/125
f 50/125/125 47/124/124 60/130/130
f 56/128/128 52/126/126 50/125/125
f 60/130/130 58/129/129 56/128/128
s 8
usemtl Wood_Dark
f 60/134/134 47/133/133 48/132/132
f 60/134/134 48/132/132 59/131/131
o object5
g object5
v 0.50000000 0.15574809 0.33333878
v 0.50000000 0.23269482 0.19444989
v -0.35000000 0.23269482 0.19444989
v -0.35000000 0.15574809 0.33333878
v 0.50000000 0.23269482 0.47222767
v -0.35000000 0.23269482 0.47222767
v 0.50000000 0.38658828 0.47222767
v -0.35000000 0.38658828 0.47222767
v -0.35000000 0.40574809 0.43764420
v 0.50000000 0.40574809 0.43764420
v -0.35000000 0.40574809 0.22903335
v 0.50000000 0.40574809 0.22903335
v -0.35000000 0.38658828 0.19444989
v 0.50000000 0.38658828 0.19444989
vt 1.00000000 0.00000000
vt 1.00000000 1.00000000
vt 0.00000000 1.00000000
vt 0.00000000 0.00000000
vt 1.00000000 0.00000000
vt 1.00000000 1.00000000
vt 0.00000000 1.00000000
vt 0.00000000 0.00000000
vt 1.00000000 0.00000000
vt 1.00000000 1.00000000
vt 0.00000000 1.00000000
vt 0.00000000 0.00000000
vt 1.00000000 1.00000000
vt 0.00000000 1.00000000
vt 0.00000000 0.00000000
vt 1.00000000 0.00000000
vt 1.00000000 0.00000000
vt 1.00000000 1.00000000
vt 0.00000000 1.00000000
vt 0.00000000 0.00000000
vt 0.00000000 0.00000000
vt 1.00000000 0.00000000
vt 1.00000000 1.00000000
vt 0.00000000 1.00000000
vt 0.00000000 0.07663923
vt 0.12450047 0.00000000
vt 0.87549953 0.00000000
vt 1.00000000 0.07663923
vt 1.00000000 0.69221308
vt 0.50000000 1.00000000
vt 0.00000000 0.69221308
vt 1.00000000 0.00000000
vt 1.00000000 1.00000000
vt 0.00000000 1.00000000
vt 0.00000000 0.00000000
vn -0.00000000 -0.87472821 -0.48461383
vn -0.00000000 -0.87472821 -0.48461383
vn -0.00000000 -0.87472821 -0.48461383
vn -0.00000000 -0.87472821 -0.48461383
vn -0.00000000 -0.87472821 0.48461383
vn -0.00000000 -0.87472821 0.48461383
vn -0.00000000 -0.87472821 0.48461383
vn -0.00000000 -0.87472821 0.48461383
vn -0.00000000 0.00000000 1.00000000
vn -0.00000000 0.00000000 1.00000000
vn -0.00000000 0.00000000 1.00000000
vn -0.00000000 0.00000000 1.00000000
vn 0.00000000 0.87472821 0.48461383
vn 0.00000000 0.87472821 0.48461383
vn 0.00000000 0.87472821 0.48461383
vn 0.00000000 0.87472821 0.48461383
vn 0.00000000 1.00000000 -0.00000000
vn 0.00000000 1.00000000 -0.00000000
vn 0.00000000 1.00000000 -0.00000000
vn 0.00000000 1.00000000 -0.00000000
vn 0.00000000 0.87472821 -0.48461383
vn 0.00000000 0.87472821 -0.48461383
vn 0.00000000 0.87472821 -0.48461383
vn 0.00000000 0.87472821 -0.48461383
vn -1.00000000 -0.00000000 0.00000000
vn -1.00000000 -0.00000000 0.00000000
vn -1.00000000 -0.00000000 0.00000000
vn -1.00000000 -0.00000000 0.00000000
vn -1.00000000 -0.00000000 0.00000000
vn -1.00000000 -0.00000000 0.00000000
vn -1.00000000 -0.00000000 0.00000000
vn 0.00000000 -0.00000000 -1.00000000
vn 0.00000000 -0.00000000 -1.00000000
vn 0.00000000 -0.00000000 -1.00000000
vn 0.00000000 -0.00000000 -1.00000000
s 1
usemtl Wood_Dark
f 64/138/138 63/137/137 62/136/136
f 64/138/138 62/136/136 61/135/135
s 2
f 66/142/142 64/141/141 65/139/139
f 64/141/141 61/140/140 65/139/139
s 3
f 68/146/146 66/145/145 67/143/143
f 66/145/145 65/144/144 67/143/143
s 4
f 70/150/150 69/149/149 67/147/147
f 69/149/149 68/148/148 67/147/147
s 5
usemtl Wood_Light
f 72/154/154 71/153/153 70/151/151
f 71/153/153 69/152/152 70/151/151
s 6
usemtl Wood_Dark
f 71/158/158 72/157/157 74/156/156
f 71/158/158 74/156/156 73/155/155
s 7
usemtl Wood_Light
f 66/163/163 68/162/162 69/161/161
f 63/165/165 66/163/163 71/160/160
f 71/160/160 73/159/159 63/165/165
f 66/163/163 69/161/161 71/160/160
f 63/165/165 64/164/164 66/163/163
s 8
usemtl Wood_Dark
f 63/169/169 73/168/168 74/167/167
f 63/169/169 74/167/167 62/166/166
