mtllib Materials_Modular_Terrain.mtl
o object1
g object1
v -0.00000000 0.20000000 0.11000000
v -0.07875000 0.20000000 -0.13000000
v -0.09052253 0.23750000 -0.10179815
v -0.01693662 0.23750000 0.12246367
v 0.03881690 0.23750000 0.18618198
v -0.04836457 0.23750000 0.20610917
v -0.18712200 0.23750000 0.10038922
v -0.14142280 0.23750000 -0.08240757
v -0.15750000 0.20000000 -0.10000000
v -0.21000000 0.20000000 0.11000000
v -0.15750000 0.00000000 -0.10000000
v -0.21000000 0.00000000 0.11000000
v -0.07875000 0.00000000 -0.13000000
v -0.05250000 0.00000000 0.23000000
v -0.05250000 0.20000000 0.23000000
v 0.07875000 0.00000000 0.20000000
v 0.07875000 0.20000000 0.20000000
v -0.00000000 0.00000000 0.11000000
vt 0.98134065 1.00000000
vt 0.00000000 1.00000000
vt 0.08301151 0.00000000
vt 1.00000000 0.00000000
vt 1.00000000 0.42754688
vt 0.27165804 0.75323630
vt 0.06471815 1.00000000
vt 0.00000000 0.61413696
vt 0.34334990 0.00000000
vt 0.93702462 0.20226352
vt 1.00000000 1.00000000
vt 0.00000000 1.00000000
vt 0.07520000 0.00000000
vt 0.94566091 0.00000000
vt 0.00000000 1.00000000
vt 0.00000000 0.00000000
vt 1.00000000 0.00000000
vt 1.00000000 1.00000000
vt 0.00000000 1.00000000
vt 0.00000000 0.00000000
vt 1.00000000 0.00000000
vt 1.00000000 1.00000000
vt 0.00000000 1.00000000
vt 0.00000000 0.00000000
vt 1.00000000 0.00000000
vt 1.00000000 1.00000000
vt 0.00000000 1.00000000
vt 0.00000000 0.00000000
vt 1.00000000 0.00000000
vt 1.00000000 1.00000000
vt 0.00000000 1.00000000
vt 0.00000000 0.00000000
vt 1.00000000 0.00000000
vt 1.00000000 1.00000000
vt 1.00000000 1.00000000
vt 0.00000000 1.00000000
vt 0.04308081 0.00000000
vt 0.92408036 0.00000000
vt 1.00000000 1.00000000
vt 0.00000000 1.00000000
vt 0.27483476 0.00000000
vt 0.93907453 0.00000000
vt 1.00000000 1.00000000
vt 0.03687930 1.00000000
vt 0.00000000 0.00000000
vt 0.68187133 0.00000000
vt 0.00000000 1.00000000
vt 0.00000000 0.00000000
vt 1.00000000 0.00000000
vt 1.00000000 1.00000000
vt 1.00000000 1.00000000
vt 0.00000000 1.00000000
vt 0.12509798 0.00000000
vt 0.77145067 0.00000000
vn 0.83857604 0.47018979 -0.27515776
vn 0.83857604 0.47018979 -0.27515776
vn 0.83857604 0.47018979 -0.27515776
vn 0.83857604 0.47018979 -0.27515776
vn 0.00000000 1.00000000 0.00000000
vn 0.00000000 1.00000000 0.00000000
vn 0.00000000 1.00000000 0.00000000
vn 0.00000000 1.00000000 0.00000000
vn 0.00000000 1.00000000 0.00000000
vn 0.00000000 1.00000000 0.00000000
vn -0.85729596 0.46809066 -0.21432399
vn -0.85729596 0.46809066 -0.21432399
vn -0.85729596 0.46809066 -0.21432399
vn -0.85729596 0.46809066 -0.21432399
vn -0.97014250 0.00000000 -0.24253563
vn -0.97014250 0.00000000 -0.24253563
vn -0.97014250 0.00000000 -0.24253563
vn -0.97014250 0.00000000 -0.24253563
vn -0.35599533 0.00000000 -0.93448773
vn -0.35599533 0.00000000 -0.93448773
vn -0.35599533 0.00000000 -0.93448773
vn -0.35599533 0.00000000 -0.93448773
vn -0.60604322 0.00000000 0.79543172
vn -0.60604322 0.00000000 0.79543172
vn -0.60604322 0.00000000 0.79543172
vn -0.60604322 0.00000000 0.79543172
vn 0.22282480 0.00000000 0.97485851
vn 0.22282480 0.00000000 0.97485851
vn 0.22282480 0.00000000 0.97485851
vn 0.22282480 0.00000000 0.97485851
vn 0.75257669 0.00000000 -0.65850461
vn 0.75257669 0.00000000 -0.65850461
vn 0.75257669 0.00000000 -0.65850461
vn 0.75257669 0.00000000 -0.65850461
vn -0.52570180 0.49755426 0.68998361
vn -0.52570180 0.49755426 0.68998361
vn -0.52570180 0.49755426 0.68998361
vn -0.52570180 0.49755426 0.68998361
vn 0.19136566 0.51228304 0.83722475
vn 0.19136566 0.51228304 0.83722475
vn 0.19136566 0.51228304 0.83722475
vn 0.19136566 0.51228304 0.83722475
vn 0.65697478 0.48777889 -0.57485293
vn 0.65697478 0.48777889 -0.57485293
vn 0.65697478 0.48777889 -0.57485293
vn 0.65697478 0.48777889 -0.57485293
vn 0.95015746 0.00000000 -0.31177042
vn 0.95015746 0.00000000 -0.31177042
vn 0.95015746 0.00000000 -0.31177042
vn 0.95015746 0.00000000 -0.31177042
vn -0.30647067 0.50880132 -0.80448552
vn -0.30647067 0.50880132 -0.80448552
vn -0.30647067 0.50880132 -0.80448552
vn -0.30647067 0.50880132 -0.80448552
s 1
usemtl Rock
f 1/1/1 2/2/2 3/3/3
f 1/1/1 3/3/3 4/4/4
s 2
f 6/8/8 5/7/7 4/6/6
f 7/9/9 4/6/6 3/5/5
f 3/5/5 8/10/10 7/9/9
f 7/9/9 6/8/8 4/6/6
s 3
f 9/11/11 10/12/12 7/13/13
f 9/11/11 7/13/13 8/14/14
s 4
f 11/15/15 12/16/16 9/18/18
f 12/16/16 10/17/17 9/18/18
s 5
f 13/19/19 11/20/20 9/21/21
f 13/19/19 9/21/21 2/22/22
s 6
f 12/23/23 14/24/24 15/25/25
f 12/23/23 15/25/25 10/26/26
s 7
f 14/27/27 16/28/28 15/30/30
f 16/28/28 17/29/29 15/30/30
s 8
f 16/31/31 18/32/32 17/34/34
f 18/32/32 1/33/33 17/34/34
s 9
f 10/35/35 15/36/36 7/38/38
f 15/36/36 6/37/37 7/38/38
s 10
f 15/39/39 17/40/40 5/41/41
f 15/39/39 5/41/41 6/42/42
s 11
f 17/43/43 1/44/44 5/46/46
f 1/44/44 4/45/45 5/46/46
s 12
f 18/47/47 13/48/48 1/50/50
f 13/48/48 2/49/49 1/50/50
s 13
f 2/51/51 9/52/52 3/54/54
f 9/52/52 8/53/53 3/54/54
o object2
g object2
v 0.15750000 0.20000000 0.11000000
v 0.21000000 0.20000000 -0.07000000
v 0.18874401 0.23750000 -0.06827358
v 0.14600113 0.23750000 0.07827345
v 0.15750000 0.00000000 0.11000000
v 0.21000000 0.00000000 -0.07000000
v 0.05250000 0.00000000 0.05000000
v 0.05250000 0.20000000 0.05000000
v -0.00000000 0.00000000 -0.16000000
v -0.00000000 0.20000000 -0.16000000
v 0.15750000 0.00000000 -0.19000000
v 0.15750000 0.20000000 -0.19000000
v 0.02498799 0.23750000 -0.14194926
v 0.14639376 0.23750000 -0.16507417
v 0.06905076 0.23750000 0.03430181
vt 1.00000000 1.00000000
vt 0.00000000 1.00000000
vt 0.04911969 0.00000000
vt 0.86326987 0.00000000
vt 0.00000000 1.00000000
vt 0.00000000 0.00000000
vt 1.00000000 0.00000000
vt 1.00000000 1.00000000
vt 0.00000000 1.00000000
vt 0.00000000 0.00000000
vt 1.00000000 0.00000000
vt 1.00000000 1.00000000
vt 0.00000000 1.00000000
vt 0.00000000 0.00000000
vt 1.00000000 0.00000000
vt 1.00000000 1.00000000
vt 0.00000000 1.00000000
vt 0.00000000 0.00000000
vt 1.00000000 0.00000000
vt 1.00000000 1.00000000
vt 1.00000000 1.00000000
vt 0.00000000 1.00000000
vt 0.13810406 0.00000000
vt 0.90893431 0.00000000
vt 1.00000000 1.00000000
vt 0.00000000 1.00000000
vt 0.04531886 0.00000000
vt 0.88460968 0.00000000
vt 0.00000000 1.00000000
vt 0.00000000 0.00000000
vt 1.00000000 0.00000000
vt 1.00000000 1.00000000
vt 1.00000000 1.00000000
vt 0.00000000 1.00000000
vt 0.19336560 0.00000000
vt 0.92622624 0.00000000
vt 0.00000000 0.73898435
vt 0.18069475 0.26907572
vt 0.90497171 0.00000000
vt 1.00000000 0.74138199
vt 0.60221273 1.00000000
vt 1.00000000 1.00000000
vt 0.00000000 1.00000000
vt 0.12386274 0.00000000
vt 0.93053427 0.00000000
vn 0.84778665 0.46916394 0.24727111
vn 0.84778665 0.46916394 0.24727111
vn 0.84778665 0.46916394 0.24727111
vn 0.84778665 0.46916394 0.24727111
vn 0.96000000 0.00000000 0.28000000
vn 0.96000000 0.00000000 0.28000000
vn 0.96000000 0.00000000 0.28000000
vn 0.96000000 0.00000000 0.28000000
vn -0.49613894 0.00000000 0.86824314
vn -0.49613894 0.00000000 0.86824314
vn -0.49613894 0.00000000 0.86824314
vn -0.49613894 0.00000000 0.86824314
vn -0.97014250 0.00000000 0.24253563
vn -0.97014250 0.00000000 0.24253563
vn -0.97014250 0.00000000 0.24253563
vn -0.97014250 0.00000000 0.24253563
vn -0.18711211 0.00000000 -0.98233857
vn -0.18711211 0.00000000 -0.98233857
vn -0.18711211 0.00000000 -0.98233857
vn -0.18711211 0.00000000 -0.98233857
vn -0.16062185 0.51293789 -0.84326469
vn -0.16062185 0.51293789 -0.84326469
vn -0.16062185 0.51293789 -0.84326469
vn -0.16062185 0.51293789 -0.84326469
vn -0.85729596 0.46809066 0.21432399
vn -0.85729596 0.46809066 0.21432399
vn -0.85729596 0.46809066 0.21432399
vn -0.85729596 0.46809066 0.21432399
vn 0.91615733 0.00000000 -0.40081883
vn 0.91615733 0.00000000 -0.40081883
vn 0.91615733 0.00000000 -0.40081883
vn 0.91615733 0.00000000 -0.40081883
vn -0.42872184 0.50329186 0.75026321
vn -0.42872184 0.50329186 0.75026321
vn -0.42872184 0.50329186 0.75026321
vn -0.42872184 0.50329186 0.75026321
vn 0.00000000 1.00000000 0.00000000
vn 0.00000000 1.00000000 0.00000000
vn 0.00000000 1.00000000 0.00000000
vn 0.00000000 1.00000000 0.00000000
vn 0.00000000 1.00000000 0.00000000
vn 0.80688795 0.47361728 -0.35301348
vn 0.80688795 0.47361728 -0.35301348
vn 0.80688795 0.47361728 -0.35301348
vn 0.80688795 0.47361728 -0.35301348
s 1
usemtl Rock
f 19/55/55 20/56/56 22/58/58
f 20/56/56 21/57/57 22/58/58
s 2
f 23/59/59 24/60/60 19/62/62
f 24/60/60 20/61/61 19/62/62
s 3
f 25/63/63 23/64/64 19/65/65
f 25/63/63 19/65/65 26/66/66
s 4
f 27/67/67 25/68/68 26/69/69
f 27/67/67 26/69/69 28/70/70
s 5
f 29/71/71 27/72/72 30/74/74
f 27/72/72 28/73/73 30/74/74
s 6
f 30/75/75 28/76/76 31/77/77
f 30/75/75 31/77/77 32/78/78
s 7
f 28/79/79 26/80/80 31/82/82
f 26/80/80 33/81/81 31/82/82
s 8
f 24/83/83 29/84/84 30/85/85
f 24/83/83 30/85/85 20/86/86
s 9
f 26/87/87 19/88/88 22/89/89
f 26/87/87 22/89/89 33/90/90
s 10
f 33/92/92 22/91/91 21/95/95
f 21/95/95 32/94/94 31/93/93
f 21/95/95 31/93/93 33/92/92
s 11
f 20/96/96 30/97/97 32/98/98
f 20/96/96 32/98/98 21/99/99
