mtllib Materials_Modular_Terrain.mtl
o object1
g object1
v 0.49757021 0.53612027 0.47500000
v -0.15212581 0.55599689 0.47500000
v -0.25131456 0.58404315 0.47500000
v -0.30205567 0.56058381 0.47500000
v -0.50196213 0.56669969 0.47500000
v -0.49737522 0.71662954 0.47500000
v 0.30225065 0.69216600 0.47500000
v 0.40067491 0.63913144 0.47500000
v 0.45218050 0.68757909 0.47500000
v 0.50215712 0.68605012 0.47500000
v -0.30205567 0.56058381 0.52500000
v -0.25131456 0.58404315 0.52500000
v 0.49757021 0.53612027 0.52500000
v -0.15212581 0.55599689 0.52500000
v -0.50196213 0.56669969 0.52500000
v -0.49737522 0.71662954 0.52500000
v 0.30225065 0.69216600 0.52500000
v 0.40067491 0.63913144 0.52500000
v 0.45218050 0.68757909 0.52500000
v 0.50215712 0.68605012 0.52500000
vt 0.00000000 0.00000000
vt 0.65000000 0.00000000
vt 0.75000000 0.16666667
vt 0.80000000 0.00000000
vt 1.00000000 0.00000000
vt 1.00000000 1.00000000
vt 0.20000000 1.00000000
vt 0.10000000 0.66666667
vt 0.05000000 1.00000000
vt 0.00000000 1.00000000
vt 1.00000000 0.00000000
vt 1.00000000 1.00000000
vt 0.00000000 1.00000000
vt 0.00000000 0.00000000
vt 0.00000000 0.00000000
vt 0.65000000 0.00000000
vt 0.75000000 0.16666667
vt 0.80000000 0.00000000
vt 1.00000000 0.00000000
vt 1.00000000 1.00000000
vt 0.20000000 1.00000000
vt 0.10000000 0.66666667
vt 0.05000000 1.00000000
vt 0.00000000 1.00000000
vt 1.00000000 0.00000000
vt 1.00000000 1.00000000
vt 0.00000000 1.00000000
vt 0.00000000 0.00000000
vt 1.00000000 0.00000000
vt 1.00000000 1.00000000
vt 0.00000000 1.00000000
vt 0.00000000 0.00000000
vt 1.00000000 0.00000000
vt 1.00000000 1.00000000
vt 0.00000000 1.00000000
vt 0.00000000 0.00000000
vt 1.00000000 0.00000000
vt 1.00000000 1.00000000
vt 0.00000000 1.00000000
vt 0.00000000 0.00000000
vt 0.00000000 1.00000000
vt 0.00000000 0.00000000
vt 1.00000000 0.00000000
vt 1.00000000 1.00000000
vt 0.00000000 1.00000000
vt 0.00000000 0.00000000
vt 1.00000000 0.00000000
vt 1.00000000 1.00000000
vt 1.00000000 0.00000000
vt 1.00000000 1.00000000
vt 0.00000000 1.00000000
vt 0.00000000 0.00000000
vn 0.00000000 0.00000000 -1.00000000
vn 0.00000000 0.00000000 -1.00000000
vn 0.00000000 0.00000000 -1.00000000
vn 0.00000000 0.00000000 -1.00000000
vn 0.00000000 0.00000000 -1.00000000
vn 0.00000000 0.00000000 -1.00000000
vn 0.00000000 0.00000000 -1.00000000
vn 0.00000000 0.00000000 -1.00000000
vn 0.00000000 0.00000000 -1.00000000
vn 0.00000000 0.00000000 -1.00000000
vn 0.41965338 -0.90768444 0.00000000
vn 0.41965338 -0.90768444 0.00000000
vn 0.41965338 -0.90768444 0.00000000
vn 0.41965338 -0.90768444 0.00000000
vn 0.00000000 0.00000000 1.00000000
vn 0.00000000 0.00000000 1.00000000
vn 0.00000000 0.00000000 1.00000000
vn 0.00000000 0.00000000 1.00000000
vn 0.00000000 0.00000000 1.00000000
vn 0.00000000 0.00000000 1.00000000
vn 0.00000000 0.00000000 1.00000000
vn 0.00000000 0.00000000 1.00000000
vn 0.00000000 0.00000000 1.00000000
vn 0.00000000 0.00000000 1.00000000
vn -0.03057943 -0.99953234 0.00000000
vn -0.03057943 -0.99953234 0.00000000
vn -0.03057943 -0.99953234 0.00000000
vn -0.03057943 -0.99953234 0.00000000
vn 0.03057943 0.99953234 0.00000000
vn 0.03057943 0.99953234 0.00000000
vn 0.03057943 0.99953234 0.00000000
vn 0.03057943 0.99953234 0.00000000
vn 0.47435552 0.88033337 0.00000000
vn 0.47435552 0.88033337 0.00000000
vn 0.47435552 0.88033337 0.00000000
vn 0.47435552 0.88033337 0.00000000
vn -0.68515317 0.72839902 0.00000000
vn -0.68515317 0.72839902 0.00000000
vn -0.68515317 0.72839902 0.00000000
vn -0.68515317 0.72839902 0.00000000
vn 0.03057943 0.99953234 0.00000000
vn 0.03057943 0.99953234 0.00000000
vn 0.03057943 0.99953234 0.00000000
vn 0.03057943 0.99953234 0.00000000
vn -0.03057943 -0.99953234 0.00000000
vn -0.03057943 -0.99953234 0.00000000
vn -0.03057943 -0.99953234 0.00000000
vn -0.03057943 -0.99953234 0.00000000
vn -0.27208860 -0.96227220 0.00000000
vn -0.27208860 -0.96227220 0.00000000
vn -0.27208860 -0.96227220 0.00000000
vn -0.27208860 -0.96227220 0.00000000
s 1
usemtl Wood_Light
f 8/8/8 9/9/9 10/10/10
f 2/2/2 7/7/7 8/8/8
f 3/3/3 6/6/6 7/7/7
f 4/4/4 5/5/5 6/6/6
f 3/3/3 4/4/4 6/6/6
f 2/2/2 3/3/3 7/7/7
f 8/8/8 1/1/1 2/2/2
f 8/8/8 10/10/10 1/1/1
s 2
f 4/14/14 3/13/13 12/12/12
f 4/14/14 12/12/12 11/11/11
s 3
f 20/24/24 19/23/23 18/22/22
f 18/22/22 17/21/21 14/16/16
f 17/21/21 12/17/17 14/16/16
f 16/20/20 11/18/18 12/17/17
f 16/20/20 15/19/19 11/18/18
f 17/21/21 16/20/20 12/17/17
f 14/16/16 13/15/15 18/22/22
f 13/15/15 20/24/24 18/22/22
s 4
f 4/28/28 11/27/27 5/25/25
f 11/27/27 15/26/26 5/25/25
s 5
f 6/29/29 16/30/30 17/31/31
f 6/29/29 17/31/31 7/32/32
s 6
f 8/36/36 7/35/35 18/33/33
f 7/35/35 17/34/34 18/33/33
s 7
f 9/40/40 8/39/39 19/37/37
f 8/39/39 18/38/38 19/37/37
s 8
f 20/41/41 10/42/42 19/44/44
f 10/42/42 9/43/43 19/44/44
s 9
f 14/48/48 2/47/47 1/46/46
f 14/48/48 1/46/46 13/45/45
s 10
f 3/52/52 2/51/51 14/50/50
f 3/52/52 14/50/50 12/49/49
o object2
g object2
v -0.15149953 0.42061629 0.52500000
v -0.05070976 0.39901946 0.52500000
v 0.04838560 0.42739391 0.52500000
v 0.49812713 0.44264356 0.52500000
v 0.50321035 0.29272971 0.52500000
v -0.49621529 0.25884161 0.52500000
v -0.50129850 0.40875546 0.52500000
v -0.15149953 0.42061629 0.47500000
v -0.05070976 0.39901946 0.47500000
v 0.04838560 0.42739391 0.47500000
v 0.49812713 0.44264356 0.47500000
v 0.50321035 0.29272971 0.47500000
v -0.49621529 0.25884161 0.47500000
v -0.50129850 0.40875546 0.47500000
vt 0.65000000 1.00000000
vt 0.55000000 0.83333333
vt 0.45000000 1.00000000
vt 0.00000000 1.00000000
vt 0.00000000 0.00000000
vt 1.00000000 0.00000000
vt 1.00000000 1.00000000
vt 1.00000000 0.00000000
vt 1.00000000 1.00000000
vt 0.00000000 1.00000000
vt 0.00000000 0.00000000
vt 0.65000000 1.00000000
vt 0.55000000 0.83333333
vt 0.45000000 1.00000000
vt 0.00000000 1.00000000
vt 0.00000000 0.00000000
vt 1.00000000 0.00000000
vt 1.00000000 1.00000000
vt 1.00000000 0.00000000
vt 1.00000000 1.00000000
vt 0.00000000 1.00000000
vt 0.00000000 0.00000000
vt 0.00000000 0.00000000
vt 1.00000000 0.00000000
vt 1.00000000 1.00000000
vt 0.00000000 1.00000000
vt 0.00000000 1.00000000
vt 0.00000000 0.00000000
vt 1.00000000 0.00000000
vt 1.00000000 1.00000000
vt 1.00000000 0.00000000
vt 1.00000000 1.00000000
vt 0.00000000 1.00000000
vt 0.00000000 0.00000000
vn 0.00000000 0.00000000 1.00000000
vn 0.00000000 0.00000000 1.00000000
vn 0.00000000 0.00000000 1.00000000
vn 0.00000000 0.00000000 1.00000000
vn 0.00000000 0.00000000 1.00000000
vn 0.00000000 0.00000000 1.00000000
vn 0.00000000 0.00000000 1.00000000
vn 0.20952004 0.97780435 0.00000000
vn 0.20952004 0.97780435 0.00000000
vn 0.20952004 0.97780435 0.00000000
vn 0.20952004 0.97780435 0.00000000
vn 0.00000000 0.00000000 -1.00000000
vn 0.00000000 0.00000000 -1.00000000
vn 0.00000000 0.00000000 -1.00000000
vn 0.00000000 0.00000000 -1.00000000
vn 0.00000000 0.00000000 -1.00000000
vn 0.00000000 0.00000000 -1.00000000
vn 0.00000000 0.00000000 -1.00000000
vn -0.03388810 0.99942563 0.00000000
vn -0.03388810 0.99942563 0.00000000
vn -0.03388810 0.99942563 0.00000000
vn -0.03388810 0.99942563 0.00000000
vn 0.03388810 -0.99942563 0.00000000
vn 0.03388810 -0.99942563 0.00000000
vn 0.03388810 -0.99942563 0.00000000
vn 0.03388810 -0.99942563 0.00000000
vn -0.03388810 0.99942563 0.00000000
vn -0.03388810 0.99942563 0.00000000
vn -0.03388810 0.99942563 0.00000000
vn -0.03388810 0.99942563 0.00000000
vn -0.27527260 0.96136621 0.00000000
vn -0.27527260 0.96136621 0.00000000
vn -0.27527260 0.96136621 0.00000000
vn -0.27527260 0.96136621 0.00000000
s 1
usemtl Wood_Light
f 21/53/53 27/59/59 26/58/58
f 26/58/58 23/55/55 22/54/54
f 25/57/57 24/56/56 23/55/55
f 26/58/58 25/57/57 23/55/55
f 22/54/54 21/53/53 26/58/58
s 2
f 29/63/63 28/62/62 22/60/60
f 28/62/62 21/61/61 22/60/60
s 3
f 33/69/69 34/70/70 28/64/64
f 29/65/65 30/66/66 33/69/69
f 30/66/66 31/67/67 32/68/68
f 33/69/69 28/64/64 29/65/65
f 30/66/66 32/68/68 33/69/69
s 4
f 34/71/71 27/72/72 21/73/73
f 34/71/71 21/73/73 28/74/74
s 5
f 25/78/78 26/77/77 32/75/75
f 26/77/77 33/76/76 32/75/75
s 6
f 24/79/79 31/80/80 23/82/82
f 31/80/80 30/81/81 23/82/82
s 7
f 30/86/86 29/85/85 23/83/83
f 29/85/85 22/84/84 23/83/83
