mtllib Materials_Modular_Terrain.mtl
o object1
g object1
v -0.03000000 0.14562420 0.00000000
v -0.03750000 0.02619048 0.00000000
v -0.01875000 0.02619048 0.03247595
v -0.01500000 0.14562420 0.02598076
v 0.01875000 0.02619048 0.03247595
v 0.01500000 0.14562420 0.02598076
v 0.03750000 0.02619048 0.00000000
v 0.03000000 0.14562420 0.00000000
v 0.01875000 0.02619048 -0.03247595
v 0.01500000 0.14562420 -0.02598076
v -0.01875000 0.02619048 -0.03247595
v -0.01500000 0.14562420 -0.02598076
vt 0.00000000 0.00000000
vt 1.00000000 0.00000000
vt 1.00000000 1.00000000
vt 0.00000000 1.00000000
vt 0.00000000 0.00000000
vt 1.00000000 0.00000000
vt 1.00000000 1.00000000
vt 0.00000000 1.00000000
vt 0.00000000 0.00000000
vt 1.00000000 0.00000000
vt 1.00000000 1.00000000
vt 0.00000000 1.00000000
vt 0.00000000 0.00000000
vt 1.00000000 0.00000000
vt 1.00000000 1.00000000
vt 0.00000000 1.00000000
vt 0.00000000 0.00000000
vt 1.00000000 0.00000000
vt 1.00000000 1.00000000
vt 0.00000000 1.00000000
vt 0.00000000 0.00000000
vt 1.00000000 0.00000000
vt 1.00000000 1.00000000
vt 0.00000000 1.00000000
vn -0.86474759 0.05430298 0.49926225
vn -0.86474759 0.05430298 0.49926225
vn -0.86474759 0.05430298 0.49926225
vn -0.86474759 0.05430298 0.49926225
vn -0.00000000 0.05430298 0.99852450
vn -0.00000000 0.05430298 0.99852450
vn -0.00000000 0.05430298 0.99852450
vn -0.00000000 0.05430298 0.99852450
vn 0.86474759 0.05430298 0.49926225
vn 0.86474759 0.05430298 0.49926225
vn 0.86474759 0.05430298 0.49926225
vn 0.86474759 0.05430298 0.49926225
vn 0.86474759 0.05430298 -0.49926225
vn 0.86474759 0.05430298 -0.49926225
vn 0.86474759 0.05430298 -0.49926225
vn 0.86474759 0.05430298 -0.49926225
vn -0.00000000 0.05430298 -0.99852450
vn -0.00000000 0.05430298 -0.99852450
vn -0.00000000 0.05430298 -0.99852450
vn -0.00000000 0.05430298 -0.99852450
vn -0.86474759 0.05430298 -0.49926225
vn -0.86474759 0.05430298 -0.49926225
vn -0.86474759 0.05430298 -0.49926225
vn -0.86474759 0.05430298 -0.49926225
s 1
usemtl Mushroom_White
f 1/1/1 2/2/2 4/4/4
f 2/2/2 3/3/3 4/4/4
s 2
f 4/5/5 3/6/6 5/7/7
f 4/5/5 5/7/7 6/8/8
s 3
f 6/9/9 5/10/10 7/11/11
f 6/9/9 7/11/11 8/12/12
s 4
f 8/13/13 7/14/14 9/15/15
f 8/13/13 9/15/15 10/16/16
s 5
f 10/17/17 9/18/18 12/20/20
f 9/18/18 11/19/19 12/20/20
s 6
f 12/21/21 11/22/22 1/24/24
f 11/22/22 2/23/23 1/24/24
o object2
g object2
v 0.12500000 0.19986346 0.00000000
v 0.07500000 0.27182441 0.00000000
v 0.03750000 0.27182441 -0.06495191
v 0.06250000 0.19986346 -0.10825318
v -0.03750000 0.27182441 -0.06495191
v -0.06250000 0.19986346 -0.10825318
v -0.07500000 0.27182441 0.00000000
v -0.12500000 0.19986346 0.00000000
v -0.03750000 0.27182441 0.06495191
v -0.06250000 0.19986346 0.10825318
v 0.03750000 0.27182441 0.06495191
v 0.06250000 0.19986346 0.10825318
v 0.05255968 0.14562420 0.09103604
v -0.05255968 0.14562420 0.09103604
v 0.10511937 0.14562420 0.00000000
v -0.05255968 0.14562420 -0.09103604
v -0.10511937 0.14562420 0.00000000
v 0.05255968 0.14562420 -0.09103604
v -0.00000000 0.14562420 0.00000000
v -0.00000000 0.30238095 0.00000000
vt 1.00000000 1.00000000
vt 0.00000000 0.80000000
vt 0.00000000 0.20000000
vt 1.00000000 0.00000000
vt 1.00000000 1.00000000
vt 0.00000000 0.80000000
vt 0.00000000 0.20000000
vt 1.00000000 0.00000000
vt 1.00000000 1.00000000
vt 0.00000000 0.80000000
vt 0.00000000 0.20000000
vt 1.00000000 0.00000000
vt 1.00000000 1.00000000
vt 0.00000000 0.80000000
vt 0.00000000 0.20000000
vt 1.00000000 0.00000000
vt 1.00000000 1.00000000
vt 0.00000000 0.80000000
vt 0.00000000 0.20000000
vt 1.00000000 0.00000000
vt 0.92047748 0.00000000
vt 1.00000000 1.00000000
vt 0.00000000 1.00000000
vt 0.07952252 0.00000000
vt 0.92047748 0.00000000
vt 1.00000000 1.00000000
vt 0.00000000 1.00000000
vt 0.07952252 0.00000000
vt 1.00000000 0.75000000
vt 0.50000000 1.00000000
vt 0.00000000 0.75000000
vt 0.00000000 0.25000000
vt 0.50000000 0.00000000
vt 1.00000000 0.25000000
vt 0.50000000 0.50000000
vt 1.00000000 1.00000000
vt 0.00000000 0.50000000
vt 1.00000000 0.00000000
vt 1.00000000 1.00000000
vt 0.00000000 0.50000000
vt 1.00000000 0.00000000
vt 0.92047748 0.00000000
vt 1.00000000 1.00000000
vt 0.00000000 1.00000000
vt 0.07952252 0.00000000
vt 1.00000000 1.00000000
vt 0.00000000 0.50000000
vt 1.00000000 0.00000000
vt 0.92047748 0.00000000
vt 1.00000000 1.00000000
vt 0.00000000 1.00000000
vt 0.07952252 0.00000000
vt 1.00000000 1.00000000
vt 0.00000000 0.50000000
vt 1.00000000 0.00000000
vt 0.92047748 0.00000000
vt 1.00000000 1.00000000
vt 0.00000000 1.00000000
vt 0.07952252 0.00000000
vt 1.00000000 1.00000000
vt 0.00000000 0.50000000
vt 1.00000000 0.00000000
vt 0.92047808 0.00000000
vt 1.00000000 1.00000000
vt 0.00000760 1.00000000
vt 0.07952952 0.00000000
vt 1.00000000 1.00000000
vt 0.00000000 0.80000000
vt 0.00000000 0.20000000
vt 1.00000000 0.00000000
vt 1.00000000 1.00000000
vt 0.00000000 0.50000000
vt 1.00000000 0.00000000
vn 0.74204275 0.51558712 -0.42841858
vn 0.74204275 0.51558712 -0.42841858
vn 0.74204275 0.51558712 -0.42841858
vn 0.74204275 0.51558712 -0.42841858
vn -0.00000000 0.51558712 -0.85683716
vn -0.00000000 0.51558712 -0.85683716
vn -0.00000000 0.51558712 -0.85683716
vn -0.00000000 0.51558712 -0.85683716
vn -0.74204275 0.51558712 -0.42841858
vn -0.74204275 0.51558712 -0.42841858
vn -0.74204275 0.51558712 -0.42841858
vn -0.74204275 0.51558712 -0.42841858
vn -0.74204275 0.51558712 0.42841858
vn -0.74204275 0.51558712 0.42841858
vn -0.74204275 0.51558712 0.42841858
vn -0.74204275 0.51558712 0.42841858
vn -0.00000000 0.51558712 0.85683716
vn -0.00000000 0.51558712 0.85683716
vn -0.00000000 0.51558712 0.85683716
vn -0.00000000 0.51558712 0.85683716
vn 0.00000000 -0.30255227 0.95313279
vn 0.00000000 -0.30255227 0.95313279
vn 0.00000000 -0.30255227 0.95313279
vn 0.00000000 -0.30255227 0.95313279
vn 0.82543721 -0.30255227 0.47656640
vn 0.82543721 -0.30255227 0.47656640
vn 0.82543721 -0.30255227 0.47656640
vn 0.82543721 -0.30255227 0.47656640
vn 0.00000000 -1.00000000 0.00000000
vn 0.00000000 -1.00000000 0.00000000
vn 0.00000000 -1.00000000 0.00000000
vn 0.00000000 -1.00000000 0.00000000
vn 0.00000000 -1.00000000 0.00000000
vn 0.00000000 -1.00000000 0.00000000
vn 0.00000000 -1.00000000 0.00000000
vn -0.00000000 0.90486730 0.42569375
vn -0.00000000 0.90486730 0.42569375
vn -0.00000000 0.90486730 0.42569375
vn 0.36866160 0.90486730 0.21284688
vn 0.36866160 0.90486730 0.21284688
vn 0.36866160 0.90486730 0.21284688
vn -0.82543721 -0.30255227 0.47656640
vn -0.82543721 -0.30255227 0.47656640
vn -0.82543721 -0.30255227 0.47656640
vn -0.82543721 -0.30255227 0.47656640
vn -0.36866160 0.90486730 0.21284688
vn -0.36866160 0.90486730 0.21284688
vn -0.36866160 0.90486730 0.21284688
vn -0.82543721 -0.30255227 -0.47656640
vn -0.82543721 -0.30255227 -0.47656640
vn -0.82543721 -0.30255227 -0.47656640
vn -0.82543721 -0.30255227 -0.47656640
vn -0.36866160 0.90486730 -0.21284688
vn -0.36866160 0.90486730 -0.21284688
vn -0.36866160 0.90486730 -0.21284688
vn 0.00000000 -0.30255227 -0.95313279
vn 0.00000000 -0.30255227 -0.95313279
vn 0.00000000 -0.30255227 -0.95313279
vn 0.00000000 -0.30255227 -0.95313279
vn -0.00000000 0.90486730 -0.42569375
vn -0.00000000 0.90486730 -0.42569375
vn -0.00000000 0.90486730 -0.42569375
vn 0.82543721 -0.30255227 -0.47656640
vn 0.82543721 -0.30255227 -0.47656640
vn 0.82543721 -0.30255227 -0.47656640
vn 0.82543721 -0.30255227 -0.47656640
vn 0.74204275 0.51558712 0.42841858
vn 0.74204275 0.51558712 0.42841858
vn 0.74204275 0.51558712 0.42841858
vn 0.74204275 0.51558712 0.42841858
vn 0.36866160 0.90486730 -0.21284688
vn 0.36866160 0.90486730 -0.21284688
vn 0.36866160 0.90486730 -0.21284688
s 1
usemtl Dark_Red_Mushroom
f 16/28/28 15/27/27 13/25/25
f 15/27/27 14/26/26 13/25/25
s 2
f 18/32/32 17/31/31 15/30/30
f 18/32/32 15/30/30 16/29/29
s 3
f 20/36/36 19/35/35 17/34/34
f 20/36/36 17/34/34 18/33/33
s 4
f 22/40/40 21/39/39 19/38/38
f 22/40/40 19/38/38 20/37/37
s 5
f 24/44/44 23/43/43 22/41/41
f 23/43/43 21/42/42 22/41/41
s 6
f 25/45/45 24/46/46 26/48/48
f 24/46/46 22/47/47 26/48/48
s 7
f 27/49/49 13/50/50 24/51/51
f 27/49/49 24/51/51 25/52/52
s 8
usemtl Mushroom_White
f 30/58/58 27/57/57 31/59/59
f 29/54/54 28/53/53 31/59/59
f 26/55/55 29/54/54 31/59/59
f 25/56/56 26/55/55 31/59/59
f 27/57/57 25/56/56 31/59/59
f 28/53/53 30/58/58 31/59/59
s 9
usemtl Dark_Red_Mushroom
f 23/60/60 32/61/61 21/62/62
s 10
f 14/63/63 32/64/64 23/65/65
s 11
f 26/66/66 22/67/67 29/69/69
f 22/67/67 20/68/68 29/69/69
s 12
f 21/70/70 32/71/71 19/72/72
s 13
f 29/73/73 20/74/74 28/76/76
f 20/74/74 18/75/75 28/76/76
s 14
f 19/77/77 32/78/78 17/79/79
s 15
f 28/80/80 18/81/81 16/82/82
f 28/80/80 16/82/82 30/83/83
s 16
f 17/84/84 32/85/85 15/86/86
s 17
f 30/87/87 16/88/88 13/89/89
f 30/87/87 13/89/89 27/90/90
s 18
f 13/94/94 14/93/93 24/91/91
f 14/93/93 23/92/92 24/91/91
s 19
f 15/95/95 32/96/96 14/97/97
