mtllib Materials_Modular_Terrain.mtl
o object1
g object1
v 0.25000000 0.30000000 0.35000000
v 0.50000000 0.30000000 0.00000000
v 0.35198685 0.44142136 -0.03609208
v 0.16165065 0.44142136 0.23037858
v 0.20397369 0.50000000 -0.07218417
v 0.07330131 0.50000000 0.11075717
v 0.11949229 0.50000000 -0.18392246
v 0.19247969 0.50000000 -0.15264214
v -0.13996888 0.50000000 0.18184723
v -0.21715729 0.50000000 0.11752356
v -0.21715729 0.50000000 0.01245646
v 0.32123985 0.44142136 -0.25132107
v 0.10974615 0.44142136 -0.34196123
v 0.45000000 0.30000000 -0.35000000
v 0.10000000 0.30000000 -0.50000000
v 0.45000000 0.05000000 -0.35000000
v 0.10000000 0.05000000 -0.50000000
v 0.35895282 -0.05000000 -0.28022346
v 0.10689157 -0.05000000 -0.38824971
v 0.39533889 -0.05000000 -0.02552096
v 0.50000000 0.05000000 0.00000000
v 0.18752758 -0.05000000 0.26541489
v 0.25000000 0.05000000 0.35000000
v -0.17877579 -0.05000000 0.38751601
v -0.20000000 0.05000000 0.50000000
v -0.20000000 0.30000000 0.50000000
v -0.50000000 0.30000000 0.25000000
v -0.50000000 0.05000000 0.25000000
v -0.16998444 0.44142136 0.34092362
v -0.35857864 0.44142136 0.18376178
v -0.50000000 0.30000000 -0.15000000
v -0.35857864 0.44142136 -0.06877177
v -0.50000000 0.05000000 -0.15000000
v -0.40000000 -0.05000000 -0.09256297
v -0.40000000 -0.05000000 0.20316251
vt 1.00000000 1.00000000
vt 0.00000000 1.00000000
vt 0.13173546 0.00000000
vt 0.89308022 0.00000000
vt 1.00000000 1.00000000
vt 0.00000000 1.00000000
vt 0.17302996 0.00000000
vt 0.85956457 0.00000000
vt 1.00000000 0.79939400
vt 0.91448084 0.97270684
vt 0.69451189 1.00000000
vt 0.19435745 0.68971083
vt 0.00000000 0.18328836
vt 0.17585840 0.00000000
vt 0.46310772 0.00000000
vt 1.00000000 1.00000000
vt 0.00000000 1.00000000
vt 0.30948792 0.00000000
vt 0.65459231 0.00000000
vt 1.00000000 1.00000000
vt 0.00000000 1.00000000
vt 0.18701356 0.00000000
vt 0.79128128 0.00000000
vt 1.00000000 0.00000000
vt 1.00000000 1.00000000
vt 0.00000000 1.00000000
vt 0.00000000 0.00000000
vt 0.85241358 1.00000000
vt 0.13223856 1.00000000
vt 0.00000000 0.00000000
vt 1.00000000 0.00000000
vt 0.88667688 1.00000000
vt 0.15895544 1.00000000
vt 0.00000000 0.00000000
vt 1.00000000 0.00000000
vt 0.92439630 1.00000000
vt 0.09315103 1.00000000
vt 0.00000000 0.00000000
vt 1.00000000 0.00000000
vt 0.88256226 1.00000000
vt 0.06855477 1.00000000
vt 0.00000000 0.00000000
vt 1.00000000 0.00000000
vt 1.00000000 0.00000000
vt 1.00000000 1.00000000
vt 0.00000000 1.00000000
vt 0.00000000 0.00000000
vt 1.00000000 0.00000000
vt 1.00000000 1.00000000
vt 0.00000000 1.00000000
vt 0.00000000 0.00000000
vt 1.00000000 1.00000000
vt 0.00000000 1.00000000
vt 0.20173396 0.00000000
vt 0.83038130 0.00000000
vt 1.00000000 1.00000000
vt 0.00000000 1.00000000
vt 0.16559555 0.00000000
vt 0.79692942 0.00000000
vt 1.00000000 0.00000000
vt 1.00000000 1.00000000
vt 0.00000000 1.00000000
vt 0.00000000 0.00000000
vt 0.85640742 1.00000000
vt 0.11709374 1.00000000
vt 0.00000000 0.00000000
vt 1.00000000 0.00000000
vt 0.88006147 1.00000000
vt 0.14264745 1.00000000
vt 0.00000000 0.00000000
vt 1.00000000 0.00000000
vt 0.92750744 1.00000000
vt 0.08268816 1.00000000
vt 0.00000000 0.00000000
vt 1.00000000 0.00000000
vt 1.00000000 0.00000000
vt 1.00000000 1.00000000
vt 0.00000000 1.00000000
vt 0.00000000 0.00000000
vt 1.00000000 0.00000000
vt 1.00000000 1.00000000
vt 0.00000000 1.00000000
vt 0.00000000 0.00000000
vt 1.00000000 1.00000000
vt 0.00000000 1.00000000
vt 0.11693872 0.00000000
vt 0.89748004 0.00000000
vt 1.00000000 1.00000000
vt 0.00000000 1.00000000
vt 0.14981746 0.00000000
vt 0.86865530 0.00000000
vt 1.00000000 1.00000000
vt 0.00000000 1.00000000
vt 0.26229473 0.00000000
vt 0.67834677 0.00000000
vt 1.00000000 1.00000000
vt 0.00000000 1.00000000
vt 0.32090163 0.00000000
vt 0.73018465 0.00000000
vt 1.00000000 1.00000000
vt 0.00000000 1.00000000
vt 0.13155419 0.00000000
vt 0.77464111 0.00000000
vt 1.00000000 1.00000000
vt 0.00000000 1.00000000
vt 0.36555917 0.00000000
vt 0.73938415 0.00000000
vt 1.00000000 1.00000000
vt 0.00000000 1.00000000
vt 0.09695108 0.00000000
vt 0.83391796 0.00000000
vt 1.00000000 0.00000000
vt 1.00000000 1.00000000
vt 0.00000000 1.00000000
vt 0.00000000 0.00000000
vt 1.00000000 1.00000000
vt 0.00000000 1.00000000
vt 0.22479694 0.00000000
vt 0.83973690 0.00000000
vn 0.57539646 0.70710678 0.41099747
vn 0.57539646 0.70710678 0.41099747
vn 0.57539646 0.70710678 0.41099747
vn 0.57539646 0.70710678 0.41099747
vn 0.31140232 0.92387953 0.22243023
vn 0.31140232 0.92387953 0.22243023
vn 0.31140232 0.92387953 0.22243023
vn 0.31140232 0.92387953 0.22243023
vn 0.00000000 1.00000000 0.00000000
vn 0.00000000 1.00000000 0.00000000
vn 0.00000000 1.00000000 0.00000000
vn 0.00000000 1.00000000 0.00000000
vn 0.00000000 1.00000000 0.00000000
vn 0.00000000 1.00000000 0.00000000
vn 0.00000000 1.00000000 0.00000000
vn 0.15074639 0.92387953 -0.35174157
vn 0.15074639 0.92387953 -0.35174157
vn 0.15074639 0.92387953 -0.35174157
vn 0.15074639 0.92387953 -0.35174157
vn 0.27854301 0.70710678 -0.64993368
vn 0.27854301 0.70710678 -0.64993368
vn 0.27854301 0.70710678 -0.64993368
vn 0.27854301 0.70710678 -0.64993368
vn 0.39391930 0.00000000 -0.91914503
vn 0.39391930 0.00000000 -0.91914503
vn 0.39391930 0.00000000 -0.91914503
vn 0.39391930 0.00000000 -0.91914503
vn 0.27854301 -0.70710678 -0.64993368
vn 0.27854301 -0.70710678 -0.64993368
vn 0.27854301 -0.70710678 -0.64993368
vn 0.27854301 -0.70710678 -0.64993368
vn 0.70000000 -0.70710678 -0.10000000
vn 0.70000000 -0.70710678 -0.10000000
vn 0.70000000 -0.70710678 -0.10000000
vn 0.70000000 -0.70710678 -0.10000000
vn 0.57539646 -0.70710678 0.41099747
vn 0.57539646 -0.70710678 0.41099747
vn 0.57539646 -0.70710678 0.41099747
vn 0.57539646 -0.70710678 0.41099747
vn 0.22360680 -0.70710678 0.67082039
vn 0.22360680 -0.70710678 0.67082039
vn 0.22360680 -0.70710678 0.67082039
vn 0.22360680 -0.70710678 0.67082039
vn 0.31622777 0.00000000 0.94868330
vn 0.31622777 0.00000000 0.94868330
vn 0.31622777 0.00000000 0.94868330
vn 0.31622777 0.00000000 0.94868330
vn -0.64018440 0.00000000 0.76822128
vn -0.64018440 0.00000000 0.76822128
vn -0.64018440 0.00000000 0.76822128
vn -0.64018440 0.00000000 0.76822128
vn -0.45267873 0.70710678 0.54321448
vn -0.45267873 0.70710678 0.54321448
vn -0.45267873 0.70710678 0.54321448
vn -0.45267873 0.70710678 0.54321448
vn -0.70710678 0.70710678 0.00000000
vn -0.70710678 0.70710678 0.00000000
vn -0.70710678 0.70710678 0.00000000
vn -0.70710678 0.70710678 0.00000000
vn -1.00000000 0.00000000 0.00000000
vn -1.00000000 0.00000000 0.00000000
vn -1.00000000 0.00000000 0.00000000
vn -1.00000000 0.00000000 0.00000000
vn -0.70710678 -0.70710678 0.00000000
vn -0.70710678 -0.70710678 0.00000000
vn -0.70710678 -0.70710678 0.00000000
vn -0.70710678 -0.70710678 0.00000000
vn -0.45267873 -0.70710678 0.54321448
vn -0.45267873 -0.70710678 0.54321448
vn -0.45267873 -0.70710678 0.54321448
vn -0.45267873 -0.70710678 0.54321448
vn -0.35629062 -0.70710678 -0.61078392
vn -0.35629062 -0.70710678 -0.61078392
vn -0.35629062 -0.70710678 -0.61078392
vn -0.35629062 -0.70710678 -0.61078392
vn -0.50387103 0.00000000 -0.86377890
vn -0.50387103 0.00000000 -0.86377890
vn -0.50387103 0.00000000 -0.86377890
vn -0.50387103 0.00000000 -0.86377890
vn 0.98994949 0.00000000 -0.14142136
vn 0.98994949 0.00000000 -0.14142136
vn 0.98994949 0.00000000 -0.14142136
vn 0.98994949 0.00000000 -0.14142136
vn -0.35629062 0.70710678 -0.61078392
vn -0.35629062 0.70710678 -0.61078392
vn -0.35629062 0.70710678 -0.61078392
vn -0.35629062 0.70710678 -0.61078392
vn -0.19282309 0.92387953 -0.33055387
vn -0.19282309 0.92387953 -0.33055387
vn -0.19282309 0.92387953 -0.33055387
vn -0.19282309 0.92387953 -0.33055387
vn -0.38268343 0.92387953 0.00000000
vn -0.38268343 0.92387953 0.00000000
vn -0.38268343 0.92387953 0.00000000
vn -0.38268343 0.92387953 0.00000000
vn -0.24498796 0.92387953 0.29398556
vn -0.24498796 0.92387953 0.29398556
vn -0.24498796 0.92387953 0.29398556
vn -0.24498796 0.92387953 0.29398556
vn 0.12101513 0.92387953 0.36304538
vn 0.12101513 0.92387953 0.36304538
vn 0.12101513 0.92387953 0.36304538
vn 0.12101513 0.92387953 0.36304538
vn 0.37883727 0.92387953 -0.05411961
vn 0.37883727 0.92387953 -0.05411961
vn 0.37883727 0.92387953 -0.05411961
vn 0.37883727 0.92387953 -0.05411961
vn 0.22360680 0.70710678 0.67082039
vn 0.22360680 0.70710678 0.67082039
vn 0.22360680 0.70710678 0.67082039
vn 0.22360680 0.70710678 0.67082039
vn 0.81373347 0.00000000 0.58123819
vn 0.81373347 0.00000000 0.58123819
vn 0.81373347 0.00000000 0.58123819
vn 0.81373347 0.00000000 0.58123819
vn 0.70000000 0.70710678 -0.10000000
vn 0.70000000 0.70710678 -0.10000000
vn 0.70000000 0.70710678 -0.10000000
vn 0.70000000 0.70710678 -0.10000000
s 1
usemtl Rock
f 1/1/1 2/2/2 3/3/3
f 1/1/1 3/3/3 4/4/4
s 2
f 4/5/5 3/6/6 5/7/7
f 4/5/5 5/7/7 6/8/8
s 3
f 5/11/11 8/10/10 7/9/9
f 11/15/15 6/12/12 7/9/9
f 11/15/15 9/13/13 6/12/12
f 11/15/15 10/14/14 9/13/13
f 6/12/12 5/11/11 7/9/9
s 4
f 12/16/16 13/17/17 8/19/19
f 13/17/17 7/18/18 8/19/19
s 5
f 14/20/20 15/21/21 12/23/23
f 15/21/21 13/22/22 12/23/23
s 6
f 15/24/24 14/25/25 17/27/27
f 14/25/25 16/26/26 17/27/27
s 7
f 18/28/28 19/29/29 17/30/30
f 18/28/28 17/30/30 16/31/31
s 8
f 20/32/32 18/33/33 21/35/35
f 18/33/33 16/34/34 21/35/35
s 9
f 22/36/36 20/37/37 23/39/39
f 20/37/37 21/38/38 23/39/39
s 10
f 24/40/40 22/41/41 23/42/42
f 24/40/40 23/42/42 25/43/43
s 11
f 1/44/44 26/45/45 23/47/47
f 26/45/45 25/46/46 23/47/47
s 12
f 26/48/48 27/49/49 25/51/51
f 27/49/49 28/50/50 25/51/51
s 13
f 27/52/52 26/53/53 29/54/54
f 27/52/52 29/54/54 30/55/55
s 14
f 31/56/56 27/57/57 32/59/59
f 27/57/57 30/58/58 32/59/59
s 15
f 27/60/60 31/61/61 28/63/63
f 31/61/61 33/62/62 28/63/63
s 16
f 34/64/64 35/65/65 28/66/66
f 34/64/64 28/66/66 33/67/67
s 17
f 35/68/68 24/69/69 28/71/71
f 24/69/69 25/70/70 28/71/71
s 18
f 19/72/72 34/73/73 17/75/75
f 34/73/73 33/74/74 17/75/75
s 19
f 31/76/76 15/77/77 33/79/79
f 15/77/77 17/78/78 33/79/79
s 20
f 14/80/80 2/81/81 16/83/83
f 2/81/81 21/82/82 16/83/83
s 21
f 15/84/84 31/85/85 32/86/86
f 15/84/84 32/86/86 13/87/87
s 22
f 13/88/88 32/89/89 11/90/90
f 13/88/88 11/90/90 7/91/91
s 23
f 32/92/92 30/93/93 11/95/95
f 30/93/93 10/94/94 11/95/95
s 24
f 30/96/96 29/97/97 9/98/98
f 30/96/96 9/98/98 10/99/99
s 25
f 29/100/100 4/101/101 9/103/103
f 4/101/101 6/102/102 9/103/103
s 26
f 3/104/104 12/105/105 8/106/106
f 3/104/104 8/106/106 5/107/107
s 27
f 26/108/108 1/109/109 29/111/111
f 1/109/109 4/110/110 29/111/111
s 28
f 2/112/112 1/113/113 21/115/115
f 1/113/113 23/114/114 21/115/115
s 29
f 2/116/116 14/117/117 12/118/118
f 2/116/116 12/118/118 3/119/119
