mtllib Materials_Modular_Terrain.mtl
o object1
g object1
v -0.99027134 0.10000000 -0.39945732
v -1.00076067 0.05937500 -0.37847866
v -1.40492990 0.06750000 -0.42464950
v -1.40860980 0.10000000 -0.44304900
v -0.57603425 0.06750000 -0.21733666
v -0.58239213 0.01875000 -0.18991833
v -0.03804192 0.08375000 -0.12814673
v -0.02902096 0.02687500 -0.09657337
v -0.59510787 0.01875000 -0.13508167
v -0.01097904 0.02687500 -0.03342663
v -0.09147111 0.03320443 -0.04344579
v -0.14539315 0.07986211 -0.02716883
v -0.60146575 0.06750000 -0.10766334
v -1.03222866 0.10000000 -0.31554268
v -1.02173933 0.05937500 -0.33652134
v -1.39389020 0.10000000 -0.36945100
v -1.39757010 0.06750000 -0.38785050
v -1.02173933 0.14062500 -0.33652134
v -1.39757010 0.13250000 -0.38785050
v -1.00076067 0.14062500 -0.37847866
v -1.40492990 0.13250000 -0.42464950
v -0.59510787 0.11625000 -0.13508167
v -0.58239213 0.11625000 -0.18991833
v -0.08934560 0.13735486 -0.04706465
v -0.02902096 0.14062500 -0.09657337
v -0.38976957 0.13656250 0.21032260
v -0.14680512 0.08860554 -0.03214397
v -0.40203914 0.10000000 0.19314520
v -0.01097904 0.14062500 -0.03342663
v -0.36523043 0.13656250 0.24467740
v 0.40250000 0.13250000 -0.02747223
v 0.40250000 0.13250000 -0.10252777
v 0.40250000 0.06750000 -0.14005553
v 0.40250000 0.06750000 0.01005553
v 0.40250000 0.00250000 -0.02747223
v 0.40250000 0.00250000 -0.10252777
v 0.40250000 0.06750000 -0.06500000
v -0.00195808 0.08375000 -0.00185327
v -0.35296086 0.10000000 0.26185480
v -0.36523043 0.06343750 0.24467740
v -0.67775301 0.10000000 0.36808260
v -0.68200150 0.07562500 0.35466630
v -0.38976957 0.06343750 0.21032260
v -0.69049850 0.07562500 0.32783370
v -0.69474699 0.10000000 0.31441740
v -0.69049850 0.12437500 0.32783370
v -0.68200150 0.12437500 0.35466630
v -0.68625000 0.10000000 0.34125000
v -1.40125000 0.10000000 -0.40625000
vt 0.00000000 1.00000000
vt 0.00000000 0.00000000
vt 1.00000000 0.00000000
vt 1.00000000 1.00000000
vt 0.00000000 1.00000000
vt 0.00000000 0.00000000
vt 1.00000000 0.00000000
vt 1.00000000 1.00000000
vt 1.00000000 0.00000000
vt 1.00000000 1.00000000
vt 0.00000000 1.00000000
vt 0.00000000 0.00000000
vt 1.00000000 0.00000000
vt 1.00000000 1.00000000
vt 0.00000000 1.00000000
vt 0.00000000 0.00000000
vt 1.00000000 1.00000000
vt 0.00000000 1.00000000
vt 0.13937460 0.86613734
vt 0.23925478 0.00000000
vt 1.00000000 0.00000000
vt 0.00000000 1.00000000
vt 0.00000000 0.00000000
vt 1.00000000 0.00000000
vt 1.00000000 1.00000000
vt 0.00000000 1.00000000
vt 0.00000000 0.00000000
vt 1.00000000 0.00000000
vt 1.00000000 1.00000000
vt 0.00000000 1.00000000
vt 0.00000000 0.00000000
vt 1.00000000 0.00000000
vt 1.00000000 1.00000000
vt 0.00000000 1.00000000
vt 0.00000000 0.00000000
vt 1.00000000 0.00000000
vt 1.00000000 1.00000000
vt 0.00000000 1.00000000
vt 0.00000000 0.00000000
vt 1.00000000 0.00000000
vt 1.00000000 1.00000000
vt 0.13415972 1.00000000
vt 0.00000000 0.00000000
vt 1.00000000 0.00000000
vt 1.00000000 1.00000000
vt 1.00000000 1.00000000
vt 0.00000000 1.00000000
vt 0.16593491 0.95148006
vt 0.29880227 0.00000000
vt 1.00000000 0.00000000
vt 0.00000000 1.00000000
vt 0.00000000 0.00000000
vt 1.00000000 0.00000000
vt 1.00000000 1.00000000
vt 1.00000000 0.00000000
vt 1.00000000 1.00000000
vt 0.00000000 1.00000000
vt 0.00000000 0.00000000
vt 1.00000000 0.00000000
vt 1.00000000 1.00000000
vt 0.00000000 1.00000000
vt 0.00000000 0.00000000
vt 1.00000000 0.50000000
vt 0.75000000 1.00000000
vt 0.25000000 1.00000000
vt 0.00000000 0.50000000
vt 0.25000000 0.00000000
vt 0.75000000 0.00000000
vt 0.50000000 0.50000000
vt 1.00000000 0.00000000
vt 1.00000000 1.00000000
vt 0.00000000 1.00000000
vt 0.00000000 0.00000000
vt 0.00000000 1.00000000
vt 0.00000000 0.00000000
vt 1.00000000 0.00000000
vt 1.00000000 1.00000000
vt 0.00000000 1.00000000
vt 0.00000000 0.00000000
vt 1.00000000 0.00000000
vt 1.00000000 1.00000000
vt 0.00000000 1.00000000
vt 0.00000000 0.00000000
vt 1.00000000 0.00000000
vt 1.00000000 1.00000000
vt 0.00000000 1.00000000
vt 0.00000000 0.00000000
vt 1.00000000 0.00000000
vt 1.00000000 1.00000000
vt 1.00000000 0.50000000
vt 0.75000000 1.00000000
vt 0.25000000 1.00000000
vt 0.00000000 0.50000000
vt 0.25000000 0.00000000
vt 0.75000000 0.00000000
vt 0.50000000 0.50000000
vt 0.00000000 1.00000000
vt 0.00000000 0.00000000
vt 1.00000000 0.00000000
vt 1.00000000 1.00000000
vt 1.00000000 0.00000000
vt 1.00000000 1.00000000
vt 0.00000000 1.00000000
vt 0.00000000 0.00000000
vt 0.00000000 1.00000000
vt 0.00000000 0.00000000
vt 1.00000000 0.00000000
vt 1.00000000 1.00000000
vt 0.00000000 1.00000000
vt 0.00000000 0.00000000
vt 1.00000000 0.00000000
vt 1.00000000 1.00000000
vt 0.00000000 1.00000000
vt 0.00000000 0.00000000
vt 1.00000000 0.00000000
vt 1.00000000 1.00000000
vt 0.00000000 1.00000000
vt 0.00000000 0.00000000
vt 1.00000000 0.00000000
vt 1.00000000 1.00000000
vt 1.00000000 1.00000000
vt 0.12137927 1.00000000
vt 0.12246283 0.84052940
vt 0.00000000 0.00000000
vt 1.00000000 0.00000000
vt 1.00000000 1.00000000
vt 0.15200331 1.00000000
vt 0.15303777 0.82757163
vt 0.00000000 0.00000000
vt 1.00000000 0.00000000
vt 0.17311266 1.00000000
vt 0.00000000 0.00000000
vt 1.00000000 0.00000000
vt 1.00000000 1.00000000
vt 1.00000000 0.00000000
vt 1.00000000 1.00000000
vt 0.00000000 1.00000000
vt 0.00000000 0.00000000
vt 1.00000000 0.00000000
vt 1.00000000 1.00000000
vt 0.00000000 1.00000000
vt 0.00000000 0.00000000
vt 1.00000000 0.00000000
vt 1.00000000 1.00000000
vt 0.00000000 1.00000000
vt 0.00000000 0.00000000
vt 0.00000000 1.00000000
vt 0.00000000 0.00000000
vt 1.00000000 0.00000000
vt 1.00000000 1.00000000
vt 0.00000000 1.00000000
vt 0.00000000 0.00000000
vt 1.00000000 0.00000000
vt 1.00000000 1.00000000
vt 0.00000000 1.00000000
vt 0.00000000 0.00000000
vt 1.00000000 0.00000000
vt 1.00000000 1.00000000
vt 1.00000000 0.50000000
vt 0.75000000 1.00000000
vt 0.25000000 1.00000000
vt 0.00000000 0.50000000
vt 0.25000000 0.00000000
vt 0.75000000 0.00000000
vt 0.50000000 0.50000000
vt 0.00000000 1.00000000
vt 0.00000000 0.00000000
vt 1.00000000 0.00000000
vt 1.00000000 1.00000000
vn 0.09117973 -0.47540556 -0.87502904
vn 0.09042204 -0.47528448 -0.87517342
vn 0.08979434 -0.48295564 -0.87102860
vn 0.09075975 -0.48282932 -0.87099857
vn 0.31656103 -0.49603183 -0.80854285
vn 0.31628834 -0.49605001 -0.80863841
vn 0.31552698 -0.49844154 -0.80746440
vn 0.31583945 -0.49845488 -0.80733400
vn 0.15122504 -0.49948505 -0.85302149
vn 0.15634277 -0.49959654 -0.85203300
vn 0.15873362 -0.45984414 -0.87369732
vn 0.15420049 -0.46074911 -0.87403231
vn 0.01336880 -0.99990583 0.00310001
vn 0.01412855 -0.99989482 0.00327618
vn 0.01542422 -0.99987133 -0.00440692
vn 0.01463571 -0.99988415 -0.00418163
vn -0.14181126 -0.49924482 0.85477727
vn -0.14577422 -0.46240326 0.87460454
vn -0.14475030 -0.46713669 0.87225607
vn -0.14092020 -0.47104618 0.87077953
vn -0.13747297 -0.49911882 0.85555922
vn -0.41038243 -0.48710628 0.77091746
vn -0.40908025 -0.48726807 0.77150708
vn -0.40672426 -0.49988094 0.76465314
vn -0.40825893 -0.49986127 0.76384773
vn -0.12883340 -0.48106710 0.86716573
vn -0.12924356 -0.48112492 0.86707261
vn -0.12954626 -0.47736469 0.86910340
vn -0.12902440 -0.47744328 0.86913786
vn -0.12924356 0.48112492 0.86707261
vn -0.12883340 0.48106710 0.86716573
vn -0.12902440 0.47744328 0.86913786
vn -0.12954626 0.47736469 0.86910340
vn -0.02023167 0.99974414 -0.01011583
vn -0.01901247 0.99977405 -0.00950623
vn -0.02056848 0.99977998 0.00411370
vn -0.02222017 0.99974322 0.00444403
vn 0.05142373 0.99860573 0.01192434
vn 0.05267200 0.99853717 0.01221380
vn 0.04748014 0.99859003 0.02374007
vn 0.04615997 0.99866740 0.02307998
vn -0.04338112 0.99901120 0.00973160
vn -0.04622510 0.99884374 0.01320717
vn -0.04235002 0.99905457 -0.00982029
vn -0.04007623 0.99915341 -0.00929304
vn -0.56496785 0.49849365 -0.65750697
vn -0.57684955 0.46450332 -0.67192356
vn -0.57537769 0.46849174 -0.67041480
vn -0.57124996 0.47257238 -0.67108034
vn -0.56098036 0.49868690 -0.66076653
vn -0.00936642 0.99995255 0.00267612
vn -0.00700453 0.99996295 0.00500324
vn -0.00734736 0.99995924 0.00524811
vn 0.01875124 0.99980983 -0.00535750
vn 0.01964654 0.99980699 -0.00000000
vn 0.01882541 0.99982279 -0.00000000
vn -0.00569537 0.48604519 -0.87391512
vn -0.00291618 0.48571414 -0.87411285
vn -0.00253559 0.49999839 -0.86602262
vn -0.00496729 0.49999383 -0.86601472
vn 1.00000000 0.00000000 0.00000000
vn 1.00000000 0.00000000 0.00000000
vn 1.00000000 0.00000000 0.00000000
vn 1.00000000 0.00000000 0.00000000
vn 1.00000000 0.00000000 0.00000000
vn 1.00000000 0.00000000 0.00000000
vn 1.00000000 0.00000000 0.00000000
vn -0.04506659 -0.47939593 0.87644084
vn -0.04091541 -0.47998761 0.87632062
vn -0.04191004 -0.49956069 0.86526450
vn -0.04554043 -0.49948125 0.86512690
vn 0.51146722 -0.47766334 0.71431017
vn 0.51360062 -0.47728988 0.71302789
vn 0.50527622 -0.49999862 0.70334722
vn 0.50225252 -0.49999953 0.70550895
vn 0.27072756 -0.48226771 0.83314131
vn 0.27228246 -0.48249067 0.83250526
vn 0.26921549 -0.49998336 0.82312798
vn 0.26683590 -0.49999200 0.82389721
vn -0.03165939 -0.99924286 0.02261385
vn -0.03080622 -0.99928313 0.02200444
vn -0.03463999 -0.99933965 0.01096933
vn -0.03603824 -0.99928525 0.01141211
vn -0.33360787 -0.49024678 -0.80521046
vn -0.33436779 -0.49032990 -0.80484457
vn -0.33295007 -0.49856181 -0.80036265
vn -0.33178726 -0.49860875 -0.80081616
vn -0.95334223 0.00000000 0.30189170
vn -0.95334223 0.00000000 0.30189170
vn -0.95334223 0.00000000 0.30189170
vn -0.95334223 0.00000000 0.30189170
vn -0.95334223 0.00000000 0.30189170
vn -0.95334223 0.00000000 0.30189170
vn -0.95334223 0.00000000 0.30189170
vn 0.27228246 0.48249067 0.83250526
vn 0.27072756 0.48226771 0.83314131
vn 0.26683590 0.49999200 0.82389721
vn 0.26921549 0.49998336 0.82312798
vn -0.00306346 0.48498892 0.87451493
vn -0.00628557 0.48459080 0.87471838
vn -0.00541043 0.49999268 0.86601273
vn -0.00264623 0.49999825 0.86602237
vn 0.54350569 0.47166796 0.69435647
vn 0.54097075 0.47217315 0.69599078
vn 0.53132294 0.49969840 0.68410339
vn 0.53499109 0.49961291 0.68130131
vn -0.03603824 0.99928525 0.01141211
vn -0.03463999 0.99933965 0.01096933
vn -0.33436779 0.49032990 -0.80484457
vn -0.33360787 0.49024678 -0.80521046
vn -0.33178726 0.49860875 -0.80081616
vn -0.33295007 0.49856181 -0.80036265
vn -0.34747139 0.49368679 0.79720574
vn -0.34809518 0.49363360 0.79696651
vn -0.34638760 0.49948682 0.79405827
vn -0.34567210 0.49946889 0.79438129
vn -0.16366796 0.49973261 0.85057634
vn -0.16593335 0.46728637 0.86839483
vn -0.16664620 0.46721071 0.86829903
vn -0.17071193 0.46245102 0.87005545
vn -0.16870177 0.49981003 0.84954673
vn -0.58653552 -0.49720066 -0.63934935
vn -0.59663517 -0.46748077 -0.65229456
vn -0.59720349 -0.46738474 -0.65184315
vn -0.60109120 -0.46298502 -0.65140943
vn -0.59098385 -0.49688042 -0.63549031
vn -0.07888628 -0.99654461 0.02599593
vn -0.08397963 -0.99617855 0.02399418
vn -0.05616835 -0.99829233 0.01604810
vn -0.05639635 -0.99840846 -0.00000000
vn -0.05884883 -0.99826691 -0.00000000
vn -0.03968387 -0.48978448 -0.87093993
vn -0.04161157 -0.48997940 -0.87074029
vn -0.04181713 -0.49956264 -0.86526788
vn -0.04016067 -0.49959662 -0.86532672
vn 0.12707086 0.49877756 -0.85736453
vn 0.12278126 0.49862078 -0.85808046
vn 0.12718283 0.46592474 -0.87563615
vn 0.13108265 0.46520063 -0.87544601
vn 0.38168131 0.49041755 -0.78346027
vn 0.38272558 0.49030631 -0.78302034
vn 0.38112801 0.49998814 -0.77765886
vn 0.37989681 0.49998294 -0.77826440
vn -0.08755942 -0.99595236 -0.02030363
vn -0.08549470 -0.99614137 -0.01982486
vn -0.07675178 -0.99631142 -0.03837589
vn -0.07893609 -0.99609807 -0.03946804
vn 0.09042204 0.47528448 -0.87517342
vn 0.09117973 0.47540556 -0.87502904
vn 0.09075975 0.48282932 -0.87099857
vn 0.08979434 0.48295564 -0.87102860
vn -0.98058068 0.00000000 0.19611614
vn -0.98058068 0.00000000 0.19611614
vn -0.98058068 0.00000000 0.19611614
vn -0.98058068 0.00000000 0.19611614
vn -0.98058068 0.00000000 0.19611614
vn -0.98058068 0.00000000 0.19611614
vn -0.98058068 0.00000000 0.19611614
vn -0.01901247 -0.99977405 -0.00950623
vn -0.02023167 -0.99974414 -0.01011583
vn -0.02222017 -0.99974322 0.00444403
vn -0.02056848 -0.99977998 0.00411370
s 1
usemtl Wood_Dark
f 1/1/1 2/2/2 4/4/4
f 2/2/2 3/3/3 4/4/4
s 2
f 5/5/5 6/6/6 2/7/7
f 5/5/5 2/7/7 1/8/8
s 3
f 6/9/9 5/10/10 7/11/11
f 6/9/9 7/11/11 8/12/12
s 4
f 9/13/13 6/14/14 8/15/15
f 9/13/13 8/15/15 10/16/16
s 5
f 12/20/20 13/21/21 9/17/17
f 9/17/17 10/18/18 11/19/19
f 11/19/19 12/20/20 9/17/17
s 6
f 9/22/22 13/23/23 15/25/25
f 13/23/23 14/24/24 15/25/25
s 7
f 15/26/26 14/27/27 17/29/29
f 14/27/27 16/28/28 17/29/29
s 8
f 14/30/30 18/31/31 19/32/32
f 14/30/30 19/32/32 16/33/33
s 9
f 18/34/34 20/35/35 21/36/36
f 18/34/34 21/36/36 19/37/37
s 10
f 22/38/38 23/39/39 18/41/41
f 23/39/39 20/40/40 18/41/41
s 11
f 24/42/42 25/43/43 23/44/44
f 29/51/51 25/52/43 26/53/52
f 26/110/52 46/111/107 47/112/108
f 30/109/53 26/110/52 47/112/108
f 29/56/51 31/57/55 32/58/56
f 25/55/54 29/56/51 32/58/56
f 29/51/51 26/53/52 30/54/53
f 24/42/42 23/44/44 22/45/45
s 12
f 27/49/49 28/50/50 26/46/46
f 26/46/46 25/47/47 24/48/48
f 24/48/48 27/49/49 26/46/46
s 13
f 7/59/57 25/60/58 33/62/60
f 25/60/58 32/61/59 33/62/60
s 14
usemtl Wood_Light
f 34/63/61 35/64/62 37/69/67
f 32/67/65 31/68/66 37/69/67
f 33/66/64 32/67/65 37/69/67
f 36/65/63 33/66/64 37/69/67
f 35/64/62 36/65/63 37/69/67
f 31/68/66 34/63/61 37/69/67
s 15
usemtl Wood_Dark
f 38/70/68 10/71/69 35/72/70
f 38/70/68 35/72/70 34/73/71
s 16
f 10/74/72 38/75/73 40/77/75
f 38/75/73 39/76/74 40/77/75
s 17
f 40/78/76 39/79/77 41/80/78
f 40/78/76 41/80/78 42/81/79
s 18
f 43/82/80 40/83/81 42/84/82
f 11/131/127 10/132/128 40/133/81
f 10/135/128 36/137/130 35/138/131
f 10/135/128 8/136/129 36/137/130
f 11/131/127 40/133/81 43/134/80
f 43/82/80 42/84/82 44/85/83
s 19
f 28/86/84 43/87/85 44/88/86
f 28/86/84 44/88/86 45/89/87
s 20
usemtl Wood_Light
f 47/95/93 46/94/92 48/96/94
f 42/91/89 41/90/88 48/96/94
f 44/92/90 42/91/89 48/96/94
f 45/93/91 44/92/90 48/96/94
f 46/94/92 45/93/91 48/96/94
f 41/90/88 47/95/93 48/96/94
s 21
usemtl Wood_Dark
f 39/97/95 30/98/96 41/100/98
f 30/98/96 47/99/97 41/100/98
s 22
f 29/101/99 38/102/100 31/104/102
f 38/102/100 34/103/101 31/104/102
s 23
f 38/105/103 29/106/104 30/107/105
f 38/105/103 30/107/105 39/108/106
s 24
f 26/113/109 28/114/110 46/116/112
f 28/114/110 45/115/111 46/116/112
s 25
f 13/117/113 22/118/114 14/120/116
f 22/118/114 18/119/115 14/120/116
s 26
f 13/121/117 12/122/118 27/123/119
f 27/123/119 24/124/120 22/125/121
f 22/125/121 13/121/117 27/123/119
s 27
f 28/126/122 27/127/123 12/128/124
f 12/128/124 11/129/125 43/130/126
f 43/130/126 28/126/122 12/128/124
s 28
f 8/139/132 7/140/133 33/141/134
f 8/139/132 33/141/134 36/142/135
s 29
f 5/143/136 23/144/137 7/146/139
f 23/144/137 25/145/138 7/146/139
s 30
f 23/147/140 5/148/141 1/149/142
f 23/147/140 1/149/142 20/150/143
s 31
f 6/151/144 9/152/145 15/153/146
f 6/151/144 15/153/146 2/154/147
s 32
f 20/155/148 1/156/149 4/157/150
f 20/155/148 4/157/150 21/158/151
s 33
usemtl Wood_Light
f 19/164/157 21/163/156 49/165/158
f 17/160/153 16/159/152 49/165/158
f 3/161/154 17/160/153 49/165/158
f 4/162/155 3/161/154 49/165/158
f 21/163/156 4/162/155 49/165/158
f 16/159/152 19/164/157 49/165/158
s 34
usemtl Wood_Dark
f 2/166/159 15/167/160 3/169/162
f 15/167/160 17/168/161 3/169/162
