mtllib Materials_Modular_Terrain.mtl
o object1
g object1
v -0.15000000 0.20000000 0.05000000
v -0.10000000 0.20000000 -0.17500000
v -0.10000000 0.00000000 -0.17500000
v -0.15000000 0.00000000 0.05000000
v -0.13257372 0.23750000 0.05801496
v -0.08460480 0.23750000 -0.15784519
v -0.20204046 0.23750000 0.15063727
v -0.16652568 0.23750000 0.20390943
v 0.04060256 0.23750000 0.15788094
v 0.17854770 0.23750000 0.01993580
v 0.11200550 0.23750000 -0.17969078
v 0.20000000 0.20000000 0.02500000
v 0.12500000 0.20000000 -0.20000000
v 0.20000000 0.00000000 0.02500000
v 0.12500000 0.00000000 -0.20000000
v 0.05000000 0.20000000 0.17500000
v 0.05000000 -0.00000000 0.17500000
v -0.17500000 0.20000000 0.22500000
v -0.17500000 -0.00000000 0.22500000
v -0.22500000 0.20000000 0.15000000
v -0.22500000 0.00000000 0.15000000
vt 0.00000000 1.00000000
vt 0.00000000 0.00000000
vt 1.00000000 0.00000000
vt 1.00000000 1.00000000
vt 1.00000000 1.00000000
vt 0.05716315 1.00000000
vt 0.00000000 0.00000000
vt 0.98275801 0.00000000
vt 0.38032950 0.81747530
vt 0.13887417 1.00000000
vt 0.00000000 0.90668450
vt 0.11999080 0.36245253
vt 0.47959732 0.00000000
vt 1.00000000 0.17484042
vt 0.94305116 0.69143637
vt 0.93608912 1.00000000
vt 0.04885988 1.00000000
vt 0.00000000 0.00000000
vt 1.00000000 0.00000000
vt 0.00000000 1.00000000
vt 0.00000000 0.00000000
vt 1.00000000 0.00000000
vt 1.00000000 1.00000000
vt 0.00000000 1.00000000
vt 0.00000000 0.00000000
vt 1.00000000 0.00000000
vt 1.00000000 1.00000000
vt 0.00000000 1.00000000
vt 0.00000000 0.00000000
vt 1.00000000 0.00000000
vt 1.00000000 1.00000000
vt 0.00000000 1.00000000
vt 0.00000000 0.00000000
vt 1.00000000 0.00000000
vt 1.00000000 1.00000000
vt 0.94537300 1.00000000
vt 0.02573875 1.00000000
vt 0.00000000 0.00000000
vt 1.00000000 0.00000000
vt 0.97631114 1.00000000
vt 0.05574117 1.00000000
vt 0.00000000 0.00000000
vt 1.00000000 0.00000000
vt 0.85746750 1.00000000
vt 0.14717203 1.00000000
vt 0.00000000 0.00000000
vt 1.00000000 0.00000000
vt 0.89719841 1.00000000
vt 0.00000000 1.00000000
vt 0.03133668 0.00000000
vt 1.00000000 0.00000000
vt 0.94077949 1.00000000
vt 0.06695594 1.00000000
vt 0.00000000 0.00000000
vt 1.00000000 0.00000000
vt 0.00000000 1.00000000
vt 0.00000000 0.00000000
vt 1.00000000 0.00000000
vt 1.00000000 1.00000000
vt 0.00000000 1.00000000
vt 0.00000000 0.00000000
vt 1.00000000 0.00000000
vt 1.00000000 1.00000000
vn -0.97618706 0.00000000 -0.21693046
vn -0.97618706 0.00000000 -0.21693046
vn -0.97618706 0.00000000 -0.21693046
vn -0.97618706 0.00000000 -0.21693046
vn -0.87312825 0.44721360 -0.19402850
vn -0.87312825 0.44721360 -0.19402850
vn -0.87312825 0.44721360 -0.19402850
vn -0.87312825 0.44721360 -0.19402850
vn 0.00000000 1.00000000 0.00000000
vn 0.00000000 1.00000000 0.00000000
vn 0.00000000 1.00000000 0.00000000
vn 0.00000000 1.00000000 0.00000000
vn 0.00000000 1.00000000 0.00000000
vn 0.00000000 1.00000000 0.00000000
vn 0.00000000 1.00000000 0.00000000
vn 0.84852814 0.44721360 -0.28284271
vn 0.84852814 0.44721360 -0.28284271
vn 0.84852814 0.44721360 -0.28284271
vn 0.84852814 0.44721360 -0.28284271
vn 0.94868330 0.00000000 -0.31622777
vn 0.94868330 0.00000000 -0.31622777
vn 0.94868330 0.00000000 -0.31622777
vn 0.94868330 0.00000000 -0.31622777
vn 0.70710678 0.00000000 0.70710678
vn 0.70710678 0.00000000 0.70710678
vn 0.70710678 0.00000000 0.70710678
vn 0.70710678 0.00000000 0.70710678
vn 0.21693046 -0.00000000 0.97618706
vn 0.21693046 0.00000000 0.97618706
vn 0.21693046 0.00000000 0.97618706
vn 0.21693046 -0.00000000 0.97618706
vn -0.83205029 0.00000000 0.55470020
vn -0.83205029 0.00000000 0.55470020
vn -0.83205029 0.00000000 0.55470020
vn -0.83205029 0.00000000 0.55470020
vn 0.63245553 0.44721360 0.63245553
vn 0.63245553 0.44721360 0.63245553
vn 0.63245553 0.44721360 0.63245553
vn 0.63245553 0.44721360 0.63245553
vn 0.19402850 0.44721360 0.87312825
vn 0.19402850 0.44721360 0.87312825
vn 0.19402850 0.44721360 0.87312825
vn 0.19402850 0.44721360 0.87312825
vn -0.74420841 0.44721360 0.49613894
vn -0.74420841 0.44721360 0.49613894
vn -0.74420841 0.44721360 0.49613894
vn -0.74420841 0.44721360 0.49613894
vn -0.71554175 0.44721360 -0.53665631
vn -0.71554175 0.44721360 -0.53665631
vn -0.71554175 0.44721360 -0.53665631
vn -0.71554175 0.44721360 -0.53665631
vn -0.09877296 0.44721360 -0.88895664
vn -0.09877296 0.44721360 -0.88895664
vn -0.09877296 0.44721360 -0.88895664
vn -0.09877296 0.44721360 -0.88895664
vn -0.80000000 0.00000000 -0.60000000
vn -0.80000000 0.00000000 -0.60000000
vn -0.80000000 0.00000000 -0.60000000
vn -0.80000000 0.00000000 -0.60000000
vn -0.11043153 0.00000000 -0.99388373
vn -0.11043153 0.00000000 -0.99388373
vn -0.11043153 0.00000000 -0.99388373
vn -0.11043153 0.00000000 -0.99388373
s 1
usemtl Rock
f 1/1/1 2/2/2 4/4/4
f 2/2/2 3/3/3 4/4/4
s 2
f 5/5/5 6/6/6 1/8/8
f 6/6/6 2/7/7 1/8/8
s 3
f 5/9/9 7/10/10 8/11/11
f 5/9/9 10/13/13 6/15/15
f 10/13/13 11/14/14 6/15/15
f 5/9/9 9/12/12 10/13/13
f 5/9/9 8/11/11 9/12/12
s 4
f 11/16/16 10/17/17 12/18/18
f 11/16/16 12/18/18 13/19/19
s 5
f 13/20/20 12/21/21 15/23/23
f 12/21/21 14/22/22 15/23/23
s 6
f 12/24/24 16/25/25 14/27/27
f 16/25/25 17/26/26 14/27/27
s 7
f 16/28/28 18/29/29 17/31/31
f 18/29/29 19/30/30 17/31/31
s 8
f 18/32/32 20/33/33 21/34/34
f 18/32/32 21/34/34 19/35/35
s 9
f 10/36/36 9/37/37 16/38/38
f 10/36/36 16/38/38 12/39/39
s 10
f 9/40/40 8/41/41 16/43/43
f 8/41/41 18/42/42 16/43/43
s 11
f 8/44/44 7/45/45 18/47/47
f 7/45/45 20/46/46 18/47/47
s 12
f 7/48/48 5/49/49 1/50/50
f 7/48/48 1/50/50 20/51/51
s 13
f 6/52/52 11/53/53 2/55/55
f 11/53/53 13/54/54 2/55/55
s 14
f 20/56/56 1/57/57 21/59/59
f 1/57/57 4/58/58 21/59/59
s 15
f 2/60/60 13/61/61 3/63/63
f 13/61/61 15/62/62 3/63/63
