mtllib Materials_Modular_Terrain.mtl
o object1
g object1
v 0.50000000 0.30344926 0.43764420
v -0.50000000 0.30344926 0.43764420
v -0.50000000 0.30344926 0.22903335
v 0.50000000 0.30344926 0.22903335
v 0.50000000 0.28428946 0.47222767
v -0.50000000 0.28428946 0.47222767
v 0.50000000 0.13039600 0.47222767
v -0.50000000 0.13039600 0.47222767
v 0.50000000 0.05344926 0.33333878
v -0.50000000 0.05344926 0.33333878
v 0.50000000 0.13039600 0.19444989
v -0.50000000 0.13039600 0.19444989
v 0.50000000 0.28428946 0.19444989
v -0.50000000 0.28428946 0.19444989
vt 1.00000000 0.00000000
vt 1.00000000 1.00000000
vt 0.00000000 1.00000000
vt 0.00000000 0.00000000
vt 1.00000000 1.00000000
vt 0.00000000 1.00000000
vt 0.00000000 0.00000000
vt 1.00000000 0.00000000
vt 1.00000000 0.00000000
vt 1.00000000 1.00000000
vt 0.00000000 1.00000000
vt 0.00000000 0.00000000
vt 1.00000000 0.00000000
vt 1.00000000 1.00000000
vt 0.00000000 1.00000000
vt 0.00000000 0.00000000
vt 1.00000000 0.00000000
vt 1.00000000 1.00000000
vt 0.00000000 1.00000000
vt 0.00000000 0.00000000
vt 1.00000000 0.00000000
vt 1.00000000 1.00000000
vt 0.00000000 1.00000000
vt 0.00000000 0.00000000
vt 0.00000000 0.00000000
vt 1.00000000 0.00000000
vt 1.00000000 1.00000000
vt 0.00000000 1.00000000
vn 0.00000000 1.00000000 -0.00000000
vn 0.00000000 1.00000000 -0.00000000
vn 0.00000000 1.00000000 -0.00000000
vn 0.00000000 1.00000000 -0.00000000
vn 0.00000000 0.87472821 0.48461383
vn 0.00000000 0.87472821 0.48461383
vn 0.00000000 0.87472821 0.48461383
vn 0.00000000 0.87472821 0.48461383
vn -0.00000000 0.00000000 1.00000000
vn -0.00000000 0.00000000 1.00000000
vn -0.00000000 0.00000000 1.00000000
vn -0.00000000 0.00000000 1.00000000
vn -0.00000000 -0.87472821 0.48461383
vn -0.00000000 -0.87472821 0.48461383
vn -0.00000000 -0.87472821 0.48461383
vn -0.00000000 -0.87472821 0.48461383
vn -0.00000000 -0.87472821 -0.48461383
vn -0.00000000 -0.87472821 -0.48461383
vn -0.00000000 -0.87472821 -0.48461383
vn -0.00000000 -0.87472821 -0.48461383
vn 0.00000000 -0.00000000 -1.00000000
vn 0.00000000 -0.00000000 -1.00000000
vn 0.00000000 -0.00000000 -1.00000000
vn 0.00000000 -0.00000000 -1.00000000
vn 0.00000000 0.87472821 -0.48461383
vn 0.00000000 0.87472821 -0.48461383
vn 0.00000000 0.87472821 -0.48461383
vn 0.00000000 0.87472821 -0.48461383
s 1
usemtl Wood_Light
f 4/4/4 3/3/3 1/1/1
f 3/3/3 2/2/2 1/1/1
s 2
usemtl Wood_Dark
f 1/8/8 2/7/7 5/5/5
f 2/7/7 6/6/6 5/5/5
s 3
f 6/12/12 8/11/11 5/9/9
f 8/11/11 7/10/10 5/9/9
s 4
f 8/16/16 10/15/15 7/13/13
f 10/15/15 9/14/14 7/13/13
s 5
f 10/20/20 12/19/19 11/18/18
f 10/20/20 11/18/18 9/17/17
s 6
f 12/24/24 14/23/23 13/22/22
f 12/24/24 13/22/22 11/21/21
s 7
f 3/28/28 4/27/27 13/26/26
f 3/28/28 13/26/26 14/25/25
o object2
g object2
v 0.50000000 0.09118799 -0.19444336
v -0.50000000 0.09118799 -0.19444336
v -0.50000000 0.11034779 -0.22902682
v 0.50000000 0.11034779 -0.22902682
v -0.50000000 0.11034779 -0.43763767
v 0.50000000 0.11034779 -0.43763767
v -0.50000000 0.09118799 -0.47222113
v 0.50000000 0.09118799 -0.47222113
v 0.50000000 -0.06270548 -0.47222113
v -0.50000000 -0.06270548 -0.47222113
v 0.50000000 -0.13965221 -0.33333224
v -0.50000000 -0.13965221 -0.33333224
v 0.50000000 -0.06270548 -0.19444336
v -0.50000000 -0.06270548 -0.19444336
vt 1.00000000 1.00000000
vt 0.00000000 1.00000000
vt 0.00000000 0.00000000
vt 1.00000000 0.00000000
vt 1.00000000 0.00000000
vt 1.00000000 1.00000000
vt 0.00000000 1.00000000
vt 0.00000000 0.00000000
vt 0.00000000 0.00000000
vt 1.00000000 0.00000000
vt 1.00000000 1.00000000
vt 0.00000000 1.00000000
vt 1.00000000 0.00000000
vt 1.00000000 1.00000000
vt 0.00000000 1.00000000
vt 0.00000000 0.00000000
vt 1.00000000 0.00000000
vt 1.00000000 1.00000000
vt 0.00000000 1.00000000
vt 0.00000000 0.00000000
vt 1.00000000 0.00000000
vt 1.00000000 1.00000000
vt 0.00000000 1.00000000
vt 0.00000000 0.00000000
vt 1.00000000 0.00000000
vt 1.00000000 1.00000000
vt 0.00000000 1.00000000
vt 0.00000000 0.00000000
vn 0.00000000 0.87472821 0.48461383
vn 0.00000000 0.87472821 0.48461383
vn 0.00000000 0.87472821 0.48461383
vn 0.00000000 0.87472821 0.48461383
vn 0.00000000 1.00000000 -0.00000000
vn 0.00000000 1.00000000 -0.00000000
vn 0.00000000 1.00000000 -0.00000000
vn 0.00000000 1.00000000 -0.00000000
vn 0.00000000 0.87472821 -0.48461383
vn 0.00000000 0.87472821 -0.48461383
vn 0.00000000 0.87472821 -0.48461383
vn 0.00000000 0.87472821 -0.48461383
vn 0.00000000 -0.00000000 -1.00000000
vn 0.00000000 -0.00000000 -1.00000000
vn 0.00000000 -0.00000000 -1.00000000
vn 0.00000000 -0.00000000 -1.00000000
vn -0.00000000 -0.87472821 -0.48461383
vn -0.00000000 -0.87472821 -0.48461383
vn -0.00000000 -0.87472821 -0.48461383
vn -0.00000000 -0.87472821 -0.48461383
vn -0.00000000 -0.87472821 0.48461383
vn -0.00000000 -0.87472821 0.48461383
vn -0.00000000 -0.87472821 0.48461383
vn -0.00000000 -0.87472821 0.48461383
vn -0.00000000 0.00000000 1.00000000
vn -0.00000000 0.00000000 1.00000000
vn -0.00000000 0.00000000 1.00000000
vn -0.00000000 0.00000000 1.00000000
s 1
usemtl Wood_Dark
f 18/32/32 17/31/31 15/29/29
f 17/31/31 16/30/30 15/29/29
s 2
usemtl Wood_Light
f 20/36/36 19/35/35 18/33/33
f 19/35/35 17/34/34 18/33/33
s 3
usemtl Wood_Dark
f 19/40/40 20/39/39 22/38/38
f 19/40/40 22/38/38 21/37/37
s 4
f 24/44/44 21/43/43 22/42/42
f 24/44/44 22/42/42 23/41/41
s 5
f 26/48/48 24/47/47 23/46/46
f 26/48/48 23/46/46 25/45/45
s 6
f 28/52/52 26/51/51 27/49/49
f 26/51/51 25/50/50 27/49/49
s 7
f 16/56/56 28/55/55 15/53/53
f 28/55/55 27/54/54 15/53/53
o object3
g object3
v 0.50000000 0.18773872 0.13889216
v -0.50000000 0.18773872 0.13889216
v -0.50000000 0.20689853 0.10430869
v 0.50000000 0.20689853 0.10430869
v 0.50000000 0.03384526 0.13889216
v -0.50000000 0.03384526 0.13889216
v 0.50000000 -0.04310147 0.00000327
v -0.50000000 -0.04310147 0.00000327
v 0.50000000 0.03384526 -0.13888562
v -0.50000000 0.03384526 -0.13888562
v 0.50000000 0.18773872 -0.13888562
v -0.50000000 0.18773872 -0.13888562
v 0.50000000 0.20689853 -0.10430216
v -0.50000000 0.20689853 -0.10430216
vt 1.00000000 1.00000000
vt 0.00000000 1.00000000
vt 0.00000000 0.00000000
vt 1.00000000 0.00000000
vt 1.00000000 0.00000000
vt 1.00000000 1.00000000
vt 0.00000000 1.00000000
vt 0.00000000 0.00000000
vt 1.00000000 0.00000000
vt 1.00000000 1.00000000
vt 0.00000000 1.00000000
vt 0.00000000 0.00000000
vt 1.00000000 0.00000000
vt 1.00000000 1.00000000
vt 0.00000000 1.00000000
vt 0.00000000 0.00000000
vt 1.00000000 0.00000000
vt 1.00000000 1.00000000
vt 0.00000000 1.00000000
vt 0.00000000 0.00000000
vt 0.00000000 0.00000000
vt 1.00000000 0.00000000
vt 1.00000000 1.00000000
vt 0.00000000 1.00000000
vt 1.00000000 0.00000000
vt 1.00000000 1.00000000
vt 0.00000000 1.00000000
vt 0.00000000 0.00000000
vn 0.00000000 0.87472821 0.48461383
vn 0.00000000 0.87472821 0.48461383
vn 0.00000000 0.87472821 0.48461383
vn 0.00000000 0.87472821 0.48461383
vn -0.00000000 0.00000000 1.00000000
vn -0.00000000 0.00000000 1.00000000
vn -0.00000000 0.00000000 1.00000000
vn -0.00000000 0.00000000 1.00000000
vn -0.00000000 -0.87472821 0.48461383
vn -0.00000000 -0.87472821 0.48461383
vn -0.00000000 -0.87472821 0.48461383
vn -0.00000000 -0.87472821 0.48461383
vn -0.00000000 -0.87472821 -0.48461383
vn -0.00000000 -0.87472821 -0.48461383
vn -0.00000000 -0.87472821 -0.48461383
vn -0.00000000 -0.87472821 -0.48461383
vn 0.00000000 -0.00000000 -1.00000000
vn 0.00000000 -0.00000000 -1.00000000
vn 0.00000000 -0.00000000 -1.00000000
vn 0.00000000 -0.00000000 -1.00000000
vn 0.00000000 0.87472821 -0.48461383
vn 0.00000000 0.87472821 -0.48461383
vn 0.00000000 0.87472821 -0.48461383
vn 0.00000000 0.87472821 -0.48461383
vn 0.00000000 1.00000000 -0.00000000
vn 0.00000000 1.00000000 -0.00000000
vn 0.00000000 1.00000000 -0.00000000
vn 0.00000000 1.00000000 -0.00000000
s 1
usemtl Wood_Dark
f 32/60/60 31/59/59 29/57/57
f 31/59/59 30/58/58 29/57/57
s 2
f 30/64/64 34/63/63 29/61/61
f 34/63/63 33/62/62 29/61/61
s 3
f 34/68/68 36/67/67 33/65/65
f 36/67/67 35/66/66 33/65/65
s 4
f 36/72/72 38/71/71 37/70/70
f 36/72/72 37/70/70 35/69/69
s 5
f 38/76/76 40/75/75 39/74/74
f 38/76/76 39/74/74 37/73/73
s 6
f 42/80/80 41/79/79 39/78/78
f 42/80/80 39/78/78 40/77/77
s 7
usemtl Wood_Light
f 41/84/84 42/83/83 32/81/81
f 42/83/83 31/82/82 32/81/81
