mtllib Materials_Modular_Terrain.mtl
o object1
g object1
v -0.10392163 0.05000000 0.15000000
v -0.50000000 0.05000000 0.15000000
v -0.50000000 0.15000000 0.25000000
v -0.21708688 0.15000000 0.25000000
v -0.50000000 0.20000000 0.40000000
v -0.38683475 0.20000000 0.40000000
v -0.50000000 0.20000000 0.50000000
v -0.40000000 0.20000000 0.50000000
v -0.25000000 0.15000000 0.50000000
v -0.15000000 0.05000000 0.50000000
v -0.03465398 0.02959690 0.08879071
v 0.05111126 0.00000000 0.11177143
v 0.00000000 0.00000000 0.50000000
v 0.09740850 0.00000000 -0.00000000
v -0.50000000 0.00000000 -0.00000000
vt 0.00000000 0.00000000
vt 1.00000000 0.00000000
vt 1.00000000 1.00000000
vt 0.28571429 1.00000000
vt 0.00000000 0.00000000
vt 1.00000000 0.00000000
vt 1.00000000 1.00000000
vt 0.60000000 1.00000000
vt 0.00000000 1.00000000
vt 0.00000000 0.00000000
vt 0.88366349 0.00000000
vt 1.00000000 1.00000000
vt 0.00000000 0.00000000
vt 1.00000000 0.00000000
vt 1.00000000 1.00000000
vt 0.63157895 1.00000000
vt 0.00000000 0.00000000
vt 1.00000000 0.00000000
vt 1.00000000 1.00000000
vt 0.32653061 1.00000000
vt 1.00000000 1.00000000
vt 0.18042657 1.00000000
vt 0.00000000 0.59193804
vt 0.00000000 0.00000000
vt 1.00000000 0.00000000
vt 1.00000000 0.00000000
vt 1.00000000 1.00000000
vt 0.00000000 0.00000000
vt 1.00000000 1.00000000
vt 0.33700580 1.00000000
vt 0.22105892 0.59193804
vt 0.00000000 0.00000000
vt 1.00000000 0.00000000
vn -0.00000000 0.70710678 -0.70710678
vn -0.00000000 0.70710678 -0.70710678
vn -0.00000000 0.70710678 -0.70710678
vn -0.00000000 0.70710678 -0.70710678
vn -0.00000000 0.94868330 -0.31622777
vn -0.00000000 0.94868330 -0.31622777
vn -0.00000000 0.94868330 -0.31622777
vn -0.00000000 0.94868330 -0.31622777
vn 0.00000000 1.00000000 0.00000000
vn 0.00000000 1.00000000 0.00000000
vn 0.00000000 1.00000000 0.00000000
vn 0.00000000 1.00000000 0.00000000
vn 0.31595407 0.94786222 0.04159614
vn 0.31595407 0.94786222 0.04159614
vn 0.31595407 0.94786222 0.04159614
vn 0.31595407 0.94786222 0.04159614
vn 0.70406259 0.70406259 0.09269160
vn 0.70406259 0.70406259 0.09269160
vn 0.70406259 0.70406259 0.09269160
vn 0.70406259 0.70406259 0.09269160
vn 0.31595407 0.94786222 0.04159614
vn 0.31595407 0.94786222 0.04159614
vn 0.31595407 0.94786222 0.04159614
vn 0.31595407 0.94786222 0.04159614
vn 0.31595407 0.94786222 0.04159614
vn 0.29442232 0.94786222 0.12195372
vn 0.29442232 0.94786222 0.12195372
vn 0.29442232 0.94786222 0.12195372
vn -0.00000000 0.94868330 -0.31622777
vn -0.00000000 0.94868330 -0.31622777
vn -0.00000000 0.94868330 -0.31622777
vn -0.00000000 0.94868330 -0.31622777
vn -0.00000000 0.94868330 -0.31622777
s 1
usemtl Grass
f 1/1/1 2/2/2 4/4/4
f 2/2/2 3/3/3 4/4/4
s 2
f 4/5/5 3/6/6 6/8/8
f 3/6/6 5/7/7 6/8/8
s 3
f 5/9/9 7/10/10 8/11/11
f 5/9/9 8/11/11 6/12/12
s 4
f 6/16/16 8/15/15 9/14/14
f 6/16/16 9/14/14 4/13/13
s 5
f 4/20/20 9/19/19 10/18/18
f 4/20/20 10/18/18 1/17/17
s 6
usemtl Dirt
f 12/24/24 11/23/23 1/22/22
f 1/22/22 10/21/21 13/25/25
f 13/25/25 12/24/24 1/22/22
s 7
f 14/28/28 11/27/27 12/26/26
s 8
f 15/33/33 2/29/29 1/30/30
f 11/31/31 14/32/32 15/33/33
f 15/33/33 1/30/30 11/31/31
