mtllib Materials_Modular_Terrain.mtl
o object1
g object1
v -0.51793517 0.62660924 0.57500000
v -0.51793517 0.74793678 0.52300248
v -0.51857426 0.74969902 0.52711436
v -0.52485474 0.74957084 0.57500000
v -0.58263585 0.74839164 0.57500000
v -0.58263585 0.74839164 0.42500000
v -0.43266708 0.75145223 0.42500000
v -0.43266708 0.75145223 0.57500000
v -0.49815375 0.75011576 0.57500000
v -0.51606335 0.74975026 0.52723393
v -0.41736415 0.00160836 0.57500000
v -0.41736415 0.00160836 0.42500000
v -0.56733292 -0.00145223 0.42500000
v -0.56733292 -0.00145223 0.57500000
vt 0.00000000 0.00000000
vt 1.00000000 0.00000000
vt 1.00000000 0.09235912
vt 0.85620588 1.00000000
vt 0.00000000 0.38528765
vt 0.00000000 0.00000000
vt 1.00000000 0.00000000
vt 1.00000000 1.00000000
vt 0.00000000 1.00000000
vt 0.00000000 0.56333128
vt 0.31844046 0.44390912
vt 0.31923757 0.42716623
vt 0.00000000 0.00000000
vt 1.00000000 0.00000000
vt 1.00000000 1.00000000
vt 0.00000000 1.00000000
vt 0.00000000 0.00000000
vt 1.00000000 0.00000000
vt 1.00000000 1.00000000
vt 0.00000000 1.00000000
vt 0.00000000 0.00000000
vt 1.00000000 0.00000000
vt 1.00000000 1.00000000
vt 0.00000000 1.00000000
vt 1.00000000 0.38528765
vt 0.83589708 0.41468248
vt 1.00000000 0.56333128
vt 1.00000000 1.00000000
vt 0.00000000 1.00000000
vt 0.00000000 0.00000000
vt 1.00000000 0.00000000
vt 1.00000000 1.00000000
vt 0.00000000 1.00000000
vt 0.86000025 0.00000000
vt 1.00000000 0.90537456
vt 0.00000000 1.00000000
vt 0.00000000 0.00000000
vt 1.00000000 1.00000000
vn 0.98994949 0.05570860 0.12998674
vn 0.98994949 0.05570860 0.12998674
vn 0.98994949 0.05570860 0.12998674
vn 0.98994949 0.05570860 0.12998674
vn -0.02040391 0.99979182 0.00000000
vn -0.02040391 0.99979182 0.00000000
vn -0.02040391 0.99979182 0.00000000
vn -0.02040391 0.99979182 0.00000000
vn -0.02040391 0.99979182 0.00000000
vn -0.02040391 0.99979182 0.00000000
vn -0.02040391 0.99979182 0.00000000
vn -0.02040391 0.99979182 0.00000000
vn 0.99979182 0.02040391 0.00000000
vn 0.99979182 0.02040391 0.00000000
vn 0.99979182 0.02040391 0.00000000
vn 0.99979182 0.02040391 0.00000000
vn 0.00000000 0.00000000 -1.00000000
vn 0.00000000 0.00000000 -1.00000000
vn 0.00000000 0.00000000 -1.00000000
vn 0.00000000 0.00000000 -1.00000000
vn -0.99979182 -0.02040391 0.00000000
vn -0.99979182 -0.02040391 0.00000000
vn -0.99979182 -0.02040391 0.00000000
vn -0.99979182 -0.02040391 0.00000000
vn 0.00000000 0.00000000 1.00000000
vn 0.00000000 0.00000000 1.00000000
vn 0.00000000 0.00000000 1.00000000
vn 0.00000000 0.00000000 1.00000000
vn 0.00000000 0.00000000 1.00000000
vn 0.00000000 0.00000000 1.00000000
vn 0.00000000 0.00000000 1.00000000
vn -0.92635561 0.14836974 0.34619605
vn -0.92635561 0.14836974 0.34619605
vn -0.92635561 0.14836974 0.34619605
vn -0.92635561 0.14836974 0.34619605
vn 0.00000000 -0.91914503 0.39391930
vn 0.00000000 -0.91914503 0.39391930
vn -0.00000000 -0.91914503 0.39391930
s 1
usemtl Wood_Dark
f 3/3/3 4/4/4 1/1/1
f 1/1/1 2/2/2 3/3/3
s 2
f 5/6/6 4/5/5 3/12/12
f 3/12/12 10/11/11 6/7/7
f 10/11/11 7/8/8 6/7/7
f 10/11/11 8/9/9 7/8/8
f 10/11/11 9/10/10 8/9/9
f 6/7/7 5/6/6 3/12/12
s 3
f 12/16/16 7/15/15 11/13/13
f 7/15/15 8/14/14 11/13/13
s 4
f 13/17/17 6/18/18 12/20/20
f 6/18/18 7/19/19 12/20/20
s 5
f 14/21/21 5/22/22 13/24/24
f 5/22/22 6/23/23 13/24/24
s 6
f 1/26/26 4/25/25 5/31/31
f 14/30/30 8/28/28 1/26/26
f 14/30/30 11/29/29 8/28/28
f 1/26/26 5/31/31 14/30/30
f 8/28/28 9/27/27 1/26/26
s 7
f 1/33/33 9/34/34 10/35/35
f 2/32/32 1/33/33 10/35/35
s 8
f 2/36/36 10/37/37 3/38/38
