mtllib Materials_Modular_Terrain.mtl
o object1
g object1
v -0.30000000 1.00000000 0.54142136
v -0.30000000 1.00000000 0.45857864
v -0.30000000 -0.00000000 0.45857864
v -0.30000000 0.00000000 0.54142136
v -0.24142136 1.00000000 0.60000000
v -0.24142136 0.00000000 0.60000000
v -0.15857864 1.00000000 0.60000000
v -0.15857864 0.00000000 0.60000000
v -0.10000000 1.00000000 0.54142136
v -0.10000000 0.00000000 0.54142136
v -0.10000000 1.00000000 0.45857864
v -0.10000000 -0.00000000 0.45857864
v -0.15857864 1.00000000 0.40000000
v -0.15857864 -0.00000000 0.40000000
v -0.24142136 1.00000000 0.40000000
v -0.24142136 -0.00000000 0.40000000
vt 0.00000000 1.00000000
vt 0.00000000 0.00000000
vt 1.00000000 0.00000000
vt 1.00000000 1.00000000
vt 0.00000000 1.00000000
vt 0.00000000 0.00000000
vt 1.00000000 0.00000000
vt 1.00000000 1.00000000
vt 0.00000000 1.00000000
vt 0.00000000 0.00000000
vt 1.00000000 0.00000000
vt 1.00000000 1.00000000
vt 0.00000000 1.00000000
vt 0.00000000 0.00000000
vt 1.00000000 0.00000000
vt 1.00000000 1.00000000
vt 0.00000000 1.00000000
vt 0.00000000 0.00000000
vt 1.00000000 0.00000000
vt 1.00000000 1.00000000
vt 0.00000000 1.00000000
vt 0.00000000 0.00000000
vt 1.00000000 0.00000000
vt 1.00000000 1.00000000
vt 0.00000000 1.00000000
vt 0.00000000 0.00000000
vt 1.00000000 0.00000000
vt 1.00000000 1.00000000
vt 0.00000000 1.00000000
vt 0.00000000 0.00000000
vt 1.00000000 0.00000000
vt 1.00000000 1.00000000
vn -1.00000000 0.00000000 0.00000000
vn -1.00000000 0.00000000 0.00000000
vn -1.00000000 0.00000000 0.00000000
vn -1.00000000 0.00000000 0.00000000
vn -0.70710678 0.00000000 0.70710678
vn -0.70710678 0.00000000 0.70710678
vn -0.70710678 0.00000000 0.70710678
vn -0.70710678 0.00000000 0.70710678
vn -0.00000000 0.00000000 1.00000000
vn -0.00000000 0.00000000 1.00000000
vn -0.00000000 0.00000000 1.00000000
vn -0.00000000 0.00000000 1.00000000
vn 0.70710678 0.00000000 0.70710678
vn 0.70710678 0.00000000 0.70710678
vn 0.70710678 0.00000000 0.70710678
vn 0.70710678 0.00000000 0.70710678
vn 1.00000000 0.00000000 0.00000000
vn 1.00000000 0.00000000 0.00000000
vn 1.00000000 0.00000000 0.00000000
vn 1.00000000 0.00000000 0.00000000
vn 0.70710678 -0.00000000 -0.70710678
vn 0.70710678 -0.00000000 -0.70710678
vn 0.70710678 -0.00000000 -0.70710678
vn 0.70710678 -0.00000000 -0.70710678
vn 0.00000000 -0.00000000 -1.00000000
vn 0.00000000 -0.00000000 -1.00000000
vn 0.00000000 -0.00000000 -1.00000000
vn 0.00000000 -0.00000000 -1.00000000
vn -0.70710678 -0.00000000 -0.70710678
vn -0.70710678 -0.00000000 -0.70710678
vn -0.70710678 -0.00000000 -0.70710678
vn -0.70710678 -0.00000000 -0.70710678
s 1
usemtl Wood_Dark
f 1/1/1 2/2/2 3/3/3
f 1/1/1 3/3/3 4/4/4
s 2
f 5/5/5 1/6/6 6/8/8
f 1/6/6 4/7/7 6/8/8
s 3
f 7/9/9 5/10/10 8/12/12
f 5/10/10 6/11/11 8/12/12
s 4
f 9/13/13 7/14/14 8/15/15
f 9/13/13 8/15/15 10/16/16
s 5
f 11/17/17 9/18/18 12/20/20
f 9/18/18 10/19/19 12/20/20
s 6
f 13/21/21 11/22/22 14/24/24
f 11/22/22 12/23/23 14/24/24
s 7
f 15/25/25 13/26/26 14/27/27
f 15/25/25 14/27/27 16/28/28
s 8
f 2/29/29 15/30/30 16/31/31
f 2/29/29 16/31/31 3/32/32
