mtllib Materials_Modular_Terrain.mtl
o object1
g object1
v -0.40000000 0.20000000 -1.50000000
v -0.34455540 0.20000000 -0.97141872
v -0.19455737 0.20000000 -0.49113000
v 0.27200216 0.20000000 0.42071550
v 0.49943378 0.20000000 0.92671114
v 0.60000000 0.20000000 1.50000000
v 0.50000000 0.20000000 1.50000000
v -0.50000000 0.20000000 1.50000000
v -0.50000000 0.20000000 -1.50000000
v -0.05568079 0.15000000 -0.54781592
v 0.40718751 0.15000000 0.35571610
v 0.03690361 0.05000000 -0.58560653
v 0.49731107 0.05000000 0.31238317
v -0.09971064 0.05000000 -1.02192658
v -0.19764854 0.15000000 -1.00172343
v -0.25000000 0.15000000 -1.50000000
v -0.15000000 0.05000000 -1.50000000
v 0.00000000 0.00000000 -1.50000000
v 0.04719622 0.00000000 -1.05223130
v 0.17578020 0.00000000 -0.64229245
v 0.63249642 0.00000000 0.24738377
v 0.88164495 0.00000000 0.80875089
v 0.73831576 0.05000000 0.85298598
v 1.00000000 0.00000000 1.50000000
v 0.85000000 0.05000000 1.50000000
v 0.75000000 0.15000000 1.50000000
v 0.64276297 0.15000000 0.88247605
vt 0.90909091 1.00000000
vt 0.85868672 0.82380624
vt 0.72232489 0.66371000
vt 0.29817986 0.35976150
vt 0.09142384 0.19109629
vt 0.00000000 0.00000000
vt 0.09090909 0.00000000
vt 1.00000000 0.00000000
vt 1.00000000 1.00000000
vt 0.00000000 0.00000000
vt 1.00000000 0.00000000
vt 1.00000000 1.00000000
vt 0.00000000 1.00000000
vt 0.00000000 0.00000000
vt 1.00000000 0.00000000
vt 1.00000000 1.00000000
vt 0.00000000 1.00000000
vt 0.00000000 0.00000000
vt 1.00000000 0.00000000
vt 1.00000000 1.00000000
vt 0.00000000 1.00000000
vt 1.00000000 1.00000000
vt 0.00000000 1.00000000
vt 0.00000000 0.00000000
vt 1.00000000 0.00000000
vt 1.00000000 1.00000000
vt 0.00000000 1.00000000
vt 0.00000000 0.00000000
vt 1.00000000 0.00000000
vt 0.00000000 0.00000000
vt 1.00000000 0.00000000
vt 1.00000000 1.00000000
vt 0.00000000 1.00000000
vt 0.00000000 0.00000000
vt 1.00000000 0.00000000
vt 1.00000000 1.00000000
vt 0.00000000 1.00000000
vt 0.00000000 0.00000000
vt 1.00000000 0.00000000
vt 1.00000000 1.00000000
vt 0.00000000 1.00000000
vt 0.00000000 0.00000000
vt 1.00000000 0.00000000
vt 1.00000000 1.00000000
vt 0.00000000 1.00000000
vt 0.00000000 0.00000000
vt 1.00000000 0.00000000
vt 1.00000000 1.00000000
vt 0.00000000 1.00000000
vt 0.00000000 0.00000000
vt 1.00000000 0.00000000
vt 1.00000000 1.00000000
vt 0.00000000 1.00000000
vt 0.00000000 0.00000000
vt 1.00000000 0.00000000
vt 1.00000000 1.00000000
vt 0.00000000 1.00000000
vt 0.00000000 0.00000000
vt 1.00000000 0.00000000
vt 1.00000000 1.00000000
vt 0.00000000 1.00000000
vt 1.00000000 1.00000000
vt 0.00000000 1.00000000
vt 0.00000000 0.00000000
vt 1.00000000 0.00000000
vt 0.00000000 0.00000000
vt 1.00000000 0.00000000
vt 1.00000000 1.00000000
vt 0.00000000 1.00000000
vn -0.00000000 1.00000000 0.00000000
vn -0.00000000 1.00000000 0.00000000
vn -0.00000000 1.00000000 0.00000000
vn -0.00000000 1.00000000 0.00000000
vn -0.00000000 1.00000000 0.00000000
vn -0.00000000 1.00000000 0.00000000
vn -0.00000000 1.00000000 0.00000000
vn -0.00000000 1.00000000 0.00000000
vn -0.00000000 1.00000000 0.00000000
vn 0.28238266 0.94833179 -0.14466115
vn 0.28152660 0.94865305 -0.14422260
vn 0.28159457 0.94865423 -0.14408212
vn 0.28244322 0.94833584 -0.14451634
vn 0.63039444 0.70578950 -0.32320895
vn 0.62932736 0.70699109 -0.32266185
vn 0.62943235 0.70699409 -0.32245042
vn 0.63049324 0.70579970 -0.32299390
vn 0.67649068 0.70533368 -0.21181301
vn 0.67599628 0.70585398 -0.21165821
vn 0.67607007 0.70584478 -0.21145310
vn 0.67654541 0.70534460 -0.21160177
vn 0.70495116 0.70537800 -0.07406574
vn 0.70516344 0.70516344 -0.07408804
vn 0.70515877 0.70515877 -0.07417686
vn 0.70493753 0.70538240 -0.07415359
vn 0.31587374 0.94821924 -0.03322730
vn 0.31605295 0.94815886 -0.03324615
vn 0.31605225 0.94815675 -0.03331289
vn 0.31586092 0.94822122 -0.03329273
vn 0.30310929 0.94820118 -0.09507515
vn 0.30268364 0.94835051 -0.09494164
vn 0.30274375 0.94834642 -0.09479076
vn 0.30314379 0.94820609 -0.09491601
vn 0.28227925 0.94832484 -0.14490835
vn 0.28141054 0.94865100 -0.14446240
vn 0.28148059 0.94865225 -0.14431765
vn 0.28234167 0.94832904 -0.14475914
vn 0.29086977 0.94801330 -0.12909516
vn 0.29070747 0.94799427 -0.12959952
vn 0.31406793 0.94787639 -0.05377443
vn 0.31576526 0.94729577 -0.05406504
vn 0.31575770 0.94727311 -0.05450447
vn 0.31394509 0.94789332 -0.05419159
vn 0.69967690 0.70417734 -0.12077464
vn 0.70189769 0.70189769 -0.12115798
vn 0.70183534 0.70183534 -0.12187825
vn 0.69950928 0.70422351 -0.12147432
vn 0.64816204 0.70455005 -0.28895537
vn 0.64786798 0.70449954 -0.28973691
vn 0.29059223 0.94798060 -0.12995748
vn 0.29040764 0.94795843 -0.13053053
vn 0.31385345 0.94790583 -0.05450268
vn 0.31575202 0.94725607 -0.05483238
vn 0.31574234 0.94722701 -0.05538746
vn 0.31369835 0.94792677 -0.05502890
vn 0.31589185 0.94821644 -0.03313492
vn 0.31605394 0.94816183 -0.03315192
vn 0.31605337 0.94816012 -0.03320617
vn 0.31588142 0.94821805 -0.03318810
vn 0.30316457 0.94820904 -0.09482018
vn 0.30277995 0.94834394 -0.09469989
vn 0.30282929 0.94834055 -0.09457602
vn 0.30319287 0.94821304 -0.09468957
s 1
usemtl Grass
f 2/2/2 1/1/1 9/9/9
f 9/9/9 8/8/8 2/2/2
f 8/8/8 4/4/4 3/3/3
f 7/7/7 5/5/5 4/4/4
f 7/7/7 6/6/6 5/5/5
f 8/8/8 7/7/7 4/4/4
f 8/8/8 3/3/3 2/2/2
s 2
f 3/13/13 4/12/12 10/10/10
f 4/57/12 5/56/51 11/54/11
f 5/56/51 27/55/50 11/54/11
f 4/12/12 11/11/11 10/10/10
s 3
f 10/17/17 11/16/16 12/14/14
f 11/53/16 27/52/49 13/50/15
f 27/52/49 23/51/48 13/50/15
f 11/16/16 13/15/15 12/14/14
s 4
f 15/21/21 10/20/20 14/18/18
f 10/20/20 12/19/19 14/18/18
s 5
f 14/25/25 17/24/24 15/22/22
f 17/24/24 16/23/23 15/22/22
s 6
usemtl Dirt
f 19/29/29 18/28/28 14/26/26
f 18/28/28 17/27/27 14/26/26
s 7
f 14/33/33 12/32/32 19/30/30
f 12/32/32 20/31/31 19/30/30
s 8
f 12/37/37 13/36/36 20/34/34
f 13/41/36 23/40/39 21/38/35
f 23/40/39 22/39/38 21/38/35
f 13/36/36 21/35/35 20/34/34
s 9
f 23/45/43 25/44/42 22/42/40
f 25/44/42 24/43/41 22/42/40
s 10
usemtl Grass
f 27/49/47 26/48/46 23/46/44
f 26/48/46 25/47/45 23/46/44
s 11
f 5/61/55 6/60/54 27/58/52
f 6/60/54 26/59/53 27/58/52
s 12
f 15/65/59 16/64/58 2/62/56
f 16/64/58 1/63/57 2/62/56
s 13
f 2/69/63 3/68/62 15/66/60
f 3/68/62 10/67/61 15/66/60
