mtllib Materials_Modular_Terrain.mtl
o object1
g object1
v -0.65000000 0.54929212 1.04113044
v 0.65000000 0.54929212 1.04113044
v 1.30000000 0.54929212 -0.08470259
v 0.65000000 0.54929212 -1.21053561
v -0.65000000 0.54929212 -1.21053561
v -1.30000000 0.54929212 -0.08470259
v 0.00000000 0.54929212 -0.08470259
v 0.00000000 2.24494429 -0.08470259
vt 1.00000000 0.25000000
vt 1.00000000 0.75000000
vt 0.50000000 1.00000000
vt 0.00000000 0.75000000
vt 0.00000000 0.25000000
vt 0.50000000 0.00000000
vt 0.50000000 0.50000000
vt 1.00000000 1.00000000
vt 0.00000000 0.10000000
vt 1.00000000 0.00000000
vt 1.00000000 0.50000000
vt 0.00000000 1.00000000
vt 0.00000000 0.00000000
vt 1.00000000 0.00000000
vt 1.00000000 1.00000000
vt 0.00000000 0.90000000
vt 0.00000000 0.00000000
vt 1.00000000 0.90000000
vt 0.00000000 1.00000000
vt 0.00000000 0.50000000
vt 1.00000000 0.00000000
vt 1.00000000 1.00000000
vt 0.00000000 0.00000000
vt 1.00000000 0.90000000
vt 0.00000000 1.00000000
vn 0.00000000 -1.00000000 0.00000000
vn 0.00000000 -1.00000000 0.00000000
vn 0.00000000 -1.00000000 0.00000000
vn 0.00000000 -1.00000000 0.00000000
vn 0.00000000 -1.00000000 0.00000000
vn 0.00000000 -1.00000000 0.00000000
vn 0.00000000 -1.00000000 0.00000000
vn 0.72147911 0.55313398 -0.41654616
vn 0.72147911 0.55313398 -0.41654616
vn 0.72147911 0.55313398 -0.41654616
vn 0.00000000 0.55313398 -0.83309231
vn 0.00000000 0.55313398 -0.83309231
vn 0.00000000 0.55313398 -0.83309231
vn -0.72147911 0.55313398 -0.41654616
vn -0.72147911 0.55313398 -0.41654616
vn -0.72147911 0.55313398 -0.41654616
vn -0.72147911 0.55313398 0.41654616
vn -0.72147911 0.55313398 0.41654616
vn -0.72147911 0.55313398 0.41654616
vn 0.00000000 0.55313398 0.83309231
vn 0.00000000 0.55313398 0.83309231
vn 0.00000000 0.55313398 0.83309231
vn 0.72147911 0.55313398 0.41654616
vn 0.72147911 0.55313398 0.41654616
vn 0.72147911 0.55313398 0.41654616
s 1
usemtl Pine_Leaves
f 6/6/6 5/5/5 7/7/7
f 2/2/2 1/1/1 7/7/7
f 3/3/3 2/2/2 7/7/7
f 4/4/4 3/3/3 7/7/7
f 5/5/5 4/4/4 7/7/7
f 1/1/1 6/6/6 7/7/7
s 2
f 3/10/10 4/9/9 8/8/8
s 3
f 4/13/13 5/12/12 8/11/11
s 4
f 5/16/16 6/15/15 8/14/14
s 5
f 6/19/19 1/18/18 8/17/17
s 6
f 8/20/20 1/21/21 2/22/22
s 7
f 8/23/23 2/24/24 3/25/25
o object2
g object2
v 0.04192362 3.98158347 -0.02229064
v 0.57082904 2.52476588 -0.02685013
v 0.27915501 2.53724072 -0.53187331
v 0.26769971 2.60660129 0.45344631
v -0.30333774 2.55617656 0.47879713
v -0.59501177 2.56865140 -0.02622606
v -0.28648094 2.63030348 -0.50609775
vt 0.00000000 0.50000000
vt 1.00000000 0.00000000
vt 1.00000000 1.00000000
vt 0.00000000 0.00000000
vt 1.00000000 0.94736842
vt 0.00000000 1.00000000
vt 1.00000000 0.00000000
vt 1.00000000 1.00000000
vt 0.00000000 0.94736842
vt 1.00000000 0.50000000
vt 0.00000000 1.00000000
vt 0.00000000 0.00000000
vt 1.00000000 1.00000000
vt 0.00000000 0.05263158
vt 1.00000000 0.00000000
vt 0.00000000 1.00000000
vt 0.23684211 0.00000000
vt 0.76315789 0.00000000
vt 1.00000000 1.00000000
vt 0.00000000 0.00000000
vt 1.00000000 0.94736842
vt 0.00000000 1.00000000
vt 0.23684211 1.00000000
vt 0.00000000 0.00000000
vt 1.00000000 0.00000000
vt 0.76315789 1.00000000
vn 0.82864658 0.30231904 -0.47111362
vn 0.82864658 0.30231904 -0.47111362
vn 0.82864658 0.30231904 -0.47111362
vn 0.82904585 0.29951165 0.47220308
vn 0.82904585 0.29951165 0.47220308
vn 0.82904585 0.29951165 0.47220308
vn 0.01288387 0.32883809 0.94429843
vn 0.01288387 0.32883809 0.94429843
vn 0.01288387 0.32883809 0.94429843
vn -0.80367739 0.36097193 0.47307707
vn -0.80367739 0.36097193 0.47307707
vn -0.80367739 0.36097193 0.47307707
vn -0.80407667 0.36377932 -0.47023963
vn -0.80407667 0.36377932 -0.47023963
vn -0.80407667 0.36377932 -0.47023963
vn 0.08449315 -0.99372099 -0.07334508
vn 0.08449315 -0.99372099 -0.07334508
vn 0.08449315 -0.99372099 -0.07334508
vn 0.08449315 -0.99372099 -0.07334508
vn 0.01208532 0.33445288 -0.94233498
vn 0.01208532 0.33445288 -0.94233498
vn 0.01208532 0.33445288 -0.94233498
vn -0.15897985 -0.98497249 0.06748783
vn -0.15897985 -0.98497249 0.06748783
vn -0.15897985 -0.98497249 0.06748783
vn -0.15897985 -0.98497249 0.06748783
s 1
usemtl Pine_Leaves
f 9/26/26 10/27/27 11/28/28
s 2
f 12/31/31 10/30/30 9/29/29
s 3
f 13/34/34 12/33/33 9/32/32
s 4
f 14/37/37 13/36/36 9/35/35
s 5
f 15/40/40 14/39/39 9/38/38
s 6
f 12/41/41 13/42/42 15/44/44
f 13/42/42 14/43/43 15/44/44
s 7
f 9/45/45 11/46/46 15/47/47
s 8
f 10/48/48 12/49/49 11/51/51
f 12/49/49 15/50/50 11/51/51
o object3
g object3
v 0.13928591 0.00305653 -0.34123091
v 0.27857182 -0.00000000 -0.10000000
v 0.27857182 0.74993980 -0.09049784
v 0.13928591 0.75299634 -0.33172875
v -0.13928591 0.00305653 -0.34123091
v -0.13928591 0.75299634 -0.33172875
v -0.27857182 0.00000000 -0.10000000
v -0.27857182 0.74993980 -0.09049784
v -0.13928591 -0.00305653 0.14123091
v -0.13928591 0.74688327 0.15073308
v 0.13928591 -0.00305653 0.14123091
v 0.13928591 0.74688327 0.15073308
vt 1.00000000 0.00000000
vt 1.00000000 1.00000000
vt 0.00000000 1.00000000
vt 0.00000000 0.00000000
vt 1.00000000 0.00000000
vt 1.00000000 1.00000000
vt 0.00000000 1.00000000
vt 0.00000000 0.00000000
vt 1.00000000 0.00000000
vt 1.00000000 1.00000000
vt 0.00000000 1.00000000
vt 0.00000000 0.00000000
vt 1.00000000 0.00000000
vt 1.00000000 1.00000000
vt 0.00000000 1.00000000
vt 0.00000000 0.00000000
vt 1.00000000 0.00000000
vt 1.00000000 1.00000000
vt 0.00000000 1.00000000
vt 0.00000000 0.00000000
vt 1.00000000 0.00000000
vt 1.00000000 1.00000000
vt 0.00000000 1.00000000
vt 0.00000000 0.00000000
vn 0.86602540 0.00633477 -0.49995987
vn 0.86602540 0.00633477 -0.49995987
vn 0.86602540 0.00633477 -0.49995987
vn 0.86602540 0.00633477 -0.49995987
vn 0.00000000 0.01266955 -0.99991974
vn 0.00000000 0.01266955 -0.99991974
vn 0.00000000 0.01266955 -0.99991974
vn 0.00000000 0.01266955 -0.99991974
vn -0.86602540 0.00633477 -0.49995987
vn -0.86602540 0.00633477 -0.49995987
vn -0.86602540 0.00633477 -0.49995987
vn -0.86602540 0.00633477 -0.49995987
vn -0.86602540 -0.00633477 0.49995987
vn -0.86602540 -0.00633477 0.49995987
vn -0.86602540 -0.00633477 0.49995987
vn -0.86602540 -0.00633477 0.49995987
vn -0.00000000 -0.01266955 0.99991974
vn -0.00000000 -0.01266955 0.99991974
vn -0.00000000 -0.01266955 0.99991974
vn -0.00000000 -0.01266955 0.99991974
vn 0.86602540 -0.00633477 0.49995987
vn 0.86602540 -0.00633477 0.49995987
vn 0.86602540 -0.00633477 0.49995987
vn 0.86602540 -0.00633477 0.49995987
s 1
usemtl Wood_Dark
f 19/55/55 18/54/54 17/53/53
f 19/55/55 17/53/53 16/52/52
s 2
f 21/59/59 19/58/58 16/57/57
f 21/59/59 16/57/57 20/56/56
s 3
f 23/63/63 21/62/62 22/60/60
f 21/62/62 20/61/61 22/60/60
s 4
f 25/67/67 23/66/66 22/65/65
f 25/67/67 22/65/65 24/64/64
s 5
f 27/71/71 25/70/70 26/68/68
f 25/70/70 24/69/69 26/68/68
s 6
f 18/75/75 27/74/74 17/72/72
f 27/74/74 26/73/73 17/72/72
o object4
g object4
v 0.00000000 3.47359918 0.05950640
v -0.37202604 1.89537466 0.59705843
v 0.37202604 1.89537466 0.59705843
v -0.38202582 1.89773112 0.57892740
v -0.76193055 1.90263930 -0.04832715
v -0.39092260 1.90794712 -0.72665388
v 0.39092260 1.90794712 -0.72665388
v 0.76193055 1.90263930 -0.04832715
v 0.38202582 1.89773112 0.57892740
vt 0.00000000 0.50000000
vt 1.00000000 0.00000000
vt 1.00000000 1.00000000
vt 0.00000000 0.00000000
vt 1.00000000 0.87888176
vt 0.97167793 0.88094304
vt 0.00000000 1.00000000
vt 0.24930404 1.00000000
vt 0.00000000 0.51955917
vt 0.24346573 0.00000000
vt 0.75653427 0.00000000
vt 1.00000000 0.51955917
vt 0.75069596 1.00000000
vt 1.00000000 1.00000000
vt 0.00000000 0.07647663
vt 1.00000000 0.00000000
vt 1.00000000 0.50000000
vt 0.00000000 1.00000000
vt 0.00000000 0.00000000
vt 1.00000000 0.00000000
vt 1.00000000 1.00000000
vt 0.00000000 0.92352337
vt 0.00000000 0.00000000
vt 1.00000000 0.87888176
vt 0.97167793 0.88094304
vt 0.00000000 1.00000000
vt 0.00000000 0.00000000
vt 1.00000000 0.00000000
vt 0.98691216 1.00000000
vt 0.01308784 1.00000000
vn -0.00000000 0.32241651 0.94659791
vn -0.00000000 0.32241651 0.94659791
vn -0.00000000 0.32241651 0.94659791
vn -0.79873212 0.35399625 0.48653227
vn -0.79873212 0.35399625 0.48653227
vn -0.79873212 0.35399625 0.48653227
vn -0.79873212 0.35399625 0.48653227
vn -0.00000000 -0.99996939 -0.00782462
vn -0.00000000 -0.99996939 -0.00782462
vn -0.00000000 -0.99996939 -0.00782462
vn -0.00000000 -0.99996939 -0.00782462
vn -0.00000000 -0.99996939 -0.00782462
vn -0.00000000 -0.99996939 -0.00782462
vn 0.79873212 0.41715574 -0.43359899
vn 0.79873212 0.41715574 -0.43359899
vn 0.79873212 0.41715574 -0.43359899
vn 0.00000000 0.44873548 -0.89366463
vn 0.00000000 0.44873548 -0.89366463
vn 0.00000000 0.44873548 -0.89366463
vn -0.79873212 0.41715574 -0.43359899
vn -0.79873212 0.41715574 -0.43359899
vn -0.79873212 0.41715574 -0.43359899
vn 0.79873212 0.35399625 0.48653227
vn 0.79873212 0.35399625 0.48653227
vn 0.79873212 0.35399625 0.48653227
vn 0.79873212 0.35399625 0.48653227
vn -0.00000000 -0.99165962 -0.12888442
vn -0.00000000 -0.99165962 -0.12888442
vn -0.00000000 -0.99165962 -0.12888442
vn -0.00000000 -0.99165962 -0.12888442
s 1
usemtl Pine_Leaves
f 28/76/76 29/77/77 30/78/78
s 2
f 28/79/79 32/82/82 31/81/81
f 31/81/81 29/80/80 28/79/79
s 3
f 36/88/88 31/83/83 32/84/84
f 32/84/84 33/85/85 34/86/86
f 32/84/84 34/86/86 36/88/88
f 34/86/86 35/87/87 36/88/88
s 4
f 35/91/91 34/90/90 28/89/89
s 5
f 34/94/94 33/93/93 28/92/92
s 6
f 33/97/97 32/96/96 28/95/95
s 7
f 36/100/100 35/101/101 28/98/98
f 28/98/98 30/99/99 36/100/100
s 8
f 31/102/102 36/103/103 30/104/104
f 31/102/102 30/104/104 29/105/105
o object5
g object5
v 0.00000000 2.90071825 -0.02071500
v -0.49193496 1.28404806 -0.92974607
v 0.49193496 1.28404806 -0.92974607
v 1.03306341 1.17199139 -0.08108348
v 0.49193496 1.22457538 0.77332850
v -0.49193496 1.22457538 0.77332850
v -1.03306341 1.17199139 -0.08108348
vt 1.00000000 0.50000000
vt 0.00000000 1.00000000
vt 0.00000000 0.00000000
vt 1.00000000 1.00000000
vt 0.00000000 0.14285714
vt 1.00000000 0.00000000
vt 0.00000000 0.00000000
vt 1.00000000 0.85714286
vt 0.00000000 1.00000000
vt 0.00000000 0.50000000
vt 1.00000000 0.00000000
vt 1.00000000 1.00000000
vt 0.00000000 0.00000000
vt 1.00000000 0.85714286
vt 0.00000000 1.00000000
vt 0.00000000 0.00000000
vt 1.00000000 0.00000000
vt 0.73809524 1.00000000
vt 0.26190476 1.00000000
vt 1.00000000 0.00000000
vt 1.00000000 1.00000000
vt 0.00000000 0.85714286
vt 0.00000000 1.00000000
vt 0.26190476 0.00000000
vt 0.73809524 0.00000000
vt 1.00000000 1.00000000
vn 0.00000000 0.49011956 -0.87165522
vn -0.00000000 0.49011956 -0.87165522
vn -0.00000000 0.49011956 -0.87165522
vn 0.76922901 0.47462018 -0.42781118
vn 0.76922901 0.47462018 -0.42781118
vn 0.76922901 0.47462018 -0.42781118
vn 0.76922901 0.44362143 0.45987689
vn 0.76922901 0.44362143 0.45987689
vn 0.76922901 0.44362143 0.45987689
vn 0.00000000 0.42812206 0.90372092
vn 0.00000000 0.42812206 0.90372092
vn 0.00000000 0.42812206 0.90372092
vn -0.76922901 0.44362143 0.45987689
vn -0.76922901 0.44362143 0.45987689
vn -0.76922901 0.44362143 0.45987689
vn -0.00000000 -0.99811153 0.06142784
vn -0.00000000 -0.99811153 0.06142784
vn -0.00000000 -0.99811153 0.06142784
vn -0.00000000 -0.99811153 0.06142784
vn -0.76922901 0.47462018 -0.42781118
vn -0.76922901 0.47462018 -0.42781118
vn -0.76922901 0.47462018 -0.42781118
vn -0.00000000 -0.99139519 -0.13090295
vn -0.00000000 -0.99139519 -0.13090295
vn -0.00000000 -0.99139519 -0.13090295
vn -0.00000000 -0.99139519 -0.13090295
s 1
usemtl Pine_Leaves
f 39/108/108 38/107/107 37/106/106
s 2
f 40/111/111 39/110/110 37/109/109
s 3
f 37/112/112 41/113/113 40/114/114
s 4
f 37/115/115 42/116/116 41/117/117
s 5
f 43/120/120 42/119/119 37/118/118
s 6
f 43/121/121 40/122/122 41/123/123
f 43/121/121 41/123/123 42/124/124
s 7
f 38/127/127 43/126/126 37/125/125
s 8
f 43/128/128 38/129/129 39/130/130
f 43/128/128 39/130/130 40/131/131
