mtllib Materials_Modular_Terrain.mtl
o object1
g object1
v 0.50000000 0.70000000 -0.50000000
v -0.50000000 0.70000000 -0.50000000
v -0.50000000 0.70000000 0.50000000
v 0.50000000 0.70000000 0.50000000
vt 1.00000000 0.00000000
vt 1.00000000 1.00000000
vt 0.00000000 1.00000000
vt 0.00000000 0.00000000
vn -0.00000000 1.00000000 -0.00000000
vn -0.00000000 1.00000000 -0.00000000
vn -0.00000000 1.00000000 -0.00000000
vn -0.00000000 1.00000000 -0.00000000
s 1
usemtl Water
f 1/1/1 2/2/2 4/4/4
f 2/2/2 3/3/3 4/4/4
