mtllib Materials_Modular_Terrain.mtl
o object1
g object1
v 0.01017682 0.23750000 -0.11017682
v 0.15469078 0.23750000 -0.06200550
v 0.17500000 0.20000000 -0.07500000
v 0.02500000 0.20000000 -0.12500000
v -0.16087668 0.23750000 -0.15807726
v -0.20511305 0.23750000 -0.02536815
v -0.13634617 0.23750000 0.15801019
v 0.02268999 0.23750000 0.18072964
v 0.13260534 0.23750000 0.13676350
v -0.01283938 0.23750000 -0.17922544
v -0.17500000 0.20000000 -0.17500000
v -0.22500000 0.20000000 -0.02500000
v -0.17500000 0.00000000 -0.17500000
v -0.22500000 0.00000000 -0.02500000
v -0.15000000 0.20000000 0.17500000
v -0.15000000 0.00000000 0.17500000
v 0.02500000 0.20000000 0.20000000
v 0.02500000 0.00000000 0.20000000
v 0.15000000 0.20000000 0.15000000
v 0.15000000 0.00000000 0.15000000
v 0.17500000 0.00000000 -0.07500000
v -0.00000000 0.20000000 -0.20000000
v -0.00000000 0.00000000 -0.20000000
v 0.02500000 0.00000000 -0.12500000
vt 1.00000000 1.00000000
vt 0.09050031 1.00000000
vt 0.00000000 0.00000000
vt 0.94402614 0.00000000
vt 0.94124771 0.87705420
vt 0.57256530 1.00000000
vt 0.06311746 0.80887675
vt 0.00000000 0.36686879
vt 0.12214341 0.06138191
vt 0.67434843 0.00000000
vt 0.80817435 0.40164653
vt 1.00000000 0.46561529
vt 0.95801719 1.00000000
vt 0.07328982 1.00000000
vt 0.00000000 0.00000000
vt 1.00000000 0.00000000
vt 0.00000000 1.00000000
vt 0.00000000 0.00000000
vt 1.00000000 0.00000000
vt 1.00000000 1.00000000
vt 0.00000000 1.00000000
vt 0.00000000 0.00000000
vt 1.00000000 0.00000000
vt 1.00000000 1.00000000
vt 0.00000000 1.00000000
vt 0.00000000 0.00000000
vt 1.00000000 0.00000000
vt 1.00000000 1.00000000
vt 0.00000000 1.00000000
vt 0.00000000 0.00000000
vt 1.00000000 0.00000000
vt 1.00000000 1.00000000
vt 0.00000000 1.00000000
vt 0.00000000 0.00000000
vt 1.00000000 0.00000000
vt 1.00000000 1.00000000
vt 0.00000000 1.00000000
vt 0.00000000 0.00000000
vt 1.00000000 0.00000000
vt 1.00000000 1.00000000
vt 0.00000000 1.00000000
vt 0.00000000 0.00000000
vt 1.00000000 0.00000000
vt 1.00000000 1.00000000
vt 0.93444760 1.00000000
vt 0.08852019 1.00000000
vt 0.00000000 0.00000000
vt 1.00000000 0.00000000
vt 0.91655130 1.00000000
vt 0.03722849 1.00000000
vt 0.00000000 0.00000000
vt 1.00000000 0.00000000
vt 0.97164763 1.00000000
vt 0.06286959 1.00000000
vt 0.00000000 0.00000000
vt 1.00000000 0.00000000
vt 0.94796876 1.00000000
vt 0.03107707 1.00000000
vt 0.00000000 0.00000000
vt 1.00000000 0.00000000
vt 0.82304690 1.00000000
vt 0.00000000 1.00000000
vt 0.10601373 0.00000000
vt 1.00000000 0.00000000
vt 0.00000000 1.00000000
vt 0.00000000 0.00000000
vt 1.00000000 0.00000000
vt 1.00000000 1.00000000
vt 0.93304406 1.00000000
vt 0.04962627 1.00000000
vt 0.00000000 0.00000000
vt 1.00000000 0.00000000
vn 0.28284271 0.44721360 -0.84852814
vn 0.28284271 0.44721360 -0.84852814
vn 0.28284271 0.44721360 -0.84852814
vn 0.28284271 0.44721360 -0.84852814
vn 0.00000000 1.00000000 0.00000000
vn 0.00000000 1.00000000 0.00000000
vn 0.00000000 1.00000000 0.00000000
vn 0.00000000 1.00000000 0.00000000
vn 0.00000000 1.00000000 0.00000000
vn 0.00000000 1.00000000 0.00000000
vn 0.00000000 1.00000000 0.00000000
vn 0.00000000 1.00000000 0.00000000
vn -0.84852814 0.44721360 -0.28284271
vn -0.84852814 0.44721360 -0.28284271
vn -0.84852814 0.44721360 -0.28284271
vn -0.84852814 0.44721360 -0.28284271
vn -0.94868330 0.00000000 -0.31622777
vn -0.94868330 0.00000000 -0.31622777
vn -0.94868330 0.00000000 -0.31622777
vn -0.94868330 0.00000000 -0.31622777
vn -0.93632918 0.00000000 0.35112344
vn -0.93632918 0.00000000 0.35112344
vn -0.93632918 0.00000000 0.35112344
vn -0.93632918 0.00000000 0.35112344
vn -0.14142136 0.00000000 0.98994949
vn -0.14142136 0.00000000 0.98994949
vn -0.14142136 0.00000000 0.98994949
vn -0.14142136 0.00000000 0.98994949
vn 0.37139068 0.00000000 0.92847669
vn 0.37139068 0.00000000 0.92847669
vn 0.37139068 0.00000000 0.92847669
vn 0.37139068 0.00000000 0.92847669
vn 0.99388373 0.00000000 0.11043153
vn 0.99388373 -0.00000000 0.11043153
vn 0.99388373 -0.00000000 0.11043153
vn 0.99388373 0.00000000 0.11043153
vn -0.14142136 0.00000000 -0.98994949
vn -0.14142136 0.00000000 -0.98994949
vn -0.14142136 0.00000000 -0.98994949
vn -0.14142136 0.00000000 -0.98994949
vn 0.94868330 0.00000000 -0.31622777
vn 0.94868330 0.00000000 -0.31622777
vn 0.94868330 0.00000000 -0.31622777
vn 0.94868330 0.00000000 -0.31622777
vn -0.12649111 0.44721360 -0.88543774
vn -0.12649111 0.44721360 -0.88543774
vn -0.12649111 0.44721360 -0.88543774
vn -0.12649111 0.44721360 -0.88543774
vn 0.33218192 0.44721360 0.83045480
vn 0.33218192 0.44721360 0.83045480
vn 0.33218192 0.44721360 0.83045480
vn 0.33218192 0.44721360 0.83045480
vn -0.12649111 0.44721360 0.88543774
vn -0.12649111 0.44721360 0.88543774
vn -0.12649111 0.44721360 0.88543774
vn -0.12649111 0.44721360 0.88543774
vn -0.83747828 0.44721360 0.31405435
vn -0.83747828 0.44721360 0.31405435
vn -0.83747828 0.44721360 0.31405435
vn -0.83747828 0.44721360 0.31405435
vn 0.84852814 0.44721360 -0.28284271
vn 0.84852814 0.44721360 -0.28284271
vn 0.84852814 0.44721360 -0.28284271
vn 0.84852814 0.44721360 -0.28284271
vn 0.31622777 0.00000000 -0.94868330
vn 0.31622777 0.00000000 -0.94868330
vn 0.31622777 0.00000000 -0.94868330
vn 0.31622777 0.00000000 -0.94868330
vn 0.88895664 0.44721360 0.09877296
vn 0.88895664 0.44721360 0.09877296
vn 0.88895664 0.44721360 0.09877296
vn 0.88895664 0.44721360 0.09877296
s 1
usemtl Rock
f 1/1/1 2/2/2 4/4/4
f 2/2/2 3/3/3 4/4/4
s 2
f 1/11/11 10/12/12 5/5/5
f 7/7/7 9/9/9 1/11/11
f 7/7/7 8/8/8 9/9/9
f 1/11/11 6/6/6 7/7/7
f 9/9/9 2/10/10 1/11/11
f 1/11/11 5/5/5 6/6/6
s 3
f 6/13/13 5/14/14 12/16/16
f 5/14/14 11/15/15 12/16/16
s 4
f 12/17/17 11/18/18 14/20/20
f 11/18/18 13/19/19 14/20/20
s 5
f 15/21/21 12/22/22 16/24/24
f 12/22/22 14/23/23 16/24/24
s 6
f 17/25/25 15/26/26 18/28/28
f 15/26/26 16/27/27 18/28/28
s 7
f 19/29/29 17/30/30 18/31/31
f 19/29/29 18/31/31 20/32/32
s 8
f 3/33/33 19/34/34 21/36/36
f 19/34/34 20/35/35 21/36/36
s 9
f 11/37/37 22/38/38 13/40/40
f 22/38/38 23/39/39 13/40/40
s 10
f 22/41/41 4/42/42 23/44/44
f 4/42/42 24/43/43 23/44/44
s 11
f 5/45/45 10/46/46 11/48/48
f 10/46/46 22/47/47 11/48/48
s 12
f 9/49/49 8/50/50 17/51/51
f 9/49/49 17/51/51 19/52/52
s 13
f 8/53/53 7/54/54 17/56/56
f 7/54/54 15/55/55 17/56/56
s 14
f 7/57/57 6/58/58 12/59/59
f 7/57/57 12/59/59 15/60/60
s 15
f 10/61/61 1/62/62 4/63/63
f 10/61/61 4/63/63 22/64/64
s 16
f 4/65/65 3/66/66 21/67/67
f 4/65/65 21/67/67 24/68/68
s 17
f 2/69/69 9/70/70 19/71/71
f 2/69/69 19/71/71 3/72/72
