mtllib Materials_Modular_Terrain.mtl
o object1
g object1
v 0.00000000 2.17034475 -0.08144480
v -0.62500000 0.74929212 1.00108696
v 0.62500000 0.74929212 1.00108696
v -1.18750000 0.82034475 -0.08144480
v -0.62500000 0.74929212 -1.16397655
v 0.62500000 0.74929212 -1.16397655
v 1.18750000 0.82034475 -0.08144480
vt 0.00000000 0.50000000
vt 1.00000000 0.00000000
vt 1.00000000 1.00000000
vt 0.00000000 0.00000000
vt 1.00000000 0.94736842
vt 0.00000000 1.00000000
vt 1.00000000 0.00000000
vt 1.00000000 1.00000000
vt 0.00000000 0.94736842
vt 1.00000000 0.50000000
vt 0.00000000 1.00000000
vt 0.00000000 0.00000000
vt 1.00000000 1.00000000
vt 0.00000000 0.05263158
vt 1.00000000 0.00000000
vt 0.00000000 1.00000000
vt 0.23684211 0.00000000
vt 0.76315789 0.00000000
vt 1.00000000 1.00000000
vt 0.00000000 0.00000000
vt 1.00000000 0.94736842
vt 0.00000000 1.00000000
vt 0.23684211 1.00000000
vt 0.00000000 0.00000000
vt 1.00000000 0.00000000
vt 0.76315789 1.00000000
vn 0.00000000 0.60598123 0.79547894
vn 0.00000000 0.60598123 0.79547894
vn 0.00000000 0.60598123 0.79547894
vn -0.68890497 0.60598123 0.39773947
vn -0.68890497 0.60598123 0.39773947
vn -0.68890497 0.60598123 0.39773947
vn -0.68890497 0.60598123 -0.39773947
vn -0.68890497 0.60598123 -0.39773947
vn -0.68890497 0.60598123 -0.39773947
vn 0.00000000 0.60598123 -0.79547894
vn 0.00000000 0.60598123 -0.79547894
vn 0.00000000 0.60598123 -0.79547894
vn 0.68890497 0.60598123 -0.39773947
vn 0.68890497 0.60598123 -0.39773947
vn 0.68890497 0.60598123 -0.39773947
vn -0.00000000 -0.99785292 0.06549468
vn -0.00000000 -0.99785292 0.06549468
vn -0.00000000 -0.99785292 0.06549468
vn -0.00000000 -0.99785292 0.06549468
vn 0.68890497 0.60598123 0.39773947
vn 0.68890497 0.60598123 0.39773947
vn 0.68890497 0.60598123 0.39773947
vn -0.00000000 -0.99785292 -0.06549468
vn -0.00000000 -0.99785292 -0.06549468
vn -0.00000000 -0.99785292 -0.06549468
vn -0.00000000 -0.99785292 -0.06549468
s 1
usemtl Pine_Leaves
f 1/1/1 2/2/2 3/3/3
s 2
f 4/6/6 2/5/5 1/4/4
s 3
f 5/9/9 4/8/8 1/7/7
s 4
f 6/12/12 5/11/11 1/10/10
s 5
f 7/15/15 6/14/14 1/13/13
s 6
f 4/16/16 5/17/17 6/18/18
f 4/16/16 6/18/18 7/19/19
s 7
f 1/20/20 3/21/21 7/22/22
s 8
f 2/23/23 4/24/24 3/26/26
f 4/24/24 7/25/25 3/26/26
o object2
g object2
v 0.13928591 -0.01047924 -0.24102257
v 0.27857182 -0.00000000 0.00000000
v 0.27857182 0.84919773 -0.03692164
v 0.13928591 0.83871849 -0.27794422
v -0.13928591 -0.01047924 -0.24102257
v -0.13928591 0.83871849 -0.27794422
v -0.27857182 0.00000000 -0.00000000
v -0.27857182 0.84919773 -0.03692164
v -0.13928591 0.01047924 0.24102257
v -0.13928591 0.85967698 0.20410093
v 0.13928591 0.01047924 0.24102257
v 0.13928591 0.85967698 0.20410093
vt 1.00000000 0.00000000
vt 1.00000000 1.00000000
vt 0.00000000 1.00000000
vt 0.00000000 0.00000000
vt 1.00000000 0.00000000
vt 1.00000000 1.00000000
vt 0.00000000 1.00000000
vt 0.00000000 0.00000000
vt 1.00000000 0.00000000
vt 1.00000000 1.00000000
vt 0.00000000 1.00000000
vt 0.00000000 0.00000000
vt 1.00000000 0.00000000
vt 1.00000000 1.00000000
vt 0.00000000 1.00000000
vt 0.00000000 0.00000000
vt 1.00000000 0.00000000
vt 1.00000000 1.00000000
vt 0.00000000 1.00000000
vt 0.00000000 0.00000000
vt 1.00000000 0.00000000
vt 1.00000000 1.00000000
vt 0.00000000 1.00000000
vt 0.00000000 0.00000000
vn 0.86602540 -0.02171861 -0.49952808
vn 0.86602540 -0.02171861 -0.49952808
vn 0.86602540 -0.02171861 -0.49952808
vn 0.86602540 -0.02171861 -0.49952808
vn 0.00000000 -0.04343722 -0.99905616
vn 0.00000000 -0.04343722 -0.99905616
vn 0.00000000 -0.04343722 -0.99905616
vn 0.00000000 -0.04343722 -0.99905616
vn -0.86602540 -0.02171861 -0.49952808
vn -0.86602540 -0.02171861 -0.49952808
vn -0.86602540 -0.02171861 -0.49952808
vn -0.86602540 -0.02171861 -0.49952808
vn -0.86602540 0.02171861 0.49952808
vn -0.86602540 0.02171861 0.49952808
vn -0.86602540 0.02171861 0.49952808
vn -0.86602540 0.02171861 0.49952808
vn -0.00000000 0.04343722 0.99905616
vn -0.00000000 0.04343722 0.99905616
vn -0.00000000 0.04343722 0.99905616
vn -0.00000000 0.04343722 0.99905616
vn 0.86602540 0.02171861 0.49952808
vn 0.86602540 0.02171861 0.49952808
vn 0.86602540 0.02171861 0.49952808
vn 0.86602540 0.02171861 0.49952808
s 1
usemtl Wood_Dark
f 11/30/30 10/29/29 8/27/27
f 10/29/29 9/28/28 8/27/27
s 2
f 13/34/34 11/33/33 8/32/32
f 13/34/34 8/32/32 12/31/31
s 3
f 15/38/38 13/37/37 12/36/36
f 15/38/38 12/36/36 14/35/35
s 4
f 17/42/42 15/41/41 16/39/39
f 15/41/41 14/40/40 16/39/39
s 5
f 19/46/46 17/45/45 18/43/43
f 17/45/45 16/44/44 18/43/43
s 6
f 10/50/50 19/49/49 18/48/48
f 10/50/50 18/48/48 9/47/47
o object3
g object3
v 0.00000000 2.51131856 -0.06164264
v -0.47142857 1.40500178 -0.87335111
v 0.47142857 1.40500178 -0.87335111
v 0.99000000 1.35343489 -0.05657958
v 0.47142857 1.41214264 0.75970975
v -0.47142857 1.41214264 0.75970975
v -0.99000000 1.35343489 -0.05657958
vt 1.00000000 0.50000000
vt 0.00000000 1.00000000
vt 0.00000000 0.00000000
vt 1.00000000 1.00000000
vt 0.00000000 0.14285714
vt 1.00000000 0.00000000
vt 0.00000000 0.00000000
vt 1.00000000 0.85714286
vt 0.00000000 1.00000000
vt 0.00000000 0.50000000
vt 1.00000000 0.00000000
vt 1.00000000 1.00000000
vt 0.00000000 0.00000000
vt 1.00000000 0.85714286
vt 0.00000000 1.00000000
vt 0.00000000 0.00000000
vt 1.00000000 0.00000000
vt 0.73809524 1.00000000
vt 0.26190476 1.00000000
vt 1.00000000 0.00000000
vt 1.00000000 1.00000000
vt 0.00000000 0.85714286
vt 0.00000000 1.00000000
vt 0.26190476 0.00000000
vt 0.73809524 0.00000000
vt 1.00000000 1.00000000
vn -0.00000000 0.59155772 -0.80626266
vn -0.00000000 0.59155772 -0.80626266
vn -0.00000000 0.59155772 -0.80626266
vn 0.69599714 0.59331479 -0.40443236
vn 0.69599714 0.59331479 -0.40443236
vn 0.69599714 0.59331479 -0.40443236
vn 0.69599714 0.59682895 0.39922824
vn 0.69599714 0.59682895 0.39922824
vn 0.69599714 0.59682895 0.39922824
vn 0.00000000 0.59858602 0.80105853
vn 0.00000000 0.59858602 0.80105853
vn 0.00000000 0.59858602 0.80105853
vn -0.69599714 0.59682895 0.39922824
vn -0.69599714 0.59682895 0.39922824
vn -0.69599714 0.59682895 0.39922824
vn -0.00000000 -0.99742373 0.07173498
vn -0.00000000 -0.99742373 0.07173498
vn -0.00000000 -0.99742373 0.07173498
vn -0.00000000 -0.99742373 0.07173498
vn -0.69599714 0.59331479 -0.40443236
vn -0.69599714 0.59331479 -0.40443236
vn -0.69599714 0.59331479 -0.40443236
vn -0.00000000 -0.99801292 -0.06300957
vn -0.00000000 -0.99801292 -0.06300957
vn -0.00000000 -0.99801292 -0.06300957
vn -0.00000000 -0.99801292 -0.06300957
s 1
usemtl Pine_Leaves
f 22/53/53 21/52/52 20/51/51
s 2
f 23/56/56 22/55/55 20/54/54
s 3
f 20/57/57 24/58/58 23/59/59
s 4
f 20/60/60 25/61/61 24/62/62
s 5
f 26/65/65 25/64/64 20/63/63
s 6
f 26/66/66 23/67/67 24/68/68
f 26/66/66 24/68/68 25/69/69
s 7
f 21/72/72 26/71/71 20/70/70
s 8
f 26/73/73 21/74/74 22/75/75
f 26/73/73 22/75/75 23/76/76
o object4
g object4
v -0.05598681 3.56818643 0.04262462
v 0.24960788 2.60656043 -0.43892217
v 0.49921575 2.59895478 -0.00575007
v 0.24960788 2.56339052 0.42602659
v -0.24960788 2.53543192 0.42463117
v -0.49921575 2.54303757 -0.00854092
v -0.24960788 2.57860182 -0.44031759
v 0.00000000 2.57099617 -0.00714550
vt 1.00000000 1.00000000
vt 0.00000000 0.10000000
vt 1.00000000 0.00000000
vt 0.00000000 0.00000000
vt 1.00000000 0.90000000
vt 0.00000000 1.00000000
vt 0.00000000 0.50000000
vt 1.00000000 0.00000000
vt 1.00000000 1.00000000
vt 0.00000000 0.00000000
vt 1.00000000 0.90000000
vt 0.00000000 1.00000000
vt 1.00000000 0.00000000
vt 1.00000000 1.00000000
vt 0.00000000 0.90000000
vt 1.00000000 0.50000000
vt 0.00000000 1.00000000
vt 0.00000000 0.00000000
vt 1.00000000 0.25000000
vt 1.00000000 0.75000000
vt 0.50000000 1.00000000
vt 0.00000000 0.75000000
vt 0.00000000 0.25000000
vt 0.50000000 0.00000000
vt 0.50000000 0.50000000
vn 0.77122600 0.46355370 -0.43626647
vn 0.77122600 0.46355370 -0.43626647
vn 0.77122600 0.46355370 -0.43626647
vn 0.77122600 0.41780975 0.48025563
vn 0.77122600 0.41780975 0.48025563
vn 0.77122600 0.41780975 0.48025563
vn -0.02224690 0.35049928 0.93629874
vn -0.02224690 0.35049928 0.93629874
vn -0.02224690 0.35049928 0.93629874
vn -0.81571981 0.32893276 0.47581975
vn -0.81571981 0.32893276 0.47581975
vn -0.81571981 0.32893276 0.47581975
vn -0.81571981 0.37467671 -0.44070235
vn -0.81571981 0.37467671 -0.44070235
vn -0.81571981 0.37467671 -0.44070235
vn -0.02224690 0.44198718 -0.89674546
vn -0.02224690 0.44198718 -0.89674546
vn -0.02224690 0.44198718 -0.89674546
vn 0.05598681 -0.99719026 -0.04977012
vn 0.05598681 -0.99719026 -0.04977012
vn 0.05598681 -0.99719026 -0.04977012
vn 0.05598681 -0.99719026 -0.04977012
vn 0.05598681 -0.99719026 -0.04977012
vn 0.05598681 -0.99719026 -0.04977012
vn 0.05598681 -0.99719026 -0.04977012
s 1
usemtl Pine_Leaves
f 29/79/79 28/78/78 27/77/77
s 2
f 27/80/80 30/81/81 29/82/82
s 3
f 27/83/83 31/84/84 30/85/85
s 4
f 32/88/88 31/87/87 27/86/86
s 5
f 33/91/91 32/90/90 27/89/89
s 6
f 28/94/94 33/93/93 27/92/92
s 7
f 32/100/100 33/99/99 34/101/101
f 30/96/96 31/95/95 34/101/101
f 29/97/97 30/96/96 34/101/101
f 28/98/98 29/97/97 34/101/101
f 33/99/99 28/98/98 34/101/101
f 31/95/95 32/100/100 34/101/101
o object5
g object5
v 0.00000000 3.22725961 0.00567607
v -0.33333333 1.96005048 0.54420588
v -0.66666667 1.97785407 -0.03286982
v -0.33333333 1.99565766 -0.60994553
v 0.33333333 1.99565766 -0.60994553
v 0.66666667 1.97785407 -0.03286982
v 0.33333333 1.96005048 0.54420588
v 0.00000000 1.97785407 -0.03286982
vt 0.00000000 0.00000000
vt 1.00000000 0.90000000
vt 0.00000000 1.00000000
vt 1.00000000 0.00000000
vt 1.00000000 1.00000000
vt 0.00000000 0.90000000
vt 1.00000000 0.50000000
vt 0.00000000 1.00000000
vt 0.00000000 0.00000000
vt 1.00000000 1.00000000
vt 0.00000000 0.10000000
vt 1.00000000 0.00000000
vt 0.00000000 0.00000000
vt 1.00000000 0.90000000
vt 0.00000000 1.00000000
vt 0.00000000 0.50000000
vt 1.00000000 0.00000000
vt 1.00000000 1.00000000
vt 1.00000000 0.25000000
vt 1.00000000 0.75000000
vt 0.50000000 1.00000000
vt 0.00000000 0.75000000
vt 0.00000000 0.25000000
vt 0.50000000 0.00000000
vt 0.50000000 0.50000000
vn -0.78621363 0.40511710 0.46663505
vn -0.78621363 0.40511710 0.46663505
vn -0.78621363 0.40511710 0.46663505
vn -0.78621363 0.43311195 -0.44077452
vn -0.78621363 0.43311195 -0.44077452
vn -0.78621363 0.43311195 -0.44077452
vn -0.00000000 0.44710937 -0.89447930
vn -0.00000000 0.44710937 -0.89447930
vn -0.00000000 0.44710937 -0.89447930
vn 0.78621363 0.43311195 -0.44077452
vn 0.78621363 0.43311195 -0.44077452
vn 0.78621363 0.43311195 -0.44077452
vn 0.78621363 0.40511710 0.46663505
vn 0.78621363 0.40511710 0.46663505
vn 0.78621363 0.40511710 0.46663505
vn 0.00000000 0.39111968 0.92033983
vn 0.00000000 0.39111968 0.92033983
vn 0.00000000 0.39111968 0.92033983
vn -0.00000000 -0.99952444 -0.03083672
vn -0.00000000 -0.99952444 -0.03083672
vn -0.00000000 -0.99952444 -0.03083672
vn -0.00000000 -0.99952444 -0.03083672
vn -0.00000000 -0.99952444 -0.03083672
vn -0.00000000 -0.99952444 -0.03083672
vn -0.00000000 -0.99952444 -0.03083672
s 1
usemtl Pine_Leaves
f 37/104/104 36/103/103 35/102/102
s 2
f 38/107/107 37/106/106 35/105/105
s 3
f 39/110/110 38/109/109 35/108/108
s 4
f 40/113/113 39/112/112 35/111/111
s 5
f 35/114/114 41/115/115 40/116/116
s 6
f 35/117/117 36/118/118 41/119/119
s 7
f 37/125/125 38/124/124 42/126/126
f 41/121/121 36/120/120 42/126/126
f 40/122/122 41/121/121 42/126/126
f 39/123/123 40/122/122 42/126/126
f 38/124/124 39/123/123 42/126/126
f 36/120/120 37/125/125 42/126/126
