mtllib Materials_Modular_Terrain.mtl
o object1
g object1
v 0.45826615 0.13362635 0.05371893
v 0.45349205 0.11432048 -0.02064784
v 0.44394385 0.04062643 -0.04074622
v 0.43916975 -0.01376175 0.01352218
v 0.44394385 0.00554411 0.08788896
v 0.45349205 0.07923816 0.10798733
v 0.44871795 0.05993230 0.03362056
v -0.12093220 0.06127420 0.05126192
v -0.10749937 0.10648780 0.00312905
v -0.59207159 0.03353640 0.02642168
v -0.59522001 0.07441357 -0.01425616
v -1.05486630 -0.00866491 0.04946300
v -1.05332530 0.02546134 0.01558169
v -1.46296735 0.11537004 0.08329071
v -1.45678551 0.14174314 0.05593260
v -1.05024330 0.07178739 0.02821607
v -1.44442184 0.17694817 0.06553398
v -1.04870231 0.08398719 0.07473175
v -1.43824001 0.18578011 0.10249346
v -0.74236037 0.12568100 0.06226615
v -0.67960642 0.12164263 0.01269682
v -0.60151687 0.12985617 0.00086455
v -0.86026613 0.27112679 0.08690021
v -0.88010333 0.23385597 0.07673544
v -0.85034754 0.27989529 0.12816124
v -0.89002192 0.20535366 0.10783170
v -0.88010333 0.21412217 0.14909273
v -0.86026613 0.25139298 0.15925749
v -0.60466529 0.14442159 0.05666309
v -0.60151687 0.10354443 0.09734093
v -0.08063369 0.13552093 0.13197487
v -0.06720086 0.18073452 0.08384200
v -0.08063369 0.16621796 0.01941909
v -0.59522001 0.04810183 0.08222022
v -0.10749937 0.07579077 0.11568483
v -0.67593783 0.09464106 0.09921040
v -0.74258026 0.12032935 0.06754569
v -1.05024330 0.04986094 0.10861306
v -1.05332530 0.00353489 0.09597868
v -1.44442184 0.15940701 0.12985157
v -1.45678551 0.12420198 0.12025019
v -1.45060368 0.15057507 0.09289208
vt 1.00000000 0.50000000
vt 0.75000000 1.00000000
vt 0.25000000 1.00000000
vt 0.00000000 0.50000000
vt 0.25000000 0.00000000
vt 0.75000000 0.00000000
vt 0.50000000 0.50000000
vt 0.00000000 1.00000000
vt 0.00000000 0.00000000
vt 1.00000000 0.00000000
vt 1.00000000 1.00000000
vt 0.00000000 1.00000000
vt 0.00000000 0.00000000
vt 1.00000000 0.00000000
vt 1.00000000 1.00000000
vt 0.00000000 1.00000000
vt 0.00000000 0.00000000
vt 1.00000000 0.00000000
vt 1.00000000 1.00000000
vt 1.00000000 0.00000000
vt 1.00000000 1.00000000
vt 0.00000000 1.00000000
vt 0.00000000 0.00000000
vt 1.00000000 0.00000000
vt 1.00000000 1.00000000
vt 0.00000000 1.00000000
vt 0.00000000 0.00000000
vt 1.00000000 0.00000000
vt 1.00000000 1.00000000
vt 0.00000000 1.00000000
vt 0.00000000 0.00000000
vt 0.00000000 1.00000000
vt 0.00000000 0.00000000
vt 0.68990180 0.00000000
vt 0.82665623 0.86914316
vt 1.00000000 1.00000000
vt 0.29621394 1.00000000
vt 0.00000000 0.00000000
vt 1.00000000 0.00000000
vt 1.00000000 1.00000000
vt 1.00000000 0.50000000
vt 0.75000000 1.00000000
vt 0.25000000 1.00000000
vt 0.00000000 0.50000000
vt 0.25000000 0.00000000
vt 0.75000000 0.00000000
vt 0.00000000 1.00000000
vt 0.00000000 0.00000000
vt 1.00000000 0.00000000
vt 1.00000000 1.00000000
vt 0.00000000 1.00000000
vt 0.00000000 0.00000000
vt 1.00000000 0.00000000
vt 1.00000000 1.00000000
vt 0.00000000 1.00000000
vt 0.00000000 0.00000000
vt 1.00000000 0.00000000
vt 1.00000000 1.00000000
vt 0.00000000 1.00000000
vt 0.00000000 0.00000000
vt 1.00000000 0.00000000
vt 1.00000000 1.00000000
vt 0.00000000 1.00000000
vt 0.00000000 0.00000000
vt 1.00000000 0.00000000
vt 1.00000000 1.00000000
vt 1.00000000 0.00000000
vt 1.00000000 1.00000000
vt 0.00000000 1.00000000
vt 0.28326308 0.96222317
vt 0.50514685 0.00000000
vt 1.00000000 0.00000000
vt 0.83415071 1.00000000
vt 0.00000000 1.00000000
vt 0.00000000 0.00000000
vt 1.00000000 0.00000000
vt 1.00000000 1.00000000
vt 0.00000000 1.00000000
vt 0.00000000 0.00000000
vt 0.00000000 1.00000000
vt 0.00000000 0.00000000
vt 1.00000000 0.00000000
vt 1.00000000 1.00000000
vt 1.00000000 1.00000000
vt 0.29686993 1.00000000
vt 0.29829421 0.85036488
vt 0.00000000 0.00000000
vt 1.00000000 0.00000000
vt 0.00000000 0.00000000
vt 1.00000000 0.00000000
vt 0.82585496 0.86356956
vt 0.82707092 1.00000000
vt 0.00000000 1.00000000
vt 1.00000000 0.00000000
vt 1.00000000 1.00000000
vt 0.00000000 1.00000000
vt 0.00000000 0.00000000
vt 1.00000000 0.50000000
vt 0.75000000 1.00000000
vt 0.25000000 1.00000000
vt 0.00000000 0.50000000
vt 0.25000000 0.00000000
vt 0.75000000 0.00000000
vt 0.50000000 0.50000000
vt 1.00000000 0.00000000
vt 1.00000000 1.00000000
vt 0.00000000 1.00000000
vt 0.00000000 0.00000000
vt 0.00000000 1.00000000
vt 0.00000000 0.00000000
vt 1.00000000 0.00000000
vt 1.00000000 1.00000000
vt 0.00000000 1.00000000
vt 0.00000000 0.00000000
vt 1.00000000 0.00000000
vt 1.00000000 1.00000000
vt 0.00000000 1.00000000
vt 0.00000000 0.00000000
vt 1.00000000 0.00000000
vt 1.00000000 1.00000000
vt 0.00000000 1.00000000
vt 0.00000000 0.00000000
vt 1.00000000 0.00000000
vt 1.00000000 1.00000000
vt 0.00000000 1.00000000
vt 0.00000000 0.00000000
vt 1.00000000 0.00000000
vt 1.00000000 1.00000000
vt 0.00000000 1.00000000
vt 0.00000000 0.00000000
vt 1.00000000 0.00000000
vt 1.00000000 1.00000000
vt 0.00000000 1.00000000
vt 0.00000000 0.00000000
vt 1.00000000 0.00000000
vt 1.00000000 1.00000000
vt 0.00000000 1.00000000
vt 0.00000000 0.00000000
vt 1.00000000 0.00000000
vt 1.00000000 1.00000000
vt 0.00000000 1.00000000
vt 0.00000000 0.00000000
vt 1.00000000 0.00000000
vt 1.00000000 1.00000000
vn 0.99227788 -0.11966422 -0.03263570
vn 0.99227788 -0.11966422 -0.03263570
vn 0.99227788 -0.11966422 -0.03263570
vn 0.99227788 -0.11966422 -0.03263570
vn 0.99227788 -0.11966422 -0.03263570
vn 0.99227788 -0.11966422 -0.03263570
vn 0.99227788 -0.11966422 -0.03263570
vn -0.14105713 -0.70162894 -0.69844092
vn -0.13941209 -0.70203495 -0.69836322
vn -0.13906512 -0.69332008 -0.70708427
vn -0.14049339 -0.69311429 -0.70700367
vn 0.07863602 -0.70014248 -0.70965970
vn 0.07138793 -0.70080872 -0.70976821
vn 0.07242062 -0.73695675 -0.67204910
vn 0.07878319 -0.73747665 -0.67076181
vn 0.02899599 -0.70491820 -0.70869568
vn 0.02916710 -0.70491858 -0.70868828
vn -0.26322910 -0.67369611 -0.69053891
vn -0.26208759 -0.67394123 -0.69073389
vn -0.26016887 -0.66511359 -0.69995433
vn -0.26156115 -0.66467810 -0.69984912
vn -0.02076029 0.26434600 -0.96420444
vn -0.02025471 0.26431743 -0.96422303
vn -0.01872010 0.26918518 -0.96290648
vn -0.01929148 0.26936876 -0.96284386
vn 0.22753940 0.94003573 -0.25408392
vn 0.22677782 0.94021394 -0.25410543
vn 0.22553888 0.93835574 -0.26195558
vn 0.22646718 0.93810547 -0.26205104
vn -0.13915169 0.95899578 -0.24690868
vn -0.14054048 0.95881715 -0.24681582
vn -0.14057904 0.95678000 -0.25457724
vn -0.13954475 0.95658057 -0.25589233
vn -0.13943009 0.95617559 -0.25746356
vn -0.15619524 0.26408025 -0.95176923
vn -0.18654191 0.23872334 -0.95300225
vn -0.13314507 0.32611322 -0.93590735
vn -0.12071683 0.32048626 -0.93952967
vn -0.88957536 0.44069296 0.12018899
vn -0.88957536 0.44069296 0.12018899
vn -0.88957536 0.44069296 0.12018899
vn -0.88957536 0.44069296 0.12018899
vn -0.88957536 0.44069296 0.12018899
vn -0.88957536 0.44069296 0.12018899
vn 0.51513225 0.62419526 0.58738321
vn 0.50162709 0.62931646 0.59357480
vn 0.48248569 0.56360698 0.67048843
vn 0.49922817 0.55354309 0.66660429
vn -0.08315688 0.69970793 0.70957293
vn -0.09008112 0.69901403 0.70941157
vn -0.08977070 0.73830136 0.66847013
vn -0.08372031 0.73785869 0.66974284
vn -0.05828208 0.96512462 -0.25522081
vn -0.05233968 0.96552603 -0.25499029
vn -0.05543071 0.97645683 -0.20846943
vn -0.06077343 0.97637980 -0.20733806
vn -0.04754084 -0.26784193 0.96228923
vn -0.05078665 -0.26814251 0.96203966
vn -0.05284367 -0.24055775 0.96919529
vn -0.04957574 -0.24197826 0.96901433
vn 0.08600172 -0.25303946 0.96362583
vn 0.07825276 -0.25402866 0.96402591
vn 0.05527657 -0.28999279 0.95543115
vn 0.06106559 -0.29274845 0.95423757
vn -0.41954756 -0.86213943 0.28406944
vn -0.43160967 -0.85565795 0.28559161
vn -0.45778465 -0.86621041 0.20028164
vn -0.45139062 -0.86452250 0.22101438
vn -0.43509501 -0.86796016 0.23945248
vn 0.05511922 -0.25820414 0.96451672
vn 0.05601661 -0.26617126 0.96229673
vn 0.05479258 -0.26611341 0.96238320
vn -0.02025471 -0.26180898 0.96490715
vn -0.02076029 -0.26177494 0.96490564
vn -0.01929148 -0.25675687 0.96628347
vn -0.01872010 -0.25694683 0.96624422
vn 0.41458768 0.88594946 -0.20787162
vn 0.42587992 0.88102835 -0.20594987
vn 0.39926114 0.87258117 -0.28141186
vn 0.38676069 0.87873535 -0.27971476
vn -0.50072120 -0.55262907 -0.66624274
vn -0.51173099 -0.59270320 -0.62196005
vn -0.51366152 -0.59169862 -0.62132486
vn -0.52791171 -0.60049099 -0.60059953
vn -0.51567859 -0.54331904 -0.66248019
vn -0.06653439 0.70450559 0.70657275
vn -0.06613229 0.70173105 0.70936595
vn -0.06664087 0.70212309 0.70893029
vn -0.06671170 0.70211511 0.70893154
vn -0.06713275 0.70449093 0.70653077
vn 0.22677782 0.68102310 0.69626099
vn 0.22753940 0.68088049 0.69615198
vn 0.22646718 0.67517264 0.70203598
vn 0.22553888 0.67543673 0.70208079
vn -0.94711403 0.30959000 0.08443364
vn -0.94711403 0.30959000 0.08443364
vn -0.94711403 0.30959000 0.08443364
vn -0.94711403 0.30959000 0.08443364
vn -0.94711403 0.30959000 0.08443364
vn -0.94711403 0.30959000 0.08443364
vn -0.94711403 0.30959000 0.08443364
vn -0.26208759 -0.93130658 0.25293903
vn -0.26322910 -0.93099640 0.25289550
vn -0.26156115 -0.92795376 0.26549497
vn -0.26016887 -0.92838237 0.26536452
vn 0.10118514 -0.96313789 0.24925282
vn 0.10024658 -0.96322226 0.24930604
vn 0.10043304 -0.96128616 0.25659720
vn 0.10121765 -0.96119818 0.25661850
vn -0.09107723 0.26765906 -0.95919944
vn -0.09310063 0.26773492 -0.95898399
vn -0.09137287 0.25234432 -0.96331373
vn -0.08973779 0.25255676 -0.96341176
vn 0.03741008 -0.96638275 0.25437152
vn 0.04345084 -0.96606224 0.25462871
vn 0.04640023 -0.97652078 0.21036679
vn 0.04092661 -0.97651907 0.21150771
vn 0.01694856 0.26487082 -0.96413495
vn 0.01586308 0.26476081 -0.96418363
vn 0.01654674 0.25614739 -0.96649610
vn 0.01764059 0.25568360 -0.96659956
vn -0.11072770 -0.96434141 0.24038516
vn -0.11292180 -0.96399241 0.24076401
vn -0.11135126 -0.96013469 0.25640257
vn -0.10941801 -0.96037351 0.25634046
vn 0.01486766 -0.26930712 0.96293958
vn 0.01426706 -0.26905842 0.96301818
vn 0.01485729 -0.26487963 0.96416702
vn 0.01538176 -0.26494076 0.96414200
vn 0.10359266 0.71035303 0.69618038
vn 0.10606878 0.70981003 0.69636135
vn 0.10534535 0.69774768 0.70855525
vn 0.10319853 0.69800170 0.70862098
vn 0.07658496 0.96913204 -0.23434554
vn 0.07351390 0.96950420 -0.23378905
vn 0.07183326 0.96428425 -0.25494288
vn 0.07453756 0.96404920 -0.25505547
vn -0.04275984 0.28073261 -0.95883304
vn -0.04455619 0.28146010 -0.95853793
vn -0.04610099 0.26839285 -0.96220579
vn -0.04453197 0.26822266 -0.96232713
s 1
usemtl Wood_Light
f 6/6/6 5/5/5 7/7/7
f 2/2/2 1/1/1 7/7/7
f 3/3/3 2/2/2 7/7/7
f 4/4/4 3/3/3 7/7/7
f 5/5/5 4/4/4 7/7/7
f 1/1/1 6/6/6 7/7/7
s 2
usemtl Wood_Dark
f 8/8/8 9/9/9 4/11/11
f 9/9/9 3/10/10 4/11/11
s 3
f 10/12/12 11/13/13 8/15/15
f 11/13/13 9/14/14 8/15/15
f 13/17/17 11/18/13 10/19/12
f 12/16/16 13/17/17 10/19/12
s 4
f 13/20/18 12/21/19 14/22/20
f 13/20/18 14/22/20 15/23/21
s 5
f 16/24/22 13/25/23 15/26/24
f 16/24/22 15/26/24 17/27/25
s 6
f 18/28/26 16/29/27 17/30/28
f 18/28/26 17/30/28 19/31/29
s 7
f 16/32/30 18/33/31 20/34/32
f 16/32/30 21/35/33 22/36/34
f 16/32/30 20/34/32 21/35/33
s 8
f 24/40/38 23/39/37 21/37/35
f 23/39/37 22/38/36 21/37/35
s 9
usemtl Wood_Light
f 24/43/41 26/44/42 27/45/43
f 24/43/41 27/45/43 28/46/44
f 28/46/44 25/41/39 23/42/40
f 28/46/44 23/42/40 24/43/41
s 10
usemtl Wood_Dark
f 25/50/48 28/49/47 29/47/45
f 28/49/47 30/48/46 29/47/45
s 11
f 29/51/49 30/52/50 31/53/51
f 29/51/49 31/53/51 32/54/52
s 12
f 22/55/53 29/56/54 33/58/56
f 29/56/54 32/57/55 33/58/56
s 13
f 30/59/57 34/60/58 35/61/59
f 30/59/57 35/61/59 31/62/60
s 14
f 28/66/64 27/65/63 30/63/61
f 27/65/63 34/64/62 30/63/61
f 34/72/62 36/73/70 39/75/72
f 36/73/70 38/74/71 39/75/72
s 15
f 27/68/66 26/67/65 37/71/69
f 36/70/68 34/69/67 27/68/66
f 27/68/66 37/71/69 36/70/68
s 16
f 39/76/73 38/77/74 41/79/76
f 38/77/74 40/78/75 41/79/76
s 17
f 23/83/80 25/82/79 29/81/78
f 23/83/80 29/81/78 22/80/77
s 18
f 37/85/82 26/84/81 24/88/85
f 24/88/85 21/87/84 20/86/83
f 24/88/85 20/86/83 37/85/82
s 19
f 37/91/88 20/92/89 18/93/90
f 38/89/86 36/90/87 37/91/88
f 37/91/88 18/93/90 38/89/86
s 20
f 38/94/91 18/95/92 40/97/94
f 18/95/92 19/96/93 40/97/94
s 21
usemtl Wood_Light
f 19/98/95 17/99/96 42/104/101
f 41/102/99 40/103/100 42/104/101
f 14/101/98 41/102/99 42/104/101
f 15/100/97 14/101/98 42/104/101
f 17/99/96 15/100/97 42/104/101
f 40/103/100 19/98/95 42/104/101
s 22
usemtl Wood_Dark
f 12/105/102 39/106/103 14/108/105
f 39/106/103 41/107/104 14/108/105
s 23
f 39/109/106 12/110/107 34/112/109
f 12/110/107 10/111/108 34/112/109
s 24
f 13/113/110 16/114/111 11/116/113
f 16/114/111 22/115/112 11/116/113
s 25
f 34/117/114 10/118/115 8/119/116
f 34/117/114 8/119/116 35/120/117
s 26
f 11/121/118 22/122/119 9/124/121
f 22/122/119 33/123/120 9/124/121
s 27
f 35/125/122 8/126/123 4/127/124
f 35/125/122 4/127/124 5/128/125
s 28
f 31/129/126 35/130/127 5/131/128
f 31/129/126 5/131/128 6/132/129
s 29
f 32/133/130 31/134/131 6/135/132
f 32/133/130 6/135/132 1/136/133
s 30
f 33/137/134 32/138/135 2/140/137
f 32/138/135 1/139/136 2/140/137
s 31
f 9/141/138 33/142/139 3/144/141
f 33/142/139 2/143/140 3/144/141
