mtllib Materials_Modular_Terrain.mtl
o object1
g object1
v 0.16242355 0.55000000 0.25000000
v 0.22123300 0.41581366 0.35000000
v 0.10930442 0.49538209 0.35000000
v 0.25000000 0.55000000 0.19668753
v 0.22082311 0.67484779 0.25000000
v 0.25000000 0.67484779 0.23223847
v 0.25000000 1.95367381 0.17059952
v 0.25000000 1.94414277 -0.04233539
v 0.25000000 1.80233886 -0.08509074
v 0.25000000 1.79747748 -0.19369973
v 0.25000000 1.75000000 -0.25000000
v 0.25000000 1.43651155 -0.25000000
v 0.25000000 1.38179020 -0.16791797
v 0.25000000 1.20000000 -0.05000000
v 0.25000000 1.05000000 -0.25000000
v 0.25000000 0.55000000 -0.25000000
v 0.25000000 0.70194328 0.25000000
v 0.25000000 1.42360837 0.25000000
v 0.25000000 1.50865007 0.18688355
v 0.25000000 1.65666177 0.25000000
v 0.25000000 1.85000000 0.25000000
v -0.14907802 1.97382117 -0.25000000
v 0.05915786 1.95348507 -0.25000000
v 0.11306698 1.94976878 -0.21540641
v 0.14657572 1.95205593 -0.09119886
v 0.15468730 1.96653595 0.25000000
v -0.08309103 1.98975714 0.25000000
v -0.25000000 1.99747368 0.05823178
v -0.25000000 1.98762434 -0.16181429
v -0.25000000 1.90000000 -0.25000000
v -0.25000000 0.55000000 0.25000000
v -0.25000000 1.33574845 0.25000000
v -0.25000000 1.35580457 0.22954830
v -0.25000000 1.45696914 0.18694715
v -0.25000000 1.49401396 0.25000000
v -0.25000000 1.85000000 0.25000000
v -0.25000000 1.74048207 -0.25000000
v -0.25000000 1.66040383 -0.20952975
v -0.25000000 1.54209455 -0.22583532
v -0.25000000 1.25695293 -0.25000000
v -0.25000000 0.94468746 -0.25000000
v -0.25000000 0.80841222 -0.18500210
v -0.25000000 0.74797296 -0.22385164
v -0.25000000 0.72314311 -0.25000000
v -0.25000000 0.55000000 -0.25000000
v -0.23651491 1.35325189 0.25000000
v -0.20842530 1.44909918 0.25000000
v -0.17682892 1.64526450 -0.25000000
v -0.20630973 1.53305490 -0.25000000
v -0.18367252 0.80773077 -0.25000000
v -0.22331676 0.74769881 -0.25000000
v 0.11017221 1.92480416 -0.25000000
v 0.14173606 1.80553041 -0.25000000
v 0.17690921 1.80793116 -0.11962296
v 0.15208120 1.50409727 0.25000000
v -0.35000000 0.55000000 -0.28264378
v -0.26208213 0.55000000 -0.35000000
v 0.28955982 0.55000000 -0.35000000
v 0.35000000 0.55000000 -0.27252106
v 0.35000000 0.55000000 0.13581217
v -0.13267820 0.55000000 0.35000000
v -0.30759469 0.55000000 0.35000000
v -0.35000000 0.55000000 0.28495753
v -0.35000000 0.50010286 -0.35000000
v -0.35000000 0.19152397 -0.35000000
v -0.35000000 0.15000000 -0.31264781
v -0.35000000 0.15000000 0.29628577
v -0.35000000 0.20913209 0.35000000
v -0.35000000 0.52102507 0.35000000
v -0.32627214 0.15000000 -0.35000000
v -0.29362646 0.15000000 0.35000000
v 0.35000000 0.41979788 0.35000000
v 0.35000000 0.47814809 -0.35000000
v 0.35000000 0.18017076 -0.35000000
v 0.35000000 0.15000000 -0.32764618
v 0.35000000 0.15000000 0.32428406
v 0.35000000 0.21932202 0.35000000
v 0.31199588 0.15000000 0.35000000
v 0.32222737 0.15000000 -0.35000000
v 0.05000000 1.20000000 -0.25000000
v 0.16791797 1.38179020 -0.25000000
v 0.21574294 1.79830297 -0.25000000
vt 1.00000000 0.08482288
vt 0.00000000 1.00000000
vt 0.00000000 0.00000000
vt 0.65226264 1.00000000
vt 0.00000000 0.00000000
vt 1.00000000 0.37232403
vt 0.00000000 1.00000000
vt 0.00000000 0.00000000
vt 1.00000000 0.33342047
vt 1.00000000 0.66657953
vt 1.00000000 0.15880096
vt 0.99320993 0.58467077
vt 0.89218653 0.67018148
vt 0.88872320 0.88739946
vt 0.85489947 1.00000000
vt 0.63156522 1.00000000
vt 0.59258084 0.83583593
vt 0.46307055 0.60000000
vt 0.35620811 1.00000000
vt 0.00000000 1.00000000
vt 0.00000000 0.10662495
vt 0.08894359 0.03552307
vt 0.10824686 0.00000000
vt 0.62237278 0.00000000
vt 0.68295787 0.12623290
vt 0.78840380 0.00000000
vt 0.92614109 0.00000000
vt 0.34395956 0.97863839
vt 0.02919674 0.72307544
vt 0.00000000 0.61670620
vt 0.13709746 0.43121630
vt 0.05462506 0.24749251
vt 0.37649078 0.00000000
vt 0.64058174 0.02468848
vt 1.00000000 0.31650818
vt 0.96242353 0.74424224
vt 0.62980880 1.00000000
vt 0.00000000 1.00000000
vt 0.00000000 0.00000000
vt 1.00000000 0.49504014
vt 0.00000000 0.00000000
vt 0.54284127 0.00000000
vt 0.55669722 0.04090340
vt 0.62658766 0.12610571
vt 0.65218040 0.00000000
vt 0.89811650 0.00000000
vt 1.00000000 0.38353645
vt 0.99319549 0.82362858
vt 0.93265945 1.00000000
vt 0.82245508 1.00000000
vt 0.76713231 0.91905951
vt 0.68539730 0.95167064
vt 0.48840469 1.00000000
vt 0.27267332 1.00000000
vt 0.17852637 0.87000419
vt 0.13677137 0.94770329
vt 0.11961745 1.00000000
vt 0.00000000 1.00000000
vt 1.00000000 0.33782097
vt 1.00000000 0.66217903
vt 0.00000000 1.00000000
vt 0.00000000 0.00000000
vt 0.00000000 1.00000000
vt 0.00000000 0.00000000
vt 1.00000000 0.44419429
vt 1.00000000 1.00000000
vt 0.00000000 0.47124494
vt 1.00000000 0.00000000
vt 0.00000000 1.00000000
vt 0.00000000 0.00000000
vt 1.00000000 0.20145126
vt 1.00000000 0.79854874
vt 1.00000000 0.99254361
vt 0.00000000 1.00000000
vt 1.00000000 0.00000000
vt 0.00000000 0.19401336
vt 1.00000000 0.00000000
vt 1.00000000 1.00000000
vt 1.00000000 0.29885230
vt 1.00000000 0.70114770
vt 0.00000000 1.00000000
vt 0.00000000 0.00000000
vt 0.00000000 0.53633115
vt 1.00000000 0.00000000
vt 1.00000000 1.00000000
vt 1.00000000 0.71904581
vt 0.00000000 1.00000000
vt 0.00000000 0.00000000
vt 1.00000000 0.58604364
vt 0.00000000 1.00000000
vt 0.00000000 0.00000000
vt 0.00000000 1.00000000
vt 0.00000000 0.19338308
vt 0.16941077 0.00000000
vt 1.00000000 0.15331771
vt 1.00000000 1.00000000
vt 1.00000000 0.30606769
vt 0.00000000 1.00000000
vt 0.00000000 0.00000000
vt 0.00000000 1.00000000
vt 0.00000000 0.00000000
vt 1.00000000 0.31958644
vt 1.00000000 0.68711414
vt 0.00000000 1.00000000
vt 0.00000000 0.00000000
vt 1.00000000 0.42603489
vt 0.00000000 1.00000000
vt 0.00000000 0.00000000
vt 0.90377683 0.00000000
vt 1.00000000 0.12559696
vt 1.00000000 0.91365689
vt 0.88931580 1.00000000
vt 0.30598261 1.00000000
vt 0.21901782 0.85714286
vt 0.85714286 0.85714286
vt 0.85714286 0.14285714
vt 0.14285714 0.14285714
vt 0.14285714 0.73203364
vt 0.00000000 0.31045971
vt 0.00000000 0.06057901
vt 0.09291782 0.00000000
vt 0.00000000 1.00000000
vt 0.00000000 0.00000000
vt 1.00000000 0.36986041
vt 1.00000000 0.09291782
vt 1.00000000 0.90377683
vt 0.87525714 1.00000000
vt 0.10380991 1.00000000
vt 0.00000000 0.94663972
vt 0.00000000 0.07673461
vt 0.14783022 0.00000000
vt 0.92756268 0.00000000
vt 1.00000000 0.44725740
vt 0.00000000 1.00000000
vt 0.00000000 0.00000000
vt 0.00000000 1.00000000
vt 0.00000000 0.00000000
vt 1.00000000 0.54790056
vt 0.00000000 1.00000000
vt 0.00000000 0.00000000
vt 1.00000000 0.29827332
vt 0.00000000 1.00000000
vt 0.00000000 0.00000000
vt 1.00000000 0.95133094
vt 1.00000000 0.30598261
vt 1.00000000 0.88931580
vt 0.82037022 1.00000000
vt 0.07542690 1.00000000
vt 0.00000000 0.96806597
vt 0.00000000 0.03673705
vt 0.17330505 0.00000000
vt 0.67449469 0.00000000
vt 0.00000000 1.00000000
vt 0.00000000 0.00000000
vt 1.00000000 0.76890456
vt 1.00000000 0.45868324
vt 0.00000000 1.00000000
vt 0.00000000 0.00000000
vt 1.00000000 0.62168450
vt 0.00000000 1.00000000
vt 0.00000000 0.00000000
vt 0.82037022 1.00000000
vt 0.07542690 1.00000000
vt 0.00000000 0.96032482
vt 0.00000000 0.03389695
vt 0.10380991 0.00000000
vt 0.87525714 0.00000000
vt 1.00000000 0.12559696
vt 1.00000000 0.91365689
vt 0.00000000 1.00000000
vt 0.00000000 0.00000000
vt 1.00000000 0.50000000
vt 1.00000000 0.29479492
vt 1.00000000 0.70520508
vt 0.00000000 1.00000000
vt 0.00000000 0.00000000
vt 1.00000000 0.00000000
vt 1.00000000 1.00000000
vt 0.00000000 0.50000000
vt 0.84280247 1.00000000
vt 0.62262844 1.00000000
vt 0.58419569 0.83583593
vt 0.45651800 0.60000000
vt 0.35116769 1.00000000
vt 0.00000000 1.00000000
vt 0.00000000 0.00000000
vt 0.12160454 0.00000000
vt 0.13885087 0.05336648
vt 0.18101344 0.13265497
vt 0.27720297 0.00000000
vt 0.49651806 0.00000000
vt 0.69043424 0.08738053
vt 0.76924302 0.14634215
vt 0.83611769 0.00000000
vt 0.94815278 0.00000000
vt 1.00000000 0.20184395
vt 0.98571723 0.61831571
vt 0.96557362 0.72034443
vt 0.88180344 0.78347212
vt 0.87672735 0.93148588
vt 1.00000000 0.27933571
vt 0.00000000 1.00000000
vt 0.00000000 0.00000000
vt 0.00000000 0.00435356
vt 0.65859848 0.00000000
vt 1.00000000 0.31487903
vt 1.00000000 1.00000000
vt 0.20940136 0.67960960
vt 0.00000000 1.00000000
vt 0.00000000 0.00000000
vt 1.00000000 0.00000000
vt 1.00000000 0.70670823
vt 0.00000000 1.00000000
vt 0.00000000 0.00000000
vt 1.00000000 0.53693743
vt 0.54575069 0.00000000
vt 0.55790791 0.02697018
vt 0.62447975 0.08314940
vt 0.65567583 0.00000000
vt 0.90293006 0.00000000
vt 1.00000000 0.33381794
vt 0.98387145 0.80937460
vt 0.90293006 1.00000000
vt 0.76864475 1.00000000
vt 0.66267931 0.80416240
vt 0.60677482 1.00000000
vt 0.10553397 1.00000000
vt 0.08671448 0.94164622
vt 0.00000000 0.82484710
vt 0.00000000 0.00000000
vt 0.00000000 0.00000000
vt 1.00000000 0.25540251
vt 0.00000000 1.00000000
vt 0.00000000 0.86177204
vt 0.00000000 0.00000000
vt 1.00000000 1.00000000
vt 0.67449469 1.00000000
vt 0.17330505 1.00000000
vt 0.00000000 0.94570840
vt 0.00000000 0.08053363
vt 0.14783022 0.00000000
vt 0.92756268 0.00000000
vt 1.00000000 0.06057901
vt 1.00000000 0.31045971
vt 0.86345523 0.65614918
vt 0.66453415 0.81604714
vn 0.46286918 0.65111611 0.60149807
vn 0.46286918 0.65111611 0.60149807
vn 0.46286918 0.65111611 0.60149807
vn 0.39337647 0.65397299 0.64619988
vn 0.39337647 0.65397299 0.64619988
vn 0.39337647 0.65397299 0.64619988
vn 0.50525215 -0.23633982 0.82997817
vn 0.50525215 -0.23633982 0.82997817
vn 0.50525215 -0.23633982 0.82997817
vn 0.50525215 -0.23633982 0.82997817
vn 1.00000000 0.00000000 0.00000000
vn 1.00000000 0.00000000 0.00000000
vn 1.00000000 0.00000000 0.00000000
vn 1.00000000 0.00000000 0.00000000
vn 1.00000000 0.00000000 0.00000000
vn 1.00000000 0.00000000 0.00000000
vn 1.00000000 0.00000000 0.00000000
vn 1.00000000 0.00000000 0.00000000
vn 1.00000000 0.00000000 0.00000000
vn 1.00000000 0.00000000 0.00000000
vn 1.00000000 0.00000000 0.00000000
vn 1.00000000 0.00000000 0.00000000
vn 1.00000000 0.00000000 0.00000000
vn 1.00000000 0.00000000 0.00000000
vn 1.00000000 0.00000000 0.00000000
vn 1.00000000 0.00000000 0.00000000
vn 1.00000000 0.00000000 0.00000000
vn 0.09710028 0.99427909 -0.04450430
vn 0.09710028 0.99427909 -0.04450430
vn 0.09710028 0.99427909 -0.04450430
vn 0.09710028 0.99427909 -0.04450430
vn 0.09710028 0.99427909 -0.04450430
vn 0.09710028 0.99427909 -0.04450430
vn 0.09710028 0.99427909 -0.04450430
vn 0.09710028 0.99427909 -0.04450430
vn 0.09710028 0.99427909 -0.04450430
vn 0.09710028 0.99427909 -0.04450430
vn -0.46056633 0.62964677 -0.62563856
vn -0.46056633 0.62964677 -0.62563856
vn -0.46056633 0.62964677 -0.62563856
vn -1.00000000 0.00000000 0.00000000
vn -1.00000000 0.00000000 0.00000000
vn -1.00000000 0.00000000 0.00000000
vn -1.00000000 0.00000000 0.00000000
vn -1.00000000 0.00000000 0.00000000
vn -1.00000000 0.00000000 0.00000000
vn -1.00000000 0.00000000 0.00000000
vn -1.00000000 0.00000000 0.00000000
vn -1.00000000 0.00000000 0.00000000
vn -1.00000000 0.00000000 0.00000000
vn -1.00000000 0.00000000 0.00000000
vn -1.00000000 0.00000000 0.00000000
vn -1.00000000 0.00000000 0.00000000
vn -1.00000000 0.00000000 0.00000000
vn -1.00000000 0.00000000 0.00000000
vn -1.00000000 0.00000000 0.00000000
vn -1.00000000 0.00000000 0.00000000
vn -1.00000000 0.00000000 0.00000000
vn -0.79803023 0.23387577 0.55538264
vn -0.79803023 0.23387577 0.55538264
vn -0.79803023 0.23387577 0.55538264
vn -0.79803023 0.23387577 0.55538264
vn -0.68159010 -0.63090383 0.37066870
vn -0.68159010 -0.63090383 0.37066870
vn -0.68159010 -0.63090383 0.37066870
vn -0.50620038 -0.38899571 -0.76970353
vn -0.50620038 -0.38899571 -0.76970353
vn -0.50620038 -0.38899571 -0.76970353
vn -0.46111721 0.12114925 -0.87903002
vn -0.46111721 0.12114925 -0.87903002
vn -0.46111721 0.12114925 -0.87903002
vn -0.46111721 0.12114925 -0.87903002
vn -0.47080135 0.07449942 -0.87908812
vn -0.66437703 -0.32175469 -0.67459401
vn -0.66437703 -0.32175469 -0.67459401
vn -0.66437703 -0.32175469 -0.67459401
vn -0.63351851 0.41836654 -0.65086384
vn -0.63351851 0.41836654 -0.65086384
vn -0.63351851 0.41836654 -0.65086384
vn -0.63351851 0.41836654 -0.65086384
vn -0.55508457 0.60317790 -0.57276308
vn -0.55508457 0.60317790 -0.57276308
vn -0.55508457 0.60317790 -0.57276308
vn -0.67972646 0.52367836 0.51354932
vn -0.67972646 0.52367836 0.51354932
vn -0.67972646 0.52367836 0.51354932
vn -0.55301771 0.66045727 0.50790512
vn -0.55301771 0.66045727 0.50790512
vn -0.55301771 0.66045727 0.50790512
vn 0.93434879 0.24726010 -0.25662188
vn 0.93434879 0.24726010 -0.25662188
vn 0.93434879 0.24726010 -0.25662188
vn 0.93434879 0.24726010 -0.25662188
vn 0.93434879 0.24726010 -0.25662188
vn 0.40712443 0.72414684 -0.55665164
vn 0.40712443 0.72414684 -0.55665164
vn 0.40712443 0.72414684 -0.55665164
vn 0.59661636 0.48796204 0.63713575
vn 0.59661636 0.48796204 0.63713575
vn 0.59661636 0.48796204 0.63713575
vn 0.52147984 -0.33469568 0.78488061
vn 0.52147984 -0.33469568 0.78488061
vn 0.52147984 -0.33469568 0.78488061
vn 0.43993495 0.53520302 0.72112063
vn 0.43993495 0.53520302 0.72112063
vn 0.43993495 0.53520302 0.72112063
vn 0.00000000 1.00000000 0.00000000
vn 0.00000000 1.00000000 0.00000000
vn 0.00000000 1.00000000 0.00000000
vn 0.00000000 1.00000000 0.00000000
vn 0.00000000 1.00000000 0.00000000
vn 0.00000000 1.00000000 0.00000000
vn 0.00000000 1.00000000 0.00000000
vn 0.00000000 1.00000000 0.00000000
vn 0.00000000 1.00000000 0.00000000
vn 0.00000000 1.00000000 0.00000000
vn 0.00000000 1.00000000 0.00000000
vn 0.00000000 1.00000000 0.00000000
vn 0.00000000 1.00000000 0.00000000
vn -0.41493049 0.73110007 -0.54159521
vn -0.41493049 0.73110007 -0.54159521
vn -0.41493049 0.73110007 -0.54159521
vn -1.00000000 0.00000000 0.00000000
vn -1.00000000 0.00000000 0.00000000
vn -1.00000000 0.00000000 0.00000000
vn -1.00000000 0.00000000 0.00000000
vn -1.00000000 0.00000000 0.00000000
vn -1.00000000 0.00000000 0.00000000
vn -1.00000000 0.00000000 0.00000000
vn -1.00000000 0.00000000 0.00000000
vn -0.76027145 -0.43443866 -0.48296001
vn -0.76027145 -0.43443866 -0.48296001
vn -0.76027145 -0.43443866 -0.48296001
vn -0.57635753 -0.54947014 0.60489220
vn -0.57635753 -0.54947014 0.60489220
vn -0.57635753 -0.54947014 0.60489220
vn -0.52948314 0.77490778 0.34520362
vn -0.52948314 0.77490778 0.34520362
vn -0.52948314 0.77490778 0.34520362
vn 0.30149836 0.81474214 0.49527163
vn 0.30149836 0.81474214 0.49527163
vn 0.30149836 0.81474214 0.49527163
vn 1.00000000 0.00000000 0.00000000
vn 1.00000000 0.00000000 0.00000000
vn 1.00000000 0.00000000 0.00000000
vn 1.00000000 0.00000000 0.00000000
vn 1.00000000 0.00000000 0.00000000
vn 1.00000000 0.00000000 0.00000000
vn 1.00000000 0.00000000 0.00000000
vn 1.00000000 0.00000000 0.00000000
vn 0.53570450 -0.29368703 0.79168720
vn 0.53570450 -0.29368703 0.79168720
vn 0.53570450 -0.29368703 0.79168720
vn 0.54305082 -0.49988623 -0.67469220
vn 0.54305082 -0.49988623 -0.67469220
vn 0.54305082 -0.49988623 -0.67469220
vn 0.65708302 0.55272316 -0.51258075
vn 0.65708302 0.55272316 -0.51258075
vn 0.65708302 0.55272316 -0.51258075
vn 0.00000000 0.00000000 -1.00000000
vn 0.00000000 0.00000000 -1.00000000
vn 0.00000000 0.00000000 -1.00000000
vn 0.00000000 0.00000000 -1.00000000
vn 0.00000000 0.00000000 -1.00000000
vn 0.00000000 0.00000000 -1.00000000
vn 0.00000000 0.00000000 -1.00000000
vn 0.00000000 0.00000000 -1.00000000
vn 0.51449576 0.68599434 -0.51449576
vn 0.51449576 0.68599434 -0.51449576
vn 0.51449576 0.68599434 -0.51449576
vn 0.64272541 -0.41690297 -0.64272541
vn 0.64272541 -0.41690297 -0.64272541
vn 0.64272541 -0.41690297 -0.64272541
vn 0.64272541 -0.41690297 -0.64272541
vn 0.48507125 -0.72760688 -0.48507125
vn 0.48507125 -0.72760688 -0.48507125
vn 0.48507125 -0.72760688 -0.48507125
vn 0.00000000 0.00000000 -1.00000000
vn 0.00000000 0.00000000 -1.00000000
vn 0.00000000 0.00000000 -1.00000000
vn 0.00000000 0.00000000 -1.00000000
vn 0.00000000 0.00000000 -1.00000000
vn 0.00000000 0.00000000 -1.00000000
vn 0.00000000 0.00000000 -1.00000000
vn 0.00000000 0.00000000 -1.00000000
vn 0.00000000 0.00000000 -1.00000000
vn 0.00000000 0.00000000 -1.00000000
vn 0.00000000 0.00000000 -1.00000000
vn 0.00000000 0.00000000 -1.00000000
vn 0.00000000 0.00000000 -1.00000000
vn 0.00000000 0.00000000 -1.00000000
vn 0.00000000 0.00000000 -1.00000000
vn 0.00000000 0.00000000 -1.00000000
vn 0.00000000 0.00000000 -1.00000000
vn 0.00000000 0.00000000 -1.00000000
vn 0.00000000 0.00000000 -1.00000000
vn 0.00000000 0.00000000 -1.00000000
vn 0.00000000 0.00000000 -1.00000000
vn 0.73310311 0.51992576 -0.43844843
vn 0.73310311 0.51992576 -0.43844843
vn 0.73310311 0.51992576 -0.43844843
vn 0.09710028 0.99427909 -0.04450430
vn 0.09710028 0.99427909 -0.04450430
vn 0.09710028 0.99427909 -0.04450430
vn 0.09710028 0.99427909 -0.04450430
vn 0.09710028 0.99427909 -0.04450430
vn 0.42863642 0.26081062 -0.86501366
vn 0.42863642 0.26081062 -0.86501366
vn 0.42863642 0.26081062 -0.86501366
vn 0.42863642 0.26081062 -0.86501366
vn 0.45370250 -0.48855467 0.74529751
vn 0.45370250 -0.48855467 0.74529751
vn 0.45370250 -0.48855467 0.74529751
vn 0.00000000 0.00000000 1.00000000
vn 0.00000000 0.00000000 1.00000000
vn 0.00000000 0.00000000 1.00000000
vn 0.00000000 0.00000000 1.00000000
vn 0.00000000 0.00000000 1.00000000
vn 0.00000000 0.00000000 1.00000000
vn 0.00000000 0.00000000 1.00000000
vn 0.00000000 0.00000000 1.00000000
vn 0.00000000 0.00000000 1.00000000
vn 0.00000000 0.00000000 1.00000000
vn 0.00000000 0.00000000 1.00000000
vn 0.00000000 0.00000000 1.00000000
vn 0.00000000 0.00000000 1.00000000
vn 0.00000000 0.00000000 1.00000000
vn 0.00000000 0.00000000 1.00000000
vn -0.02334354 0.75444605 0.65594683
vn -0.02334354 0.75444605 0.65594683
vn -0.02334354 0.75444605 0.65594683
vn 0.18462410 0.81797026 0.54482897
vn 0.18462410 0.81797026 0.54482897
vn 0.18462410 0.81797026 0.54482897
vn 0.00000000 0.00000000 1.00000000
vn 0.00000000 0.00000000 1.00000000
vn 0.00000000 0.00000000 1.00000000
vn 0.00000000 0.00000000 1.00000000
vn 0.00000000 0.00000000 1.00000000
vn 0.00000000 0.00000000 1.00000000
vn 0.00000000 0.00000000 1.00000000
vn 0.00000000 0.00000000 1.00000000
vn 0.00000000 0.00000000 1.00000000
vn 0.00000000 0.00000000 1.00000000
s 1
usemtl Rock
f 3/3/3 2/2/2 1/1/1
s 2
f 1/4/4 2/5/5 4/6/6
s 3
f 6/10/10 5/9/9 4/7/7
f 5/9/9 1/8/8 4/7/7
s 4
f 11/15/15 10/14/14 9/13/13
f 13/17/17 9/13/13 19/25/25
f 7/11/11 20/26/26 19/25/25
f 7/11/11 21/27/27 20/26/26
f 14/18/18 13/17/17 18/24/24
f 17/23/23 6/22/22 14/18/18
f 6/22/22 4/21/21 16/20/20
f 6/22/22 16/20/20 14/18/18
f 14/18/18 18/24/24 17/23/23
f 16/20/20 15/19/19 14/18/18
f 13/17/17 19/25/25 18/24/24
f 9/13/13 7/11/11 19/25/25
f 9/13/13 8/12/12 7/11/11
f 13/17/17 11/15/15 9/13/13
f 13/17/17 12/16/16 11/15/15
s 5
f 25/31/31 24/30/30 23/29/29
f 23/29/29 22/28/28 29/37/37
f 29/37/37 28/36/36 27/35/35
f 27/35/35 26/34/34 7/33/33
f 29/37/37 27/35/35 25/31/31
f 27/35/35 7/33/33 25/31/31
f 25/31/31 23/29/29 29/37/37
f 7/33/33 8/32/32 25/31/31
s 6
f 30/40/40 29/39/39 22/38/38
s 7
f 29/48/48 30/49/49 37/50/50
f 36/46/46 29/48/48 38/51/51
f 35/45/45 36/46/46 39/52/52
f 34/44/44 35/45/45 40/53/53
f 33/43/43 40/53/53 42/55/55
f 32/42/42 42/55/55 43/56/56
f 43/56/56 44/57/57 31/41/41
f 44/57/57 45/58/58 31/41/41
f 43/56/56 31/41/41 32/42/42
f 32/42/42 33/43/43 42/55/55
f 40/53/53 41/54/54 42/55/55
f 33/43/43 34/44/44 40/53/53
f 35/45/45 39/52/52 40/53/53
f 36/46/46 38/51/51 39/52/52
f 36/46/46 28/47/47 29/48/48
f 29/48/48 37/50/50 38/51/51
s 8
f 33/59/59 46/60/60 47/61/61
f 33/59/59 47/61/61 34/62/62
s 9
f 47/63/63 35/64/64 34/65/65
s 10
f 48/68/68 38/67/67 37/66/66
s 11
f 38/69/69 48/70/70 39/72/72
f 40/75/73 39/74/72 49/73/71
f 48/70/70 49/71/71 39/72/72
s 12
f 41/78/76 50/77/75 42/76/74
s 13
f 42/82/80 50/81/79 51/80/78
f 42/82/80 51/80/78 43/79/77
s 14
f 43/83/81 51/84/82 44/85/83
s 15
f 32/88/86 46/87/85 33/86/84
s 16
f 36/89/87 27/90/88 28/91/89
s 17
f 53/95/93 52/94/92 24/93/91
f 24/93/91 25/92/90 54/96/94
f 54/96/94 53/95/93 24/93/91
s 18
f 52/97/95 23/98/96 24/99/97
s 19
f 21/102/100 7/101/99 26/100/98
s 20
f 20/105/103 55/104/102 19/103/101
s 21
f 19/106/104 55/107/105 18/108/106
s 22
f 63/121/119 62/120/118 61/119/117
f 61/119/117 1/118/116 31/117/115
f 63/121/119 45/116/114 56/109/107
f 45/116/114 57/110/108 56/109/107
f 45/116/114 58/111/109 57/110/108
f 16/115/113 59/112/110 58/111/109
f 16/115/113 60/113/111 59/112/110
f 16/115/113 4/114/112 60/113/111
f 45/116/114 16/115/113 58/111/109
f 63/121/119 31/117/115 45/116/114
f 63/121/119 61/119/117 31/117/115
s 23
f 64/124/122 56/123/121 57/122/120
s 24
f 68/131/129 69/132/130 63/125/123
f 65/128/126 67/130/128 68/131/129
f 65/128/126 66/129/127 67/130/128
f 56/126/124 64/127/125 65/128/126
f 68/131/129 56/126/124 65/128/126
f 68/131/129 63/125/123 56/126/124
s 25
f 66/135/133 65/134/132 70/133/131
s 26
f 71/138/136 68/137/135 67/136/134
s 27
f 69/141/139 62/140/138 63/139/137
s 28
f 72/144/142 60/143/141 4/142/140
s 29
f 74/148/146 73/147/145 59/146/144
f 77/151/149 76/150/148 74/148/146
f 60/145/143 72/152/150 77/151/149
f 76/150/148 75/149/147 74/148/146
f 74/148/146 60/145/143 77/151/149
f 74/148/146 59/146/144 60/145/143
s 30
f 76/155/153 77/154/152 78/153/151
s 31
f 79/158/156 74/157/155 75/156/154
s 32
f 73/159/157 58/160/158 59/161/159
s 33
f 65/166/164 64/167/165 57/168/166
f 70/165/163 65/166/164 58/169/167
f 73/162/160 70/165/163 58/169/167
f 73/162/160 74/163/161 79/164/162
f 73/162/160 79/164/162 70/165/163
f 65/166/164 57/168/166 58/169/167
s 34
f 80/170/168 14/171/169 15/172/170
s 35
f 14/176/174 80/175/173 81/174/172
f 14/176/174 81/174/172 13/173/171
s 36
f 13/177/175 81/178/176 12/179/177
s 37
f 53/199/197 82/200/198 11/180/178
f 11/180/178 12/181/179 81/182/180
f 40/191/189 53/199/197 80/183/181
f 50/189/187 80/183/181 16/185/183
f 16/185/183 44/187/185 51/188/186
f 16/185/183 45/186/184 44/187/185
f 16/185/183 51/188/186 50/189/187
f 50/189/187 41/190/188 80/183/181
f 80/183/181 15/184/182 16/185/183
f 41/190/188 40/191/189 80/183/181
f 40/191/189 49/192/190 53/199/197
f 53/199/197 81/182/180 80/183/181
f 49/192/190 48/193/191 53/199/197
f 48/193/191 37/194/192 22/196/194
f 37/194/192 30/195/193 22/196/194
f 48/193/191 22/196/194 53/199/197
f 53/199/197 11/180/178 81/182/180
f 22/196/194 23/197/195 53/199/197
f 23/197/195 52/198/196 53/199/197
s 38
f 82/203/201 10/202/200 11/201/199
s 39
f 10/205/203 82/206/204 53/207/205
f 10/205/203 53/207/205 54/208/206
f 54/208/206 9/204/202 10/205/203
s 40
f 9/212/210 54/211/209 8/209/207
f 54/211/209 25/210/208 8/209/207
s 41
f 17/213/211 5/214/212 6/215/213
s 42
f 20/224/222 21/223/221 26/222/220
f 55/225/223 26/222/220 35/219/217
f 18/226/224 55/225/223 46/217/215
f 17/227/225 46/217/215 32/216/214
f 32/216/214 31/230/228 5/228/226
f 31/230/228 1/229/227 5/228/226
f 5/228/226 17/227/225 32/216/214
f 17/227/225 18/226/224 46/217/215
f 55/225/223 47/218/216 46/217/215
f 55/225/223 35/219/217 47/218/216
f 26/222/220 36/220/218 35/219/217
f 26/222/220 27/221/219 36/220/218
f 55/225/223 20/224/222 26/222/220
s 43
f 72/233/231 4/232/230 2/231/229
s 44
f 1/236/234 61/235/233 3/234/232
s 45
f 77/238/236 72/237/235 2/246/244
f 78/239/237 2/246/244 3/245/243
f 71/240/238 78/239/237 61/244/242
f 68/241/239 61/244/242 62/243/241
f 62/243/241 69/242/240 68/241/239
f 68/241/239 71/240/238 61/244/242
f 78/239/237 3/245/243 61/244/242
f 78/239/237 77/238/236 2/246/244
