mtllib Materials_Modular_Terrain.mtl
o object1
g object1
v -0.20822132 0.15000000 1.02246751
v -0.10974055 0.05000000 1.03983233
v -0.15000000 0.05000000 1.50000000
v -0.25000000 0.15000000 1.50000000
v -0.35594248 0.20000000 0.99642028
v -0.40000000 0.20000000 1.50000000
v -0.22510860 0.20000000 0.50814158
v -0.17468135 0.20000000 0.40000000
v -0.50000000 0.20000000 0.40000000
v -0.50000000 0.20000000 1.50000000
v 0.06014168 0.15000000 0.25000000
v -0.50000000 0.15000000 0.25000000
v 0.19059892 0.06666667 0.16666667
v 0.22253787 0.05000000 0.15000000
v -0.50000000 0.05000000 0.15000000
v 0.50000000 0.00173741 0.00521222
v 0.50000000 0.00000000 0.00000000
v -0.50000000 0.00000000 0.00000000
v 0.50000000 0.00000000 0.01426488
v 0.20503268 0.05000000 0.17500000
v 0.33493649 0.00000000 0.25000000
v 0.00981455 0.05000000 0.59364662
v 0.15076845 0.00000000 0.64494964
v 0.03798062 0.00000000 1.06587956
v -0.08415471 0.15000000 0.55944461
v 0.00000000 0.00000000 1.50000000
vt 0.00000000 1.00000000
vt 0.00000000 0.00000000
vt 1.00000000 0.00000000
vt 1.00000000 1.00000000
vt 0.00000000 1.00000000
vt 0.00000000 0.00000000
vt 1.00000000 0.00000000
vt 1.00000000 1.00000000
vt 0.30739092 0.00000000
vt 0.44281973 0.45779974
vt 0.84499121 0.90168947
vt 1.00000000 1.00000000
vt 0.00000000 1.00000000
vt 0.00000000 0.00000000
vt 0.00000000 0.00000000
vt 1.00000000 0.00000000
vt 1.00000000 1.00000000
vt 0.41922078 1.00000000
vt 1.00000000 1.00000000
vt 0.22475803 1.00000000
vt 0.04420384 0.16666667
vt 0.00000000 0.00000000
vt 1.00000000 0.00000000
vt 1.00000000 1.00000000
vt 0.27746213 1.00000000
vt 0.00000000 0.03474816
vt 0.00000000 0.00000000
vt 1.00000000 0.00000000
vt 0.00000000 1.00000000
vt 0.36538857 0.00000000
vt 1.00000000 1.00000000
vt 1.00000000 1.00000000
vt 0.90241178 1.00000000
vt 0.00000000 0.03474816
vt 0.02458923 0.00000000
vt 1.00000000 0.00000000
vt 1.00000000 1.00000000
vt 0.00000000 1.00000000
vt 0.00000000 0.00000000
vt 1.00000000 0.00000000
vt 0.00000000 1.00000000
vt 0.00000000 0.00000000
vt 1.00000000 0.00000000
vt 1.00000000 1.00000000
vt 1.00000000 0.00000000
vt 1.00000000 1.00000000
vt 0.00000000 0.00000000
vt 0.00000000 0.00000000
vt 1.00000000 0.00000000
vt 1.00000000 1.00000000
vt 0.28772368 1.00000000
vt 0.00000000 0.16666667
vt 1.00000000 1.00000000
vt 0.66860610 1.00000000
vt 0.00000000 0.00000000
vt 1.00000000 0.00000000
vt 0.00000000 1.00000000
vt 0.00000000 0.00000000
vt 1.00000000 0.00000000
vt 1.00000000 1.00000000
vt 0.00000000 1.00000000
vt 0.00000000 0.00000000
vt 1.00000000 0.00000000
vt 1.00000000 1.00000000
vt 0.00000000 1.00000000
vt 0.00000000 0.00000000
vt 1.00000000 0.00000000
vt 1.00000000 1.00000000
vn 0.70575756 0.70575756 0.06174579
vn 0.70575756 0.70575756 0.06174579
vn 0.70575756 0.70575756 0.06174579
vn 0.70575756 0.70575756 0.06174579
vn 0.31610681 0.94832043 0.02765576
vn 0.31610681 0.94832043 0.02765576
vn 0.31610681 0.94832043 0.02765576
vn 0.31610681 0.94832043 0.02765576
vn 0.00000000 1.00000000 -0.00000000
vn 0.00000000 1.00000000 -0.00000000
vn 0.00000000 1.00000000 -0.00000000
vn 0.00000000 1.00000000 -0.00000000
vn 0.00000000 1.00000000 -0.00000000
vn 0.00000000 1.00000000 -0.00000000
vn -0.00000000 0.94868330 -0.31622777
vn -0.00000000 0.94868330 -0.31622777
vn -0.00000000 0.94868330 -0.31622777
vn -0.00000000 0.94868330 -0.31622777
vn -0.00000000 0.70710678 -0.70710678
vn -0.00000000 0.70710678 -0.70710678
vn -0.00000000 0.70710678 -0.70710678
vn -0.00000000 0.70710678 -0.70710678
vn -0.00000000 0.70710678 -0.70710678
vn -0.00000000 0.94868330 -0.31622777
vn -0.00000000 0.94868330 -0.31622777
vn -0.00000000 0.94868330 -0.31622777
vn -0.00000000 0.94868330 -0.31622777
vn -0.00000000 0.94868330 -0.31622777
vn 1.00000000 0.00000000 -0.00000000
vn 1.00000000 0.00000000 -0.00000000
vn 1.00000000 0.00000000 -0.00000000
vn 0.25992865 0.94832043 0.18200400
vn 0.25992865 0.94832043 0.18200400
vn 0.25992865 0.94832043 0.18200400
vn 0.25992865 0.94832043 0.18200400
vn 0.25992865 0.94832043 0.18200400
vn 0.28758441 0.94832043 0.13410281
vn 0.28758441 0.94832043 0.13410281
vn 0.28758441 0.94832043 0.13410281
vn 0.28758441 0.94832043 0.13410281
vn 0.30650207 0.94832043 0.08212698
vn 0.30650207 0.94832043 0.08212698
vn 0.30650207 0.94832043 0.08212698
vn 0.30650207 0.94832043 0.08212698
vn 0.58033108 0.70575756 0.40635220
vn 0.58033108 0.70575756 0.40635220
vn 0.58033108 0.70575756 0.40635220
vn 0.64207687 0.70575756 0.29940536
vn 0.64207687 0.70575756 0.29940536
vn 0.64207687 0.70575756 0.29940536
vn 0.64207687 0.70575756 0.29940536
vn 0.64207687 0.70575756 0.29940536
vn 0.28758441 0.94832043 0.13410281
vn 0.28758441 0.94832043 0.13410281
vn 0.28758441 0.94832043 0.13410281
vn 0.28758441 0.94832043 0.13410281
vn 0.30650207 0.94832043 0.08212698
vn 0.30650207 0.94832043 0.08212698
vn 0.30650207 0.94832043 0.08212698
vn 0.30650207 0.94832043 0.08212698
vn 0.68431347 0.70575756 0.18336124
vn 0.68431347 0.70575756 0.18336124
vn 0.68431347 0.70575756 0.18336124
vn 0.68431347 0.70575756 0.18336124
vn 0.31610681 0.94832043 0.02765576
vn 0.31610681 0.94832043 0.02765576
vn 0.31610681 0.94832043 0.02765576
vn 0.31610681 0.94832043 0.02765576
s 1
usemtl Grass
f 4/4/4 3/3/3 2/2/2
f 4/4/4 2/2/2 1/1/1
s 2
f 6/8/8 4/7/7 1/6/6
f 6/8/8 1/6/6 5/5/5
s 3
f 7/11/11 8/12/12 9/13/13
f 5/10/10 9/13/13 10/14/14
f 10/14/14 6/9/9 5/10/10
f 5/10/10 7/11/11 9/13/13
s 4
f 11/15/15 12/16/16 8/18/18
f 12/16/16 9/17/17 8/18/18
s 5
f 15/23/23 12/19/19 11/20/20
f 13/21/21 14/22/22 15/23/23
f 15/23/23 11/20/20 13/21/21
s 6
usemtl Dirt
f 18/28/28 15/24/24 14/25/25
f 16/26/26 17/27/27 18/28/28
f 18/28/28 14/25/25 16/26/26
s 7
usemtl Grass
f 17/29/29 16/30/30 19/31/31
s 8
usemtl Dirt
f 14/33/33 20/32/32 21/36/36
f 19/35/35 16/34/34 14/33/33
f 14/33/33 21/36/36 19/35/35
s 9
f 23/40/40 21/39/39 22/37/37
f 21/39/39 20/38/38 22/37/37
s 10
f 2/44/44 24/43/43 23/42/42
f 2/44/44 23/42/42 22/41/41
s 11
usemtl Grass
f 14/47/47 13/46/46 20/45/45
s 12
f 11/51/51 25/50/50 22/49/49
f 13/52/52 22/49/49 20/48/48
f 13/52/52 11/51/51 22/49/49
s 13
f 25/56/56 11/55/55 8/54/54
f 25/56/56 8/54/54 7/53/53
s 14
f 5/60/60 1/59/59 25/58/58
f 5/60/60 25/58/58 7/57/57
s 15
f 1/64/64 2/63/63 22/62/62
f 1/64/64 22/62/62 25/61/61
s 16
usemtl Dirt
f 3/68/68 26/67/67 24/66/66
f 3/68/68 24/66/66 2/65/65
