mtllib Materials_Modular_Terrain.mtl
o object1
g object1
v -0.22847779 0.20000000 -0.09791905
v -0.13055874 0.20000000 -0.16319842
v -0.13055874 0.00000000 -0.16319842
v -0.22847779 -0.00000000 -0.09791905
v -0.26111748 0.20000000 0.00000000
v -0.26111748 0.00000000 0.00000000
v -0.12915510 0.20000000 -0.06668301
v -0.12915510 0.00000000 -0.06668301
v -0.15385482 0.23750000 -0.08162947
v -0.21909228 0.23750000 -0.04866378
v -0.15438224 0.23750000 -0.11789508
v -0.20791031 0.23750000 -0.08220970
vt 0.00000000 1.00000000
vt 0.00000000 0.00000000
vt 1.00000000 0.00000000
vt 1.00000000 1.00000000
vt 0.00000000 1.00000000
vt 0.00000000 0.00000000
vt 1.00000000 0.00000000
vt 1.00000000 1.00000000
vt 0.00000000 1.00000000
vt 0.00000000 0.00000000
vt 1.00000000 0.00000000
vt 1.00000000 1.00000000
vt 0.89649188 1.00000000
vt 0.40212779 1.00000000
vt 0.00000000 0.00000000
vt 1.00000000 0.00000000
vt 0.53429853 1.00000000
vt 0.15854910 1.00000000
vt 0.00000000 0.00000000
vt 1.00000000 0.00000000
vt 0.48454841 0.82859585
vt 0.00000000 1.00000000
vt 0.47616738 0.00000000
vt 1.00000000 0.00808457
vt 0.42396337 1.00000000
vt 0.08137515 1.00000000
vt 0.00000000 0.00000000
vt 1.00000000 0.00000000
vt 0.92862927 1.00000000
vt 0.38197293 1.00000000
vt 0.00000000 0.00000000
vt 1.00000000 0.00000000
vt 0.00000000 1.00000000
vt 0.00000000 0.00000000
vt 1.00000000 0.00000000
vt 1.00000000 1.00000000
vn -0.55470020 0.00000000 -0.83205029
vn -0.55470020 -0.00000000 -0.83205029
vn -0.55470020 -0.00000000 -0.83205029
vn -0.55470020 0.00000000 -0.83205029
vn -0.94868330 0.00000000 -0.31622777
vn -0.94868330 0.00000000 -0.31622777
vn -0.94868330 0.00000000 -0.31622777
vn -0.94868330 0.00000000 -0.31622777
vn 0.45100694 0.00000000 0.89252044
vn 0.45100694 0.00000000 0.89252044
vn 0.45100694 0.00000000 0.89252044
vn 0.45100694 0.00000000 0.89252044
vn 0.37766106 0.54663185 0.74737256
vn 0.37766106 0.54663185 0.74737256
vn 0.37766106 0.54663185 0.74737256
vn 0.37766106 0.54663185 0.74737256
vn 0.83728451 0.54663185 -0.01217677
vn 0.83728451 0.54663185 -0.01217677
vn 0.83728451 0.54663185 -0.01217677
vn 0.83728451 0.54663185 -0.01217677
vn 0.00000000 1.00000000 0.00000000
vn 0.00000000 1.00000000 0.00000000
vn 0.00000000 1.00000000 0.00000000
vn 0.00000000 1.00000000 0.00000000
vn -0.79440182 0.54663185 -0.26480061
vn -0.79440182 0.54663185 -0.26480061
vn -0.79440182 0.54663185 -0.26480061
vn -0.79440182 0.54663185 -0.26480061
vn -0.46449099 0.54663185 -0.69673649
vn -0.46449099 0.54663185 -0.69673649
vn -0.46449099 0.54663185 -0.69673649
vn -0.46449099 0.54663185 -0.69673649
vn 0.99989426 0.00000000 -0.01454163
vn 0.99989426 0.00000000 -0.01454163
vn 0.99989426 0.00000000 -0.01454163
vn 0.99989426 0.00000000 -0.01454163
s 1
usemtl Rock
f 1/1/1 2/2/2 4/4/4
f 2/2/2 3/3/3 4/4/4
s 2
f 5/5/5 1/6/6 6/8/8
f 1/6/6 4/7/7 6/8/8
s 3
f 7/9/9 5/10/10 8/12/12
f 5/10/10 6/11/11 8/12/12
s 4
f 9/13/13 10/14/14 7/16/16
f 10/14/14 5/15/15 7/16/16
s 5
f 11/17/17 9/18/18 7/19/19
f 11/17/17 7/19/19 2/20/20
s 6
f 9/23/23 11/24/24 12/21/21
f 12/21/21 10/22/22 9/23/23
s 7
f 10/25/25 12/26/26 1/27/27
f 10/25/25 1/27/27 5/28/28
s 8
f 12/29/29 11/30/30 1/32/32
f 11/30/30 2/31/31 1/32/32
s 9
f 2/33/33 7/34/34 8/35/35
f 2/33/33 8/35/35 3/36/36
o object2
g object2
v -0.16487565 0.23750000 0.09840273
v -0.03784442 0.23750000 -0.06038632
v -0.06991120 0.23750000 -0.15658667
v -0.05687750 0.23750000 -0.16962037
v 0.11127166 0.23750000 -0.14159551
v 0.16882876 0.23750000 0.05985432
v 0.05351379 0.23750000 0.20399803
v -0.08567917 0.23750000 0.20399803
v -0.06527937 0.20000000 -0.06527937
v -0.19583811 0.20000000 0.09791905
v -0.06527937 0.00000000 -0.06527937
v -0.19583811 0.00000000 0.09791905
v -0.09791905 0.20000000 0.22847779
v -0.09791905 -0.00000000 0.22847779
v 0.06527937 0.20000000 0.22847779
v 0.06527937 -0.00000000 0.22847779
v 0.19583811 0.20000000 0.06527937
v 0.19583811 -0.00000000 0.06527937
v 0.13055874 0.20000000 -0.16319842
v 0.13055874 -0.00000000 -0.16319842
v -0.06527937 0.20000000 -0.19583811
v -0.06527937 -0.00000000 -0.19583811
v -0.09791905 0.20000000 -0.16319842
v -0.09791905 -0.00000000 -0.16319842
vt 0.28262876 0.00000000
vt 0.70763204 0.38066994
vt 0.96511494 0.28457656
vt 1.00000000 0.32363418
vt 0.92499068 0.82752073
vt 0.38580464 1.00000000
vt 0.00000000 0.65443978
vt 0.00000000 0.23732524
vt 0.94009521 1.00000000
vt 0.00000000 1.00000000
vt 0.08530477 0.00000000
vt 1.00000000 0.00000000
vt 1.00000000 0.00000000
vt 1.00000000 1.00000000
vt 0.00000000 1.00000000
vt 0.00000000 0.00000000
vt 1.00000000 0.00000000
vt 1.00000000 1.00000000
vt 0.00000000 1.00000000
vt 0.00000000 0.00000000
vt 1.00000000 0.00000000
vt 1.00000000 1.00000000
vt 0.00000000 1.00000000
vt 0.00000000 0.00000000
vt 1.00000000 0.00000000
vt 1.00000000 1.00000000
vt 0.00000000 1.00000000
vt 0.00000000 0.00000000
vt 1.00000000 0.00000000
vt 1.00000000 1.00000000
vt 0.00000000 1.00000000
vt 0.00000000 0.00000000
vt 1.00000000 0.00000000
vt 1.00000000 1.00000000
vt 0.00000000 1.00000000
vt 0.00000000 0.00000000
vt 1.00000000 0.00000000
vt 1.00000000 1.00000000
vt 0.00000000 1.00000000
vt 0.00000000 0.00000000
vt 1.00000000 0.00000000
vt 1.00000000 1.00000000
vt 0.00000000 1.00000000
vt 0.00000000 0.00000000
vt 1.00000000 1.00000000
vt 0.00000000 1.00000000
vt 0.07500000 0.00000000
vt 0.88379538 0.00000000
vt 1.00000000 1.00000000
vt 0.00000000 1.00000000
vt 0.07209373 0.00000000
vt 0.92500000 0.00000000
vt 1.00000000 1.00000000
vt 0.00000000 1.00000000
vt 0.06046220 0.00000000
vt 0.94370426 0.00000000
vt 1.00000000 1.00000000
vt 0.00000000 1.00000000
vt 0.06511710 0.00000000
vt 0.94682127 0.00000000
vt 1.00000000 1.00000000
vt 0.00000000 1.00000000
vt 0.06345200 0.00000000
vt 0.92206508 0.00000000
vt 1.00000000 1.00000000
vt 0.00000000 1.00000000
vt 0.32776202 0.00000000
vt 0.72708265 0.00000000
vt 1.00000000 1.00000000
vt 0.11428183 1.00000000
vt 0.00000000 0.00000000
vt 0.87017176 0.00000000
vn 0.00000000 1.00000000 0.00000000
vn 0.00000000 1.00000000 0.00000000
vn 0.00000000 1.00000000 0.00000000
vn 0.00000000 1.00000000 0.00000000
vn 0.00000000 1.00000000 0.00000000
vn 0.00000000 1.00000000 0.00000000
vn 0.00000000 1.00000000 0.00000000
vn 0.00000000 1.00000000 0.00000000
vn -0.65387849 0.54663185 -0.52310280
vn -0.65387849 0.54663185 -0.52310280
vn -0.65387849 0.54663185 -0.52310280
vn -0.65387849 0.54663185 -0.52310280
vn -0.78086881 0.00000000 -0.62469505
vn -0.78086881 0.00000000 -0.62469505
vn -0.78086881 0.00000000 -0.62469505
vn -0.78086881 0.00000000 -0.62469505
vn -0.80000000 0.00000000 0.60000000
vn -0.80000000 0.00000000 0.60000000
vn -0.80000000 0.00000000 0.60000000
vn -0.80000000 0.00000000 0.60000000
vn -0.00000000 0.00000000 1.00000000
vn -0.00000000 0.00000000 1.00000000
vn -0.00000000 0.00000000 1.00000000
vn -0.00000000 0.00000000 1.00000000
vn 0.78086881 0.00000000 0.62469505
vn 0.78086881 0.00000000 0.62469505
vn 0.78086881 0.00000000 0.62469505
vn 0.78086881 0.00000000 0.62469505
vn 0.96152395 0.00000000 -0.27472113
vn 0.96152395 0.00000000 -0.27472113
vn 0.96152395 0.00000000 -0.27472113
vn 0.96152395 0.00000000 -0.27472113
vn 0.16439899 0.00000000 -0.98639392
vn 0.16439899 0.00000000 -0.98639392
vn 0.16439899 0.00000000 -0.98639392
vn 0.16439899 0.00000000 -0.98639392
vn -0.70710678 0.00000000 -0.70710678
vn -0.70710678 0.00000000 -0.70710678
vn -0.70710678 0.00000000 -0.70710678
vn -0.70710678 0.00000000 -0.70710678
vn -0.94868330 0.00000000 0.31622777
vn -0.94868330 0.00000000 0.31622777
vn -0.94868330 0.00000000 0.31622777
vn -0.94868330 0.00000000 0.31622777
vn -0.66989844 0.54663185 0.50242383
vn -0.66989844 0.54663185 0.50242383
vn -0.66989844 0.54663185 0.50242383
vn -0.66989844 0.54663185 0.50242383
vn -0.00000000 0.54663185 0.83737305
vn -0.00000000 0.54663185 0.83737305
vn -0.00000000 0.54663185 0.83737305
vn -0.00000000 0.54663185 0.83737305
vn 0.65387849 0.54663185 0.52310280
vn 0.65387849 0.54663185 0.52310280
vn 0.65387849 0.54663185 0.52310280
vn 0.65387849 0.54663185 0.52310280
vn 0.80515424 0.54663185 -0.23004407
vn 0.80515424 0.54663185 -0.23004407
vn 0.80515424 0.54663185 -0.23004407
vn 0.80515424 0.54663185 -0.23004407
vn 0.13766328 0.54663185 -0.82597969
vn 0.13766328 0.54663185 -0.82597969
vn 0.13766328 0.54663185 -0.82597969
vn 0.13766328 0.54663185 -0.82597969
vn -0.59211216 0.54663185 -0.59211216
vn -0.59211216 0.54663185 -0.59211216
vn -0.59211216 0.54663185 -0.59211216
vn -0.59211216 0.54663185 -0.59211216
vn -0.79440182 0.54663185 0.26480061
vn -0.79440182 0.54663185 0.26480061
vn -0.79440182 0.54663185 0.26480061
vn -0.79440182 0.54663185 0.26480061
s 1
usemtl Rock
f 13/37/37 20/44/44 19/43/43
f 14/38/38 19/43/43 18/42/42
f 18/42/42 16/40/40 15/39/39
f 18/42/42 17/41/41 16/40/40
f 15/39/39 14/38/38 18/42/42
f 14/38/38 13/37/37 19/43/43
s 2
f 21/45/45 22/46/46 13/47/47
f 21/45/45 13/47/47 14/48/48
s 3
f 22/49/49 21/50/50 24/52/52
f 21/50/50 23/51/51 24/52/52
s 4
f 25/53/53 22/54/54 24/55/55
f 25/53/53 24/55/55 26/56/56
s 5
f 27/57/57 25/58/58 28/60/60
f 25/58/58 26/59/59 28/60/60
s 6
f 29/61/61 27/62/62 28/63/63
f 29/61/61 28/63/63 30/64/64
s 7
f 31/65/65 29/66/66 32/68/68
f 29/66/66 30/67/67 32/68/68
s 8
f 33/69/69 31/70/70 34/72/72
f 31/70/70 32/71/71 34/72/72
s 9
f 35/73/73 33/74/74 36/76/76
f 33/74/74 34/75/75 36/76/76
s 10
f 21/77/77 35/78/78 36/79/79
f 21/77/77 36/79/79 23/80/80
s 11
f 22/81/81 25/82/82 13/84/84
f 25/82/82 20/83/83 13/84/84
s 12
f 25/85/85 27/86/86 20/88/88
f 27/86/86 19/87/87 20/88/88
s 13
f 27/89/89 29/90/90 18/91/91
f 27/89/89 18/91/91 19/92/92
s 14
f 29/93/93 31/94/94 17/95/95
f 29/93/93 17/95/95 18/96/96
s 15
f 31/97/97 33/98/98 17/100/100
f 33/98/98 16/99/99 17/100/100
s 16
f 33/101/101 35/102/102 15/103/103
f 33/101/101 15/103/103 16/104/104
s 17
f 35/105/105 21/106/106 15/108/108
f 21/106/106 14/107/107 15/108/108
