mtllib Materials_Modular_Terrain.mtl
o object1
g object1
v -0.45190824 -0.00439054 0.57500000
v -0.39847295 0.74370348 0.57500000
v -0.39847295 0.74370348 0.42500000
v -0.45190824 -0.00439054 0.42500000
v -0.54809176 0.75439054 0.42500000
v -0.45374098 0.74765120 0.42500000
v -0.47658908 0.48386406 0.42500000
v -0.42386801 0.74551742 0.42500000
v -0.60152705 0.00629652 0.42500000
v -0.60152705 0.00629652 0.57500000
v -0.54809176 0.75439054 0.57500000
v -0.43486257 0.74630274 0.47806987
v -0.44283446 0.74687216 0.47806987
vt 0.00000000 0.00000000
vt 1.00000000 0.00000000
vt 1.00000000 1.00000000
vt 0.00000000 1.00000000
vt 1.00000000 0.00000000
vt 1.00000000 0.63060774
vt 0.64700715 0.60396787
vt 1.00000000 0.83026831
vt 1.00000000 1.00000000
vt 0.00000000 1.00000000
vt 0.00000000 0.00000000
vt 0.00000000 0.00000000
vt 1.00000000 0.00000000
vt 1.00000000 1.00000000
vt 0.00000000 1.00000000
vt 0.88404022 1.00000000
vt 0.00000000 0.00000000
vt 1.00000000 0.26685955
vt 1.00000000 0.34866186
vt 0.00000000 1.00000000
vt 1.00000000 0.00000000
vt 0.87862140 0.00000000
vt 1.00000000 0.73314045
vt 0.00000000 1.00000000
vt 0.00000000 0.00000000
vt 1.00000000 0.00000000
vt 1.00000000 1.00000000
vt 0.00000000 1.00000000
vt 0.35379911 0.29649683
vt 0.35379911 0.24321551
vt 0.00000000 0.16973169
vt 0.00000000 0.00000000
vt 1.00000000 0.00000000
vt 1.00000000 1.00000000
vt 0.00000000 1.00000000
vt 0.00000000 0.36939226
vn 0.99745870 -0.07124705 0.00000000
vn 0.99745870 -0.07124705 0.00000000
vn 0.99745870 -0.07124705 0.00000000
vn 0.99745870 -0.07124705 0.00000000
vn 0.00000000 0.00000000 -1.00000000
vn 0.00000000 0.00000000 -1.00000000
vn 0.00000000 0.00000000 -1.00000000
vn 0.00000000 0.00000000 -1.00000000
vn 0.00000000 0.00000000 -1.00000000
vn 0.00000000 0.00000000 -1.00000000
vn 0.00000000 0.00000000 -1.00000000
vn -0.99745870 0.07124705 0.00000000
vn -0.99745870 0.07124705 0.00000000
vn -0.99745870 0.07124705 0.00000000
vn -0.99745870 0.07124705 0.00000000
vn -0.96013542 0.19345967 -0.20177543
vn -0.96013542 0.19345967 -0.20177543
vn -0.96013542 0.19345967 -0.20177543
vn 0.01400338 0.19604731 -0.98049445
vn 0.01400338 0.19604731 -0.98049445
vn 0.01400338 0.19604731 -0.98049445
vn 0.97577837 -0.08451770 -0.20177543
vn 0.97577837 -0.08451770 -0.20177543
vn 0.97577837 -0.08451770 -0.20177543
vn 0.00000000 0.00000000 1.00000000
vn 0.00000000 0.00000000 1.00000000
vn 0.00000000 0.00000000 1.00000000
vn 0.00000000 0.00000000 1.00000000
vn 0.07124705 0.99745870 0.00000000
vn 0.07124705 0.99745870 0.00000000
vn 0.07124705 0.99745870 0.00000000
vn 0.07124705 0.99745870 0.00000000
vn 0.07124705 0.99745870 0.00000000
vn 0.07124705 0.99745870 0.00000000
vn 0.07124705 0.99745870 0.00000000
vn 0.07124705 0.99745870 0.00000000
s 1
usemtl Wood_Dark
f 4/4/4 3/3/3 2/2/2
f 4/4/4 2/2/2 1/1/1
s 2
f 5/5/5 6/6/6 7/7/7
f 7/7/7 3/9/9 4/10/10
f 7/7/7 8/8/8 3/9/9
f 4/10/10 9/11/11 7/7/7
f 9/11/11 5/5/5 7/7/7
s 3
f 10/12/12 11/13/13 5/14/14
f 10/12/12 5/14/14 9/15/15
s 4
f 8/16/16 7/17/17 12/18/18
s 5
f 12/21/21 7/20/20 13/19/19
s 6
f 6/22/22 13/23/23 7/24/24
s 7
f 1/28/28 2/27/27 10/25/25
f 2/27/27 11/26/26 10/25/25
s 8
f 3/32/32 8/31/31 12/30/30
f 11/34/34 12/30/30 13/29/29
f 13/29/29 6/36/36 5/35/35
f 13/29/29 5/35/35 11/34/34
f 11/34/34 2/33/33 12/30/30
f 2/33/33 3/32/32 12/30/30
