mtllib Materials_Modular_Terrain.mtl
o object1
g object1
v 0.21650635 1.35000000 0.17500000
v -0.00000000 1.35000000 0.30000000
v -0.00000000 1.44717290 0.52673677
v 0.41286616 1.44717290 0.28836839
v 0.56105913 1.61166232 0.37392764
v 0.00000000 1.61166232 0.69785528
v -0.41286616 1.44717290 0.28836839
v -0.56105913 1.61166232 0.37392764
v -0.41286616 1.44717290 -0.18836839
v -0.56105913 1.61166232 -0.27392764
v -0.21650635 1.35000000 0.17500000
v -0.21650635 1.35000000 -0.07500000
v -0.00000000 1.35000000 -0.20000000
v -0.00000000 1.44717290 -0.42673677
v 0.21650635 1.35000000 -0.07500000
v 0.41286616 1.44717290 -0.18836839
v -0.00000000 1.61166232 -0.59785528
v 0.56105913 1.61166232 -0.27392764
v 0.64951905 1.85000000 -0.32500000
v -0.00000000 1.85000000 -0.70000000
v 0.64951905 1.85000000 0.42500000
v 0.64951905 2.35000000 0.42500000
v 0.64951905 2.35000000 -0.32500000
v -0.00000000 2.35000000 0.80000000
v -0.00000000 1.85000000 0.80000000
v -0.64951905 2.35000000 0.42500000
v -0.64951905 1.85000000 0.42500000
v -0.64951905 2.35000000 -0.32500000
v -0.64951905 1.85000000 -0.32500000
v -0.00000000 2.35000000 -0.70000000
v -0.00000000 2.58833768 -0.59785528
v -0.56105913 2.58833768 -0.27392764
v -0.41286616 2.75282710 -0.18836839
v -0.00000000 2.75282710 -0.42673677
v -0.00000000 2.85000000 -0.20000000
v -0.21650635 2.85000000 -0.07500000
v 0.21650635 2.85000000 -0.07500000
v 0.41286616 2.75282710 -0.18836839
v 0.21650635 2.85000000 0.17500000
v 0.41286616 2.75282710 0.28836839
v 0.56105913 2.58833768 0.37392764
v 0.56105913 2.58833768 -0.27392764
v 0.00000000 2.75282710 0.52673677
v 0.00000000 2.58833768 0.69785528
v -0.41286616 2.75282710 0.28836839
v -0.56105913 2.58833768 0.37392764
v -0.21650635 2.85000000 0.17500000
v -0.00000000 2.85000000 0.30000000
v -0.00000000 2.85000000 0.05000000
v -0.00000000 1.35000000 0.05000000
vt 0.23780080 0.00000000
vt 0.76219920 0.00000000
vt 1.00000000 1.00000000
vt 0.00000000 1.00000000
vt 0.86793462 1.00000000
vt 0.13206538 1.00000000
vt 0.00000000 0.00000000
vt 1.00000000 0.00000000
vt 0.86793462 1.00000000
vt 0.13206538 1.00000000
vt 0.00000000 0.00000000
vt 1.00000000 0.00000000
vt 0.86793462 1.00000000
vt 0.13206538 1.00000000
vt 0.00000000 0.00000000
vt 1.00000000 0.00000000
vt 0.23780080 0.00000000
vt 0.76219920 0.00000000
vt 1.00000000 1.00000000
vt 0.00000000 1.00000000
vt 0.23780080 0.00000000
vt 0.76219920 0.00000000
vt 1.00000000 1.00000000
vt 0.00000000 1.00000000
vt 0.23780080 0.00000000
vt 0.76219920 0.00000000
vt 1.00000000 1.00000000
vt 0.00000000 1.00000000
vt 1.00000000 1.00000000
vt 0.00000000 1.00000000
vt 0.13206538 0.00000000
vt 0.86793462 0.00000000
vt 1.00000000 1.00000000
vt 0.00000000 1.00000000
vt 0.06809648 0.00000000
vt 0.93190352 0.00000000
vt 1.00000000 1.00000000
vt 0.00000000 1.00000000
vt 0.06809648 0.00000000
vt 0.93190352 0.00000000
vt 1.00000000 1.00000000
vt 0.00000000 1.00000000
vt 0.00000000 0.00000000
vt 1.00000000 0.00000000
vt 1.00000000 1.00000000
vt 0.00000000 1.00000000
vt 0.00000000 0.00000000
vt 1.00000000 0.00000000
vt 1.00000000 1.00000000
vt 0.00000000 1.00000000
vt 0.00000000 0.00000000
vt 1.00000000 0.00000000
vt 1.00000000 1.00000000
vt 0.00000000 1.00000000
vt 0.00000000 0.00000000
vt 1.00000000 0.00000000
vt 1.00000000 1.00000000
vt 0.00000000 1.00000000
vt 0.00000000 0.00000000
vt 1.00000000 0.00000000
vt 0.00000000 0.00000000
vt 1.00000000 0.00000000
vt 0.93190352 1.00000000
vt 0.06809648 1.00000000
vt 0.86793462 1.00000000
vt 0.13206538 1.00000000
vt 0.00000000 0.00000000
vt 1.00000000 0.00000000
vt 0.76219920 1.00000000
vt 0.23780080 1.00000000
vt 0.00000000 0.00000000
vt 1.00000000 0.00000000
vt 0.76219920 1.00000000
vt 0.23780080 1.00000000
vt 0.00000000 0.00000000
vt 1.00000000 0.00000000
vt 0.76219920 1.00000000
vt 0.23780080 1.00000000
vt 0.00000000 0.00000000
vt 1.00000000 0.00000000
vt 1.00000000 1.00000000
vt 0.00000000 1.00000000
vt 0.13206538 0.00000000
vt 0.86793462 0.00000000
vt 0.86793462 1.00000000
vt 0.13206538 1.00000000
vt 0.00000000 0.00000000
vt 1.00000000 0.00000000
vt 0.86793462 1.00000000
vt 0.13206538 1.00000000
vt 0.00000000 0.00000000
vt 1.00000000 0.00000000
vt 0.76219920 1.00000000
vt 0.23780080 1.00000000
vt 0.00000000 0.00000000
vt 1.00000000 0.00000000
vt 0.76219920 1.00000000
vt 0.23780080 1.00000000
vt 0.00000000 0.00000000
vt 1.00000000 0.00000000
vt 0.75000000 1.00000000
vt 0.25000000 1.00000000
vt 0.00000000 0.50000000
vt 0.25000000 0.00000000
vt 0.75000000 0.00000000
vt 1.00000000 0.50000000
vt 0.50000000 0.50000000
vt 0.76219920 1.00000000
vt 0.23780080 1.00000000
vt 0.00000000 0.00000000
vt 1.00000000 0.00000000
vt 1.00000000 1.00000000
vt 0.00000000 1.00000000
vt 0.13206538 0.00000000
vt 0.86793462 0.00000000
vt 0.86793462 1.00000000
vt 0.13206538 1.00000000
vt 0.00000000 0.00000000
vt 1.00000000 0.00000000
vt 0.00000000 0.00000000
vt 1.00000000 0.00000000
vt 0.93190352 1.00000000
vt 0.06809648 1.00000000
vt 0.00000000 0.00000000
vt 1.00000000 0.00000000
vt 0.93190352 1.00000000
vt 0.06809648 1.00000000
vt 0.00000000 0.00000000
vt 1.00000000 0.00000000
vt 0.93190352 1.00000000
vt 0.06809648 1.00000000
vt 0.00000000 0.00000000
vt 1.00000000 0.00000000
vt 0.93190352 1.00000000
vt 0.06809648 1.00000000
vt 0.00000000 0.00000000
vt 1.00000000 0.00000000
vt 0.93190352 1.00000000
vt 0.06809648 1.00000000
vt 1.00000000 1.00000000
vt 0.00000000 1.00000000
vt 0.00000000 0.00000000
vt 1.00000000 0.00000000
vt 1.00000000 1.00000000
vt 0.00000000 1.00000000
vt 0.06809648 0.00000000
vt 0.93190352 0.00000000
vt 0.86793462 1.00000000
vt 0.13206538 1.00000000
vt 0.00000000 0.00000000
vt 1.00000000 0.00000000
vt 1.00000000 1.00000000
vt 0.00000000 1.00000000
vt 0.06809648 0.00000000
vt 0.93190352 0.00000000
vt 1.00000000 1.00000000
vt 0.00000000 1.00000000
vt 0.06809648 0.00000000
vt 0.93190352 0.00000000
vt 1.00000000 1.00000000
vt 0.00000000 1.00000000
vt 0.06809648 0.00000000
vt 0.93190352 0.00000000
vt 0.86793462 1.00000000
vt 0.13206538 1.00000000
vt 0.00000000 0.00000000
vt 1.00000000 0.00000000
vt 0.23780080 0.00000000
vt 0.76219920 0.00000000
vt 1.00000000 1.00000000
vt 0.00000000 1.00000000
vt 0.25000000 1.00000000
vt 0.00000000 0.50000000
vt 0.25000000 0.00000000
vt 0.75000000 0.00000000
vt 1.00000000 0.50000000
vt 0.75000000 1.00000000
vt 0.50000000 0.50000000
vt 0.23780080 0.00000000
vt 0.76219920 0.00000000
vt 1.00000000 1.00000000
vt 0.00000000 1.00000000
vn 0.22176638 -0.89625816 0.38411064
vn 0.22176638 -0.89625816 0.38411064
vn 0.22176638 -0.89625816 0.38411064
vn 0.22176638 -0.89625816 0.38411064
vn 0.37147578 -0.66934519 0.64341492
vn 0.37147578 -0.66934519 0.64341492
vn 0.37147578 -0.66934519 0.64341492
vn 0.37147578 -0.66934519 0.64341492
vn -0.37147578 -0.66934519 0.64341492
vn -0.37147578 -0.66934519 0.64341492
vn -0.37147578 -0.66934519 0.64341492
vn -0.37147578 -0.66934519 0.64341492
vn -0.74295156 -0.66934519 -0.00000000
vn -0.74295156 -0.66934519 -0.00000000
vn -0.74295156 -0.66934519 -0.00000000
vn -0.74295156 -0.66934519 -0.00000000
vn -0.44353276 -0.89625816 -0.00000000
vn -0.44353276 -0.89625816 -0.00000000
vn -0.44353276 -0.89625816 -0.00000000
vn -0.44353276 -0.89625816 -0.00000000
vn -0.22176638 -0.89625816 -0.38411064
vn -0.22176638 -0.89625816 -0.38411064
vn -0.22176638 -0.89625816 -0.38411064
vn -0.22176638 -0.89625816 -0.38411064
vn 0.22176638 -0.89625816 -0.38411064
vn 0.22176638 -0.89625816 -0.38411064
vn 0.22176638 -0.89625816 -0.38411064
vn 0.22176638 -0.89625816 -0.38411064
vn 0.37147578 -0.66934519 -0.64341492
vn 0.37147578 -0.66934519 -0.64341492
vn 0.37147578 -0.66934519 -0.64341492
vn 0.37147578 -0.66934519 -0.64341492
vn 0.46875467 -0.34796010 -0.81190691
vn 0.46875467 -0.34796010 -0.81190691
vn 0.46875467 -0.34796010 -0.81190691
vn 0.46875467 -0.34796010 -0.81190691
vn 0.93750934 -0.34796010 0.00000000
vn 0.93750934 -0.34796010 0.00000000
vn 0.93750934 -0.34796010 0.00000000
vn 0.93750934 -0.34796010 0.00000000
vn 1.00000000 0.00000000 0.00000000
vn 1.00000000 0.00000000 0.00000000
vn 1.00000000 0.00000000 0.00000000
vn 1.00000000 0.00000000 0.00000000
vn 0.50000000 0.00000000 0.86602540
vn 0.50000000 0.00000000 0.86602540
vn 0.50000000 0.00000000 0.86602540
vn 0.50000000 0.00000000 0.86602540
vn -0.50000000 0.00000000 0.86602540
vn -0.50000000 0.00000000 0.86602540
vn -0.50000000 0.00000000 0.86602540
vn -0.50000000 0.00000000 0.86602540
vn -1.00000000 0.00000000 -0.00000000
vn -1.00000000 0.00000000 -0.00000000
vn -1.00000000 0.00000000 -0.00000000
vn -1.00000000 0.00000000 -0.00000000
vn -0.50000000 0.00000000 -0.86602540
vn -0.50000000 0.00000000 -0.86602540
vn -0.50000000 0.00000000 -0.86602540
vn -0.50000000 0.00000000 -0.86602540
vn -0.46875467 0.34796010 -0.81190691
vn -0.46875467 0.34796010 -0.81190691
vn -0.46875467 0.34796010 -0.81190691
vn -0.46875467 0.34796010 -0.81190691
vn -0.37147578 0.66934519 -0.64341492
vn -0.37147578 0.66934519 -0.64341492
vn -0.37147578 0.66934519 -0.64341492
vn -0.37147578 0.66934519 -0.64341492
vn -0.22176638 0.89625816 -0.38411064
vn -0.22176638 0.89625816 -0.38411064
vn -0.22176638 0.89625816 -0.38411064
vn -0.22176638 0.89625816 -0.38411064
vn 0.22176638 0.89625816 -0.38411064
vn 0.22176638 0.89625816 -0.38411064
vn 0.22176638 0.89625816 -0.38411064
vn 0.22176638 0.89625816 -0.38411064
vn 0.44353276 0.89625816 0.00000000
vn 0.44353276 0.89625816 0.00000000
vn 0.44353276 0.89625816 0.00000000
vn 0.44353276 0.89625816 0.00000000
vn 0.74295156 0.66934519 0.00000000
vn 0.74295156 0.66934519 0.00000000
vn 0.74295156 0.66934519 0.00000000
vn 0.74295156 0.66934519 0.00000000
vn 0.37147578 0.66934519 0.64341492
vn 0.37147578 0.66934519 0.64341492
vn 0.37147578 0.66934519 0.64341492
vn 0.37147578 0.66934519 0.64341492
vn -0.37147578 0.66934519 0.64341492
vn -0.37147578 0.66934519 0.64341492
vn -0.37147578 0.66934519 0.64341492
vn -0.37147578 0.66934519 0.64341492
vn -0.22176638 0.89625816 0.38411064
vn -0.22176638 0.89625816 0.38411064
vn -0.22176638 0.89625816 0.38411064
vn -0.22176638 0.89625816 0.38411064
vn 0.22176638 0.89625816 0.38411064
vn 0.22176638 0.89625816 0.38411064
vn 0.22176638 0.89625816 0.38411064
vn 0.22176638 0.89625816 0.38411064
vn 0.00000000 1.00000000 0.00000000
vn 0.00000000 1.00000000 0.00000000
vn 0.00000000 1.00000000 0.00000000
vn 0.00000000 1.00000000 0.00000000
vn 0.00000000 1.00000000 0.00000000
vn 0.00000000 1.00000000 0.00000000
vn 0.00000000 1.00000000 0.00000000
vn -0.44353276 0.89625816 0.00000000
vn -0.44353276 0.89625816 0.00000000
vn -0.44353276 0.89625816 0.00000000
vn -0.44353276 0.89625816 0.00000000
vn -0.74295156 0.66934519 0.00000000
vn -0.74295156 0.66934519 0.00000000
vn -0.74295156 0.66934519 0.00000000
vn -0.74295156 0.66934519 0.00000000
vn 0.37147578 0.66934519 -0.64341492
vn 0.37147578 0.66934519 -0.64341492
vn 0.37147578 0.66934519 -0.64341492
vn 0.37147578 0.66934519 -0.64341492
vn 0.46875467 0.34796010 -0.81190691
vn 0.46875467 0.34796010 -0.81190691
vn 0.46875467 0.34796010 -0.81190691
vn 0.46875467 0.34796010 -0.81190691
vn -0.93750934 0.34796010 0.00000000
vn -0.93750934 0.34796010 0.00000000
vn -0.93750934 0.34796010 0.00000000
vn -0.93750934 0.34796010 0.00000000
vn -0.46875467 0.34796010 0.81190691
vn -0.46875467 0.34796010 0.81190691
vn -0.46875467 0.34796010 0.81190691
vn -0.46875467 0.34796010 0.81190691
vn 0.46875467 0.34796010 0.81190691
vn 0.46875467 0.34796010 0.81190691
vn 0.46875467 0.34796010 0.81190691
vn 0.46875467 0.34796010 0.81190691
vn 0.93750934 0.34796010 -0.00000000
vn 0.93750934 0.34796010 -0.00000000
vn 0.93750934 0.34796010 0.00000000
vn 0.93750934 0.34796010 0.00000000
vn 0.50000000 0.00000000 -0.86602540
vn 0.50000000 0.00000000 -0.86602540
vn 0.50000000 0.00000000 -0.86602540
vn 0.50000000 0.00000000 -0.86602540
vn -0.46875467 -0.34796010 -0.81190691
vn -0.46875467 -0.34796010 -0.81190691
vn -0.46875467 -0.34796010 -0.81190691
vn -0.46875467 -0.34796010 -0.81190691
vn -0.37147578 -0.66934519 -0.64341492
vn -0.37147578 -0.66934519 -0.64341492
vn -0.37147578 -0.66934519 -0.64341492
vn -0.37147578 -0.66934519 -0.64341492
vn -0.93750934 -0.34796010 -0.00000000
vn -0.93750934 -0.34796010 -0.00000000
vn -0.93750934 -0.34796010 -0.00000000
vn -0.93750934 -0.34796010 -0.00000000
vn -0.46875467 -0.34796010 0.81190691
vn -0.46875467 -0.34796010 0.81190691
vn -0.46875467 -0.34796010 0.81190691
vn -0.46875467 -0.34796010 0.81190691
vn 0.46875467 -0.34796010 0.81190691
vn 0.46875467 -0.34796010 0.81190691
vn 0.46875467 -0.34796010 0.81190691
vn 0.46875467 -0.34796010 0.81190691
vn 0.74295156 -0.66934519 0.00000000
vn 0.74295156 -0.66934519 0.00000000
vn 0.74295156 -0.66934519 0.00000000
vn 0.74295156 -0.66934519 0.00000000
vn 0.44353276 -0.89625816 0.00000000
vn 0.44353276 -0.89625816 0.00000000
vn 0.44353276 -0.89625816 0.00000000
vn 0.44353276 -0.89625816 0.00000000
vn 0.00000000 -1.00000000 0.00000000
vn 0.00000000 -1.00000000 0.00000000
vn 0.00000000 -1.00000000 0.00000000
vn 0.00000000 -1.00000000 0.00000000
vn 0.00000000 -1.00000000 0.00000000
vn 0.00000000 -1.00000000 0.00000000
vn 0.00000000 -1.00000000 0.00000000
vn -0.22176638 -0.89625816 0.38411064
vn -0.22176638 -0.89625816 0.38411064
vn -0.22176638 -0.89625816 0.38411064
vn -0.22176638 -0.89625816 0.38411064
s 1
usemtl Oak_Leaves
f 4/4/4 3/3/3 1/1/1
f 3/3/3 2/2/2 1/1/1
s 2
f 3/5/5 4/6/6 5/7/7
f 3/5/5 5/7/7 6/8/8
s 3
f 7/9/9 3/10/10 8/12/12
f 3/10/10 6/11/11 8/12/12
s 4
f 9/13/13 7/14/14 10/16/16
f 7/14/14 8/15/15 10/16/16
s 5
f 7/20/20 9/19/19 12/18/18
f 7/20/20 12/18/18 11/17/17
s 6
f 9/24/24 14/23/23 13/22/22
f 9/24/24 13/22/22 12/21/21
s 7
f 14/28/28 16/27/27 13/25/25
f 16/27/27 15/26/26 13/25/25
s 8
f 17/29/29 18/30/30 14/32/32
f 18/30/30 16/31/31 14/32/32
s 9
f 18/36/36 17/35/35 20/34/34
f 18/36/36 20/34/34 19/33/33
s 10
f 5/40/40 18/39/39 19/38/38
f 5/40/40 19/38/38 21/37/37
s 11
f 21/44/44 19/43/43 22/41/41
f 19/43/43 23/42/42 22/41/41
s 12
f 25/48/48 21/47/47 24/45/45
f 21/47/47 22/46/46 24/45/45
s 13
f 27/52/52 25/51/51 26/49/49
f 25/51/51 24/50/50 26/49/49
s 14
f 29/56/56 27/55/55 28/53/53
f 27/55/55 26/54/54 28/53/53
s 15
f 20/60/60 29/59/59 30/57/57
f 29/59/59 28/58/58 30/57/57
s 16
f 32/64/64 31/63/63 28/61/61
f 31/63/63 30/62/62 28/61/61
s 17
f 33/65/65 34/66/66 32/68/68
f 34/66/66 31/67/67 32/68/68
s 18
f 34/72/72 33/71/71 36/70/70
f 34/72/72 36/70/70 35/69/69
s 19
f 38/76/76 34/75/75 37/73/73
f 34/75/75 35/74/74 37/73/73
s 20
f 40/80/80 38/79/79 39/77/77
f 38/79/79 37/78/78 39/77/77
s 21
f 41/81/81 42/82/82 40/84/84
f 42/82/82 38/83/83 40/84/84
s 22
f 40/85/85 43/86/86 44/87/87
f 40/85/85 44/87/87 41/88/88
s 23
f 43/89/89 45/90/90 44/92/92
f 45/90/90 46/91/91 44/92/92
s 24
f 45/96/96 43/95/95 48/94/94
f 45/96/96 48/94/94 47/93/93
s 25
f 43/100/100 40/99/99 48/97/97
f 40/99/99 39/98/98 48/97/97
s 26
f 36/101/101 47/102/102 49/107/107
f 37/105/105 35/106/106 49/107/107
f 39/104/104 37/105/105 49/107/107
f 48/103/103 39/104/104 49/107/107
f 47/102/102 48/103/103 49/107/107
f 35/106/106 36/101/101 49/107/107
s 27
f 33/111/111 45/110/110 47/109/109
f 33/111/111 47/109/109 36/108/108
s 28
f 32/112/112 46/113/113 45/114/114
f 32/112/112 45/114/114 33/115/115
s 29
f 34/116/116 38/117/117 42/118/118
f 34/116/116 42/118/118 31/119/119
s 30
f 31/123/123 42/122/122 23/121/121
f 31/123/123 23/121/121 30/120/120
s 31
f 46/127/127 32/126/126 26/124/124
f 32/126/126 28/125/125 26/124/124
s 32
f 44/131/131 46/130/130 24/128/128
f 46/130/130 26/129/129 24/128/128
s 33
f 41/135/135 44/134/134 24/133/133
f 41/135/135 24/133/133 22/132/132
s 34
f 42/139/139 41/138/138 22/137/137
f 42/139/139 22/137/137 23/136/136
s 35
f 19/143/143 20/142/142 23/140/140
f 20/142/142 30/141/141 23/140/140
s 36
f 17/147/147 10/146/146 20/144/144
f 10/146/146 29/145/145 20/144/144
s 37
f 14/148/148 9/149/149 17/151/151
f 9/149/149 10/150/150 17/151/151
s 38
f 10/155/155 8/154/154 29/152/152
f 8/154/154 27/153/153 29/152/152
s 39
f 8/159/159 6/158/158 27/156/156
f 6/158/158 25/157/157 27/156/156
s 40
f 6/163/163 5/162/162 21/161/161
f 6/163/163 21/161/161 25/160/160
s 41
f 4/164/164 16/165/165 18/166/166
f 4/164/164 18/166/166 5/167/167
s 42
f 16/171/171 4/170/170 15/168/168
f 4/170/170 1/169/169 15/168/168
s 43
f 1/172/172 2/173/173 50/178/178
f 13/176/176 15/177/177 50/178/178
f 12/175/175 13/176/176 50/178/178
f 11/174/174 12/175/175 50/178/178
f 2/173/173 11/174/174 50/178/178
f 15/177/177 1/172/172 50/178/178
s 44
f 3/182/182 7/181/181 11/180/180
f 3/182/182 11/180/180 2/179/179
o object2
g object2
v -0.20778281 0.24029229 0.11993990
v -0.20777868 0.24040613 0.11993750
v -0.00000000 0.24081756 0.23979561
v 0.00000000 0.00000000 0.30000000
v -0.25980762 0.00000000 0.15000000
v 0.20777868 0.24040613 0.11993750
v 0.20778281 0.24029229 0.11993990
v 0.25980762 0.00000000 0.15000000
v 0.20790446 0.23982378 -0.12001046
v 0.20790847 0.23971192 -0.12001278
v 0.19485572 0.59637285 0.11244151
v 0.19485572 0.60362715 -0.11244151
v 0.17320508 1.45475651 0.14988681
v 0.17320508 1.44524349 -0.04988681
v -0.00000000 1.45951303 0.24977363
v -0.00000000 0.59274571 0.22488303
v -0.17320508 1.45475651 0.14988681
v -0.19485572 0.59637285 0.11244151
v -0.17320508 1.44524349 -0.04988681
v -0.19485572 0.60362715 -0.11244151
v -0.00000000 1.44048697 -0.14977363
v -0.00000000 0.60725429 -0.22488303
v -0.20790446 0.23982378 -0.12001046
v -0.00000000 0.23964901 -0.24008775
v 0.00000000 0.00000000 -0.30000000
v -0.20790847 0.23971192 -0.12001278
v -0.25980762 0.00000000 -0.15000000
v 0.25980762 0.00000000 -0.15000000
vt 0.99783032 0.00000000
vt 0.99828949 0.00000000
vt 1.00000000 1.00000000
vt 0.00000000 1.00000000
vt 0.00000000 0.00000000
vt 0.00000000 0.00000000
vt 1.00000000 0.00000000
vt 0.99828949 1.00000000
vt 0.99783032 1.00000000
vt 0.00000000 1.00000000
vt 0.00030740 1.00000000
vt 0.00000000 1.00000000
vt 0.00962668 0.00000000
vt 0.00994330 0.00000000
vt 1.00000000 0.00000000
vt 1.00000000 1.00000000
vt 1.00000000 0.00000000
vt 1.00000000 1.00000000
vt 0.00000000 1.00000000
vt 0.00000000 0.00000000
vt 1.00000000 0.00000000
vt 1.00000000 1.00000000
vt 0.00000000 1.00000000
vt 0.00000000 0.00000000
vt 1.00000000 0.00000000
vt 1.00000000 1.00000000
vt 0.00000000 1.00000000
vt 0.00000000 0.00000000
vt 1.00000000 0.00000000
vt 1.00000000 1.00000000
vt 0.00000000 1.00000000
vt 0.00000000 0.00000000
vt 1.00000000 0.00000000
vt 1.00000000 1.00000000
vt 0.00000000 1.00000000
vt 0.00000000 0.00000000
vt 1.00000000 1.00000000
vt 0.00439562 1.00000000
vt 0.00000000 0.00000000
vt 1.00000000 0.00000000
vt 0.00000000 0.00000000
vt 0.99927324 0.00000000
vt 1.00000000 1.00000000
vt 0.99954694 1.00000000
vt 0.00000000 1.00000000
vt 1.00000000 0.00000000
vt 1.00000000 1.00000000
vt 0.00000000 1.00000000
vt 0.00000000 0.00000000
vt 1.00000000 1.00000000
vt 0.00000000 1.00000000
vt 0.00439562 0.00000000
vt 1.00000000 0.00000000
vt 0.99954694 0.00000000
vt 1.00000000 0.00000000
vt 0.99927324 1.00000000
vt 0.00000000 1.00000000
vt 0.00000000 0.00000000
vt 0.00000000 0.00000000
vt 1.00000000 0.00009822
vt 0.99758472 0.99990325
vt 0.00000000 1.00000000
vt 1.00000000 1.00000000
vt 0.00000000 1.00000000
vt 0.00529557 0.00000000
vt 1.00000000 0.00000000
vt 0.00000000 0.00000000
vt 0.99758472 0.00009675
vt 1.00000000 0.99990178
vt 0.00000000 1.00000000
vt 0.00994330 1.00000000
vt 0.00962668 1.00000000
vt 0.00000000 0.00000000
vt 0.00030740 0.00000000
vt 1.00000000 0.00000000
vt 1.00000000 1.00000000
vt 1.00000000 1.00000000
vt 0.00529557 1.00000000
vt 0.00000000 0.00000000
vt 1.00000000 0.00000000
vn -0.48867778 0.21160368 0.84641474
vn -0.48867778 0.21160368 0.84641474
vn -0.48867778 0.21160368 0.84641474
vn -0.48867778 0.21160368 0.84641474
vn -0.48867778 0.21160368 0.84641474
vn 0.48867778 0.21160368 0.84641474
vn 0.48867778 0.21160368 0.84641474
vn 0.48867778 0.21160368 0.84641474
vn 0.48867778 0.21160368 0.84641474
vn 0.48867778 0.21160368 0.84641474
vn 0.99935761 0.03583557 0.00043031
vn 0.99935761 0.03583557 0.00043010
vn 0.99934123 0.03628925 0.00044218
vn 0.99934123 0.03628926 0.00044240
vn 0.99934009 0.03630456 0.00117111
vn 0.99935757 0.03582048 0.00115550
vn 0.99968001 0.02526698 -0.00120319
vn 0.99966617 0.02580782 -0.00122894
vn 0.49890801 -0.02487712 0.86629783
vn 0.49889708 -0.02520694 0.86629459
vn 0.49999808 -0.02515154 0.86566120
vn 0.49999765 -0.02485909 0.86566990
vn -0.49889708 -0.02520694 0.86629459
vn -0.49890801 -0.02487712 0.86629783
vn -0.49999765 -0.02485909 0.86566990
vn -0.49999808 -0.02515154 0.86566120
vn -0.99966617 0.02580782 -0.00122894
vn -0.99968001 0.02526698 -0.00120319
vn -0.99968263 0.02517913 0.00081223
vn -0.99967051 0.02565508 0.00082758
vn -0.49644904 0.07793335 -0.86456043
vn -0.49650237 0.07703632 -0.86461020
vn -0.49939633 0.07698709 -0.86294629
vn -0.49937657 0.07778245 -0.86288639
vn -0.49979138 0.03593099 -0.86540022
vn -0.49979233 0.03579450 -0.86540533
vn -0.48867778 0.21160368 -0.84641474
vn -0.48867778 0.21160368 -0.84641474
vn -0.48867778 0.21160368 -0.84641474
vn -0.48867778 0.21160368 -0.84641474
vn -0.48867778 0.21160368 -0.84641474
vn 0.49650237 0.07703632 -0.86461020
vn 0.49644904 0.07793335 -0.86456043
vn 0.49937657 0.07778245 -0.86288639
vn 0.49939633 0.07698709 -0.86294629
vn 0.49979233 0.03579450 -0.86540533
vn 0.49979138 0.03593099 -0.86540022
vn 0.48867778 0.21160368 -0.84641474
vn 0.48867778 0.21160368 -0.84641474
vn 0.48867778 0.21160368 -0.84641474
vn 0.48867778 0.21160368 -0.84641474
vn 0.48867778 0.21160368 -0.84641474
vn 0.97735555 0.21160368 0.00000000
vn 0.97735555 0.21160368 0.00000000
vn 0.97735555 0.21160368 0.00000000
vn 0.97735555 0.21160368 0.00000000
vn 0.49896707 0.03634777 0.86585836
vn 0.49940383 0.03635832 0.86560608
vn 0.49939410 0.03667881 0.86559818
vn 0.49895605 0.03668949 0.86585030
vn -0.97735555 0.21160368 0.00000000
vn -0.97735555 0.21160368 0.00000000
vn -0.97735555 0.21160368 0.00000000
vn -0.97735555 0.21160368 0.00000000
vn -0.99934123 0.03628926 0.00044240
vn -0.99934123 0.03628925 0.00044218
vn -0.99935761 0.03583557 0.00043010
vn -0.99935761 0.03583557 0.00043031
vn -0.49895605 0.03668949 0.86585030
vn -0.49939410 0.03667881 0.86559818
vn -0.49940383 0.03635832 0.86560608
vn -0.49896707 0.03634777 0.86585836
s 1
usemtl Wood_Dark
f 54/186/186 53/185/185 52/184/184
f 54/186/186 52/184/184 51/183/183
f 51/183/183 55/187/187 54/186/186
s 2
f 56/190/190 53/189/189 54/188/188
f 54/188/188 58/192/192 57/191/191
f 57/191/191 56/190/190 54/188/188
s 3
f 62/198/198 61/197/197 56/196/196
f 56/196/196 57/195/195 60/194/194
f 60/194/194 59/193/193 56/196/196
f 61/202/197 64/200/200 63/199/199
f 61/202/197 62/201/198 64/200/200
f 59/193/193 62/198/198 56/196/196
s 4
f 66/206/204 61/205/203 63/204/202
f 66/206/204 63/204/202 65/203/201
s 5
f 68/210/208 66/209/207 67/207/205
f 66/209/207 65/208/206 67/207/205
s 6
f 70/214/212 68/213/211 69/211/209
f 68/213/211 67/212/210 69/211/209
f 52/253/247 70/257/212 73/256/250
f 76/255/249 51/254/248 52/253/247
f 52/253/247 73/256/250 76/255/249
f 52/253/247 68/258/211 70/257/212
s 7
f 72/218/216 70/217/215 71/215/213
f 74/221/218 73/220/217 70/219/215
f 70/217/215 69/216/214 71/215/213
f 72/222/216 74/221/218 70/219/215
s 8
f 73/225/221 74/224/220 75/223/219
f 75/223/219 77/227/223 76/226/222
f 76/226/222 73/225/221 75/223/219
s 9
f 62/231/227 72/230/226 71/229/225
f 62/235/227 74/233/228 72/232/226
f 62/235/227 59/234/229 74/233/228
f 62/231/227 71/229/225 64/228/224
s 10
f 75/239/233 74/238/232 59/237/231
f 75/239/233 59/237/231 60/236/230
f 60/236/230 78/240/234 75/239/233
s 11
f 78/244/238 60/243/237 57/242/236
f 78/244/238 57/242/236 58/241/235
s 12
f 66/248/242 53/247/241 56/246/240
f 66/248/242 56/246/240 61/245/239
s 13
f 51/251/245 76/250/244 77/249/243
f 55/252/246 51/251/245 77/249/243
s 14
f 68/262/254 52/261/253 66/259/251
f 52/261/253 53/260/252 66/259/251
