mtllib Materials_Modular_Terrain.mtl
o object1
g object1
v 0.20000000 0.10000000 -0.34641016
v -0.20000000 0.10000000 -0.34641016
v -0.10000000 0.00000000 -0.17320508
v 0.10000000 0.00000000 -0.17320508
v 0.40000000 0.10000000 -0.00000000
v 0.20000000 -0.00000000 -0.00000000
v 0.20000000 0.10000000 0.34641016
v 0.10000000 0.00000000 0.17320508
v -0.20000000 0.10000000 0.34641016
v -0.10000000 0.00000000 0.17320508
v -0.40000000 0.10000000 -0.00000000
v -0.20000000 0.00000000 -0.00000000
v -0.50000000 0.30000000 -0.00000000
v -0.25000000 0.30000000 0.43301270
v -0.50000000 0.50000000 -0.00000000
v -0.25000000 0.50000000 0.43301270
v -0.40000000 0.70000000 -0.00000000
v -0.20000000 0.70000000 0.34641016
v -0.20000000 0.80000000 -0.00000000
v -0.10000000 0.80000000 0.17320508
v 0.10000000 0.80000000 -0.17320508
v -0.10000000 0.80000000 -0.17320508
v 0.10000000 0.80000000 0.17320508
v 0.20000000 0.80000000 -0.00000000
v -0.00000000 0.80000000 -0.00000000
v -0.20000000 0.70000000 -0.34641016
v 0.20000000 0.70000000 -0.34641016
v -0.25000000 0.50000000 -0.43301270
v 0.25000000 0.50000000 -0.43301270
v -0.25000000 0.30000000 -0.43301270
v 0.25000000 0.30000000 -0.43301270
v 0.50000000 0.30000000 -0.00000000
v 0.50000000 0.50000000 -0.00000000
v 0.25000000 0.30000000 0.43301270
v 0.25000000 0.50000000 0.43301270
v 0.20000000 0.70000000 0.34641016
v 0.40000000 0.70000000 -0.00000000
vt 1.00000000 0.00000000
vt 1.00000000 1.00000000
vt 0.00000000 1.00000000
vt 0.00000000 0.00000000
vt 1.00000000 0.00000000
vt 1.00000000 1.00000000
vt 0.00000000 1.00000000
vt 0.00000000 0.00000000
vt 1.00000000 0.00000000
vt 1.00000000 1.00000000
vt 0.00000000 1.00000000
vt 0.00000000 0.00000000
vt 1.00000000 0.00000000
vt 1.00000000 1.00000000
vt 0.00000000 1.00000000
vt 0.00000000 0.00000000
vt 1.00000000 0.00000000
vt 1.00000000 1.00000000
vt 0.00000000 1.00000000
vt 0.00000000 0.00000000
vt 0.00000000 1.00000000
vt 0.00000000 0.00000000
vt 1.00000000 0.00000000
vt 1.00000000 1.00000000
vt 0.00000000 1.00000000
vt 0.00000000 0.00000000
vt 1.00000000 0.00000000
vt 1.00000000 1.00000000
vt 0.00000000 1.00000000
vt 0.00000000 0.00000000
vt 1.00000000 0.00000000
vt 1.00000000 1.00000000
vt 0.00000000 1.00000000
vt 0.00000000 0.00000000
vt 1.00000000 0.00000000
vt 1.00000000 1.00000000
vt 1.00000000 0.25000000
vt 1.00000000 0.75000000
vt 0.50000000 1.00000000
vt 0.00000000 0.75000000
vt 0.00000000 0.25000000
vt 0.50000000 0.00000000
vt 0.50000000 0.50000000
vt 0.00000000 1.00000000
vt 0.00000000 0.00000000
vt 1.00000000 0.00000000
vt 1.00000000 1.00000000
vt 0.00000000 1.00000000
vt 0.00000000 0.00000000
vt 1.00000000 0.00000000
vt 1.00000000 1.00000000
vt 0.00000000 1.00000000
vt 0.00000000 0.00000000
vt 1.00000000 0.00000000
vt 1.00000000 1.00000000
vt 0.00000000 1.00000000
vt 0.00000000 0.00000000
vt 1.00000000 0.00000000
vt 1.00000000 1.00000000
vt 0.00000000 1.00000000
vt 0.00000000 0.00000000
vt 1.00000000 0.00000000
vt 1.00000000 1.00000000
vt 0.00000000 1.00000000
vt 0.00000000 0.00000000
vt 1.00000000 0.00000000
vt 1.00000000 1.00000000
vt 0.00000000 1.00000000
vt 0.00000000 0.00000000
vt 1.00000000 0.00000000
vt 1.00000000 1.00000000
vt 0.00000000 1.00000000
vt 0.00000000 0.00000000
vt 1.00000000 0.00000000
vt 1.00000000 1.00000000
vt 0.00000000 1.00000000
vt 0.00000000 0.00000000
vt 1.00000000 0.00000000
vt 1.00000000 1.00000000
vt 0.00000000 1.00000000
vt 0.00000000 0.00000000
vt 1.00000000 0.00000000
vt 1.00000000 1.00000000
vt 0.00000000 1.00000000
vt 0.00000000 0.00000000
vt 1.00000000 0.00000000
vt 1.00000000 1.00000000
vt 0.00000000 1.00000000
vt 0.00000000 0.00000000
vt 1.00000000 0.00000000
vt 1.00000000 1.00000000
vt 0.00000000 1.00000000
vt 0.00000000 0.00000000
vt 1.00000000 0.00000000
vt 1.00000000 1.00000000
vt 0.00000000 1.00000000
vt 0.00000000 0.00000000
vt 1.00000000 0.00000000
vt 1.00000000 1.00000000
vt 0.00000000 1.00000000
vt 0.00000000 0.00000000
vt 1.00000000 0.00000000
vt 1.00000000 1.00000000
vt 0.00000000 1.00000000
vt 0.00000000 0.00000000
vt 1.00000000 0.00000000
vt 1.00000000 1.00000000
vt 0.00000000 1.00000000
vt 0.00000000 0.00000000
vt 1.00000000 0.00000000
vt 1.00000000 1.00000000
vt 0.00000000 1.00000000
vt 0.00000000 0.00000000
vt 1.00000000 0.00000000
vt 1.00000000 1.00000000
vt 0.00000000 1.00000000
vt 0.00000000 0.00000000
vt 1.00000000 0.00000000
vt 1.00000000 1.00000000
vt 0.00000000 1.00000000
vt 0.00000000 0.00000000
vt 1.00000000 0.00000000
vt 1.00000000 1.00000000
vt 1.00000000 0.00000000
vt 1.00000000 1.00000000
vt 0.00000000 1.00000000
vt 0.00000000 0.00000000
vn -0.00000000 -0.86602540 -0.50000000
vn -0.00000000 -0.86602540 -0.50000000
vn -0.00000000 -0.86602540 -0.50000000
vn -0.00000000 -0.86602540 -0.50000000
vn 0.43301270 -0.86602540 -0.25000000
vn 0.43301270 -0.86602540 -0.25000000
vn 0.43301270 -0.86602540 -0.25000000
vn 0.43301270 -0.86602540 -0.25000000
vn 0.43301270 -0.86602540 0.25000000
vn 0.43301270 -0.86602540 0.25000000
vn 0.43301270 -0.86602540 0.25000000
vn 0.43301270 -0.86602540 0.25000000
vn -0.00000000 -0.86602540 0.50000000
vn -0.00000000 -0.86602540 0.50000000
vn -0.00000000 -0.86602540 0.50000000
vn -0.00000000 -0.86602540 0.50000000
vn -0.43301270 -0.86602540 0.25000000
vn -0.43301270 -0.86602540 0.25000000
vn -0.43301270 -0.86602540 0.25000000
vn -0.43301270 -0.86602540 0.25000000
vn -0.79471941 -0.39735971 0.45883147
vn -0.79471941 -0.39735971 0.45883147
vn -0.79471941 -0.39735971 0.45883147
vn -0.79471941 -0.39735971 0.45883147
vn -0.86602540 0.00000000 0.50000000
vn -0.86602540 0.00000000 0.50000000
vn -0.86602540 0.00000000 0.50000000
vn -0.86602540 0.00000000 0.50000000
vn -0.79471941 0.39735971 0.45883147
vn -0.79471941 0.39735971 0.45883147
vn -0.79471941 0.39735971 0.45883147
vn -0.79471941 0.39735971 0.45883147
vn -0.43301270 0.86602540 0.25000000
vn -0.43301270 0.86602540 0.25000000
vn -0.43301270 0.86602540 0.25000000
vn -0.43301270 0.86602540 0.25000000
vn 0.00000000 1.00000000 -0.00000000
vn 0.00000000 1.00000000 -0.00000000
vn 0.00000000 1.00000000 -0.00000000
vn 0.00000000 1.00000000 -0.00000000
vn 0.00000000 1.00000000 -0.00000000
vn 0.00000000 1.00000000 -0.00000000
vn 0.00000000 1.00000000 -0.00000000
vn 0.00000000 0.86602540 -0.50000000
vn 0.00000000 0.86602540 -0.50000000
vn 0.00000000 0.86602540 -0.50000000
vn 0.00000000 0.86602540 -0.50000000
vn 0.00000000 0.39735971 -0.91766294
vn 0.00000000 0.39735971 -0.91766294
vn 0.00000000 0.39735971 -0.91766294
vn 0.00000000 0.39735971 -0.91766294
vn 0.00000000 0.00000000 -1.00000000
vn 0.00000000 0.00000000 -1.00000000
vn 0.00000000 0.00000000 -1.00000000
vn 0.00000000 0.00000000 -1.00000000
vn 0.86602540 0.00000000 -0.50000000
vn 0.86602540 0.00000000 -0.50000000
vn 0.86602540 0.00000000 -0.50000000
vn 0.86602540 0.00000000 -0.50000000
vn 0.86602540 0.00000000 0.50000000
vn 0.86602540 0.00000000 0.50000000
vn 0.86602540 0.00000000 0.50000000
vn 0.86602540 0.00000000 0.50000000
vn 0.79471941 0.39735971 0.45883147
vn 0.79471941 0.39735971 0.45883147
vn 0.79471941 0.39735971 0.45883147
vn 0.79471941 0.39735971 0.45883147
vn 0.79471941 0.39735971 -0.45883147
vn 0.79471941 0.39735971 -0.45883147
vn 0.79471941 0.39735971 -0.45883147
vn 0.79471941 0.39735971 -0.45883147
vn 0.43301270 0.86602540 -0.25000000
vn 0.43301270 0.86602540 -0.25000000
vn 0.43301270 0.86602540 -0.25000000
vn 0.43301270 0.86602540 -0.25000000
vn 0.43301270 0.86602540 0.25000000
vn 0.43301270 0.86602540 0.25000000
vn 0.43301270 0.86602540 0.25000000
vn 0.43301270 0.86602540 0.25000000
vn 0.00000000 0.86602540 0.50000000
vn 0.00000000 0.86602540 0.50000000
vn 0.00000000 0.86602540 0.50000000
vn 0.00000000 0.86602540 0.50000000
vn -0.43301270 0.86602540 -0.25000000
vn -0.43301270 0.86602540 -0.25000000
vn -0.43301270 0.86602540 -0.25000000
vn -0.43301270 0.86602540 -0.25000000
vn 0.00000000 0.39735971 0.91766294
vn 0.00000000 0.39735971 0.91766294
vn 0.00000000 0.39735971 0.91766294
vn 0.00000000 0.39735971 0.91766294
vn -0.79471941 0.39735971 -0.45883147
vn -0.79471941 0.39735971 -0.45883147
vn -0.79471941 0.39735971 -0.45883147
vn -0.79471941 0.39735971 -0.45883147
vn 0.00000000 0.00000000 1.00000000
vn 0.00000000 0.00000000 1.00000000
vn 0.00000000 0.00000000 1.00000000
vn 0.00000000 0.00000000 1.00000000
vn -0.86602540 0.00000000 -0.50000000
vn -0.86602540 0.00000000 -0.50000000
vn -0.86602540 0.00000000 -0.50000000
vn -0.86602540 0.00000000 -0.50000000
vn -0.79471941 -0.39735971 -0.45883147
vn -0.79471941 -0.39735971 -0.45883147
vn -0.79471941 -0.39735971 -0.45883147
vn -0.79471941 -0.39735971 -0.45883147
vn -0.00000000 -0.39735971 0.91766294
vn -0.00000000 -0.39735971 0.91766294
vn -0.00000000 -0.39735971 0.91766294
vn -0.00000000 -0.39735971 0.91766294
vn 0.79471941 -0.39735971 0.45883147
vn 0.79471941 -0.39735971 0.45883147
vn 0.79471941 -0.39735971 0.45883147
vn 0.79471941 -0.39735971 0.45883147
vn 0.79471941 -0.39735971 -0.45883147
vn 0.79471941 -0.39735971 -0.45883147
vn 0.79471941 -0.39735971 -0.45883147
vn 0.79471941 -0.39735971 -0.45883147
vn -0.00000000 -0.39735971 -0.91766294
vn -0.00000000 -0.39735971 -0.91766294
vn -0.00000000 -0.39735971 -0.91766294
vn -0.00000000 -0.39735971 -0.91766294
vn -0.43301270 -0.86602540 -0.25000000
vn -0.43301270 -0.86602540 -0.25000000
vn -0.43301270 -0.86602540 -0.25000000
vn -0.43301270 -0.86602540 -0.25000000
s 1
usemtl Oak_Leaves
f 4/4/4 3/3/3 1/1/1
f 3/3/3 2/2/2 1/1/1
s 2
f 6/8/8 4/7/7 1/6/6
f 6/8/8 1/6/6 5/5/5
s 3
f 8/12/12 6/11/11 5/10/10
f 8/12/12 5/10/10 7/9/9
s 4
f 10/16/16 8/15/15 7/14/14
f 10/16/16 7/14/14 9/13/13
s 5
f 12/20/20 10/19/19 11/17/17
f 10/19/19 9/18/18 11/17/17
s 6
f 14/24/24 13/23/23 11/22/22
f 14/24/24 11/22/22 9/21/21
s 7
f 16/28/28 15/27/27 14/25/25
f 15/27/27 13/26/26 14/25/25
s 8
f 18/32/32 17/31/31 16/29/29
f 17/31/31 15/30/30 16/29/29
s 9
f 20/36/36 19/35/35 18/33/33
f 19/35/35 17/34/34 18/33/33
s 10
f 21/37/37 22/38/38 25/43/43
f 23/41/41 24/42/42 25/43/43
f 20/40/40 23/41/41 25/43/43
f 19/39/39 20/40/40 25/43/43
f 22/38/38 19/39/39 25/43/43
f 24/42/42 21/37/37 25/43/43
s 11
f 22/47/47 21/46/46 27/45/45
f 22/47/47 27/45/45 26/44/44
s 12
f 26/51/51 27/50/50 29/49/49
f 26/51/51 29/49/49 28/48/48
s 13
f 28/55/55 29/54/54 31/53/53
f 28/55/55 31/53/53 30/52/52
s 14
f 29/59/59 33/58/58 32/57/57
f 29/59/59 32/57/57 31/56/56
s 15
f 33/63/63 35/62/62 32/60/60
f 35/62/62 34/61/61 32/60/60
s 16
f 37/67/67 36/66/66 35/65/65
f 37/67/67 35/65/65 33/64/64
s 17
f 27/71/71 37/70/70 33/69/69
f 27/71/71 33/69/69 29/68/68
s 18
f 21/75/75 24/74/74 37/73/73
f 21/75/75 37/73/73 27/72/72
s 19
f 24/79/79 23/78/78 36/77/77
f 24/79/79 36/77/77 37/76/76
s 20
f 23/83/83 20/82/82 36/80/80
f 20/82/82 18/81/81 36/80/80
s 21
f 19/87/87 22/86/86 17/84/84
f 22/86/86 26/85/85 17/84/84
s 22
f 36/91/91 18/90/90 35/88/88
f 18/90/90 16/89/89 35/88/88
s 23
f 17/95/95 26/94/94 15/92/92
f 26/94/94 28/93/93 15/92/92
s 24
f 35/99/99 16/98/98 34/96/96
f 16/98/98 14/97/97 34/96/96
s 25
f 15/103/103 28/102/102 13/100/100
f 28/102/102 30/101/101 13/100/100
s 26
f 13/107/107 30/106/106 2/105/105
f 13/107/107 2/105/105 11/104/104
s 27
f 34/111/111 14/110/110 7/108/108
f 14/110/110 9/109/109 7/108/108
s 28
f 32/115/115 34/114/114 5/112/112
f 34/114/114 7/113/113 5/112/112
s 29
f 31/119/119 32/118/118 1/116/116
f 32/118/118 5/117/117 1/116/116
s 30
f 30/123/123 31/122/122 1/121/121
f 30/123/123 1/121/121 2/120/120
s 31
f 3/127/127 12/126/126 2/124/124
f 12/126/126 11/125/125 2/124/124
