mtllib Materials_Modular_Terrain.mtl
o object1
g object1
v 0.50000000 0.85000000 -0.00000000
v 0.50000000 0.70000000 -0.50000000
v -1.50000000 0.70000000 -0.50000000
v -1.50000000 0.85000000 0.00000000
v 0.50000000 1.55000000 1.00000000
v -1.50000000 1.55000000 1.00000000
v 0.50000000 1.70000000 1.50000000
v -1.50000000 1.70000000 1.50000000
vt 0.00000000 1.00000000
vt 0.00000000 0.00000000
vt 1.00000000 0.00000000
vt 1.00000000 1.00000000
vt 0.00000000 1.00000000
vt 0.00000000 0.00000000
vt 1.00000000 0.00000000
vt 1.00000000 1.00000000
vt 0.00000000 1.00000000
vt 0.00000000 0.00000000
vt 1.00000000 0.00000000
vt 1.00000000 1.00000000
vn -0.00000000 0.95782629 -0.28734789
vn -0.00000000 0.95782629 -0.28734789
vn -0.00000000 0.95782629 -0.28734789
vn -0.00000000 0.95782629 -0.28734789
vn -0.00000000 0.81923192 -0.57346234
vn -0.00000000 0.81923192 -0.57346234
vn -0.00000000 0.81923192 -0.57346234
vn -0.00000000 0.81923192 -0.57346234
vn -0.00000000 0.95782629 -0.28734789
vn -0.00000000 0.95782629 -0.28734789
vn -0.00000000 0.95782629 -0.28734789
vn -0.00000000 0.95782629 -0.28734789
s 1
usemtl Water
f 1/1/1 2/2/2 4/4/4
f 2/2/2 3/3/3 4/4/4
s 2
f 5/5/5 1/6/6 4/7/7
f 5/5/5 4/7/7 6/8/8
s 3
f 7/9/9 5/10/10 8/12/12
f 5/10/10 6/11/11 8/12/12
