mtllib Materials_Modular_Terrain.mtl
o object1
g object1
v 0.01480125 1.34440375 -0.11531746
v -0.05000000 1.15000000 0.05000000
v -0.00169175 1.29492475 0.00169175
v 0.09481959 1.32920040 -0.00973347
v 0.25000000 1.29986414 -0.03681287
v 0.25000000 1.29997066 -0.20396102
v 0.22043567 1.30559231 -0.25000000
v 0.08056304 1.33205025 -0.25000000
v 0.02994576 1.34159902 -0.20940889
v 0.21138780 1.30714598 -0.00238199
v -0.04811692 1.12112985 -0.25000000
v -0.00000000 1.15000000 -0.25000000
v 0.02285781 1.26929775 -0.25000000
v 0.25000000 1.26171634 -0.25000000
v 0.25000000 1.10000000 -0.25000000
v 0.10000000 0.70000000 -0.25000000
v 0.25000000 0.60360026 -0.25000000
v 0.25000000 0.55000000 -0.25000000
v -0.25000000 0.55000000 -0.25000000
v -0.25000000 1.00000000 -0.25000000
v -0.04811692 1.04080205 -0.25000000
v -0.00000000 0.55000000 -0.25000000
v 0.22061529 0.70000000 -0.12938471
v 0.25000000 0.78339247 -0.13127217
v 0.25000000 0.70000000 -0.05000000
v 0.25000000 0.67412527 -0.14026163
v -0.25000000 0.55000000 0.25000000
v -0.00000000 0.55000000 0.25000000
v -0.00000000 0.55000000 0.35000000
v -0.25974212 0.55000000 0.35000000
v -0.35000000 0.55000000 0.31592138
v -0.35000000 0.55000000 -0.30000000
v -0.30000000 0.55000000 -0.35000000
v -0.00000000 0.55000000 -0.35000000
v 0.25000000 0.55000000 0.25000000
v 0.30000000 0.55000000 -0.35000000
v 0.35000000 0.55000000 -0.30000000
v 0.35000000 0.55000000 0.29576561
v 0.30015574 0.55000000 0.35000000
v -0.25000000 0.77500000 0.25000000
v -0.07117647 0.93000000 0.25000000
v 0.25000000 0.85000000 0.25000000
v 0.25000000 0.90000000 0.10000000
v 0.25000000 1.15000000 0.05000000
v 0.21705882 1.03000000 0.09000000
v -0.03525637 1.00612602 0.21732789
v -0.10787052 1.01604678 0.16441720
v -0.12157895 1.03000000 0.09000000
v -0.13745645 1.08440766 -0.08118468
v -0.14638007 1.06410360 -0.06432267
v -0.35000000 0.50000000 -0.35000000
v -0.35000000 0.24327038 -0.35000000
v -0.35000000 0.15000000 -0.09985668
v -0.35000000 0.15000000 0.25914386
v -0.35000000 0.37050928 0.35000000
v -0.35000000 0.49625550 0.35000000
v -0.31817146 0.15000000 -0.35000000
v -0.22452968 0.15000000 0.35000000
v 0.35000000 0.40278056 0.35000000
v 0.35000000 0.18836052 0.35000000
v 0.31076956 0.15000000 0.35000000
v 0.35000000 0.15000000 0.29053588
v 0.35000000 0.45000000 -0.35000000
v 0.35000000 0.23061701 -0.35000000
v 0.35000000 0.15000000 -0.27340049
v 0.29468386 0.15000000 -0.35000000
v 0.25000000 1.26477988 0.01174004
vt 0.00000000 1.00000000
vt 1.00000000 0.00000000
vt 0.70778494 0.74548334
vt 0.00000000 1.00000000
vt 0.00000000 0.00000000
vt 1.00000000 0.66284820
vt 0.00000000 0.60272842
vt 0.31928110 0.08338890
vt 0.49727992 0.00000000
vt 0.92334933 0.28224507
vt 1.00000000 0.51050333
vt 0.86640159 0.83341084
vt 0.42097259 1.00000000
vt 0.05184877 0.78762174
vt 0.73029814 0.40376615
vt 0.76721412 0.50000000
vt 0.91975900 0.54571561
vt 1.00000000 0.66112608
vt 0.96616849 0.94087134
vt 0.91006471 1.00000000
vt 0.70327961 1.00000000
vt 0.19180353 0.70000000
vt 0.06853813 1.00000000
vt 0.00000000 1.00000000
vt 0.00000000 0.00000000
vt 0.57541059 0.00000000
vt 0.62758377 0.40376615
vt 0.00000000 0.50000000
vt 0.00000000 0.10232375
vt 0.20848117 0.00000000
vt 1.00000000 0.44181441
vt 0.00000000 1.00000000
vt 0.00000000 0.00000000
vt 1.00000000 0.09959328
vt 0.00000000 1.00000000
vt 0.00000000 0.00000000
vt 1.00000000 1.00000000
vt 0.00000000 1.00000000
vt 0.00000000 0.07125550
vt 0.26841084 0.00000000
vt 1.00000000 0.42249581
vt 0.00000000 1.00000000
vt 0.85714286 0.50000000
vt 0.85714286 0.14285714
vt 0.14285714 0.14285714
vt 0.14285714 0.50000000
vt 0.00000000 0.50000000
vt 0.00000000 0.12893982
vt 0.04868374 0.00000000
vt 0.92857143 0.00000000
vt 1.00000000 0.07142857
vt 1.00000000 0.50000000
vt 0.14285714 0.85714286
vt 0.85714286 0.85714286
vt 1.00000000 0.92857143
vt 0.92857143 1.00000000
vt 0.07747771 1.00000000
vt 0.00000000 0.92879392
vt 0.00000000 1.00000000
vt 0.00000000 0.00000000
vt 0.59210526 0.00000000
vt 1.00000000 0.35764706
vt 0.78947368 1.00000000
vt 0.00000000 0.50000000
vt 1.00000000 0.16593664
vt 0.00000000 1.00000000
vt 0.00000000 0.00000000
vt 0.00000000 0.00000000
vt 0.10256410 0.49230769
vt 0.88816085 0.68207522
vt 1.00000000 1.00000000
vt 0.00000000 1.00000000
vt 0.58445324 0.95951890
vt 0.00000000 1.00000000
vt 0.00000000 0.00000000
vt 1.00000000 0.74508874
vt 0.71064742 0.32275069
vt 0.64210526 0.45696466
vt 1.00000000 0.61330561
vt 0.56271775 0.78240021
vt 0.51809965 0.73915890
vt 0.00000000 1.00000000
vt 0.00000000 0.00000000
vt 0.10986129 0.00000000
vt 1.00000000 0.65957434
vt 0.26437768 1.00000000
vt 0.00000000 0.71328832
vt 0.00000000 0.00000000
vt 1.00000000 0.50000000
vt 0.00000000 1.00000000
vt 1.00000000 0.92857143
vt 0.87500000 1.00000000
vt 0.23317596 1.00000000
vt 0.00000000 0.64265240
vt 0.00000000 0.12979448
vt 0.55127321 0.00000000
vt 0.86563875 0.00000000
vt 1.00000000 0.04868374
vt 1.00000000 0.12206029
vt 0.00000000 1.00000000
vt 0.00000000 0.00000000
vt 1.00000000 0.34398540
vt 0.00000000 1.00000000
vt 0.00000000 0.00000000
vt 1.00000000 0.87522855
vt 0.00000000 1.00000000
vt 0.00000000 0.00000000
vt 0.86563875 0.00000000
vt 1.00000000 0.12893982
vt 1.00000000 0.92879392
vt 0.63195139 1.00000000
vt 0.09590129 1.00000000
vt 0.00000000 0.94395651
vt 0.00000000 0.17924332
vt 0.55127321 0.00000000
vt 1.00000000 0.50000000
vt 1.00000000 0.69674382
vt 0.00000000 1.00000000
vt 0.00000000 0.00000000
vt 1.00000000 0.45789396
vt 0.00000000 1.00000000
vt 0.00000000 0.00000000
vt 1.00000000 0.92857143
vt 0.75000000 1.00000000
vt 0.20154253 1.00000000
vt 0.00000000 0.89057213
vt 0.00000000 0.08494874
vt 0.09590129 0.00000000
vt 0.63195139 0.00000000
vt 1.00000000 0.07747771
vt 0.00000000 0.00000000
vt 1.00000000 0.32010484
vt 0.00000000 1.00000000
vt 0.00000000 0.00000000
vt 1.00000000 0.80000000
vt 0.00000000 1.00000000
vt 0.87500000 0.00000000
vt 1.00000000 0.07142857
vt 1.00000000 0.92857143
vt 0.75000000 1.00000000
vt 0.20154253 1.00000000
vt 0.00000000 0.92097695
vt 0.00000000 0.04546935
vt 0.23317596 0.00000000
vt 1.00000000 0.50000000
vt 0.50000000 0.00000000
vt 1.00000000 1.00000000
vt 0.00000000 1.00000000
vt 0.00000000 0.00000000
vt 1.00000000 1.00000000
vt 0.00000000 0.44521948
vt 1.00000000 0.00000000
vt 1.00000000 1.00000000
vt 0.00000000 1.00000000
vt 0.00000000 0.00000000
vt 0.27910833 0.09081350
vt 0.44014521 0.97399085
vt 0.00000000 1.00000000
vt 0.00000000 0.00000000
vt 1.00000000 0.37819006
vt 1.00000000 0.46019229
vt 0.00000000 1.00000000
vt 0.00000000 0.00000000
vt 1.00000000 0.48111854
vt 0.00000000 1.00000000
vt 0.00000000 0.00000000
vt 0.31120213 0.76254435
vt 0.20000782 0.60000000
vt 0.16550683 0.78052325
vt 0.07146981 1.00000000
vt 0.00000000 1.00000000
vt 0.00000000 0.00000000
vt 0.40001565 0.00000000
vt 0.46668492 0.30000000
vt 0.80003130 0.40000000
vt 0.95307712 0.47651992
vt 0.99985796 0.57362574
vt 1.00000000 0.90792204
vt 0.94899224 1.00000000
vt 0.73336202 1.00000000
vt 1.00000000 0.37045154
vt 0.00000000 1.00000000
vt 0.00000000 0.00000000
vt 1.00000000 0.56422116
vt 0.98557265 0.87374444
vt 0.61365975 1.00000000
vt 0.00000000 0.98779523
vt 0.00000000 0.00000000
vt 0.00000000 0.00000000
vt 0.91134811 0.00000000
vt 1.00000000 0.40106898
vt 1.00000000 0.78469106
vt 0.89608615 0.92628879
vt 0.58237566 1.00000000
vt 0.32264260 0.88544251
vt 0.19263456 0.40106898
vn -0.94868330 0.31622777 0.00000000
vn -0.94868330 0.31622777 0.00000000
vn -0.94868330 0.31622777 0.00000000
vn -0.27862485 0.89802506 0.34046907
vn -0.27862485 0.89802506 0.34046907
vn -0.27862485 0.89802506 0.34046907
vn 0.18586146 0.98257576 0.00062620
vn 0.18586146 0.98257576 0.00062620
vn 0.18586146 0.98257576 0.00062620
vn 0.18586146 0.98257576 0.00062620
vn 0.18586146 0.98257576 0.00062620
vn 0.18586146 0.98257576 0.00062620
vn 0.18586146 0.98257576 0.00062620
vn 0.18586146 0.98257576 0.00062620
vn 0.00000000 0.00000000 -1.00000000
vn 0.00000000 0.00000000 -1.00000000
vn 0.00000000 0.00000000 -1.00000000
vn 0.00000000 0.00000000 -1.00000000
vn 0.00000000 0.00000000 -1.00000000
vn 0.00000000 0.00000000 -1.00000000
vn 0.00000000 0.00000000 -1.00000000
vn 0.00000000 0.00000000 -1.00000000
vn 0.00000000 0.00000000 -1.00000000
vn 0.00000000 0.00000000 -1.00000000
vn 0.00000000 0.00000000 -1.00000000
vn 0.00000000 0.00000000 -1.00000000
vn 0.00000000 0.00000000 -1.00000000
vn 0.00000000 0.00000000 -1.00000000
vn 0.68348613 -0.25630730 -0.68348613
vn 0.68348613 -0.25630730 -0.68348613
vn 0.68348613 -0.25630730 -0.68348613
vn 0.68348613 -0.25630730 -0.68348613
vn 0.88835321 -0.32046843 -0.32882906
vn 0.88835321 -0.32046843 -0.32882906
vn 0.88835321 -0.32046843 -0.32882906
vn 0.59715032 0.77107290 -0.22103864
vn 0.59715032 0.77107290 -0.22103864
vn 0.59715032 0.77107290 -0.22103864
vn 0.47558690 0.74002311 -0.47558690
vn 0.47558690 0.74002311 -0.47558690
vn 0.47558690 0.74002311 -0.47558690
vn 0.47558690 0.74002311 -0.47558690
vn 0.00000000 1.00000000 0.00000000
vn 0.00000000 1.00000000 0.00000000
vn 0.00000000 1.00000000 0.00000000
vn 0.00000000 1.00000000 0.00000000
vn 0.00000000 1.00000000 0.00000000
vn 0.00000000 1.00000000 0.00000000
vn 0.00000000 1.00000000 0.00000000
vn 0.00000000 1.00000000 0.00000000
vn 0.00000000 1.00000000 0.00000000
vn 0.00000000 1.00000000 0.00000000
vn 0.00000000 1.00000000 0.00000000
vn 0.00000000 1.00000000 0.00000000
vn 0.00000000 1.00000000 0.00000000
vn 0.00000000 1.00000000 0.00000000
vn 0.00000000 1.00000000 0.00000000
vn 0.00000000 1.00000000 0.00000000
vn 0.00000000 0.00000000 1.00000000
vn 0.00000000 0.00000000 1.00000000
vn 0.00000000 0.00000000 1.00000000
vn 0.00000000 0.00000000 1.00000000
vn 0.00000000 0.00000000 1.00000000
vn 0.00000000 0.00000000 1.00000000
vn 0.22996870 0.92325671 0.30775224
vn 0.22996870 0.92325671 0.30775224
vn 0.22996870 0.92325671 0.30775224
vn 0.43000097 0.17705922 0.88529611
vn 0.43000097 0.17705922 0.88529611
vn 0.43000097 0.17705922 0.88529611
vn 0.43000097 0.17705922 0.88529611
vn 0.43000097 0.17705922 0.88529611
vn 0.00000000 0.98287219 0.18428854
vn 0.00000000 0.98287219 0.18428854
vn 0.00000000 0.98287219 0.18428854
vn 0.00000000 0.98287219 0.18428854
vn -0.79250793 0.55614592 0.25026566
vn -0.79250793 0.55614592 0.25026566
vn -0.79250793 0.55614592 0.25026566
vn -0.79250793 0.55614592 0.25026566
vn -0.79250793 0.55614592 0.25026566
vn -0.79250793 0.55614592 0.25026566
vn -0.79250793 0.55614592 0.25026566
vn -0.45384168 0.52359723 0.72102266
vn -0.45384168 0.52359723 0.72102266
vn -0.45384168 0.52359723 0.72102266
vn -0.45384168 0.52359723 0.72102266
vn -0.57735027 0.57735027 -0.57735027
vn -0.57735027 0.57735027 -0.57735027
vn -0.57735027 0.57735027 -0.57735027
vn -1.00000000 0.00000000 0.00000000
vn -1.00000000 0.00000000 0.00000000
vn -1.00000000 0.00000000 0.00000000
vn -1.00000000 0.00000000 0.00000000
vn -1.00000000 0.00000000 0.00000000
vn -1.00000000 0.00000000 0.00000000
vn -1.00000000 0.00000000 0.00000000
vn -1.00000000 0.00000000 0.00000000
vn -0.93962303 -0.32064661 -0.11955879
vn -0.93962303 -0.32064661 -0.11955879
vn -0.93962303 -0.32064661 -0.11955879
vn -0.55634048 -0.31655910 0.76829396
vn -0.55634048 -0.31655910 0.76829396
vn -0.55634048 -0.31655910 0.76829396
vn -0.30379846 0.51019554 0.80461606
vn -0.30379846 0.51019554 0.80461606
vn -0.30379846 0.51019554 0.80461606
vn 0.00000000 0.00000000 1.00000000
vn 0.00000000 0.00000000 1.00000000
vn 0.00000000 0.00000000 1.00000000
vn 0.00000000 0.00000000 1.00000000
vn 0.00000000 0.00000000 1.00000000
vn 0.00000000 0.00000000 1.00000000
vn 0.00000000 0.00000000 1.00000000
vn 0.00000000 0.00000000 1.00000000
vn 0.00000000 0.00000000 1.00000000
vn 0.63485763 -0.64925472 0.41883659
vn 0.63485763 -0.64925472 0.41883659
vn 0.63485763 -0.64925472 0.41883659
vn 0.71441549 0.24188048 0.65658536
vn 0.71441549 0.24188048 0.65658536
vn 0.71441549 0.24188048 0.65658536
vn 1.00000000 0.00000000 0.00000000
vn 1.00000000 0.00000000 0.00000000
vn 1.00000000 0.00000000 0.00000000
vn 1.00000000 0.00000000 0.00000000
vn 1.00000000 0.00000000 0.00000000
vn 1.00000000 0.00000000 0.00000000
vn 1.00000000 0.00000000 0.00000000
vn 1.00000000 0.00000000 0.00000000
vn 0.70846979 -0.48612335 -0.51161962
vn 0.70846979 -0.48612335 -0.51161962
vn 0.70846979 -0.48612335 -0.51161962
vn 0.66666667 0.33333333 -0.66666667
vn 0.66666667 0.33333333 -0.66666667
vn 0.66666667 0.33333333 -0.66666667
vn 0.00000000 0.00000000 -1.00000000
vn 0.00000000 0.00000000 -1.00000000
vn 0.00000000 0.00000000 -1.00000000
vn 0.00000000 0.00000000 -1.00000000
vn 0.00000000 0.00000000 -1.00000000
vn 0.00000000 0.00000000 -1.00000000
vn 0.00000000 0.00000000 -1.00000000
vn 0.00000000 0.00000000 -1.00000000
vn 0.00000000 0.00000000 -1.00000000
vn -1.00000000 0.00000000 0.00000000
vn -1.00000000 0.00000000 0.00000000
vn -1.00000000 0.00000000 0.00000000
vn -1.00000000 0.00000000 0.00000000
vn -0.19315166 0.95568856 -0.22215267
vn -0.19315166 0.95568856 -0.22215267
vn -0.19315166 0.95568856 -0.22215267
vn -0.88385998 0.00000000 -0.46775157
vn -0.88385998 0.00000000 -0.46775157
vn -0.88385998 0.00000000 -0.46775157
vn -0.88385998 0.00000000 -0.46775157
vn -0.51261459 0.85435766 -0.08543577
vn -0.51261459 0.85435766 -0.08543577
vn -0.51261459 0.85435766 -0.08543577
vn -0.51261459 0.85435766 -0.08543577
vn -0.50081893 0.46053741 -0.73286130
vn -0.50081893 0.46053741 -0.73286130
vn -0.50081893 0.46053741 -0.73286130
vn 0.55954367 0.67177168 0.48542115
vn 0.55954367 0.67177168 0.48542115
vn 0.55954367 0.67177168 0.48542115
vn 1.00000000 0.00000000 0.00000000
vn 1.00000000 0.00000000 0.00000000
vn 1.00000000 0.00000000 0.00000000
vn 1.00000000 0.00000000 0.00000000
vn 1.00000000 0.00000000 0.00000000
vn 1.00000000 0.00000000 0.00000000
vn 1.00000000 0.00000000 0.00000000
vn 1.00000000 0.00000000 0.00000000
vn 1.00000000 0.00000000 0.00000000
vn 1.00000000 0.00000000 0.00000000
vn 1.00000000 0.00000000 0.00000000
vn 1.00000000 0.00000000 0.00000000
vn 1.00000000 0.00000000 0.00000000
vn 1.00000000 0.00000000 0.00000000
vn 0.75217847 0.50682979 -0.42113074
vn 0.75217847 0.50682979 -0.42113074
vn 0.75217847 0.50682979 -0.42113074
vn -0.96923550 0.18570842 -0.16153925
vn -0.96923550 0.18570842 -0.16153925
vn -0.96923550 0.18570842 -0.16153925
vn -0.96923550 0.18570842 -0.16153925
vn -0.96923550 0.18570842 -0.16153925
vn 0.00000000 0.31622777 0.94868330
vn 0.00000000 0.31622777 0.94868330
vn 0.00000000 0.31622777 0.94868330
vn 0.00000000 0.31622777 0.94868330
vn 0.00000000 0.31622777 0.94868330
vn 0.00000000 0.31622777 0.94868330
vn 0.00000000 0.31622777 0.94868330
vn 0.00000000 0.31622777 0.94868330
s 1
usemtl Rock
f 1/1/1 2/2/2 3/3/3
s 2
f 4/4/4 1/5/5 3/6/6
s 3
f 8/10/10 9/11/11 1/12/12
f 6/8/8 8/10/10 4/13/13
f 4/13/13 10/14/14 5/7/7
f 4/13/13 5/7/7 6/8/8
f 8/10/10 1/12/12 4/13/13
f 6/8/8 7/9/9 8/10/10
s 4
f 21/27/27 11/15/15 12/16/16
f 12/16/16 8/18/18 15/21/21
f 8/18/18 14/20/20 15/21/21
f 8/18/18 7/19/19 14/20/20
f 12/16/16 13/17/17 8/18/18
f 20/26/26 21/27/27 16/22/22
f 16/22/22 22/28/28 19/25/25
f 16/22/22 18/24/24 22/28/28
f 16/22/22 17/23/23 18/24/24
f 16/22/22 19/25/25 20/26/26
f 21/27/27 15/21/21 16/22/22
f 21/27/27 12/16/16 15/21/21
s 5
f 24/30/30 23/29/29 16/32/32
f 16/32/32 15/31/31 24/30/30
s 6
f 23/33/33 24/34/34 25/35/35
s 7
f 25/36/36 26/37/37 23/38/38
s 8
f 23/39/39 26/40/40 17/41/41
f 23/39/39 17/41/41 16/42/42
s 9
f 19/44/44 22/43/43 34/52/52
f 36/55/55 34/52/52 18/54/54
f 38/57/57 37/56/56 18/54/54
f 35/53/53 39/58/58 38/57/57
f 35/53/53 29/47/47 39/58/58
f 30/48/48 29/47/47 27/45/45
f 32/50/50 31/49/49 27/45/45
f 31/49/49 30/48/48 27/45/45
f 29/47/47 28/46/46 27/45/45
f 35/53/53 28/46/46 29/47/47
f 18/54/54 35/53/53 38/57/57
f 37/56/56 36/55/55 18/54/54
f 34/52/52 22/43/43 18/54/54
f 27/45/45 19/44/44 32/50/50
f 19/44/44 33/51/51 32/50/50
f 19/44/44 34/52/52 33/51/51
s 10
f 40/61/61 27/60/60 28/64/64
f 42/63/63 41/62/62 28/64/64
f 28/64/64 35/59/59 42/63/63
f 41/62/62 40/61/61 28/64/64
s 11
f 43/67/67 41/66/66 42/65/65
s 12
f 43/72/72 44/68/68 45/69/69
f 45/69/69 46/70/70 41/71/71
f 45/69/69 41/71/71 43/72/72
s 13
f 48/74/74 47/73/73 46/76/76
f 46/76/76 45/75/75 48/74/74
s 14
f 48/78/78 2/79/79 49/80/80
f 49/80/80 50/81/81 40/83/83
f 50/81/81 20/82/82 40/83/83
f 40/83/83 48/78/78 49/80/80
f 40/83/83 47/77/77 48/78/78
s 15
f 41/86/86 46/87/87 47/84/84
f 47/84/84 40/85/85 41/86/86
s 16
f 33/90/90 51/89/89 32/88/88
s 17
f 55/96/96 56/97/97 31/98/98
f 53/94/94 31/98/98 32/91/91
f 32/91/91 51/92/92 53/94/94
f 51/92/92 52/93/93 53/94/94
f 53/94/94 54/95/95 31/98/98
f 54/95/95 55/96/96 31/98/98
s 18
f 57/99/99 53/100/100 52/101/101
s 19
f 54/104/104 58/103/103 55/102/102
s 20
f 30/107/107 31/106/106 56/105/105
s 21
f 30/109/109 56/108/108 55/115/115
f 29/116/116 55/115/115 58/114/114
f 61/113/113 60/112/112 29/116/116
f 29/116/116 58/114/114 61/113/113
f 60/112/112 59/111/111 29/116/116
f 59/111/111 39/110/110 29/116/116
f 29/116/116 30/109/109 55/115/115
s 22
f 60/117/117 61/118/118 62/119/119
s 23
f 59/120/120 38/121/121 39/122/122
s 24
f 59/129/129 60/128/128 62/127/127
f 38/130/130 62/127/127 65/126/126
f 65/126/126 63/124/124 37/123/123
f 65/126/126 64/125/125 63/124/124
f 38/130/130 65/126/126 37/123/123
f 38/130/130 59/129/129 62/127/127
s 25
f 64/133/133 65/132/132 66/131/131
s 26
f 63/134/134 36/135/135 37/136/136
s 27
f 63/140/140 64/141/141 66/142/142
f 33/138/138 66/142/142 57/143/143
f 33/138/138 57/143/143 52/144/144
f 52/144/144 51/137/137 33/138/138
f 33/138/138 34/145/145 66/142/142
f 34/145/145 63/140/140 66/142/142
f 34/145/145 36/139/139 63/140/140
s 28
f 40/146/146 20/147/147 19/148/148
f 40/146/146 19/148/148 27/149/149
s 29
f 20/150/150 50/151/151 21/152/152
s 30
f 49/156/156 11/153/153 21/154/154
f 21/154/154 50/155/155 49/156/156
s 31
f 12/158/158 11/157/157 49/160/160
f 49/160/160 2/159/159 12/158/158
s 32
f 9/163/163 8/162/162 13/161/161
s 33
f 67/164/164 5/165/165 10/166/166
s 34
f 18/171/171 17/170/170 26/169/169
f 35/172/172 18/171/171 25/168/168
f 25/168/168 24/167/167 43/174/174
f 15/180/180 44/175/175 43/174/174
f 6/178/178 5/177/177 44/175/175
f 5/177/177 67/176/176 44/175/175
f 15/180/180 6/178/178 44/175/175
f 15/180/180 14/179/179 6/178/178
f 24/167/167 15/180/180 43/174/174
f 25/168/168 43/174/174 35/172/172
f 43/174/174 42/173/173 35/172/172
f 18/171/171 26/169/169 25/168/168
s 35
f 7/183/183 6/182/182 14/181/181
s 36
f 1/184/184 9/185/185 13/186/186
f 1/184/184 12/187/187 2/188/188
f 1/184/184 13/186/186 12/187/187
s 37
f 67/192/192 10/193/193 4/194/194
f 45/190/190 4/194/194 2/196/196
f 2/196/196 48/189/189 45/190/190
f 45/190/190 44/191/191 4/194/194
f 4/194/194 3/195/195 2/196/196
f 44/191/191 67/192/192 4/194/194
