mtllib Materials_Modular_Terrain.mtl
o object1
g object1
v 0.50000000 0.23269482 0.13889216
v 0.50000000 0.15574809 0.00000327
v -0.50000000 0.15574809 0.00000327
v -0.50000000 0.23269482 0.13889216
v 0.50000000 0.38658828 0.13889216
v -0.50000000 0.38658828 0.13889216
v -0.50000000 0.40574809 0.10430869
v 0.50000000 0.40574809 0.10430869
v -0.50000000 0.40574809 -0.10430216
v 0.50000000 0.40574809 -0.10430216
v -0.50000000 0.38658828 -0.13888562
v 0.50000000 0.38658828 -0.13888562
v 0.50000000 0.23269482 -0.13888562
v -0.50000000 0.23269482 -0.13888562
vt 1.00000000 0.00000000
vt 1.00000000 1.00000000
vt 0.00000000 1.00000000
vt 0.00000000 0.00000000
vt 1.00000000 0.00000000
vt 1.00000000 1.00000000
vt 0.00000000 1.00000000
vt 0.00000000 0.00000000
vt 1.00000000 1.00000000
vt 0.00000000 1.00000000
vt 0.00000000 0.00000000
vt 1.00000000 0.00000000
vt 1.00000000 0.00000000
vt 1.00000000 1.00000000
vt 0.00000000 1.00000000
vt 0.00000000 0.00000000
vt 0.00000000 0.00000000
vt 1.00000000 0.00000000
vt 1.00000000 1.00000000
vt 0.00000000 1.00000000
vt 1.00000000 0.00000000
vt 1.00000000 1.00000000
vt 0.00000000 1.00000000
vt 0.00000000 0.00000000
vt 1.00000000 0.00000000
vt 1.00000000 1.00000000
vt 0.00000000 1.00000000
vt 0.00000000 0.00000000
vn -0.00000000 -0.87472821 0.48461383
vn -0.00000000 -0.87472821 0.48461383
vn -0.00000000 -0.87472821 0.48461383
vn -0.00000000 -0.87472821 0.48461383
vn -0.00000000 0.00000000 1.00000000
vn -0.00000000 0.00000000 1.00000000
vn -0.00000000 0.00000000 1.00000000
vn -0.00000000 0.00000000 1.00000000
vn 0.00000000 0.87472821 0.48461383
vn 0.00000000 0.87472821 0.48461383
vn 0.00000000 0.87472821 0.48461383
vn 0.00000000 0.87472821 0.48461383
vn 0.00000000 1.00000000 -0.00000000
vn 0.00000000 1.00000000 -0.00000000
vn 0.00000000 1.00000000 -0.00000000
vn 0.00000000 1.00000000 -0.00000000
vn 0.00000000 0.87472821 -0.48461383
vn 0.00000000 0.87472821 -0.48461383
vn 0.00000000 0.87472821 -0.48461383
vn 0.00000000 0.87472821 -0.48461383
vn 0.00000000 -0.00000000 -1.00000000
vn 0.00000000 -0.00000000 -1.00000000
vn 0.00000000 -0.00000000 -1.00000000
vn 0.00000000 -0.00000000 -1.00000000
vn -0.00000000 -0.87472821 -0.48461383
vn -0.00000000 -0.87472821 -0.48461383
vn -0.00000000 -0.87472821 -0.48461383
vn -0.00000000 -0.87472821 -0.48461383
s 1
usemtl Wood_Dark
f 4/4/4 3/3/3 1/1/1
f 3/3/3 2/2/2 1/1/1
s 2
f 6/8/8 4/7/7 5/5/5
f 4/7/7 1/6/6 5/5/5
s 3
f 8/12/12 7/11/11 5/9/9
f 7/11/11 6/10/10 5/9/9
s 4
usemtl Wood_Light
f 10/16/16 9/15/15 8/13/13
f 9/15/15 7/14/14 8/13/13
s 5
usemtl Wood_Dark
f 9/20/20 10/19/19 12/18/18
f 9/20/20 12/18/18 11/17/17
s 6
f 14/24/24 11/23/23 12/22/22
f 14/24/24 12/22/22 13/21/21
s 7
f 3/28/28 14/27/27 13/26/26
f 3/28/28 13/26/26 2/25/25
o object2
g object2
v 0.50000000 0.23269482 -0.47222113
v 0.50000000 0.38658828 -0.47222113
v -0.50000000 0.38658828 -0.47222113
v -0.50000000 0.23269482 -0.47222113
v 0.50000000 0.15574809 -0.33333224
v -0.50000000 0.15574809 -0.33333224
v 0.50000000 0.23269482 -0.19444336
v -0.50000000 0.23269482 -0.19444336
v 0.50000000 0.38658828 -0.19444336
v -0.50000000 0.38658828 -0.19444336
v -0.50000000 0.40574809 -0.22902682
v 0.50000000 0.40574809 -0.22902682
v -0.50000000 0.40574809 -0.43763767
v 0.50000000 0.40574809 -0.43763767
vt 1.00000000 0.00000000
vt 1.00000000 1.00000000
vt 0.00000000 1.00000000
vt 0.00000000 0.00000000
vt 1.00000000 0.00000000
vt 1.00000000 1.00000000
vt 0.00000000 1.00000000
vt 0.00000000 0.00000000
vt 1.00000000 0.00000000
vt 1.00000000 1.00000000
vt 0.00000000 1.00000000
vt 0.00000000 0.00000000
vt 1.00000000 0.00000000
vt 1.00000000 1.00000000
vt 0.00000000 1.00000000
vt 0.00000000 0.00000000
vt 1.00000000 1.00000000
vt 0.00000000 1.00000000
vt 0.00000000 0.00000000
vt 1.00000000 0.00000000
vt 1.00000000 0.00000000
vt 1.00000000 1.00000000
vt 0.00000000 1.00000000
vt 0.00000000 0.00000000
vt 0.00000000 0.00000000
vt 1.00000000 0.00000000
vt 1.00000000 1.00000000
vt 0.00000000 1.00000000
vn 0.00000000 -0.00000000 -1.00000000
vn 0.00000000 -0.00000000 -1.00000000
vn 0.00000000 -0.00000000 -1.00000000
vn 0.00000000 -0.00000000 -1.00000000
vn -0.00000000 -0.87472821 -0.48461383
vn -0.00000000 -0.87472821 -0.48461383
vn -0.00000000 -0.87472821 -0.48461383
vn -0.00000000 -0.87472821 -0.48461383
vn -0.00000000 -0.87472821 0.48461383
vn -0.00000000 -0.87472821 0.48461383
vn -0.00000000 -0.87472821 0.48461383
vn -0.00000000 -0.87472821 0.48461383
vn -0.00000000 0.00000000 1.00000000
vn -0.00000000 0.00000000 1.00000000
vn -0.00000000 0.00000000 1.00000000
vn -0.00000000 0.00000000 1.00000000
vn 0.00000000 0.87472821 0.48461383
vn 0.00000000 0.87472821 0.48461383
vn 0.00000000 0.87472821 0.48461383
vn 0.00000000 0.87472821 0.48461383
vn 0.00000000 1.00000000 -0.00000000
vn 0.00000000 1.00000000 -0.00000000
vn 0.00000000 1.00000000 -0.00000000
vn 0.00000000 1.00000000 -0.00000000
vn 0.00000000 0.87472821 -0.48461383
vn 0.00000000 0.87472821 -0.48461383
vn 0.00000000 0.87472821 -0.48461383
vn 0.00000000 0.87472821 -0.48461383
s 1
usemtl Wood_Dark
f 18/32/32 17/31/31 16/30/30
f 18/32/32 16/30/30 15/29/29
s 2
f 20/36/36 18/35/35 15/34/34
f 20/36/36 15/34/34 19/33/33
s 3
f 22/40/40 20/39/39 21/37/37
f 20/39/39 19/38/38 21/37/37
s 4
f 24/44/44 22/43/43 23/41/41
f 22/43/43 21/42/42 23/41/41
s 5
f 26/48/48 25/47/47 23/45/45
f 25/47/47 24/46/46 23/45/45
s 6
usemtl Wood_Light
f 28/52/52 27/51/51 26/49/49
f 27/51/51 25/50/50 26/49/49
s 7
usemtl Wood_Dark
f 27/56/56 28/55/55 16/54/54
f 27/56/56 16/54/54 17/53/53
o object3
g object3
v 0.50000000 0.15574809 0.33333878
v 0.50000000 0.23269482 0.19444989
v -0.50000000 0.23269482 0.19444989
v -0.50000000 0.15574809 0.33333878
v 0.50000000 0.23269482 0.47222767
v -0.50000000 0.23269482 0.47222767
v 0.50000000 0.38658828 0.47222767
v -0.50000000 0.38658828 0.47222767
v -0.50000000 0.40574809 0.43764420
v 0.50000000 0.40574809 0.43764420
v -0.50000000 0.40574809 0.22903335
v 0.50000000 0.40574809 0.22903335
v -0.50000000 0.38658828 0.19444989
v 0.50000000 0.38658828 0.19444989
vt 1.00000000 0.00000000
vt 1.00000000 1.00000000
vt 0.00000000 1.00000000
vt 0.00000000 0.00000000
vt 1.00000000 0.00000000
vt 1.00000000 1.00000000
vt 0.00000000 1.00000000
vt 0.00000000 0.00000000
vt 1.00000000 0.00000000
vt 1.00000000 1.00000000
vt 0.00000000 1.00000000
vt 0.00000000 0.00000000
vt 1.00000000 1.00000000
vt 0.00000000 1.00000000
vt 0.00000000 0.00000000
vt 1.00000000 0.00000000
vt 1.00000000 0.00000000
vt 1.00000000 1.00000000
vt 0.00000000 1.00000000
vt 0.00000000 0.00000000
vt 0.00000000 0.00000000
vt 1.00000000 0.00000000
vt 1.00000000 1.00000000
vt 0.00000000 1.00000000
vt 1.00000000 0.00000000
vt 1.00000000 1.00000000
vt 0.00000000 1.00000000
vt 0.00000000 0.00000000
vn -0.00000000 -0.87472821 -0.48461383
vn -0.00000000 -0.87472821 -0.48461383
vn -0.00000000 -0.87472821 -0.48461383
vn -0.00000000 -0.87472821 -0.48461383
vn -0.00000000 -0.87472821 0.48461383
vn -0.00000000 -0.87472821 0.48461383
vn -0.00000000 -0.87472821 0.48461383
vn -0.00000000 -0.87472821 0.48461383
vn -0.00000000 0.00000000 1.00000000
vn -0.00000000 0.00000000 1.00000000
vn -0.00000000 0.00000000 1.00000000
vn -0.00000000 0.00000000 1.00000000
vn 0.00000000 0.87472821 0.48461383
vn 0.00000000 0.87472821 0.48461383
vn 0.00000000 0.87472821 0.48461383
vn 0.00000000 0.87472821 0.48461383
vn 0.00000000 1.00000000 -0.00000000
vn 0.00000000 1.00000000 -0.00000000
vn 0.00000000 1.00000000 -0.00000000
vn 0.00000000 1.00000000 -0.00000000
vn 0.00000000 0.87472821 -0.48461383
vn 0.00000000 0.87472821 -0.48461383
vn 0.00000000 0.87472821 -0.48461383
vn 0.00000000 0.87472821 -0.48461383
vn 0.00000000 -0.00000000 -1.00000000
vn 0.00000000 -0.00000000 -1.00000000
vn 0.00000000 -0.00000000 -1.00000000
vn 0.00000000 -0.00000000 -1.00000000
s 1
usemtl Wood_Dark
f 32/60/60 31/59/59 30/58/58
f 32/60/60 30/58/58 29/57/57
s 2
f 34/64/64 32/63/63 33/61/61
f 32/63/63 29/62/62 33/61/61
s 3
f 36/68/68 34/67/67 35/65/65
f 34/67/67 33/66/66 35/65/65
s 4
f 38/72/72 37/71/71 35/69/69
f 37/71/71 36/70/70 35/69/69
s 5
usemtl Wood_Light
f 40/76/76 39/75/75 38/73/73
f 39/75/75 37/74/74 38/73/73
s 6
usemtl Wood_Dark
f 39/80/80 40/79/79 42/78/78
f 39/80/80 42/78/78 41/77/77
s 7
f 31/84/84 41/83/83 42/82/82
f 31/84/84 42/82/82 30/81/81
