mtllib Materials_Modular_Terrain.mtl
o object1
g object1
v -0.67557050 0.20000000 1.11803399
v -0.11803399 0.20000000 1.40211303
v -0.27254249 0.35000000 1.87764129
v -0.96946313 0.35000000 1.52254249
v -0.58155948 1.05000000 2.82869781
v -1.55724838 1.05000000 2.33155948
v -0.73606798 1.20000000 3.30422607
v -1.85114101 1.20000000 2.73606798
v 0.50000000 1.20000000 3.50000000
v -3.50000000 1.20000000 3.50000000
v -3.50000000 1.20000000 -0.50000000
v -3.30422607 1.20000000 0.73606798
v -2.73606798 1.20000000 1.85114101
v -3.00000000 1.05000000 -0.50000000
v -2.82869781 1.05000000 0.58155948
v -2.00000000 0.35000000 -0.50000000
v -1.87764129 0.35000000 0.27254249
v -1.50000000 0.20000000 -0.50000000
v -1.40211303 0.20000000 0.11803399
v -1.11803399 0.20000000 0.67557050
v -1.52254249 0.35000000 0.96946313
v -2.33155948 1.05000000 1.55724838
v 0.50000000 1.05000000 3.00000000
v 0.50000000 0.35000000 2.00000000
v 0.50000000 0.20000000 1.50000000
vt 1.00000000 1.00000000
vt 0.00000000 1.00000000
vt 0.00000000 0.00000000
vt 1.00000000 0.00000000
vt 1.00000000 1.00000000
vt 0.00000000 1.00000000
vt 0.00000000 0.00000000
vt 1.00000000 0.00000000
vt 1.00000000 1.00000000
vt 0.00000000 1.00000000
vt 0.00000000 0.00000000
vt 1.00000000 0.00000000
vt 0.04894348 0.69098301
vt 0.00000000 1.00000000
vt 0.00000000 0.00000000
vt 1.00000000 0.00000000
vt 0.69098301 0.04894348
vt 0.41221475 0.19098301
vt 0.19098301 0.41221475
vt 1.00000000 1.00000000
vt 0.00000000 1.00000000
vt 0.00000000 0.00000000
vt 1.00000000 0.00000000
vt 1.00000000 1.00000000
vt 0.00000000 1.00000000
vt 0.00000000 0.00000000
vt 1.00000000 0.00000000
vt 1.00000000 1.00000000
vt 0.00000000 1.00000000
vt 0.00000000 0.00000000
vt 1.00000000 0.00000000
vt 1.00000000 1.00000000
vt 0.00000000 1.00000000
vt 0.00000000 0.00000000
vt 1.00000000 0.00000000
vt 1.00000000 1.00000000
vt 0.00000000 1.00000000
vt 0.00000000 0.00000000
vt 1.00000000 0.00000000
vt 1.00000000 1.00000000
vt 0.00000000 1.00000000
vt 0.00000000 0.00000000
vt 1.00000000 0.00000000
vt 1.00000000 1.00000000
vt 0.00000000 1.00000000
vt 0.00000000 0.00000000
vt 1.00000000 0.00000000
vt 0.00000000 0.00000000
vt 1.00000000 0.00000000
vt 1.00000000 1.00000000
vt 0.00000000 1.00000000
vt 1.00000000 1.00000000
vt 0.00000000 1.00000000
vt 0.00000000 0.00000000
vt 1.00000000 0.00000000
vt 0.00000000 0.00000000
vt 1.00000000 0.00000000
vt 1.00000000 1.00000000
vt 0.00000000 1.00000000
vt 1.00000000 1.00000000
vt 0.00000000 1.00000000
vt 0.00000000 0.00000000
vt 1.00000000 0.00000000
vt 0.00000000 0.00000000
vt 1.00000000 0.00000000
vt 1.00000000 1.00000000
vt 0.00000000 1.00000000
vn 0.13194275 0.95683586 -0.25895223
vn 0.13194275 0.95683586 -0.25895223
vn 0.13194275 0.95683586 -0.25895223
vn 0.13194275 0.95683586 -0.25895223
vn 0.26251112 0.81587350 -0.51520708
vn 0.26251112 0.81587350 -0.51520708
vn 0.26251112 0.81587350 -0.51520708
vn 0.26251112 0.81587350 -0.51520708
vn 0.13194275 0.95683586 -0.25895223
vn 0.13194275 0.95683586 -0.25895223
vn 0.13194275 0.95683586 -0.25895223
vn 0.13194275 0.95683586 -0.25895223
vn 0.00000000 1.00000000 0.00000000
vn 0.00000000 1.00000000 0.00000000
vn 0.00000000 1.00000000 0.00000000
vn 0.00000000 1.00000000 0.00000000
vn 0.00000000 1.00000000 0.00000000
vn 0.00000000 1.00000000 0.00000000
vn 0.00000000 1.00000000 0.00000000
vn 0.28705076 0.95683586 -0.04546437
vn 0.28705076 0.95683586 -0.04546437
vn 0.28705076 0.95683586 -0.04546437
vn 0.28705076 0.95683586 -0.04546437
vn 0.57111145 0.81587350 -0.09045517
vn 0.57111145 0.81587350 -0.09045517
vn 0.57111145 0.81587350 -0.09045517
vn 0.57111145 0.81587350 -0.09045517
vn 0.28705076 0.95683586 -0.04546437
vn 0.28705076 0.95683586 -0.04546437
vn 0.28705076 0.95683586 -0.04546437
vn 0.28705076 0.95683586 -0.04546437
vn 0.25895223 0.95683586 -0.13194275
vn 0.25895223 0.95683586 -0.13194275
vn 0.25895223 0.95683586 -0.13194275
vn 0.25895223 0.95683586 -0.13194275
vn 0.51520708 0.81587350 -0.26251112
vn 0.51520708 0.81587350 -0.26251112
vn 0.51520708 0.81587350 -0.26251112
vn 0.51520708 0.81587350 -0.26251112
vn 0.25895223 0.95683586 -0.13194275
vn 0.25895223 0.95683586 -0.13194275
vn 0.25895223 0.95683586 -0.13194275
vn 0.25895223 0.95683586 -0.13194275
vn 0.20550565 0.95683586 -0.20550565
vn 0.20550565 0.95683586 -0.20550565
vn 0.20550565 0.95683586 -0.20550565
vn 0.20550565 0.95683586 -0.20550565
vn 0.04546437 0.95683586 -0.28705076
vn 0.04546437 0.95683586 -0.28705076
vn 0.04546437 0.95683586 -0.28705076
vn 0.04546437 0.95683586 -0.28705076
vn 0.40887066 0.81587350 -0.40887066
vn 0.40887066 0.81587350 -0.40887066
vn 0.40887066 0.81587350 -0.40887066
vn 0.40887066 0.81587350 -0.40887066
vn 0.09045517 0.81587350 -0.57111145
vn 0.09045517 0.81587350 -0.57111145
vn 0.09045517 0.81587350 -0.57111145
vn 0.09045517 0.81587350 -0.57111145
vn 0.20550565 0.95683586 -0.20550565
vn 0.20550565 0.95683586 -0.20550565
vn 0.20550565 0.95683586 -0.20550565
vn 0.20550565 0.95683586 -0.20550565
vn 0.04546437 0.95683586 -0.28705076
vn 0.04546437 0.95683586 -0.28705076
vn 0.04546437 0.95683586 -0.28705076
vn 0.04546437 0.95683586 -0.28705076
s 1
usemtl Grass
f 4/4/4 3/3/3 1/1/1
f 3/3/3 2/2/2 1/1/1
s 2
f 6/8/8 5/7/7 3/6/6
f 6/8/8 3/6/6 4/5/5
s 3
f 8/12/12 7/11/11 5/10/10
f 8/12/12 5/10/10 6/9/9
s 4
f 10/15/15 9/14/14 7/13/13
f 12/17/17 11/16/16 10/15/15
f 10/15/15 13/18/18 12/17/17
f 10/15/15 8/19/19 13/18/18
f 10/15/15 7/13/13 8/19/19
s 5
f 11/23/23 12/22/22 15/21/21
f 11/23/23 15/21/21 14/20/20
s 6
f 14/27/27 15/26/26 17/25/25
f 14/27/27 17/25/25 16/24/24
s 7
f 16/31/31 17/30/30 18/28/28
f 17/30/30 19/29/29 18/28/28
s 8
f 17/35/35 21/34/34 19/32/32
f 21/34/34 20/33/33 19/32/32
s 9
f 15/39/39 22/38/38 21/37/37
f 15/39/39 21/37/37 17/36/36
s 10
f 12/43/43 13/42/42 22/41/41
f 12/43/43 22/41/41 15/40/40
s 11
f 13/47/47 8/46/46 6/45/45
f 13/47/47 6/45/45 22/44/44
s 12
f 23/51/51 5/50/50 7/49/49
f 23/51/51 7/49/49 9/48/48
s 13
f 22/55/55 6/54/54 4/53/53
f 22/55/55 4/53/53 21/52/52
s 14
f 24/59/59 3/58/58 23/56/56
f 3/58/58 5/57/57 23/56/56
s 15
f 21/63/63 4/62/62 20/60/60
f 4/62/62 1/61/61 20/60/60
s 16
f 25/67/67 2/66/66 24/64/64
f 2/66/66 3/65/65 24/64/64
