mtllib Materials_Modular_Terrain.mtl
o object1
g object1
v 0.00332079 0.00001530 0.00496018
v -0.00492205 -0.00000000 -0.00465632
v 0.00752769 0.00000000 -0.00698651
v 0.00894396 0.24735449 0.00058031
v 0.00069972 0.24736455 -0.00903513
v -0.00350070 0.24717026 0.00291203
v -0.00325232 0.24580801 0.00288387
v -0.00350684 0.24717026 0.00290487
v -0.00344466 0.24583479 0.00266573
vt 0.00000000 0.66208983
vt 0.80495045 0.00000000
vt 1.00000000 1.00000000
vt 1.00000000 0.38524590
vt 0.00000000 1.00000000
vt 0.00000000 0.00000000
vt 0.00000000 1.00000000
vt 0.50000000 0.00000000
vt 1.00000000 1.00000000
vt 1.00000000 0.61504106
vt 0.00000000 1.00000000
vt 0.00000000 0.00000000
vt 0.97754507 0.60675468
vt 0.00000000 0.00000000
vt 1.00000000 0.00000000
vt 0.50037241 1.00000000
vt 0.49962756 0.99999995
vt 1.00000000 0.00000000
vt 0.99983604 1.00000000
vt 0.02201216 0.39308298
vt 0.00000000 0.38495896
vt 1.00000000 1.00000000
vt 0.00000000 0.38524590
vt 1.00000000 0.00000000
vn 0.00025661 -0.99999903 0.00137100
vn 0.00025661 -0.99999903 0.00137100
vn 0.00025661 -0.99999903 0.00137100
vn 0.94310708 -0.01555994 0.33212487
vn 0.94310708 -0.01555994 0.33212487
vn 0.94310708 -0.01555994 0.33212487
vn 0.75914726 0.01555994 -0.65073292
vn 0.75914726 0.01555994 -0.65073292
vn 0.75914726 0.01555994 -0.65073292
vn 0.18395748 0.01322198 0.98284527
vn 0.18395748 0.01322198 0.98284527
vn 0.18395748 0.01322198 0.98284527
vn 0.18395748 0.01322198 0.98284527
vn -0.75914726 -0.01555994 0.65073292
vn -0.75914726 -0.01555994 0.65073292
vn -0.75914726 -0.01555994 0.65073292
vn -0.75914726 -0.01555994 0.65073292
vn -0.94310708 0.01555994 -0.33212487
vn -0.94310708 0.01555994 -0.33212487
vn -0.94310708 0.01555994 -0.33212487
vn -0.94310708 0.01555994 -0.33212487
vn -0.18395748 -0.01322198 -0.98284527
vn -0.18395748 -0.01322198 -0.98284527
vn -0.18395748 -0.01322198 -0.98284527
s 1
usemtl Oak_Leaves
f 1/1/1 2/2/2 3/3/3
s 2
f 4/6/6 1/5/5 3/4/4
s 3
f 4/7/7 3/8/8 5/9/9
s 4
f 7/13/13 6/10/10 1/11/11
f 1/11/11 4/12/12 7/13/13
s 5
f 6/17/17 8/16/16 1/14/14
f 8/16/16 2/15/15 1/14/14
s 6
f 2/18/18 8/21/21 9/20/20
f 9/20/20 5/19/19 2/18/18
s 7
f 5/24/24 3/23/23 2/22/22
o object2
g object2
v 0.00069972 0.24736455 -0.00903513
v -0.00344466 0.24583479 0.00266573
v -0.00263655 0.23968153 0.00217241
v 0.00894396 0.24735449 0.00058031
v -0.00325232 0.24580801 0.00288387
v -0.00350070 0.24717026 0.00291203
v -0.00350684 0.24717026 0.00290487
vt 0.00000000 0.00000000
vt 0.97694863 0.86322855
vt 1.00000000 1.00000000
vt 0.00000000 1.00000000
vt 0.50000000 0.00000000
vt 1.00000000 1.00000000
vt 0.02290720 0.13591607
vt 0.00000000 0.00000000
vt 1.00000000 1.00000000
vt 0.00000000 0.82165402
vt 0.50108104 0.00000000
vt 1.00000000 0.81810871
vt 0.52192436 1.00000000
vt 0.48947902 0.99999901
vn -0.93435834 -0.09517877 -0.34338826
vn -0.93435834 -0.09517877 -0.34338826
vn -0.93435834 -0.09517877 -0.34338826
vn 0.46696735 -0.78802274 -0.40120028
vn 0.46696735 -0.78802274 -0.40120028
vn 0.46696735 -0.78802274 -0.40120028
vn 0.19622778 -0.09362716 0.97607818
vn 0.19622778 -0.09362716 0.97607818
vn 0.19622778 -0.09362716 0.97607818
vn -0.75063115 -0.15016545 0.64343082
vn -0.75063115 -0.15016545 0.64343082
vn -0.75063115 -0.15016545 0.64343082
vn -0.75063115 -0.15016545 0.64343082
vn -0.75063115 -0.15016545 0.64343082
s 1
usemtl Oak_Leaves
f 12/27/27 11/26/26 10/25/25
s 2
f 13/30/30 12/29/29 10/28/28
s 3
f 14/31/31 12/32/32 13/33/33
s 4
f 15/37/37 16/38/38 11/34/34
f 11/34/34 12/35/35 14/36/36
f 14/36/36 15/37/37 11/34/34
o object3
g object3
v -0.02618123 0.51481258 0.02202302
v -0.05678048 0.70528999 0.05302192
v -0.02951750 0.50712955 0.03323057
v -0.03776174 0.50713961 0.02361513
v 0.00069972 0.24736455 -0.00903513
v -0.00344466 0.24583479 0.00266573
v -0.00350684 0.24717026 0.00290487
v -0.00350070 0.24717026 0.00291203
v -0.00325232 0.24580801 0.00288387
v 0.00894396 0.24735449 0.00058031
vt 1.00000000 0.02775391
vt 0.00000000 1.00000000
vt 0.15804517 0.00000000
vt 1.00000000 0.88322407
vt 0.84277292 1.00000000
vt 0.00000000 0.00000000
vt 0.00000000 0.83146067
vt 0.00000000 0.00000000
vt 1.00000000 1.00000000
vt 0.00000000 0.85104010
vt 0.00000000 0.00000000
vt 1.00000000 1.00000000
vt 0.48849676 0.00010160
vt 0.49973365 0.00521236
vt 0.50047850 0.00521239
vt 0.51145360 0.00000000
vt 1.00000000 1.00000000
vt 0.00000000 1.00000000
vt 1.00000000 0.14904636
vt 1.00000000 1.00000000
vt 0.00000000 0.00000000
vt 0.00000000 0.00000000
vt 1.00000000 0.00000000
vt 0.50000000 1.00000000
vt 1.00000000 0.16853933
vt 1.00000000 1.00000000
vt 0.00000000 0.00000000
vt 0.18752996 1.00000000
vt 0.00000000 0.00000000
vt 1.00000000 0.99160392
vn 0.93462549 0.09433953 0.34289247
vn 0.93462549 0.09433953 0.34289247
vn 0.93462549 0.09433953 0.34289247
vn -0.21480785 0.12316733 -0.96885881
vn -0.21480785 0.12316733 -0.96885881
vn -0.21480785 0.12316733 -0.96885881
vn -0.19622778 0.09362716 -0.97607818
vn -0.93435834 -0.09517877 -0.34338826
vn -0.93435834 -0.09517877 -0.34338826
vn -0.93435834 -0.09517877 -0.34338826
vn -0.75063115 -0.15016545 0.64343082
vn -0.75063115 -0.15016545 0.64343082
vn -0.75063115 -0.15016545 0.64343082
vn -0.75063115 -0.15016545 0.64343082
vn -0.75063115 -0.15016545 0.64343082
vn -0.75063115 -0.15016545 0.64343082
vn 0.19622778 -0.09362716 0.97607818
vn 0.19622778 -0.09362716 0.97607818
vn 0.19622778 -0.09362716 0.97607818
vn 0.75063115 0.15016545 -0.64343082
vn 0.75063115 0.15016545 -0.64343082
vn 0.75063115 0.15016545 -0.64343082
vn 0.93435834 0.09517877 0.34338826
vn -0.74857750 -0.16707480 0.64165234
s 1
usemtl Oak_Leaves
f 17/39/39 18/40/40 19/41/41
f 19/63/41 26/64/61 17/65/39
s 2
f 17/42/42 20/43/43 18/44/44
f 17/47/42 21/46/45 20/45/43
s 3
f 22/50/48 20/49/47 21/48/46
s 4
f 20/56/54 22/51/49 23/52/50
f 19/66/53 18/67/62 20/68/54
f 24/53/51 25/54/52 19/55/53
f 24/53/51 19/55/53 20/56/54
f 20/56/54 23/52/50 24/53/51
s 5
f 26/57/55 19/58/56 25/59/57
s 6
f 17/62/60 26/61/59 21/60/58
o object4
g object4
v -0.01449459 0.44529114 0.03722828
v -0.02299954 0.43882651 0.02020703
v -0.00535899 0.44839518 0.02122232
v -0.03304653 0.44302878 0.03711229
v -0.04246287 0.44387045 0.02099034
v -0.03332727 0.44697448 0.00498437
v -0.01477533 0.44923685 0.00510036
v -0.03825828 0.45621136 -0.00046348
v -0.01217745 0.45939185 -0.00030042
v 0.00106030 0.45820860 0.02236427
v -0.02052283 0.63123352 0.04366109
v -0.03376059 0.63241677 0.02099641
v -0.01178277 0.45384487 0.04486589
v -0.03336591 0.62686979 0.06616272
v -0.03786361 0.45066438 0.04470283
v -0.05944674 0.62368930 0.06599966
v -0.05110136 0.45184762 0.02203814
v -0.07268450 0.62487254 0.04333497
v -0.05984142 0.62923628 0.02083334
v -0.06626521 0.63468597 0.04447692
v -0.05712961 0.63779000 0.02847096
v -0.03857767 0.64005236 0.02858695
v -0.04862465 0.64425464 0.04549221
v -0.02916132 0.63921069 0.04470890
v -0.03829692 0.63610666 0.06071487
v -0.05684886 0.63384430 0.06059888
vt 0.00000000 0.75000000
vt 1.00000000 0.00000000
vt 1.00000000 1.00000000
vt 0.00000000 0.00000000
vt 1.00000000 0.50000000
vt 0.00000000 1.00000000
vt 1.00000000 0.00000000
vt 1.00000000 1.00000000
vt 0.00000000 0.25000000
vt 1.00000000 0.25000000
vt 0.00000000 1.00000000
vt 0.00000000 0.00000000
vt 1.00000000 1.00000000
vt 0.00000000 0.50000000
vt 1.00000000 0.00000000
vt 0.85566243 0.00000000
vt 1.00000000 1.00000000
vt 0.00000000 1.00000000
vt 0.14433757 0.00000000
vt 0.85566460 0.00000000
vt 1.00000000 1.00000000
vt 0.00001500 1.00000000
vt 0.14435040 0.00000000
vt 0.00000000 0.00000000
vt 1.00000000 0.00000000
vt 1.00000000 1.00000000
vt 0.00000000 1.00000000
vt 0.00000000 0.00000000
vt 1.00000000 0.00000000
vt 1.00000000 1.00000000
vt 0.00000000 1.00000000
vt 0.00000000 0.00000000
vt 1.00000000 0.00000000
vt 1.00000000 1.00000000
vt 0.00000000 1.00000000
vt 0.00000000 0.00000000
vt 1.00000000 0.00000000
vt 1.00000000 1.00000000
vt 0.00000000 1.00000000
vt 0.00000000 0.00000000
vt 1.00000000 0.00000000
vt 1.00000000 1.00000000
vt 0.00000000 1.00000000
vt 0.99997500 0.00000000
vt 0.85564321 1.00000000
vt 0.14434679 1.00000000
vt 0.00001500 0.00000000
vt 1.00000000 0.00000000
vt 0.85566243 1.00000000
vt 0.14433757 1.00000000
vt 0.00000000 0.00000000
vt 1.00000000 1.00000000
vt 0.00000000 0.50000000
vt 1.00000000 0.00000000
vt 0.00000000 1.00000000
vt 0.00000000 0.00000000
vt 1.00000000 0.75000000
vt 0.00000000 0.75000000
vt 1.00000000 0.00000000
vt 1.00000000 1.00000000
vt 0.00000000 0.00000000
vt 1.00000000 0.50000000
vt 0.00000000 1.00000000
vt 1.00000000 0.00000000
vt 1.00000000 1.00000000
vt 0.00000000 0.25000000
vt 1.00000000 0.25000000
vt 0.00000000 1.00000000
vt 0.00000000 0.00000000
vt 0.99997500 0.00000000
vt 0.85564104 1.00000000
vt 0.14433396 1.00000000
vt 0.00000000 0.00000000
vt 1.00000000 0.00000000
vt 0.85566243 1.00000000
vt 0.14433757 1.00000000
vt 0.00000000 0.00000000
vt 0.99997500 0.00000000
vt 0.85564321 1.00000000
vt 0.14434679 1.00000000
vt 0.00001500 0.00000000
vt 1.00000000 0.00000000
vt 0.85566460 1.00000000
vt 0.14435040 1.00000000
vt 0.00001500 0.00000000
vt 0.00000000 0.00000000
vt 1.00000000 0.00000000
vt 1.00000000 1.00000000
vt 0.00000000 1.00000000
vt 0.85566460 0.00000000
vt 1.00000000 1.00000000
vt 0.00001500 1.00000000
vt 0.14435040 0.00000000
vt 0.85564104 0.00000000
vt 0.99997500 1.00000000
vt 0.00000000 1.00000000
vt 0.14433396 0.00000000
vt 0.85566243 0.00000000
vt 1.00000000 1.00000000
vt 0.00000000 1.00000000
vt 0.14433757 0.00000000
vt 0.85566460 0.00000000
vt 1.00000000 1.00000000
vt 0.00001500 1.00000000
vt 0.14435040 0.00000000
vt 0.00000000 1.00000000
vt 0.00000000 0.00000000
vt 1.00000000 0.75000000
vn 0.47011835 -0.87712051 0.09822602
vn 0.47011835 -0.87712051 0.09822602
vn 0.47011835 -0.87712051 0.09822602
vn 0.11350717 -0.94630613 0.30268932
vn 0.11350717 -0.94630613 0.30268932
vn 0.11350717 -0.94630613 0.30268932
vn -0.24623987 -0.96469245 0.09345805
vn -0.24623987 -0.96469245 0.09345805
vn -0.24623987 -0.96469245 0.09345805
vn -0.24973057 -0.91398665 -0.31978593
vn -0.24973057 -0.91398665 -0.31978593
vn -0.24973057 -0.91398665 -0.31978593
vn 0.10630577 -0.84485188 -0.52433232
vn 0.10630577 -0.84485188 -0.52433232
vn 0.10630577 -0.84485188 -0.52433232
vn 0.06416326 -0.48133593 -0.87418465
vn 0.06416326 -0.48133593 -0.87418465
vn 0.06416326 -0.48133593 -0.87418465
vn 0.06416326 -0.48133593 -0.87418465
vn 0.76314792 -0.44463097 -0.46894408
vn 0.76314792 -0.44463097 -0.46894408
vn 0.76314792 -0.44463097 -0.46894408
vn 0.76314792 -0.44463097 -0.46894408
vn 0.85513892 0.16707274 -0.49073835
vn 0.85513892 0.16707274 -0.49073835
vn 0.85513892 0.16707274 -0.49073835
vn 0.85513892 0.16707274 -0.49073835
vn 0.86371084 0.04596438 0.50188730
vn 0.86371084 0.04596438 0.50188730
vn 0.86371084 0.04596438 0.50188730
vn 0.86371084 0.04596438 0.50188730
vn 0.00856272 -0.12110667 0.99260257
vn 0.00856272 -0.12110667 0.99260257
vn 0.00856272 -0.12110667 0.99260257
vn 0.00856272 -0.12110667 0.99260257
vn -0.85513892 -0.16707274 0.49073835
vn -0.85513892 -0.16707274 0.49073835
vn -0.85513892 -0.16707274 0.49073835
vn -0.85513892 -0.16707274 0.49073835
vn -0.86371084 -0.04596438 -0.50188730
vn -0.86371084 -0.04596438 -0.50188730
vn -0.86371084 -0.04596438 -0.50188730
vn -0.86371084 -0.04596438 -0.50188730
vn -0.77037550 0.54284418 -0.33442755
vn -0.77037550 0.54284418 -0.33442755
vn -0.77037550 0.54284418 -0.33442755
vn -0.77037550 0.54284418 -0.33442755
vn -0.07806686 0.67765734 -0.73122233
vn -0.07806686 0.67765734 -0.73122233
vn -0.07806686 0.67765734 -0.73122233
vn -0.07806686 0.67765734 -0.73122233
vn -0.11350717 0.94630613 -0.30268932
vn -0.11350717 0.94630613 -0.30268932
vn -0.11350717 0.94630613 -0.30268932
vn 0.24623987 0.96469245 -0.09345805
vn 0.24623987 0.96469245 -0.09345805
vn 0.24623987 0.96469245 -0.09345805
vn 0.24973057 0.91398665 0.31978593
vn 0.24973057 0.91398665 0.31978593
vn 0.24973057 0.91398665 0.31978593
vn -0.10630577 0.84485188 0.52433232
vn -0.10630577 0.84485188 0.52433232
vn -0.10630577 0.84485188 0.52433232
vn -0.46640588 0.82637179 0.31555542
vn -0.46640588 0.82637179 0.31555542
vn -0.46640588 0.82637179 0.31555542
vn -0.47011835 0.87712051 -0.09822602
vn -0.47011835 0.87712051 -0.09822602
vn -0.47011835 0.87712051 -0.09822602
vn -0.76314792 0.44463097 0.46894408
vn -0.76314792 0.44463097 0.46894408
vn -0.76314792 0.44463097 0.46894408
vn -0.76314792 0.44463097 0.46894408
vn -0.06416326 0.48133593 0.87418465
vn -0.06416326 0.48133593 0.87418465
vn -0.06416326 0.48133593 0.87418465
vn -0.06416326 0.48133593 0.87418465
vn 0.62674413 0.61602303 0.47718699
vn 0.62674413 0.61602303 0.47718699
vn 0.62674413 0.61602303 0.47718699
vn 0.62674413 0.61602303 0.47718699
vn 0.62005707 0.71413306 -0.32487412
vn 0.62005707 0.71413306 -0.32487412
vn 0.62005707 0.71413306 -0.32487412
vn 0.62005707 0.71413306 -0.32487412
vn -0.00856272 0.12110667 -0.99260257
vn -0.00856272 0.12110667 -0.99260257
vn -0.00856272 0.12110667 -0.99260257
vn -0.00856272 0.12110667 -0.99260257
vn -0.62674413 -0.61602303 -0.47718699
vn -0.62674413 -0.61602303 -0.47718699
vn -0.62674413 -0.61602303 -0.47718699
vn -0.62674413 -0.61602303 -0.47718699
vn -0.62005707 -0.71413306 0.32487412
vn -0.62005707 -0.71413306 0.32487412
vn -0.62005707 -0.71413306 0.32487412
vn -0.62005707 -0.71413306 0.32487412
vn 0.07806686 -0.67765734 0.73122233
vn 0.07806686 -0.67765734 0.73122233
vn 0.07806686 -0.67765734 0.73122233
vn 0.07806686 -0.67765734 0.73122233
vn 0.77037550 -0.54284418 0.33442755
vn 0.77037550 -0.54284418 0.33442755
vn 0.77037550 -0.54284418 0.33442755
vn 0.77037550 -0.54284418 0.33442755
vn 0.46640588 -0.82637179 -0.31555542
vn 0.46640588 -0.82637179 -0.31555542
vn 0.46640588 -0.82637179 -0.31555542
s 1
usemtl Cattail
f 27/69/63 28/70/64 29/71/65
s 2
f 30/72/66 28/73/67 27/74/68
s 3
f 31/75/69 28/76/70 30/77/71
s 4
f 32/78/72 28/79/73 31/80/74
s 5
f 33/81/75 28/82/76 32/83/77
s 6
f 32/84/78 34/85/79 35/86/80
f 32/84/78 35/86/80 33/87/81
s 7
f 33/88/82 35/89/83 36/90/84
f 33/88/82 36/90/84 29/91/85
s 8
f 35/95/89 38/94/88 37/93/87
f 35/95/89 37/93/87 36/92/86
s 9
f 36/99/93 37/98/92 39/96/90
f 37/98/92 40/97/91 39/96/90
s 10
f 39/103/97 40/102/96 41/100/94
f 40/102/96 42/101/95 41/100/94
s 11
f 41/107/101 42/106/100 43/104/98
f 42/106/100 44/105/99 43/104/98
s 12
f 43/111/105 44/110/104 45/109/103
f 43/111/105 45/109/103 34/108/102
s 13
f 44/112/106 46/113/107 47/114/108
f 44/112/106 47/114/108 45/115/109
s 14
f 45/116/110 47/117/111 48/118/112
f 45/116/110 48/118/112 38/119/113
s 15
f 47/122/116 49/121/115 48/120/114
s 16
f 48/125/119 49/124/118 50/123/117
s 17
f 50/128/122 49/127/121 51/126/120
s 18
f 51/131/125 49/130/124 52/129/123
s 19
f 52/134/128 49/133/127 46/132/126
s 20
f 46/137/131 49/136/130 47/135/129
s 21
f 42/138/132 52/139/133 44/141/135
f 52/139/133 46/140/134 44/141/135
s 22
f 40/142/136 51/143/137 42/145/139
f 51/143/137 52/144/138 42/145/139
s 23
f 37/146/140 50/147/141 40/149/143
f 50/147/141 51/148/142 40/149/143
s 24
f 38/150/144 48/151/145 50/152/146
f 38/150/144 50/152/146 37/153/147
s 25
f 34/157/151 45/156/150 38/155/149
f 34/157/151 38/155/149 35/154/148
s 26
f 31/158/152 43/159/153 34/160/154
f 31/158/152 34/160/154 32/161/155
s 27
f 30/162/156 41/163/157 31/165/159
f 41/163/157 43/164/158 31/165/159
s 28
f 27/166/160 39/167/161 30/169/163
f 39/167/161 41/168/162 30/169/163
s 29
f 29/170/164 36/171/165 27/173/167
f 36/171/165 39/172/166 27/173/167
s 30
f 29/174/168 28/175/169 33/176/170
