mtllib Materials_Modular_Terrain.mtl
o object1
g object1
v -0.08660254 0.40000000 0.05000000
v 0.00000000 0.40000000 0.10000000
v 0.00000000 0.00000000 0.10000000
v -0.08660254 0.00000000 0.05000000
v -0.08660254 0.40000000 -0.05000000
v -0.08660254 0.00000000 -0.05000000
v 0.00000000 0.40000000 -0.10000000
v 0.00000000 0.00000000 -0.10000000
v 0.08660254 0.40000000 -0.05000000
v 0.08660254 0.00000000 -0.05000000
v 0.08660254 0.40000000 0.05000000
v 0.08660254 0.00000000 0.05000000
vt 1.00000000 0.00000000
vt 1.00000000 1.00000000
vt 0.00000000 1.00000000
vt 0.00000000 0.00000000
vt 1.00000000 0.00000000
vt 1.00000000 1.00000000
vt 0.00000000 1.00000000
vt 0.00000000 0.00000000
vt 1.00000000 0.00000000
vt 1.00000000 1.00000000
vt 0.00000000 1.00000000
vt 0.00000000 0.00000000
vt 1.00000000 0.00000000
vt 1.00000000 1.00000000
vt 0.00000000 1.00000000
vt 0.00000000 0.00000000
vt 1.00000000 0.00000000
vt 1.00000000 1.00000000
vt 0.00000000 1.00000000
vt 0.00000000 0.00000000
vt 1.00000000 0.00000000
vt 1.00000000 1.00000000
vt 0.00000000 1.00000000
vt 0.00000000 0.00000000
vn -0.50000000 0.00000000 0.86602540
vn -0.50000000 0.00000000 0.86602540
vn -0.50000000 0.00000000 0.86602540
vn -0.50000000 0.00000000 0.86602540
vn -1.00000000 0.00000000 0.00000000
vn -1.00000000 0.00000000 0.00000000
vn -1.00000000 0.00000000 0.00000000
vn -1.00000000 0.00000000 0.00000000
vn -0.50000000 0.00000000 -0.86602540
vn -0.50000000 0.00000000 -0.86602540
vn -0.50000000 0.00000000 -0.86602540
vn -0.50000000 0.00000000 -0.86602540
vn 0.50000000 0.00000000 -0.86602540
vn 0.50000000 0.00000000 -0.86602540
vn 0.50000000 0.00000000 -0.86602540
vn 0.50000000 0.00000000 -0.86602540
vn 1.00000000 0.00000000 0.00000000
vn 1.00000000 0.00000000 0.00000000
vn 1.00000000 0.00000000 0.00000000
vn 1.00000000 0.00000000 0.00000000
vn 0.50000000 0.00000000 0.86602540
vn 0.50000000 0.00000000 0.86602540
vn 0.50000000 0.00000000 0.86602540
vn 0.50000000 0.00000000 0.86602540
s 1
usemtl Wood_Dark
f 4/4/4 3/3/3 1/1/1
f 3/3/3 2/2/2 1/1/1
s 2
f 6/8/8 4/7/7 5/5/5
f 4/7/7 1/6/6 5/5/5
s 3
f 8/12/12 6/11/11 7/9/9
f 6/11/11 5/10/10 7/9/9
s 4
f 10/16/16 8/15/15 9/13/13
f 8/15/15 7/14/14 9/13/13
s 5
f 12/20/20 10/19/19 11/17/17
f 10/19/19 9/18/18 11/17/17
s 6
f 3/24/24 12/23/23 2/21/21
f 12/23/23 11/22/22 2/21/21
o object2
g object2
v 0.00000000 0.30000000 -0.20000000
v 0.17320508 0.30000000 -0.10000000
v 0.38971143 0.55000000 -0.22500000
v 0.00000000 0.55000000 -0.45000000
v 0.43301270 1.05000000 -0.25000000
v 0.00000000 1.05000000 -0.50000000
v -0.43301270 1.05000000 -0.25000000
v -0.38971143 0.55000000 -0.22500000
v -0.43301270 1.05000000 0.25000000
v -0.38971143 0.55000000 0.22500000
v 0.00000000 1.05000000 0.50000000
v 0.00000000 0.55000000 0.45000000
v 0.43301270 1.05000000 0.25000000
v 0.38971143 0.55000000 0.22500000
v 0.17320508 0.30000000 0.10000000
v 0.00000000 0.30000000 0.20000000
v 0.21650635 2.05000000 0.12500000
v 0.00000000 2.05000000 0.25000000
v 0.00000000 2.30000000 0.00000000
v 0.21650635 2.05000000 -0.12500000
v 0.00000000 2.05000000 -0.25000000
v -0.21650635 2.05000000 -0.12500000
v -0.21650635 2.05000000 0.12500000
v -0.17320508 0.30000000 0.10000000
v -0.17320508 0.30000000 -0.10000000
v 0.00000000 0.30000000 0.00000000
vt 0.28571429 1.00000000
vt 0.00000000 0.67567568
vt 0.35714286 0.00000000
vt 1.00000000 0.72972973
vt 0.00000000 0.88260870
vt 0.09090909 0.00000000
vt 1.00000000 0.13043478
vt 0.81818182 1.00000000
vt 0.00000000 0.88260870
vt 0.09090909 0.00000000
vt 1.00000000 0.13043478
vt 0.81818182 1.00000000
vt 0.00000000 0.88260870
vt 0.09090909 0.00000000
vt 1.00000000 0.13043478
vt 0.81818182 1.00000000
vt 0.00000000 0.88260870
vt 0.09090909 0.00000000
vt 1.00000000 0.13043478
vt 0.81818182 1.00000000
vt 0.00000000 0.88260870
vt 0.09090909 0.00000000
vt 1.00000000 0.13043478
vt 0.81818182 1.00000000
vt 0.28571429 1.00000000
vt 0.00000000 0.67567568
vt 0.35714286 0.00000000
vt 1.00000000 0.72972973
vt 0.33333333 0.00000000
vt 1.00000000 0.84210526
vt 0.33333333 1.00000000
vt 0.00000000 0.07894737
vt 1.00000000 0.40000000
vt 0.50000000 1.00000000
vt 0.00000000 0.00000000
vt 1.00000000 0.40000000
vt 0.50000000 1.00000000
vt 0.00000000 0.00000000
vt 1.00000000 0.40000000
vt 0.50000000 1.00000000
vt 0.00000000 0.00000000
vt 1.00000000 0.40000000
vt 0.50000000 1.00000000
vt 0.00000000 0.00000000
vt 1.00000000 0.40000000
vt 0.50000000 1.00000000
vt 0.00000000 0.00000000
vt 1.00000000 0.40000000
vt 0.50000000 1.00000000
vt 0.00000000 0.00000000
vt 0.33333333 0.00000000
vt 1.00000000 0.84210526
vt 0.33333333 1.00000000
vt 0.00000000 0.07894737
vt 0.28571429 1.00000000
vt 0.00000000 0.67567568
vt 0.35714286 0.00000000
vt 1.00000000 0.72972973
vt 0.33333333 0.00000000
vt 1.00000000 0.84210526
vt 0.33333333 1.00000000
vt 0.00000000 0.07894737
vt 0.28571429 1.00000000
vt 0.00000000 0.67567568
vt 0.35714286 0.00000000
vt 1.00000000 0.72972973
vt 0.33333333 0.00000000
vt 1.00000000 0.84210526
vt 0.33333333 1.00000000
vt 0.00000000 0.07894737
vt 0.33333333 0.00000000
vt 1.00000000 0.84210526
vt 0.33333333 1.00000000
vt 0.00000000 0.07894737
vt 0.00000000 0.88260870
vt 0.09090909 0.00000000
vt 1.00000000 0.13043478
vt 0.81818182 1.00000000
vt 0.33333333 0.00000000
vt 1.00000000 0.84210526
vt 0.33333333 1.00000000
vt 0.00000000 0.07894737
vt 0.28571429 1.00000000
vt 0.00000000 0.67567568
vt 0.35714286 0.00000000
vt 1.00000000 0.72972973
vt 0.75000000 1.00000000
vt 0.25000000 1.00000000
vt 0.00000000 0.50000000
vt 0.25000000 0.00000000
vt 0.75000000 0.00000000
vt 1.00000000 0.50000000
vt 0.50000000 0.50000000
vt 0.28571429 1.00000000
vt 0.00000000 0.67567568
vt 0.35714286 0.00000000
vt 1.00000000 0.72972973
vn 0.37796447 -0.65465367 -0.65465367
vn 0.37796447 -0.65465367 -0.65465367
vn 0.37796447 -0.65465367 -0.65465367
vn 0.37796447 -0.65465367 -0.65465367
vn 0.49813548 -0.08627960 -0.86279596
vn 0.49813548 -0.08627960 -0.86279596
vn 0.49813548 -0.08627960 -0.86279596
vn 0.49813548 -0.08627960 -0.86279596
vn -0.49813548 -0.08627960 -0.86279596
vn -0.49813548 -0.08627960 -0.86279596
vn -0.49813548 -0.08627960 -0.86279596
vn -0.49813548 -0.08627960 -0.86279596
vn -0.99627096 -0.08627960 0.00000000
vn -0.99627096 -0.08627960 0.00000000
vn -0.99627096 -0.08627960 0.00000000
vn -0.99627096 -0.08627960 0.00000000
vn -0.49813548 -0.08627960 0.86279596
vn -0.49813548 -0.08627960 0.86279596
vn -0.49813548 -0.08627960 0.86279596
vn -0.49813548 -0.08627960 0.86279596
vn 0.49813548 -0.08627960 0.86279596
vn 0.49813548 -0.08627960 0.86279596
vn 0.49813548 -0.08627960 0.86279596
vn 0.49813548 -0.08627960 0.86279596
vn 0.37796447 -0.65465367 0.65465367
vn 0.37796447 -0.65465367 0.65465367
vn 0.37796447 -0.65465367 0.65465367
vn 0.37796447 -0.65465367 0.65465367
vn 0.48867778 0.21160368 0.84641474
vn 0.48867778 0.21160368 0.84641474
vn 0.48867778 0.21160368 0.84641474
vn 0.48867778 0.21160368 0.84641474
vn 0.37796447 0.65465367 0.65465367
vn 0.37796447 0.65465367 0.65465367
vn 0.37796447 0.65465367 0.65465367
vn 0.75592895 0.65465367 0.00000000
vn 0.75592895 0.65465367 0.00000000
vn 0.75592895 0.65465367 0.00000000
vn 0.37796447 0.65465367 -0.65465367
vn 0.37796447 0.65465367 -0.65465367
vn 0.37796447 0.65465367 -0.65465367
vn -0.37796447 0.65465367 -0.65465367
vn -0.37796447 0.65465367 -0.65465367
vn -0.37796447 0.65465367 -0.65465367
vn -0.75592895 0.65465367 0.00000000
vn -0.75592895 0.65465367 0.00000000
vn -0.75592895 0.65465367 0.00000000
vn -0.37796447 0.65465367 0.65465367
vn -0.37796447 0.65465367 0.65465367
vn -0.37796447 0.65465367 0.65465367
vn 0.97735555 0.21160368 0.00000000
vn 0.97735555 0.21160368 0.00000000
vn 0.97735555 0.21160368 0.00000000
vn 0.97735555 0.21160368 0.00000000
vn -0.37796447 -0.65465367 0.65465367
vn -0.37796447 -0.65465367 0.65465367
vn -0.37796447 -0.65465367 0.65465367
vn -0.37796447 -0.65465367 0.65465367
vn -0.48867778 0.21160368 0.84641474
vn -0.48867778 0.21160368 0.84641474
vn -0.48867778 0.21160368 0.84641474
vn -0.48867778 0.21160368 0.84641474
vn -0.75592895 -0.65465367 0.00000000
vn -0.75592895 -0.65465367 0.00000000
vn -0.75592895 -0.65465367 0.00000000
vn -0.75592895 -0.65465367 0.00000000
vn -0.97735555 0.21160368 0.00000000
vn -0.97735555 0.21160368 0.00000000
vn -0.97735555 0.21160368 0.00000000
vn -0.97735555 0.21160368 0.00000000
vn -0.48867778 0.21160368 -0.84641474
vn -0.48867778 0.21160368 -0.84641474
vn -0.48867778 0.21160368 -0.84641474
vn -0.48867778 0.21160368 -0.84641474
vn 0.99627096 -0.08627960 0.00000000
vn 0.99627096 -0.08627960 0.00000000
vn 0.99627096 -0.08627960 0.00000000
vn 0.99627096 -0.08627960 0.00000000
vn 0.48867778 0.21160368 -0.84641474
vn 0.48867778 0.21160368 -0.84641474
vn 0.48867778 0.21160368 -0.84641474
vn 0.48867778 0.21160368 -0.84641474
vn -0.37796447 -0.65465367 -0.65465367
vn -0.37796447 -0.65465367 -0.65465367
vn -0.37796447 -0.65465367 -0.65465367
vn -0.37796447 -0.65465367 -0.65465367
vn 0.00000000 -1.00000000 0.00000000
vn 0.00000000 -1.00000000 0.00000000
vn 0.00000000 -1.00000000 0.00000000
vn 0.00000000 -1.00000000 0.00000000
vn 0.00000000 -1.00000000 0.00000000
vn 0.00000000 -1.00000000 0.00000000
vn 0.00000000 -1.00000000 0.00000000
vn 0.75592895 -0.65465367 0.00000000
vn 0.75592895 -0.65465367 0.00000000
vn 0.75592895 -0.65465367 0.00000000
vn 0.75592895 -0.65465367 0.00000000
s 1
usemtl Cedar_Leaves
f 14/26/26 13/25/25 16/28/28
f 16/28/28 15/27/27 14/26/26
s 2
f 17/30/30 15/29/29 16/32/32
f 16/32/32 18/31/31 17/30/30
s 3
f 18/34/34 16/33/33 20/36/36
f 20/36/36 19/35/35 18/34/34
s 4
f 19/38/38 20/37/37 22/40/40
f 22/40/40 21/39/39 19/38/38
s 5
f 21/42/42 22/41/41 24/44/44
f 24/44/44 23/43/43 21/42/42
s 6
f 23/46/46 24/45/45 26/48/48
f 26/48/48 25/47/47 23/46/46
s 7
f 24/51/51 28/50/50 27/49/49
f 26/52/52 24/51/51 27/49/49
s 8
f 25/54/54 29/53/53 30/56/56
f 30/56/56 23/55/55 25/54/54
s 9
f 31/59/59 30/58/58 29/57/57
s 10
f 31/62/62 29/61/61 32/60/60
s 11
f 31/65/65 32/64/64 33/63/63
s 12
f 31/68/68 33/67/67 34/66/66
s 13
f 31/71/71 34/70/70 35/69/69
s 14
f 31/74/74 35/73/73 30/72/72
s 15
f 17/76/76 32/75/75 29/78/78
f 29/78/78 25/77/77 17/76/76
s 16
f 36/80/80 28/79/79 24/82/82
f 24/82/82 22/81/81 36/80/80
s 17
f 23/84/84 30/83/83 35/86/86
f 35/86/86 21/85/85 23/84/84
s 18
f 20/89/89 37/88/88 36/87/87
f 22/90/90 20/89/89 36/87/87
s 19
f 35/91/91 34/94/94 19/93/93
f 19/93/93 21/92/92 35/91/91
s 20
f 19/96/96 34/95/95 33/98/98
f 33/98/98 18/97/97 19/96/96
s 21
f 25/100/100 26/99/99 15/102/102
f 15/102/102 17/101/101 25/100/100
s 22
f 33/103/103 32/106/106 17/105/105
f 17/105/105 18/104/104 33/103/103
s 23
f 16/109/109 13/108/108 37/107/107
f 20/110/110 16/109/109 37/107/107
s 24
f 14/111/111 27/112/112 38/117/117
f 37/115/115 13/116/116 38/117/117
f 36/114/114 37/115/115 38/117/117
f 28/113/113 36/114/114 38/117/117
f 27/112/112 28/113/113 38/117/117
f 13/116/116 14/111/111 38/117/117
s 25
f 27/119/119 14/118/118 15/121/121
f 15/121/121 26/120/120 27/119/119
