mtllib Materials_Modular_Terrain.mtl
o object1
g object1
v -0.27673669 0.00000000 -0.36933500
v 0.02512627 0.00000000 -0.02512627
v -0.08093975 0.05000000 0.08093975
v -0.39573969 0.05000000 -0.27802078
v -0.15165043 0.15000000 0.15165043
v -0.47507503 0.15000000 -0.21714464
v -0.25771645 0.20000000 0.25771645
v -0.59407803 0.20000000 -0.12583043
v -0.87749907 0.20000000 -0.55000000
v -1.10313018 0.20000000 -1.00753461
v -1.26711072 0.20000000 -1.49060572
v -1.36663496 0.20000000 -1.99094785
v -1.40000000 0.20000000 -2.50000000
v -1.50000000 0.20000000 -2.50000000
v -1.50000000 0.20000000 0.50000000
v -0.50000000 0.20000000 0.50000000
v -0.50000000 0.20000000 1.50000000
v 2.50000000 0.20000000 1.50000000
v 2.50000000 0.20000000 1.40000000
v 1.99094785 0.20000000 1.36663496
v 1.49060572 0.20000000 1.26711072
v 1.00753461 0.20000000 1.10313018
v 0.55000000 0.20000000 0.87749907
v 0.12583043 0.20000000 0.59407803
v 0.21714464 0.15000000 0.47507503
v 0.62500000 0.15000000 0.74759526
v 0.27802078 0.05000000 0.39573969
v 0.67500000 0.05000000 0.66099272
v 0.36933500 0.00000000 0.27673669
v 0.75000000 0.00000000 0.53108891
v 1.16060799 0.00000000 0.73357836
v 1.10320547 0.05000000 0.87216029
v 1.59413334 0.00000000 0.88074039
v 1.55531049 0.05000000 1.02562927
v 1.52942858 0.15000000 1.12222185
v 1.06493713 0.15000000 0.96454825
v 2.02357940 0.05000000 1.11877374
v 2.01052678 0.15000000 1.21791823
v 2.50000000 0.05000000 1.15000000
v 2.50000000 0.15000000 1.25000000
v 2.04315833 0.00000000 0.97005701
v 2.50000000 0.00000000 1.00000000
v -1.25000000 0.15000000 -2.50000000
v -1.21791823 0.15000000 -2.01052678
v -1.15000000 0.05000000 -2.50000000
v -1.11877374 0.05000000 -2.02357940
v -1.00000000 0.00000000 -2.50000000
v -0.97005701 0.00000000 -2.04315833
v -0.88074039 0.00000000 -1.59413334
v -1.02562927 0.05000000 -1.55531049
v -0.73357836 0.00000000 -1.16060799
v -0.87216029 0.05000000 -1.10320547
v -0.96454825 0.15000000 -1.06493713
v -1.12222185 0.15000000 -1.52942858
v -0.66099272 0.05000000 -0.67500000
v -0.74759526 0.15000000 -0.62500000
v -0.53108891 0.00000000 -0.75000000
vt 0.00000000 0.00000000
vt 1.00000000 0.00000000
vt 1.00000000 1.00000000
vt 0.00000000 1.00000000
vt 0.00000000 0.00000000
vt 1.00000000 0.00000000
vt 1.00000000 1.00000000
vt 0.00000000 1.00000000
vt 0.00000000 0.00000000
vt 1.00000000 0.00000000
vt 1.00000000 1.00000000
vt 0.00000000 1.00000000
vt 0.40645761 0.77351951
vt 0.51250000 0.84437477
vt 0.62688365 0.90078254
vt 0.74765143 0.94177768
vt 0.87273696 0.96665874
vt 1.00000000 0.97500000
vt 1.00000000 1.00000000
vt 0.25000000 1.00000000
vt 0.25000000 0.75000000
vt 0.00000000 0.75000000
vt 0.00000000 0.00000000
vt 0.02500000 0.00000000
vt 0.03334126 0.12726304
vt 0.05822232 0.25234857
vt 0.09921746 0.37311635
vt 0.15562523 0.48750000
vt 0.22648049 0.59354239
vt 0.31057089 0.68942911
vt 0.00000000 0.00000000
vt 1.00000000 0.00000000
vt 1.00000000 1.00000000
vt 0.00000000 1.00000000
vt 0.00000000 0.00000000
vt 1.00000000 0.00000000
vt 1.00000000 1.00000000
vt 0.00000000 1.00000000
vt 0.00000000 0.00000000
vt 1.00000000 0.00000000
vt 1.00000000 1.00000000
vt 0.00000000 1.00000000
vt 0.00000000 0.00000000
vt 1.00000000 0.00000000
vt 1.00000000 1.00000000
vt 0.00000000 1.00000000
vt 0.00000000 0.00000000
vt 1.00000000 0.00000000
vt 1.00000000 1.00000000
vt 0.00000000 1.00000000
vt 0.00000000 0.00000000
vt 1.00000000 0.00000000
vt 1.00000000 1.00000000
vt 0.00000000 1.00000000
vt 0.00000000 0.00000000
vt 1.00000000 0.00000000
vt 1.00000000 1.00000000
vt 0.00000000 1.00000000
vt 0.00000000 0.00000000
vt 1.00000000 0.00000000
vt 1.00000000 1.00000000
vt 0.00000000 1.00000000
vt 0.00000000 0.00000000
vt 1.00000000 0.00000000
vt 1.00000000 1.00000000
vt 0.00000000 1.00000000
vt 0.00000000 0.00000000
vt 1.00000000 0.00000000
vt 1.00000000 1.00000000
vt 0.00000000 1.00000000
vt 0.00000000 0.00000000
vt 1.00000000 0.00000000
vt 1.00000000 1.00000000
vt 0.00000000 1.00000000
vt 0.00000000 0.00000000
vt 1.00000000 0.00000000
vt 1.00000000 1.00000000
vt 0.00000000 1.00000000
vt 0.00000000 0.00000000
vt 1.00000000 0.00000000
vt 1.00000000 1.00000000
vt 0.00000000 1.00000000
vt 0.00000000 0.00000000
vt 1.00000000 0.00000000
vt 1.00000000 1.00000000
vt 0.00000000 1.00000000
vt 0.00000000 0.00000000
vt 1.00000000 0.00000000
vt 1.00000000 1.00000000
vt 0.00000000 1.00000000
vt 1.00000000 1.00000000
vt 0.00000000 1.00000000
vt 0.00000000 0.00000000
vt 1.00000000 0.00000000
vt 1.00000000 1.00000000
vt 0.00000000 1.00000000
vt 0.00000000 0.00000000
vt 1.00000000 0.00000000
vt 1.00000000 1.00000000
vt 0.00000000 1.00000000
vt 0.00000000 0.00000000
vt 1.00000000 0.00000000
vt 0.00000000 0.00000000
vt 1.00000000 0.00000000
vt 1.00000000 1.00000000
vt 0.00000000 1.00000000
vt 0.00000000 0.00000000
vt 1.00000000 0.00000000
vt 1.00000000 1.00000000
vt 0.00000000 1.00000000
vt 0.00000000 0.00000000
vt 1.00000000 0.00000000
vt 1.00000000 1.00000000
vt 0.00000000 1.00000000
vt 0.00000000 0.00000000
vt 1.00000000 0.00000000
vt 1.00000000 1.00000000
vt 0.00000000 1.00000000
vt 0.00000000 0.00000000
vt 1.00000000 0.00000000
vt 1.00000000 1.00000000
vt 0.00000000 1.00000000
vt 0.00000000 0.00000000
vt 1.00000000 0.00000000
vt 1.00000000 1.00000000
vt 0.00000000 1.00000000
vt 0.00000000 0.00000000
vt 1.00000000 0.00000000
vt 1.00000000 1.00000000
vt 0.00000000 1.00000000
vt 0.00000000 0.00000000
vt 1.00000000 0.00000000
vt 1.00000000 1.00000000
vt 0.00000000 1.00000000
vt 0.00000000 0.00000000
vt 1.00000000 0.00000000
vt 1.00000000 1.00000000
vt 0.00000000 1.00000000
vt 0.00000000 0.00000000
vt 1.00000000 0.00000000
vt 1.00000000 1.00000000
vt 0.00000000 1.00000000
vt 0.00000000 0.00000000
vt 1.00000000 0.00000000
vt 1.00000000 1.00000000
vt 0.00000000 1.00000000
vt 0.00000000 0.00000000
vt 1.00000000 0.00000000
vt 1.00000000 1.00000000
vt 0.00000000 1.00000000
vt 0.00000000 0.00000000
vt 1.00000000 0.00000000
vt 1.00000000 1.00000000
vt 0.00000000 1.00000000
vt 0.00000000 0.00000000
vt 1.00000000 0.00000000
vt 1.00000000 1.00000000
vt 0.00000000 1.00000000
vt 0.00000000 0.00000000
vt 1.00000000 0.00000000
vt 1.00000000 1.00000000
vt 0.00000000 1.00000000
vn 0.23821160 0.94847959 -0.20890597
vn 0.23821160 0.94847959 -0.20890597
vn 0.23821160 0.94847959 -0.20890597
vn 0.23821160 0.94847959 -0.20890597
vn 0.53220046 0.70634858 -0.46672728
vn 0.53220046 0.70634858 -0.46672728
vn 0.53220046 0.70634858 -0.46672728
vn 0.53220046 0.70634858 -0.46672728
vn 0.23821160 0.94847959 -0.20890597
vn 0.23821160 0.94847959 -0.20890597
vn 0.23821160 0.94847959 -0.20890597
vn 0.23821160 0.94847959 -0.20890597
vn -0.00000000 1.00000000 0.00000000
vn -0.00000000 1.00000000 0.00000000
vn -0.00000000 1.00000000 0.00000000
vn -0.00000000 1.00000000 0.00000000
vn -0.00000000 1.00000000 0.00000000
vn -0.00000000 1.00000000 0.00000000
vn -0.00000000 1.00000000 0.00000000
vn -0.00000000 1.00000000 0.00000000
vn -0.00000000 1.00000000 0.00000000
vn -0.00000000 1.00000000 0.00000000
vn -0.00000000 1.00000000 0.00000000
vn -0.00000000 1.00000000 0.00000000
vn -0.00000000 1.00000000 0.00000000
vn -0.00000000 1.00000000 0.00000000
vn -0.00000000 1.00000000 0.00000000
vn -0.00000000 1.00000000 0.00000000
vn -0.00000000 1.00000000 0.00000000
vn -0.00000000 1.00000000 0.00000000
vn 0.17602589 0.94847959 -0.26344137
vn 0.17602589 0.94847959 -0.26344137
vn 0.17602589 0.94847959 -0.26344137
vn 0.17602589 0.94847959 -0.26344137
vn 0.39326826 0.70634858 -0.58856755
vn 0.39326826 0.70634858 -0.58856755
vn 0.39326826 0.70634858 -0.58856755
vn 0.39326826 0.70634858 -0.58856755
vn 0.17602589 0.94847959 -0.26344137
vn 0.17602589 0.94847959 -0.26344137
vn 0.17602589 0.94847959 -0.26344137
vn 0.17602589 0.94847959 -0.26344137
vn 0.14013397 0.94847959 -0.28416358
vn 0.14013397 0.94847959 -0.28416358
vn 0.10184431 0.94847959 -0.30002367
vn 0.10184431 0.94847959 -0.30002367
vn 0.22753548 0.70634858 -0.67029791
vn 0.22753548 0.70634858 -0.67029791
vn 0.22753548 0.70634858 -0.67029791
vn 0.22753548 0.70634858 -0.67029791
vn 0.13809745 0.70634858 -0.69426276
vn 0.13809745 0.70634858 -0.69426276
vn 0.13809745 0.70634858 -0.69426276
vn 0.13809745 0.70634858 -0.69426276
vn 0.04629653 0.70634858 -0.70634858
vn 0.04629653 0.70634858 -0.70634858
vn 0.04629653 0.70634858 -0.70634858
vn 0.04629653 0.70634858 -0.70634858
vn 0.02072221 0.94847959 -0.31615986
vn 0.02072221 0.94847959 -0.31615986
vn 0.02072221 0.94847959 -0.31615986
vn 0.02072221 0.94847959 -0.31615986
vn 0.31308032 0.70634858 -0.63486408
vn 0.31308032 0.70634858 -0.63486408
vn 0.31308032 0.70634858 -0.63486408
vn 0.31308032 0.70634858 -0.63486408
vn 0.14013397 0.94847959 -0.28416358
vn 0.14013397 0.94847959 -0.28416358
vn 0.10184431 0.94847959 -0.30002367
vn 0.10184431 0.94847959 -0.30002367
vn 0.06181207 0.94847959 -0.31075028
vn 0.06181207 0.94847959 -0.31075028
vn 0.02072221 0.94847959 -0.31615986
vn 0.02072221 0.94847959 -0.31615986
vn 0.31615986 0.94847959 -0.02072221
vn 0.31615986 0.94847959 -0.02072221
vn 0.31615986 0.94847959 -0.02072221
vn 0.31615986 0.94847959 -0.02072221
vn 0.70634858 0.70634858 -0.04629653
vn 0.70634858 0.70634858 -0.04629653
vn 0.70634858 0.70634858 -0.04629653
vn 0.70634858 0.70634858 -0.04629653
vn 0.31615986 0.94847959 -0.02072221
vn 0.31615986 0.94847959 -0.02072221
vn 0.31615986 0.94847959 -0.02072221
vn 0.31615986 0.94847959 -0.02072221
vn 0.31075028 0.94847959 -0.06181207
vn 0.31075028 0.94847959 -0.06181207
vn 0.30002367 0.94847959 -0.10184431
vn 0.30002367 0.94847959 -0.10184431
vn 0.67029791 0.70634858 -0.22753548
vn 0.67029791 0.70634858 -0.22753548
vn 0.67029791 0.70634858 -0.22753548
vn 0.67029791 0.70634858 -0.22753548
vn 0.63486408 0.70634858 -0.31308032
vn 0.63486408 0.70634858 -0.31308032
vn 0.63486408 0.70634858 -0.31308032
vn 0.63486408 0.70634858 -0.31308032
vn 0.28416358 0.94847959 -0.14013397
vn 0.28416358 0.94847959 -0.14013397
vn 0.69426276 0.70634858 -0.13809745
vn 0.69426276 0.70634858 -0.13809745
vn 0.69426276 0.70634858 -0.13809745
vn 0.69426276 0.70634858 -0.13809745
vn 0.31075028 0.94847959 -0.06181207
vn 0.31075028 0.94847959 -0.06181207
vn 0.30002367 0.94847959 -0.10184431
vn 0.30002367 0.94847959 -0.10184431
vn 0.28416358 0.94847959 -0.14013397
vn 0.28416358 0.94847959 -0.14013397
vn 0.58856755 0.70634858 -0.39326826
vn 0.58856755 0.70634858 -0.39326826
vn 0.58856755 0.70634858 -0.39326826
vn 0.58856755 0.70634858 -0.39326826
vn 0.46672728 0.70634858 -0.53220046
vn 0.46672728 0.70634858 -0.53220046
vn 0.46672728 0.70634858 -0.53220046
vn 0.46672728 0.70634858 -0.53220046
s 1
usemtl Dirt
f 4/4/4 3/3/3 2/2/2
f 3/162/3 29/160/39 2/159/2
f 27/42/42 30/40/40 29/39/39
f 28/46/41 31/44/43 30/43/40
f 32/50/44 33/48/45 31/47/43
f 34/70/46 41/68/59 33/67/45
f 37/66/62 42/64/60 41/63/59
f 37/66/62 39/65/61 42/64/60
f 34/70/46 37/69/62 41/68/59
f 32/50/44 34/49/46 33/48/45
f 28/46/41 32/45/44 31/44/43
f 27/42/42 28/41/41 30/40/40
f 3/162/3 27/161/42 29/160/39
f 55/158/100 4/157/4 1/156/1
f 55/158/100 1/156/1 57/155/99
f 52/122/90 57/120/99 51/119/89
f 50/110/88 51/108/89 49/107/87
f 46/106/83 49/104/87 48/103/86
f 47/101/85 45/100/84 46/99/83
f 48/102/86 47/101/85 46/99/83
f 46/106/83 50/105/88 49/104/87
f 50/110/88 52/109/90 51/108/89
f 52/122/90 55/121/100 57/120/99
f 4/4/4 2/2/2 1/1/1
s 2
usemtl Grass
f 6/8/8 5/7/7 3/6/6
f 6/8/8 3/6/6 4/5/5
s 3
f 8/12/12 7/11/11 5/10/10
f 7/146/11 25/144/31 5/143/10
f 24/34/34 26/32/32 25/31/31
f 23/78/33 36/76/67 26/75/32
f 22/82/68 35/80/69 36/79/67
f 21/86/70 38/84/71 35/83/69
f 20/90/72 40/88/73 38/87/71
f 20/90/72 19/89/74 40/88/73
f 21/86/70 20/85/72 38/84/71
f 22/82/68 21/81/70 35/80/69
f 23/78/33 22/77/68 36/76/67
f 24/34/34 23/33/33 26/32/32
f 7/146/11 24/145/34 25/144/31
f 9/142/110 8/141/12 6/140/9
f 9/142/110 6/140/9 56/139/109
f 10/138/108 56/136/109 53/135/107
f 11/134/106 53/132/107 54/131/105
f 12/130/75 54/128/105 44/127/78
f 43/93/77 13/92/76 12/91/75
f 44/94/78 43/93/77 12/91/75
f 12/130/75 11/129/106 54/128/105
f 11/134/106 10/133/108 53/132/107
f 10/138/108 9/137/110 56/136/109
f 8/12/12 5/10/10 6/9/9
s 4
f 12/17/17 13/18/18 14/19/19
f 11/16/16 14/19/19 15/20/20
f 15/20/20 9/14/14 10/15/15
f 16/21/21 8/13/13 9/14/14
f 16/21/21 7/30/30 8/13/13
f 16/21/21 24/29/29 7/30/30
f 17/22/22 23/28/28 24/29/29
f 17/22/22 22/27/27 23/28/28
f 17/22/22 21/26/26 22/27/27
f 18/23/23 20/25/25 21/26/26
f 18/23/23 19/24/24 20/25/25
f 17/22/22 18/23/23 21/26/26
f 16/21/21 17/22/22 24/29/29
f 15/20/20 16/21/21 9/14/14
f 15/20/20 10/15/15 11/16/16
f 11/16/16 12/17/17 14/19/19
s 5
f 25/38/38 26/37/37 28/36/36
f 25/38/38 28/36/36 27/35/35
s 6
f 36/54/50 35/53/49 34/52/48
f 36/54/50 34/52/48 32/51/47
s 7
f 35/58/54 38/57/53 37/56/52
f 35/58/54 37/56/52 34/55/51
s 8
f 38/62/58 40/61/57 39/60/56
f 38/62/58 39/60/56 37/59/55
s 9
f 26/74/66 36/73/65 32/72/64
f 26/74/66 32/72/64 28/71/63
s 10
f 46/98/82 45/97/81 44/95/79
f 45/97/81 43/96/80 44/95/79
s 11
f 54/114/94 53/113/93 52/112/92
f 54/114/94 52/112/92 50/111/91
s 12
f 53/118/98 56/117/97 55/116/96
f 53/118/98 55/116/96 52/115/95
s 13
f 44/126/104 54/125/103 50/124/102
f 44/126/104 50/124/102 46/123/101
s 14
f 56/150/114 6/149/113 4/148/112
f 56/150/114 4/148/112 55/147/111
s 15
f 5/154/118 25/153/117 27/152/116
f 5/154/118 27/152/116 3/151/115
