mtllib Materials_Modular_Terrain.mtl
o Pillar1
g Pillar1
v -0.25000000 1.11987685 -0.25000000
v -0.01412354 1.17658285 -0.25000000
v -0.25000000 1.22216330 -0.04079356
v 0.25000000 1.40081704 -0.25000000
v 0.25000000 1.05000000 -0.25000000
v 0.20000000 0.90000000 -0.25000000
v 0.25000000 0.75000000 -0.25000000
v 0.25000000 0.55000000 -0.25000000
v -0.25000000 0.55000000 -0.25000000
v 0.09524968 1.35714981 -0.25000000
v 0.22830164 1.43698098 -0.25000000
v -0.00000000 0.55000000 -0.25000000
v 0.25000000 0.90000000 -0.20000000
v -0.25000000 0.55000000 0.25000000
v -0.00000000 0.55000000 0.25000000
v -0.00000000 0.55000000 0.35000000
v -0.30136442 0.55000000 0.35000000
v -0.35000000 0.55000000 0.27345450
v -0.35000000 0.55000000 -0.24052343
v -0.24556413 0.55000000 -0.35000000
v -0.00000000 0.55000000 -0.35000000
v 0.25000000 0.55000000 0.25000000
v 0.29207932 0.55000000 -0.35000000
v 0.35000000 0.55000000 -0.11573506
v 0.35000000 0.55000000 0.22907466
v 0.24475050 0.55000000 0.35000000
v 0.15000000 1.10000000 0.25000000
v 0.25000000 0.75000000 0.25000000
v -0.25000000 1.19040883 0.25000000
v -0.22621474 1.27911227 0.25000000
v -0.19510672 1.30018687 0.25000000
v -0.18278741 1.39122774 0.25000000
v -0.02889015 1.49107729 0.25000000
v 0.00276265 1.61165759 0.25000000
v 0.05507136 1.64304282 0.25000000
v 0.21393826 1.60764248 0.25000000
v 0.25000000 1.56065472 0.25000000
v 0.25000000 1.30000000 0.25000000
v 0.25000000 1.15000000 0.15000000
v 0.25000000 1.61284832 0.21169354
v 0.20688802 1.65392963 0.12064004
v 0.25000000 1.63451208 0.14902215
v 0.20605910 1.60884972 0.04873268
v 0.25000000 1.58447867 0.07046967
v 0.25000000 1.46711639 0.04873317
v 0.12172351 1.51639439 -0.01877374
v 0.25000000 1.51190442 -0.15015416
v -0.00816922 1.58368295 0.21545884
v -0.02889015 1.51543637 0.18844966
v 0.01920057 1.50779281 0.06656849
v -0.18991550 1.42510951 0.15270202
v -0.22638525 1.30778180 -0.01836621
v 0.35000000 0.48713814 -0.35000000
v -0.35000000 0.44034593 -0.35000000
v 0.35000000 0.25216621 -0.35000000
v 0.19354028 0.15000000 -0.35000000
v -0.23676914 0.15000000 -0.35000000
v -0.35000000 0.37946938 -0.35000000
v 0.35000000 0.15000000 -0.22390026
v -0.35000000 0.15000000 -0.19816846
v -0.35000000 0.15000000 0.26565855
v -0.35000000 0.29656646 0.35000000
v -0.35000000 0.48392293 0.35000000
v -0.27717460 0.15000000 0.35000000
v 0.35000000 0.50733669 0.35000000
v 0.35000000 0.20303492 0.35000000
v 0.27331595 0.15000000 0.35000000
v 0.35000000 0.15000000 0.27699206
v 0.25000000 1.46635226 -0.22362539
vt 1.00000000 0.47722062
vt 0.00000000 1.00000000
vt 0.00000000 0.00000000
vt 0.95922806 1.00000000
vt 0.56370994 1.00000000
vt 0.39459696 0.90000000
vt 0.22548398 1.00000000
vt 0.00000000 1.00000000
vt 0.00000000 0.00000000
vt 0.64249049 0.00000000
vt 0.70642197 0.47175291
vt 0.90999674 0.69049935
vt 1.00000000 0.95660327
vt 0.00000000 0.50000000
vt 0.00000000 0.90000000
vt 1.00000000 0.00000000
vt 1.00000000 1.00000000
vt 0.85714286 0.50000000
vt 0.85714286 0.14285714
vt 0.14285714 0.14285714
vt 0.14285714 0.50000000
vt 0.00000000 0.50000000
vt 0.00000000 0.06947940
vt 0.10935072 0.00000000
vt 0.84360490 0.00000000
vt 1.00000000 0.14919410
vt 1.00000000 0.50000000
vt 0.14285714 0.85714286
vt 0.85714286 0.85714286
vt 1.00000000 0.91725617
vt 0.66533580 1.00000000
vt 0.17275048 1.00000000
vt 0.00000000 0.84964357
vt 0.50318248 0.80000000
vt 0.18297545 1.00000000
vt 0.00000000 1.00000000
vt 0.00000000 0.00000000
vt 0.58589547 0.00000000
vt 0.66704822 0.04757052
vt 0.68632890 0.10978656
vt 0.76962012 0.13442518
vt 0.86097020 0.44221969
vt 0.97128637 0.50552531
vt 1.00000000 0.61014272
vt 0.96761304 0.92787651
vt 0.92462501 1.00000000
vt 0.68615793 1.00000000
vt 0.00000000 0.50000000
vt 0.00000000 0.94642857
vt 0.00000000 0.00000000
vt 1.00000000 1.00000000
vt 1.00000000 0.60000000
vt 0.00000000 1.00000000
vt 0.00000000 0.00000000
vt 0.00000000 1.00000000
vt 0.00000000 0.00000000
vt 1.00000000 0.58509532
vt 0.00000000 0.00000000
vt 1.00000000 0.74081651
vt 0.78059583 0.97606162
vt 0.29612300 1.00000000
vt 0.00000000 0.82692519
vt 0.00000000 1.00000000
vt 0.00000000 0.14292703
vt 0.97927397 0.00000000
vt 1.00000000 0.94041183
vt 0.00000000 0.94000194
vt 0.00000000 0.00000000
vt 1.00000000 0.00000000
vt 0.34254839 1.00000000
vt 1.00000000 1.00000000
vt 0.00000000 1.00000000
vt 0.00000000 0.00000000
vt 1.00000000 0.67032255
vt 0.65463173 1.00000000
vt 0.00000000 1.00000000
vt 0.00000000 0.00000000
vt 0.00000000 0.14054979
vt 1.00000000 0.00000000
vt 0.00000000 1.00000000
vt 1.00000000 0.00000000
vt 0.00000000 1.00000000
vt 0.00000000 0.13534586
vt 1.00000000 1.00000000
vt 0.00000000 0.95719982
vt 0.00000000 0.00000000
vt 0.00000000 1.00000000
vt 0.04426690 0.00000000
vt 1.00000000 0.35694520
vt 1.00000000 1.00000000
vt 1.00000000 0.63182042
vt 0.74520407 0.99580983
vt 0.00000000 1.00000000
vt 0.00000000 0.00000000
vt 0.00000000 0.00000000
vt 1.00000000 0.98887226
vt 0.00000000 1.00000000
vt 0.99283131 0.04444307
vt 1.00000000 0.96708244
vt 0.00000000 1.00000000
vt 0.00000000 0.00000000
vt 0.00000000 0.00000000
vt 1.00000000 0.94239181
vt 0.00000000 1.00000000
vt 0.72586482 0.00000000
vt 1.00000000 0.14919410
vt 1.00000000 0.91725617
vt 0.84284534 1.00000000
vt 0.25541553 1.00000000
vt 0.00000000 0.77648611
vt 0.00000000 0.16175837
vt 0.57367346 0.00000000
vt 1.00000000 0.50000000
vt 0.00000000 0.00000000
vt 1.00000000 0.39377993
vt 0.00000000 1.00000000
vt 1.00000000 0.64260436
vt 0.00000000 1.00000000
vt 0.00000000 0.00000000
vt 0.00000000 0.00000000
vt 1.00000000 0.52355122
vt 0.00000000 1.00000000
vt 1.00000000 0.84360490
vt 0.72586482 1.00000000
vt 0.57367346 1.00000000
vt 0.00000000 0.78309780
vt 0.00000000 0.12048778
vt 0.36641614 0.00000000
vt 0.83480733 0.00000000
vt 1.00000000 0.10935072
vt 0.00000000 0.00000000
vt 1.00000000 0.57288143
vt 0.00000000 1.00000000
vt 1.00000000 0.71239814
vt 0.00000000 1.00000000
vt 0.00000000 0.00000000
vt 1.00000000 0.84964357
vt 0.89334172 1.00000000
vt 0.13258730 1.00000000
vt 0.00000000 0.89045135
vt 0.00000000 0.10403629
vt 0.36641614 0.00000000
vt 0.83480733 0.00000000
vt 1.00000000 0.06947940
vt 1.00000000 0.50000000
vt 0.00000000 0.00000000
vt 1.00000000 0.47545693
vt 0.00000000 1.00000000
vt 0.00000000 0.00000000
vt 1.00000000 0.56897714
vt 0.00000000 1.00000000
vt 0.25541553 1.00000000
vt 0.00000000 0.81985752
vt 0.00000000 0.10429705
vt 0.13258730 0.00000000
vt 0.89334172 0.00000000
vt 1.00000000 0.17275048
vt 1.00000000 0.66533580
vt 0.84284534 1.00000000
vt 0.59746536 0.95650776
vt 0.46245253 0.73838440
vt 0.19969169 0.93431257
vt 0.05274922 0.89167151
vt 0.00000000 0.83032445
vt 0.00000000 0.54801337
vt 0.46326758 0.00000000
vt 0.63313698 0.57038083
vt 0.93091768 0.59871994
vt 1.00000000 0.64196223
vt 1.00000000 0.75295141
vt 0.74128007 1.00000000
vt 1.00000000 1.00000000
vt 0.00000000 0.75048135
vt 0.00000000 0.00000000
vt 0.78451597 1.00000000
vt 0.46103682 1.00000000
vt 0.32272577 0.90000000
vt 0.18441473 1.00000000
vt 0.00000000 1.00000000
vt 0.00000000 0.00000000
vt 0.18441473 0.00000000
vt 0.55324419 0.20000000
vt 0.69155523 0.00000000
vt 0.93189808 0.00000000
vt 0.98002442 0.07661292
vt 1.00000000 0.20195570
vt 0.95386551 0.35906066
vt 0.84564885 0.40253366
vt 0.88694671 0.80030831
vt 0.84494427 0.94725078
vt 0.00000000 0.10000000
vt 1.00000000 0.00000000
vt 1.00000000 1.00000000
vt 0.00000000 1.00000000
vt 0.00000000 0.00000000
vt 0.95275780 0.00000000
vt 1.00000000 0.58158713
vt 0.84782499 1.00000000
vt 0.00000000 0.02477419
vt 0.44710384 0.00000000
vt 1.00000000 1.00000000
vt 0.00000000 0.85608667
vn -0.21110605 0.87812478 -0.42933800
vn -0.21110605 0.87812478 -0.42933800
vn -0.21110605 0.87812478 -0.42933800
vn 0.00000000 0.00000000 -1.00000000
vn 0.00000000 0.00000000 -1.00000000
vn 0.00000000 0.00000000 -1.00000000
vn 0.00000000 0.00000000 -1.00000000
vn 0.00000000 0.00000000 -1.00000000
vn 0.00000000 0.00000000 -1.00000000
vn 0.00000000 0.00000000 -1.00000000
vn 0.00000000 0.00000000 -1.00000000
vn 0.00000000 0.00000000 -1.00000000
vn 0.00000000 0.00000000 -1.00000000
vn 0.00000000 0.00000000 -1.00000000
vn 0.68824720 0.22941573 -0.68824720
vn 0.68824720 0.22941573 -0.68824720
vn 0.68824720 0.22941573 -0.68824720
vn 0.00000000 1.00000000 0.00000000
vn 0.00000000 1.00000000 0.00000000
vn 0.00000000 1.00000000 0.00000000
vn 0.00000000 1.00000000 0.00000000
vn 0.00000000 1.00000000 0.00000000
vn 0.00000000 1.00000000 0.00000000
vn 0.00000000 1.00000000 0.00000000
vn 0.00000000 1.00000000 0.00000000
vn 0.00000000 1.00000000 0.00000000
vn 0.00000000 1.00000000 0.00000000
vn 0.00000000 1.00000000 0.00000000
vn 0.00000000 1.00000000 0.00000000
vn 0.00000000 1.00000000 0.00000000
vn 0.00000000 1.00000000 0.00000000
vn 0.00000000 1.00000000 0.00000000
vn 0.00000000 1.00000000 0.00000000
vn 0.00000000 0.00000000 1.00000000
vn 0.00000000 0.00000000 1.00000000
vn 0.00000000 0.00000000 1.00000000
vn 0.00000000 0.00000000 1.00000000
vn 0.00000000 0.00000000 1.00000000
vn 0.00000000 0.00000000 1.00000000
vn 0.00000000 0.00000000 1.00000000
vn 0.00000000 0.00000000 1.00000000
vn 0.00000000 0.00000000 1.00000000
vn 0.00000000 0.00000000 1.00000000
vn 0.00000000 0.00000000 1.00000000
vn 0.00000000 0.00000000 1.00000000
vn 0.00000000 0.00000000 1.00000000
vn 0.00000000 0.00000000 1.00000000
vn 0.00000000 0.00000000 1.00000000
vn 0.64715023 0.18490007 0.73960026
vn 0.64715023 0.18490007 0.73960026
vn 0.64715023 0.18490007 0.73960026
vn 0.74278135 -0.37139068 0.55708601
vn 0.74278135 -0.37139068 0.55708601
vn 0.74278135 -0.37139068 0.55708601
vn 0.61056243 0.46858900 0.63846524
vn 0.61056243 0.46858900 0.63846524
vn 0.61056243 0.46858900 0.63846524
vn 0.20608207 0.92483927 0.31969125
vn 0.20608207 0.92483927 0.31969125
vn 0.20608207 0.92483927 0.31969125
vn 0.20608207 0.92483927 0.31969125
vn 0.20608207 0.92483927 0.31969125
vn 0.59148069 0.68008208 -0.43317314
vn 0.59148069 0.68008208 -0.43317314
vn 0.59148069 0.68008208 -0.43317314
vn 0.59148069 0.68008208 -0.43317314
vn 0.50649759 0.15702408 -0.84782288
vn 0.50649759 0.15702408 -0.84782288
vn 0.50649759 0.15702408 -0.84782288
vn 0.50649759 0.15702408 -0.84782288
vn 0.25086710 0.94437221 0.21266599
vn 0.25086710 0.94437221 0.21266599
vn 0.25086710 0.94437221 0.21266599
vn -0.96238364 0.25262951 0.09998032
vn -0.96238364 0.25262951 0.09998032
vn -0.96238364 0.25262951 0.09998032
vn -0.96238364 0.25262951 0.09998032
vn -0.84449641 0.39815897 -0.35818327
vn -0.84449641 0.39815897 -0.35818327
vn -0.84449641 0.39815897 -0.35818327
vn -0.43758112 0.86999725 -0.22721698
vn -0.43758112 0.86999725 -0.22721698
vn -0.43758112 0.86999725 -0.22721698
vn -0.47877490 0.76828755 -0.42486331
vn -0.47877490 0.76828755 -0.42486331
vn -0.47877490 0.76828755 -0.42486331
vn -0.51655937 0.79616853 0.31509061
vn -0.51655937 0.79616853 0.31509061
vn -0.51655937 0.79616853 0.31509061
vn -0.51655937 0.79616853 0.31509061
vn -0.98399171 0.13315008 0.11845410
vn -0.98399171 0.13315008 0.11845410
vn -0.98399171 0.13315008 0.11845410
vn -0.98399171 0.13315008 0.11845410
vn -0.55867587 0.82465591 0.08845286
vn -0.55867587 0.82465591 0.08845286
vn -0.55867587 0.82465591 0.08845286
vn -0.96549280 0.25889074 0.02827071
vn -0.96549280 0.25889074 0.02827071
vn -0.96549280 0.25889074 0.02827071
vn -0.96549280 0.25889074 0.02827071
vn 0.72355554 0.66668130 -0.17889501
vn 0.72355554 0.66668130 -0.17889501
vn 0.72355554 0.66668130 -0.17889501
vn 0.00000000 0.00000000 -1.00000000
vn 0.00000000 0.00000000 -1.00000000
vn 0.00000000 0.00000000 -1.00000000
vn 0.00000000 0.00000000 -1.00000000
vn 0.00000000 0.00000000 -1.00000000
vn 0.00000000 0.00000000 -1.00000000
vn 0.00000000 0.00000000 -1.00000000
vn 0.00000000 0.00000000 -1.00000000
vn 0.00000000 0.00000000 -1.00000000
vn 0.45245872 -0.69290584 -0.56139344
vn 0.45245872 -0.69290584 -0.56139344
vn 0.45245872 -0.69290584 -0.56139344
vn -0.74542704 -0.36782835 -0.55591441
vn -0.74542704 -0.36782835 -0.55591441
vn -0.74542704 -0.36782835 -0.55591441
vn -0.59579547 0.56744285 -0.56836289
vn -0.59579547 0.56744285 -0.56836289
vn -0.59579547 0.56744285 -0.56836289
vn -1.00000000 0.00000000 0.00000000
vn -1.00000000 0.00000000 0.00000000
vn -1.00000000 0.00000000 0.00000000
vn -1.00000000 0.00000000 0.00000000
vn -1.00000000 0.00000000 0.00000000
vn -1.00000000 0.00000000 0.00000000
vn -1.00000000 0.00000000 0.00000000
vn -1.00000000 0.00000000 0.00000000
vn -0.70844560 -0.35200984 0.61171391
vn -0.70844560 -0.35200984 0.61171391
vn -0.70844560 -0.35200984 0.61171391
vn -0.71694827 0.52770497 0.45553556
vn -0.71694827 0.52770497 0.45553556
vn -0.71694827 0.52770497 0.45553556
vn 0.00000000 0.00000000 1.00000000
vn 0.00000000 0.00000000 1.00000000
vn 0.00000000 0.00000000 1.00000000
vn 0.00000000 0.00000000 1.00000000
vn 0.00000000 0.00000000 1.00000000
vn 0.00000000 0.00000000 1.00000000
vn 0.00000000 0.00000000 1.00000000
vn 0.00000000 0.00000000 1.00000000
vn 0.00000000 0.00000000 1.00000000
vn 0.48830398 -0.70604663 0.51289120
vn 0.48830398 -0.70604663 0.51289120
vn 0.48830398 -0.70604663 0.51289120
vn 0.35706258 0.88086592 0.31077571
vn 0.35706258 0.88086592 0.31077571
vn 0.35706258 0.88086592 0.31077571
vn 1.00000000 0.00000000 0.00000000
vn 1.00000000 0.00000000 0.00000000
vn 1.00000000 0.00000000 0.00000000
vn 1.00000000 0.00000000 0.00000000
vn 1.00000000 0.00000000 0.00000000
vn 1.00000000 0.00000000 0.00000000
vn 1.00000000 0.00000000 0.00000000
vn 1.00000000 0.00000000 0.00000000
vn -0.45428481 0.75714134 -0.46942763
vn -0.45428481 0.75714134 -0.46942763
vn -0.45428481 0.75714134 -0.46942763
vn -0.45428481 0.75714134 -0.46942763
vn -0.45428481 0.75714134 -0.46942763
vn -0.45428481 0.75714134 -0.46942763
vn -0.45428481 0.75714134 -0.46942763
vn -0.45428481 0.75714134 -0.46942763
vn -0.45428481 0.75714134 -0.46942763
vn -0.45428481 0.75714134 -0.46942763
vn 0.52831761 0.31699057 -0.78765315
vn 0.52831761 0.31699057 -0.78765315
vn 0.52831761 0.31699057 -0.78765315
vn 1.00000000 0.00000000 0.00000000
vn 1.00000000 0.00000000 0.00000000
vn 1.00000000 0.00000000 0.00000000
vn 1.00000000 0.00000000 0.00000000
vn 1.00000000 0.00000000 0.00000000
vn 1.00000000 0.00000000 0.00000000
vn 1.00000000 0.00000000 0.00000000
vn 1.00000000 0.00000000 0.00000000
vn 1.00000000 0.00000000 0.00000000
vn 1.00000000 0.00000000 0.00000000
vn 1.00000000 0.00000000 0.00000000
vn 1.00000000 0.00000000 0.00000000
vn 1.00000000 0.00000000 0.00000000
vn 1.00000000 0.00000000 0.00000000
vn 1.00000000 0.00000000 0.00000000
vn 1.00000000 0.00000000 0.00000000
vn 0.68824720 -0.22941573 -0.68824720
vn 0.68824720 -0.22941573 -0.68824720
vn 0.68824720 -0.22941573 -0.68824720
vn -1.00000000 0.00000000 0.00000000
vn -1.00000000 0.00000000 0.00000000
vn -1.00000000 0.00000000 0.00000000
vn -1.00000000 0.00000000 0.00000000
vn -1.00000000 0.00000000 0.00000000
vn -0.58191508 0.35247826 -0.73289421
vn -0.58191508 0.35247826 -0.73289421
vn -0.58191508 0.35247826 -0.73289421
vn -0.58191508 0.35247826 -0.73289421
s 1
usemtl Rock
f 3/3/3 2/2/2 1/1/1
s 2
f 10/12/12 11/13/13 4/4/4
f 2/11/11 4/4/4 5/5/5
f 1/10/10 2/11/11 6/6/6
f 6/6/6 12/14/14 9/9/9
f 7/7/7 8/8/8 12/14/14
f 6/6/6 7/7/7 12/14/14
f 6/6/6 9/9/9 1/10/10
f 2/11/11 5/5/5 6/6/6
f 2/11/11 10/12/12 4/4/4
s 3
f 13/15/15 7/16/16 6/17/17
s 4
f 12/18/18 21/27/27 20/26/26
f 9/19/19 20/26/26 19/25/25
f 19/25/25 18/24/24 14/20/20
f 17/23/23 16/22/22 14/20/20
f 15/21/21 16/22/22 26/33/33
f 22/28/28 26/33/33 25/32/32
f 24/31/31 8/29/29 22/28/28
f 24/31/31 23/30/30 8/29/29
f 22/28/28 25/32/32 24/31/31
f 22/28/28 15/21/21 26/33/33
f 16/22/22 15/21/21 14/20/20
f 18/24/24 17/23/23 14/20/20
f 14/20/20 9/19/19 19/25/25
f 23/30/30 21/27/27 8/29/29
f 21/27/27 12/18/18 8/29/29
f 9/19/19 12/18/18 20/26/26
s 5
f 31/40/40 30/39/39 29/38/38
f 29/38/38 14/37/37 28/35/35
f 15/48/48 22/36/36 28/35/35
f 14/37/37 15/48/48 28/35/35
f 28/35/35 27/34/34 29/38/38
f 27/34/34 38/47/47 33/42/42
f 37/46/46 35/44/44 33/42/42
f 37/46/46 36/45/45 35/44/44
f 35/44/44 34/43/43 33/42/42
f 38/47/47 37/46/46 33/42/42
f 27/34/34 31/40/40 29/38/38
f 27/34/34 33/42/42 31/40/40
f 33/42/42 32/41/41 31/40/40
s 6
f 27/49/49 28/50/50 39/51/51
s 7
f 38/54/54 27/53/53 39/52/52
s 8
f 36/57/57 37/56/56 40/55/55
s 9
f 36/62/62 40/61/61 42/60/60
f 36/62/62 41/59/59 35/58/58
f 36/62/62 42/60/60 41/59/59
s 10
f 44/66/66 43/63/63 41/64/64
f 41/64/64 42/65/65 44/66/66
s 11
f 43/70/70 44/67/67 45/68/68
f 45/68/68 46/69/69 43/70/70
s 12
f 46/71/71 45/72/72 47/73/73
s 13
f 34/74/74 48/75/75 49/76/76
f 34/74/74 49/76/76 33/77/77
s 14
f 49/78/78 48/79/79 50/80/80
s 15
f 49/83/83 50/82/82 51/81/81
s 16
f 52/84/84 51/85/85 50/86/86
f 50/167/86 46/161/161 10/165/165
f 47/162/162 11/164/164 10/165/165
f 47/162/162 69/163/163 11/164/164
f 46/161/161 47/162/162 10/165/165
f 41/171/169 43/160/160 46/161/161
f 50/167/86 41/171/169 46/161/161
f 50/167/86 35/170/168 41/171/169
f 48/168/166 34/169/167 35/170/168
f 50/167/86 48/168/166 35/170/168
f 10/165/165 52/166/84 50/167/86
s 17
f 33/89/89 49/90/90 51/87/87
f 51/87/87 32/88/88 33/89/89
s 18
f 31/93/93 32/92/92 51/91/91
f 52/94/94 31/93/93 51/91/91
s 19
f 52/95/95 30/96/96 31/97/97
s 20
f 29/100/100 30/99/99 52/98/98
f 3/101/101 29/100/100 52/98/98
s 21
f 24/102/102 53/103/103 23/104/104
s 22
f 58/112/112 54/105/105 20/106/106
f 57/111/111 58/112/112 21/113/113
f 21/113/113 23/107/107 56/110/110
f 23/107/107 55/109/109 56/110/110
f 23/107/107 53/108/108 55/109/109
f 21/113/113 56/110/110 57/111/111
f 58/112/112 20/106/106 21/113/113
s 23
f 56/116/116 55/115/115 59/114/114
s 24
f 58/117/117 57/118/118 60/119/119
s 25
f 20/122/122 54/121/121 19/120/120
s 26
f 19/123/123 54/124/124 58/125/125
f 19/123/123 60/126/126 18/130/130
f 61/127/127 62/128/128 18/130/130
f 62/128/128 63/129/129 18/130/130
f 60/126/126 61/127/127 18/130/130
f 19/123/123 58/125/125 60/126/126
s 27
f 64/133/133 62/132/132 61/131/131
s 28
f 63/134/134 17/135/135 18/136/136
s 29
f 17/144/144 63/143/143 62/142/142
f 16/145/145 17/144/144 64/141/141
f 64/141/141 67/140/140 16/145/145
f 67/140/140 65/138/138 26/137/137
f 67/140/140 66/139/139 65/138/138
f 67/140/140 26/137/137 16/145/145
f 17/144/144 62/142/142 64/141/141
s 30
f 68/146/146 66/147/147 67/148/148
s 31
f 26/151/151 65/150/150 25/149/149
s 32
f 59/153/153 55/152/152 53/159/159
f 24/158/158 68/154/154 59/153/153
f 25/157/157 65/156/156 68/154/154
f 65/156/156 66/155/155 68/154/154
f 24/158/158 25/157/157 68/154/154
f 59/153/153 53/159/159 24/158/158
s 33
f 4/174/172 11/173/171 69/172/170
s 34
f 42/186/184 40/185/183 37/184/182
f 45/188/186 37/184/182 38/183/181
f 4/175/173 45/188/186 39/182/180
f 39/182/180 28/181/179 13/177/175
f 28/181/179 7/178/176 13/177/175
f 22/180/178 8/179/177 7/178/176
f 28/181/179 22/180/178 7/178/176
f 13/177/175 5/176/174 39/182/180
f 5/176/174 4/175/173 39/182/180
f 4/175/173 69/190/188 47/189/187
f 45/188/186 38/183/181 39/182/180
f 4/175/173 47/189/187 45/188/186
f 45/188/186 44/187/185 37/184/182
f 44/187/185 42/186/184 37/184/182
s 35
f 13/191/189 6/192/190 5/193/191
s 36
f 29/196/194 3/197/195 1/198/196
f 1/198/196 9/194/192 14/195/193
f 14/195/193 29/196/194 1/198/196
s 37
f 2/202/200 3/199/197 52/200/198
f 52/200/198 10/201/199 2/202/200
