mtllib Materials_Modular_Terrain.mtl
o object1
g object1
v -0.19689584 6.79292223 -0.19689585
v -0.10684042 6.84652158 -0.49113134
v 1.20138125 6.58223550 -0.49138340
v 1.26180713 6.41152314 0.15818856
v 0.58905207 6.44232913 0.58905206
v -1.74999999 5.03230368 1.75000001
v 0.10140912 5.65996535 1.52783089
v -1.37499999 6.09173601 0.37500001
v -2.50000000 2.91343895 1.00000000
v -2.50000000 2.91343895 -1.00000000
v -1.37500000 6.09173599 -1.37500000
v -2.50000000 0.00000000 1.00000000
v -1.00000000 0.00000000 2.50000000
v -1.00000000 2.91343895 2.50000000
v 1.00000000 2.91343895 2.50000000
v 1.00000000 0.00000000 2.50000000
v 2.50000000 0.00000000 1.00000000
v 2.50000000 2.91343895 1.00000000
v 1.93749999 4.50258749 1.18749998
v 1.13066676 4.02089963 2.10799972
v 2.50000000 2.91343895 -1.00000000
v 2.50000000 0.00000000 -1.00000000
v 1.00000000 0.00000000 -2.50000000
v 1.00000000 2.91343895 -2.50000000
v 1.75000000 5.03230364 -1.75000000
v -1.00000000 2.91343895 -2.50000000
v -1.00000000 0.00000000 -2.50000000
v -2.50000000 0.00000000 -1.00000000
vt 0.72743624 0.00000000
vt 0.99976670 0.04465137
vt 1.00000000 0.92426735
vt 0.39878689 1.00000000
vt 0.00000000 0.57093314
vt 0.00000000 1.00000000
vt 0.11411454 0.28175927
vt 0.59630717 0.00000000
vt 1.00000000 0.21232106
vt 0.70625247 0.71463841
vt 0.00000000 0.76000000
vt 0.00000000 0.12000000
vt 0.99999999 0.00000000
vt 1.00000000 0.56000000
vt 0.66666667 1.00000000
vt 0.00000000 1.00000000
vt 0.00000000 0.00000000
vt 0.57894736 0.00000000
vt 1.00000000 0.49999999
vt 0.57894736 1.00000000
vt 1.00000000 1.00000000
vt 0.00000000 1.00000000
vt 0.00000000 0.00000000
vt 1.00000000 0.00000000
vt 1.00000000 1.00000000
vt 0.00000000 1.00000000
vt 0.00000000 0.00000000
vt 1.00000000 0.00000000
vt 0.00000000 0.12172855
vt 1.00000000 0.00000000
vt 0.87500001 1.00000000
vt 0.26133351 0.77620223
vt 1.00000000 1.00000000
vt 0.00000000 1.00000000
vt 0.00000000 0.00000000
vt 1.00000000 0.00000000
vt 0.00000000 0.00000000
vt 0.57894737 0.00000000
vt 1.00000000 0.50000000
vt 0.57894737 1.00000000
vt 0.00000000 1.00000000
vt 0.00000000 0.88000000
vt 0.00000000 0.24000000
vt 0.66666667 0.00000000
vt 1.00000000 1.00000000
vt 1.00000000 1.00000000
vt 0.00000000 1.00000000
vt 0.00000000 0.00000000
vt 1.00000000 0.00000000
vt 1.00000000 1.00000000
vt 0.00000000 1.00000000
vt 0.00000000 0.00000000
vt 1.00000000 0.00000000
vt 0.00000000 1.00000000
vt 0.25000000 0.00000000
vt 1.00000000 0.93913573
vt 1.00000000 1.00000000
vt 0.00000000 1.00000000
vt 0.00000000 0.00000000
vt 1.00000000 0.00000000
vt 0.77147073 0.00000000
vt 1.00000000 0.64270160
vt 0.40322230 1.00000000
vt 0.00000000 0.95464010
vt 0.00000000 0.26035639
vt 0.36326256 1.00000000
vt 0.00000000 0.88809215
vt 0.36326256 0.06269411
vt 1.00000000 0.00000000
vt 0.93855656 0.77560513
vt 1.00000000 0.57153477
vt 0.57753671 1.00000000
vt 0.00000000 0.74468085
vt 0.00000000 0.06382978
vt 0.43315254 0.00000000
vt 0.95346911 0.35040389
vt 1.00000000 0.34713803
vt 0.86859754 0.74322293
vt 0.00000000 1.00000000
vt 0.00000000 0.00000000
vt 1.00000000 0.16467253
vt 0.53137718 0.96258064
vt 0.35240136 1.00000000
vt 0.00000000 0.00000000
vn 0.19263015 0.95330146 0.23261548
vn 0.19263015 0.95330146 0.23261548
vn 0.19263015 0.95330146 0.23261548
vn 0.19263015 0.95330146 0.23261548
vn 0.19263015 0.95330146 0.23261548
vn -0.20432368 0.80158051 0.56189013
vn -0.20432368 0.80158051 0.56189013
vn -0.20432368 0.80158051 0.56189013
vn -0.20432368 0.80158051 0.56189013
vn -0.20432368 0.80158051 0.56189013
vn -0.94268759 0.33367666 0.00000000
vn -0.94268759 0.33367666 0.00000000
vn -0.94268759 0.33367666 0.00000000
vn -0.94268759 0.33367666 0.00000000
vn -0.94268759 0.33367666 0.00000000
vn -0.70710678 0.00000000 0.70710678
vn -0.70710678 0.00000000 0.70710678
vn -0.70710678 0.00000000 0.70710678
vn -0.70710678 0.00000000 0.70710678
vn -0.70710678 0.00000000 0.70710678
vn 0.00000000 0.00000000 1.00000000
vn 0.00000000 0.00000000 1.00000000
vn 0.00000000 0.00000000 1.00000000
vn 0.00000000 0.00000000 1.00000000
vn 0.70710678 0.00000000 0.70710678
vn 0.70710678 0.00000000 0.70710678
vn 0.70710678 0.00000000 0.70710678
vn 0.70710678 0.00000000 0.70710678
vn 0.69746397 0.16458437 0.69746397
vn 0.69746397 0.16458437 0.69746397
vn 0.69746397 0.16458437 0.69746397
vn 0.69746397 0.16458437 0.69746397
vn 1.00000000 0.00000000 -0.00000000
vn 1.00000000 0.00000000 -0.00000000
vn 1.00000000 0.00000000 -0.00000000
vn 1.00000000 0.00000000 -0.00000000
vn 0.70710678 0.00000000 -0.70710678
vn 0.70710678 0.00000000 -0.70710678
vn 0.70710678 0.00000000 -0.70710678
vn 0.70710678 0.00000000 -0.70710678
vn 0.70710678 0.00000000 -0.70710678
vn 0.00000000 0.33367666 -0.94268759
vn 0.00000000 0.33367666 -0.94268759
vn 0.00000000 0.33367666 -0.94268759
vn -0.00000000 0.33367666 -0.94268759
vn 0.00000000 0.00000000 -1.00000000
vn 0.00000000 0.00000000 -1.00000000
vn 0.00000000 0.00000000 -1.00000000
vn 0.00000000 0.00000000 -1.00000000
vn -0.70710678 0.00000000 -0.70710678
vn -0.70710678 0.00000000 -0.70710678
vn -0.70710678 0.00000000 -0.70710678
vn -0.70710678 0.00000000 -0.70710678
vn -0.69746397 0.16458436 -0.69746397
vn -0.69746397 0.16458436 -0.69746397
vn -0.69746397 0.16458436 -0.69746397
vn -1.00000000 0.00000000 0.00000000
vn -1.00000000 0.00000000 0.00000000
vn -1.00000000 0.00000000 0.00000000
vn -1.00000000 0.00000000 0.00000000
vn 0.00000001 0.33367666 0.94268759
vn 0.00000001 0.33367666 0.94268759
vn 0.00000001 0.33367666 0.94268759
vn 0.00000001 0.33367666 0.94268759
vn 0.00000001 0.33367666 0.94268759
vn 0.47069273 0.54199991 0.69619283
vn 0.47069273 0.54199991 0.69619283
vn 0.47069273 0.54199991 0.69619283
vn 0.47069273 0.54199991 0.69619283
vn 0.47069273 0.54199991 0.69619283
vn 0.94268759 0.33367666 0.00000000
vn 0.94268759 0.33367666 0.00000000
vn 0.94268759 0.33367666 0.00000000
vn 0.94268759 0.33367666 0.00000000
vn 0.94268759 0.33367666 0.00000000
vn 0.94268759 0.33367666 0.00000000
vn 0.13168673 0.65256381 -0.74620311
vn 0.13168673 0.65256381 -0.74620311
vn 0.13168673 0.65256381 -0.74620311
vn 0.13168673 0.65256381 -0.74620311
vn -0.51144818 0.85931412 -0.00000001
vn -0.51144818 0.85931412 -0.00000001
vn -0.51144818 0.85931412 -0.00000001
vn -0.51144818 0.85931412 -0.00000001
s 1
usemtl Rock
f 5/5/5 4/4/4 3/3/3
f 5/5/5 3/3/3 2/2/2
f 2/2/2 1/1/1 5/5/5
s 2
f 7/7/7 5/8/8 1/9/9
f 6/6/6 7/7/7 8/10/10
f 7/7/7 1/9/9 8/10/10
s 3
f 6/15/15 8/14/14 11/13/13
f 6/15/15 11/13/13 10/12/12
f 10/12/12 9/11/11 6/15/15
s 4
f 14/18/18 6/19/19 9/20/20
f 12/16/16 14/18/18 9/20/20
f 12/16/16 13/17/17 14/18/18
s 5
f 14/24/24 13/23/23 15/21/21
f 13/23/23 16/22/22 15/21/21
s 6
f 15/25/25 16/26/26 17/27/27
f 15/25/25 17/27/27 18/28/28
s 7
f 19/31/31 20/32/32 15/29/29
f 15/29/29 18/30/30 19/31/31
s 8
f 18/36/36 17/35/35 21/33/33
f 17/35/35 22/34/34 21/33/33
s 9
f 24/38/38 25/39/39 21/40/40
f 24/38/38 21/40/40 22/41/41
f 22/41/41 23/37/37 24/38/38
s 10
f 25/44/44 24/43/43 26/42/42
f 11/45/45 25/44/44 26/42/42
s 11
f 24/46/46 23/47/47 26/49/49
f 23/47/47 27/48/48 26/49/49
s 12
f 26/50/50 27/51/51 10/53/53
f 27/51/51 28/52/52 10/53/53
s 13
f 10/54/54 11/55/55 26/56/56
s 14
f 10/57/57 28/58/58 9/60/60
f 28/58/58 12/59/59 9/60/60
s 15
f 14/65/65 15/64/64 20/63/63
f 20/63/63 7/62/62 6/61/61
f 14/65/65 20/63/63 6/61/61
s 16
f 4/67/67 5/66/66 7/70/70
f 7/70/70 20/69/69 19/68/68
f 7/70/70 19/68/68 4/67/67
s 17
f 25/72/72 3/71/71 4/76/76
f 19/75/75 21/73/73 25/72/72
f 19/75/75 18/74/74 21/73/73
f 25/72/72 4/76/76 19/75/75
s 18
f 11/79/79 2/78/78 3/77/77
f 25/80/80 11/79/79 3/77/77
s 19
f 11/84/84 8/81/81 1/82/82
f 1/82/82 2/83/83 11/84/84
