mtllib Materials_Modular_Terrain.mtl
o object1
g object1
v -2.50000000 0.00000000 1.50717787
v -2.50000000 0.00000000 -1.03553391
v -2.35423423 2.36869375 -0.97515575
v -2.38813329 1.81783401 1.46605823
v -1.76209114 3.07242243 2.08336954
v -1.61199398 1.54991231 2.40462078
v -1.65610119 0.00000000 2.50000000
v -0.58720897 2.19452058 2.36495258
v 1.11316698 1.83309449 2.38719419
v 1.14214191 0.00000000 2.50000000
v 1.82107096 0.00000000 2.12658903
v 1.35184044 2.15239660 2.23349853
v 1.29609778 2.96577765 1.89308573
v 2.39383945 1.72510900 -0.75977513
v 2.50000000 0.00000000 -0.00000000
v 2.50000000 0.00000000 -0.79346918
v 1.62811683 4.15383612 -1.58537685
v 1.15841090 1.81849732 -2.50000000
v 1.29539001 0.00000000 -2.50000000
v -1.03553391 0.00000000 -2.50000000
v -0.89825685 1.57738003 -2.50000000
v -1.68090490 3.95212124 -1.51068172
v 0.77663494 5.56033713 -0.28795114
v -0.66725236 5.86619291 0.08984853
v -0.91794478 5.10752314 1.15590982
v 0.96314869 4.07068276 1.45047191
vt 0.00000000 1.00000000
vt 0.00000000 0.00000000
vt 1.00000000 0.02374558
vt 0.76744156 0.98382843
vt 0.00000000 0.00000000
vt 0.59166148 0.03155718
vt 1.00000000 0.70369498
vt 0.50445938 0.96615001
vt 0.00000000 1.00000000
vt 0.70626465 0.01576247
vt 1.00000000 0.38198690
vt 0.83530522 0.98964531
vt 0.00000000 1.00000000
vt 0.00000000 0.00000000
vt 0.00000000 1.00000000
vt 0.00000000 0.00000000
vt 0.85165275 0.03739463
vt 1.00000000 0.40288622
vt 0.00000000 0.07718564
vt 0.72574443 0.00000000
vt 1.00000000 0.09700013
vt 0.58167172 1.00000000
vt 0.00000000 0.78175111
vt 0.00000000 0.00000000
vt 1.00000000 0.95753578
vt 0.00000000 1.00000000
vt 0.00000000 0.00000000
vt 0.41530502 0.01554259
vt 1.00000000 0.53036974
vt 0.43778745 1.00000000
vt 0.00000000 0.96356139
vt 1.00000000 0.00000000
vt 1.00000000 1.00000000
vt 0.13259150 0.94110616
vt 0.00000000 0.05876601
vt 0.00000000 0.46906742
vt 0.32815036 0.00000000
vt 1.00000000 0.21869701
vt 0.52077899 1.00000000
vt 0.00000000 1.00000000
vt 0.00000000 0.00000000
vt 0.78735735 0.23925035
vt 1.00000000 0.67071859
vt 0.00000000 0.88196290
vt 0.00000000 0.00000000
vt 1.00000000 0.45173287
vt 0.64668069 1.00000000
vt 0.36003894 0.00000000
vt 1.00000000 0.22981053
vt 0.79358863 0.82176359
vt 0.02211852 1.00000000
vt 0.00000000 0.06263713
vt 1.00000000 0.94159984
vt 0.18853414 1.00000000
vt 0.00000000 0.57328618
vt 0.05006883 0.04035495
vt 0.18853414 0.00000000
vt 0.47160019 0.09209323
vt 0.82912480 0.29272357
vt 1.00000000 0.57272646
vt 0.00000000 1.00000000
vt 0.00000000 0.00000000
vt 0.64586327 0.00000000
vt 1.00000000 0.66268692
vt 0.76999875 0.91238607
vt 0.25487991 1.00000000
vt 0.00000000 0.69573355
vt 0.25487991 0.01209732
vt 0.00000000 0.04477094
vt 0.39912238 0.00000000
vt 1.00000000 0.57790131
vt 0.59934744 0.97215206
vt 0.00000000 1.00000000
vn -0.99811187 0.06142227 0.00000000
vn -0.99811187 0.06142227 0.00000000
vn -0.99811187 0.06142227 0.00000000
vn -0.99811187 0.06142227 0.00000000
vn -0.76050068 0.06142227 0.64642558
vn -0.76050068 0.06142227 0.64642558
vn -0.76050068 0.06142227 0.64642558
vn -0.76050068 0.06142227 0.64642558
vn -0.76050068 0.06142227 0.64642558
vn 0.00000000 0.06142227 0.99811187
vn 0.00000000 0.06142227 0.99811187
vn 0.00000000 0.06142227 0.99811187
vn 0.00000000 0.06142227 0.99811187
vn 0.00000000 0.06142227 0.99811187
vn 0.48100882 0.06142227 0.87456150
vn 0.48100882 0.06142227 0.87456150
vn 0.48100882 0.06142227 0.87456150
vn 0.48100882 0.06142227 0.87456150
vn 0.93544251 0.18909619 0.29864684
vn 0.93544251 0.18909619 0.29864684
vn 0.93544251 0.18909619 0.29864684
vn 0.93544251 0.18909619 0.29864684
vn 0.93544251 0.18909619 0.29864684
vn 0.99811187 0.06142227 0.00000000
vn 0.99811187 0.06142227 0.00000000
vn 0.99811187 0.06142227 0.00000000
vn 0.81542532 0.06142227 -0.57559434
vn 0.81542532 0.06142227 -0.57559434
vn 0.81542532 0.06142227 -0.57559434
vn 0.81542532 0.06142227 -0.57559434
vn 0.81542532 0.06142227 -0.57559434
vn 0.00000000 0.00000000 -1.00000000
vn 0.00000000 0.00000000 -1.00000000
vn 0.00000000 0.00000000 -1.00000000
vn 0.00000000 0.00000000 -1.00000000
vn -0.04360259 0.37191871 -0.92724069
vn -0.04360259 0.37191871 -0.92724069
vn -0.04360259 0.37191871 -0.92724069
vn -0.04360259 0.37191871 -0.92724069
vn -0.05706199 0.65804356 -0.75081462
vn -0.05706199 0.65804356 -0.75081462
vn -0.05706199 0.65804356 -0.75081462
vn -0.05706199 0.65804356 -0.75081462
vn 0.31282387 0.73756046 0.59845283
vn 0.31282387 0.73756046 0.59845283
vn 0.31282387 0.73756046 0.59845283
vn 0.31282387 0.73756046 0.59845283
vn 0.91000257 0.35799359 0.20913133
vn 0.91000257 0.35799359 0.20913133
vn 0.91000257 0.35799359 0.20913133
vn 0.91000257 0.35799359 0.20913133
vn 0.91000257 0.35799359 0.20913133
vn 0.07071832 0.38922198 0.91842537
vn 0.07071832 0.38922198 0.91842537
vn 0.07071832 0.38922198 0.91842537
vn 0.07071832 0.38922198 0.91842537
vn 0.07071832 0.38922198 0.91842537
vn 0.07071832 0.38922198 0.91842537
vn 0.07071832 0.38922198 0.91842537
vn -0.08644302 0.19751648 0.97648085
vn -0.08644302 0.19751648 0.97648085
vn -0.08644302 0.19751648 0.97648085
vn -0.90715191 0.41301230 0.08059935
vn -0.90715191 0.41301230 0.08059935
vn -0.90715191 0.41301230 0.08059935
vn -0.90715191 0.41301230 0.08059935
vn -0.90715191 0.41301230 0.08059935
vn -0.90715191 0.41301230 0.08059935
vn -0.70577167 0.06142227 -0.70577167
vn -0.70577167 0.06142227 -0.70577167
vn -0.70577167 0.06142227 -0.70577167
vn -0.70577167 0.06142227 -0.70577167
vn -0.70577167 0.06142227 -0.70577167
s 1
usemtl Rock
f 2/2/2 1/1/1 4/4/4
f 4/4/4 3/3/3 2/2/2
s 2
f 6/8/8 5/7/7 4/6/6
f 6/8/8 4/6/6 1/5/5
f 1/5/5 7/9/9 6/8/8
s 3
f 8/11/11 6/10/10 7/14/14
f 7/14/14 10/13/13 8/11/11
f 10/13/13 9/12/12 8/11/11
s 4
f 9/17/17 10/16/16 11/15/15
f 12/18/18 9/17/17 11/15/15
s 5
f 14/22/22 13/21/21 12/20/20
f 14/22/22 12/20/20 11/19/19
f 11/19/19 15/23/23 14/22/22
s 6
f 16/26/26 14/25/25 15/24/24
s 7
f 14/28/28 16/27/27 19/31/31
f 18/30/30 17/29/29 14/28/28
f 14/28/28 19/31/31 18/30/30
s 8
f 20/33/33 21/34/34 18/35/35
f 19/32/32 20/33/33 18/35/35
s 9
f 17/38/38 18/37/37 21/36/36
f 22/39/39 17/38/38 21/36/36
s 10
f 24/43/43 23/42/42 17/41/41
f 24/43/43 17/41/41 22/40/40
s 11
f 23/46/46 24/47/47 25/44/44
f 25/44/44 26/45/45 23/46/46
s 12
f 23/49/49 26/48/48 13/52/52
f 13/52/52 14/51/51 23/49/49
f 14/51/51 17/50/50 23/49/49
s 13
f 9/56/56 12/57/57 13/58/58
f 5/54/54 9/56/56 26/59/59
f 26/59/59 25/53/53 5/54/54
f 5/54/54 8/55/55 9/56/56
f 9/56/56 13/58/58 26/59/59
s 14
f 6/62/62 8/61/61 5/60/60
s 15
f 25/65/65 24/64/64 22/63/63
f 3/68/68 5/66/66 25/65/65
f 3/68/68 4/67/67 5/66/66
f 25/65/65 22/63/63 3/68/68
s 16
f 21/70/70 20/69/69 2/73/73
f 2/73/73 3/72/72 21/70/70
f 3/72/72 22/71/71 21/70/70
