mtllib Materials_Modular_Terrain.mtl
o object1
g object1
v 0.32867062 0.93348037 -0.04073805
v 0.38937814 0.71389942 -0.19111964
v 0.43301270 0.54633770 -0.25000000
v 0.50000000 0.22176457 0.00000000
v 0.45256808 0.38155295 0.17701835
v 0.26410264 0.75832118 0.28206969
v 0.31089002 0.54160012 0.37212268
v 0.43301270 0.35479441 0.25000000
v 0.15945203 0.18758730 -0.45727496
v 0.25000000 0.14460689 -0.43301270
v 0.25000000 0.34513919 -0.43301270
v -0.02818584 0.63460249 -0.42805601
v -0.09181331 0.22913270 -0.47539870
v 0.19822656 1.00000000 0.04927212
v 0.11083774 0.96621912 0.21433609
v 0.00436022 0.95739601 0.23665548
v -0.02169526 1.00000000 -0.00539267
v 0.14468595 0.84779734 -0.24417565
v -0.17317909 0.89928572 -0.22841774
v -0.05637168 0.81413353 -0.35611202
v 0.25000000 0.04629963 0.43301270
v 0.22550670 -0.00000000 0.38876035
v -0.14563209 -0.00000000 0.34220734
v 0.04838632 0.13547088 0.48703492
v -0.37525564 0.11599583 0.26325837
v -0.34555270 -0.00000000 0.15021140
v -0.23825225 -0.00000000 0.29470805
v -0.27955877 0.45234730 0.37266481
v -0.30467119 0.35176067 0.37834151
v 0.08312068 0.43185624 0.46100185
v -0.02105857 0.55831217 0.42168754
v -0.18271833 0.14023641 -0.41616439
v -0.19521330 -0.00000000 -0.32698068
v 0.33865870 0.00000000 -0.34435400
v -0.46723624 0.28136848 -0.12227600
v -0.34950897 0.67575879 -0.12673855
v 0.28375846 0.49197992 0.39925425
v -0.06900788 0.86017377 0.29329309
v 0.43301270 0.09098249 0.25000000
v -0.26425912 0.64155097 0.30768805
v -0.42709947 0.52816301 0.08535674
v -0.40487077 0.20587104 0.27814193
v -0.47615751 0.36115650 0.08226294
v 0.50000000 0.00000000 0.00000000
v -0.36855405 0.00000000 -0.10314233
v 0.43301270 0.11569716 -0.25000000
vt 1.00000000 0.71132378
vt 0.64566777 0.94400879
vt 0.39098547 1.00000000
vt 0.00000000 0.31637362
vt 0.27684641 0.00000000
vt 0.00000000 0.96099659
vt 0.40819783 0.00209759
vt 0.77424176 0.00000000
vt 1.00000000 0.76290322
vt 0.92700560 1.00000000
vt 0.21433158 1.00000000
vt 0.00000000 0.00000000
vt 1.00000000 0.00000000
vt 0.79659271 0.00000000
vt 1.00000000 0.41472972
vt 0.00000000 1.00000000
vt 0.00000000 0.00000000
vt 0.00000000 0.00000000
vt 0.79290409 0.19853470
vt 1.00000000 0.63076416
vt 0.00000000 1.00000000
vt 1.00000000 0.34795080
vt 0.67404972 0.81426747
vt 0.00000000 1.00000000
vt 0.00000000 0.00000000
vt 0.00000000 0.51393404
vt 0.29032692 0.00000000
vt 0.78405675 0.10805205
vt 1.00000000 0.51609435
vt 0.59513636 1.00000000
vt 0.01237686 0.95477617
vt 0.98366997 0.56730137
vt 0.63606361 1.00000000
vt 0.30478726 0.95503711
vt 0.00000000 0.37528287
vt 0.65239363 0.00000000
vt 1.00000000 0.08963984
vt 1.00000000 0.51315787
vt 0.00000000 1.00000000
vt 0.00000000 0.00000000
vt 0.34176813 1.00000000
vt 0.00000000 0.92618583
vt 0.00000000 0.00000000
vt 1.00000000 0.52130971
vt 0.00000000 0.20996272
vt 1.00000000 0.00000000
vt 0.73943097 1.00000000
vt 0.30494763 1.00000000
vt 0.00000000 0.93135134
vt 0.00000000 0.00000000
vt 0.83530359 0.27787040
vt 1.00000000 0.62554483
vt 0.42207380 0.00000000
vt 1.00000000 0.03115121
vt 0.64150120 1.00000000
vt 0.11375076 0.78360179
vt 0.00000000 0.60278203
vt 0.00000000 0.13084983
vt 0.00000000 0.56637412
vt 0.33354366 0.00000000
vt 0.79498397 0.33426947
vt 1.00000000 0.75390633
vt 0.82704003 0.98042373
vt 0.57482329 1.00000000
vt 0.07082099 0.77690091
vt 0.11525818 0.06679538
vt 0.76585601 0.00000000
vt 1.00000000 0.25997514
vt 0.94755795 0.83497460
vt 0.66018211 1.00000000
vt 0.33009106 0.99230879
vt 0.00000000 0.56899032
vt 0.00000000 0.15336306
vt 0.09021364 1.00000000
vt 0.00000000 0.00000000
vt 0.89981799 0.18445964
vt 1.00000000 0.33270927
vt 0.62284367 1.00000000
vt 1.00000000 0.55258844
vt 0.00000000 1.00000000
vt 0.00000000 0.25913645
vt 0.67681358 0.00000000
vt 0.00000000 0.34461458
vt 0.48396129 0.00000000
vt 1.00000000 0.55499165
vt 0.00000000 1.00000000
vt 0.00000000 0.55289984
vt 0.24031173 0.06899715
vt 0.70365564 0.00000000
vt 0.90970612 0.06728005
vt 1.00000000 0.52037154
vt 0.78654858 1.00000000
vt 0.31281096 0.90096538
vt 0.00000000 0.04857236
vt 0.73050432 0.00000000
vt 1.00000000 0.34924360
vt 0.65119500 1.00000000
vt 0.18052156 0.73296090
vt 0.00000000 0.53677623
vt 0.00000000 1.00000000
vt 0.23845312 0.00000000
vt 0.92986938 0.00000000
vt 1.00000000 0.29192660
vt 0.58121572 1.00000000
vt 1.00000000 0.00000000
vt 0.58061418 0.89808055
vt 0.00000000 1.00000000
vt 0.00000000 0.69030444
vt 0.00000000 0.49633000
vt 0.39375413 0.00000000
vt 0.82185301 0.19877009
vt 1.00000000 1.00000000
vt 0.53028610 0.00000000
vt 1.00000000 0.18575850
vt 0.97630203 0.80042606
vt 0.67097674 1.00000000
vt 0.32539119 0.97351765
vt 0.12829145 0.84997849
vt 0.06350034 0.74334129
vt 0.00000000 0.31603479
vt 0.28246779 0.06303220
vt 0.53277352 0.00000000
vt 1.00000000 0.22543218
vt 0.51339891 1.00000000
vt 0.03805354 0.56746738
vt 0.00000000 0.36273476
vt 0.00000000 0.11140373
vt 1.00000000 0.00000000
vt 0.49840840 1.00000000
vt 0.00000000 0.80774779
vt 0.00000000 0.06918042
vt 0.77907631 0.00000000
vt 1.00000000 0.50169678
vt 0.57003276 1.00000000
vt 0.32117884 0.96996926
vt 0.00000000 0.69822398
vt 0.00000000 0.51555986
vt 0.21176857 0.00000000
vt 1.00000000 0.00000000
vt 0.63173233 1.00000000
vt 0.26468408 1.00000000
vt 0.21176857 1.00000000
vt 0.00000000 0.00000000
vt 0.40591116 0.00000000
vt 1.00000000 1.00000000
vt 0.00000000 0.00000000
vt 1.00000000 0.67004946
vt 0.00000000 1.00000000
vn 0.97055166 0.23631393 0.04674608
vn 0.97055166 0.23631393 0.04674608
vn 0.97055166 0.23631393 0.04674608
vn 0.97055166 0.23631393 0.04674608
vn 0.97055166 0.23631393 0.04674608
vn 0.87147508 0.33642502 0.35686046
vn 0.87147508 0.33642502 0.35686046
vn 0.87147508 0.33642502 0.35686046
vn 0.87147508 0.33642502 0.35686046
vn 0.87147508 0.33642502 0.35686046
vn 0.25881905 0.00000000 -0.96592583
vn 0.25881905 0.00000000 -0.96592583
vn 0.25881905 0.00000000 -0.96592583
vn 0.08830976 0.10183668 -0.99087369
vn 0.08830976 0.10183668 -0.99087369
vn 0.08830976 0.10183668 -0.99087369
vn 0.08830976 0.10183668 -0.99087369
vn -0.04419298 0.98307514 0.17779270
vn -0.04419298 0.98307514 0.17779270
vn -0.04419298 0.98307514 0.17779270
vn -0.04419298 0.98307514 0.17779270
vn 0.63483318 0.61876457 0.46272805
vn 0.63483318 0.61876457 0.46272805
vn 0.63483318 0.61876457 0.46272805
vn 0.63483318 0.61876457 0.46272805
vn 0.11783786 0.87256447 -0.47407329
vn 0.11783786 0.87256447 -0.47407329
vn 0.11783786 0.87256447 -0.47407329
vn 0.11783786 0.87256447 -0.47407329
vn 0.11783786 0.87256447 -0.47407329
vn 0.11783786 0.87256447 -0.47407329
vn 0.39568463 0.39447042 -0.82935322
vn 0.39568463 0.39447042 -0.82935322
vn 0.39568463 0.39447042 -0.82935322
vn 0.39568463 0.39447042 -0.82935322
vn 0.39568463 0.39447042 -0.82935322
vn 0.39568463 0.39447042 -0.82935322
vn 0.46407659 0.58426790 -0.66578070
vn 0.46407659 0.58426790 -0.66578070
vn 0.46407659 0.58426790 -0.66578070
vn -0.09331576 -0.66168803 0.74394968
vn -0.09331576 -0.66168803 0.74394968
vn -0.09331576 -0.66168803 0.74394968
vn -0.09331576 -0.66168803 0.74394968
vn -0.63102105 -0.61825669 0.46858414
vn -0.63102105 -0.61825669 0.46858414
vn -0.63102105 -0.61825669 0.46858414
vn -0.22919900 0.11179185 0.96693868
vn -0.22919900 0.11179185 0.96693868
vn -0.22919900 0.11179185 0.96693868
vn -0.22919900 0.11179185 0.96693868
vn -0.22919900 0.11179185 0.96693868
vn -0.02748529 -0.53468099 -0.84460689
vn -0.02748529 -0.53468099 -0.84460689
vn -0.02748529 -0.53468099 -0.84460689
vn -0.02748529 -0.53468099 -0.84460689
vn -0.02748529 -0.53468099 -0.84460689
vn -0.02748529 -0.53468099 -0.84460689
vn -0.65883211 0.18842346 -0.72831096
vn -0.65883211 0.18842346 -0.72831096
vn -0.65883211 0.18842346 -0.72831096
vn -0.65883211 0.18842346 -0.72831096
vn -0.65883211 0.18842346 -0.72831096
vn -0.65883211 0.18842346 -0.72831096
vn -0.65883211 0.18842346 -0.72831096
vn 0.15489646 0.40741687 0.90001032
vn 0.15489646 0.40741687 0.90001032
vn 0.15489646 0.40741687 0.90001032
vn 0.15489646 0.40741687 0.90001032
vn 0.15489646 0.40741687 0.90001032
vn 0.15489646 0.40741687 0.90001032
vn 0.15489646 0.40741687 0.90001032
vn 0.15489646 0.40741687 0.90001032
vn 0.70710678 0.00000000 0.70710678
vn 0.70710678 0.00000000 0.70710678
vn 0.70710678 0.00000000 0.70710678
vn 0.70710678 0.00000000 0.70710678
vn 0.70710678 0.00000000 0.70710678
vn 0.27964023 0.05143796 0.95872597
vn 0.27964023 0.05143796 0.95872597
vn 0.27964023 0.05143796 0.95872597
vn 0.27964023 0.05143796 0.95872597
vn -0.30512248 0.33129116 0.89283058
vn -0.30512248 0.33129116 0.89283058
vn -0.30512248 0.33129116 0.89283058
vn -0.30512248 0.33129116 0.89283058
vn -0.72523912 0.66050370 0.19432724
vn -0.72523912 0.66050370 0.19432724
vn -0.72523912 0.66050370 0.19432724
vn -0.72523912 0.66050370 0.19432724
vn -0.72523912 0.66050370 0.19432724
vn -0.72523912 0.66050370 0.19432724
vn -0.72523912 0.66050370 0.19432724
vn -0.83742938 0.23686978 0.49254923
vn -0.83742938 0.23686978 0.49254923
vn -0.83742938 0.23686978 0.49254923
vn -0.83742938 0.23686978 0.49254923
vn -0.83742938 0.23686978 0.49254923
vn -0.83742938 0.23686978 0.49254923
vn 0.96592583 0.00000000 0.25881905
vn 0.96592583 0.00000000 0.25881905
vn 0.96592583 0.00000000 0.25881905
vn 0.96592583 0.00000000 0.25881905
vn 0.96592583 0.00000000 0.25881905
vn 0.58243572 -0.70117645 0.41124230
vn 0.58243572 -0.70117645 0.41124230
vn 0.58243572 -0.70117645 0.41124230
vn 0.58243572 -0.70117645 0.41124230
vn -0.94769660 0.28118287 -0.15102104
vn -0.94769660 0.28118287 -0.15102104
vn -0.94769660 0.28118287 -0.15102104
vn -0.94769660 0.28118287 -0.15102104
vn 0.00000000 -1.00000000 0.00000000
vn 0.00000000 -1.00000000 0.00000000
vn 0.00000000 -1.00000000 0.00000000
vn 0.00000000 -1.00000000 0.00000000
vn 0.00000000 -1.00000000 0.00000000
vn 0.00000000 -1.00000000 0.00000000
vn 0.00000000 -1.00000000 0.00000000
vn 0.00000000 -1.00000000 0.00000000
vn -0.43735824 -0.28534426 0.85281676
vn -0.43735824 -0.28534426 0.85281676
vn -0.43735824 -0.28534426 0.85281676
vn -0.43735824 -0.28534426 0.85281676
vn -0.43735824 -0.28534426 0.85281676
vn -0.43735824 -0.28534426 0.85281676
vn -0.75326159 -0.30385313 -0.58332689
vn -0.75326159 -0.30385313 -0.58332689
vn -0.75326159 -0.30385313 -0.58332689
vn -0.75326159 -0.30385313 -0.58332689
vn -0.94199047 -0.32456144 0.08552096
vn -0.94199047 -0.32456144 0.08552096
vn -0.94199047 -0.32456144 0.08552096
vn -0.94199047 -0.32456144 0.08552096
vn -0.94199047 -0.32456144 0.08552096
vn -0.94199047 -0.32456144 0.08552096
vn 0.70710678 0.00000000 -0.70710678
vn 0.70710678 0.00000000 -0.70710678
vn 0.70710678 0.00000000 -0.70710678
vn 0.70710678 0.00000000 -0.70710678
vn 0.70710678 0.00000000 -0.70710678
vn 0.96592583 0.00000000 -0.25881905
vn 0.96592583 0.00000000 -0.25881905
vn 0.96592583 0.00000000 -0.25881905
vn 0.96592583 0.00000000 -0.25881905
vn 0.84293530 -0.36534906 -0.39494322
vn 0.84293530 -0.36534906 -0.39494322
vn 0.84293530 -0.36534906 -0.39494322
s 1
usemtl Rock
f 5/5/5 4/4/4 3/3/3
f 5/5/5 2/2/2 1/1/1
f 5/5/5 3/3/3 2/2/2
s 2
f 7/8/8 8/9/9 5/10/10
f 1/6/6 6/7/7 5/10/10
f 6/7/7 7/8/8 5/10/10
s 3
f 11/13/13 10/12/12 9/11/11
s 4
f 11/15/15 9/14/14 13/17/17
f 13/17/17 12/16/16 11/15/15
s 5
f 16/20/20 15/19/19 14/18/18
f 17/21/21 16/20/20 14/18/18
s 6
f 1/24/24 14/23/23 15/22/22
f 6/25/25 1/24/24 15/22/22
s 7
f 18/26/26 20/31/31 19/30/30
f 17/29/29 1/27/27 18/26/26
f 17/29/29 14/28/28 1/27/27
f 18/26/26 19/30/30 17/29/29
s 8
f 12/36/36 20/37/37 18/32/32
f 18/32/32 2/33/33 3/34/34
f 18/32/32 3/34/34 12/36/36
f 3/34/34 11/35/35 12/36/36
s 9
f 1/40/40 2/39/39 18/38/38
s 10
f 22/42/42 21/41/41 24/44/44
f 24/44/44 23/43/43 22/42/42
s 11
f 25/45/45 26/46/46 27/47/47
s 12
f 31/52/52 28/48/48 29/49/49
f 29/49/49 24/50/50 31/52/52
f 24/50/50 30/51/51 31/52/52
s 13
f 9/57/57 10/56/56 34/55/55
f 9/57/57 34/55/55 33/54/54
f 33/54/54 32/53/53 13/58/58
f 33/54/54 13/58/58 9/57/57
s 14
f 19/62/62 20/63/63 12/64/64
f 32/59/59 36/61/61 12/64/64
f 32/59/59 35/60/60 36/61/61
f 12/64/64 13/65/65 32/59/59
f 36/61/61 19/62/62 12/64/64
s 15
f 15/71/71 16/70/70 38/69/69
f 6/72/72 38/69/69 31/68/68
f 31/68/68 37/66/66 7/73/73
f 31/68/68 30/67/67 37/66/66
f 31/68/68 7/73/73 6/72/72
f 6/72/72 15/71/71 38/69/69
s 16
f 8/78/78 7/77/77 37/76/76
f 8/78/78 37/76/76 21/75/75
f 21/75/75 39/74/74 8/78/78
s 17
f 30/82/82 24/81/81 21/80/80
f 30/82/82 21/80/80 37/79/79
s 18
f 40/83/83 28/84/84 31/85/85
f 40/83/83 31/85/85 38/86/86
s 19
f 38/89/89 16/90/90 17/91/91
f 40/88/88 17/91/91 36/93/93
f 36/93/93 41/87/87 40/88/88
f 17/91/91 19/92/92 36/93/93
f 40/88/88 38/89/89 17/91/91
s 20
f 42/94/94 29/99/99 28/98/98
f 28/98/98 40/97/97 41/96/96
f 28/98/98 41/96/96 42/94/94
f 41/96/96 43/95/95 42/94/94
s 21
f 4/104/104 5/103/103 8/102/102
f 4/104/104 8/102/102 39/101/101
f 39/101/101 44/100/100 4/104/104
s 22
f 39/106/106 21/107/107 22/108/108
f 44/105/105 39/106/106 22/108/108
s 23
f 35/109/109 43/110/110 41/111/111
f 35/109/109 41/111/111 36/112/112
s 24
f 27/118/118 26/117/117 45/116/116
f 23/119/119 27/118/118 33/115/115
f 33/115/115 34/114/114 44/113/113
f 33/115/115 44/113/113 23/119/119
f 44/113/113 22/120/120 23/119/119
f 27/118/118 45/116/116 33/115/115
s 25
f 42/122/122 25/121/121 27/126/126
f 29/123/123 42/122/122 23/125/125
f 23/125/125 24/124/124 29/123/123
f 42/122/122 27/126/126 23/125/125
s 26
f 32/129/129 33/130/130 45/127/127
f 45/127/127 35/128/128 32/129/129
s 27
f 26/136/136 25/135/135 42/134/134
f 42/134/134 35/132/132 45/131/131
f 42/134/134 43/133/133 35/132/132
f 45/131/131 26/136/136 42/134/134
s 28
f 46/138/138 34/137/137 10/141/141
f 11/140/140 3/139/139 46/138/138
f 46/138/138 10/141/141 11/140/140
s 29
f 3/145/145 4/144/144 46/142/142
f 4/144/144 44/143/143 46/142/142
s 30
f 34/148/148 46/147/147 44/146/146
