mtllib Materials_Modular_Terrain.mtl
o object1
g object1
v 0.53716710 0.43724109 -0.27348511
v 0.32642943 0.64425616 -0.23738079
v 0.29806744 0.61382926 0.01282727
v 0.42653699 0.44041453 0.18955576
v 0.61062461 0.34290623 -0.19273001
v 0.29695160 0.65649201 -0.27195220
v 0.35269392 0.56003717 -0.38030520
v 0.48828726 0.45865766 -0.32814012
v 0.20226660 0.67600074 -0.25003604
v -0.15468562 0.58139145 -0.35631122
v -0.11483857 0.54335017 -0.39904527
v -0.01068743 0.50451609 -0.44267063
v 0.20052180 0.50655331 -0.44038449
v -0.03042805 0.69959936 -0.03263831
v -0.35659838 0.66805597 0.05484124
v -0.43407486 0.59733957 -0.13692843
v -0.28419016 0.58071735 -0.28173966
v -0.09079424 0.68934780 0.13374712
v 0.07532507 0.62844531 0.27448646
v 0.13606094 0.49144434 0.46729515
v -0.40057978 0.60187809 0.11897567
v 0.13270916 0.34450414 0.54041667
v -0.01808280 0.17757197 0.54351055
v -0.33347746 0.17569649 0.37285635
v -0.47889591 0.33114938 0.21444501
v -0.51490265 0.45287040 0.13277073
v -0.14264051 -0.10572226 0.21813450
v -0.18148609 -0.03356031 0.31931885
v 0.03029129 0.12287258 0.53415972
v 0.33628673 0.10177980 0.50009736
v 0.47766833 0.01492531 0.37687052
v 0.12349232 -0.11105687 0.20664582
v 0.32927498 0.16627540 0.50582041
v 0.43449378 0.22384084 0.41332425
v 0.55355754 0.03330501 0.31030683
v 0.61612273 0.03855180 0.13694496
v 0.16533055 -0.11110753 0.04814394
v 0.39106537 0.05345000 -0.36993193
v 0.15751583 -0.06178568 -0.22135737
v 0.09113700 -0.10883234 -0.10534897
v 0.60421888 0.10046225 -0.20534392
v 0.49492513 0.08396061 -0.32898196
v 0.19173520 0.18048267 -0.44681972
v 0.10596053 0.12872200 -0.38372319
v -0.23574487 -0.03122917 -0.22026836
v -0.23224096 0.02492265 -0.28606896
v 0.02945813 0.13823725 -0.40044700
v -0.34807842 0.21194232 -0.32694986
v -0.60579284 0.29920015 -0.06126459
v -0.57250936 0.18668512 0.01423251
v -0.40653187 -0.02895709 0.01605366
v -0.34820818 0.21263710 -0.32663091
v -0.06359072 0.20295183 -0.40004883
v -0.25050066 0.47979457 -0.34193934
v -0.25552468 0.53688544 -0.32100099
v -0.31842382 0.24222442 -0.34604946
v -0.59103262 0.44707006 -0.03298906
v 0.28001476 0.42527592 0.41083536
v 0.15130590 0.29335819 -0.46161455
vt 0.00000000 0.66010912
vt 0.23052939 0.00000000
vt 0.74717309 0.19975978
vt 1.00000000 0.83594722
vt 0.10439123 1.00000000
vt 1.00000000 0.46285235
vt 0.10613636 1.00000000
vt 0.00000000 0.80806516
vt 0.28355809 0.00000000
vt 0.82273191 0.16259162
vt 0.00000000 0.09625295
vt 0.58115482 0.00000000
vt 0.84551234 0.13559688
vt 1.00000000 0.99524577
vt 0.73935496 1.00000000
vt 0.36155549 0.88685247
vt 0.00000000 0.48998195
vt 0.17861366 0.06561818
vt 1.00000000 0.00000000
vt 0.90445625 0.58859254
vt 0.43715918 1.00000000
vt 0.00000000 0.69304318
vt 0.05420774 0.30481516
vt 0.00000000 1.00000000
vt 0.00000000 0.00000000
vt 1.00000000 0.36985780
vt 0.49747984 0.00000000
vt 1.00000000 0.34333302
vt 0.82332133 0.68279567
vt 0.00000000 1.00000000
vt 0.00000000 0.04863503
vt 0.92931686 0.77149064
vt 0.62711194 1.00000000
vt 0.15011658 0.83085142
vt 0.00000000 0.46158982
vt 0.00000000 0.21507274
vt 0.23914179 0.00000000
vt 1.00000000 0.49952607
vt 0.00000000 1.00000000
vt 0.00000000 0.57762877
vt 0.38924727 0.00000000
vt 1.00000000 0.10557166
vt 0.00000000 0.68039452
vt 0.10635310 0.36056797
vt 0.68478722 0.00000000
vt 1.00000000 0.42472445
vt 0.98321040 0.91605023
vt 0.30155581 1.00000000
vt 0.00000000 0.45881667
vt 0.00000000 0.15652038
vt 0.53128258 0.00000000
vt 1.00000000 0.99300944
vt 0.62880088 1.00000000
vt 1.00000000 0.18357987
vt 0.96456481 0.76464371
vt 0.84158912 1.00000000
vt 0.00000000 0.52762768
vt 0.00000000 0.00000000
vt 0.29113294 1.00000000
vt 0.02449103 0.52540165
vt 0.00000000 0.24501071
vt 0.22422921 0.00000000
vt 1.00000000 0.17539277
vt 0.74318217 0.84115780
vt 0.48411116 1.00000000
vt 0.00000000 1.00000000
vt 0.00000000 0.00000000
vt 1.00000000 0.72096070
vt 0.34152980 1.00000000
vt 0.00000000 0.78118201
vt 0.08412317 0.00000000
vt 1.00000000 0.48996322
vt 0.00000000 1.00000000
vt 0.00000000 0.00000000
vt 1.00000000 0.38909111
vt 1.00000000 0.26605279
vt 1.00000000 0.49606144
vt 0.23241032 1.00000000
vt 0.00000000 0.97306829
vt 0.00000000 0.00000000
vt 0.00000000 0.36751427
vt 0.11326002 0.17234067
vt 0.59933828 0.00000000
vt 1.00000000 0.68263156
vt 0.73864553 0.92271317
vt 0.15050522 1.00000000
vt 0.00000000 1.00000000
vt 0.00000000 0.00000000
vt 1.00000000 0.99721515
vt 1.00000000 0.14035587
vt 1.00000000 0.87090947
vt 0.00000000 1.00000000
vt 0.00000000 0.00000000
vt 0.65576566 0.08842461
vt 1.00000000 0.28115497
vt 0.43866343 0.90368318
vt 0.00000000 1.00000000
vt 0.00000000 0.00000000
vt 0.00000000 0.00000000
vt 1.00000000 0.51057679
vt 0.00000000 1.00000000
vt 0.00000000 0.00000000
vt 0.41239857 0.15998980
vt 1.00000000 0.85510245
vt 0.93444777 1.00000000
vt 0.00000000 1.00000000
vt 0.00000000 0.00000000
vt 0.71799601 0.29714232
vt 1.00000000 0.71746684
vt 0.00000000 1.00000000
vt 1.00000000 0.34018286
vt 1.00000000 0.83378830
vt 0.00000000 1.00000000
vt 0.00000000 0.00000000
vt 1.00000000 0.12657033
vt 1.00000000 0.65269998
vt 0.57093478 1.00000000
vt 0.00000000 0.56917764
vt 0.00000000 0.00000000
vt 0.00000000 1.00000000
vt 0.00000000 0.00000000
vt 1.00000000 0.58823851
vt 1.00000000 0.71412506
vt 0.44544932 1.00000000
vt 0.00000000 0.64229422
vt 0.00000000 0.00000000
vt 0.71381654 0.05156352
vt 0.00000000 1.00000000
vt 0.82921655 0.00000000
vt 1.00000000 0.88948025
vt 0.15081683 0.00000000
vt 1.00000000 0.39553726
vt 0.99761244 0.62356600
vt 0.10744569 1.00000000
vt 0.00000000 0.21531304
vt 0.97343647 0.33390816
vt 1.00000000 0.60466294
vt 0.00000000 1.00000000
vt 0.00000000 0.00000000
vt 0.00000000 0.00000000
vt 0.81651926 0.39369897
vt 1.00000000 0.70847340
vt 0.00000000 1.00000000
vt 0.08741209 0.10299234
vt 0.22928938 0.03252624
vt 0.89671623 0.00000000
vt 0.99833290 0.05853536
vt 1.00000000 0.05747642
vt 1.00000000 0.89899650
vt 0.60844027 1.00000000
vt 0.08741209 0.68601585
vt 0.00000000 0.22990194
vt 0.00000000 0.00000000
vt 1.00000000 0.65226763
vt 0.88303726 1.00000000
vt 0.00000000 0.37446551
vt 0.00000000 0.94805173
vt 0.00000000 0.00000000
vt 0.67729894 0.17651329
vt 1.00000000 0.35796878
vt 0.88427515 0.81570557
vt 0.60885453 1.00000000
vt 1.00000000 1.00000000
vt 0.00000000 0.57132641
vt 0.72184732 0.00000000
vt 0.84216927 1.00000000
vt 0.44594993 0.98304434
vt 0.06119964 0.59927787
vt 0.00000000 0.35837788
vt 0.26083957 0.00000000
vt 0.52341513 0.00000000
vt 1.00000000 0.72731518
vt 0.40320670 0.03649555
vt 1.00000000 0.25767713
vt 0.91104013 0.90927569
vt 0.00000000 1.00000000
vt 0.00000000 0.00000000
vt 0.06416186 0.90481307
vt 0.00000000 0.62898692
vt 0.59341876 0.00000000
vt 1.00000000 0.56952653
vt 0.57293116 1.00000000
vt 0.21321775 0.00000000
vt 0.87213678 0.23829534
vt 1.00000000 1.00000000
vt 0.21321775 0.88614091
vt 0.00000000 0.30208798
vt 0.61341286 0.00000000
vt 0.98692837 0.48881721
vt 1.00000000 0.64756164
vt 0.86089024 0.85654012
vt 0.29627809 1.00000000
vt 0.00000000 0.78829221
vt 0.00000000 0.01610803
vn 0.70545135 0.68956584 0.16382108
vn 0.70545135 0.68956584 0.16382108
vn 0.70545135 0.68956584 0.16382108
vn 0.70545135 0.68956584 0.16382108
vn 0.70545135 0.68956584 0.16382108
vn 0.64248514 0.70600212 -0.29794941
vn 0.64248514 0.70600212 -0.29794941
vn 0.64248514 0.70600212 -0.29794941
vn 0.64248514 0.70600212 -0.29794941
vn 0.64248514 0.70600212 -0.29794941
vn -0.00000744 0.74692436 -0.66490902
vn -0.00000744 0.74692436 -0.66490902
vn -0.00000744 0.74692436 -0.66490902
vn -0.00000744 0.74692436 -0.66490902
vn -0.00000744 0.74692436 -0.66490902
vn -0.00000744 0.74692436 -0.66490902
vn -0.00000744 0.74692436 -0.66490902
vn -0.16679173 0.94506859 -0.28111542
vn -0.16679173 0.94506859 -0.28111542
vn -0.16679173 0.94506859 -0.28111542
vn -0.16679173 0.94506859 -0.28111542
vn -0.16679173 0.94506859 -0.28111542
vn -0.16679173 0.94506859 -0.28111542
vn -0.08844066 0.99565165 0.02925833
vn -0.08844066 0.99565165 0.02925833
vn -0.08844066 0.99565165 0.02925833
vn -0.24187575 0.75336778 0.61150070
vn -0.24187575 0.75336778 0.61150070
vn -0.24187575 0.75336778 0.61150070
vn -0.24187575 0.75336778 0.61150070
vn -0.24187575 0.75336778 0.61150070
vn -0.43617164 0.40885642 0.80161757
vn -0.43617164 0.40885642 0.80161757
vn -0.43617164 0.40885642 0.80161757
vn -0.43617164 0.40885642 0.80161757
vn -0.43617164 0.40885642 0.80161757
vn -0.43617164 0.40885642 0.80161757
vn -0.43617164 0.40885642 0.80161757
vn -0.78635524 -0.60415989 0.12898165
vn -0.78635524 -0.60415989 0.12898165
vn -0.78635524 -0.60415989 0.12898165
vn -0.78635524 -0.60415989 0.12898165
vn 0.00887517 -0.81251581 0.58287160
vn 0.00887517 -0.81251581 0.58287160
vn 0.00887517 -0.81251581 0.58287160
vn 0.00887517 -0.81251581 0.58287160
vn 0.00887517 -0.81251581 0.58287160
vn 0.00887517 -0.81251581 0.58287160
vn 0.65873290 0.00485421 0.75236122
vn 0.65873290 0.00485421 0.75236122
vn 0.65873290 0.00485421 0.75236122
vn 0.65873290 0.00485421 0.75236122
vn 0.65873290 0.00485421 0.75236122
vn 0.29994804 -0.95063893 0.07947828
vn 0.29994804 -0.95063893 0.07947828
vn 0.29994804 -0.95063893 0.07947828
vn 0.29994804 -0.95063893 0.07947828
vn 0.29994804 -0.95063893 0.07947828
vn 0.34154667 -0.92270648 -0.17876975
vn 0.34154667 -0.92270648 -0.17876975
vn 0.34154667 -0.92270648 -0.17876975
vn 0.34154667 -0.92270648 -0.17876975
vn 0.34154667 -0.92270648 -0.17876975
vn 0.34154667 -0.92270648 -0.17876975
vn 0.34154667 -0.92270648 -0.17876975
vn 0.99893662 -0.02435671 -0.03914565
vn 0.99893662 -0.02435671 -0.03914565
vn 0.99893662 -0.02435671 -0.03914565
vn -0.13975057 -0.66392503 -0.73462462
vn -0.13975057 -0.66392503 -0.73462462
vn -0.13975057 -0.66392503 -0.73462462
vn -0.13975057 -0.66392503 -0.73462462
vn -0.54003413 -0.62580132 -0.56279290
vn -0.54003413 -0.62580132 -0.56279290
vn -0.54003413 -0.62580132 -0.56279290
vn 0.04677213 -0.76107135 -0.64697973
vn 0.04677213 -0.76107135 -0.64697973
vn 0.04677213 -0.76107135 -0.64697973
vn 0.04677213 -0.76107135 -0.64697973
vn 0.04677213 -0.76107135 -0.64697973
vn -0.68788912 -0.53361591 -0.49199859
vn -0.68788912 -0.53361591 -0.49199859
vn -0.68788912 -0.53361591 -0.49199859
vn -0.68788912 -0.53361591 -0.49199859
vn -0.68788912 -0.53361591 -0.49199859
vn -0.68788912 -0.53361591 -0.49199859
vn 0.78138952 0.37493760 -0.49885089
vn 0.78138952 0.37493760 -0.49885089
vn 0.78138952 0.37493760 -0.49885089
vn -0.18705980 -0.97425778 -0.12581896
vn -0.18705980 -0.97425778 -0.12581896
vn -0.18705980 -0.97425778 -0.12581896
vn -0.18705980 -0.97425778 -0.12581896
vn 0.24149892 0.35279745 -0.90399791
vn 0.24149892 0.35279745 -0.90399791
vn 0.24149892 0.35279745 -0.90399791
vn 0.24149892 0.35279745 -0.90399791
vn 0.24149892 0.35279745 -0.90399791
vn -0.19597403 0.07294868 -0.97789195
vn -0.19597403 0.07294868 -0.97789195
vn -0.19597403 0.07294868 -0.97789195
vn -0.24530269 -0.34713538 -0.90516497
vn -0.24530269 -0.34713538 -0.90516497
vn -0.24530269 -0.34713538 -0.90516497
vn -0.24530269 -0.34713538 -0.90516497
vn -0.24530269 -0.34713538 -0.90516497
vn -0.02025757 -0.99978215 -0.00502765
vn -0.02025757 -0.99978215 -0.00502765
vn -0.02025757 -0.99978215 -0.00502765
vn -0.02025757 -0.99978215 -0.00502765
vn -0.61862280 -0.47083540 0.62898319
vn -0.61862280 -0.47083540 0.62898319
vn -0.61862280 -0.47083540 0.62898319
vn -0.61862280 -0.47083540 0.62898319
vn -0.90882997 0.01097590 0.41702233
vn -0.90882997 0.01097590 0.41702233
vn -0.90882997 0.01097590 0.41702233
vn -0.90882997 0.01097590 0.41702233
vn -0.90882997 0.01097590 0.41702233
vn -0.58328737 0.77576893 0.24074554
vn -0.58328737 0.77576893 0.24074554
vn -0.58328737 0.77576893 0.24074554
vn 0.48406962 0.38096250 0.78774627
vn 0.48406962 0.38096250 0.78774627
vn 0.48406962 0.38096250 0.78774627
vn 0.48406962 0.38096250 0.78774627
vn 0.48406962 0.38096250 0.78774627
vn 0.68788912 0.53361591 0.49199859
vn 0.68788912 0.53361591 0.49199859
vn 0.68788912 0.53361591 0.49199859
vn 0.10509443 -0.07655669 0.99151109
vn 0.10509443 -0.07655669 0.99151109
vn 0.10509443 -0.07655669 0.99151109
vn 0.10509443 -0.07655669 0.99151109
vn 0.10509443 -0.07655669 0.99151109
vn -0.41131574 -0.49463272 0.76560945
vn -0.41131574 -0.49463272 0.76560945
vn -0.41131574 -0.49463272 0.76560945
vn -0.41131574 -0.49463272 0.76560945
vn -0.78589252 0.61147791 0.09202015
vn -0.78589252 0.61147791 0.09202015
vn -0.78589252 0.61147791 0.09202015
vn -0.78589252 0.61147791 0.09202015
vn -0.66852271 0.20351109 -0.71530456
vn -0.66852271 0.20351109 -0.71530456
vn -0.66852271 0.20351109 -0.71530456
vn -0.66852271 0.20351109 -0.71530456
vn -0.66852271 0.20351109 -0.71530456
vn -0.66852271 0.20351109 -0.71530456
vn -0.66852271 0.20351109 -0.71530456
vn -0.66852271 0.20351109 -0.71530456
vn -0.66852271 0.20351109 -0.71530456
vn -0.45701857 0.40872570 -0.78998565
vn -0.45701857 0.40872570 -0.78998565
vn -0.45701857 0.40872570 -0.78998565
vn -0.45701857 0.40872570 -0.78998565
vn -0.45678503 -0.27451745 -0.84616051
vn -0.45678503 -0.27451745 -0.84616051
vn -0.45678503 -0.27451745 -0.84616051
vn -0.45678503 -0.27451745 -0.84616051
vn -0.45678503 -0.27451745 -0.84616051
vn -0.45678503 -0.27451745 -0.84616051
vn 0.00983862 0.09683637 -0.99525169
vn 0.00983862 0.09683637 -0.99525169
vn 0.00983862 0.09683637 -0.99525169
vn 0.36461150 0.00855117 -0.93112047
vn 0.36461150 0.00855117 -0.93112047
vn 0.36461150 0.00855117 -0.93112047
vn 0.36461150 0.00855117 -0.93112047
vn 0.36461150 0.00855117 -0.93112047
vn 0.36461150 0.00855117 -0.93112047
vn 0.36461150 0.00855117 -0.93112047
vn 0.74817337 0.01474445 -0.66333944
vn 0.74817337 0.01474445 -0.66333944
vn 0.74817337 0.01474445 -0.66333944
vn 0.74817337 0.01474445 -0.66333944
vn 0.74817337 0.01474445 -0.66333944
vn 0.87090219 0.36825642 0.32544829
vn 0.87090219 0.36825642 0.32544829
vn 0.87090219 0.36825642 0.32544829
vn 0.87090219 0.36825642 0.32544829
vn 0.87090219 0.36825642 0.32544829
vn 0.50618597 0.77027919 0.38787333
vn 0.50618597 0.77027919 0.38787333
vn 0.50618597 0.77027919 0.38787333
vn 0.50618597 0.77027919 0.38787333
vn 0.50618597 0.77027919 0.38787333
vn 0.23141714 0.96225058 0.14324778
vn 0.23141714 0.96225058 0.14324778
vn 0.23141714 0.96225058 0.14324778
vn 0.23141714 0.96225058 0.14324778
vn 0.23141714 0.96225058 0.14324778
vn 0.23141714 0.96225058 0.14324778
vn 0.23141714 0.96225058 0.14324778
s 1
usemtl Rock
f 5/5/5 1/1/1 2/2/2
f 2/2/2 3/3/3 4/4/4
f 2/2/2 4/4/4 5/5/5
s 2
f 7/9/9 6/8/8 2/7/7
f 8/10/10 2/7/7 1/6/6
f 8/10/10 7/9/9 2/7/7
s 3
f 9/13/13 6/12/12 7/11/11
f 13/17/17 11/15/15 9/13/13
f 13/17/17 12/16/16 11/15/15
f 11/15/15 10/14/14 9/13/13
f 9/13/13 7/11/11 13/17/17
s 4
f 17/23/23 16/22/22 15/21/21
f 15/21/21 14/20/20 10/18/18
f 14/20/20 9/19/19 10/18/18
f 10/18/18 17/23/23 15/21/21
s 5
f 18/26/26 14/25/25 15/24/24
s 6
f 18/28/28 15/27/27 21/31/31
f 21/31/31 20/30/30 18/28/28
f 20/30/30 19/29/29 18/28/28
s 7
f 21/37/37 26/36/36 25/35/35
f 20/38/38 21/37/37 24/34/34
f 24/34/34 23/33/33 20/38/38
f 23/33/33 22/32/32 20/38/38
f 21/37/37 25/35/35 24/34/34
s 8
f 27/39/39 28/40/40 24/41/41
f 27/39/39 24/41/41 25/42/42
s 9
f 28/44/44 27/43/43 32/48/48
f 32/48/48 31/47/47 29/45/45
f 31/47/47 30/46/46 29/45/45
f 29/45/45 28/44/44 32/48/48
s 10
f 34/51/51 33/50/50 30/49/49
f 31/53/53 34/51/51 30/49/49
f 31/53/53 35/52/52 34/51/51
s 11
f 36/54/54 35/55/55 31/56/56
f 31/56/56 32/57/57 37/58/58
f 36/54/54 31/56/56 37/58/58
s 12
f 38/59/59 42/65/65 41/64/64
f 41/64/64 36/63/63 37/62/62
f 37/62/62 40/61/61 39/60/60
f 37/62/62 39/60/60 41/64/64
f 39/60/60 38/59/59 41/64/64
s 13
f 5/66/66 36/67/67 41/68/68
s 14
f 44/70/70 43/69/69 38/72/72
f 38/72/72 39/71/71 44/70/70
s 15
f 39/75/75 40/74/74 44/73/73
s 16
f 45/76/76 46/77/77 47/78/78
f 47/78/78 44/79/79 40/80/80
f 45/76/76 47/78/78 40/80/80
s 17
f 48/83/83 46/82/82 45/81/81
f 51/86/86 49/84/84 48/83/83
f 51/86/86 50/85/85 49/84/84
f 48/83/83 45/81/81 51/86/86
s 18
f 52/87/87 46/88/88 48/89/89
s 19
f 51/90/90 45/91/91 27/93/93
f 45/91/91 40/92/92 27/93/93
s 20
f 44/98/98 47/94/94 53/95/95
f 54/96/96 55/97/97 44/98/98
f 44/98/98 53/95/95 54/96/96
s 21
f 53/99/99 56/100/100 54/101/101
s 22
f 46/106/106 52/105/105 56/104/104
f 46/106/106 56/104/104 53/103/103
f 53/103/103 47/102/102 46/106/106
s 23
f 40/107/107 37/108/108 32/109/109
f 40/107/107 32/109/109 27/110/110
s 24
f 27/114/114 25/113/113 51/111/111
f 25/113/113 50/112/112 51/111/111
s 25
f 57/117/117 49/116/116 50/115/115
f 25/119/119 57/117/117 50/115/115
f 25/119/119 26/118/118 57/117/117
s 26
f 26/120/120 16/121/121 57/122/122
s 27
f 58/125/125 20/124/124 22/123/123
f 33/127/127 58/125/125 22/123/123
f 33/127/127 34/126/126 58/125/125
s 28
f 34/128/128 4/129/129 58/130/130
s 29
f 22/134/134 23/133/133 29/132/132
f 29/132/132 30/131/131 33/135/135
f 33/135/135 22/134/134 29/132/132
s 30
f 28/138/138 29/137/137 23/136/136
f 24/139/139 28/138/138 23/136/136
s 31
f 26/140/140 21/141/141 15/142/142
f 26/140/140 15/142/142 16/143/143
s 32
f 17/152/152 55/144/144 54/145/145
f 16/151/151 54/145/145 56/146/146
f 56/146/146 52/147/147 16/151/151
f 52/147/147 48/148/148 16/151/151
f 48/148/148 49/149/149 16/151/151
f 49/149/149 57/150/150 16/151/151
f 16/151/151 17/152/152 54/145/145
s 33
f 55/154/154 17/155/155 10/156/156
f 11/153/153 55/154/154 10/156/156
s 34
f 59/161/161 43/162/162 44/157/157
f 44/157/157 55/158/158 59/161/161
f 55/158/158 11/159/159 59/161/161
f 11/159/159 12/160/160 59/161/161
s 35
f 12/165/165 13/164/164 59/163/163
s 36
f 13/167/167 7/166/166 8/172/172
f 8/172/172 42/171/171 43/169/169
f 42/171/171 38/170/170 43/169/169
f 43/169/169 13/167/167 8/172/172
f 43/169/169 59/168/168 13/167/167
s 37
f 5/174/174 41/175/175 42/176/176
f 42/176/176 8/177/177 1/173/173
f 1/173/173 5/174/174 42/176/176
s 38
f 34/182/182 35/178/178 36/179/179
f 36/179/179 5/180/180 4/181/181
f 4/181/181 34/182/182 36/179/179
s 39
f 19/184/184 20/183/183 58/187/187
f 58/187/187 4/186/186 3/185/185
f 58/187/187 3/185/185 19/184/184
s 40
f 2/189/189 6/190/190 9/191/191
f 3/188/188 9/191/191 14/192/192
f 14/192/192 18/193/193 19/194/194
f 3/188/188 14/192/192 19/194/194
f 3/188/188 2/189/189 9/191/191
