mtllib Materials_Modular_Terrain.mtl
o object1
g object1
v -0.36602540 0.04578694 0.00000000
v -0.79903811 -0.00421306 0.25000000
v -0.25000000 -0.00421306 0.79903811
v -0.00000000 0.04578694 0.36602540
v -0.50000000 0.04578694 -0.50000000
v -1.00000000 -0.00421306 -0.50000000
v -0.00000000 -0.00421306 -0.50000000
v 0.06698730 -0.00421306 -0.25000000
v 0.25000000 -0.00421306 -0.06698730
v 0.50000000 0.04578694 0.50000000
v 0.50000000 -0.00421306 0.00000000
v 0.50000000 -0.00421306 1.00000000
vt 1.00000000 0.00000000
vt 1.00000000 1.00000000
vt 0.00000000 1.00000000
vt 0.00000000 0.00000000
vt 1.00000000 0.00000000
vt 1.00000000 1.00000000
vt 0.00000000 1.00000000
vt 0.00000000 0.00000000
vt 1.00000000 0.00000000
vt 1.00000000 1.00000000
vt 0.00000000 1.00000000
vt 0.00000000 0.00000000
vt 1.00000000 0.00000000
vt 1.00000000 1.00000000
vt 0.00000000 1.00000000
vt 0.00000000 0.00000000
vt 0.00000000 1.00000000
vt 0.00000000 0.00000000
vt 1.00000000 0.00000000
vt 1.00000000 1.00000000
vt 0.00000000 1.00000000
vt 0.00000000 0.00000000
vt 1.00000000 0.00000000
vt 1.00000000 1.00000000
vn -0.07281590 0.99468371 0.07281590
vn -0.07281590 0.99468371 0.07281590
vn -0.07281590 0.99468371 0.07281590
vn -0.07281590 0.99468371 0.07281590
vn -0.09946837 0.99468371 0.02665247
vn -0.09946837 0.99468371 0.02665247
vn -0.09946837 0.99468371 0.02665247
vn -0.09946837 0.99468371 0.02665247
vn 0.09946837 0.99468371 -0.02665247
vn 0.09946837 0.99468371 -0.02665247
vn 0.09946837 0.99468371 -0.02665247
vn 0.09946837 0.99468371 -0.02665247
vn 0.07281590 0.99468371 -0.07281590
vn 0.07281590 0.99468371 -0.07281590
vn 0.07281590 0.99468371 -0.07281590
vn 0.07281590 0.99468371 -0.07281590
vn 0.02665247 0.99468371 -0.09946837
vn 0.02665247 0.99468371 -0.09946837
vn 0.02665247 0.99468371 -0.09946837
vn 0.02665247 0.99468371 -0.09946837
vn -0.02665247 0.99468371 0.09946837
vn -0.02665247 0.99468371 0.09946837
vn -0.02665247 0.99468371 0.09946837
vn -0.02665247 0.99468371 0.09946837
s 1
usemtl Dirt
f 1/1/1 2/2/2 4/4/4
f 2/2/2 3/3/3 4/4/4
s 2
f 5/5/5 6/6/6 1/8/8
f 6/6/6 2/7/7 1/8/8
s 3
f 7/9/9 5/10/10 8/12/12
f 5/10/10 1/11/11 8/12/12
s 4
f 8/13/13 1/14/14 4/15/15
f 8/13/13 4/15/15 9/16/16
s 5
f 10/17/17 11/18/18 4/20/20
f 11/18/18 9/19/19 4/20/20
s 6
f 12/21/21 10/22/22 3/24/24
f 10/22/22 4/23/23 3/24/24
