mtllib Materials_Modular_Terrain.mtl
o object1
g object1
v -0.00175765 1.77714678 -0.10178802
v -0.33179077 1.50218677 0.06948660
v -0.24047091 1.37541075 -0.24842610
v -0.44864692 0.97142682 0.02417085
v -0.52132803 0.66048581 0.14835954
v -0.39170157 0.23422323 -0.07313047
v -0.20827284 0.09040937 -0.38655129
v -0.31025379 1.15530805 -0.21229858
v 0.44215040 0.29039768 -0.12784414
v 0.39192390 0.46571227 -0.28842494
v 0.21411049 0.30557680 -0.42453049
v 0.39921680 0.14270341 -0.10032886
v -0.30195169 0.00000000 0.14459566
v -0.18740530 0.00000000 -0.25451214
v 0.08893779 0.85167865 0.48375450
v 0.04403969 0.60400627 0.46793883
v 0.07481137 0.32655746 0.43043453
v 0.20320251 0.29065087 0.39521485
v 0.16276088 0.83855273 0.46431661
v -0.08005637 1.33723678 0.43543442
v 0.17694140 1.33307804 0.35930239
v 0.21929921 1.22954695 0.36771076
v -0.22978509 0.99812320 0.38654048
v -0.11635246 0.18013566 -0.45167629
v -0.01447735 0.63213136 -0.49297226
v -0.03225032 0.85004709 -0.45977218
v 0.31212284 0.00000000 0.03783543
v 0.23653230 0.00000000 0.22275297
v -0.10337831 0.00000000 0.26081022
v 0.23145078 0.21295490 0.34694762
v -0.27975571 1.37040769 0.27459693
v 0.15946059 1.54601145 0.11671584
v 0.17996627 1.55583899 -0.19435457
v 0.31196916 1.38237401 -0.15180797
v -0.43239851 1.26918756 0.17659128
v -0.49947061 0.87081983 0.20323622
v 0.43965408 0.50557938 -0.00880497
v 0.39296724 1.04083267 0.07096784
v 0.31296962 1.38060375 -0.14755008
vt 1.00000000 0.30980992
vt 0.00000000 1.00000000
vt 0.00000000 0.00000000
vt 1.00000000 0.62099947
vt 0.85725573 1.00000000
vt 0.35564334 0.64893526
vt 0.00000000 0.00000000
vt 0.95709817 0.03454371
vt 0.66918456 1.00000000
vt 0.00000000 0.68624391
vt 0.00000000 0.00000000
vt 1.00000000 0.89358474
vt 1.00000000 1.00000000
vt 0.00000000 0.75081969
vt 0.00000000 0.00000000
vt 0.45191102 0.19320924
vt 0.00000000 0.00000000
vt 1.00000000 0.74555757
vt 0.00000000 1.00000000
vt 0.98598587 0.86316473
vt 0.50101969 1.00000000
vt 0.00000000 0.71293192
vt 0.00000000 0.00000000
vt 1.00000000 0.45648917
vt 1.00000000 0.60198553
vt 0.18203720 1.00000000
vt 0.00000000 0.88162243
vt 0.00000000 0.09298684
vt 0.24043971 0.00000000
vt 1.00000000 0.62986817
vt 0.39677195 1.00000000
vt 0.00000000 0.07532730
vt 0.39677195 0.00000000
vt 0.73279469 1.00000000
vt 0.14377637 0.91202126
vt 0.00000000 0.73917513
vt 0.00000000 0.00000000
vt 0.32911209 0.00350360
vt 1.00000000 0.87765932
vt 0.95359872 0.00000000
vt 1.00000000 0.49159882
vt 0.54833261 1.00000000
vt 0.16925623 1.00000000
vt 0.00000000 0.00000000
vt 0.00000000 0.00000000
vt 0.65212076 0.05516627
vt 0.89004509 0.15294421
vt 1.00000000 0.53744551
vt 0.00000000 1.00000000
vt 0.36933617 0.92459614
vt 0.00000000 0.62503697
vt 0.49322367 0.00000000
vt 1.00000000 1.00000000
vt 0.00000000 1.00000000
vt 0.00000000 0.00000000
vt 1.00000000 0.18218449
vt 0.78512903 0.62504559
vt 0.00000000 0.07305990
vt 0.67797864 0.00000000
vt 1.00000000 0.63096316
vt 0.00000000 1.00000000
vt 0.86125712 1.00000000
vt 0.12808151 1.00000000
vt 0.00000000 0.51061976
vt 0.26118886 0.00000000
vt 0.43548489 0.00315007
vt 1.00000000 0.70176850
vt 0.06942722 0.41050609
vt 0.51633006 0.00000000
vt 1.00000000 0.53300313
vt 0.99195658 1.00000000
vt 0.12663618 1.00000000
vt 0.00000000 0.70413537
vt 0.00000000 0.00000000
vt 1.00000000 0.83419433
vt 0.00000000 1.00000000
vt 0.73548770 0.00000000
vt 1.00000000 0.36443809
vt 0.33924070 1.00000000
vt 0.00000000 0.79991999
vt 0.00000000 0.17551319
vt 0.66172774 0.00000000
vt 0.87245726 0.07090412
vt 1.00000000 0.56611228
vt 0.60514200 0.98841024
vt 0.32717150 1.00000000
vt 0.00000000 0.63550516
vt 0.00000000 0.28529553
vt 0.00000000 0.00000000
vt 0.51183300 0.31304025
vt 1.00000000 1.00000000
vt 0.00000000 0.61068015
vt 0.92632470 0.13871877
vt 1.00000000 0.50714859
vt 0.67808414 1.00000000
vt 0.00000000 0.65430665
vt 0.00000000 0.00000000
vt 1.00000000 0.37485055
vt 0.00000000 1.00000000
vt 0.00000000 0.00000000
vt 0.00000000 0.00000000
vt 0.55734074 0.00000000
vt 1.00000000 0.61602120
vt 0.73480006 0.97120491
vt 0.17579511 1.00000000
vt 0.06127292 0.91586418
vt 0.00000000 0.22225513
vt 1.00000000 0.00000000
vt 0.99445884 0.64580552
vt 0.22742797 1.00000000
vt 0.00000000 0.94937571
vt 1.00000000 0.68423481
vt 0.99389355 0.69814520
vt 0.00000000 1.00000000
vt 0.00000000 0.00000000
vt 0.71305941 0.22749570
vt 1.00000000 0.82723909
vt 0.44789185 1.00000000
vt 0.16841368 0.89445974
vt 0.00000000 0.56352786
vt 0.16841368 0.18407987
vt 0.72062564 0.00000000
vt 0.68222168 0.00000000
vt 1.00000000 0.21199244
vt 1.00000000 0.71320613
vt 0.01652201 0.99888799
vt 0.00000000 1.00000000
vt 0.00000000 0.14163364
vn -0.69915746 0.57200837 -0.42893505
vn -0.69915746 0.57200837 -0.42893505
vn -0.69915746 0.57200837 -0.42893505
vn -0.86305902 -0.00000000 -0.50510308
vn -0.86305902 -0.00000000 -0.50510308
vn -0.86305902 -0.00000000 -0.50510308
vn -0.86305902 -0.00000000 -0.50510308
vn -0.86305902 -0.00000000 -0.50510308
vn 0.74173157 -0.32492391 -0.58673566
vn 0.74173157 -0.32492391 -0.58673566
vn 0.74173157 -0.32492391 -0.58673566
vn 0.74173157 -0.32492391 -0.58673566
vn -0.81518341 -0.52984666 -0.23396265
vn -0.81518341 -0.52984666 -0.23396265
vn -0.81518341 -0.52984666 -0.23396265
vn -0.81518341 -0.52984666 -0.23396265
vn -0.94766337 -0.31505531 0.05171358
vn -0.94766337 -0.31505531 0.05171358
vn -0.94766337 -0.31505531 0.05171358
vn 0.23582426 -0.10444697 0.96616652
vn 0.23582426 -0.10444697 0.96616652
vn 0.23582426 -0.10444697 0.96616652
vn 0.23582426 -0.10444697 0.96616652
vn 0.23582426 -0.10444697 0.96616652
vn 0.28162286 0.19158037 0.94020504
vn 0.28162286 0.19158037 0.94020504
vn 0.28162286 0.19158037 0.94020504
vn 0.28162286 0.19158037 0.94020504
vn 0.28162286 0.19158037 0.94020504
vn -0.29490787 -0.00755433 0.95549583
vn -0.29490787 -0.00755433 0.95549583
vn -0.29490787 -0.00755433 0.95549583
vn -0.29490787 -0.00755433 0.95549583
vn -0.62036664 0.06843992 -0.78132017
vn -0.62036664 0.06843992 -0.78132017
vn -0.62036664 0.06843992 -0.78132017
vn -0.62036664 0.06843992 -0.78132017
vn -0.62036664 0.06843992 -0.78132017
vn -0.62036664 0.06843992 -0.78132017
vn 0.00000000 -1.00000000 0.00000000
vn 0.00000000 -1.00000000 0.00000000
vn 0.00000000 -1.00000000 0.00000000
vn 0.00000000 -1.00000000 0.00000000
vn 0.00000000 -1.00000000 0.00000000
vn 0.09637824 -0.49972082 0.86080795
vn 0.09637824 -0.49972082 0.86080795
vn 0.09637824 -0.49972082 0.86080795
vn 0.09637824 -0.49972082 0.86080795
vn 0.09637824 -0.49972082 0.86080795
vn -0.33244440 0.75286812 0.56804077
vn -0.33244440 0.75286812 0.56804077
vn -0.33244440 0.75286812 0.56804077
vn -0.33244440 0.75286812 0.56804077
vn 0.20102482 0.74334122 0.63799127
vn 0.20102482 0.74334122 0.63799127
vn 0.20102482 0.74334122 0.63799127
vn 0.20102482 0.74334122 0.63799127
vn -0.03506794 0.36099436 -0.93190842
vn -0.03506794 0.36099436 -0.93190842
vn -0.03506794 0.36099436 -0.93190842
vn -0.03506794 0.36099436 -0.93190842
vn 0.49773631 0.17016662 -0.85047157
vn 0.49773631 0.17016662 -0.85047157
vn 0.49773631 0.17016662 -0.85047157
vn 0.49773631 0.17016662 -0.85047157
vn 0.49773631 0.17016662 -0.85047157
vn 0.49773631 0.17016662 -0.85047157
vn 0.33244440 -0.75286812 -0.56804077
vn 0.33244440 -0.75286812 -0.56804077
vn 0.33244440 -0.75286812 -0.56804077
vn 0.33244440 -0.75286812 -0.56804077
vn 0.33244440 -0.75286812 -0.56804077
vn 0.33244440 -0.75286812 -0.56804077
vn 0.12583532 -0.11835205 -0.98496612
vn 0.12583532 -0.11835205 -0.98496612
vn 0.12583532 -0.11835205 -0.98496612
vn -0.90724850 0.22982174 -0.35225294
vn -0.90724850 0.22982174 -0.35225294
vn -0.90724850 0.22982174 -0.35225294
vn -0.90724850 0.22982174 -0.35225294
vn -0.90724850 0.22982174 -0.35225294
vn -0.49773631 -0.17016662 0.85047157
vn -0.49773631 -0.17016662 0.85047157
vn -0.49773631 -0.17016662 0.85047157
vn -0.49773631 -0.17016662 0.85047157
vn -0.49773631 -0.17016662 0.85047157
vn -0.49773631 -0.17016662 0.85047157
vn -0.49773631 -0.17016662 0.85047157
vn -0.97002767 0.15056413 -0.19072692
vn -0.97002767 0.15056413 -0.19072692
vn -0.97002767 0.15056413 -0.19072692
vn -0.97002767 0.15056413 -0.19072692
vn -0.60412886 0.15401064 0.78186255
vn -0.60412886 0.15401064 0.78186255
vn -0.60412886 0.15401064 0.78186255
vn -0.60412886 0.15401064 0.78186255
vn -0.60412886 0.15401064 0.78186255
vn -0.67825719 0.52785843 0.51120706
vn -0.67825719 0.52785843 0.51120706
vn -0.67825719 0.52785843 0.51120706
vn 0.86305902 -0.00000000 0.50510308
vn 0.86305902 -0.00000000 0.50510308
vn 0.86305902 -0.00000000 0.50510308
vn 0.86305902 0.00000000 0.50510308
vn 0.86305902 0.00000000 0.50510308
vn 0.86305902 0.00000000 0.50510308
vn 0.88247145 0.38319977 0.27276746
vn 0.88247145 0.38319977 0.27276746
vn 0.88247145 0.38319977 0.27276746
vn 0.88247145 0.38319977 0.27276746
vn 0.88247145 0.38319977 0.27276746
vn 0.78527558 0.61503935 0.07119590
vn 0.78527558 0.61503935 0.07119590
vn 0.78527558 0.61503935 0.07119590
vn 0.78527558 0.61503935 0.07119590
vn 0.78527558 0.61503935 0.07119590
vn 0.90791846 -0.19478228 0.37113869
vn 0.90791846 -0.19478228 0.37113869
vn 0.90791846 -0.19478228 0.37113869
vn 0.90791846 -0.19478228 0.37113869
vn 0.90791846 -0.19478228 0.37113869
vn 0.90791846 -0.19478228 0.37113869
vn 0.97670972 0.11242906 -0.18275073
vn 0.97670972 0.11242906 -0.18275073
vn 0.97670972 0.11242906 -0.18275073
vn 0.97670972 0.11242906 -0.18275073
vn 0.97670972 0.11242906 -0.18275073
vn 0.97670972 0.11242906 -0.18275073
s 1
usemtl Rock
f 3/3/3 2/2/2 1/1/1
s 2
f 5/5/5 4/4/4 8/8/8
f 8/8/8 7/7/7 5/5/5
f 7/7/7 6/6/6 5/5/5
s 3
f 10/10/10 9/9/9 12/12/12
f 12/12/12 11/11/11 10/10/10
s 4
f 6/14/14 7/15/15 14/16/16
f 13/13/13 6/14/14 14/16/16
s 5
f 13/17/17 5/18/18 6/19/19
s 6
f 19/24/24 15/20/20 16/21/21
f 16/21/21 17/22/22 18/23/23
f 16/21/21 18/23/23 19/24/24
s 7
f 22/27/27 21/26/26 20/25/25
f 15/29/29 22/27/27 20/25/25
f 15/29/29 19/28/28 22/27/27
s 8
f 23/31/31 16/32/32 15/33/33
f 20/30/30 23/31/31 15/33/33
s 9
f 8/38/38 3/37/37 26/36/36
f 7/39/39 8/38/38 24/34/34
f 8/38/38 25/35/35 24/34/34
f 8/38/38 26/36/36 25/35/35
s 10
f 27/40/40 28/41/41 29/42/42
f 29/42/42 13/43/43 14/44/44
f 27/40/40 29/42/42 14/44/44
s 11
f 30/46/46 18/47/47 17/48/48
f 28/45/45 17/48/48 29/49/49
f 28/45/45 30/46/46 17/48/48
s 12
f 2/51/51 31/50/50 20/53/53
f 20/53/53 1/52/52 2/51/51
s 13
f 20/55/55 21/56/56 32/57/57
f 1/54/54 20/55/55 32/57/57
s 14
f 3/60/60 1/59/59 33/58/58
f 26/61/61 3/60/60 33/58/58
s 15
f 10/63/63 11/64/64 25/65/65
f 34/62/62 10/63/63 26/66/66
f 26/66/66 33/67/67 34/62/62
f 10/63/63 25/65/65 26/66/66
s 16
f 14/72/72 7/73/73 24/68/68
f 11/69/69 27/71/71 14/72/72
f 11/69/69 12/70/70 27/71/71
f 14/72/72 24/68/68 11/69/69
s 17
f 25/76/76 11/75/75 24/74/74
s 18
f 2/78/78 3/79/79 8/80/80
f 8/80/80 4/81/81 35/77/77
f 35/77/77 2/78/78 8/80/80
s 19
f 23/84/84 36/83/83 5/82/82
f 13/88/88 17/86/86 5/82/82
f 13/88/88 29/87/87 17/86/86
f 17/86/86 23/84/84 5/82/82
f 17/86/86 16/85/85 23/84/84
s 20
f 4/92/92 5/89/89 36/90/90
f 36/90/90 35/91/91 4/92/92
s 21
f 20/95/95 31/94/94 35/93/93
f 35/93/93 36/97/97 23/96/96
f 23/96/96 20/95/95 35/93/93
s 22
f 31/98/98 2/99/99 35/100/100
s 23
f 18/105/105 30/106/106 37/101/101
f 37/101/101 38/102/102 19/104/104
f 38/102/102 22/103/103 19/104/104
f 37/101/101 19/104/104 18/105/105
s 24
f 32/109/109 21/110/110 22/111/111
f 38/107/107 39/108/108 22/111/111
f 39/108/108 32/109/109 22/111/111
s 25
f 33/116/116 1/115/115 32/114/114
f 32/114/114 39/113/113 34/112/112
f 34/112/112 33/116/116 32/114/114
s 26
f 27/120/120 12/119/119 9/118/118
f 30/122/122 27/120/120 37/117/117
f 27/120/120 9/118/118 37/117/117
f 30/122/122 28/121/121 27/120/120
s 27
f 37/124/124 9/123/123 10/128/128
f 10/128/128 34/127/127 39/126/126
f 39/126/126 38/125/125 10/128/128
f 38/125/125 37/124/124 10/128/128
