mtllib Materials_Modular_Terrain.mtl
o object1
g object1
v -0.09369493 0.69814024 0.41334295
v 0.13048714 0.63082530 0.45835612
v 0.20927344 0.79353940 0.30930322
v 0.07521873 0.90940165 0.21549879
v -0.08502607 0.88434455 0.24805617
v -0.12280872 0.86404618 0.26846296
v 0.15992223 0.95016021 0.05846452
v 0.31396020 0.79589336 0.20636232
v 0.31829010 0.85717289 0.08598307
v -0.02842487 0.94373074 -0.02026618
v 0.10173156 0.95929327 -0.02236895
v 0.12617939 0.85390099 -0.27530336
v 0.18671884 0.80321676 -0.30754859
v 0.36407854 0.72256022 -0.21039278
v 0.41096518 0.73765031 -0.08184312
v -0.13796052 0.74158094 -0.39842382
v 0.00901257 0.60253787 -0.48936100
v 0.16402726 0.58161839 -0.48580434
v -0.11777149 0.78665127 -0.36014879
v 0.44518526 0.31946012 -0.17821555
v 0.51109835 0.42773786 0.04108011
v 0.33116472 0.51359869 -0.38853649
v 0.46125654 0.43806921 0.22214116
v 0.50274487 0.39363362 0.13174099
v 0.26026071 0.49809364 -0.46151881
v -0.32358876 0.80569533 -0.02935693
v -0.32705127 0.78686486 0.11174803
v -0.18479067 0.88195286 -0.11818540
v -0.18742392 0.44622886 -0.43664966
v -0.27932221 0.62903925 -0.36050260
v -0.38541878 0.62547997 -0.21013732
v -0.42359783 0.50257810 -0.12063589
v -0.36973048 0.31402699 -0.14158434
v -0.28570938 0.22254946 -0.23322258
v -0.18964517 0.30591037 -0.39269004
v 0.41422612 0.25192544 -0.18429932
v 0.23171912 0.20545249 -0.36937479
v 0.01567037 0.14999571 -0.34785315
v -0.42862627 0.48006181 0.00068856
v -0.35660974 0.69374788 0.14583125
v -0.38658447 0.29069289 0.10993652
v -0.27435804 0.53076034 0.34337164
v -0.31221895 0.34631353 0.27269437
v 0.15545382 0.55838051 0.46627616
v -0.03817881 0.30680900 0.44125947
v -0.19938972 0.56083381 0.39968688
v -0.15603947 0.20055042 0.33800614
v 0.35633352 0.39016022 0.34557303
v 0.16208832 0.19023845 0.33839722
v 0.32580339 0.27744516 0.31666819
v 0.37412727 0.13593969 -0.02647226
v 0.44009530 0.25463357 0.13299715
v 0.26720853 0.06180649 -0.04687177
v 0.16703747 0.08624011 -0.24216798
v -0.06583765 0.09212050 0.23929152
v 0.08337951 0.09982548 0.25122244
v -0.00049736 0.00004039 0.00012938
v -0.00034930 0.00001530 -0.00036676
v -0.00000000 0.00000000 -0.00000000
v 0.12316161 0.01595858 0.03442350
v 0.01320033 0.05559114 -0.23724633
v -0.04201293 0.03033910 -0.17175052
v -0.09411641 0.03274978 0.08876482
v -0.19799696 0.09367159 -0.14218338
v -0.22017385 0.08921979 0.04194682
v -0.29725858 0.17536039 0.11363122
vt 0.08061869 0.77291360
vt 0.00000000 0.08062327
vt 0.66892049 0.00000000
vt 1.00000000 0.47996676
vt 0.78386828 0.91094443
vt 0.67907118 1.00000000
vt 1.00000000 0.51414314
vt 0.58875907 1.00000000
vt 0.00000000 0.65135786
vt 0.17823490 0.16277409
vt 0.60608902 0.00000000
vt 1.00000000 0.40986945
vt 0.90522064 0.86267892
vt 0.54444143 1.00000000
vt 0.00000000 0.58135188
vt 0.00000000 0.00000000
vt 0.88462826 0.09877705
vt 1.00000000 0.29618602
vt 0.82103414 0.85930521
vt 0.49620970 1.00000000
vt 0.00000000 0.68839224
vt 0.00000000 0.18086728
vt 0.19079552 0.00000000
vt 0.16049557 0.95588545
vt 0.00000000 0.37213794
vt 0.22226090 0.00000000
vt 0.95440852 0.38070652
vt 1.00000000 0.60839414
vt 0.33828001 1.00000000
vt 0.02990493 0.23550782
vt 0.64701325 0.00000000
vt 1.00000000 0.77765926
vt 0.72949447 1.00000000
vt 0.00000000 0.98050364
vt 0.77337442 0.00000000
vt 0.97336456 0.15235464
vt 1.00000000 0.39059395
vt 0.45314680 1.00000000
vt 0.00000000 0.75737529
vt 0.00000000 0.42366775
vt 1.00000000 0.48567472
vt 0.85364572 1.00000000
vt 0.00000000 0.93179230
vt 0.00000000 0.00000000
vt 0.82424282 0.12366903
vt 1.00000000 0.43549965
vt 0.86027090 0.83551150
vt 0.08999414 1.00000000
vt 0.00000000 0.89202410
vt 0.11786036 0.06412157
vt 0.68413063 0.00000000
vt 1.00000000 0.80805319
vt 0.29428043 1.00000000
vt 0.00000000 0.47712964
vt 0.00000000 0.05137003
vt 0.73987856 0.00000000
vt 1.00000000 0.20648235
vt 0.71979696 1.00000000
vt 0.00000000 0.85156408
vt 0.00000000 0.00000000
vt 0.71495292 0.07347222
vt 1.00000000 0.47359811
vt 0.50506777 1.00000000
vt 0.00000000 0.78184910
vt 0.00000000 0.11314981
vt 0.13618258 0.00000000
vt 0.83551970 0.13446469
vt 1.00000000 0.58860411
vt 0.84710178 0.93653304
vt 0.29248186 1.00000000
vt 0.00000000 0.75529313
vt 0.00000000 0.22753478
vt 0.43368725 0.00000000
vt 0.42271475 0.00000000
vt 1.00000000 0.50030393
vt 0.21809508 1.00000000
vt 0.00000000 0.80047084
vt 0.18021866 0.03593835
vt 1.00000000 0.38126653
vt 0.82748772 0.89948772
vt 0.53592830 1.00000000
vt 0.06976421 0.73247186
vt 0.00000000 0.41354652
vt 0.10244321 0.16284479
vt 0.72793375 0.00000000
vt 1.00000000 0.33181755
vt 0.98033254 0.69135008
vt 0.63533994 1.00000000
vt 0.00000000 0.55160239
vt 0.00000000 0.13645773
vt 0.27537926 0.00000000
vt 0.00000000 0.00000000
vt 1.00000000 0.04569521
vt 0.48728676 0.96315328
vt 0.00000000 1.00000000
vt 0.84951130 0.00249360
vt 1.00000000 0.56293194
vt 0.65556639 1.00000000
vt 0.00000000 0.76917402
vt 0.00000000 0.00000000
vt 0.17335143 0.00000000
vt 1.00000000 0.33369453
vt 0.45118968 1.00000000
vt 0.00000000 0.81784036
vt 0.00000000 0.13093861
vt 0.99368277 0.35769908
vt 1.00000000 0.63341957
vt 0.29689175 1.00000000
vt 0.00000000 0.91785534
vt 0.00000000 0.16513352
vt 0.64093116 0.00000000
vt 1.00000000 0.38669823
vt 0.82491960 1.00000000
vt 0.16710759 0.93327392
vt 0.00000000 0.27497976
vt 0.16710759 0.00000000
vt 0.00000000 0.61852455
vt 0.37723382 0.04136180
vt 0.55223897 0.00000000
vt 0.97280409 0.36113750
vt 1.00000000 0.71497134
vt 0.14049236 1.00000000
vt 0.87639858 0.79063195
vt 0.33423706 1.00000000
vt 0.00000000 0.83607111
vt 0.00000000 0.00000000
vt 1.00000000 0.06472130
vt 1.00000000 0.21450129
vt 0.84539981 0.79107431
vt 0.30516625 1.00000000
vt 0.00000000 0.82717287
vt 0.00000000 0.11811129
vt 0.24968965 0.00000000
vt 1.00000000 0.31005750
vt 0.67291187 0.92811807
vt 0.00000030 1.00000000
vt 0.00000000 0.19138088
vt 0.69277632 0.00000000
vt 1.00000000 0.16392473
vt 0.83068799 0.99354060
vt 0.22296030 1.00000000
vt 0.00000000 0.37055903
vt 0.26016352 0.00000000
vt 0.00000000 0.23322037
vt 0.59938830 0.00000000
vt 1.00000000 0.41322388
vt 0.93855707 1.00000000
vt 0.00000533 0.98745564
vt 0.86579469 1.00000000
vt 0.00000000 0.37404988
vt 1.00000000 0.00000000
vt 1.00000000 0.35800109
vt 0.94182135 0.78381450
vt 0.71172192 1.00000000
vt 0.22971589 0.95169444
vt 0.00000000 0.46643088
vt 0.22971589 0.06988922
vt 0.56615067 0.00000000
vt 0.73783789 1.00000000
vt 0.00000008 0.70843923
vt 0.00000000 0.00000000
vt 1.00000000 0.47786511
vt 0.00000000 0.79649008
vt 0.00092830 0.18473959
vt 0.25630945 0.00000000
vt 0.81214452 0.08932466
vt 1.00000000 0.82276177
vt 0.41228743 1.00000000
vt 0.00093034 0.79797882
vt 0.60626528 1.00000000
vt 0.00000000 0.79544083
vt 0.00000000 0.08543102
vt 0.89950798 0.00000000
vt 1.00000000 0.59763480
vt 0.99930834 0.59992150
vt 0.74782680 0.05091365
vt 1.00000000 0.51385548
vt 0.71511761 0.99516534
vt 0.00000000 1.00000000
vt 0.00000000 0.21873579
vt 0.44047873 0.00000000
vt 0.71787100 1.00000000
vt 0.00000000 0.79068783
vt 0.00000035 0.08137943
vt 0.71529666 0.00000000
vt 0.71716422 0.00095542
vt 1.00000000 0.46940557
vt 0.96426143 0.31097664
vt 1.00000000 0.67827356
vt 0.53859930 1.00000000
vt 0.00000000 0.81014503
vt 0.00000000 0.39195404
vt 0.67255578 0.00000000
vt 0.69367726 0.01683707
vt 1.00000000 1.00000000
vt 0.00000000 0.71296111
vt 0.00000000 0.00000000
vt 1.00000000 0.32377320
vt 0.36847704 1.00000000
vt 0.00000000 0.71764440
vt 0.00000000 0.18259967
vt 0.51434184 0.00000000
vn 0.04850927 0.66180617 0.74810390
vn 0.04850927 0.66180617 0.74810390
vn 0.04850927 0.66180617 0.74810390
vn 0.04850927 0.66180617 0.74810390
vn 0.04850927 0.66180617 0.74810390
vn 0.04850927 0.66180617 0.74810390
vn 0.40156452 0.81024671 0.42690303
vn 0.40156452 0.81024671 0.42690303
vn 0.40156452 0.81024671 0.42690303
vn 0.40156452 0.81024671 0.42690303
vn 0.40156452 0.81024671 0.42690303
vn -0.11346155 0.97484884 0.19182337
vn -0.11346155 0.97484884 0.19182337
vn -0.11346155 0.97484884 0.19182337
vn -0.11346155 0.97484884 0.19182337
vn -0.11346155 0.97484884 0.19182337
vn 0.52168475 0.80423866 -0.28468439
vn 0.52168475 0.80423866 -0.28468439
vn 0.52168475 0.80423866 -0.28468439
vn 0.52168475 0.80423866 -0.28468439
vn 0.52168475 0.80423866 -0.28468439
vn 0.52168475 0.80423866 -0.28468439
vn 0.52168475 0.80423866 -0.28468439
vn 0.10120136 0.61725741 -0.78022534
vn 0.10120136 0.61725741 -0.78022534
vn 0.10120136 0.61725741 -0.78022534
vn 0.10120136 0.61725741 -0.78022534
vn 0.10120136 0.61725741 -0.78022534
vn 0.10120136 0.61725741 -0.78022534
vn 0.92170763 0.15714653 -0.35462658
vn 0.92170763 0.15714653 -0.35462658
vn 0.92170763 0.15714653 -0.35462658
vn 0.92170763 0.15714653 -0.35462658
vn 0.92170763 0.15714653 -0.35462658
vn 0.89738585 0.37934260 0.22538375
vn 0.89738585 0.37934260 0.22538375
vn 0.89738585 0.37934260 0.22538375
vn 0.89738585 0.37934260 0.22538375
vn 0.89738585 0.37934260 0.22538375
vn 0.89738585 0.37934260 0.22538375
vn 0.57897889 0.47423024 -0.66324138
vn 0.57897889 0.47423024 -0.66324138
vn 0.57897889 0.47423024 -0.66324138
vn 0.57897889 0.47423024 -0.66324138
vn 0.57897889 0.47423024 -0.66324138
vn -0.42383804 0.89908452 0.10958260
vn -0.42383804 0.89908452 0.10958260
vn -0.42383804 0.89908452 0.10958260
vn -0.42383804 0.89908452 0.10958260
vn -0.42383804 0.89908452 0.10958260
vn -0.42383804 0.89908452 0.10958260
vn -0.11547743 0.91288573 -0.39154133
vn -0.11547743 0.91288573 -0.39154133
vn -0.11547743 0.91288573 -0.39154133
vn -0.11547743 0.91288573 -0.39154133
vn -0.11547743 0.91288573 -0.39154133
vn -0.38723315 0.18183443 -0.90387318
vn -0.38723315 0.18183443 -0.90387318
vn -0.38723315 0.18183443 -0.90387318
vn -0.38723315 0.18183443 -0.90387318
vn -0.63020310 0.64691560 -0.42935331
vn -0.63020310 0.64691560 -0.42935331
vn -0.63020310 0.64691560 -0.42935331
vn -0.63020310 0.64691560 -0.42935331
vn -0.63020310 0.64691560 -0.42935331
vn -0.63020310 0.64691560 -0.42935331
vn -0.80385796 -0.16620114 -0.57113007
vn -0.80385796 -0.16620114 -0.57113007
vn -0.80385796 -0.16620114 -0.57113007
vn -0.80385796 -0.16620114 -0.57113007
vn -0.80385796 -0.16620114 -0.57113007
vn -0.80385796 -0.16620114 -0.57113007
vn -0.80385796 -0.16620114 -0.57113007
vn 0.71848175 -0.27168562 -0.64028970
vn 0.71848175 -0.27168562 -0.64028970
vn 0.71848175 -0.27168562 -0.64028970
vn 0.71848175 -0.27168562 -0.64028970
vn 0.71848175 -0.27168562 -0.64028970
vn -0.01840919 -0.29864101 -0.95418795
vn -0.01840919 -0.29864101 -0.95418795
vn -0.01840919 -0.29864101 -0.95418795
vn -0.01840919 -0.29864101 -0.95418795
vn -0.01840919 -0.29864101 -0.95418795
vn -0.01840919 -0.29864101 -0.95418795
vn -0.01840919 -0.29864101 -0.95418795
vn -0.95108062 0.30842834 0.01782168
vn -0.95108062 0.30842834 0.01782168
vn -0.95108062 0.30842834 0.01782168
vn -0.95108062 0.30842834 0.01782168
vn -0.95108062 0.30842834 0.01782168
vn -0.95108062 0.30842834 0.01782168
vn -0.96028903 -0.26447082 -0.08888287
vn -0.96028903 -0.26447082 -0.08888287
vn -0.96028903 -0.26447082 -0.08888287
vn -0.96028903 -0.26447082 -0.08888287
vn -0.91315027 0.03171843 0.40638716
vn -0.91315027 0.03171843 0.40638716
vn -0.91315027 0.03171843 0.40638716
vn -0.91315027 0.03171843 0.40638716
vn -0.91315027 0.03171843 0.40638716
vn -0.18396692 0.04395120 0.98194932
vn -0.18396692 0.04395120 0.98194932
vn -0.18396692 0.04395120 0.98194932
vn -0.18396692 0.04395120 0.98194932
vn -0.18396692 0.04395120 0.98194932
vn -0.64584424 0.43473358 0.62760811
vn -0.64584424 0.43473358 0.62760811
vn -0.64584424 0.43473358 0.62760811
vn -0.64584424 0.43473358 0.62760811
vn -0.64584424 0.43473358 0.62760811
vn -0.64584424 0.43473358 0.62760811
vn -0.53407451 -0.20469245 0.82028374
vn -0.53407451 -0.20469245 0.82028374
vn -0.53407451 -0.20469245 0.82028374
vn -0.53407451 -0.20469245 0.82028374
vn -0.53407451 -0.20469245 0.82028374
vn 0.66454759 0.30366486 0.68276216
vn 0.66454759 0.30366486 0.68276216
vn 0.66454759 0.30366486 0.68276216
vn 0.66454759 0.30366486 0.68276216
vn 0.66454759 0.30366486 0.68276216
vn 0.66454759 0.30366486 0.68276216
vn 0.28543772 -0.30988505 0.90691596
vn 0.28543772 -0.30988505 0.90691596
vn 0.28543772 -0.30988505 0.90691596
vn 0.28543772 -0.30988505 0.90691596
vn 0.28543772 -0.30988505 0.90691596
vn 0.90916056 -0.41041412 -0.07062096
vn 0.90916056 -0.41041412 -0.07062096
vn 0.90916056 -0.41041412 -0.07062096
vn 0.90916056 -0.41041412 -0.07062096
vn 0.90916056 -0.41041412 -0.07062096
vn 0.90916056 -0.41041412 -0.07062096
vn 0.57435614 -0.72242942 -0.38498151
vn 0.57435614 -0.72242942 -0.38498151
vn 0.57435614 -0.72242942 -0.38498151
vn 0.57435614 -0.72242942 -0.38498151
vn 0.57435614 -0.72242942 -0.38498151
vn 0.77693549 -0.34542226 0.52635987
vn 0.77693549 -0.34542226 0.52635987
vn 0.77693549 -0.34542226 0.52635987
vn 0.77693549 -0.34542226 0.52635987
vn 0.77693549 -0.34542226 0.52635987
vn -0.02304945 -0.68344235 0.72964051
vn -0.02304945 -0.68344235 0.72964051
vn -0.02304945 -0.68344235 0.72964051
vn -0.02304945 -0.68344235 0.72964051
vn -0.02304945 -0.68344235 0.72964051
vn -0.07348547 -0.99686650 0.02927584
vn -0.07319414 -0.99691643 0.02828878
vn -0.07250152 -0.99694607 0.02901838
vn 0.47249224 -0.78933442 0.39204879
vn 0.47249224 -0.78933442 0.39204879
vn 0.47249224 -0.78933442 0.39204879
vn 0.47249224 -0.78933442 0.39204879
vn 0.47249224 -0.78933442 0.39204879
vn 0.47249224 -0.78933442 0.39204879
vn 0.47249224 -0.78933442 0.39204879
vn 0.12999778 -0.75559570 -0.64200912
vn 0.12999778 -0.75559570 -0.64200912
vn 0.12999778 -0.75559570 -0.64200912
vn 0.12999778 -0.75559570 -0.64200912
vn 0.18423685 -0.95918983 -0.21450329
vn 0.18423685 -0.95918983 -0.21450329
vn 0.18423685 -0.95918983 -0.21450329
vn 0.18423685 -0.95918983 -0.21450329
vn 0.18423685 -0.95918983 -0.21450329
vn 0.18423685 -0.95918983 -0.21450329
vn 0.18423685 -0.95918983 -0.21450329
vn 0.01900414 -0.93130136 0.36375352
vn 0.01900414 -0.93130136 0.36375352
vn 0.01900414 -0.93130136 0.36375352
vn 0.01900414 -0.93130136 0.36375352
vn 0.01900414 -0.93130136 0.36375352
vn 0.01900414 -0.93130136 0.36375352
vn -0.39580040 -0.69412041 -0.60128105
vn -0.39580040 -0.69412041 -0.60128105
vn -0.39580040 -0.69412041 -0.60128105
vn -0.39580040 -0.69412041 -0.60128105
vn -0.39580040 -0.69412041 -0.60128105
vn -0.39580040 -0.69412041 -0.60128105
vn -0.38646753 -0.91973457 -0.06878356
vn -0.38646753 -0.91973457 -0.06878356
vn -0.38646753 -0.91973457 -0.06878356
vn -0.38646753 -0.91973457 -0.06878356
vn -0.38646753 -0.91973457 -0.06878356
vn -0.38646753 -0.91973457 -0.06878356
vn -0.78417730 -0.61085004 -0.10921622
vn -0.78417730 -0.61085004 -0.10921622
vn -0.78417730 -0.61085004 -0.10921622
vn -0.78417730 -0.61085004 -0.10921622
vn -0.78417730 -0.61085004 -0.10921622
vn -0.78417730 -0.61085004 -0.10921622
vn -0.69430407 -0.52186789 0.49557619
vn -0.69430407 -0.52186789 0.49557619
vn -0.69430407 -0.52186789 0.49557619
vn -0.69430407 -0.52186789 0.49557619
vn -0.49405644 -0.77311390 0.39774758
vn -0.49405644 -0.77311390 0.39774758
vn -0.49405644 -0.77311390 0.39774758
vn -0.49405644 -0.77311390 0.39774758
vn -0.49405644 -0.77311390 0.39774758
s 1
usemtl Rock
f 3/3/3 4/4/4 5/5/5
f 1/1/1 5/5/5 6/6/6
f 1/1/1 3/3/3 5/5/5
f 1/1/1 2/2/2 3/3/3
s 2
f 3/9/9 8/10/10 9/11/11
f 9/11/11 7/7/7 4/8/8
f 4/8/8 3/9/9 9/11/11
s 3
f 7/14/14 11/13/13 10/12/12
f 5/16/16 4/15/15 10/12/12
f 4/15/15 7/14/14 10/12/12
s 4
f 11/23/23 7/22/22 9/21/21
f 9/21/21 14/19/19 12/17/17
f 14/19/19 13/18/18 12/17/17
f 9/21/21 15/20/20 14/19/19
f 12/17/17 11/23/23 9/21/21
s 5
f 17/25/25 16/24/24 19/29/29
f 19/29/29 12/28/28 13/27/27
f 19/29/29 13/27/27 17/25/25
f 13/27/27 18/26/26 17/25/25
s 6
f 22/34/34 14/33/33 15/32/32
f 15/32/32 21/31/31 20/30/30
f 22/34/34 15/32/32 20/30/30
s 7
f 23/35/35 24/36/36 21/37/37
f 23/35/35 15/38/38 8/40/40
f 15/38/38 9/39/39 8/40/40
f 23/35/35 21/37/37 15/38/38
s 8
f 22/45/45 25/41/41 18/42/42
f 13/43/43 14/44/44 22/45/45
f 22/45/45 18/42/42 13/43/43
s 9
f 28/51/51 26/46/46 27/47/47
f 27/47/47 6/48/48 5/49/49
f 5/49/49 10/50/50 27/47/47
f 10/50/50 28/51/51 27/47/47
s 10
f 28/53/53 10/54/54 11/55/55
f 28/53/53 11/55/55 12/56/56
f 12/56/56 19/52/52 28/53/53
s 11
f 29/57/57 30/58/58 16/59/59
f 29/57/57 16/59/59 17/60/60
s 12
f 19/65/65 16/66/66 30/61/61
f 31/62/62 28/64/64 19/65/65
f 31/62/62 26/63/63 28/64/64
f 19/65/65 30/61/61 31/62/62
s 13
f 32/67/67 31/73/73 30/72/72
f 30/72/72 35/70/70 33/68/68
f 35/70/70 34/69/69 33/68/68
f 30/72/72 29/71/71 35/70/70
f 33/68/68 32/67/67 30/72/72
s 14
f 20/78/78 36/74/74 37/75/75
f 37/75/75 25/76/76 22/77/77
f 37/75/75 22/77/77 20/78/78
s 15
f 17/82/82 18/83/83 25/84/84
f 35/80/80 17/82/82 37/85/85
f 37/85/85 38/79/79 35/80/80
f 17/82/82 25/84/84 37/85/85
f 35/80/80 29/81/81 17/82/82
s 16
f 40/91/91 27/90/90 26/89/89
f 26/89/89 31/88/88 39/86/86
f 31/88/88 32/87/87 39/86/86
f 39/86/86 40/91/91 26/89/89
s 17
f 39/94/94 32/95/95 33/92/92
f 33/92/92 41/93/93 39/94/94
s 18
f 39/99/99 41/98/98 43/97/97
f 43/97/97 42/96/96 40/100/100
f 40/100/100 39/99/99 43/97/97
s 19
f 44/101/101 2/105/105 1/104/104
f 46/103/103 45/102/102 44/101/101
f 44/101/101 1/104/104 46/103/103
s 20
f 42/107/107 46/106/106 1/111/111
f 6/110/110 40/108/108 42/107/107
f 6/110/110 27/109/109 40/108/108
f 42/107/107 1/111/111 6/110/110
s 21
f 46/116/116 42/115/115 43/114/114
f 43/114/114 47/113/113 45/112/112
f 46/116/116 43/114/114 45/112/112
s 22
f 3/120/120 2/119/119 44/118/118
f 23/122/122 8/121/121 44/118/118
f 44/118/118 48/117/117 23/122/122
f 8/121/121 3/120/120 44/118/118
s 23
f 49/123/123 50/124/124 48/125/125
f 48/125/125 44/126/126 45/127/127
f 45/127/127 49/123/123 48/125/125
s 24
f 21/131/131 24/130/130 52/129/129
f 20/132/132 21/131/131 51/128/128
f 51/128/128 36/133/133 20/132/132
f 21/131/131 52/129/129 51/128/128
s 25
f 36/137/137 51/138/138 53/134/134
f 53/134/134 54/135/135 36/137/137
f 54/135/135 37/136/136 36/137/137
s 26
f 52/139/139 24/143/143 23/142/142
f 23/142/142 48/141/141 50/140/140
f 23/142/142 50/140/140 52/139/139
s 27
f 55/145/145 56/146/146 49/147/147
f 55/145/145 49/147/147 45/148/148
f 45/148/148 47/144/144 55/145/145
s 28
f 57/149/149 58/150/150 59/151/151
s 29
f 60/152/152 53/153/153 51/154/154
f 51/154/154 50/156/156 56/158/158
f 50/156/156 49/157/157 56/158/158
f 51/154/154 52/155/155 50/156/156
f 56/158/158 60/152/152 51/154/154
s 30
f 54/160/160 61/159/159 38/162/162
f 38/162/162 37/161/161 54/160/160
s 31
f 62/164/164 61/165/165 54/166/166
f 58/163/163 54/166/166 59/169/169
f 53/167/167 60/168/168 59/169/169
f 54/166/166 53/167/167 59/169/169
f 58/163/163 62/164/164 54/166/166
s 32
f 55/171/171 63/170/170 57/175/175
f 57/175/175 59/174/174 56/172/172
f 59/174/174 60/173/173 56/172/172
f 56/172/172 55/171/171 57/175/175
s 33
f 38/180/180 61/181/181 62/176/176
f 62/176/176 64/177/177 34/178/178
f 62/176/176 34/178/178 38/180/180
f 34/178/178 35/179/179 38/180/180
s 34
f 57/186/186 63/187/187 65/182/182
f 64/183/183 58/185/185 57/186/186
f 64/183/183 62/184/184 58/185/185
f 57/186/186 65/182/182 64/183/183
s 35
f 65/189/189 66/188/188 41/193/193
f 41/193/193 33/192/192 65/189/189
f 33/192/192 34/191/191 64/190/190
f 33/192/192 64/190/190 65/189/189
s 36
f 43/196/196 41/197/197 66/194/194
f 66/194/194 47/195/195 43/196/196
s 37
f 66/199/199 65/200/200 63/201/201
f 63/201/201 55/202/202 47/198/198
f 47/198/198 66/199/199 63/201/201
